<svg width="103" height="103" fill="none" xmlns="http://www.w3.org/2000/svg"><path stroke="#000" stroke-width="5.912" d="M5.43 51.351h83.604"/><path d="M77.338 29.864c-.193-1.368-.109-2.16-.109-2.16s.043.806.11 2.16c.392 2.785 1.933 7.96 7.67 13.7 6.853 6.859 12.897 7.725 15.03 7.799.531-.035.819-.013.819-.013s-.289.031-.819.013c-2.096.138-7.976 1.168-14.803 8-6.208 6.213-7.622 11.641-7.931 14.152-.047.94-.076 1.482-.076 1.482s-.041-.532.076-1.482c.194-3.91.694-14.716.694-22.165 0-7.053-.449-17.118-.66-21.486z" fill="#000"/></svg>