<?xml version="1.0" encoding="UTF-8"?> <svg xmlns="http://www.w3.org/2000/svg" width="851" height="857" fill="none"><path d="M402.118 102.423l4.111-.246 3.191 19.742.323-.14 2.814-20.041 4.897-.203 4.3 19.645.322-.139 1.706-19.945 4.111-.246-2.38 23.694-6.006.299-3.739-18.352-.322.14-2.407 18.328-6.005.299-4.916-22.835zm40.639 23.864c-1.572-.087-3.284-.498-4.672-1.048-1.389-.55-2.595-1.563-3.479-2.717-.883-1.153-1.444-2.446-2.145-4.063-.378-1.756-.616-3.189-.349-5.226-.055-1.896.352-3.609.9-4.999.548-1.39 1.419-2.92 2.569-3.803 1.011-1.206 2.302-1.766 3.593-2.326 1.291-.559 3.186-.613 4.757-.526 1.571.087 3.283.497 4.672 1.048 1.389.55 2.595 1.563 3.478 2.716.884 1.154 1.445 2.447 2.146 4.064.378 1.756.616 3.189.348 5.226.056 1.896-.352 3.609-.9 4.999-.548 1.39-1.418 2.92-2.569 3.803-1.011 1.206-2.302 1.766-3.593 2.326-1.754.376-3.185.612-4.756.526zm.212-3.933c1.894-.053 3.325-.29 4.336-1.496 1.151-.883 1.881-2.736 1.685-4.956l.353-3.61c.127-2.359-.251-4.116-1.458-5.129-.883-1.154-2.272-1.704-4.306-1.974-1.894.053-3.326.289-4.336 1.496-1.151.883-1.882 2.736-1.686 4.956l-.352 3.609c-.128 2.36.251 4.117 1.457 5.13.883 1.153 2.412 2.027 4.307 1.974zm16.609 4.704l3.307-23.327 4.854.584-.535 4.073.323-.14c.505-.603.688-1.067 1.193-1.67.506-.603 1.151-.883 1.797-1.163l1.936-.839c.646-.28 1.432-.237 2.68-.01 2.498.454 4.027 1.327 5.513 2.987 1.164 1.8 1.682 3.88 1.05 6.843l-2.237 15.181-4.855-.584 2.195-14.395c.675-3.749-.952-5.732-4.235-6.229-.786-.044-1.248-.227-1.894.053-.786-.044-1.108.096-1.754.376-.646.28-.828.743-1.474 1.023-.182.463-.688 1.066-.73 1.853l-2.279 15.968-4.855-.584zm42.205 3.595c-1.333 1.346-2.484 2.229-3.915 2.466-1.291.559-2.863.473-4.574.062-2.638-.777-4.77-2.157-5.751-4.42-1.122-2.586-1.275-5.593-.277-9.482.998-3.89 2.416-6.809 4.395-8.435 1.979-1.627 4.378-2.283 7.016-1.506 1.711.41 3.1.96 3.984 2.114.883 1.153 1.444 2.446 2.005 3.74l.323-.14 3.12-14.028 4.672 1.047-7.787 33.335-4.671-1.047 1.46-3.706zm-5.317-.767c.786.043 1.248.226 2.034.27.786.043 1.431-.237 1.754-.377.646-.279.969-.419 1.474-1.023.505-.603.688-1.066.73-1.853l1.673-7.639c.042-.786.225-1.249-.055-1.896l-.701-1.617c-.281-.646-.744-.83-1.347-1.336-.603-.507-1.389-.55-1.852-.734-1.711-.41-3.465-.034-4.616.849-1.151.883-2.021 2.413-2.429 4.126l-.998 3.89c-.407 1.713-.352 3.609.532 4.763.56 1.293 1.766 2.306 3.801 2.577zm25.375 11.659c-1.712-.411-3.241-1.284-4.447-2.297-1.207-1.014-2.09-2.167-2.651-3.46-.56-1.294-.798-2.727-.714-4.3.085-1.573.17-3.146.9-4.999.731-1.853 1.279-3.243 2.289-4.45 1.011-1.206 2.022-2.412 3.313-2.972 1.291-.56 2.582-1.12 4.013-1.356 1.431-.237 3.143.174 4.532.724 1.711.41 2.918 1.423 3.984 2.113 1.206 1.014 2.089 2.167 2.65 3.46.561 1.294.799 2.727 1.037 4.16-.085 1.573-.17 3.146-.577 4.859l-.731 1.853-16.105-5.308-.043.787c-.73 1.853-.492 3.286.209 4.903.701 1.616 2.23 2.49 4.082 3.223 1.389.55 2.96.637 3.928.217 1.431-.236 2.26-.979 3.41-1.862l2.005 3.739c-1.15.884-2.624 1.907-4.378 2.283-2.175-.594-4.532-.724-6.706-1.317zm6.139-20.331c-.926-.366-1.711-.41-2.497-.453-.786-.044-1.431.236-2.4.656-.645.28-1.151.883-1.656 1.486-.505.603-.87 1.53-1.376 2.133l-.182.463 11.293 3.938.183-.463c.73-1.853.492-3.286-.209-4.903-.098-1.11-1.304-2.123-3.156-2.857zm10.825 21.427l5.696 2.524 6.123-14.178-5.696-2.524 1.461-3.706 10.325 4.358-2.514 5.699.463.183c.505-.603 1.011-1.206 1.839-1.949.505-.603 1.473-1.023 2.119-1.303.646-.28 1.754-.376 2.54-.333.785.043 2.034.27 2.96.637l2.778 1.1-1.966 4.309-4.307-1.973c-1.852-.734-3.423-.821-4.714-.261-1.614.7-2.765 1.583-3.173 3.296l-3.426 8.015 8.01 3.441-1.461 3.706-18.335-7.798 1.278-3.243zm57.512 6.177l3.661 2.253-9.155 17.797.463.184 14.023-14.53 4.264 2.76-8.089 18.487.463.183 12.956-15.22 3.339 2.394-15.947 18.052-5.33-3.45 7.541-17.097-.463-.183-12.871 13.646-5.331-3.45 10.476-21.826zm19.106 43.185c-1.207-1.014-2.553-2.351-3.114-3.644-.56-1.293-1.121-2.586-1.036-4.16-.238-1.433.31-2.823.717-4.536.548-1.389 1.418-2.919 2.612-4.589 1.193-1.669 2.344-2.553 3.818-3.576 1.473-1.023 2.764-1.582 4.195-1.819 1.432-.236 3.003-.149 4.392.401 1.389.55 2.778 1.1 4.124 2.437 1.206 1.013 2.553 2.35 3.114 3.643.56 1.293 1.121 2.587 1.036 4.16.238 1.433-.31 2.823-.717 4.536-.548 1.39-1.419 2.919-2.612 4.589-1.193 1.67-2.344 2.553-3.818 3.576-1.473 1.023-2.764 1.583-4.196 1.819-1.431.236-3.002.15-4.391-.401-1.389-.55-2.778-1.1-4.124-2.436zm2.204-2.877c1.346 1.337 3.058 1.747 4.489 1.511 1.431-.237 2.905-1.26 4.421-3.069l2.204-2.876c1.516-1.81 1.924-3.523 1.686-4.956-.238-1.433-.939-3.05-2.468-3.923-1.529-.874-3.058-1.747-4.489-1.511-1.432.237-2.905 1.26-4.421 3.069l-2.204 2.876c-1.517 1.81-1.924 3.523-1.686 4.956.238 1.433 1.121 2.587 2.468 3.923zm11.248 13.56l16.367-17.082 3.759 3.363-2.99 2.833.14.323c.646-.28 1.292-.56 2.077-.516.646-.28 1.431-.237 1.894-.053.786.043 1.249.226 2.175.593.603.507 1.529.874 2.132 1.38 1.809 1.52 2.651 3.46 2.523 5.82.196 2.22-.857 4.213-3.019 6.302l-10.527 11.094-3.759-3.363 10.022-10.491c2.667-2.693 2.654-5.376.241-7.402-.603-.507-1.066-.691-1.669-1.197-.463-.184-1.066-.69-1.711-.41-.463-.184-1.109.096-1.895.053-.645.28-.968.42-1.473 1.023l-11.033 11.697-3.254-3.967zm32.244 27.501c-1.754.377-3.326.29-4.574.063-1.249-.227-2.778-1.1-3.802-2.577-1.767-2.306-2.608-4.246-1.975-7.209.45-2.5 2.331-5.236 5.321-8.069 2.989-2.832 5.894-4.092 8.574-4.101 2.68-.01 4.995.907 6.622 2.89 1.346 1.337 1.907 2.63 1.822 4.203.238 1.434.013 2.683-.717 4.536l.14.324 10.906-9.338 3.253 3.967-25.629 22.251-3.254-3.967 3.313-2.973zm-3.899-3.686c.603.506.883 1.153 1.669 1.196.603.507 1.066.69 1.852.734.462.183 1.248.227 1.894-.053l1.936-.84 5.797-5.202c.506-.603 1.011-1.206 1.193-1.669.183-.464.225-1.25.408-1.714.042-.786-.098-1.109-.378-1.756s-.561-1.293-1.164-1.8c-1.346-1.337-2.553-2.35-4.307-1.974-1.571-.087-3.185.613-4.518 1.959l-2.807 2.37c-1.334 1.346-2.345 2.553-2.429 4.126-1.194 1.669-.633 2.963.854 4.623zm13.979 24.282c-1.024-1.476-1.725-3.093-2.285-4.386-.238-1.433-.476-2.867-.069-4.58.225-1.249.773-2.639 1.644-4.169 1.01-1.206 2.021-2.413 3.818-3.576 1.473-1.023 3.087-1.722 4.701-2.422 1.754-.376 3.185-.613 4.434-.386a8.313 8.313 0 014.026 1.327c1.066.69 2.413 2.027 3.296 3.18 1.024 1.477 1.584 2.77 1.822 4.203.238 1.433.476 2.867-.071 4.256a8.306 8.306 0 01-1.784 3.846c-1.011 1.207-2.021 2.413-3.495 3.436l-1.474 1.023-10.139-13.656-.645.28c-1.474 1.023-2.344 2.552-2.752 4.265-.407 1.713.294 3.33 1.317 4.807.884 1.153 2.09 2.166 3.016 2.533 1.066.69 2.315.917 3.746.681l-.535 4.072c-1.431.237-3.143-.173-4.995-.907-.603-.507-2.412-2.027-3.576-3.827zm16.758-12.643c-.603-.506-1.024-1.476-1.95-1.843-.603-.507-1.389-.55-2.314-.917-.786-.043-1.572-.087-2.217.193l-2.26.98-.322.14 6.885 9.69.323-.14c1.473-1.023 2.344-2.553 2.569-3.803.548-1.39.169-3.146-.714-4.3zm-3.629 23.467l3.169 5.54 13.361-8.097-3.169-5.54 3.593-2.326 5.776 9.786-5.529 3.166.14.323c.646-.28 1.754-.376 2.54-.333.786.044 1.571.087 2.497.454.926.367 1.389.55 2.455 1.24.603.507 1.347 1.337 2.23 2.49l1.444 2.447-3.915 2.466-2.468-3.924c-1.024-1.476-2.23-2.49-3.619-3.04-1.389-.55-3.143-.173-4.616.85l-7.649 4.468 4.332 7.34-3.592 2.326-10.11-17.126 3.13-2.51zm51.539 61.387l1.36 4.02-18.398 7.977.14.323 20.135-2.2 1.317 4.806-17.977 8.946.14.324 19.575-3.494 1.359 4.02-23.686 3.74-1.737-5.777 16.686-8.387-.14-.323-18.564 2.287-1.737-5.776 21.527-10.486zm-13.32 45.337c-.378-1.757-.293-3.33-.209-4.903.085-1.573.773-2.639 1.784-3.846 1.01-1.206 2.161-2.089 3.312-2.972 1.474-1.023 2.905-1.26 4.982-1.776 1.754-.377 3.648-.43 5.22-.343 1.571.087 2.96.637 4.349 1.187 1.066.69 2.272 1.704 3.156 2.857.883 1.153 1.584 2.77 1.962 4.527.378 1.756.293 3.329.209 4.902-.085 1.574-.773 2.64-1.784 3.846-1.011 1.207-2.162 2.09-3.312 2.973-1.474 1.023-2.905 1.259-4.982 1.776-1.754.376-3.648.429-5.22.342-1.571-.087-2.96-.637-4.489-1.51-1.066-.69-2.272-1.704-3.156-2.857-.883-1.153-1.444-2.446-1.822-4.203zm3.831-.893c.378 1.757 1.401 3.233 2.468 3.924 1.206 1.013 3.1.96 5.177.444l3.508-.753c2.077-.517 3.69-1.216 4.561-2.746 1.011-1.206 1.095-2.78.717-4.536-.378-1.757-1.401-3.233-2.468-3.923-1.206-1.014-3.1-.961-5.177-.444l-3.508.752c-2.077.517-3.69 1.217-4.561 2.746-.688 1.067-1.095 2.78-.717 4.536zm-.147 17.348l23.46-2.49.672 5.086-3.971.569.14.324 1.852.733c.603.507 1.066.69 1.669 1.197.603.507.883 1.153 1.164 1.8.28.647.701 1.617.658 2.403.196 2.22-.394 4.396-1.588 6.066-1.193 1.67-3.452 2.649-6.455 2.799l-15.056 1.534-.671-5.086 14.27-1.578c3.648-.429 5.487-2.379 4.871-5.569.042-.786-.238-1.433-.378-1.756-.281-.647-.561-1.293-1.024-1.477-.463-.183-.743-.83-1.529-.873-.463-.184-1.249-.227-1.712-.41l-16.024 1.954-.348-5.226zm7.04 41.886c-1.529-.874-2.735-1.887-3.618-3.04-.884-1.154-1.122-2.587-1.5-4.343-.013-2.683.9-5 2.879-6.626 1.979-1.626 5.024-2.562 9.135-2.808s7.212.714 9.484 2.417c2.273 1.704 3.254 3.967 3.267 6.65.055 1.897-.493 3.286-1.181 4.353-.687 1.066-1.838 1.949-3.312 2.972l.14.324 14.368-.468.209 4.902-33.913.492-.209-4.902 4.251.077zm-.811-5.41c-.043.787.238 1.434.195 2.22l.701 1.617c.281.646.744.83 1.347 1.336.463.184 1.248.227 2.034.271l8.04-.029c.785.043 1.431-.237 1.754-.377.645-.28.828-.743 1.333-1.346.183-.463.688-1.066.731-1.853.182-.463.225-1.25.267-2.036-.055-1.897-.616-3.19-1.822-4.204-1.207-1.013-2.595-1.563-4.812-1.37l-3.789.106a8.058 8.058 0 00-4.659 1.636c-.505.603-1.376 2.133-1.32 4.029zm-4.487 27.681c-.055-1.897.492-3.286 1.363-4.816.548-1.39 1.558-2.596 2.709-3.479 1.151-.884 2.442-1.443 4.056-2.143 1.754-.376 3.185-.613 5.22-.343 1.894-.053 3.606.357 5.135 1.231 1.388.55 2.595 1.563 3.801 2.577.883 1.153 1.767 2.306 2.328 3.6.56 1.293.476 2.866.531 4.763-.085 1.573-.493 3.286-1.18 4.352-.548 1.39-1.559 2.597-2.71 3.48s-2.442 1.442-3.733 2.002c-1.431.237-3.185.613-4.757.526l-1.894.053 1.073-16.981-.785-.044c-1.895.054-3.326.29-4.799 1.313-1.151.883-1.882 2.736-2.149 4.773-.085 1.573.153 3.006.574 3.976.56 1.293 1.304 2.123 2.37 2.813l-2.99 2.833c-1.206-1.014-2.412-2.027-3.254-3.967-.841-1.94-1.036-4.16-.909-6.519zm20.751.989c.043-.786-.055-1.896-.335-2.543-.281-.647-.561-1.293-1.304-2.123l-1.81-1.52c-.926-.367-1.389-.55-2.497-.454l-.323.14-.959 11.939.463.183c1.894-.053 3.326-.29 4.477-1.173 1.796-1.163 2.344-2.552 2.288-4.449zm-17.714 15.746l-1.125 6.249 15.307 2.581 1.125-6.249 4.069.541-1.702 11.108-6.244-1.134.141.324c.925.366 1.529.873 2.132 1.38.603.506 1.206 1.013 1.627 1.983l1.121 2.587c.098 1.11.055 1.896-.17 3.146l-.309 2.823-4.532-.724.717-4.536c.408-1.713.03-3.47-.854-4.623-.883-1.153-2.09-2.167-4.124-2.437l-8.6-1.264-1.253 8.609-4.068-.541 2.954-19.717 3.788-.106zm7.948 57.242l-1.32 4.029-19.613-4.555-.183.463 17.745 9.974-1.503 4.493-19.838-3.306-.183.464 17.97 8.725-1.32 4.029-21.309-11.118 2.051-5.883 18.59 3.079.182-.463-16.216-9.102 2.051-5.882 22.896 5.053zm-37.193 29.185c.871-1.53 1.741-3.059 2.892-3.942 1.151-.883 2.302-1.767 3.593-2.326 1.291-.56 2.862-.473 4.434-.386 1.571.087 3.283.497 4.812 1.37 1.852.734 3.058 1.747 4.264 2.76 1.206 1.014 2.09 2.167 2.651 3.46.56 1.294.798 2.727.713 4.3-.084 1.573-.632 2.963-1.04 4.676-.87 1.53-1.741 3.059-2.892 3.942-1.15.884-2.301 1.767-3.592 2.326-1.291.56-2.863.473-4.434.386-1.572-.086-3.283-.497-4.812-1.37-1.852-.734-3.058-1.747-4.265-2.76-1.206-1.014-2.089-2.167-2.65-3.46-.561-1.294-.799-2.727-.714-4.3.085-1.573.492-3.286 1.04-4.676zm3.704 1.467c-.731 1.853-.956 3.103-.255 4.72.561 1.293 1.907 2.63 3.899 3.686l3.381 1.607c1.992 1.057 3.886 1.004 5.177.444 1.291-.56 2.765-1.583 3.173-3.296.73-1.853.955-3.102.254-4.719-.561-1.293-1.907-2.63-3.899-3.687l-3.381-1.607c-1.992-1.057-3.886-1.004-5.177-.444-1.291.56-2.302 1.766-3.172 3.296zm-10.374 14.1l20.803 11.722-2.289 4.449-3.521-1.931-.323.14c.281.647.884 1.154 1.164 1.8.281.647.561 1.294.519 2.08-.043.787.237 1.433-.128 2.36-.042.787-.407 1.713-.913 2.316-1.053 1.993-2.709 3.48-4.786 3.996-2.077.516-4.251-.077-6.706-1.318l-13.298-7.677 2.289-4.449 12.695 7.171c3.198 2.07 5.597 1.413 7.339-1.646.182-.463.687-1.066.73-1.853.182-.463.225-1.25-.055-1.896.042-.787-.098-1.11-.701-1.617-.281-.647-.744-.83-1.347-1.337l-14.084-7.721 2.612-4.589zm-18.44 37.953c-.701-1.617-.939-3.05-1.177-4.483.085-1.574.31-2.823 1.503-4.493 1.699-2.273 3.818-3.576 6.358-3.909 2.679-.01 5.78.951 9.118 3.344 3.339 2.394 5.569 4.884 6.227 7.287.659 2.403.209 4.903-1.027 7.359-.871 1.53-2.022 2.413-3.313 2.973-1.291.559-2.722.796-4.433.386l-.323.14 12.007 8.237-2.752 4.266-27.956-19.375 2.752-4.266 3.016 2.534zm2.471-4.913c-.505.603-.688 1.066-1.053 1.993-.183.463-.225 1.25-.267 2.036-.043.787.097 1.11.378 1.757.28.647.743.83 1.346 1.337l6.537 4.463c.603.507 1.066.69 1.852.734.785.043 1.108-.097 1.754-.376.645-.28 1.291-.56 1.473-1.024.506-.603 1.151-.883 1.334-1.346 1.193-1.67 1.418-2.919 1.04-4.676-.238-1.433-1.262-2.91-2.791-3.783l-3.198-2.07c-1.669-1.197-3.058-1.747-4.812-1.371-1.109.097-2.722.796-3.593 2.326zm-19.819 19.733c1.334-1.347 2.345-2.553 3.636-3.113s2.905-1.259 4.153-1.033c1.432-.236 2.82.314 4.532.724 1.389.55 2.918 1.424 4.587 2.621 1.346 1.336 2.553 2.35 3.576 3.826 1.024 1.477 1.262 2.91 1.5 4.343.238 1.434.153 3.007-.395 4.397-.547 1.389-1.095 2.779-2.429 4.125-1.01 1.207-2.161 2.09-3.312 2.973-1.291.56-2.582 1.12-4.154 1.033-1.431.236-2.82-.314-4.209-.864-1.388-.55-2.917-1.424-4.124-2.437l-1.346-1.337 10.795-13.13-.603-.507c-1.347-1.337-3.058-1.747-4.49-1.51-1.431.236-3.045.936-4.238 2.605-1.011 1.207-1.699 2.273-1.783 3.847-.225 1.249-.128 2.359.433 3.653l-3.971.569c-.701-1.617-.616-3.19-.349-5.226-.378-1.757.353-3.61 2.191-5.559zm16.468 13.217c.505-.603.87-1.53 1.375-2.133.506-.603.408-1.713.128-2.36.042-.786-.238-1.433-.659-2.403-.28-.646-1.024-1.476-1.627-1.983l-.14-.323-7.58 9.048.463.183c1.346 1.337 3.058 1.747 4.489 1.51.926.367 2.217-.193 3.551-1.539zm-23.924 2.306l-4.506 4.643 10.912 11.016 4.505-4.642 2.833 2.997-8 8.078-4.643-4.517-.323.14.982 2.263c.28.647.378 1.757.335 2.543-.042.787-.407 1.714-.45 2.5-.365.927-1.193 1.67-1.881 2.736l-2.161 2.09-3.437-3.504 3.173-3.296c1.333-1.346 1.881-2.736 1.966-4.309a5.232 5.232 0 00-1.823-4.203l-6.129-6.177-6.162 6.129-2.833-2.997 13.84-14.067 3.802 2.577zM455.163 752.743l-4.111.246-3.192-19.742-.322.14-2.815 20.041-4.896.203-4.3-19.646-.323.14-1.243 20.128-4.111.246 2.241-24.017 6.005-.299 4.062 18.212.323-.14 2.266-18.651 6.005-.299 4.411 23.438zm-40.961-23.723c1.571.087 3.283.497 4.672 1.047 1.389.55 2.595 1.564 3.478 2.717.884 1.153 1.445 2.447 2.146 4.063.378 1.757.616 3.19.671 5.086.055 1.897-.352 3.61-.9 5-.548 1.39-1.418 2.919-2.569 3.802-1.011 1.207-2.302 1.767-3.593 2.326-1.291.56-3.045.937-4.757.526-1.571-.087-3.283-.497-4.672-1.047-1.388-.55-2.595-1.563-3.478-2.717-.884-1.153-1.444-2.446-2.145-4.063-.378-1.756-.616-3.19-.672-5.086-.055-1.897.353-3.61.9-4.999.548-1.39 1.419-2.92 2.569-3.803 1.011-1.206 2.302-1.766 3.593-2.326 1.754-.376 3.186-.613 4.757-.526zm-.212 3.933c-1.894.053-3.326.289-4.336 1.496-1.011 1.206-1.881 2.736-1.686 4.956l-.029 3.469c-.128 2.36.573 3.977 1.457 5.13.883 1.153 2.272 1.704 4.307 1.974 1.894-.053 3.325-.29 4.336-1.496 1.01-1.207 1.881-2.736 1.685-4.956l.03-3.47c.127-2.359-.574-3.976-1.457-5.129-.884-1.154-2.273-1.704-4.307-1.974zm-16.472-4.382l-3.307 23.327-4.854-.584.534-4.073-.322.14c-.183.463-.688 1.067-1.194 1.67-.505.603-1.151.883-1.656 1.486l-1.937.84c-.645.28-1.431.236-2.68.009-2.497-.453-4.026-1.327-5.512-2.987-1.164-1.8-1.683-3.88-1.373-6.703l1.914-15.041 4.855.584-1.872 14.255c-.675 3.749.952 5.733 4.235 6.23.786.043 1.249.226 1.894-.053.646-.28 1.109-.097 1.754-.377.646-.28.828-.743 1.474-1.023.182-.463.688-1.066.73-1.853l2.279-15.968 5.038.121zm-42.065-3.272c1.334-1.346 2.485-2.229 3.776-2.789s2.862-.473 4.574-.063c2.637.777 4.769 2.157 5.751 4.421 1.121 2.586 1.274 5.593.276 9.482-.997 3.889-2.416 6.809-4.395 8.435-1.979 1.626-4.378 2.283-7.338 1.646-1.712-.41-3.101-.961-3.984-2.114-.884-1.153-1.767-2.307-2.005-3.74l-.323.14-3.12 14.028-4.672-1.047 7.463-33.195 4.672 1.047-.675 3.749zm5.318.768c-.786-.044-1.249-.227-2.035-.271-.786-.043-1.431.237-1.754.377-.645.28-.968.42-1.473 1.023-.506.603-.688 1.066-.731 1.853l-1.673 7.639c-.042.786-.225 1.25.056 1.896l.701 1.617c.603.506.743.83 1.669 1.197l1.852.733c1.711.41 3.465.034 4.616-.849 1.151-.883 2.022-2.413 2.429-4.126l.675-3.75c.408-1.713.352-3.609-.531-4.762-1.024-1.477-2.09-2.167-3.801-2.577zm-26.022-11.38c1.712.41 3.241 1.284 4.447 2.297 1.206 1.014 2.09 2.167 2.65 3.46.561 1.293.799 2.727 1.177 4.483-.085 1.573-.169 3.146-.9 4.999-.73 1.853-1.278 3.243-2.289 4.45-1.01 1.206-2.021 2.412-3.312 2.972-1.151.883-2.582 1.12-4.013 1.356-1.432.237-3.143-.174-4.532-.724-1.712-.41-2.918-1.423-3.984-2.113-1.206-1.014-2.09-2.167-2.65-3.46-.561-1.294-.799-2.727-1.037-4.16.085-1.573.17-3.146.577-4.859l.73-1.853 16.106 5.308.042-.787c.408-1.713.493-3.286-.208-4.903-.701-1.616-2.23-2.49-4.082-3.223-1.389-.55-2.96-.637-3.929-.217-1.431.236-2.259.979-3.41 1.862l-2.005-3.739c1.151-.884 2.625-1.907 4.379-2.283 2.034.27 3.928.217 6.243 1.134zm-5.817 20.19c.926.367 1.712.411 2.498.454.785.044 1.431-.236 2.399-.656.646-.28 1.151-.883 1.656-1.486.506-.604.871-1.53 1.236-2.457l.183-.463-11.153-3.614-.183.463c-.408 1.713-.492 3.286.208 4.903.701 1.616 1.304 2.123 3.156 2.856zm-11.005-20.962l-5.696-2.523-6.123 14.177 5.696 2.524-1.461 3.706-10.325-4.357 2.514-5.699-.463-.184c-.505.603-1.011 1.207-1.839 1.95-.505.603-1.473 1.023-2.119 1.303-.646.28-1.754.376-2.54.333-.785-.044-2.034-.271-2.96-.637l-2.778-1.101 1.966-4.309 4.307 1.974c1.852.733 3.423.82 4.714.26 1.614-.699 2.765-1.582 3.173-3.296l3.426-8.015-8.01-3.441 1.461-3.706 18.335 7.799-1.278 3.242zm-57.509-6.177l-3.662-2.253 9.015-18.121-.462-.183-13.883 14.853-4.264-2.76 7.949-18.81-.463-.184-12.817 15.544-3.338-2.394 15.624-17.913 5.33 3.451-7.542 17.097.463.183 12.872-13.647 5.331 3.451-10.153 21.686zm-19.429-43.044c1.206 1.013 2.553 2.35 3.113 3.643.561 1.293 1.122 2.587 1.36 4.02.238 1.433-.31 2.823-.718 4.536-.547 1.39-1.418 2.919-2.611 4.589-1.193 1.67-2.344 2.553-3.818 3.576-1.474 1.023-2.765 1.583-4.196 1.819-1.431.237-3.003.15-4.251-.077-1.389-.55-2.778-1.1-4.447-2.297-1.206-1.014-2.553-2.35-3.114-3.644-.56-1.293-1.121-2.586-1.359-4.019-.238-1.434.31-2.823.717-4.536.548-1.39 1.419-2.92 2.612-4.59 1.193-1.669 2.344-2.552 3.818-3.575 1.473-1.023 2.765-1.583 4.196-1.82 1.431-.236 3.002-.149 4.251.078 1.712.41 3.101.96 4.447 2.297zm-2.527 3.016c-1.346-1.337-2.918-1.424-4.489-1.511-1.431.237-2.905 1.26-4.421 3.069l-2.204 2.876c-1.516 1.81-1.924 3.523-1.686 4.956.238 1.434.939 3.05 2.468 3.924 1.347 1.336 2.918 1.423 4.489 1.51 1.432-.236 2.905-1.259 4.421-3.069l2.204-2.876c1.516-1.81 1.924-3.523 1.686-4.956-.238-1.433-.799-2.726-2.468-3.923zm-10.785-13.376l-16.226 17.406-3.759-3.364 2.849-3.156-.14-.323-1.937.84c-.645.28-1.431.236-1.894.053-.786-.044-1.249-.227-2.174-.594-.604-.507-1.529-.873-2.133-1.38-1.809-1.52-2.65-3.46-2.523-5.82-.195-2.219.858-4.212 3.019-6.302l10.528-11.094 3.759 3.364-10.022 10.49c-2.667 2.693-2.654 5.376-.242 7.403.603.507 1.066.69 1.669 1.197.463.183 1.066.69 1.712.41.463.183 1.108-.097 1.894-.053.646-.28.968-.42 1.474-1.023l11.033-11.698 3.113 3.644zm-32.568-27.363a11.753 11.753 0 014.574-.063c1.249.227 2.778 1.101 3.802 2.577 1.767 2.307 2.608 4.247 1.975 7.21-.45 2.5-2.331 5.236-5.321 8.068-2.99 2.833-5.894 4.092-8.434 4.425-2.68.01-4.995-.907-6.622-2.89-1.346-1.337-1.907-2.63-2.145-4.063-.238-1.434-.013-2.683.718-4.537l-.14-.323-10.766 9.661-3.254-3.967 25.49-22.574 3.253 3.967-3.13 2.509zm3.899 3.687c-.603-.507-1.206-1.013-1.669-1.197-.603-.506-1.066-.69-1.852-.733-.463-.184-1.248-.227-1.894.053-.645.28-1.291.56-1.796 1.163l-5.474 5.062c-.506.603-1.011 1.206-1.194 1.669-.182.464-.225 1.25-.407 1.714-.043.786.098 1.109.378 1.756s.561 1.293 1.164 1.8c1.346 1.337 2.875 2.21 4.306 1.974 1.572.087 3.186-.613 4.519-1.959l2.807-2.37c1.334-1.346 2.345-2.553 2.429-4.126.731-1.853.03-3.469-1.317-4.806zm-14.304-24.142c1.024 1.476 1.725 3.093 2.286 4.386.238 1.433.476 2.867.068 4.58-.225 1.25-.773 2.639-1.643 4.169-1.011 1.206-2.022 2.413-3.818 3.576-1.474 1.023-2.947 2.046-4.701 2.422-1.754.377-3.186.613-4.434.386a8.313 8.313 0 01-4.027-1.327 11.77 11.77 0 01-3.296-3.18c-1.023-1.477-1.584-2.77-2.145-4.063-.238-1.433-.476-2.866-.251-4.116a8.306 8.306 0 011.784-3.846c1.011-1.207 2.021-2.413 3.495-3.436l1.474-1.023 10.138 13.656.646-.279c1.474-1.024 2.344-2.553 2.429-4.126.085-1.574-.293-3.33-1.317-4.807-.884-1.153-2.09-2.166-3.016-2.533-1.388-.55-2.174-.594-3.746-.681l.535-4.072c1.431-.237 3.143.173 4.995.907 1.571.087 3.381 1.607 4.544 3.407zm-16.617 12.966c.603.507 1.346 1.337 1.949 1.843.603.507 1.389.551 2.315.917.786.044 1.571.087 2.217-.193l2.259-.979.323-.14-7.025-10.013-.323.14c-1.474 1.023-2.344 2.552-2.569 3.802-.408 1.713-.17 3.146.854 4.623zm3.628-23.467l-3.169-5.54-13.361 8.098 3.169 5.539-3.733 2.003-5.777-9.786 5.53-3.166-.14-.323c-.646.28-1.754.376-2.54.333l-2.357-.131c-.926-.366-1.389-.55-2.455-1.24-.603-.506-1.347-1.337-2.23-2.49l-1.444-2.446 3.915-2.466 2.468 3.923c1.024 1.477 2.23 2.49 3.619 3.04 1.711.41 3.143.174 4.616-.849l7.649-4.469-4.333-7.339 3.593-2.326 10.432 16.986-3.452 2.649zm-52.982-63.833l-1.359-4.019 18.397-7.977-.14-.323-20.135 2.2-1.317-4.806 18.3-9.087-.14-.323-19.575 3.494-1.359-4.02 23.686-3.74 1.737 5.776-16.546 8.711.14.323 18.241-2.147 1.738 5.776-21.668 10.162zm12.856-45.52c.378 1.756.293 3.329.208 4.903-.084 1.573-.772 2.639-1.783 3.846-1.011 1.206-2.162 2.089-3.313 2.972-1.473 1.023-2.904 1.26-4.981 1.776-1.754.376-3.648.429-5.22.343-1.571-.087-2.96-.637-4.489-1.511-1.066-.69-2.272-1.703-3.156-2.857-.883-1.153-1.584-2.77-1.962-4.526-.379-1.757-.294-3.33-.209-4.903.085-1.573.773-2.64 1.783-3.846 1.011-1.206 2.162-2.089 3.313-2.973 1.474-1.023 2.905-1.259 4.982-1.775 1.754-.377 3.648-.43 5.219-.343 1.572.087 2.961.637 4.49 1.511 1.066.69 2.272 1.703 3.155 2.856 1.347 1.337 1.725 3.094 1.963 4.527zm-3.831.892c-.378-1.756-1.402-3.233-2.468-3.923-1.206-1.013-2.777-1.1-4.994-.907l-3.508.753c-2.077.516-3.691 1.216-4.562 2.745-1.01 1.207-1.095 2.78-.717 4.537.378 1.756 1.402 3.233 2.468 3.923 1.206 1.013 3.1.96 5.177.444l3.508-.753c2.077-.516 3.691-1.216 4.561-2.746.828-.743.913-2.316.535-4.073zm.47-17.487l-23.461 2.49-.671-5.087 3.971-.569-.141-.323-1.851-.734c-.323.14-.926-.367-1.529-.873-.603-.507-.884-1.154-1.164-1.8-.281-.647-.701-1.617-.659-2.403-.195-2.22.395-4.396 1.588-6.066 1.194-1.67 3.453-2.649 6.456-2.799l15.055-1.534.672 5.086-14.27 1.578c-3.648.429-5.487 2.379-4.871 5.568-.043.787.238 1.434.378 1.757.28.647.561 1.293 1.024 1.477.603.506.743.83 1.529.873.463.183 1.248.227 1.711.41l16.024-1.954.209 4.903zm-6.9-41.564c1.529.874 2.735 1.887 3.618 3.041.884 1.153 1.122 2.586 1.177 4.483.013 2.683-.9 4.999-2.879 6.625-1.979 1.626-5.024 2.562-9.135 2.809-4.111.246-7.212-.715-9.484-2.418-2.272-1.704-3.253-3.967-3.266-6.65-.056-1.896.492-3.286 1.18-4.353.688-1.066 1.839-1.949 3.312-2.972l-.14-.323-14.368.468-.348-5.227 33.913-.492.208 4.903-3.788.106zm.348 5.227c.043-.787-.238-1.434-.195-2.22l-.701-1.617c-.28-.646-.743-.83-1.346-1.337-.463-.183-1.249-.226-2.035-.27l-8.04.029c-.785-.043-1.431.237-1.754.377-.645.279-.828.743-1.333 1.346-.505.603-.548 1.39-.73 1.853-.183.463-.225 1.25-.268 2.036.056 1.897.616 3.19 1.823 4.203 1.206 1.014 2.595 1.564 4.812 1.371l3.788-.106a8.058 8.058 0 004.659-1.636c.968-.42 1.376-2.133 1.32-4.029zm4.951-27.498c.056 1.897-.492 3.287-1.362 4.816-.548 1.39-1.559 2.596-2.71 3.479-1.151.884-2.442 1.443-4.056 2.143-1.754.376-3.185.613-5.219.343-1.894.053-3.606-.357-5.135-1.231-1.389-.55-2.595-1.563-3.801-2.577-.884-1.153-1.767-2.306-2.328-3.6-.561-1.293-.476-2.866-.531-4.763.084-1.573.492-3.286 1.18-4.352.548-1.39 1.699-2.273 2.709-3.48 1.151-.883 2.442-1.442 3.733-2.002 1.432-.237 3.186-.613 4.757-.526l1.894-.053-1.073 16.981.786.044c1.894-.054 3.325-.29 4.799-1.313 1.151-.883 1.881-2.736 2.149-4.773.084-1.573-.154-3.006-.574-3.976-.561-1.293-1.304-2.123-2.37-2.813l2.989-2.833c1.207 1.014 2.413 2.027 3.254 3.967.841 1.94 1.037 4.16.909 6.519zm-20.891-1.312c-.042.786.055 1.896.336 2.543.28.646.56 1.293 1.304 2.123l1.809 1.52c.926.367 1.389.55 2.497.454l.323-.14.959-11.939-.463-.183c-1.894.053-3.325.289-4.476 1.172-1.656 1.487-2.204 2.876-2.289 4.45zm17.854-15.422l1.125-6.249-15.307-2.582-1.125 6.249-4.069-.54 1.702-11.109 6.244 1.134-.14-.323c-.926-.367-1.529-.874-2.133-1.38-.603-.507-1.206-1.014-1.626-1.984l-1.122-2.586c-.098-1.11-.055-1.897.17-3.146l.31-2.823 4.531.723-.717 4.537c-.408 1.713-.03 3.469.854 4.623.883 1.153 2.09 2.166 4.124 2.436l8.741 1.588 1.252-8.609 4.069.541-2.955 19.717-3.928-.217zm-7.948-57.242l1.32-4.029 19.613 4.555.183-.463-17.745-9.975 1.503-4.492 19.838 3.305.183-.463-17.788-9.188 1.321-4.029 21.308 11.118-2.05 5.882-18.267-3.218-.183.463 16.216 9.101-2.051 5.882-23.401-4.449zm37.192-29.185c-.87 1.53-1.741 3.059-2.892 3.943-1.15.883-2.301 1.766-3.592 2.325-1.291.56-2.863.473-4.434.386-1.572-.086-3.283-.497-4.812-1.37-1.852-.734-3.058-1.747-4.265-2.76-1.206-1.014-2.089-2.167-2.65-3.46-.561-1.294-.799-2.727-.714-4.3.085-1.573.633-2.963 1.04-4.676.871-1.53 1.741-3.059 2.892-3.942 1.151-.884 2.302-1.767 3.593-2.326 1.291-.56 2.862-.473 4.434-.386 1.571.086 3.283.497 4.812 1.37 1.852.734 3.058 1.747 4.264 2.76 1.206 1.014 2.09 2.167 2.651 3.46.56 1.294.798 2.727.714 4.3-.085 1.573-.493 3.286-1.041 4.676zm-3.703-1.467c.73-1.853.955-3.103.254-4.719-.56-1.294-1.907-2.63-3.899-3.687l-3.381-1.607c-1.851-.734-3.563-1.144-5.177-.444-1.291.56-2.765 1.583-3.172 3.296-.731 1.853-.956 3.103-.255 4.719.561 1.293 1.908 2.63 3.899 3.687l3.381 1.607c1.992 1.057 3.886 1.004 5.178.444 1.291-.56 2.301-1.766 3.172-3.296zm10.375-14.101l-20.803-11.721 2.289-4.45 3.521 1.931.323-.14c-.281-.647-.884-1.154-1.164-1.8-.281-.647-.561-1.293-.519-2.08.043-.787-.238-1.433.128-2.36.365-.926.407-1.713.913-2.316 1.053-1.993 2.709-3.479 4.786-3.996 2.076-.516 4.251.078 6.706 1.318l13.298 7.677-2.149 4.773-12.695-7.171c-3.198-2.07-5.597-1.414-7.338 1.645-.183.464-.688 1.067-.731 1.854-.182.463-.225 1.249.056 1.896-.043.787.097 1.11.7 1.617.281.646.744.83 1.347 1.336l14.084 7.721-2.752 4.266zm18.761-38.092c.7 1.617.938 3.05 1.176 4.483.238 1.433-.309 2.823-1.503 4.493-1.698 2.273-3.818 3.576-6.357 3.909-2.68.009-5.781-.951-9.119-3.345-3.338-2.393-5.568-4.883-6.227-7.286-.799-2.727-.208-4.903 1.027-7.359.871-1.53 2.022-2.413 3.313-2.973 1.291-.56 2.862-.473 4.434-.386l.322-.14-12.007-8.237 2.752-4.266 27.956 19.375-2.752 4.266-3.015-2.534zm-2.935 4.729c.506-.603.688-1.066 1.053-1.993.183-.463.225-1.249.268-2.036.042-.787-.098-1.11-.378-1.757-.281-.646-.744-.83-1.347-1.336l-6.396-4.141c-.603-.506-1.066-.69-1.852-.733-.786-.044-1.109.096-1.754.376-.646.28-1.291.56-1.474 1.023-.505.603-1.151.883-1.333 1.347-1.194 1.669-1.419 2.919-1.04 4.676.238 1.433 1.261 2.909 2.93 4.106l3.199 2.07c1.669 1.197 3.058 1.747 4.812 1.371.968-.42 2.442-1.443 3.312-2.973zm20.281-19.548c-1.333 1.347-2.344 2.553-3.635 3.113-1.291.559-2.905 1.259-4.154 1.032-1.431.237-2.82-.313-4.531-.723-1.712-.411-2.918-1.424-4.587-2.621-1.347-1.337-2.693-2.673-3.577-3.827-1.023-1.476-1.261-2.909-1.499-4.343-.238-1.433-.153-3.006.394-4.396.548-1.39 1.096-2.779 2.429-4.126 1.011-1.206 2.162-2.089 3.313-2.972 1.291-.56 2.582-1.12 4.153-1.033 1.432-.236 2.821.314 4.209.864 1.389.55 2.918 1.424 4.124 2.437l1.347 1.337-10.795 13.13.603.507c1.346 1.336 3.058 1.747 4.489 1.51 1.432-.236 3.045-.936 4.239-2.606 1.01-1.206 1.698-2.272 1.783-3.846.225-1.249.127-2.359-.433-3.653l3.971-.569c.701 1.617.616 3.19.348 5.226.056 1.897-.675 3.75-2.191 5.559zm-16.467-13.217c-.505.603-.87 1.529-1.376 2.133-.365.926-.407 1.713-.127 2.359.281.647.238 1.434.659 2.404.28.646 1.023 1.476 1.626 1.983l.141.323 7.58-9.048-.463-.183c-1.346-1.337-3.058-1.747-4.489-1.511-1.389-.55-2.54.333-3.551 1.54zm23.463-2.492l4.506-4.642-10.911-11.017-4.506 4.642-2.833-2.996 8.001-8.079 4.642 4.517.323-.14-.981-2.263c-.281-.647-.379-1.756-.336-2.543.042-.787.407-1.713.45-2.5.365-.926 1.193-1.669 1.881-2.736l2.162-2.089 3.436 3.503-3.173 3.296c-1.333 1.346-1.881 2.736-1.966 4.309a5.239 5.239 0 001.823 4.203l6.129 6.177 6.162-6.128 2.833 2.996-13.84 14.067-3.802-2.577zm124.452-101.202l4.111-.246 3.192 19.742.322-.14 2.492-19.901 4.897-.203 4.299 19.645.323-.14 1.243-20.127 4.111-.246-2.241 24.017-5.865.622-3.739-18.352-.322.14-2.267 18.651-6.005.299-4.551-23.761zm37.55 25.586c-1.711-.411-3.1-.961-4.489-1.511-1.066-.69-2.272-1.703-2.833-2.997-.884-1.153-1.122-2.586-1.5-4.343-.238-1.433-.293-3.329.115-5.042.267-2.037.815-3.427 1.685-4.956.871-1.53 1.559-2.596 2.71-3.48 1.151-.883 2.442-1.442 3.733-2.002 1.431-.237 2.862-.473 4.574-.063 1.711.41 3.1.96 4.489 1.511 1.066.69 2.272 1.703 2.833 2.996.884 1.154 1.122 2.587 1.5 4.343.238 1.434.293 3.33-.115 5.043-.267 2.037-.815 3.426-1.685 4.956-.871 1.53-1.559 2.596-2.71 3.479s-2.442 1.443-3.733 2.003c-1.431.236-3.002.149-4.574.063zm.535-4.073c1.712.41 3.143.173 4.617-.85 1.15-.883 2.021-2.412 2.288-4.449l.675-3.749c.268-2.037.212-3.933-.671-5.086-.884-1.154-2.09-2.167-4.124-2.437-1.712-.411-3.143-.174-4.617.849-1.151.883-2.021 2.413-2.289 4.449l-.675 3.75c-.267 2.036-.212 3.932.672 5.086 1.346 1.337 2.553 2.35 4.124 2.437zm11.671 5.694l7.515-22.463 4.489 1.51-1.32 4.029c.505-.603.688-1.066 1.333-1.346.646-.28 1.151-.883 1.797-1.163.645-.28 1.431-.236 2.077-.516.785.043 1.571.087 2.497.453 2.174.594 3.661 2.254 4.502 4.194.841 1.94.714 4.299-.059 6.939l-4.874 14.405-4.49-1.511 4.692-13.941c1.138-3.566.157-5.829-2.621-6.93-.463-.183-1.248-.226-1.711-.41-.786-.043-1.109.097-1.754.377-.646.279-.969.419-1.474 1.023-.505.603-.688 1.066-.87 1.529l-5.24 15.331-4.489-1.51zm38.316 11.428c-1.474 1.023-2.765 1.582-4.196 1.819-1.432.236-2.68.01-4.209-.864-2.455-1.24-3.942-2.9-4.418-5.767-.335-2.543.157-5.829 2.081-9.352 1.783-3.846 3.945-5.935 6.387-7.378 2.259-.98 4.799-1.312 7.254-.072 1.529.873 2.595 1.563 3.156 2.856.56 1.294 1.121 2.587 1.036 4.16l.14.323 6.361-12.744 4.447 2.297-15.193 30.401-4.447-2.297 1.601-3.382zm-4.77-2.157c.603.506 1.389.55 1.852.733.786.044 1.248.227 1.894-.053l1.614-.7c.645-.28.828-.743 1.193-1.669l3.525-6.906c.505-.603.547-1.39.407-1.713.043-.786-.098-1.11-.378-1.756-.28-.647-.42-.97-1.024-1.477-.603-.507-1.066-.69-1.669-1.197-1.529-.873-3.1-.96-4.714-.26-1.291.559-2.625 1.906-3.495 3.435l-1.601 3.383c-.73 1.853-1.278 3.243-.577 4.86.238 1.433 1.121 2.586 2.973 3.32zm20.548 16.441c-1.529-.873-2.735-1.887-3.436-3.503a8.603 8.603 0 01-1.682-3.88c-.238-1.433-.154-3.007.394-4.396.408-1.713.956-3.103 2.149-4.773.87-1.53 2.204-2.876 3.355-3.759 1.151-.883 2.624-1.906 4.055-2.142 1.292-.56 2.863-.473 4.112-.247 1.248.227 2.96.637 4.166 1.651 1.529.873 2.413 2.027 3.296 3.18a8.594 8.594 0 011.682 3.88c.238 1.433.013 2.683-.072 4.256-.547 1.39-.955 3.103-1.966 4.309l-.87 1.53-13.859-8.971-.505.603c-.871 1.53-1.279 3.243-1.041 4.676.379 1.757 1.262 2.91 2.931 4.107 1.206 1.013 2.455 1.24 3.564 1.144 1.108-.097 2.539-.333 3.508-.753l1.036 4.159c-1.291.56-3.045.937-4.939.99a8.812 8.812 0 01-5.878-2.061zm11.049-17.85c-.603-.507-1.529-.873-2.314-.917-.786-.043-1.572-.087-2.217.193l-2.26.98c-.505.603-1.473 1.023-1.839 1.949l-.182.464 9.595 6.21.182-.463c.871-1.53 1.278-3.243 1.04-4.676-.238-1.433-.798-2.726-2.005-3.74zm3.667 22.608l4.685 3.73 9.644-12.247-4.685-3.731 2.387-3.339 8.626 6.631-4.043 4.825.141.324c.505-.604 1.473-1.024 2.119-1.303.645-.28 1.614-.7 2.399-.657.786.044 1.572.087 2.498.454.926.367 1.851.733 2.595 1.563l2.272 1.704-3.032 3.619-3.479-2.717c-1.206-1.013-2.917-1.423-4.489-1.51-1.431.236-3.045.936-3.915 2.466l-5.419 6.958 6.494 5.251-2.387 3.339-15.12-11.881 2.709-3.479zm39.216 6.427l2.833 2.997-12.354 15.726.14.324 16.393-11.717 3.296 3.18-11.61 16.557.14.323 15.65-12.546 2.692 2.673-18.919 14.733-4.18-4.334 10.6-15.35-.14-.323-15.102 11.156-4.18-4.333 14.741-19.066zm9.41 44.7c-1.346-1.336-1.907-2.63-2.468-3.923-.56-1.293-.475-2.866-.25-4.116.225-1.25.632-2.963 1.643-4.17.87-1.529 1.881-2.736 3.215-4.082 1.333-1.346 2.807-2.369 4.42-3.069 1.614-.7 3.046-.936 4.154-1.033 1.572.087 2.82.314 4.209.864 1.389.55 2.595 1.564 3.619 3.04 1.346 1.337 1.907 2.63 2.468 3.924.56 1.293.476 2.866.251 4.116-.225 1.25-.633 2.963-1.644 4.169-.87 1.53-1.881 2.736-3.214 4.083-1.334 1.346-2.808 2.369-4.421 3.069a13.103 13.103 0 01-4.154 1.032c-1.571-.087-2.82-.313-4.209-.864l-3.619-3.04zm2.99-2.832c1.347 1.336 2.413 2.026 3.984 2.113 1.571.087 3.185-.613 4.841-2.099l2.808-2.369c1.656-1.486 2.526-3.016 2.611-4.589.085-1.573-.476-2.867-1.499-4.343-1.347-1.337-2.413-2.027-3.984-2.114-1.572-.087-3.186.613-4.842 2.099l-2.807 2.369c-1.656 1.487-2.527 3.016-2.612 4.59-.084 1.573.154 3.006 1.5 4.343zm6.714 12.835l18.456-14.916 3.114 3.644-3.13 2.509.14.323c.646-.28 1.431-.236 2.077-.516.786.043 1.431-.237 2.034.27.786.044 1.389.55 1.852.734.603.506 1.206 1.013 1.95 1.843 1.486 1.66 2.005 3.74 1.737 5.776-.267 2.037-1.643 4.17-3.945 5.936l-12.014 9.434-3.114-3.644 11.369-9.154c2.807-2.369 3.257-4.869 1.49-7.175-.28-.647-.743-.83-1.346-1.337-.603-.507-1.066-.69-1.529-.873-.463-.184-1.249-.227-1.572-.087l-1.613.699-12.52 10.038-3.436-3.504zm27.405 29.601c-1.894.053-3.143-.173-4.391-.4-1.389-.55-2.455-1.24-3.479-2.717-1.767-2.307-1.963-4.526-1.19-7.166.773-2.64 2.794-5.052 6.064-7.238 3.271-2.186 6.175-3.446 8.855-3.456 2.68-.009 4.812 1.371 6.439 3.354 1.024 1.477 1.585 2.77 1.36 4.02-.085 1.573-.31 2.823-1.181 4.353l.14.323 11.79-8.184 2.93 4.107-27.536 19.62-2.931-4.106 3.13-2.51zm-3.253-3.966c.28.646.883 1.153 1.346 1.336.603.507 1.066.691 1.529.874.463.183 1.249.227 1.571.087l1.937-.84 6.4-4.695c.645-.28 1.151-.883 1.333-1.347.183-.463.366-.926.408-1.713.042-.786-.098-1.109-.378-1.756l-.841-1.94c-1.024-1.477-2.553-2.35-3.802-2.577-1.571-.087-3.002.15-4.658 1.636l-3.271 2.186c-1.473 1.023-2.484 2.229-2.891 3.942-.085 1.574.293 3.33 1.317 4.807zm11.159 23.969c-1.023-1.477-1.584-2.77-1.962-4.527-.238-1.433-.153-3.006.072-4.256.225-1.25 1.095-2.78 2.106-3.986 1.011-1.206 2.344-2.553 3.958-3.252a13.308 13.308 0 014.841-2.1c1.754-.376 3.186-.612 4.434-.386 1.249.227 2.638.777 4.027 1.327 1.066.691 2.412 2.027 2.973 3.321 1.023 1.476 1.584 2.769 1.822 4.203.238 1.433.013 2.683-.212 3.933-.225 1.249-1.095 2.779-1.783 3.846-1.011 1.206-2.162 2.089-3.636 3.112l-1.473 1.023-8.708-13.893-.645.28c-1.474 1.023-2.485 2.229-2.892 3.942-.408 1.714-.17 3.147.994 4.947.883 1.153 1.767 2.306 2.693 2.673 1.066.69 2.314.917 3.746.681l-.535 4.072c-1.572-.086-3.143-.173-4.672-1.047-2.497-.453-3.844-1.79-5.148-3.913zm17.642-11.49c-.281-.647-1.024-1.477-1.487-1.66-.603-.507-1.389-.55-2.315-.917l-2.357-.13c-.645.28-1.754.376-2.259.979l-.323.14 6.1 9.647.322-.14c1.474-1.023 2.485-2.23 3.033-3.619.547-1.39.309-2.823-.714-4.3zm-5.762 22.086l3.029 5.217 13.501-7.774-3.029-5.217 3.733-2.002 5.314 9.603-5.529 3.165.14.324c.645-.28 1.754-.377 2.54-.333.785.043 1.571.087 2.497.453.926.367 1.389.55 2.455 1.241.603.506 1.346 1.336 1.767 2.306l1.444 2.447-4.056 2.142-2.145-4.063c-1.024-1.476-2.23-2.49-3.619-3.04-1.389-.55-3.143-.174-4.616.849l-7.649 4.469 4.333 7.34-3.733 2.002-9.647-16.943 3.27-2.186zm68.375 102.869l1.359 4.02-18.397 7.976.14.324 19.995-2.524 1.317 4.806-17.837 9.27.14.324 19.897-3.634 1.36 4.02-23.686 3.739-1.738-5.776 16.687-8.387-.141-.323-18.563 2.287-1.738-5.776 21.205-10.346zm-12.03 44.777c-.378-1.756-.616-3.189-.209-4.903a6.91 6.91 0 011.644-4.169c.688-1.066 1.698-2.273 3.312-2.972 1.474-1.023 2.765-1.583 4.842-2.1 1.754-.376 3.508-.752 5.219-.342 1.572.087 2.96.637 4.349 1.187 1.389.55 2.273 1.703 3.156 2.857.884 1.153 1.585 2.77 1.963 4.526.378 1.757.616 3.19.208 4.903a6.906 6.906 0 01-1.643 4.169c-.688 1.067-1.699 2.273-3.313 2.973-1.473 1.023-2.764 1.583-4.841 2.099-1.754.376-3.508.753-5.22.343-1.571-.087-2.96-.637-4.349-1.187-1.389-.551-2.272-1.704-3.156-2.857-1.023-1.477-1.584-2.77-1.962-4.527zm3.69-1.216c.379 1.757 1.402 3.233 2.791 3.784 1.529.873 3.101.96 5.177.444l3.508-.753c2.077-.517 3.551-1.54 4.562-2.746.87-1.53 1.095-2.78.577-4.859-.378-1.757-1.402-3.234-2.791-3.784-1.529-.873-3.1-.96-5.177-.444l-3.508.753c-2.077.516-3.551 1.539-4.561 2.746-.871 1.53-.956 3.103-.578 4.859zm.023 14.202l23.265-4.71.995 4.946-3.831.893.14.323c.786.044 1.249.227 1.852.734.463.183 1.066.69 1.669 1.196.603.507.883 1.154 1.487 1.66.28.647.7 1.617.658 2.404.659 2.403.068 4.579-1.125 6.249-1.193 1.669-3.312 2.972-6.175 3.445l-14.818 2.968-.994-4.946 14.172-2.688c3.508-.753 5.347-2.702 4.731-5.892-.28-.647-.238-1.433-.701-1.617-.28-.646-.42-.97-1.023-1.476-.604-.507-1.067-.69-1.529-.874-.463-.183-1.249-.227-1.895.053l-15.926 3.064-.952-5.732zm10.912 40.207c-1.529-.874-2.918-1.424-3.801-2.577-.884-1.154-1.444-2.447-1.823-4.203-.476-2.867.437-5.183 2.276-7.133 1.839-1.949 4.744-3.209 8.715-3.778 3.971-.57 7.254-.073 9.709 1.168 2.132 1.38 3.759 3.363 4.235 6.23.378 1.756-.17 3.146-.718 4.536-.547 1.389-1.698 2.273-2.849 3.156l.14.323 14.13-1.901.671 5.086-33.662 4.608-.671-5.086 3.648-.429zm-1.134-5.27c-.043.787.238 1.433.518 2.08.28.646.561 1.293 1.024 1.476.603.507 1.066.691 1.529.874.463.183 1.248.227 2.034.27l7.942-1.139c.786.044 1.431-.236 1.937-.839.505-.604.828-.743 1.333-1.347.183-.463.688-1.066.73-1.853.043-.786.225-1.25-.055-1.896-.378-1.757-1.079-3.373-2.145-4.063-1.066-.69-2.778-1.101-4.995-.908l-3.971.57c-1.754.376-3.368 1.076-4.378 2.282-1.474 1.023-1.881 2.736-1.503 4.493zm-1.16 27.39c-.055-1.897.03-3.47.578-4.86.547-1.389 1.095-2.779 2.246-3.662 1.011-1.207 2.302-1.766 3.916-2.466 1.613-.7 3.045-.936 4.939-.989 1.894-.053 3.465.033 5.177.444 1.712.41 2.778 1.1 3.984 2.113 1.206 1.014 2.09 2.167 2.65 3.46.561 1.294 1.262 2.91 1.177 4.483-.085 1.573-.169 3.147-.394 4.396-.548 1.39-1.236 2.457-2.247 3.663-1.01 1.206-2.302 1.766-3.593 2.326s-3.045.936-4.799 1.312l-1.894.054-1.284-17.112-.786-.043c-1.894.053-3.508.752-4.378 2.282-1.011 1.206-1.418 2.919-1.363 4.816.238 1.433.476 2.866 1.219 3.696.884 1.154 1.627 1.984 3.016 2.534l-2.387 3.339c-1.389-.55-2.735-1.887-3.759-3.363-1.304-2.124-1.822-4.203-2.018-6.423zm20.921-2.157c.043-.787-.378-1.757-.658-2.403-.281-.647-.884-1.154-1.487-1.66-.603-.507-1.206-1.014-1.992-1.057-.926-.367-1.711-.41-2.497-.454l-.323.14.935 11.886.323-.14c1.894-.053 3.508-.753 4.519-1.959 1.011-1.207 1.558-2.597 1.18-4.353zm-15.116 17.31l-.017 6.153 15.617-.242.016-6.152 4.251.077.333 11.379-6.146-.024.14.323c.786.043 1.712.41 2.315.917.926.367 1.529.873 2.132 1.38.603.507 1.024 1.477 1.304 2.123.421.97.518 2.08.616 3.19l.013 2.683-4.897.203-.068-4.58c-.055-1.896-.616-3.19-1.64-4.666-1.023-1.477-2.595-1.564-4.489-1.511l-8.825-.014.179 8.372-4.252-.077-.188-19.891 3.606.357zm19.345 35.781l-.394 4.397-20.191.304-.182.463 19.388 5.805-.577 4.859-20.093 1.414-.183.464 19.614 4.555-.535 4.073-23.177-5.699.802-6.11 18.662-1.177.182-.463-17.999-5.255.802-6.11 23.881-1.52zm-29.353 35.773a16.697 16.697 0 011.826-4.633c1.011-1.206 1.699-2.273 3.313-2.972 1.15-.884 2.582-1.12 4.336-1.496 1.431-.237 3.325-.29 5.177.444 1.711.41 3.423.82 4.952 1.693 1.529.874 2.735 1.887 3.296 3.181a8.595 8.595 0 011.682 3.879c.238 1.434.153 3.007-.254 4.72a16.71 16.71 0 01-1.826 4.632c-.871 1.53-1.699 2.273-3.313 2.973-1.291.56-2.582 1.119-4.336 1.496-1.431.236-3.325.289-5.177-.444-1.712-.41-3.423-.82-4.952-1.694-1.529-.873-2.735-1.887-3.296-3.18-.561-1.293-1.444-2.447-1.682-3.88-.238-1.433-.153-3.006.254-4.719zm3.886 1.003c-.407 1.714-.029 3.47.854 4.623.884 1.154 2.413 2.027 4.587 2.621l3.424.82c2.174.594 3.928.217 5.079-.666 1.151-.883 2.162-2.089 2.569-3.802.408-1.713.03-3.47-.854-4.623-.883-1.154-2.412-2.027-4.587-2.621l-3.423-.82c-2.175-.594-3.929-.217-5.08.666-1.291.56-2.301 1.766-2.569 3.802zm-6.36 12.744l22.77 7.413-1.363 4.816-4.027-1.328c.604.507 1.066.691 1.347 1.337.28.647.883 1.154 1.164 1.8.28.647.238 1.433.195 2.22-.042.786-.085 1.573-.45 2.5-.59 2.176-2.106 3.986-4.043 4.825-1.936.84-4.153 1.033-6.931-.067l-14.716-4.759 1.363-4.816 13.79 4.392c3.564 1.144 5.823.164 6.778-2.939.183-.463.225-1.25.408-1.713.042-.787-.098-1.11-.378-1.757-.281-.646-.421-.969-1.024-1.476s-1.066-.69-1.529-.874l-15.179-4.941 1.825-4.633zm-11.13 39.778c-1.024-1.477-1.584-2.77-1.499-4.343-.238-1.434-.013-2.683.717-4.537 1.236-2.456 3.215-4.082 5.754-4.415 2.4-.656 5.823.164 9.344 2.094 3.844 1.791 5.934 3.957 7.378 6.404 1.121 2.587.994 4.946-.242 7.403-.87 1.529-1.881 2.736-3.172 3.295-1.291.56-2.582 1.12-4.154 1.033l-.182.463 12.737 6.385-2.288 4.449-30.385-15.249 2.289-4.449 3.703 1.467zm2.009-5.096c-.506.603-.548 1.39-.731 1.853-.042.786-.225 1.25.056 1.896l.7 1.617c.281.646.744.83 1.67 1.197l6.901 3.537c.604.506 1.389.55 1.712.41.786.043 1.109-.097 1.754-.376.646-.28.828-.744 1.474-1.023.505-.604.688-1.067 1.193-1.67.871-1.53.955-3.103.255-4.72-.561-1.293-1.908-2.63-3.437-3.503l-3.38-1.607c-1.852-.733-3.241-1.284-4.855-.584-1.431.237-2.582 1.12-3.312 2.973zm-17.323 20.186c.871-1.53 2.344-2.553 3.495-3.436 1.151-.883 2.905-1.259 4.014-1.356 1.431-.236 3.002-.149 4.391.401 1.389.55 2.918 1.424 4.587 2.62 1.669 1.197 2.553 2.35 3.576 3.827 1.024 1.477 1.585 2.77 1.823 4.203.238 1.433.153 3.006-.072 4.256-.548 1.39-1.096 2.78-1.966 4.31-1.011 1.206-2.022 2.412-3.313 2.972-1.291.56-2.582 1.12-4.013 1.356-1.431.237-2.68.01-4.392-.4-1.388-.551-2.777-1.101-4.446-2.297l-1.67-1.197 10.192-13.637-.603-.507c-1.669-1.197-3.058-1.747-4.812-1.371-1.754.377-2.905 1.26-4.238 2.606-1.011 1.207-1.559 2.596-1.461 3.706.098 1.11.013 2.683.434 3.653l-4.154 1.033c-.701-1.617-.939-3.05-.671-5.086 1.053-1.993 1.783-3.846 3.299-5.656zm16.832 12.291c.506-.603.871-1.53.913-2.316l.127-2.36c.043-.786-.238-1.433-.981-2.263-.28-.647-1.024-1.477-1.627-1.983l-.14-.324-6.977 9.555.463.183c1.669 1.197 3.058 1.747 4.489 1.511 1.572.087 2.863-.473 3.733-2.003zm-22.492 2.07l-4.786 3.996 9.761 11.9 4.786-3.996 2.51 3.137-8.744 7.248-3.997-4.797-.323.14c.281.647.701 1.617.659 2.403.28.647.378 1.757.013 2.683-.043.787-.408 1.713-.773 2.64-.365.926-1.193 1.669-2.021 2.413l-2.302 1.766-3.113-3.644 3.635-3.112c1.473-1.023 2.344-2.553 2.429-4.126.085-1.573-.153-3.006-1.5-4.343l-5.623-6.78-6.443 5.482-2.51-3.137 15.186-12.73 3.156 2.857zm-46.347 46.982l-4.434.386-4.299-19.645-.323.14-1.565 20.268-4.757.526-5.408-19.549-.323.14-.457 20.171-4.111.246 1.132-23.92 5.865-.623 5.03 17.792.323-.14 1.48-18.694 6.188-.763 5.659 23.665zm-40.036-23.356c1.712.41 3.424.82 4.49 1.51 1.389.551 2.272 1.704 3.155 2.857.884 1.154 1.445 2.447 1.823 4.203.238 1.434.293 3.33.026 5.366-.268 2.037-.815 3.427-1.363 4.816-.548 1.39-1.559 2.597-2.71 3.48-1.15.883-2.301 1.766-3.733 2.002-1.431.237-3.185.613-4.896.203-1.712-.41-3.424-.82-4.49-1.511-1.389-.55-2.272-1.703-3.156-2.856-.883-1.154-1.444-2.447-1.822-4.203-.238-1.434-.293-3.33-.026-5.367.268-2.036.815-3.426 1.363-4.815.548-1.39 1.559-2.597 2.709-3.48 1.151-.883 2.302-1.766 3.734-2.002 1.754-.377 3.185-.613 4.896-.203zm-.534 4.073c-1.712-.41-3.326.289-4.477 1.172-1.151.884-2.021 2.413-2.148 4.773l-.353 3.609c-.267 2.037.111 3.793 1.135 5.27.883 1.153 2.412 2.027 3.984 2.114 1.711.41 3.325-.29 4.476-1.173 1.151-.883 2.021-2.413 2.149-4.772l.352-3.61c.267-2.036-.111-3.793-1.134-5.27-.561-1.293-2.09-2.166-3.984-2.113zm-12.316-5.415l-7.053 22.646-4.812-1.37.998-3.889c-.506.603-.688 1.066-1.334 1.346-.505.603-1.151.883-1.796 1.163-.646.28-1.431.236-2.077.516-.786-.043-1.571-.087-2.497-.453-2.175-.594-3.984-2.114-4.825-4.054-.841-1.94-1.037-4.16-.264-6.799l4.411-14.588 4.813 1.37-4.37 13.802c-1.138 3.566-.156 5.829 2.944 6.789.463.184 1.249.227 2.035.271.785.043 1.108-.097 1.754-.377.645-.28.968-.42 1.473-1.023.506-.603.688-1.066.871-1.53l4.776-15.514 4.953 1.694zm-39.605-10.867c1.474-1.023 2.765-1.583 4.196-1.82 1.431-.236 3.003-.149 4.532.724 2.454 1.24 4.081 3.224 4.74 5.627.658 2.403.166 5.689-1.618 9.535-1.783 3.846-3.805 6.259-6.064 7.239-2.582 1.119-4.799 1.312-7.254.072-1.529-.873-2.735-1.887-3.619-3.04-.56-1.293-1.121-2.587-1.036-4.16l-.463-.183-6.221 13.067-4.447-2.296 14.59-30.909 4.447 2.298-1.783 3.846zm5.092 2.017c-.603-.507-1.389-.55-1.851-.734-.786-.043-1.249-.227-1.895.053l-1.614.7c-.645.28-.828.743-1.193 1.67l-3.384 7.228c-.506.604-.548 1.39-.408 1.713-.042.787.098 1.11.378 1.757.281.647.744.83 1.024 1.477.603.506 1.066.69 1.669 1.196 1.852.734 3.423.821 4.715.261 1.291-.56 2.624-1.906 3.495-3.436l1.6-3.383c.731-1.853.816-3.426.578-4.859-.056-1.896-1.262-2.91-3.114-3.643zm-21.012-16.624c1.529.874 2.875 2.21 3.759 3.364a8.605 8.605 0 011.682 3.88c.238 1.433.153 3.006.068 4.579-.084 1.573-.955 3.103-2.148 4.773-.871 1.529-2.204 2.876-3.355 3.759-1.151.883-2.625 1.906-4.056 2.142-1.431.237-2.862.473-4.434.386a6.91 6.91 0 01-4.166-1.65c-1.529-.873-2.413-2.027-3.296-3.18a8.593 8.593 0 01-1.682-3.88c-.238-1.433-.154-3.006.071-4.256.548-1.39.956-3.103 1.966-4.309l.871-1.53 14.322 9.154.505-.603c.871-1.53 1.278-3.243 1.04-4.676-.378-1.757-1.261-2.91-3.253-3.967-1.206-1.013-2.455-1.24-4.027-1.327-1.248-.227-2.539.333-3.508.753l-1.499-4.343c1.614-.7 3.045-.936 4.939-.989 1.894-.053 4.069.54 6.201 1.92zm-11.049 17.85c.603.507 1.529.874 2.314.917.786.043 1.572.087 2.217-.193l2.26-.98c.505-.603 1.333-1.346 1.838-1.949l.183-.463-10.058-6.394-.182.463c-.871 1.53-1.278 3.243-1.04 4.676.055 1.896.939 3.05 2.468 3.923zm-4.777-22.512l-5.148-3.913-9.644 12.247 5.148 3.914-2.387 3.339-8.766-6.954 3.902-5.149-.14-.323c-.505.603-1.473 1.023-2.119 1.303-.645.28-1.614.7-2.4.656a20.225 20.225 0 01-2.82-.313c-.925-.367-1.851-.734-2.917-1.424l-2.273-1.703 2.892-3.943 3.619 3.04c1.669 1.197 3.058 1.747 4.489 1.511 1.431-.237 3.045-.937 3.916-2.466l5.419-6.959-6.817-5.11 2.386-3.34 15.724 12.388-2.064 3.199zm-39.493-7.075l-3.156-2.857 12.213-16.05-.14-.324-16.393 11.717-3.436-3.503 11.47-16.88-.14-.324-15.649 12.547-2.833-2.997L371.821 641l4.502 4.193-10.599 15.35.14.324 15.242-10.834 4.502 4.194-14.642 20.176zm-10.8-45.249c1.346 1.337 1.907 2.63 2.468 3.923.56 1.294.798 2.727.391 4.44-.085 1.573-.633 2.963-1.503 4.493-.871 1.529-1.882 2.736-3.215 4.082-1.333 1.346-2.807 2.369-4.421 3.069-1.614.7-3.045.936-4.476 1.173-1.572-.087-2.82-.314-4.209-.864-1.389-.55-2.595-1.564-3.942-2.9-1.346-1.337-1.907-2.63-2.468-3.924-.56-1.293-.798-2.726-.391-4.439.408-1.713.633-2.963 1.503-4.493.871-1.529 1.882-2.736 3.215-4.082 1.334-1.347 2.807-2.37 4.421-3.069 1.614-.7 3.045-.936 4.476-1.173 1.572.087 2.82.314 4.209.864 1.712.41 2.918 1.423 3.942 2.9zm-2.667 2.693c-1.347-1.337-2.413-2.027-3.984-2.114-1.571-.087-3.185.613-4.842 2.099l-2.807 2.37c-1.656 1.486-2.526 3.016-2.611 4.589-.085 1.573.476 2.866 1.499 4.343 1.347 1.337 2.413 2.027 3.984 2.113 1.572.087 3.186-.612 4.842-2.099l2.807-2.369c1.656-1.486 2.527-3.016 2.611-4.589.085-1.573-.475-2.867-1.499-4.343zm-7.178-13.02l-18.457 14.916-3.254-3.967 3.13-2.509-.14-.324c-.645.28-1.431.237-2.077.517-.785-.044-1.571-.087-2.034-.271-.786-.043-1.389-.55-1.992-1.056-.603-.507-1.206-1.014-1.949-1.844-1.627-1.983-2.005-3.74-1.878-6.099.267-2.037 1.643-4.17 3.945-5.936l12.014-9.434 3.254 3.967-11.369 9.154c-2.807 2.369-3.257 4.869-1.35 7.499.28.646.743.83 1.346 1.337.604.506 1.067.69 1.529.873.463.183 1.249.227 1.572.087l1.614-.7L346.744 615l3.577 3.827zm-28.289-30.754c1.894-.053 3.143.173 4.532.724 1.389.55 2.595 1.563 3.478 2.716 1.767 2.307 2.103 4.85 1.19 7.166-.773 2.64-2.794 5.053-6.064 7.239s-6.175 3.445-8.855 3.455c-2.68.01-4.812-1.371-6.579-3.677-1.024-1.477-1.584-2.77-1.5-4.343.085-1.573.31-2.823 1.181-4.353l-.14-.323-11.79 8.184-2.93-4.107 27.859-19.76 2.931 4.106-3.313 2.973zm3.717 4.15c-.281-.647-.884-1.154-1.487-1.66-.603-.507-1.066-.69-1.529-.874-.463-.183-1.249-.227-1.571-.087-.646.28-1.432.237-1.937.84l-6.4 4.695c-.645.28-1.151.883-1.333 1.347-.183.463-.366.926-.408 1.713-.042.786.098 1.11.378 1.756l.841 1.94c1.024 1.477 2.553 2.35 3.802 2.577 1.571.087 3.002-.149 4.799-1.312l3.27-2.186c1.473-1.023 2.484-2.23 2.892-3.943-.056-1.896-.294-3.33-1.317-4.806zm-11.579-24.939c1.024 1.477 1.724 3.093 1.962 4.527.238 1.433.154 3.006-.071 4.256-.548 1.39-1.096 2.779-2.107 3.986-1.01 1.206-2.344 2.552-3.958 3.252a13.289 13.289 0 01-4.841 2.099c-1.754.377-3.185.613-4.574.063-1.249-.227-2.638-.777-4.167-1.65-1.206-1.014-2.412-2.027-3.113-3.644-1.024-1.476-1.585-2.77-1.823-4.203-.237-1.433-.153-3.006.072-4.256.548-1.39 1.096-2.78 1.784-3.846 1.01-1.206 2.161-2.09 3.635-3.113l1.474-1.023 8.988 14.54.645-.28c1.474-1.023 2.485-2.229 2.892-3.942.408-1.713.03-3.47-.994-4.947-.884-1.153-1.767-2.306-2.833-2.996-1.066-.69-2.315-.917-3.746-.681l.535-4.073c1.571.087 3.283.497 4.812 1.371 2.455 1.24 3.801 2.577 5.428 4.56zm-17.642 11.49c.281.646 1.024 1.476 1.627 1.983.603.507 1.529.874 2.315.917l2.357.13c.786.044 1.754-.376 2.259-.979l.323-.14-6.24-9.97-.322.14c-1.474 1.023-2.485 2.229-3.032 3.619-.548 1.39-.31 2.823.713 4.3zm5.298-22.271l-3.169-5.54-13.501 7.774 3.169 5.54-3.733 2.003-5.454-9.927 5.53-3.165-.141-.324c-.645.28-1.754.377-2.539.333-.786-.043-1.572-.087-2.498-.453-.926-.367-1.529-.874-2.455-1.241-.603-.506-1.346-1.336-1.907-2.63l-1.444-2.446 4.379-2.283 2.145 4.064c1.023 1.476 2.23 2.49 3.619 3.04 1.388.55 3.142.173 4.756-.526l7.649-4.469-4.333-7.34 3.733-2.002 9.787 17.266-3.593 2.326zm-66.65-99.774l-1.359-4.02 18.397-7.977-.14-.323-19.995 2.524-1.317-4.807 17.837-9.27-.14-.323-19.897 3.634-1.22-3.697 23.686-3.739 1.738 5.776-16.687 8.387.141.323 18.563-2.287 2.061 5.636-21.668 10.163zm12.169-44.455c.378 1.757.616 3.19.209 4.903a6.913 6.913 0 01-1.643 4.169c-.688 1.067-1.699 2.273-3.313 2.973-1.474 1.023-2.765 1.583-4.841 2.099-1.754.376-3.508.753-5.22.343-1.572-.087-2.96-.637-4.349-1.187-1.389-.551-2.273-1.704-3.156-2.857-.883-1.154-1.584-2.77-1.822-4.203-.378-1.757-.616-3.19-.209-4.903a6.918 6.918 0 011.643-4.17c.688-1.066 1.699-2.272 3.313-2.972 1.474-1.023 2.765-1.583 4.841-2.099 1.754-.377 3.508-.753 5.22-.343 1.571.087 2.96.637 4.349 1.187 1.389.55 2.272 1.704 3.156 2.857.883 1.153 1.444 2.447 1.822 4.203zm-3.83.893c-.379-1.757-1.262-2.91-2.791-3.783-1.529-.874-3.101-.961-5.177-.444l-3.508.752c-2.077.517-3.551 1.54-4.562 2.746-.87 1.53-1.095 2.78-.717 4.536.378 1.757 1.262 2.91 2.791 3.784 1.529.873 3.1.96 5.177.444l3.508-.753c2.077-.517 3.55-1.54 4.561-2.746 1.011-1.206 1.096-2.78.718-4.536zm.118-13.878l-23.265 4.709-.994-4.946 3.83-.893-.14-.323c-.785-.043-1.248-.227-1.852-.733-.463-.184-1.066-.69-1.669-1.197-.603-.507-.883-1.153-1.486-1.66l-.982-2.263c-.658-2.404.072-4.257 1.125-6.25 1.194-1.669 3.313-2.972 6.175-3.445l14.818-2.968.994 4.947-14.172 2.687c-3.508.753-5.347 2.703-4.731 5.892.281.647.238 1.434.701 1.617.281.647.421.97 1.024 1.477.603.506 1.066.69 1.529.873.463.183 1.249.227 1.894-.053l15.786-3.387 1.415 5.916zm-11.095-39.744c1.529.873 2.918 1.423 3.801 2.577.884 1.153 1.444 2.446 1.822 4.203.476 2.866-.437 5.182-1.953 6.992-1.838 1.95-4.743 3.209-8.714 3.778-3.971.57-7.254.073-9.709-1.167-2.132-1.381-3.759-3.364-4.095-5.907-.378-1.756-.153-3.006.717-4.536.548-1.39 1.699-2.273 2.85-3.156l-.14-.323-14.13 1.901-.672-5.086 33.522-4.932.672 5.086-3.971.57zm1.134 5.269c.043-.786-.238-1.433-.518-2.08-.281-.646-.561-1.293-1.024-1.476-.603-.507-1.066-.69-1.529-.874-.463-.183-1.249-.226-2.034-.27l-7.942 1.139c-.786-.044-1.431.236-1.937.84-.645.279-.828.743-1.333 1.346-.183.463-.688 1.066-.731 1.853-.042.787-.225 1.25.056 1.896.378 1.757 1.079 3.374 2.468 3.924 1.206 1.013 2.777 1.1 4.994.907l3.971-.57c1.754-.376 3.368-1.076 4.379-2.282 1.151-.883 1.558-2.596 1.18-4.353zm.977-26.925c.055 1.896-.03 3.469-.577 4.859-.548 1.39-1.096 2.78-2.247 3.663-1.011 1.206-2.302 1.766-3.593 2.326-1.614.699-3.045.936-4.939.989-1.894.053-3.466-.034-5.177-.444-1.712-.41-2.778-1.1-4.307-1.974-1.206-1.013-1.949-1.843-2.973-3.32-.561-1.293-1.262-2.91-1.177-4.483-.238-1.433.17-3.146.395-4.396.547-1.39 1.235-2.456 2.246-3.663 1.011-1.206 2.302-1.766 3.593-2.326 1.291-.559 3.045-.936 4.799-1.312l1.894-.053 1.467 16.648.786.044c1.894-.053 3.508-.753 4.378-2.283 1.011-1.206 1.418-2.919 1.363-4.816-.238-1.433-.476-2.866-1.219-3.696-.744-.83-1.627-1.984-2.876-2.21l2.387-3.34c1.389.55 2.735 1.887 3.759 3.364 1.164 1.8 2.005 3.74 2.018 6.423zm-20.921 2.157c-.043.786.378 1.756.658 2.403.281.646.884 1.153 1.487 1.66.603.506 1.206 1.013 1.992 1.057.926.366 1.712.41 2.497.453l.323-.14-.935-11.885-.323.14c-1.894.053-3.508.752-4.196 1.819-1.011 1.206-1.559 2.596-1.503 4.493zm15.118-17.31l.016-6.153-15.616.242-.017 6.152-4.111.246-.192-11.055 6.468-.116-.14-.323c-.785-.044-1.711-.41-2.314-.917-.926-.367-1.529-.874-2.133-1.38-.603-.507-1.023-1.477-1.304-2.123-.42-.97-.518-2.08-.616-3.19l-.013-2.683 4.897-.203.069 4.58c.055 1.896.616 3.189 1.499 4.343 1.206 1.013 2.595 1.563 4.489 1.51l8.826.015-.179-8.373 4.111-.246.511 19.751-4.251-.077zm-19.529-35.32l.394-4.396 20.191-.304.182-.463-19.57-5.342.577-4.859 20.093-1.414.182-.463-19.473-4.233.535-4.072 23.499 5.559-.479 5.969-18.522 1.501-.182.463 17.859 4.932-.479 5.969-24.807 1.153zm29.028-35.631a16.648 16.648 0 01-1.826 4.632c-1.01 1.207-1.698 2.273-2.989 2.833-1.151.883-2.583 1.119-4.337 1.496-1.431.236-3.325.289-5.037-.121-1.711-.41-3.423-.82-4.952-1.694-1.529-.873-2.595-1.563-3.478-2.716a8.605 8.605 0 01-1.683-3.88c-.238-1.433-.153-3.007-.068-4.58a16.679 16.679 0 011.826-4.632c1.011-1.207 1.699-2.273 2.99-2.833 1.151-.883 2.582-1.119 4.336-1.496 1.431-.236 3.325-.289 5.037.121 1.712.41 3.423.82 4.952 1.694 1.529.873 2.595 1.563 3.479 2.716a8.614 8.614 0 011.682 3.88c.238 1.433.476 2.867.068 4.58zm-3.886-1.004c.408-1.713.029-3.47-.854-4.623s-2.413-2.027-4.587-2.62l-3.423-.821c-2.175-.593-3.929-.217-5.08.666-1.151.883-2.161 2.09-2.429 4.126-.407 1.713-.029 3.47.854 4.623.884 1.153 2.413 2.027 4.587 2.62l3.424.821c2.174.593 3.928.217 5.079-.666 1.151-.883 2.162-2.09 2.429-4.126zm6.04-12.605l-22.629-7.089 1.363-4.816 3.886 1.004c-.603-.507-1.066-.69-1.346-1.337-.603-.506-.884-1.153-1.164-1.8-.28-.646-.238-1.433-.518-2.079.042-.787.084-1.574.45-2.5.59-2.176 2.106-3.986 4.042-4.826 1.937-.839 4.154-1.032 6.932.068l14.576 4.435-1.363 4.816-13.791-4.392c-3.563-1.143-5.822-.164-6.778 2.939-.182.463-.225 1.25-.267 2.037-.042.786.098 1.109.378 1.756s.421.97 1.024 1.477c.603.506 1.066.69 1.529.873l15.502 4.802-1.826 4.632zm10.483-39.498c1.024 1.477 1.584 2.77 1.822 4.203.238 1.434.013 2.683-.717 4.536-1.236 2.457-3.215 4.083-5.614 4.739-2.4.656-5.683.159-9.527-1.631-3.843-1.79-6.256-3.817-7.237-6.08-1.122-2.587-1.317-4.807-.081-7.263.87-1.53 1.881-2.736 3.032-3.619 1.291-.56 2.582-1.12 4.153-1.033l.183-.463-13.06-6.244 2.288-4.45 30.891 14.646-2.289 4.45-3.844-1.791zm-2.008 5.096c.505-.603.547-1.39.73-1.853.042-.787.225-1.25-.056-1.896l-.7-1.617c-.281-.647-.744-.83-1.67-1.197l-6.901-3.537c-.604-.507-1.389-.55-2.035-.27-.785-.044-1.108.096-1.754.376-.645.28-.828.743-1.473 1.023-.506.603-.688 1.067-1.194 1.67-.73 1.853-.955 3.103-.254 4.719.561 1.294 1.907 2.63 3.436 3.504l3.381 1.607c1.852.733 3.423.82 4.854.584 1.754-.377 2.765-1.583 3.636-3.113zm16.857-20.369c-.87 1.53-2.344 2.553-3.495 3.436-1.151.883-2.582 1.12-4.013 1.356-1.431.237-3.003.15-4.392-.4-1.388-.551-3.24-1.284-4.446-2.297-1.67-1.197-2.876-2.211-3.9-3.687-1.023-1.477-1.584-2.77-1.822-4.203-.238-1.434-.476-2.867.072-4.257.225-1.249 1.095-2.779 1.966-4.309 1.011-1.206 2.021-2.413 3.312-2.972 1.151-.883 2.583-1.12 4.014-1.356 1.431-.237 2.68-.01 4.391.4 1.389.55 2.778 1.1 4.447 2.297l1.669 1.197-9.728 13.82.603.507c1.669 1.197 2.918 1.424 4.812 1.371 1.754-.377 2.905-1.26 4.098-2.929-.055-1.897.31-2.823.395-4.397.225-1.249-.013-2.683-.434-3.653l4.154-1.032c.7 1.616.938 3.05.671 5.086-.267 2.036-.998 3.889-2.374 6.022zm-17.477-12.011c-.506.603-.871 1.53-.913 2.317l-.127 2.359c.28.647.237 1.433.981 2.263.28.647 1.023 1.477 1.949 1.844l.141.323 6.837-9.878-.463-.183c-1.67-1.197-2.918-1.424-4.49-1.511-1.754.377-3.045.937-3.915 2.466zm22.674-2.533l4.646-4.319-10.406-11.62-4.646 4.319-2.833-2.997 8.281-7.431 4.32 4.656.323-.14-.982-2.263c-.28-.646-.378-1.756-.335-2.543.042-.786.407-1.713.772-2.639.366-.927 1.194-1.67 2.022-2.413l2.161-2.09 3.114 3.644-3.635 3.112c-1.334 1.346-2.022 2.413-2.429 4.126-.085 1.573.475 2.866 1.499 4.343l5.947 6.64 6.302-5.805 2.833 2.997-14.584 13.236-2.37-2.813z" fill="#000"></path></svg> 