<svg width="42" height="42" fill="none" xmlns="http://www.w3.org/2000/svg"><path d="M18.096 24.966v-7.931a3.673 3.673 0 013.672-3.673 2.396 2.396 0 002.377-2.09l.548-4.249a2.944 2.944 0 00-2.92-3.32c-5.817 0-10.533 4.715-10.533 10.532v13.53c0 5.817 4.716 10.532 10.533 10.532a2.944 2.944 0 002.92-3.32l-.549-4.25a2.396 2.396 0 00-2.376-2.089 3.672 3.672 0 01-3.672-3.672zm11.35 6.877a1.13 1.13 0 010-1.598c5.098-5.098 5.098-13.393 0-18.49a1.13 1.13 0 111.598-1.598c5.98 5.979 5.98 15.707 0 21.686a1.13 1.13 0 01-1.598 0z" fill="#000"/><path d="M25.998 28.395a1.13 1.13 0 010-1.598c3.196-3.197 3.196-8.398 0-11.594a1.13 1.13 0 011.598-1.598c4.078 4.078 4.078 10.712 0 14.79a1.13 1.13 0 01-1.598 0z" fill="#000"/></svg>