<?xml version="1.0" encoding="utf-8"?>
<!-- Generator: Adobe Illustrator 26.1.0, SVG Export Plug-In . SVG Version: 6.00 Build 0)  -->
<svg version="1.1" id="Layer_1" xmlns="http://www.w3.org/2000/svg" xmlns:xlink="http://www.w3.org/1999/xlink" x="0px" y="0px"
	 viewBox="0 0 118.89 119.28" style="enable-background:new 0 0 118.89 119.28;" xml:space="preserve">
<style type="text/css">
	.st0{fill:#BCBEC0;}
	.st1{fill:none;stroke:#BCBEC0;stroke-width:3;stroke-miterlimit:10;}
</style>
<g>
	<g id="g4635_00000099650144482063458170000016346863358471167882_" transform="translate(80.5205,162.219)">
		<path id="path4637_00000063622311091003354160000012778463233504957108_" class="st0" d="M-57.01-110.1
			c-0.09,0.45-0.21,0.89-0.29,1.35c-0.66,3.52,0.27,7.14,2.54,9.91c1.99,2.58,4.57,4.52,7.07,6.55c2.5,2.03,4.96,4.04,7.27,6.25
			c1.87,1.73,3.11,4.03,3.54,6.55c0.38,2.69-0.06,5.43-1.25,7.86c-0.44-0.28-0.43-0.28-0.24-0.86c0.11-0.34,0.2-0.69,0.34-1.18
			c-1.4,0.62-2.32,0.15-3.27-0.72c-3.19-2.94-6.49-5.78-9.69-8.75c-2.92-2.55-5.42-5.54-7.4-8.88c-1.78-2.96-2.51-6.43-2.07-9.85
			c0.03-0.17,0.02-0.35-0.03-0.51c-0.42,1.37-0.57,2.8-0.46,4.23c0.18,3.57,1.72,6.6,3.75,9.44c2.56,3.39,5.35,6.6,8.36,9.59
			c3.31,3.47,6.62,6.94,9.2,11.02c2.2,3.32,3.57,7.13,4,11.09c0.04,0.42,0.05,0.84,0.07,1.25c-0.46-0.09-0.46-0.09-1.16-2.45h-0.07
			c-0.81,0.62-1.65,0.94-2.62,0.38c-0.97-0.56-1.11-1.47-1.08-2.5c0.14-4.37-2.68-8.29-6.87-9.53c-5.39-1.56-10.36-4.3-14.56-8.03
			c-2.88-2.62-4.94-5.75-5.47-9.71c-0.36-3.24,0.17-6.52,1.53-9.49c1.87-4.37,4.62-8.21,7.61-11.87c0.34-0.42,0.7-0.82,1.05-1.25
			L-57.01-110.1z"/>
	</g>
	<g id="g4639_00000054240387323937885730000013937900370806508455_" transform="translate(159.9609,195.3689)">
		<path id="path4641_00000045583175830588572050000009617162216066126227_" class="st0" d="M-86.82-163.96h4.52v12.49h5.26v-12.49
			h4.59v29.28h-4.56v-12.49h-5.27v12.49h-4.54V-163.96z"/>
	</g>
	<g id="g4643_00000110470658508149734610000004794113438606061206_" transform="translate(195.4004,163.3386)">
		<path id="path4645_00000085243059040018237860000017575055632585798044_" class="st0" d="M-100.13-111.92h4.41l-2.12-14.54h-0.15
			C-98.7-121.65-99.41-116.83-100.13-111.92 M-101.51-102.63h-4.24c1.56-9.78,3.12-19.5,4.67-29.28h6.77
			c1.55,9.7,3.1,19.45,4.67,29.25h-4.65c-0.27-1.72-0.54-3.47-0.81-5.27h-5.21c-0.17,0-0.44,0.34-0.48,0.56
			C-101.02-105.79-101.27-104.23-101.51-102.63"/>
	</g>
	<g id="g4647_00000085971836795727826000000008747268407859713973_" transform="translate(146.5303,163.3386)">
		<path id="path4649_00000111182721525611104720000011001965857966098835_" class="st0" d="M-81.78-111.92
			c-0.72-4.89-1.42-9.71-2.12-14.52h-0.16c-0.71,4.82-1.41,9.65-2.12,14.53L-81.78-111.92z M-81.16-107.92h-5.21
			c-0.17,0-0.44,0.35-0.48,0.57c-0.26,1.54-0.48,3.12-0.72,4.69h-4.24c1.56-9.76,3.12-19.5,4.67-29.27h6.77
			c1.55,9.7,3.1,19.45,4.67,29.25h-4.65C-80.62-104.38-80.89-106.13-81.16-107.92"/>
	</g>
	<g id="g4651_00000164504238430320934850000005044946760955989434_" transform="translate(175.751,81.7683)">
		<path id="path4653_00000173850154940383252760000017294812602067000709_" class="st0" d="M-92.75,20.61
			c-2.37,0.7-4.81,1.1-7.28,1.21c-0.2,0-0.52-0.29-0.62-0.52c-2.68-6.27-6.19-12.16-10.44-17.49c-4.74-6.01-10.41-11.24-16.79-15.47
			c-0.1-0.06-0.19-0.14-0.44-0.32c1.55-0.19,2.94-0.37,4.33-0.5c0.3,0.02,0.58,0.13,0.82,0.3c5.09,2.88,9.82,6.36,14.09,10.36
			c6.74,6.21,12.23,13.65,16.18,21.92c0.06,0.11,0.11,0.23,0.16,0.34C-92.74,20.49-92.74,20.55-92.75,20.61"/>
	</g>
	<g id="g4655_00000165201727252294511470000009978298099331656377_" transform="translate(196.1504,92.6091)">
		<path id="path4657_00000013184047063450293200000015968313966951990423_" class="st0" d="M-100.41,3l-5.78,4.05
			c-7.89-13.87-19.24-23.74-33.36-30.93c1.69-0.16,3.2-0.31,4.72-0.42c0.22,0.02,0.44,0.09,0.62,0.21
			c9.15,3.99,17.53,9.55,24.75,16.45C-106.08-4.41-103.05-0.85-100.41,3"/>
	</g>
	<g id="g4659_00000105416688306098358660000014336607342765616258_" transform="translate(149.8604,80.9284)">
		<path id="path4661_00000126288653653721457940000010253318589625107086_" class="st0" d="M-83.03,21.97
			c-2.89-0.63-5.68-1.62-8.32-2.95c-0.83-0.39-1.47-1.08-1.8-1.94c-3.51-8.58-8.46-16.51-14.62-23.43
			c-0.13-0.18-0.29-0.34-0.46-0.49c-1.02-0.72-1.11-1.77-1-2.86c0-0.21,0.32-0.38,0.49-0.57h0.07c1.51-0.59,2.55,0.19,3.64,1.11
			c6.8,5.72,12.49,12.63,16.82,20.39c1.84,3.28,3.32,6.75,4.95,10.13C-83.19,21.51-83.15,21.68-83.03,21.97"/>
	</g>
	<g id="g4663_00000070828317396613608220000015285913043268629377_" transform="translate(103.4907,174.5886)">
		<path id="path4665_00000124854024504299061970000003728496735530705059_" class="st0" d="M-65.63-130.19v4.18h-5.92v12.13h-4.58
			v-29.3H-64v4.14h-7.5v8.86H-65.63z"/>
	</g>
	<g id="g4667_00000033368435477671740600000003936814979498220720_" transform="translate(109.7607,195.4289)">
		<path id="path4669_00000032615795396177630440000014976892554125481404_" class="st0" d="M-67.98-164.05h4.1
			c0.12,0,0.24,0,0.41,0.03v25.15h7.6v4.15h-12.11V-164.05z"/>
	</g>
	<g id="g4671_00000180368985612386997520000017239765895087186570_" transform="translate(208.3604,108.1189)">
		<path id="path4673_00000081617996568629360500000008651867917495851944_" class="st0" d="M-104.99-22.2l-3.17,4.91
			c-9.3-10.46-20.65-17.63-33.36-22.94c1.35-0.06,2.7-0.19,4.05-0.17c0.81-0.01,1.62,0.12,2.39,0.37
			c10.52,3.97,20.25,9.31,28.83,16.64c0.34,0.29,0.68,0.59,1.01,0.89C-105.14-22.4-105.06-22.3-104.99-22.2"/>
	</g>
	<g id="g4675_00000124121502187593759990000016923569085224139705_" transform="translate(211.4707,115.7585)">
		<path id="path4677_00000124866196364374467120000004648095176535622324_" class="st0" d="M-106.16-34.61
			c-8.23-5.68-17.21-10.19-26.68-13.41h5.7c2.02,0,3.75,0.91,5.58,1.57c5.48,2.01,10.81,4.43,15.92,7.24
			c0.51,0.28,0.66,0.54,0.49,1.1c-0.3,0.96-0.52,1.93-0.78,2.89C-105.98-35.05-106.06-34.84-106.16-34.61"/>
	</g>
	<g id="g4679_00000111167755439824773310000016111170100195718074_" transform="translate(196.8105,135.6892)">
		<path id="path4681_00000176747368188667043550000002327944003710748801_" class="st0" d="M-100.65-67l10.84,2.41v2.16l-10.9-4.37
			L-100.65-67z"/>
	</g>
</g>
<path class="st1" d="M107.5,115.5h-96c-3.87,0-7-3.13-7-7v-96c0-3.87,3.13-7,7-7h96c3.87,0,7,3.13,7,7v96
	C114.5,112.37,111.37,115.5,107.5,115.5z"/>
</svg>
