<?xml version="1.0" encoding="UTF-8"?> <svg xmlns="http://www.w3.org/2000/svg" width="164" height="160" viewBox="0 0 164 160" fill="none"><g clip-path="url(#clip0_74_947)"><path d="M79.3889 125.952C79.6889 125.952 79.6889 125.552 79.3889 125.552C79.0889 125.552 79.0889 125.952 79.3889 125.952Z" fill="#1D1D1B"></path><path d="M79.289 125.552C76.889 125.652 74.789 126.752 73.589 128.452C72.189 130.452 72.189 132.852 72.689 135.052C73.289 137.552 74.789 139.852 75.689 142.252C76.589 144.852 77.089 147.452 77.289 150.052C77.589 153.052 77.689 156.152 78.089 159.252C78.089 159.352 78.289 159.352 78.289 159.252C78.289 156.752 77.989 154.252 77.789 151.752C77.589 149.352 77.289 146.952 76.789 144.652C76.189 142.252 75.189 140.052 74.189 137.852C73.189 135.552 72.389 133.052 73.089 130.652C73.689 128.252 76.089 126.152 79.289 126.052C79.589 125.852 79.589 125.552 79.289 125.552Z" fill="#1D1D1B"></path><path d="M78.189 127.153C79.689 126.553 81.189 126.153 82.589 127.053C83.789 127.853 84.089 129.153 84.089 130.353C83.989 132.853 82.989 135.253 82.089 137.653C81.189 140.053 80.589 142.553 79.889 144.953C79.289 147.253 78.589 149.653 79.089 152.053C79.089 152.153 79.289 152.153 79.289 152.053C79.189 149.753 79.589 147.653 80.089 145.353C80.689 143.153 81.289 140.953 82.089 138.853C82.789 136.753 83.689 134.753 84.289 132.553C84.689 130.853 85.089 128.853 83.789 127.353C83.189 126.653 82.389 126.153 81.389 126.053C80.189 125.853 79.089 126.353 78.089 126.753C77.689 126.953 77.989 127.253 78.189 127.153Z" fill="#1D1D1B"></path><path d="M78.289 147.752C77.989 149.752 78.189 151.952 78.389 153.952C78.489 156.052 78.589 158.252 79.089 160.252C79.089 160.352 79.189 160.252 79.189 160.252C79.189 158.152 78.889 156.152 78.689 154.052C78.489 151.952 78.189 149.852 78.589 147.752C78.689 147.652 78.389 147.552 78.289 147.752Z" fill="#1D1D1B"></path><path d="M81.289 140.653C81.089 141.753 81.489 142.753 81.889 143.753C82.389 145.053 82.389 146.453 82.089 147.853C82.489 146.753 82.589 145.753 82.289 144.653C81.989 143.353 81.089 142.053 81.389 140.753C81.489 140.653 81.389 140.553 81.289 140.653Z" fill="#1D1D1B"></path><path d="M81.789 144.353C81.689 144.753 81.589 145.053 81.589 145.453C81.589 145.453 81.589 145.453 81.689 145.453C81.689 145.053 81.689 144.753 81.789 144.353C81.789 144.253 81.889 144.353 81.789 144.353Z" fill="#1D1D1B"></path><path d="M81.289 143.353C81.289 143.653 81.189 143.953 81.089 144.253C81.189 143.953 81.289 143.653 81.289 143.353Z" fill="#1D1D1B"></path><path d="M79.589 145.553C79.789 146.753 80.089 147.953 80.489 149.153C80.189 147.953 79.889 146.753 79.789 145.553C79.689 145.453 79.589 145.453 79.589 145.553Z" fill="#1D1D1B"></path><path d="M80.7889 150.452C80.8889 150.852 80.8889 151.152 80.9889 151.552C80.9889 151.152 80.8889 150.752 80.7889 150.452C80.7889 150.352 80.7889 150.352 80.7889 150.452Z" fill="#1D1D1B"></path><path d="M79.4889 148.152C80.3889 150.252 81.1889 152.252 81.5889 154.452C81.4889 152.252 80.5889 150.152 79.6889 148.052C79.5889 147.952 79.3889 148.052 79.4889 148.152Z" fill="#1D1D1B"></path><path d="M75.489 142.053C75.989 144.753 74.189 147.353 74.789 150.153H74.889C74.589 147.453 76.189 144.753 75.589 142.053C75.589 141.953 75.489 142.053 75.489 142.053Z" fill="#1D1D1B"></path><path d="M75.389 146.452C76.489 148.452 76.689 150.552 76.189 152.652C76.889 150.552 76.589 148.352 75.489 146.452C75.489 146.352 75.289 146.352 75.389 146.452Z" fill="#1D1D1B"></path><path d="M75.9889 148.553C75.9889 148.953 75.8889 149.353 75.8889 149.753H75.9889C76.0889 149.353 76.0889 148.953 76.1889 148.553C76.1889 148.453 75.9889 148.453 75.9889 148.553Z" fill="#1D1D1B"></path><path d="M73.089 135.452C73.489 137.852 72.089 140.352 72.989 142.652C72.189 140.252 73.489 137.852 73.089 135.452Z" fill="#1D1D1B"></path><path d="M72.989 135.252C73.189 136.252 73.089 137.252 72.989 138.252C72.989 139.152 73.189 139.952 73.389 140.852C73.889 142.852 73.989 144.752 73.689 146.752C74.189 144.952 74.089 142.952 73.589 141.152C73.289 140.152 73.089 139.152 73.089 138.052C73.189 137.152 73.289 136.252 73.089 135.252C73.089 135.152 72.989 135.152 72.989 135.252Z" fill="#1D1D1B"></path><path d="M73.589 140.652C73.989 141.352 74.389 142.052 74.689 142.752C74.489 142.052 74.089 141.352 73.589 140.652C73.589 140.552 73.689 140.552 73.589 140.652Z" fill="#1D1D1B"></path><path d="M72.289 133.952C71.889 135.152 71.789 136.352 72.089 137.452C71.889 136.252 71.989 135.052 72.489 133.952C72.489 133.852 72.289 133.852 72.289 133.952Z" fill="#1D1D1B"></path><path d="M82.789 136.153C82.589 137.153 82.889 138.053 83.189 139.053C83.589 140.153 83.889 141.153 83.989 142.353C84.189 140.153 82.589 138.253 82.789 136.153C82.789 136.153 82.889 136.153 82.789 136.153Z" fill="#1D1D1B"></path><path d="M83.2889 135.253C83.0889 136.953 83.7889 138.553 83.8889 140.253C83.8889 140.253 83.9889 140.353 83.9889 140.253C84.4889 138.553 83.4889 136.953 83.6889 135.253C83.5889 135.053 83.2889 135.053 83.2889 135.253Z" fill="#1D1D1B"></path><path d="M83.7889 134.152C83.7889 135.152 84.2889 135.952 84.6889 136.852C85.1889 137.952 85.3889 139.052 85.3889 140.252C85.3889 139.252 85.3889 138.252 84.9889 137.252C84.5889 136.252 84.0889 135.252 83.9889 134.152C83.9889 134.052 83.7889 134.052 83.7889 134.152Z" fill="#1D1D1B"></path><path d="M82.989 139.252C82.889 139.952 82.889 140.552 83.089 141.252C82.989 140.552 82.989 139.952 82.989 139.252C82.989 139.252 83.089 139.252 82.989 139.252Z" fill="#1D1D1B"></path><path d="M82.589 138.952C81.189 142.352 84.889 145.452 84.489 148.752C85.289 145.352 81.289 142.352 82.689 138.952C82.789 138.952 82.589 138.952 82.589 138.952Z" fill="#1D1D1B"></path><path d="M81.889 138.653C81.689 139.853 82.589 140.853 83.089 141.953C83.589 142.953 83.589 144.053 83.489 145.153C83.389 147.153 82.389 149.353 83.389 151.353C83.389 151.453 83.489 151.353 83.489 151.353C83.289 150.253 83.189 149.253 83.289 148.153C83.389 147.153 83.589 146.053 83.689 145.053C83.789 144.053 83.689 143.153 83.289 142.253C82.789 141.053 81.789 140.053 81.989 138.753C81.989 138.553 81.889 138.553 81.889 138.653Z" fill="#1D1D1B"></path><path d="M82.289 138.852C82.289 139.152 82.189 139.552 82.289 139.852C82.289 139.952 82.4889 139.952 82.4889 139.852C82.4889 139.552 82.4889 139.152 82.5889 138.852C82.5889 138.652 82.289 138.652 82.289 138.852Z" fill="#1D1D1B"></path><path d="M80.089 145.353C80.689 147.853 80.689 150.353 80.389 152.853C80.889 150.353 80.789 147.853 80.089 145.353C80.089 145.353 80.189 145.353 80.089 145.353Z" fill="#1D1D1B"></path><path d="M74.989 140.452C75.089 142.152 74.589 143.852 74.589 145.452C74.489 147.052 75.089 148.652 75.989 149.952C75.789 149.152 75.389 148.452 75.089 147.752C74.789 146.852 74.689 146.052 74.789 145.152C74.889 143.552 75.289 142.052 75.189 140.452C75.089 140.352 74.989 140.352 74.989 140.452Z" fill="#1D1D1B"></path><path d="M80.3889 144.652C80.4889 145.352 80.5889 145.952 80.8889 146.552C80.6889 145.952 80.5889 145.252 80.4889 144.652C80.4889 144.552 80.3889 144.552 80.3889 144.652Z" fill="#1D1D1B"></path><path d="M84.089 133.353C84.189 134.353 84.489 135.353 85.089 136.153C84.689 135.253 84.289 134.353 84.189 133.353C84.289 133.253 84.089 133.253 84.089 133.353Z" fill="#1D1D1B"></path><path d="M54.189 134.453C55.289 132.753 56.289 131.053 57.889 129.653C59.589 128.153 61.589 127.053 64.089 126.453C66.589 125.853 69.289 125.353 71.889 125.553C73.289 125.653 74.589 125.553 75.989 125.553C77.389 125.453 78.689 125.753 80.089 125.753C80.189 125.753 80.189 125.653 80.089 125.653C78.789 125.253 77.289 125.453 75.989 125.353C74.489 125.253 72.989 125.253 71.589 125.153C70.189 125.053 68.889 125.153 67.489 125.353C66.189 125.553 64.789 125.753 63.489 126.053C61.089 126.653 59.089 127.653 57.589 129.253C56.089 130.753 55.089 132.553 53.989 134.253C54.089 134.453 54.189 134.553 54.189 134.453Z" fill="#1D1D1B"></path><path d="M54.6889 133.853C55.6889 132.353 57.8889 132.253 59.7889 132.053C61.5889 131.853 63.0889 131.253 64.4889 130.353C65.9889 129.353 67.3889 128.253 68.9889 127.353C70.7889 126.353 72.7889 125.753 74.9889 125.653C75.1889 125.653 75.1889 125.453 74.9889 125.453C70.8889 125.053 67.3889 128.053 64.5889 129.953C63.7889 130.453 62.9889 131.053 61.9889 131.353C60.9889 131.753 59.8889 131.853 58.7889 131.953C57.1889 132.153 55.3889 132.653 54.5889 133.853C54.4889 133.853 54.5889 133.953 54.6889 133.853Z" fill="#1D1D1B"></path><path d="M78.9889 126.152C79.2889 126.152 79.2889 125.752 78.9889 125.752C78.6889 125.852 78.6889 126.152 78.9889 126.152Z" fill="#1D1D1B"></path><path d="M66.789 79.5525C66.889 80.3525 67.089 81.0525 67.089 81.8525C67.089 82.2525 67.189 82.5525 67.189 82.9525C67.189 83.1525 67.189 83.2525 67.189 83.4525C66.389 82.8525 65.389 82.0525 64.889 81.7525C63.589 80.9525 62.089 80.3525 60.589 79.8525C60.589 79.6525 60.389 79.3525 60.389 79.3525C60.189 78.8525 59.789 78.3525 59.289 77.9525C59.589 78.2525 59.889 78.6525 60.089 78.9525C60.189 79.0525 60.389 79.5525 60.489 79.8525C59.989 79.6525 59.489 79.4525 58.989 79.3525C58.589 79.2525 58.289 79.1525 57.889 79.0525L57.789 78.9525C57.689 78.7525 57.489 78.5525 57.389 78.4525C56.889 78.0525 56.389 77.7525 55.889 77.3525C56.389 77.7525 56.989 78.1525 57.389 78.5525C57.489 78.6525 57.589 78.8525 57.689 78.9525C56.789 78.7525 55.889 78.5525 55.089 78.2525C54.489 78.0525 53.589 77.7525 53.789 77.8525C54.089 78.0525 54.789 78.3525 55.489 78.5525C55.289 78.6525 55.089 78.9525 54.989 79.0525C54.689 79.3525 54.189 79.2525 53.789 79.2525C53.389 79.2525 52.989 79.3525 52.689 79.4525C52.989 79.3525 53.389 79.2525 53.789 79.2525C54.089 79.2525 54.389 79.2525 54.689 79.2525C54.889 79.2525 54.989 79.1525 55.089 79.0525C55.189 78.9525 55.289 78.8525 55.289 78.7525C55.289 78.7525 55.589 78.4525 55.589 78.5525C56.489 78.8525 57.489 79.1525 58.089 79.3525C59.089 79.7525 60.189 80.1525 61.189 80.4525C61.889 80.7525 62.589 80.9525 63.189 81.2525C63.089 81.3525 62.989 81.4525 62.889 81.5525C62.789 81.6525 62.689 81.7525 62.489 81.8525C62.289 81.9525 61.989 81.9525 61.789 81.8525C61.389 81.8525 61.089 81.8525 60.789 81.9525C60.389 82.1525 59.789 82.3525 59.389 81.9525C59.489 82.2525 59.889 82.2525 60.189 82.2525C60.689 82.1525 60.989 81.8525 61.589 81.9525C61.989 81.9525 62.289 82.0525 62.689 81.8525C62.989 81.6525 63.089 81.4525 63.389 81.2525C63.589 81.3525 63.889 81.4525 64.089 81.6525C64.989 82.1525 65.689 82.6525 66.489 83.2525C66.689 83.4525 67.489 84.3525 67.689 84.5525C67.889 84.7525 68.189 85.0525 68.389 85.2525C68.689 85.5525 68.889 85.8525 69.189 86.1525C68.989 86.1525 68.889 86.2525 68.689 86.2525C68.389 86.3525 68.089 86.3525 67.789 86.2525C67.389 86.0525 66.989 85.8525 66.489 85.7525C65.889 85.7525 65.189 86.0525 64.889 85.5525C65.089 85.8525 65.489 85.8525 65.789 85.8525C66.089 85.8525 66.489 85.8525 66.789 85.9525C67.089 86.0525 67.289 86.1525 67.589 86.2525C67.989 86.4525 68.389 86.4525 68.789 86.3525C68.989 86.2525 69.089 86.2525 69.189 86.2525C69.289 86.4525 69.489 86.5525 69.589 86.7525C70.389 87.7525 70.989 88.8525 71.589 89.9525C71.689 90.0525 72.289 92.4525 72.489 93.0525C72.489 93.0525 72.489 93.0525 72.389 93.0525C72.189 92.8525 72.089 92.6525 71.789 92.5525C71.289 92.1525 70.489 92.2525 69.889 92.0525C69.689 91.9525 69.389 91.9525 69.189 91.8525C68.989 90.8525 67.389 90.5525 66.389 90.2525C65.889 90.1525 65.489 89.9525 65.089 89.7525C64.789 89.5525 64.489 89.4525 64.089 89.2525C63.689 89.1525 63.289 89.0525 62.889 88.9525C62.389 88.7525 62.089 88.5525 61.789 88.1525C62.189 88.6525 62.789 88.9525 63.489 89.0525C63.989 89.1525 64.389 89.2525 64.789 89.4525C65.089 89.6525 65.389 89.7525 65.789 89.8525C66.989 90.2525 68.989 90.3525 69.289 91.5525C68.789 91.3525 68.289 91.1525 67.789 90.9525C67.089 90.7525 66.389 90.5525 65.589 90.5525C66.389 90.7525 67.189 90.9525 67.989 91.1525C68.689 91.3525 69.389 91.7525 70.089 91.9525C70.489 92.0525 70.789 92.0525 71.189 92.1525C71.589 92.2525 71.889 92.4525 72.089 92.6525C72.289 92.8525 72.489 93.0525 72.689 93.1525C72.689 93.2525 72.689 93.3525 72.789 93.4525C72.989 94.0525 73.089 94.6525 73.189 95.2525C73.289 95.6525 73.389 96.1525 73.489 96.5525C73.389 96.4525 73.189 96.3525 73.089 96.2525C72.789 96.0525 72.389 95.8525 71.889 95.7525C70.889 95.5525 69.889 95.5525 68.989 95.3525C68.389 95.2525 67.889 94.9525 67.389 94.7525C66.989 94.5525 66.489 94.3525 66.089 94.2525C65.589 94.1525 65.089 94.0525 64.689 93.9525C64.089 93.8525 63.489 93.6525 62.989 93.3525C63.689 93.8525 64.789 93.9525 65.689 94.1525C66.289 94.2525 66.789 94.4525 67.289 94.6525C67.689 94.8525 68.089 95.0525 68.489 95.2525C69.389 95.5525 70.489 95.5525 71.389 95.7525C71.889 95.8525 72.389 95.9525 72.789 96.1525C72.989 96.2525 73.189 96.3525 73.289 96.5525C73.389 96.6525 73.389 96.7525 73.489 96.7525C73.489 96.8525 73.489 96.8525 73.489 96.9525C73.589 97.5525 73.689 98.1525 73.789 98.7525C73.889 99.0525 73.889 99.3525 73.889 99.6525C73.289 99.2525 72.589 98.9525 71.789 98.9525C70.989 98.9525 70.189 99.1525 69.389 99.0525C68.589 98.8525 67.789 98.4525 66.989 98.3525C66.889 98.3525 66.789 98.3525 66.689 98.3525C66.389 98.1525 66.089 97.9525 65.789 97.9525C65.289 97.8525 64.889 97.9525 64.389 97.9525C63.789 97.9525 63.189 97.6525 62.589 97.4525C61.989 97.2525 61.389 97.0525 60.789 96.8525C61.389 97.0525 61.889 97.2525 62.489 97.4525C62.989 97.6525 63.489 97.8525 63.989 97.9525C64.189 97.9525 64.389 98.0525 64.589 98.0525C64.889 98.0525 65.189 97.9525 65.489 97.9525C65.889 97.9525 66.289 98.1525 66.589 98.3525C65.889 98.2525 65.189 98.3525 64.589 98.3525C65.389 98.4525 66.289 98.4525 67.089 98.5525C67.889 98.7525 68.589 99.1525 69.389 99.3525C70.189 99.5525 70.889 99.3525 71.589 99.3525C72.489 99.2525 73.289 99.6525 73.989 100.053H74.089C74.189 101.153 74.389 102.253 74.389 103.353C74.189 103.253 73.989 103.153 73.889 103.153C73.589 103.053 73.189 102.953 72.789 102.953C72.389 102.953 71.989 103.053 71.589 103.153C71.189 103.253 70.689 103.353 70.189 103.353C69.989 103.353 69.789 103.353 69.689 103.353C69.289 103.053 68.889 102.753 68.389 102.553C67.789 102.253 67.089 102.053 66.389 101.853C65.689 101.653 64.989 101.353 64.289 100.953C63.589 100.553 63.089 100.153 62.489 99.7525C63.489 100.653 64.889 101.353 66.189 101.853C66.889 102.153 67.689 102.353 68.389 102.653C68.689 102.853 68.989 103.053 69.289 103.253C69.389 103.253 69.389 103.353 69.489 103.353C68.689 103.353 67.989 103.253 67.189 103.153C66.689 103.053 66.089 102.953 65.589 102.853C65.089 102.753 64.689 102.453 64.189 102.253C64.489 102.553 64.989 102.653 65.489 102.853C65.889 102.953 66.389 103.153 66.789 103.253C67.789 103.453 68.789 103.653 69.789 103.753C70.189 103.753 70.589 103.853 71.089 103.753C71.489 103.653 71.889 103.453 72.289 103.453C72.689 103.353 73.189 103.453 73.589 103.653C73.789 103.753 73.989 103.753 74.189 103.853C74.289 103.853 74.289 103.853 74.289 103.953C74.389 104.753 74.389 105.653 74.389 106.453C74.189 106.453 73.989 106.353 73.789 106.353C73.189 106.353 72.589 106.553 72.089 106.753C71.489 107.053 70.989 107.353 70.389 107.553C69.789 107.753 69.089 107.853 68.489 107.653C69.689 108.053 70.889 107.553 71.889 107.153C72.489 106.953 73.089 106.553 73.789 106.553C73.989 106.553 74.289 106.553 74.489 106.653C74.589 108.653 74.589 110.753 74.689 112.753C74.789 114.853 74.989 116.953 75.489 119.053C75.789 120.253 76.189 121.353 76.589 122.553C76.789 123.153 77.089 123.653 77.389 124.253C77.589 124.553 77.689 124.753 77.889 125.053C78.089 125.353 78.389 125.553 78.589 125.853C78.789 126.153 79.289 125.853 79.189 125.653C78.889 125.153 78.789 124.653 78.589 124.153C78.389 123.653 78.189 123.153 77.989 122.653C77.589 121.653 77.289 120.653 77.089 119.653C76.589 117.553 76.389 115.453 76.189 113.353C76.089 111.553 75.989 109.753 75.889 108.053C75.989 107.853 76.089 107.553 76.389 107.353C76.689 107.153 77.189 107.153 77.589 107.053C77.989 106.953 78.289 106.853 78.689 106.753C78.789 106.753 78.889 106.653 78.989 106.653C79.089 106.553 79.289 106.653 79.389 106.653C79.489 106.653 79.589 106.653 79.789 106.653C80.389 106.553 80.789 106.153 81.389 106.053C81.089 106.053 80.889 106.053 80.589 106.153C80.289 106.253 79.989 106.553 79.589 106.453C79.389 106.453 79.289 106.353 79.089 106.353C78.889 106.353 78.689 106.453 78.589 106.453C78.189 106.653 77.789 106.853 77.289 106.853C76.889 106.853 76.489 106.953 76.189 107.053C75.989 107.153 75.889 107.253 75.789 107.453C75.789 107.353 75.789 107.153 75.789 107.053C75.689 106.153 75.689 105.253 75.589 104.353C75.689 104.353 75.689 104.253 75.789 104.253C76.189 104.053 76.489 103.853 76.889 103.653C77.489 103.353 78.389 102.853 78.489 102.253C78.289 102.653 77.989 102.853 77.589 103.053C77.189 103.253 76.889 103.453 76.489 103.553C76.189 103.653 75.889 103.853 75.589 104.053C75.589 103.853 75.589 103.653 75.489 103.553C75.389 103.053 75.289 102.453 75.189 101.953C75.289 101.753 75.389 101.653 75.589 101.453C75.889 101.153 76.189 100.953 76.589 100.753C77.389 100.353 77.789 99.8525 78.089 99.1525C78.289 98.6525 78.489 98.2525 78.589 97.7525C78.789 97.5525 79.089 97.3525 79.289 97.2525C79.589 96.9525 80.089 96.9525 80.489 96.6525C81.089 96.2525 81.389 95.6525 81.989 95.3525C81.289 95.6525 80.989 96.2525 80.389 96.6525C80.089 96.8525 79.589 96.9525 79.289 97.1525C79.089 97.3525 78.889 97.4525 78.689 97.6525C78.789 97.4525 78.789 97.2525 78.889 97.0525C78.989 96.6525 79.089 96.2525 79.189 95.9525C79.289 95.5525 79.489 95.1525 79.489 94.7525C79.289 95.0525 79.089 95.4525 78.989 95.8525C78.889 96.2525 78.689 96.6525 78.489 97.0525C78.189 97.7525 77.989 98.5525 77.689 99.2525C77.589 99.5525 77.389 99.9525 77.089 100.253C76.789 100.553 76.389 100.653 76.089 100.953C75.789 101.153 75.489 101.353 75.289 101.653C75.289 101.653 75.289 101.753 75.189 101.753C75.089 101.253 74.989 100.753 74.889 100.153C74.789 99.4525 74.589 98.7525 74.489 98.1525C74.489 98.0525 74.489 97.9525 74.489 97.8525C74.589 97.7525 74.689 97.6525 74.789 97.5525C75.189 97.2525 75.489 96.9525 75.789 96.6525C76.089 96.3525 76.389 95.9525 76.589 95.5525C76.789 95.1525 76.889 94.6525 77.289 94.3525C77.589 94.0525 77.989 93.7525 78.189 93.3525C78.489 92.9525 78.689 92.6525 78.889 92.2525C79.289 91.4525 79.489 90.5525 79.689 89.7525C79.489 90.6525 79.289 91.6525 78.789 92.5525C78.589 92.9525 78.289 93.4525 77.889 93.7525C77.589 94.0525 77.189 94.3525 76.989 94.7525C76.789 95.1525 76.589 95.6525 76.289 96.0525C75.989 96.4525 75.689 96.8525 75.189 97.2525C74.989 97.4525 74.689 97.6525 74.489 97.8525C74.489 97.4525 74.389 96.9525 74.289 96.5525C74.389 96.4525 74.389 96.3525 74.489 96.2525C74.789 95.9525 75.089 95.6525 75.389 95.3525C75.689 95.0525 75.989 94.8525 76.289 94.4525C76.489 94.1525 76.589 93.8525 76.589 93.4525C76.589 92.7525 76.389 91.9525 76.389 91.2525C76.389 90.8525 76.489 90.4525 76.589 90.0525C76.689 89.7525 76.889 89.3525 76.789 88.9525C76.589 89.2525 76.489 89.6525 76.389 89.9525C76.289 90.3525 76.189 90.6525 76.089 91.0525C75.989 91.7525 76.089 92.4525 76.089 93.1525C76.089 93.5525 75.989 93.9525 75.789 94.2525C75.489 94.5525 75.189 94.8525 74.889 95.1525C74.689 95.3525 74.389 95.6525 74.189 95.8525C74.089 95.2525 73.989 94.6525 73.889 94.1525C73.389 92.2525 72.689 90.2525 71.589 88.4525V88.3525C71.689 88.1525 71.889 87.9525 72.089 87.6525C72.389 87.2525 72.489 86.9525 72.589 86.4525C72.589 86.0525 72.589 85.6525 72.589 85.1525C72.589 84.6525 72.589 84.2525 72.689 83.7525C72.289 84.5525 72.389 85.4525 72.389 86.3525C72.389 86.6525 72.389 86.8525 72.189 87.1525C72.089 87.3525 71.889 87.5525 71.689 87.7525C71.589 87.8525 71.589 87.9525 71.489 88.0525C71.289 87.7525 71.089 87.3525 70.789 87.0525C70.389 86.4525 69.889 85.8525 69.389 85.3525C69.089 85.0525 68.889 84.7525 68.589 84.5525C68.489 84.4525 68.089 84.1525 67.689 83.8525C67.689 83.6525 67.689 83.4525 67.689 83.3525C67.689 82.9525 67.689 82.6525 67.589 82.2525C67.489 81.8525 67.389 81.4525 67.289 81.1525C66.989 80.3525 66.889 79.9525 66.789 79.5525C66.789 79.5525 66.889 79.5525 66.789 79.5525Z" fill="black"></path><path d="M100.189 74.9525C99.889 75.8525 99.589 76.6525 99.389 77.5525C99.289 77.9525 99.189 78.3525 99.089 78.7525C99.089 78.9525 98.989 79.1525 98.989 79.2525C99.889 78.7525 100.989 78.0525 101.589 77.8525C102.989 77.2525 104.589 76.8525 106.189 76.5525C106.289 76.3525 106.489 76.0525 106.489 75.9525C106.789 75.4525 107.289 74.9525 107.789 74.5525C107.489 74.8525 107.089 75.1525 106.789 75.5525C106.689 75.6525 106.389 76.1525 106.189 76.4525C106.689 76.3525 107.289 76.2525 107.789 76.1525C108.189 76.0525 108.589 76.0525 108.889 76.0525L108.989 75.9525C109.189 75.7525 109.289 75.6525 109.489 75.4525C109.989 75.1525 110.589 74.8525 111.189 74.5525C110.589 74.9525 109.989 75.1525 109.489 75.5525C109.289 75.6525 109.189 75.8525 109.089 75.9525C109.989 75.8525 110.889 75.8525 111.789 75.7525C112.389 75.6525 113.389 75.5525 113.189 75.6525C112.789 75.8525 112.189 75.9525 111.389 76.0525C111.589 76.1525 111.689 76.5525 111.789 76.7525C111.989 77.1525 112.589 77.1525 112.989 77.2525C113.389 77.3525 113.689 77.5525 113.989 77.7525C113.689 77.5525 113.389 77.4525 112.989 77.2525C112.689 77.1525 112.389 77.1525 112.089 77.0525C111.889 76.9525 111.789 76.8525 111.689 76.7525C111.589 76.6525 111.589 76.4525 111.489 76.3525C111.489 76.2525 111.189 75.9525 111.189 76.0525C110.189 76.1525 109.189 76.2525 108.589 76.3525C107.489 76.5525 106.389 76.7525 105.289 76.9525C104.589 77.0525 103.889 77.2525 103.189 77.4525C103.289 77.5525 103.389 77.7525 103.489 77.8525C103.589 78.0525 103.689 78.1525 103.789 78.2525C103.989 78.4525 104.189 78.4525 104.489 78.4525C104.889 78.4525 105.089 78.5525 105.389 78.8525C105.689 79.1525 106.289 79.5525 106.689 79.1525C106.489 79.4525 106.089 79.4525 105.789 79.2525C105.289 79.0525 105.089 78.6525 104.489 78.5525C104.089 78.5525 103.689 78.5525 103.489 78.1525C103.289 77.8525 103.189 77.6525 102.989 77.3525C102.689 77.4525 102.489 77.5525 102.289 77.6525C101.389 78.0525 100.489 78.4525 99.689 78.9525C99.489 79.0525 98.489 79.9525 98.289 80.2525C97.989 80.4525 97.789 80.6525 97.489 80.9525C97.189 81.2525 96.889 81.5525 96.589 81.7525C96.789 81.8525 96.889 81.9525 96.989 82.0525C97.289 82.2525 97.489 82.2525 97.889 82.1525C98.289 82.0525 98.689 81.8525 99.189 81.9525C99.689 82.0525 100.389 82.5525 100.789 82.0525C100.589 82.3525 100.189 82.3525 99.789 82.2525C99.489 82.1525 99.189 82.0525 98.789 82.1525C98.489 82.1525 98.189 82.2525 97.989 82.3525C97.489 82.4525 97.189 82.4525 96.789 82.1525C96.689 82.0525 96.489 81.9525 96.389 81.9525C96.189 82.1525 96.089 82.2525 95.889 82.4525C94.889 83.4525 94.089 84.5525 93.389 85.7525C93.289 85.8525 92.289 88.5525 91.989 89.0525C91.989 89.0525 91.989 89.0525 92.089 89.0525C92.289 88.8525 92.489 88.7525 92.689 88.5525C93.289 88.2525 93.989 88.4525 94.689 88.4525C94.889 88.4525 95.189 88.4525 95.389 88.3525C95.689 87.2525 97.389 87.2525 98.389 87.1525C98.889 87.1525 99.289 87.0525 99.689 86.9525C100.089 86.8525 100.389 86.7525 100.789 86.6525C101.189 86.5525 101.589 86.6525 102.089 86.5525C102.589 86.4525 102.989 86.2525 103.389 85.9525C102.889 86.4525 102.289 86.6525 101.589 86.6525C101.089 86.6525 100.689 86.7525 100.289 86.8525C99.989 86.9525 99.589 87.0525 99.289 87.1525C98.089 87.3525 96.089 87.0525 95.489 88.3525C95.989 88.2525 96.489 88.0525 96.989 88.0525C97.689 87.9525 98.489 87.9525 99.189 88.1525V88.2525C98.389 88.2525 97.589 88.2525 96.789 88.4525C96.089 88.5525 95.389 88.8525 94.589 88.8525C94.189 88.8525 93.889 88.7525 93.489 88.7525C93.089 88.7525 92.789 88.8525 92.489 89.1525C92.289 89.2525 92.089 89.4525 91.789 89.6525C91.789 89.7525 91.689 89.8525 91.689 89.9525C91.389 90.6525 91.189 91.3525 90.889 91.9525C90.689 92.4525 90.589 92.9525 90.389 93.3525C90.489 93.2525 90.689 93.1525 90.789 93.0525C91.189 92.8525 91.589 92.7525 91.989 92.7525C92.989 92.6525 93.989 92.9525 94.889 92.9525C95.489 92.9525 95.989 92.7525 96.589 92.5525C96.989 92.3525 97.489 92.3525 97.989 92.2525C98.489 92.2525 98.989 92.2525 99.389 92.2525C99.989 92.2525 100.589 92.1525 101.189 91.9525C100.389 92.3525 99.289 92.2525 98.389 92.3525C97.789 92.3525 97.189 92.4525 96.689 92.5525C96.289 92.6525 95.789 92.8525 95.389 92.9525C94.389 93.1525 93.389 92.8525 92.389 92.8525C91.889 92.8525 91.389 92.8525 90.989 93.0525C90.789 93.1525 90.589 93.2525 90.389 93.3525C90.289 93.4525 90.189 93.5525 90.089 93.5525C90.089 93.6525 89.989 93.7525 89.989 93.7525C89.789 94.4525 89.589 95.1525 89.389 95.7525C89.289 96.0525 89.189 96.4525 89.089 96.7525C89.789 96.4525 90.489 96.2525 91.289 96.4525C92.089 96.6525 92.789 97.0525 93.589 97.0525C94.389 97.0525 95.189 96.7525 96.089 96.7525C96.189 96.7525 96.289 96.7525 96.389 96.7525C96.689 96.5525 96.989 96.4525 97.389 96.4525C97.889 96.4525 98.289 96.6525 98.789 96.7525C99.389 96.8525 100.089 96.6525 100.589 96.5525C101.189 96.4525 101.889 96.3525 102.489 96.2525C101.889 96.3525 101.289 96.4525 100.689 96.5525C100.189 96.6525 99.689 96.7525 99.089 96.7525C98.889 96.7525 98.689 96.7525 98.489 96.6525C98.189 96.5525 97.989 96.4525 97.689 96.3525C97.289 96.2525 96.889 96.4525 96.589 96.6525C97.289 96.7525 97.889 96.9525 98.589 97.1525C97.789 97.0525 96.989 96.8525 96.089 96.8525C95.289 96.8525 94.489 97.1525 93.689 97.1525C92.889 97.1525 92.289 96.8525 91.589 96.5525C90.689 96.2525 89.889 96.5525 89.089 96.7525H88.989C88.589 97.9525 88.289 99.2525 87.989 100.452C88.189 100.352 88.389 100.352 88.589 100.352C88.989 100.252 89.289 100.252 89.689 100.352C90.089 100.452 90.489 100.652 90.789 100.852C91.189 101.152 91.589 101.252 92.089 101.352C92.289 101.352 92.489 101.452 92.589 101.452C93.089 101.252 93.489 100.952 93.989 100.752C94.689 100.552 95.389 100.452 96.089 100.352C96.889 100.252 97.589 100.052 98.289 99.7525C98.989 99.4525 99.589 99.1525 100.289 98.7525C99.189 99.5525 97.689 100.052 96.289 100.352C95.489 100.452 94.689 100.552 93.989 100.852C93.589 100.952 93.289 101.152 92.989 101.352C92.889 101.352 92.889 101.452 92.789 101.452C93.489 101.552 94.289 101.652 94.989 101.652C95.489 101.652 96.089 101.652 96.589 101.652C97.089 101.552 97.589 101.452 98.089 101.352C97.689 101.552 97.189 101.652 96.789 101.752C96.289 101.852 95.889 101.852 95.389 101.852C94.389 101.852 93.389 101.852 92.389 101.752C91.989 101.752 91.589 101.652 91.189 101.452C90.789 101.252 90.489 100.952 90.089 100.852C89.689 100.652 89.189 100.652 88.789 100.752C88.589 100.752 88.389 100.852 88.189 100.852C88.089 100.852 88.089 100.852 87.989 100.852C87.789 101.852 87.589 102.752 87.389 103.752C87.589 103.752 87.789 103.752 87.989 103.852C88.589 103.952 89.089 104.352 89.589 104.752C90.089 105.152 90.589 105.652 91.089 106.052C91.689 106.452 92.289 106.652 92.989 106.652C92.989 106.652 92.989 106.652 92.989 106.752C91.789 106.952 90.689 106.052 89.689 105.452C89.189 105.052 88.589 104.452 87.889 104.352C87.689 104.252 87.389 104.252 87.189 104.252C86.689 106.552 86.289 108.952 85.789 111.252C85.289 113.652 84.689 116.052 83.789 118.352C83.289 119.652 82.689 120.852 81.989 122.052C81.689 122.652 81.289 123.252 80.889 123.752C80.689 124.052 80.489 124.252 80.189 124.552C79.889 124.852 79.689 125.052 79.389 125.352C79.189 125.652 78.689 125.252 78.889 124.952C79.289 124.452 79.489 123.852 79.789 123.352C80.089 122.852 80.389 122.252 80.689 121.752C81.289 120.652 81.789 119.652 82.189 118.452C83.089 116.152 83.689 113.852 84.289 111.452C84.789 109.452 85.189 107.352 85.589 105.352C85.589 105.052 85.489 104.752 85.289 104.452C84.989 104.152 84.589 104.052 84.189 103.852C83.789 103.752 83.489 103.452 83.189 103.252C83.089 103.152 82.989 103.152 82.989 103.052C82.889 102.952 82.689 102.952 82.589 102.952C82.489 102.952 82.389 102.852 82.189 102.852C81.589 102.652 81.289 102.052 80.689 101.852C80.689 101.852 80.689 101.752 80.689 101.852C80.989 101.952 81.189 102.052 81.389 102.152C81.589 102.352 81.989 102.752 82.289 102.752C82.489 102.752 82.589 102.652 82.789 102.652C82.989 102.652 83.089 102.852 83.289 102.952C83.689 103.252 83.989 103.552 84.489 103.752C84.889 103.852 85.189 104.052 85.489 104.252C85.689 104.352 85.789 104.552 85.889 104.752C85.889 104.652 85.989 104.452 85.989 104.352C86.189 103.352 86.489 102.352 86.689 101.352C86.689 101.252 86.589 101.252 86.589 101.152C86.289 100.852 85.989 100.552 85.589 100.252C84.989 99.7525 84.289 99.0525 84.289 98.3525C84.389 98.8525 84.689 99.1525 85.089 99.5525C85.389 99.8525 85.689 100.152 86.089 100.452C86.389 100.652 86.589 100.852 86.889 101.152C86.989 100.952 86.989 100.752 87.089 100.552C87.289 99.9525 87.489 99.3525 87.689 98.7525C87.589 98.5525 87.489 98.2525 87.389 98.0525C87.189 97.6525 86.889 97.3525 86.589 97.0525C85.889 96.4525 85.589 95.6525 85.489 94.8525C85.389 94.2525 85.289 93.6525 85.289 93.0525C85.089 92.7525 84.889 92.5525 84.689 92.2525C84.389 91.8525 83.989 91.6525 83.689 91.3525C83.189 90.7525 82.989 90.0525 82.389 89.4525C82.989 89.9525 83.189 90.7525 83.689 91.2525C83.989 91.5525 84.389 91.7525 84.689 92.1525C84.889 92.3525 85.089 92.6525 85.189 92.8525C85.189 92.5525 85.189 92.3525 85.089 92.0525C85.089 91.5525 84.989 91.1525 84.989 90.6525C84.889 90.1525 84.889 89.6525 84.889 89.1525C84.989 89.5525 85.089 90.0525 85.189 90.4525C85.289 90.9525 85.389 91.4525 85.389 91.9525C85.489 92.8525 85.589 93.7525 85.789 94.6525C85.889 95.0525 85.989 95.5525 86.189 95.9525C86.389 96.3525 86.789 96.6525 87.089 96.9525C87.389 97.2525 87.589 97.5525 87.689 97.9525V98.0525C87.889 97.4525 88.089 96.8525 88.289 96.3525C88.489 95.5525 88.789 94.8525 89.089 94.1525C89.089 94.0525 89.189 93.9525 89.189 93.7525C89.089 93.6525 88.989 93.5525 88.989 93.3525C88.689 92.9525 88.389 92.5525 88.189 92.0525C87.989 91.5525 87.789 91.0525 87.589 90.5525C87.489 90.0525 87.389 89.4525 87.189 88.9525C86.989 88.4525 86.689 88.0525 86.489 87.6525C86.289 87.1525 86.089 86.6525 85.989 86.1525C85.789 85.1525 85.689 84.0525 85.689 83.0525C85.789 84.1525 85.789 85.3525 85.989 86.4525C86.089 87.0525 86.389 87.5525 86.689 88.0525C86.989 88.5525 87.289 88.9525 87.389 89.4525C87.489 89.9525 87.589 90.5525 87.789 91.0525C87.989 91.6525 88.289 92.1525 88.589 92.6525C88.789 92.8525 88.989 93.1525 89.189 93.4525C89.289 92.9525 89.489 92.4525 89.589 91.9525C89.589 91.8525 89.489 91.6525 89.489 91.5525C89.289 91.1525 88.989 90.6525 88.789 90.2525C88.489 89.8525 88.289 89.4525 88.089 89.0525C87.989 88.6525 87.989 88.2525 87.989 87.8525C88.089 86.9525 88.489 86.2525 88.589 85.3525C88.589 84.8525 88.689 84.4525 88.689 83.9525C88.689 83.5525 88.589 83.0525 88.689 82.6525C88.889 83.0525 88.789 83.5525 88.889 83.9525C88.889 84.3525 88.989 84.8525 88.889 85.2525C88.889 86.1525 88.589 86.8525 88.489 87.7525C88.389 88.1525 88.389 88.6525 88.589 89.0525C88.789 89.4525 89.089 89.8525 89.289 90.2525C89.489 90.5525 89.689 90.8525 89.789 91.2525C89.989 90.6525 90.189 89.9525 90.489 89.3525C91.289 87.2525 92.389 85.1525 93.789 83.3525V83.2525C93.789 82.9525 93.589 82.6525 93.489 82.3525C93.189 81.8525 93.189 81.3525 93.289 80.8525C93.289 80.3525 93.489 79.8525 93.589 79.4525C93.689 78.9525 93.789 78.3525 93.789 77.8525C93.989 78.8525 93.689 79.9525 93.589 80.8525C93.589 81.1525 93.489 81.4525 93.589 81.7525C93.689 82.0525 93.789 82.2525 93.989 82.5525C94.089 82.6525 94.089 82.8525 94.089 82.9525C94.389 82.6525 94.589 82.2525 94.889 81.9525C95.389 81.3525 95.989 80.7525 96.589 80.2525C96.889 79.9525 97.189 79.6525 97.589 79.4525C97.689 79.3525 98.089 79.1525 98.589 78.8525C98.589 78.6525 98.689 78.4525 98.689 78.2525C98.789 77.8525 98.889 77.4525 98.989 77.0525C99.189 76.6525 99.289 76.2525 99.489 75.7525C99.889 75.9525 99.989 75.4525 100.189 74.9525Z" fill="black"></path><path d="M55.189 96.4526C54.989 94.6526 52.389 94.3526 50.689 93.6526C48.489 92.8526 46.889 91.1526 46.889 89.2526C46.889 88.2526 47.189 87.3526 47.889 86.5526C48.489 85.7526 49.389 85.2526 50.289 84.6526C50.889 84.2526 51.389 83.6526 50.989 83.0526C50.789 82.5526 48.789 81.5526 49.689 81.0526C49.889 80.9526 49.789 80.7526 49.589 80.6526C46.989 79.8526 43.889 80.4526 41.589 78.8526C39.289 77.2526 39.189 74.4526 41.089 72.6526C42.889 70.9526 45.689 69.7526 48.389 69.4526C49.789 69.3526 51.189 69.4526 52.489 69.8526C53.589 70.1526 54.589 71.0526 55.789 71.1526C56.889 71.2526 57.289 70.5526 57.689 69.9526C57.989 69.4526 58.489 68.9526 59.189 68.8526C60.289 68.7526 60.289 69.5526 60.589 70.0526C60.889 70.6526 61.589 71.2526 62.389 71.4526C63.589 71.7526 64.389 71.2526 65.389 71.0526C66.489 70.8526 66.889 71.4526 67.289 72.0526C67.589 72.5526 67.889 73.1526 68.189 73.6526C68.589 74.4526 69.089 75.3526 69.989 75.9526C70.789 76.4526 71.689 76.5526 72.689 76.3526C73.789 76.1526 75.189 75.3526 76.189 76.2526C77.189 77.0526 76.589 78.4526 76.489 79.4526C76.489 79.9526 76.489 80.4526 76.689 80.9526C76.989 81.5526 77.689 82.0526 77.689 82.6526C77.689 83.2526 77.389 83.8526 77.589 84.5526C77.689 84.9526 77.889 85.3526 78.089 85.6526C78.689 86.4526 79.589 86.9526 80.689 87.1526C80.989 87.1526 81.189 86.7526 80.789 86.7526C79.289 86.5526 78.089 85.6526 77.989 84.3526C77.989 83.8526 78.189 83.2526 78.189 82.7526C78.189 82.2526 77.989 81.8526 77.689 81.3526C77.289 80.7526 77.089 80.2526 77.089 79.5526C77.189 78.9526 77.289 78.3526 77.389 77.7526C77.389 77.0526 77.289 76.1526 76.489 75.6526C75.689 75.0526 74.589 75.1526 73.589 75.4526C72.289 75.8526 71.089 76.1526 69.989 75.1526C68.989 74.2526 68.489 73.0526 67.889 71.9526C67.489 71.2526 66.889 70.4526 65.689 70.5526C65.089 70.6526 64.589 70.8526 63.989 71.0526C63.189 71.2526 62.389 71.1526 61.689 70.6526C60.789 70.0526 61.089 68.9526 60.089 68.4526C59.189 68.0526 58.189 68.4526 57.589 68.9526C57.189 69.2526 57.089 69.6526 56.789 70.0526C56.189 70.9526 55.189 70.4526 54.389 70.0526C49.789 67.7526 43.389 69.1526 40.289 72.6526C38.689 74.4526 38.889 77.0526 40.789 78.6526C41.689 79.4526 42.989 79.9526 44.289 80.1526C45.989 80.4526 47.689 80.4526 49.289 80.9526C49.289 80.8526 49.289 80.6526 49.189 80.5526C48.589 80.8526 48.689 81.5526 49.089 81.9526C49.389 82.3526 49.989 82.5526 50.189 82.8526C50.589 83.4526 49.989 83.8526 49.489 84.2526C48.589 84.8526 47.789 85.3526 47.189 86.0526C46.689 86.7526 46.289 87.5526 46.189 88.3526C45.989 90.0526 46.889 91.7526 48.389 92.8526C49.289 93.4526 50.289 93.7526 51.389 94.0526C52.789 94.3526 54.489 94.9526 54.689 96.2526C54.989 96.6526 55.189 96.6526 55.189 96.4526Z" fill="#1D1D1B"></path><path d="M85.489 110.752C85.289 109.752 84.989 108.852 84.289 107.952C83.589 107.052 82.589 106.452 81.689 105.752C80.689 105.052 79.689 104.252 79.489 103.252C79.289 102.352 79.689 101.252 80.989 100.952C81.189 100.952 81.189 100.752 80.989 100.652C80.489 100.352 80.089 99.9524 79.989 99.4524C79.889 99.5524 79.889 99.5524 79.789 99.6524C81.489 99.6524 82.189 98.1524 81.189 97.1524C80.389 96.3524 79.689 95.8524 79.489 94.8524C79.189 93.8524 79.489 92.8524 80.089 92.0524C80.189 91.9524 80.089 91.8524 79.989 91.7524C78.489 90.9524 78.689 89.3524 79.489 88.3524C80.389 87.1524 81.889 86.2524 83.089 85.2524C84.389 84.2524 85.689 83.3524 86.889 82.3524C87.889 81.5524 88.589 80.5524 88.789 79.4524C88.989 78.1524 88.489 76.7524 89.089 75.4524C89.289 74.9524 89.689 74.3524 90.289 74.1524C91.089 73.8524 91.989 74.1524 92.789 73.8524C93.889 73.4524 94.289 72.4524 94.589 71.6524C95.189 70.4524 95.989 69.3524 97.089 68.4524C98.289 67.3524 99.889 66.3524 101.589 65.8524C102.589 65.5524 103.789 65.4524 104.589 66.1524C105.189 66.6524 105.489 67.4524 104.989 68.0524C104.889 68.1524 104.989 68.3524 105.089 68.3524C105.589 68.6524 106.089 68.3524 106.489 68.0524C107.089 67.5524 107.289 66.8524 107.989 66.3524C109.489 65.2524 111.789 64.8524 113.689 64.7524C115.789 64.6524 118.089 65.2524 119.189 66.8524C120.489 68.6524 118.989 70.6524 117.889 72.1524C117.789 72.2524 117.889 72.4524 118.089 72.5524C118.889 72.7524 119.389 73.1524 119.789 73.7524C120.089 74.2524 120.489 74.4524 121.089 74.7524C122.389 75.3524 123.389 76.0524 124.089 77.0524C125.489 79.1524 124.689 81.7524 121.989 82.8524C120.689 83.3524 119.489 83.1524 118.189 83.2524C117.289 83.3524 116.589 83.8524 116.489 84.6524C116.389 85.4524 116.889 86.1524 116.989 86.9524C116.989 87.4524 116.789 87.9524 116.089 88.0524C115.389 88.1524 114.789 88.0524 114.089 88.2524C113.689 88.3524 113.389 88.5524 113.189 88.8524C112.989 89.2524 113.389 89.6524 113.289 90.0524C113.089 90.5524 112.189 90.8524 111.589 91.0524C110.989 91.2524 110.389 91.4524 109.889 91.6524C108.889 92.1524 107.889 92.8524 107.389 93.6524C106.889 94.5524 106.989 95.3524 107.289 96.2524C107.389 96.6524 107.489 97.0524 107.189 97.4524C107.089 97.6524 106.889 97.7524 106.789 97.9524C106.489 98.4524 106.789 99.0524 106.789 99.6524C106.889 100.952 106.589 102.252 105.789 103.352C105.089 104.352 104.089 105.252 102.789 105.752C102.089 106.052 101.389 106.152 100.589 106.252C100.089 106.252 99.589 106.352 99.289 106.752C98.889 107.152 98.989 107.752 98.889 108.152C98.689 108.852 98.189 109.452 97.389 109.752C95.789 110.552 93.889 110.552 92.089 110.352C89.289 110.152 85.289 110.052 84.389 112.752C84.289 112.952 84.689 113.052 84.789 112.852C86.189 109.852 91.289 111.052 94.189 111.052C96.689 110.952 99.389 109.952 99.589 107.752C99.589 107.352 99.589 107.052 100.089 106.852C100.489 106.752 100.789 106.752 101.289 106.652C101.889 106.552 102.589 106.452 103.089 106.152C104.289 105.652 105.289 104.952 105.989 104.052C106.789 103.052 107.189 101.952 107.389 100.852C107.489 100.252 107.489 99.7524 107.389 99.1524C107.389 98.7524 107.289 98.4524 107.389 98.1524C107.489 97.8524 107.789 97.6524 107.889 97.3524C108.389 96.3524 107.289 95.2524 107.689 94.1524C108.089 93.0524 109.389 92.2524 110.689 91.7524C111.689 91.3524 113.089 91.1524 113.589 90.2524C113.789 89.8524 113.689 89.6524 113.589 89.2524C113.489 88.2524 114.889 88.4524 115.789 88.2524C118.189 87.9524 116.989 85.9524 116.989 84.7524C116.989 83.2524 118.889 83.6524 120.189 83.5524C121.389 83.4524 122.489 83.0524 123.389 82.4524C125.589 80.9524 125.889 78.4524 124.489 76.4524C123.789 75.4524 122.689 74.6524 121.489 74.1524C121.089 73.9524 120.689 73.8524 120.389 73.4524C120.189 73.1524 119.989 72.8524 119.789 72.6524C119.389 72.2524 118.789 71.9524 118.189 71.7524L118.389 72.1524C119.489 70.6524 120.789 68.8524 120.089 67.0524C119.489 65.6524 117.889 64.6524 116.189 64.2524C114.089 63.7524 111.689 64.0524 109.689 64.6524C108.889 64.9524 108.089 65.2524 107.389 65.7524C107.089 65.9524 106.689 66.2524 106.489 66.6524C106.289 66.9524 105.789 67.9524 105.289 67.7524C105.289 67.8524 105.389 67.9524 105.389 68.0524C106.189 67.2524 105.689 66.0524 104.689 65.4524C103.389 64.6524 101.489 65.0524 100.089 65.6524C96.989 66.9524 94.889 69.2524 93.689 71.7524C93.289 72.5524 92.889 73.3524 91.689 73.3524C90.789 73.3524 90.089 73.2524 89.389 73.6524C88.289 74.2524 87.789 75.4524 87.689 76.5524C87.589 77.3524 87.789 78.2524 87.689 79.0524C87.589 79.9524 87.089 80.7524 86.389 81.4524C84.989 82.7524 83.389 83.9524 81.889 85.1524C80.489 86.2524 78.889 87.3524 78.289 88.8524C77.789 89.9524 78.189 91.3524 79.489 92.0524C79.489 91.9524 79.389 91.8524 79.389 91.7524C78.489 92.9524 78.389 94.3524 78.989 95.5524C79.289 96.1524 79.789 96.6524 80.289 97.1524C80.689 97.5524 81.089 97.9524 80.989 98.4524C80.789 98.9524 80.189 99.3524 79.589 99.3524C79.489 99.3524 79.389 99.4524 79.389 99.5524C79.489 100.152 79.889 100.552 80.589 100.852C80.589 100.752 80.589 100.652 80.589 100.552C78.389 100.952 78.489 103.352 79.589 104.552C80.389 105.452 81.589 106.152 82.589 106.852C83.889 107.852 84.689 109.152 84.989 110.652C85.289 110.952 85.489 110.952 85.489 110.752Z" fill="#1D1D1B"></path><path d="M80.4889 125.852C84.6889 125.452 86.9889 122.052 88.9889 119.552C90.1889 118.052 91.2889 116.452 92.2889 114.852C93.1889 113.352 93.9889 111.852 95.5889 110.652C95.6889 110.552 95.5889 110.452 95.3889 110.452C93.8889 111.252 93.1889 112.452 92.3889 113.752C91.4889 115.252 90.4889 116.852 89.3889 118.252C88.3889 119.652 87.2889 121.152 85.9889 122.452C84.5889 123.952 82.7889 125.352 80.3889 125.552C80.2889 125.552 80.2889 125.852 80.4889 125.852Z" fill="#1D1D1B"></path><path d="M106.589 103.852C108.289 102.552 110.189 101.252 112.289 100.352C113.389 99.8525 114.489 99.5525 115.689 99.3525C116.789 99.2525 117.889 99.1525 118.889 98.7525C118.989 98.7525 118.889 98.5525 118.789 98.5525C117.589 98.8525 116.289 98.8525 114.989 99.0525C113.889 99.2525 112.889 99.5525 111.889 100.052C109.789 100.952 107.889 102.152 106.289 103.552C106.189 103.752 106.389 103.952 106.589 103.852Z" fill="#1D1D1B"></path><path d="M85.6889 122.853C85.6889 120.653 86.1889 118.453 87.0889 116.253C87.8889 114.253 88.9889 112.053 91.1889 110.853C91.2889 110.753 91.1889 110.653 91.0889 110.653C89.9889 110.853 89.2889 111.753 88.6889 112.453C87.9889 113.453 87.3889 114.553 86.8889 115.653C85.8889 117.953 85.3889 120.353 85.3889 122.853C85.3889 122.953 85.6889 122.953 85.6889 122.853Z" fill="#1D1D1B"></path><path d="M108.989 97.1524C114.289 94.8524 120.489 96.2524 126.189 95.8524C126.089 95.7524 125.989 95.6524 125.989 95.6524C125.289 98.4524 124.189 101.152 122.289 103.652C120.389 106.152 117.889 108.152 114.689 109.552C113.189 110.152 111.589 110.852 110.489 111.852C109.289 112.952 108.689 114.352 107.889 115.652C106.089 118.352 103.389 120.752 99.8889 122.152C97.7889 122.952 95.4889 123.452 93.1889 123.352C90.8889 123.352 88.4889 122.652 86.1889 123.152C85.8889 123.252 85.989 123.552 86.289 123.552C88.589 123.252 90.8889 123.852 93.1889 123.852C95.0889 123.852 97.0889 123.552 98.8889 123.052C102.389 121.952 105.189 119.852 107.289 117.352C108.389 116.052 109.089 114.652 109.989 113.252C110.989 111.752 112.589 110.952 114.389 110.152C117.489 108.752 120.189 107.152 122.189 104.752C124.489 102.052 125.889 98.9524 126.489 95.7524C126.489 95.6524 126.389 95.4524 126.289 95.5524C120.489 96.1524 114.289 94.4524 108.889 96.9524C108.489 96.9524 108.789 97.2524 108.989 97.1524Z" fill="#1D1D1B"></path><path d="M40.989 99.1524C38.989 100.152 38.589 102.052 38.389 103.752C38.089 105.952 37.689 108.352 38.389 110.552C38.589 111.052 38.889 111.752 39.689 111.852C40.489 111.952 41.289 111.352 41.789 110.852C42.589 110.052 43.089 109.152 43.689 108.352C44.389 107.452 45.089 106.552 45.889 105.752C47.489 103.952 49.389 102.152 51.289 100.552C52.189 99.7524 53.189 98.9524 54.289 98.3524C55.489 97.7524 56.989 97.6524 58.389 97.8524C63.389 98.6524 66.689 102.452 68.889 105.752C70.289 107.952 71.789 110.352 71.789 112.852C71.789 115.352 70.289 117.652 69.789 120.152C69.789 120.352 70.089 120.452 70.189 120.252C70.789 118.152 71.889 116.252 72.289 114.152C72.689 112.152 72.089 110.252 71.089 108.352C69.289 105.052 66.989 101.552 63.289 99.3524C61.489 98.2524 59.289 97.4524 56.989 97.4524C54.489 97.4524 52.889 98.8524 51.189 100.152C47.589 103.152 44.589 106.452 41.889 109.952C41.489 110.452 41.089 110.952 40.389 111.252C39.389 111.752 38.789 110.952 38.589 110.352C38.189 109.052 38.189 107.652 38.289 106.352C38.389 105.052 38.489 103.652 38.789 102.352C39.089 101.152 39.689 99.9524 40.989 99.2524C41.389 99.2524 41.189 99.0524 40.989 99.1524Z" fill="#1D1D1B"></path><path d="M53.0889 100.052C55.1889 101.752 57.0889 103.452 58.7889 105.452C60.3889 107.252 61.7889 109.252 63.0889 111.152C65.4889 114.852 67.4889 118.952 71.2889 121.852C73.3889 123.452 75.9889 124.752 78.6889 125.552C78.7889 125.552 78.7889 125.452 78.7889 125.452C76.4889 124.252 73.9889 123.452 71.9889 121.952C69.9889 120.552 68.4889 118.752 67.1889 116.852C64.5889 113.052 62.4889 109.052 59.3889 105.452C57.5889 103.452 55.5889 101.552 53.3889 99.8524C53.1889 99.7524 52.8889 99.9524 53.0889 100.052Z" fill="#1D1D1B"></path><path d="M53.089 99.8525C53.289 100.053 53.389 100.153 53.589 100.353C53.489 100.153 53.289 100.053 53.089 99.8525Z" fill="#1D1D1B"></path><path d="M53.1889 100.153C53.5889 100.453 53.8889 100.653 54.2889 100.953L54.3889 100.853C53.6889 100.353 53.0889 99.8526 52.3889 99.3526L52.2889 99.4526C53.0889 99.9526 53.7889 100.453 54.3889 101.053L54.4889 100.953C53.7889 100.353 53.0889 99.7526 52.2889 99.1526C52.1889 99.2526 52.1889 99.2526 52.0889 99.3526C52.4889 99.6526 52.8889 99.9526 53.2889 100.253C53.5889 100.553 53.8889 100.953 54.2889 101.153H54.3889C54.2889 100.753 53.8889 100.453 53.4889 100.153C53.0889 99.8526 52.6889 99.4526 52.1889 99.2526C52.0889 99.1526 51.8889 99.3526 51.9889 99.4526C52.7889 99.9526 53.4889 100.553 54.1889 101.153C54.2889 101.253 54.3889 101.153 54.2889 101.053C53.6889 100.453 52.9889 99.8526 52.1889 99.4526C52.0889 99.3526 51.9889 99.4526 52.0889 99.5526C52.6889 100.053 53.3889 100.553 54.0889 101.053C54.1889 101.153 54.2889 101.053 54.1889 100.953C53.7889 100.653 53.3889 100.453 53.0889 100.153C53.2889 99.9526 53.0889 100.053 53.1889 100.153Z" fill="#1D1D1B"></path><path d="M39.989 100.653C41.489 97.8526 46.589 98.5526 49.589 98.1526C53.089 97.7526 56.889 96.3526 60.089 98.3526C60.089 98.3526 60.189 98.3526 60.089 98.3526C57.689 95.7526 52.689 97.5526 49.589 97.9526C46.389 98.3526 41.189 97.6526 39.589 100.653C39.689 100.753 39.889 100.753 39.989 100.653Z" fill="#1D1D1B"></path><path d="M46.589 105.952C46.789 106.452 47.089 106.952 47.489 107.452C47.589 107.352 47.689 107.352 47.789 107.252C47.089 106.652 46.689 106.052 46.589 105.252C46.489 105.252 46.389 105.352 46.189 105.352C48.489 109.352 52.289 112.352 56.389 115.152C58.489 116.652 60.689 118.152 63.189 119.252C65.389 120.252 68.289 121.052 70.789 120.352V120.252C69.289 120.252 67.889 120.352 66.389 120.052C65.089 119.752 63.889 119.252 62.689 118.652C60.289 117.452 58.189 116.052 56.189 114.552C52.389 111.852 48.689 108.852 46.589 105.152C46.489 104.952 46.189 105.152 46.189 105.252C46.389 106.052 46.789 106.752 47.489 107.352C47.689 107.452 47.889 107.352 47.789 107.152C47.489 106.752 47.189 106.252 46.989 105.752C46.889 105.752 46.489 105.852 46.589 105.952Z" fill="#1D1D1B"></path><path d="M80.1889 125.952C80.6889 126.152 81.0889 126.252 81.5889 126.452C81.5889 126.352 81.5889 126.252 81.6889 126.152C80.8889 126.152 80.0889 126.052 79.3889 125.752C79.3889 125.852 79.2889 125.952 79.2889 126.052C82.2889 125.952 85.2889 126.252 88.1889 126.452C89.5889 126.552 91.1889 126.552 92.5889 126.752C93.8889 126.952 95.0889 127.452 96.1889 128.052C98.0889 129.152 99.5889 130.752 100.389 132.552C100.789 133.552 100.989 134.552 101.189 135.552C101.389 136.752 101.689 137.952 101.989 139.152C101.989 139.252 102.189 139.252 102.189 139.152C102.089 137.852 101.889 136.552 101.689 135.252C101.489 134.252 101.289 133.152 100.889 132.252C100.089 130.552 98.6889 128.952 96.8889 127.852C95.8889 127.252 94.6889 126.752 93.4889 126.452C92.0889 126.152 90.5889 126.152 89.1889 126.052C85.9889 125.852 82.7889 125.652 79.5889 125.752C79.3889 125.752 79.2889 125.952 79.4889 126.052C80.2889 126.352 81.0889 126.452 81.9889 126.452C82.1889 126.452 82.2889 126.252 82.0889 126.152C81.5889 125.952 81.1889 125.852 80.6889 125.652C80.0889 125.552 79.8889 125.852 80.1889 125.952Z" fill="#1D1D1B"></path><path d="M83.189 126.152C85.489 126.652 86.889 128.252 88.389 129.652C89.089 130.252 89.889 130.852 90.789 131.352C91.789 131.852 92.989 132.152 94.089 132.552C97.989 133.952 100.989 136.452 102.189 139.652C102.189 139.752 102.289 139.652 102.289 139.652C101.889 136.352 98.389 133.752 94.789 132.352C93.689 131.952 92.489 131.652 91.389 131.152C90.189 130.652 89.289 129.952 88.389 129.252C86.889 127.952 85.389 126.452 83.089 125.952C83.089 125.952 82.989 126.152 83.189 126.152Z" fill="#1D1D1B"></path><path d="M78.789 126.253C79.089 126.253 79.089 125.853 78.789 125.853C78.489 125.853 78.489 126.253 78.789 126.253Z" fill="#1D1D1B"></path><path d="M79.8889 125.852C80.1889 125.852 80.1889 125.452 79.8889 125.452C79.5889 125.452 79.5889 125.852 79.8889 125.852Z" fill="#1D1D1B"></path><path d="M78.689 126.253C78.989 126.253 78.989 125.853 78.689 125.853C78.389 125.953 78.389 126.253 78.689 126.253Z" fill="#1D1D1B"></path><path d="M78.789 126.053C78.889 125.953 78.889 125.853 78.789 125.853H78.689C78.689 125.853 78.589 125.853 78.589 125.953L78.489 126.053V126.153H78.589C78.789 126.053 78.789 126.053 78.789 126.053Z" fill="#1D1D1B"></path><path d="M78.589 126.053C78.889 126.053 78.889 125.653 78.589 125.653C78.289 125.653 78.289 126.053 78.589 126.053Z" fill="#1D1D1B"></path><path d="M81.589 126.352C80.889 126.052 79.989 125.752 79.089 125.852C78.889 125.852 78.689 125.852 78.489 126.052C78.389 126.152 78.389 126.252 78.289 126.352C77.989 126.552 77.489 126.552 77.089 126.552C77.089 126.552 76.989 126.552 76.989 126.652C77.189 127.052 77.889 127.052 78.189 126.852C78.589 126.652 78.589 126.252 79.089 126.252C79.689 126.152 80.689 126.552 81.289 126.752C81.589 126.652 81.789 126.452 81.589 126.352Z" fill="#1D1D1B"></path><path d="M75.7889 115.152C75.1889 113.352 77.2889 111.552 78.6889 110.352C80.0889 109.152 81.7889 108.252 83.6889 107.552C83.8889 107.452 83.6889 107.252 83.4889 107.352C81.3889 108.152 79.3889 109.252 77.8889 110.652C76.5889 111.852 74.8889 113.552 75.4889 115.252C75.5889 115.352 75.8889 115.352 75.7889 115.152Z" fill="#1D1D1B"></path><path d="M75.5889 115.752C75.2889 115.152 74.8889 114.552 74.3889 114.052C73.9889 113.552 73.2889 112.952 72.5889 112.752C72.4889 112.752 72.3889 112.852 72.4889 112.852C72.7889 113.252 73.4889 113.652 73.8889 114.052C74.4889 114.552 74.8889 115.252 75.1889 115.852C75.2889 116.052 75.6889 115.952 75.5889 115.752Z" fill="#1D1D1B"></path><path d="M78.089 143.952C78.389 144.952 78.689 145.952 78.689 147.052C78.689 145.952 78.489 144.952 78.189 143.952C78.189 143.852 78.089 143.852 78.089 143.952Z" fill="#1D1D1B"></path><path d="M79.0889 142.653C78.7889 143.453 79.0889 144.253 79.0889 145.153C79.0889 145.953 78.3889 146.753 78.5889 147.553H78.6889C78.7889 146.753 79.2889 146.053 79.3889 145.253C79.4889 144.353 79.0889 143.553 79.3889 142.653C79.3889 142.553 79.1889 142.453 79.0889 142.653Z" fill="#1D1D1B"></path><path d="M76.889 142.952C77.189 143.652 77.489 144.452 77.789 145.152C77.589 144.352 77.289 143.652 76.989 142.952C76.989 142.852 76.789 142.852 76.889 142.952Z" fill="#1D1D1B"></path><path d="M77.689 142.652C77.989 144.352 77.889 145.952 77.789 147.552C78.289 145.952 78.189 144.152 77.889 142.552C77.889 142.552 77.689 142.552 77.689 142.652Z" fill="#1D1D1B"></path><path d="M78.289 138.952C78.389 139.652 78.789 140.352 78.789 141.152C78.789 141.952 78.389 142.752 78.089 143.452C78.489 142.852 78.789 142.152 78.789 141.452C78.989 140.552 78.489 139.752 78.289 138.952C78.289 138.852 78.389 138.852 78.289 138.952Z" fill="#1D1D1B"></path><path d="M75.889 138.152C75.789 139.452 76.789 140.452 77.089 141.652C76.889 140.452 75.989 139.352 75.989 138.152C76.089 138.052 75.889 138.052 75.889 138.152Z" fill="#1D1D1B"></path><path d="M80.4889 137.252C79.8889 139.452 81.5889 141.452 81.2889 143.552H81.3889C82.0889 141.452 80.1889 139.352 80.7889 137.252C80.6889 137.152 80.4889 137.052 80.4889 137.252Z" fill="#1D1D1B"></path><path d="M79.4889 140.152C79.7889 141.052 79.8889 141.952 79.9889 142.852H80.0889C80.1889 141.952 79.9889 141.052 79.6889 140.152C79.5889 140.052 79.3889 140.052 79.4889 140.152Z" fill="#1D1D1B"></path><path d="M107.789 97.4524C111.189 96.0524 115.289 95.7524 119.089 95.8524C120.589 95.8524 122.389 95.9524 123.689 96.6524C124.489 97.1524 124.889 97.8524 124.689 98.6524C124.589 99.3524 124.089 99.8524 123.789 100.452C123.689 100.652 124.089 100.752 124.189 100.652C125.289 99.7524 125.889 97.9524 124.889 96.8524C123.989 95.7524 122.289 95.5524 120.789 95.4524C118.489 95.3524 116.189 95.3524 113.989 95.6524C111.889 95.8524 109.389 96.2524 107.589 97.2524C107.389 97.3524 107.589 97.5524 107.789 97.4524Z" fill="#1D1D1B"></path><path d="M98.2889 134.353C98.3889 134.653 98.6889 134.853 98.9889 135.053C99.2889 135.353 99.6889 135.753 100.089 135.953C100.389 136.153 100.789 136.153 101.089 135.853C101.489 135.453 101.389 134.753 101.289 134.353C101.189 133.653 100.889 132.953 100.389 132.353C100.289 132.253 99.9889 132.253 99.9889 132.453C100.389 133.253 100.789 134.153 100.789 135.153C100.789 135.453 100.589 135.653 100.189 135.453C99.9889 135.353 99.6889 135.053 99.4889 134.953C99.1889 134.753 98.8889 134.453 98.2889 134.353C98.2889 134.353 98.3889 134.353 98.2889 134.353Z" fill="#1D1D1B"></path><path d="M57.189 129.652C56.889 130.052 56.489 130.552 56.189 130.952C55.989 131.252 55.889 131.552 56.089 131.852C56.489 132.552 57.989 132.452 58.689 132.352C58.889 132.352 58.789 132.052 58.689 132.152C58.589 132.152 58.589 132.152 58.489 132.152C58.289 132.152 58.289 132.352 58.489 132.352C58.589 132.352 58.589 132.352 58.689 132.352C58.689 132.252 58.689 132.152 58.689 132.152C58.089 132.052 56.489 132.152 56.489 131.452C56.489 131.152 56.789 130.852 56.889 130.652C57.089 130.352 57.289 130.052 57.389 129.852C57.589 129.652 57.389 129.452 57.189 129.652Z" fill="#1D1D1B"></path><path d="M72.189 125.453C73.189 125.553 74.289 125.353 75.289 125.453C75.789 125.453 76.389 125.553 76.889 125.553C77.389 125.653 78.089 125.553 78.289 126.053C78.289 126.153 78.489 126.153 78.589 126.053C79.389 125.353 77.389 125.153 76.889 125.153C75.389 125.053 73.489 124.853 72.089 125.353C72.089 125.353 72.089 125.453 72.189 125.453Z" fill="#1D1D1B"></path><path d="M79.689 126.052C79.189 126.052 78.989 126.052 78.589 126.252C78.389 126.352 78.489 126.652 78.689 126.652C78.989 126.652 79.189 126.652 79.489 126.652C79.889 126.652 79.789 126.252 79.489 126.252C78.889 126.152 78.089 126.052 77.489 126.152C76.989 126.152 76.689 126.552 76.189 126.552C76.189 126.652 76.189 126.852 76.289 126.952C76.689 126.852 77.089 126.752 77.489 126.552C77.689 126.452 77.589 126.252 77.389 126.252C76.989 126.252 76.589 126.352 76.089 126.452C75.789 126.552 75.889 126.852 76.189 126.852C76.689 126.852 76.989 126.552 77.389 126.452C77.989 126.352 78.889 126.552 79.489 126.552V126.152C79.189 126.152 78.989 126.152 78.689 126.152C78.689 126.252 78.789 126.352 78.789 126.552C79.089 126.352 79.289 126.252 79.689 126.152C79.789 126.152 79.789 126.052 79.689 126.052Z" fill="#1D1D1B"></path><path d="M79.4889 126.653C80.1889 126.753 80.7889 126.753 81.3889 127.053V126.753C81.0889 126.853 80.7889 126.953 80.4889 126.853C80.2889 126.853 80.1889 126.753 79.9889 126.853L79.8889 126.953C79.8889 127.053 79.8889 127.053 79.9889 127.153C80.4889 127.353 81.0889 127.353 81.5889 127.053C81.6889 126.953 81.7889 126.853 81.5889 126.753C80.9889 126.453 80.1889 126.253 79.4889 126.453C79.3889 126.453 79.3889 126.653 79.4889 126.653Z" fill="#1D1D1B"></path><path d="M85.8889 123.153C85.7889 123.053 85.5889 123.053 85.4889 122.953C85.3889 123.053 85.3889 123.153 85.2889 123.253C86.6889 123.553 87.9889 122.653 88.9889 122.053C90.2889 121.153 91.3889 120.153 92.4889 119.253C93.5889 118.353 94.7889 117.353 96.2889 116.753C96.9889 116.453 97.7889 116.153 98.6889 115.953C99.5889 115.753 100.389 115.853 101.189 115.753C101.489 115.753 101.589 115.353 101.289 115.253C99.989 114.953 98.3889 115.253 97.1889 115.753C95.7889 116.253 94.4889 116.953 93.3889 117.853C92.1889 118.753 91.0889 119.753 89.9889 120.653C88.6889 121.653 87.2889 122.953 85.3889 123.053C85.0889 123.053 85.0889 123.453 85.3889 123.453C85.5889 123.453 85.6889 123.453 85.8889 123.453C85.9889 123.353 85.9889 123.153 85.8889 123.153Z" fill="#1D1D1B"></path><path d="M91.489 116.152C92.289 115.052 93.389 114.152 94.789 113.552C95.489 113.252 96.289 113.052 97.089 112.952C97.889 112.852 98.789 112.952 99.489 112.652C100.889 112.252 101.789 111.152 103.089 110.552C103.789 110.252 104.589 109.952 105.489 109.752C106.289 109.552 107.189 109.652 107.989 109.452C108.189 109.352 108.189 109.152 107.989 109.152C107.289 108.952 106.289 109.152 105.589 109.252C104.789 109.452 103.989 109.652 103.289 109.952C102.589 110.252 101.889 110.652 101.289 111.052C100.489 111.652 99.789 112.152 98.589 112.352C96.989 112.552 95.489 112.652 94.089 113.352C92.789 114.052 91.789 114.952 91.189 116.052C90.989 116.152 91.389 116.252 91.489 116.152Z" fill="#1D1D1B"></path><path d="M108.789 102.653C108.889 102.353 109.789 102.453 110.089 102.453C110.589 102.453 111.089 102.553 111.589 102.653C112.489 102.853 113.389 103.153 114.289 103.253C115.589 103.353 117.789 103.353 118.689 102.453C118.889 102.353 118.689 102.153 118.489 102.153C117.989 102.253 117.589 102.453 117.089 102.553C116.589 102.653 116.089 102.753 115.589 102.753C114.489 102.753 113.489 102.553 112.489 102.253C111.689 102.053 110.789 101.853 109.889 101.853C109.389 101.853 108.489 102.053 108.589 102.553C108.489 102.653 108.689 102.753 108.789 102.653Z" fill="#1D1D1B"></path><path d="M107.289 103.052C107.789 102.952 108.289 102.852 108.689 102.652C108.789 102.552 108.789 102.452 108.589 102.452C108.089 102.552 107.689 102.752 107.189 102.952C107.189 102.952 107.189 103.052 107.289 103.052Z" fill="#1D1D1B"></path><path d="M90.089 117.952C90.689 117.452 90.889 116.352 90.789 115.652C90.689 114.652 89.489 113.952 89.789 112.952C89.789 112.852 89.689 112.752 89.489 112.852C88.589 113.452 89.489 114.252 89.889 114.852C90.289 115.352 90.289 115.952 90.289 116.552C90.189 117.052 89.889 117.552 89.989 118.052C89.989 117.952 90.089 117.952 90.089 117.952Z" fill="#1D1D1B"></path><path d="M90.3889 115.452C90.5889 115.152 90.5889 114.752 90.7889 114.452C90.9889 113.952 91.3889 113.552 91.6889 113.152C92.0889 112.752 92.5889 112.352 92.6889 111.752C92.6889 111.652 92.5889 111.652 92.5889 111.752C92.0889 113.052 90.0889 113.952 90.3889 115.452Z" fill="#1D1D1B"></path><path d="M87.6889 121.153C87.9889 120.653 88.0889 120.053 88.1889 119.453C88.1889 119.153 88.1889 118.953 88.0889 118.653C88.0889 118.453 87.4889 116.953 88.2889 117.053C88.3889 117.053 88.3889 116.953 88.2889 116.953C87.6889 116.753 87.4889 117.253 87.4889 117.653C87.5889 118.253 87.7889 118.753 87.7889 119.253C87.7889 119.853 87.5889 120.453 87.3889 120.953C87.4889 121.153 87.5889 121.253 87.6889 121.153Z" fill="#1D1D1B"></path><path d="M90.689 120.252C91.389 118.552 93.789 118.452 95.689 118.552C96.489 118.552 97.389 118.552 98.189 118.452C99.089 118.252 99.889 117.852 100.789 117.652C100.889 117.652 100.889 117.452 100.689 117.452C99.689 117.652 98.789 118.052 97.689 118.252C96.389 118.452 94.989 118.252 93.689 118.352C92.389 118.352 90.789 118.952 90.689 120.252C90.689 120.252 90.589 120.252 90.689 120.252Z" fill="#1D1D1B"></path><path d="M98.689 112.553C99.689 112.053 99.889 110.953 100.189 110.153C100.389 109.553 100.689 108.953 101.189 108.453C101.889 107.953 102.789 107.853 103.689 107.753C103.789 107.753 103.789 107.653 103.689 107.653C102.189 107.653 101.089 108.053 100.389 109.153C100.089 109.653 99.889 110.153 99.789 110.653C99.489 111.253 99.089 111.853 98.689 112.553C98.689 112.553 98.689 112.453 98.689 112.553Z" fill="#1D1D1B"></path><path d="M100.989 111.252C101.889 110.852 102.789 110.352 103.889 110.352C104.989 110.352 105.689 110.952 106.589 111.252C107.789 111.652 109.089 111.552 110.089 110.852C110.189 110.752 109.989 110.652 109.889 110.752C109.189 111.252 108.089 111.352 107.189 111.152C106.389 110.952 105.789 110.452 104.989 110.252C103.489 109.752 102.089 110.452 100.989 111.252C100.989 111.252 100.889 111.152 100.989 111.252Z" fill="#1D1D1B"></path><path d="M109.589 102.452C110.689 102.552 110.989 103.452 111.389 104.052C111.689 104.452 111.989 104.852 112.589 105.052C113.789 105.452 115.089 105.152 116.089 104.652C116.189 104.552 116.089 104.452 115.989 104.452C114.389 104.952 112.589 105.252 111.589 103.752C111.189 103.152 110.689 102.452 109.589 102.452Z" fill="#1D1D1B"></path><path d="M112.089 100.252C111.989 99.9525 111.689 99.6525 111.589 99.2525C111.489 98.6525 112.389 98.1525 112.889 97.8525C113.989 97.2525 114.989 96.8525 116.389 96.8525C116.489 96.8525 116.489 96.7525 116.389 96.7525C114.989 96.4525 113.589 97.1525 112.489 97.8525C112.089 98.1525 111.489 98.4525 111.289 98.8525C111.189 99.4525 111.789 99.7525 112.089 100.252C112.089 100.352 111.989 100.352 112.089 100.252Z" fill="#1D1D1B"></path><path d="M98.3889 80.1526C99.0889 79.9526 99.2889 79.1526 99.4889 78.6526C99.7889 77.7526 100.089 76.8526 100.189 75.9526C100.289 74.9526 100.089 73.9526 100.289 72.9526C100.489 71.9526 101.089 71.1526 101.789 70.3526C101.889 70.2526 101.789 70.1526 101.689 70.2526C100.089 71.4526 99.6889 73.0526 99.7889 74.6526C99.7889 75.6526 99.5889 76.7526 99.2889 77.7526C99.1889 78.1526 99.0889 78.6526 98.8889 79.0526C98.6889 79.4526 98.3889 79.8526 98.3889 80.1526Z" fill="#1D1D1B"></path><path d="M106.189 76.5524C106.989 76.1524 107.589 75.3524 108.189 74.8524C109.089 74.1524 110.089 73.5524 111.389 73.5524C111.489 73.5524 111.489 73.4524 111.389 73.4524C110.289 73.3524 109.389 73.7524 108.589 74.2524C108.089 74.5524 107.689 74.9524 107.289 75.3524C106.889 75.6524 106.389 76.0524 106.189 76.5524C106.089 76.5524 106.089 76.5524 106.189 76.5524Z" fill="#1D1D1B"></path><path d="M93.689 81.7525C93.789 81.2525 93.789 80.8525 93.589 80.3525C93.189 79.6525 92.089 79.1525 92.389 78.2525C92.389 78.1525 92.289 78.1525 92.289 78.2525C91.989 78.6525 92.189 79.0525 92.489 79.4525C92.789 79.7525 93.089 80.0525 93.289 80.3525C93.489 80.7525 93.589 81.3525 93.689 81.7525C93.689 81.8525 93.589 81.8525 93.689 81.7525Z" fill="#1D1D1B"></path><path d="M94.0889 83.9524C94.0889 83.9524 94.0889 83.6524 94.0889 83.5524C94.0889 83.2524 93.9889 82.9524 93.8889 82.6524C93.6889 81.8524 93.6889 81.1524 93.9889 80.3524C94.2889 79.1524 94.5889 77.9524 94.2889 76.6524C94.2889 76.5524 94.0889 76.5524 94.0889 76.6524C94.0889 77.4524 94.0889 78.2524 93.9889 79.1524C93.8889 79.8524 93.5889 80.4524 93.4889 81.1524C93.3889 81.7524 93.5889 82.3524 93.6889 82.9524C93.6889 83.2524 93.7889 83.9524 94.0889 83.9524C94.1889 83.9524 94.1889 83.9524 94.0889 83.9524C94.1889 83.9524 94.1889 83.9524 94.0889 83.9524C94.1889 83.9524 94.1889 83.9524 94.0889 83.9524Z" fill="#1D1D1B"></path><path d="M67.6889 83.6524C67.4889 82.7524 67.2889 81.8524 67.0889 80.9524C66.8889 80.1524 66.6889 79.4524 65.9889 78.8524C65.2889 78.1524 64.4889 77.5524 64.0889 76.7524C63.6889 75.8524 63.5889 74.8524 63.7889 73.9524C63.7889 73.8524 63.6889 73.8524 63.5889 73.9524C62.9889 75.4524 63.3889 77.0524 64.5889 78.2524C64.8889 78.5524 65.2889 78.8524 65.6889 79.2524C66.1889 79.6524 66.3889 80.1524 66.5889 80.7524C66.8889 81.7524 67.0889 82.8524 67.3889 83.8524C67.4889 83.8524 67.6889 83.7524 67.6889 83.6524Z" fill="#1D1D1B"></path><path d="M60.389 79.4524C60.389 79.5524 60.489 79.7524 60.489 79.8524C60.489 79.9524 60.689 79.9524 60.689 79.8524C60.889 78.8524 60.189 77.9524 59.489 77.2524C59.089 76.8524 58.589 76.3524 58.189 75.9524C57.789 75.4524 57.489 74.9524 57.089 74.4524H56.989C56.989 75.3524 57.889 76.1524 58.589 76.7524C59.589 77.7524 60.289 78.5524 60.489 79.8524C60.589 79.8524 60.589 79.8524 60.689 79.8524C60.689 79.7524 60.589 79.5524 60.589 79.4524C60.589 79.3524 60.389 79.3524 60.389 79.4524Z" fill="#1D1D1B"></path><path d="M59.2889 77.2526C59.7889 75.7526 59.1889 73.9526 57.3889 73.1526C57.2889 73.1526 57.2889 73.1526 57.2889 73.2526C58.7889 74.1526 59.5889 75.6526 59.2889 77.2526C59.2889 77.2526 59.1889 77.2526 59.2889 77.2526Z" fill="#1D1D1B"></path><path d="M69.3889 85.8525C68.8889 86.0525 68.3889 86.3525 67.8889 86.3525C67.3889 86.3525 66.9889 86.0525 66.4889 85.8525C65.7889 85.6525 65.0889 85.6525 64.3889 85.7525C63.3889 85.9525 62.4889 86.3525 61.4889 86.3525C60.3889 86.3525 59.5889 85.8525 58.6889 85.7525C58.5889 85.7525 58.4889 85.8525 58.5889 85.8525C59.1889 86.3525 60.1889 86.5525 60.9889 86.6525C62.0889 86.7525 63.0889 86.3525 64.1889 86.1525C64.7889 86.0525 65.4889 85.9525 66.0889 86.0525C66.4889 86.1525 66.8889 86.4525 67.2889 86.5525C68.0889 86.7525 68.8889 86.4525 69.5889 85.9525C69.6889 85.9525 69.5889 85.7525 69.3889 85.8525Z" fill="#1D1D1B"></path><path d="M65.9889 89.8526C65.8889 89.4526 65.2889 88.9526 64.7889 88.7526C64.1889 88.4526 63.5889 88.2526 62.8889 88.1526C62.8889 88.1526 62.7889 88.2526 62.8889 88.2526C63.4889 88.3526 64.1889 88.5526 64.6889 88.8526C64.9889 89.0526 65.1889 89.1526 65.3889 89.3526C65.5889 89.6526 65.6889 89.7526 65.9889 89.8526C65.9889 89.9526 65.9889 89.9526 65.9889 89.8526Z" fill="#1D1D1B"></path><path d="M60.289 86.3525C59.289 87.8525 57.389 88.2525 55.489 87.7525C55.389 87.7525 55.289 87.8525 55.389 87.8525C57.289 88.7525 59.589 87.9525 60.589 86.4525C60.689 86.3525 60.389 86.2525 60.289 86.3525Z" fill="#1D1D1B"></path><path d="M66.689 80.3525C67.089 79.3525 69.489 77.2525 67.389 76.3525C67.289 76.3525 67.289 76.3525 67.289 76.4525C68.889 77.6525 67.089 79.1525 66.689 80.3525C66.689 80.3525 66.589 80.3525 66.689 80.3525Z" fill="#1D1D1B"></path><path d="M50.289 98.0524C49.489 97.7524 48.289 98.5524 47.789 98.9524C46.889 99.5524 46.289 100.352 45.989 101.252C45.989 101.452 46.189 101.452 46.289 101.352C46.689 100.552 47.289 99.7524 48.089 99.2524C48.489 98.9524 48.889 98.7524 49.289 98.5524C49.689 98.3524 50.089 98.2524 50.289 98.0524Z" fill="#1D1D1B"></path><path d="M45.989 98.2524C45.489 98.7524 44.589 98.7524 44.189 99.3524C43.689 100.052 43.989 100.852 43.189 101.452C42.289 102.152 40.289 102.452 40.189 103.752C40.189 103.852 40.289 103.852 40.289 103.752C40.789 102.452 42.589 102.352 43.489 101.352C43.989 100.852 43.889 100.352 43.989 99.8524C44.289 98.9524 45.289 99.0524 45.889 98.5524C45.889 98.5524 45.889 98.5524 45.889 98.4524C45.989 98.3524 45.989 98.3524 45.989 98.2524Z" fill="#1D1D1B"></path><path d="M47.889 99.0525C47.589 99.3525 47.589 99.6525 47.689 99.9525C47.789 100.153 47.889 100.353 47.989 100.553C48.289 101.153 48.289 101.652 47.989 102.252C47.989 102.252 47.989 102.352 48.089 102.252C48.389 101.852 48.489 101.453 48.389 101.053C48.289 100.353 47.389 99.7525 47.889 99.0525C47.989 98.9525 48.089 99.0525 47.889 99.0525Z" fill="#1D1D1B"></path><path d="M47.2889 99.5525C47.7889 100.352 47.7889 101.052 47.8889 101.852C47.8889 101.952 48.0889 101.952 48.1889 101.852C48.5889 101.052 48.1889 100.052 47.6889 99.3525C47.4889 99.2525 47.1889 99.3525 47.2889 99.5525Z" fill="#1D1D1B"></path><path d="M47.789 98.9524C46.289 99.1524 44.989 99.9524 44.589 101.252C44.389 102.052 44.389 102.752 44.089 103.552C43.789 104.452 43.089 105.152 42.589 105.952C42.589 105.952 42.589 106.052 42.689 106.052C43.789 105.152 44.489 103.752 44.689 102.452C44.889 101.752 44.889 100.952 45.489 100.352C46.089 99.7524 46.989 99.4524 47.789 99.2524C47.989 99.0524 47.989 98.8524 47.789 98.9524Z" fill="#1D1D1B"></path><path d="M44.2889 102.852C44.6889 103.652 45.0889 104.252 44.8889 105.152C44.8889 105.252 44.9889 105.252 44.9889 105.152C45.2889 104.352 45.1889 103.352 44.3889 102.752C44.2889 102.752 44.2889 102.852 44.2889 102.852Z" fill="#1D1D1B"></path><path d="M66.989 116.853C67.189 116.453 66.989 116.053 66.889 115.553C66.789 115.053 66.689 114.653 66.689 114.153C66.689 113.053 67.489 112.553 68.289 111.753C68.889 111.153 69.089 110.453 69.089 109.753C69.089 109.253 69.089 108.253 68.389 107.953C68.189 107.853 67.989 108.053 68.089 108.153C68.589 108.953 68.689 110.253 68.189 111.053C67.789 111.653 66.989 112.153 66.589 112.753C66.189 113.353 66.089 114.153 66.289 114.853C66.289 115.453 66.389 116.453 66.989 116.853C66.989 116.853 66.889 116.953 66.989 116.853Z" fill="#1D1D1B"></path><path d="M63.289 110.953C63.489 110.653 63.389 110.553 63.289 110.253C63.189 109.753 63.189 109.353 63.489 108.853C63.789 108.253 64.4889 107.753 64.8889 107.153C65.2889 106.553 65.289 106.153 65.289 105.453C65.289 104.953 65.5889 104.653 65.8889 104.153C65.9889 103.953 65.989 103.853 65.989 103.653H65.8889C65.7889 104.053 65.3889 104.253 65.1889 104.553C64.9889 104.853 64.8889 105.053 64.8889 105.353C64.8889 105.853 64.8889 106.253 64.5889 106.653C64.3889 106.953 64.0889 107.253 63.8889 107.553C63.3889 108.053 62.889 108.653 62.789 109.353C62.689 109.753 62.689 110.753 63.289 110.953C63.289 110.953 63.289 110.953 63.289 110.953Z" fill="#1D1D1B"></path><path d="M58.4889 104.552C58.5889 104.452 58.5889 104.352 58.5889 104.252C58.5889 103.852 58.6889 103.552 58.8889 103.152C59.1889 102.552 59.4889 102.052 59.4889 101.452C59.4889 100.252 58.2889 99.3524 56.9889 98.9524C56.8889 98.9524 56.8889 98.9524 56.8889 99.0524C57.7889 99.9524 59.0889 100.752 58.7889 101.952C58.5889 102.852 57.8889 103.552 58.1889 104.452C58.1889 104.552 58.2889 104.552 58.2889 104.552C58.3889 104.552 58.4889 104.552 58.4889 104.552Z" fill="#1D1D1B"></path><path d="M58.689 102.953C59.489 102.453 60.389 101.953 60.889 101.253C61.089 100.953 61.289 100.653 61.289 100.353C61.289 100.053 60.989 99.3525 61.889 99.6525C61.989 99.6525 61.989 99.6525 61.889 99.5525C61.589 99.3525 61.389 99.3525 60.989 99.3525C60.989 99.3525 60.889 99.3525 60.889 99.4525C61.089 100.253 60.789 100.953 60.089 101.553C59.689 102.053 59.189 102.453 58.689 102.953C58.689 102.953 58.589 102.953 58.689 102.953Z" fill="#1D1D1B"></path><path d="M63.789 107.653C63.889 107.353 63.789 107.053 63.589 106.853C63.389 106.753 63.189 106.653 62.989 106.553C62.589 106.353 62.289 106.053 62.089 105.653C61.489 104.453 62.189 103.253 61.889 102.153C61.889 102.053 61.789 102.153 61.789 102.153C61.689 103.153 61.389 104.353 61.689 105.453C61.789 105.753 61.989 106.153 62.289 106.453C62.589 106.653 63.889 107.053 63.789 107.653C63.789 107.653 63.689 107.653 63.789 107.653Z" fill="#1D1D1B"></path><path d="M62.6889 106.452C62.6889 105.552 63.7889 105.052 64.1889 104.252C64.4889 103.552 64.4889 102.652 64.1889 101.952C64.1889 102.952 64.3889 103.952 63.6889 104.752C63.2889 105.252 62.6889 105.752 62.5889 106.352C62.4889 106.552 62.6889 106.552 62.6889 106.452Z" fill="#1D1D1B"></path><path d="M67.6889 112.252C67.6889 111.752 67.5889 111.353 67.1889 111.053C66.9889 110.853 66.6889 110.753 66.4889 110.553C65.7889 110.153 65.8889 109.553 66.3889 109.053C66.3889 109.053 66.3889 108.953 66.3889 109.053C65.8889 109.353 65.7889 109.852 65.9889 110.252C66.0889 110.452 66.1889 110.552 66.4889 110.752C67.1889 111.252 67.5889 111.553 67.6889 112.353C67.4889 112.453 67.6889 112.452 67.6889 112.252Z" fill="#1D1D1B"></path><path d="M66.289 116.153C65.389 115.253 63.7889 114.853 62.4889 114.553C60.7889 114.153 58.9889 113.953 57.3889 113.453C57.1889 113.353 57.089 113.653 57.289 113.653C58.689 114.253 60.189 114.453 61.789 114.753C63.389 115.053 64.7889 115.553 66.0889 116.353C66.1889 116.453 66.489 116.253 66.289 116.153Z" fill="#1D1D1B"></path><path d="M60.2889 107.153C59.4889 106.853 58.7889 106.953 57.9889 107.153C57.0889 107.353 55.7889 107.953 54.8889 107.453C54.4889 107.253 54.1889 106.853 53.7889 106.653C53.4889 106.453 53.0889 106.253 52.6889 106.153C51.8889 105.853 50.9889 105.653 50.1889 105.653C49.9889 105.653 49.9889 105.853 50.1889 105.853C51.0889 106.153 52.0889 106.253 52.9889 106.653C53.7889 106.953 54.1889 107.653 54.9889 107.953C56.7889 108.653 58.4889 106.953 60.2889 107.453C60.3889 107.453 60.5889 107.153 60.2889 107.153Z" fill="#1D1D1B"></path><path d="M55.2889 101.953C54.6889 101.453 53.1889 101.953 52.5889 102.153C51.8889 102.353 51.2889 102.553 50.5889 102.553C49.9889 102.553 49.4889 102.453 48.8889 102.553C48.8889 102.553 48.8889 102.553 48.8889 102.653C49.5889 103.153 50.9889 102.953 51.8889 102.853C52.4889 102.753 53.0889 102.553 53.6889 102.353C54.1889 102.253 54.8889 102.353 55.2889 101.953C55.3889 102.053 55.3889 102.053 55.2889 101.953Z" fill="#1D1D1B"></path><path d="M58.589 102.352C57.889 100.952 55.789 100.152 54.089 100.052C54.989 100.152 55.889 100.452 56.589 100.852C57.389 101.252 57.889 101.752 58.589 102.352Z" fill="#1D1D1B"></path><path d="M56.5889 107.652C56.2889 107.252 55.8889 106.852 55.5889 106.352C55.2889 105.852 54.9889 105.352 54.5889 104.952C53.8889 104.252 52.8889 103.852 51.7889 103.752C53.2889 103.952 54.3889 104.752 54.9889 105.752C55.3889 106.452 55.7889 107.452 56.5889 107.652Z" fill="#1D1D1B"></path><path d="M53.089 106.653C52.789 106.553 52.489 106.553 52.189 106.753C51.489 107.153 50.289 108.053 49.689 107.053C49.689 107.053 49.589 107.053 49.689 107.053C49.789 107.453 50.289 107.653 50.789 107.553C51.489 107.553 52.389 106.353 53.089 106.653Z" fill="#1D1D1B"></path><path d="M62.389 114.353C61.789 114.653 61.189 113.553 60.989 113.253C60.689 112.853 60.389 112.553 59.989 112.153C59.489 111.653 58.889 111.153 58.089 110.853C56.789 110.253 54.789 110.153 53.689 111.153C53.689 111.153 53.689 111.253 53.689 111.153C54.589 110.453 56.089 110.553 57.189 110.753C58.189 110.953 58.989 111.553 59.689 112.253C60.389 112.853 60.789 113.653 61.489 114.253C61.789 114.453 62.089 114.553 62.389 114.353Z" fill="#1D1D1B"></path><path d="M64.1889 115.253C63.5889 115.053 63.0889 115.053 62.4889 115.153C61.5889 115.353 60.5889 116.153 59.6889 115.553C59.5889 115.553 59.4889 115.553 59.5889 115.653C59.9889 116.053 60.5889 116.053 61.0889 115.853C61.4889 115.753 61.8889 115.553 62.2889 115.353C62.8889 115.253 63.5889 115.253 64.1889 115.253C64.1889 115.353 64.1889 115.353 64.1889 115.253Z" fill="#1D1D1B"></path><path d="M59.689 130.553C60.689 130.153 61.589 129.453 62.589 128.953C63.589 128.453 64.689 127.953 65.789 127.553C66.889 127.153 68.089 126.753 69.189 126.453C69.689 126.253 70.289 126.153 70.889 126.053C71.589 125.853 72.389 125.653 73.089 125.753C73.289 125.753 73.389 125.553 73.189 125.453C72.189 125.053 70.889 125.553 69.989 125.853C68.789 126.153 67.489 126.553 66.389 127.053C65.189 127.553 63.989 128.053 62.889 128.553C61.689 129.053 60.389 129.653 59.689 130.553C59.589 130.553 59.589 130.453 59.689 130.553Z" fill="#1D1D1B"></path><path d="M83.489 126.053C87.189 126.853 90.889 128.053 93.889 129.853C93.989 129.953 94.089 129.853 93.989 129.753C91.089 127.753 87.489 126.153 83.489 126.053C83.389 125.953 83.489 125.953 83.489 126.053Z" fill="#1D1D1B"></path><path d="M72.389 134.453C72.389 134.253 72.4889 134.053 72.5889 133.753C72.5889 133.653 72.389 133.553 72.289 133.653C71.389 134.453 71.089 135.653 71.289 136.753C71.489 137.453 71.689 138.053 71.689 138.753C71.689 139.553 71.489 140.353 71.389 141.153C71.389 141.353 71.689 141.453 71.689 141.253C71.989 140.053 72.2889 138.953 72.0889 137.753C71.9889 137.153 71.689 136.553 71.689 135.853C71.789 135.153 72.289 134.553 72.489 133.853C72.389 133.853 72.289 133.853 72.189 133.853C72.189 134.053 72.189 134.353 72.189 134.553C72.189 134.553 72.389 134.553 72.389 134.453Z" fill="#1D1D1B"></path><path d="M75.989 137.552C75.689 138.652 75.889 139.752 76.589 140.852C76.689 140.952 76.989 140.852 76.889 140.752C76.389 139.752 76.189 138.752 76.389 137.652C76.489 137.452 76.089 137.352 75.989 137.552Z" fill="#1D1D1B"></path><path d="M80.689 137.253C80.689 137.653 80.889 138.053 81.089 138.453C81.289 138.953 81.389 139.453 81.489 139.953C81.489 140.153 81.889 140.153 81.889 139.953C81.889 139.453 81.789 138.953 81.589 138.453C81.489 138.053 81.389 137.553 80.989 137.153C80.789 137.153 80.689 137.153 80.689 137.253Z" fill="#1D1D1B"></path><path d="M77.789 139.153C77.289 139.553 77.5889 140.153 77.8889 140.553C78.3889 141.553 78.589 142.453 78.289 143.453C77.789 145.153 76.3889 146.653 75.6889 148.253C75.5889 148.453 75.889 148.453 75.989 148.353C76.789 146.753 78.0889 145.453 78.6889 143.753C78.8889 143.153 78.9889 142.453 78.8889 141.753C78.7889 140.853 77.8889 140.153 78.0889 139.153C78.0889 139.153 77.889 139.053 77.789 139.153Z" fill="#1D1D1B"></path><path d="M75.489 141.652C75.589 141.452 75.389 141.252 75.089 141.252C74.489 141.352 74.389 142.552 74.289 142.952C73.889 144.452 73.189 146.252 74.189 147.652C74.289 147.852 74.789 147.752 74.689 147.452C74.189 146.452 74.389 145.352 74.589 144.352C74.689 143.852 74.789 143.352 74.889 142.952C74.889 142.752 74.989 142.552 74.989 142.252C74.989 142.152 75.089 141.952 75.089 141.852C75.189 141.752 75.189 141.652 75.089 141.552C75.289 141.752 75.489 141.752 75.489 141.652Z" fill="#1D1D1B"></path><path d="M83.3889 134.752C82.8889 135.352 83.2889 136.552 83.4889 137.252C83.6889 138.352 83.9889 139.452 83.9889 140.552C83.9889 140.752 84.2889 140.752 84.3889 140.552C84.4889 139.552 84.3889 138.552 84.0889 137.652C83.9889 137.052 83.7889 136.552 83.7889 135.952C83.6889 135.452 83.7889 135.052 83.3889 134.752C83.3889 134.652 83.4889 134.652 83.3889 134.752Z" fill="#1D1D1B"></path><path d="M79.4889 145.853C78.9889 147.253 78.6889 148.653 79.2889 150.053C79.5889 150.653 79.8889 151.253 80.0889 151.953C80.2889 152.853 80.1889 153.653 79.9889 154.553C79.8889 154.753 80.2889 154.853 80.3889 154.653C80.8889 153.353 80.7889 152.053 80.1889 150.753C79.8889 150.053 79.4889 149.353 79.4889 148.553C79.3889 147.653 79.6889 146.753 79.7889 145.953C79.7889 145.753 79.5889 145.753 79.4889 145.853Z" fill="#1D1D1B"></path><path d="M78.3889 147.853C78.1889 148.853 78.2889 149.953 78.3889 151.053C78.4889 152.153 78.6889 153.153 78.8889 154.253C78.8889 154.453 79.2889 154.353 79.2889 154.253C79.0889 153.153 78.9889 152.053 78.8889 150.953C78.7889 149.953 78.8889 148.853 78.6889 147.853C78.5889 147.753 78.3889 147.753 78.3889 147.853Z" fill="#1D1D1B"></path><path d="M72.989 136.153C73.089 136.553 73.089 136.953 73.089 137.353C73.089 137.553 73.489 137.553 73.489 137.353C73.289 134.753 72.389 132.053 73.589 129.553C74.189 128.453 74.989 127.453 76.389 126.853C76.989 126.553 77.789 126.353 78.489 126.353C79.189 126.353 79.789 126.453 80.489 126.553C80.689 126.553 80.889 126.253 80.689 126.153C79.589 125.453 77.889 125.753 76.689 126.053C75.189 126.553 74.089 127.553 73.289 128.653C71.689 131.353 72.389 134.653 72.989 137.453C73.089 137.453 73.189 137.353 73.389 137.353C73.389 136.953 73.189 136.553 72.989 136.153C72.989 136.153 73.089 136.153 72.989 136.153Z" fill="#1D1D1B"></path><path d="M72.589 133.153C72.089 134.953 72.589 136.853 73.589 138.553C73.889 139.053 74.289 139.453 74.289 140.053C74.289 140.553 74.189 140.953 73.989 141.353C73.589 142.153 73.189 142.853 73.189 143.653C73.189 143.853 73.689 143.953 73.689 143.653C73.789 141.953 75.589 140.753 74.589 139.053C74.089 138.153 73.489 137.253 73.189 136.253C72.789 135.353 72.689 134.253 72.589 133.153Z" fill="#1D1D1B"></path><path d="M80.989 126.652C84.189 127.552 84.189 130.552 83.589 132.752C82.989 135.052 81.789 137.152 80.889 139.352C79.989 141.552 79.389 143.852 78.989 146.252C78.689 148.552 78.389 150.952 78.889 153.252C78.889 153.452 79.389 153.452 79.389 153.152C79.389 151.152 79.289 149.152 79.589 147.152C79.789 145.152 80.289 143.052 80.989 141.052C81.589 139.152 82.589 137.352 83.289 135.552C84.089 133.852 84.689 131.952 84.489 130.052C84.289 128.452 83.189 126.552 80.989 126.252C80.789 126.352 80.689 126.552 80.989 126.652Z" fill="#1D1D1B"></path><path d="M74.5889 140.052C75.8889 143.352 76.9889 146.752 77.4889 150.152C77.7889 151.852 77.8889 153.552 78.0889 155.152C78.1889 155.952 78.1889 156.852 78.2889 157.652C78.3889 158.452 78.2889 159.452 78.5889 160.252C78.6889 160.452 79.0889 160.452 79.1889 160.252C79.3889 159.452 79.1889 158.552 79.0889 157.652C78.9889 156.852 78.9889 155.952 78.8889 155.152C78.6889 153.352 78.5889 151.652 78.2889 149.852C77.6889 146.452 76.8889 142.952 75.0889 139.852C74.8889 139.752 74.4889 139.852 74.5889 140.052Z" fill="#1D1D1B"></path><path d="M75.489 127.752C76.189 127.852 76.989 127.752 77.689 127.652C77.789 127.652 77.789 127.552 77.689 127.552C76.989 127.552 76.189 127.552 75.489 127.652C75.289 127.552 75.389 127.752 75.489 127.752Z" fill="#1D1D1B"></path><path d="M78.1889 127.552C78.6889 127.552 79.2889 127.552 79.7889 127.352C79.8889 127.352 79.7889 127.252 79.7889 127.252C79.2889 127.152 78.6889 127.352 78.1889 127.352C77.9889 127.352 77.9889 127.552 78.1889 127.552Z" fill="#1D1D1B"></path><path d="M76.289 127.153C76.589 127.253 76.989 127.353 77.289 127.453C77.589 127.553 77.8889 127.653 78.0889 127.553C78.1889 127.553 78.1889 127.453 78.1889 127.353C77.9889 127.153 77.6889 127.153 77.3889 127.053C77.0889 126.953 76.6889 126.953 76.3889 126.853C76.1889 126.953 76.089 127.153 76.289 127.153Z" fill="#1D1D1B"></path><path d="M77.4889 128.352C78.0889 128.152 78.5889 128.252 79.2889 128.252C79.7889 128.252 80.2889 128.252 80.6889 128.052C80.7889 128.052 80.7889 127.952 80.6889 127.952C80.0889 127.952 79.4889 128.052 78.8889 128.052C78.6889 128.052 78.3889 127.952 78.1889 128.052C77.8889 128.052 77.5889 128.252 77.4889 128.352C77.3889 128.352 77.3889 128.252 77.4889 128.352Z" fill="#1D1D1B"></path><path d="M79.889 128.052C80.689 128.052 81.689 128.152 82.389 127.952C82.489 127.952 82.489 127.852 82.389 127.852C81.589 127.752 80.689 127.852 79.889 127.952C79.689 127.852 79.689 128.052 79.889 128.052Z" fill="#1D1D1B"></path><path d="M80.789 127.653L80.489 127.453C80.489 127.553 80.389 127.553 80.389 127.653C80.689 127.653 81.089 127.753 81.489 127.653C81.589 127.653 81.589 127.553 81.489 127.453C81.189 127.353 80.789 127.353 80.489 127.353C80.389 127.353 80.289 127.453 80.389 127.553C80.489 127.653 80.589 127.653 80.689 127.753C80.789 127.853 80.889 127.753 80.789 127.653Z" fill="#1D1D1B"></path><path d="M54.9889 96.6524C54.8889 96.8524 54.8889 96.8524 54.8889 97.0524C54.8889 97.2524 55.2889 97.2524 55.2889 97.0524C55.3889 95.9524 54.1889 94.2524 52.5889 94.2524C52.4889 94.2524 52.3889 94.3524 52.4889 94.4524C53.0889 94.7524 53.7889 94.9524 54.1889 95.4524C54.5889 95.9524 54.7889 96.4524 54.8889 97.0524C54.9889 97.0524 55.1889 97.0524 55.2889 97.0524C55.1889 96.8524 55.1889 96.8524 54.9889 96.6524Z" fill="#1D1D1B"></path><path d="M83.1889 129.052C83.4889 130.452 82.5889 131.752 80.9889 132.452C80.8889 132.452 80.9889 132.552 81.0889 132.552C82.6889 131.952 83.5889 130.452 83.1889 129.052C83.1889 129.052 83.2889 129.052 83.1889 129.052Z" fill="#1D1D1B"></path><path d="M83.4889 128.952C83.9889 130.752 82.8889 132.552 81.0889 133.652C80.9889 133.652 81.0889 133.852 81.1889 133.752C83.2889 132.752 84.2889 130.752 83.6889 128.952C83.5889 128.852 83.4889 128.852 83.4889 128.952Z" fill="#1D1D1B"></path><path d="M82.889 133.353C82.289 133.753 81.789 134.153 81.189 134.653C81.089 134.653 81.189 134.753 81.289 134.753C81.889 134.353 82.489 133.953 83.089 133.553C83.089 133.453 82.989 133.353 82.889 133.353Z" fill="#1D1D1B"></path><path d="M83.589 133.552C82.489 134.952 80.689 136.452 78.389 135.952C78.289 135.952 78.289 136.052 78.389 136.052C80.789 136.752 82.589 135.052 83.589 133.552C83.589 133.552 83.689 133.552 83.589 133.552Z" fill="#1D1D1B"></path><path d="M82.2889 135.952C81.8889 137.052 80.3889 137.652 79.0889 137.352C78.9889 137.352 78.9889 137.452 79.0889 137.452C80.5889 137.852 82.0889 137.152 82.4889 135.952C82.4889 135.852 82.2889 135.852 82.2889 135.952Z" fill="#1D1D1B"></path><path d="M72.489 132.053C73.489 133.153 75.189 133.753 76.889 133.453C76.989 133.453 76.989 133.353 76.889 133.353C75.189 133.453 73.589 132.953 72.489 132.053C72.489 131.953 72.489 131.953 72.489 132.053Z" fill="#1D1D1B"></path><path d="M72.389 133.152C73.289 134.052 74.689 134.552 76.089 134.352C76.189 134.352 76.189 134.252 76.089 134.252C74.689 134.352 73.389 133.852 72.489 133.052C72.389 132.952 72.289 133.052 72.389 133.152Z" fill="#1D1D1B"></path><path d="M72.689 134.852C73.689 135.552 74.789 135.752 76.089 135.552C76.189 135.552 76.189 135.452 76.089 135.452C74.889 135.552 73.789 135.352 72.889 134.752C72.689 134.752 72.589 134.852 72.689 134.852Z" fill="#1D1D1B"></path><path d="M82.5889 130.353C82.8889 131.653 82.7889 132.953 82.2889 134.253C82.2889 134.253 82.3889 134.353 82.3889 134.253C82.8889 132.953 82.9889 131.653 82.5889 130.353C82.5889 130.353 82.6889 130.353 82.5889 130.353Z" fill="#1D1D1B"></path><path d="M82.1889 127.753C82.0889 128.653 81.4889 129.353 80.4889 129.753C80.3889 129.753 80.4889 129.953 80.5889 129.853C81.6889 129.553 82.4889 128.653 82.3889 127.653C82.3889 127.653 82.1889 127.653 82.1889 127.753Z" fill="#1D1D1B"></path><path d="M82.489 126.752C82.089 127.252 81.489 127.652 80.889 127.952C80.389 128.252 79.789 128.452 79.289 128.652C79.189 128.652 79.289 128.752 79.389 128.752C80.689 128.552 81.889 127.652 82.589 126.752C82.589 126.752 82.489 126.652 82.489 126.752Z" fill="#1D1D1B"></path><path d="M81.7889 126.653C80.9889 127.253 80.1889 127.953 79.4889 128.653C79.3889 128.753 79.5889 128.853 79.6889 128.753C80.4889 128.153 81.2889 127.453 81.9889 126.753C81.9889 126.653 81.8889 126.653 81.7889 126.653Z" fill="#1D1D1B"></path><path d="M74.8889 127.652C75.5889 127.952 76.2889 128.252 77.0889 128.252C77.1889 128.252 77.1889 128.152 77.0889 128.152C76.3889 127.952 75.5889 127.852 74.8889 127.552C74.8889 127.452 74.7889 127.652 74.8889 127.652Z" fill="#1D1D1B"></path><path d="M75.289 126.853C76.189 127.453 77.0889 128.153 78.0889 128.653C78.1889 128.653 78.289 128.553 78.189 128.553C77.389 127.853 76.389 127.353 75.489 126.753C75.389 126.553 75.089 126.753 75.289 126.853Z" fill="#1D1D1B"></path><path d="M74.9889 128.152C75.3889 128.352 75.7889 128.652 76.2889 128.852C76.3889 128.852 76.4889 128.852 76.3889 128.752C75.9889 128.452 75.5889 128.252 75.1889 127.952C74.9889 127.952 74.8889 128.152 74.9889 128.152Z" fill="#1D1D1B"></path><path d="M74.3889 128.352C74.8889 128.752 75.4889 129.052 76.1889 128.952C76.2889 128.952 76.2889 128.852 76.1889 128.852C75.5889 128.752 74.9889 128.652 74.4889 128.252L74.3889 128.352Z" fill="#1D1D1B"></path><path d="M73.789 129.252C74.589 129.352 75.389 129.452 76.189 129.452C76.189 129.452 76.289 129.352 76.189 129.352C75.389 129.252 74.589 129.152 73.889 129.052C73.789 129.152 73.689 129.252 73.789 129.252Z" fill="#1D1D1B"></path><path d="M81.589 126.853C81.489 127.753 80.689 128.453 79.689 128.753C79.589 128.753 79.689 128.853 79.689 128.853C80.889 128.653 81.689 127.753 81.789 126.853C81.789 126.753 81.589 126.753 81.589 126.853Z" fill="#1D1D1B"></path><path d="M83.389 127.453C82.889 128.053 82.089 128.353 81.289 128.553C81.189 128.553 81.189 128.653 81.289 128.653C82.289 128.553 83.089 128.153 83.589 127.553C83.589 127.453 83.389 127.353 83.389 127.453Z" fill="#1D1D1B"></path><path d="M83.289 128.252C82.689 128.852 81.889 129.252 80.889 129.352C80.789 129.352 80.789 129.452 80.889 129.452C81.889 129.452 82.889 128.952 83.389 128.252C83.489 128.252 83.289 128.152 83.289 128.252Z" fill="#1D1D1B"></path><path d="M82.4889 131.653C81.4889 132.353 80.2889 132.753 78.9889 133.053C78.8889 133.053 78.8889 133.253 78.9889 133.153C80.3889 133.053 81.6889 132.553 82.6889 131.753C82.8889 131.653 82.6889 131.553 82.4889 131.653Z" fill="#1D1D1B"></path><path d="M82.9889 131.653C82.3889 133.853 81.7889 135.953 81.2889 138.153C81.2889 138.253 81.3889 138.253 81.3889 138.153C81.9889 136.053 82.5889 133.853 83.0889 131.653C83.1889 131.653 83.0889 131.653 82.9889 131.653Z" fill="#1D1D1B"></path><path d="M81.7889 132.653C81.3889 134.753 80.5889 136.853 79.7889 138.953C79.7889 139.053 79.8889 139.153 79.9889 139.053C81.0889 137.053 81.6889 134.953 81.9889 132.753C81.9889 132.553 81.7889 132.553 81.7889 132.653Z" fill="#1D1D1B"></path><path d="M80.4889 135.053C80.1889 135.853 79.9889 136.753 79.7889 137.553C79.7889 137.653 79.8889 137.653 79.9889 137.553C80.2889 136.753 80.5889 135.953 80.7889 135.053C80.7889 134.953 80.4889 134.953 80.4889 135.053Z" fill="#1D1D1B"></path><path d="M79.389 135.153C79.189 135.953 78.989 136.753 79.089 137.553C79.089 137.653 79.189 137.653 79.189 137.553C79.189 136.753 79.289 135.953 79.489 135.253C79.589 135.153 79.489 135.053 79.389 135.153Z" fill="#1D1D1B"></path><path d="M74.589 132.552C74.889 134.152 75.189 135.752 75.489 137.452C75.489 137.552 75.589 137.452 75.589 137.452C75.389 135.752 75.089 134.152 74.589 132.552C74.589 132.552 74.689 132.552 74.589 132.552Z" fill="#1D1D1B"></path><path d="M73.3889 132.152C73.7889 134.052 74.0889 135.952 74.5889 137.852C74.5889 137.952 74.7889 137.952 74.7889 137.852C74.4889 135.952 74.0889 134.052 73.6889 132.052C73.5889 131.852 73.3889 131.952 73.3889 132.152Z" fill="#1D1D1B"></path><path d="M73.189 133.152C73.889 134.052 74.989 134.652 76.189 134.952C76.289 134.952 76.289 134.852 76.189 134.852C74.989 134.552 73.989 133.952 73.289 133.052C73.189 132.952 73.089 133.052 73.189 133.152Z" fill="#1D1D1B"></path><path d="M72.5889 135.152C73.3889 135.652 74.5889 135.952 75.6889 135.752C75.7889 135.752 75.7889 135.652 75.6889 135.652C74.5889 135.552 73.689 135.552 72.789 135.052C72.589 134.852 72.3889 135.052 72.5889 135.152Z" fill="#1D1D1B"></path><path d="M72.089 134.353C73.289 134.953 74.889 135.553 76.289 135.453C76.389 135.453 76.389 135.353 76.289 135.353C74.789 135.053 73.489 134.953 72.089 134.253C72.089 134.153 72.089 134.253 72.089 134.353Z" fill="#1D1D1B"></path><path d="M72.589 135.952C73.489 136.452 74.389 136.752 75.489 136.852C75.589 136.852 75.589 136.752 75.489 136.752C74.489 136.552 73.589 136.252 72.689 135.752C72.489 135.852 72.489 135.952 72.589 135.952Z" fill="#1D1D1B"></path><path d="M73.7889 137.452C73.8889 137.452 73.9889 137.552 74.0889 137.552C74.0889 137.452 73.9889 137.452 73.7889 137.452C73.7889 137.452 73.7889 137.352 73.7889 137.452Z" fill="#1D1D1B"></path><path d="M74.789 138.353C75.589 138.853 76.289 139.353 76.889 139.953C76.989 140.053 77.189 139.953 77.089 139.853C76.489 139.153 75.789 138.553 74.989 138.053C74.789 137.953 74.689 138.253 74.789 138.353Z" fill="#1D1D1B"></path><path d="M74.2889 134.153C74.6889 137.453 75.4889 140.653 76.8889 143.753C76.8889 143.853 77.0889 143.853 77.0889 143.753C75.7889 140.653 74.8889 137.453 74.5889 134.253C74.5889 134.053 74.2889 134.053 74.2889 134.153Z" fill="#1D1D1B"></path></g><defs><clipPath id="clip0_74_947"><rect width="164" height="160" fill="white"></rect></clipPath></defs></svg> 