<?xml version="1.0" encoding="UTF-8"?> <svg xmlns="http://www.w3.org/2000/svg" width="65" height="88" viewBox="0 0 65 88" fill="none"><path d="M31.7 73.8C31.3 73.8 31.4 74.1 31.4 74.3C31.4 74.8 31.2 75.5 31.5 75.9C31.6 76 31.7 76 31.8 75.9C32 75.6 31.9 75.2 31.9 74.8C31.9 74.6 31.9 74.4 31.9 74.2C31.7 74.3 31.6 74 31.7 73.8C31.7 73.8 31.8 73.9 31.7 73.8Z" fill="#1D1D1B"></path><path d="M31.8 74.1V74C31.7 74 31.5001 74 31.4001 73.9C31.3001 74.2 31.5001 74.5 32.0001 74.6C32.3001 74.7 32.6001 74.7 32.9001 74.8C33.9001 75.1 33.8 75.6 33.3 76C32.8 76.4 32.3001 76.8 32.1001 77.3C31.8001 77.8 31.8001 78.4 31.7001 78.9C31.6001 80.3 31.5001 81.7 31.6001 83.1C31.6001 83.8 31.7001 84.5 31.7001 85.2C31.7001 85.5 31.7 85.8 31.8 86.1C31.9 86.5 32.2001 86.8 32.2001 87.2C32.2001 87.4 32.7 87.5 32.8 87.3C32.9 87 32.9001 86.9 32.7001 86.6C32.5001 86.2 32.4 85.9 32.3 85.5C32.2 84.8 32.1001 84 32.1001 83.3C32.0001 81.8 32.0001 80.4 32.1001 78.9C32.2001 78.2 32.3001 77.6 32.7001 77C33.1001 76.5 33.8001 76.1 34.1001 75.6C34.3001 75.3 34.3001 74.9 33.9001 74.7C33.3001 74.2 31.9001 74.4 31.7001 73.8C31.7001 73.6 31.3 73.7 31.3 73.8V73.9C31.4 74.2 31.7 74.2 31.8 74.1Z" fill="#1D1D1B"></path><path d="M31.9 74.9C31.9 74.7 31.9 74.6 31.9 74.4C31.7 74.4 31.5 74.4 31.3 74.4C31.5 74.8 31.7 75.1 32.1 75.4C32.2 75.5 32.5 75.5 32.6 75.4C32.9 75.1 32.8 74.8 32.5 74.6C32.4 74.5 32 74.5 32 74.7C31.9 75.1 32 75.5 32.3 75.8C32.4 75.9 32.6 75.9 32.8 75.8C33.2 75.5 33.3 75.2 32.9 74.8C32.8 74.7 32.5 74.7 32.4 74.8C32.2 75.2 32.2 75.6 32.6 75.9C32.7 76 32.9 76 33.1 75.9C33.6 75.6 33.7 75.2 33.5 74.7C33.4 74.5 33 74.5 33 74.7C32.9 75.1 33 75.4 33.2 75.7C33.3 75.8 33.6 75.8 33.7 75.7C34 75.4 34 75.1 33.8 74.7C33.7 74.5 33.3 74.6 33.3 74.8C33.3 75.1 33.3 75.3 33.4 75.6C33.5 75.5 33.7 75.5 33.8 75.4C33.4 75.3 33.3 74.7 32.7 74.9C32 75.2 32.2 75.9 32.5 76.3C32.6 76.4 32.8 76.4 32.9 76.3C33.5 76 33.6 75.6 33.2 75.2C33.1 75.1 32.9 75.1 32.8 75.2C32.1 75.6 31.8 76.1 32 76.8C32 77 32.4 77 32.5 76.8C32.9 76.4 32.9 76.1 32.9 75.6C32.9 75.4 32.5 75.4 32.4 75.6C32.2 75.8 32.1 76.1 31.9 76.3C32.1 76.3 32.3 76.3 32.5 76.4C32.4 76.1 32.3 75.5 31.9 74.9C31.9 74.8 31.5 74.8 31.4 75C31.3 75.7 31.3 76.5 31.6 77.2C31.7 77.5 32.3 77.4 32.2 77.1C32 76.4 31.9 75.8 31.8 75.2C31.8 75 31.2 75 31.2 75.2C31.1 76.6 31.1 78 31.1 79.5C31.1 80.2 31.1 80.8 31.1 81.5C31 82.1 30.6 82.7 30.7 83.4C30.7 83.6 31.2 83.7 31.4 83.5C32.1 82.7 31.9 81.8 31.7 81C31.5 79.8 31.7 78.6 32 77.5C32.1 77.2 31.5 77.1 31.4 77.4C31 78.4 30.9 79.4 31 80.4C31.1 81.4 31.6 82.5 30.7 83.3C30.9 83.3 31.1 83.4 31.4 83.4C31.4 82.8 31.7 82.2 31.8 81.6C31.9 80.9 31.9 80.2 31.8 79.5C31.8 78.1 31.8 76.7 31.7 75.2C31.5 75.2 31.3 75.2 31.1 75.2C31.3 75.8 31.3 76.5 31.4 77.2C31.6 77.2 31.8 77.2 32 77.1C31.7 76.4 31.6 75.7 31.7 75C31.5 75 31.3 75 31.1 75.1C31.4 75.6 31.5 76.1 31.5 76.6C31.5 76.8 32 76.8 32.1 76.7C32.2 76.5 32.3 76.3 32.5 76.1C32.3 76.1 32.1 76.1 32 76.1C32.1 76.4 32 76.7 31.7 77C31.9 77 32.1 77 32.2 77C32.1 76.5 32.3 76.1 32.8 75.8C32.7 75.8 32.5 75.8 32.4 75.8C32.6 76.1 32.5 76.3 32.1 76.5C32.2 76.5 32.4 76.5 32.5 76.5C32.4 76.4 32.2 75.9 32.4 75.8C32.6 75.7 32.5 75.8 32.7 75.9C32.9 76 32.9 76.1 33.1 76.1C33.3 76.2 33.6 76.1 33.5 75.9C33.4 75.7 33.4 75.4 33.4 75.2C33.2 75.2 33 75.2 32.8 75.2C33 75.4 33 75.6 32.8 75.8H33.3C33.1 75.6 33 75.3 33.1 75.1H32.6C32.8 75.4 32.7 75.7 32.4 75.9C32.6 75.9 32.7 75.9 32.9 75.9C32.6 75.6 32.6 75.4 32.8 75.1C32.6 75.1 32.5 75.1 32.3 75.1C32.3 75.3 32.3 75.4 32.2 75.6C32.4 75.6 32.5 75.6 32.7 75.6C32.4 75.3 32.3 75.1 32.4 74.8C32.2 74.8 32.1 74.9 31.9 74.9C31.9 75 31.9 75.1 31.9 75.3C32.1 75.3 32.2 75.3 32.4 75.3C32.1 75.1 31.9 74.8 31.7 74.5C31.6 74.3 31.1 74.4 31.2 74.6C31.3 74.8 31.3 74.9 31.4 75C31.6 75.1 31.9 75.1 31.9 74.9Z" fill="#1D1D1B"></path><path d="M31.6001 82.7C31.4001 83.5 31.3001 84.3 31.5001 85.1C31.6001 85.5 31.7001 85.9 31.9001 86.3C32.1001 86.6 32.5001 87 32.4001 87.3C32.4001 87.4 32.5001 87.4 32.6001 87.4C33.5001 87.2 32.5001 86.3 32.4001 86C31.9001 84.9 31.7001 83.8 31.6001 82.7C31.6001 82.6 31.7001 82.7 31.6001 82.7Z" fill="#1D1D1B"></path><path d="M31.5001 81.6C30.7001 81.7 30.4001 82.5 30.1001 82.9C29.6001 83.6 29.2001 84.3 28.6001 84.9C28.3001 85.2 28.0001 85.5 27.6001 85.8C27.2001 86.1 26.7001 86.2 26.2001 86.5C25.9001 86.7 25.8001 87 26.2001 87.1C26.3001 87.1 26.5001 87.1 26.6001 87.1H26.7001C26.8001 87 26.8001 86.9 26.6001 86.8C27.1001 86.9 27.9001 86.3 28.2001 86.1C28.7001 85.8 29.1001 85.4 29.4001 85C30.2001 84 30.6001 82.7 31.7001 81.9C31.8001 81.7 31.7001 81.6 31.5001 81.6Z" fill="#1D1D1B"></path><path d="M31.0001 82.1C30.2001 82.8 29.4001 83.5 29.2001 84.4C29.1001 84.8 29.2 85.1 29.3 85.5C29.4 86.1 29 86.5 28.8 87.1C28.8 87.2 28.9001 87.3 29.1001 87.2C29.9001 86.7 30 86 29.8 85.3C29.5 84.2 30.4001 83.2 31.2001 82.3C31.3001 82.1 31.1001 82 31.0001 82.1Z" fill="#1D1D1B"></path><path d="M31.5999 77.2C31.5999 77.2 31.4999 77.2 31.5999 77.2C31.5999 77.2 31.4999 77.2 31.5999 77.2C31.4999 77.2 31.3999 77.2 31.3999 77.3V77.3999C31.4999 77.3999 31.4999 77.3999 31.5999 77.3999C31.6999 77.3999 31.6999 77.4 31.5999 77.2L31.6999 77.3C31.6999 77.3 31.6999 77.3 31.5999 77.2C31.6999 77.3 31.6999 77.3 31.6999 77.3C31.6999 77.3 31.5999 77.2 31.5999 77.2Z" fill="#1D1D1B"></path><path d="M31.8001 75.7C31.5001 76 31.5001 76.3 31.4001 76.6C31.2001 77 30.9001 77.4 30.6001 77.7C30.0001 78.3 29.1001 78.8 28.1001 79.3C27.7001 79.5 27.2001 79.7 26.7001 79.8C26.0001 80 25.3001 79.8999 24.6001 79.8999C23.7001 79.8999 22.6001 80.1 21.8001 80.5C21.7001 80.6 21.7001 80.8 21.9001 80.8C22.5001 80.8 23.1001 80.6 23.8001 80.5C24.5001 80.4 25.2001 80.5 25.9001 80.5C27.1001 80.5 28.2001 80 29.1001 79.5C30.0001 79 30.8001 78.5 31.4001 77.8C31.7001 77.1 32.4001 76.2 31.8001 75.7C31.8001 75.7 31.9001 75.7 31.8001 75.7Z" fill="#1D1D1B"></path><path d="M31.6 77.4001C28.5 78.8001 26.1 80.8001 23 82.3001C21.8 82.9001 20.2 83.2001 19.1 83.9001C18.3 84.4001 17.5999 85.4001 18.2999 86.1001C18.3999 86.2001 18.7 86.2001 18.7 86.0001C18.5 84.8001 19.5 84.1001 21 83.6001C22.3 83.1001 23.5 82.7001 24.6 82.0001C25.8 81.3001 27 80.6001 28.1 79.9001C29.4 79.1001 30.6999 78.4001 31.8999 77.6001C32.0999 77.5001 31.9 77.3001 31.6 77.4001Z" fill="#1D1D1B"></path><path d="M21.9001 83.1C21.3001 83.4 21.0001 83.9 20.9001 84.4C20.8001 84.7 20.9001 84.9 20.8001 85.2C20.8001 85.5 20.6001 85.8 20.6001 86.1C20.6001 86.2 20.7001 86.2 20.8001 86.2C21.4001 86 21.4001 85.5 21.4001 85.2C21.4001 84.5 21.7001 83.9 22.1001 83.2C22.2001 83.1 22.0001 83.1 21.9001 83.1Z" fill="#1D1D1B"></path><path d="M31.6001 77.7C31.1001 78.3 30.8001 79 30.2001 79.6C29.6001 80.3 28.8001 80.7999 28.0001 81.3999C27.2001 81.8999 26.5001 82.3999 25.7001 82.8999C24.9001 83.3999 23.9001 83.7999 23.4001 84.3999C23.3001 84.4999 23.5001 84.6 23.6001 84.6C24.6001 84.4 25.4001 83.7 26.2001 83.3C27.1001 82.7 28 82.2 28.8 81.6C30.2 80.6 31.8001 79.2 31.7001 77.8C31.8001 77.7 31.6001 77.7 31.6001 77.7Z" fill="#1D1D1B"></path><path d="M27.8999 82C27.2999 82.2 27.0999 82.5 26.7999 82.8C26.3999 83.3 25.9999 83.8 25.4999 84.3C24.8999 85.1 23.6999 86.1 23.8999 87C23.8999 87.2 24.2999 87.2 24.3999 87C24.5999 86.6 24.6999 86.1 24.9999 85.7C25.2999 85.3 25.6999 84.8 25.9999 84.4C26.2999 84 26.6999 83.6 26.9999 83.1C27.2999 82.7 27.4999 82.2 28.0999 81.9C28.1999 82 27.9999 81.9 27.8999 82Z" fill="#1D1D1B"></path><path d="M31.8 74.4C31.2 74.7 30.8001 75.1 30.2001 75.4C29.6001 75.7 28.9001 76 28.1001 76.3C26.5001 76.9 24.7001 77.4 23.0001 77.9C21.7001 78.2 20.4001 78.5 19.7001 79.3C19.3001 79.7 19.1 80.2 18.8 80.6C18.4 81.1 17.8001 81.5 17.4001 82C17.3001 82.1 17.5001 82.2 17.6001 82.1C18.9001 81.6 19.5001 80.6 20.1001 79.8C20.9001 78.7 23.0001 78.4 24.6001 77.9C26.2001 77.4 27.8 77 29.3 76.4C30.4 75.9 31.7001 75.3 32.1001 74.5C32.0001 74.4 31.9 74.4 31.8 74.4Z" fill="#1D1D1B"></path><path d="M27.1999 76.8999C25.7999 76.7999 24.6999 77.1 23.3999 76.6C22.7999 76.4 22.0999 76.2 21.6999 76.6C21.5999 76.7 21.6999 76.8 21.8999 76.8C22.8999 76.8 23.5999 77.3 24.5999 77.3C25.4999 77.4 26.4999 77.2999 27.1999 76.8999C27.2999 76.8999 27.2999 76.8999 27.1999 76.8999Z" fill="#1D1D1B"></path><path d="M23.2 78C21.7 77.7 20.1 77.6 19.2 76.7C18.8 76.2 18.2 75.4001 17.2 75.6001C17.1 75.6001 17 75.7 17.1 75.8C17.6 76.1 18 76.4 18.4 76.8C18.7 77.2 19 77.5 19.6 77.7C20.6 78.2 21.9 78.3 23.1 78.2C23.4 78.2 23.4 78 23.2 78Z" fill="#1D1D1B"></path><path d="M18.8999 76.7C18.2999 76.6 17.5999 76.5 16.9999 76.4C16.3999 76.3 15.7999 76 15.1999 75.9C15.0999 75.9 14.8999 76 14.9999 76.1C15.6999 76.8 17.7999 77.2 18.9999 76.9C18.9999 76.9 18.9999 76.7 18.8999 76.7Z" fill="#1D1D1B"></path><path d="M22.2001 78.2C20.4001 78.1 18.2001 78 16.7001 78.8C15.4001 79.5 14.7001 80.7 15.1001 81.8C15.1001 81.9 15.4001 81.9 15.4001 81.8C15.7001 80.7 15.9001 79.6 17.5001 79C18.8001 78.5 20.8001 78.6 22.3001 78.4C22.3001 78.3 22.3001 78.2 22.2001 78.2Z" fill="#1D1D1B"></path><path d="M16.7999 78.8C16.5999 79 16.5999 79.4001 16.4999 79.6001C16.3999 79.9001 16.3 80.2001 16.2 80.6001C16.2 80.7001 16.3999 80.7 16.3999 80.7C16.6999 80.4 16.7999 80 16.8999 79.7C16.9999 79.4 17.0999 79.1 16.8999 78.8C16.9999 78.8 16.8999 78.8 16.7999 78.8Z" fill="#1D1D1B"></path><path d="M31.9 76.6C32.1 76.1 31.4 75.6 30.6 75.7C30 75.8 29.4 76 28.8 76.2C28.1 76.5 27.3 76.7 26.6 77C26.5 77.1 26.6 77.2 26.8 77.2C27.6 77.1 28.3 76.8 29 76.6C29.8 76.3 31.3 75.6 31.8 76.6C31.8 76.6 31.9 76.6 31.9 76.6Z" fill="#1D1D1B"></path><path d="M31.5001 75.3C31.3001 75.4 31.1001 75.5 30.9001 75.6C31.1001 75.6 31.2001 75.7 31.4001 75.7V75.5C31.4001 75.4 31.3001 75.3 31.1001 75.3C30.8001 75.4 30.6001 75.5 30.5001 75.7C30.4001 75.8 30.6 76 30.8 75.9C31.1 75.8 31.3001 75.6 31.4001 75.4C31.5001 75.3 31.3001 75.2 31.1001 75.2C30.9001 75.3 30.7001 75.3 30.5001 75.5C30.3001 75.7 30.6 75.9 30.8 75.7C31.1 75.5 31.4001 75.3 31.5001 75C31.6001 74.8 31.2001 74.7 31.1001 74.9C30.9001 75.1 30.8001 75.2 30.6001 75.4C30.7001 75.4 30.9001 75.5 31.0001 75.5C31.2001 75 31.5001 74.5 31.7001 74C31.5001 74 31.4001 73.9 31.2001 73.9C31.0001 74.6 30.4 75.1 29.8 75.6C29.8 75.6 29.8001 75.7 29.9001 75.7C30.9001 75.4 31.5001 74.7 31.7001 74C31.8001 73.8 31.3001 73.7 31.2001 73.9C31.0001 74.4 30.7001 74.9 30.5001 75.4C30.4001 75.6 30.8001 75.7 30.9001 75.5C31.0001 75.3 31.2001 75.1 31.4001 75C31.3001 75 31.1001 74.9 31.0001 74.9C30.9001 75.1 30.7001 75.3 30.4001 75.5C30.5001 75.6 30.6001 75.6 30.7001 75.7C30.8001 75.6 30.9001 75.6 31.1001 75.5C31.0001 75.4 30.9 75.4 30.8 75.3C30.7 75.4 30.6001 75.6 30.4001 75.6C30.5001 75.7 30.6001 75.7 30.7001 75.8C30.8001 75.7 30.9001 75.6 31.1001 75.5C31.0001 75.4 30.9 75.4 30.8 75.3C30.8 75.4 30.7001 75.5 30.7001 75.5C30.6001 75.6 31.0001 75.8 31.1001 75.7C31.3001 75.6 31.4001 75.4 31.5001 75.3C31.7001 75.4 31.6001 75.3 31.5001 75.3Z" fill="#1D1D1B"></path><path d="M31.5 74.5C30.8 74.9 30.2001 75.5 29.2001 75.5C28.4001 75.5 27.8 75.3 27 75.5C26.9 75.5 26.9 75.7 27 75.7C27.9 75.9 28.9 76 29.8 75.8C30.7 75.6 31.3001 75.1 31.7001 74.6C31.8001 74.5 31.6 74.4 31.5 74.5Z" fill="#1D1D1B"></path><path d="M30.8001 75.6C30.1001 76 29.4001 76.3 29.1001 76.9C28.9001 77.3 28.8001 77.7 28.4001 78C28.0001 78.3 27.5001 78.4 27.2001 78.7C27.1001 78.8 27.2001 78.8 27.3001 78.8C28.1001 78.7 28.9001 78.3 29.3001 77.8C29.6001 77.4 29.6001 77 29.8001 76.7C30.1001 76.4 30.6001 76 31.0001 75.7C31.0001 75.7 30.9001 75.6 30.8001 75.6Z" fill="#1D1D1B"></path><path d="M31.8001 79.8C30.8001 80.9 32.3001 82.3 33.1001 83.3C33.6001 83.8 33.9001 84.5 34.5001 84.9C34.8001 85.1 35.2001 85.3001 35.6001 85.6001C36.1001 86.0001 36.4001 86.3 36.6001 86.8C36.6001 86.9 36.9001 86.9 36.9001 86.8C37.2001 86.3 36.9001 85.9001 36.4001 85.6001C35.7001 85.0001 34.8001 84.6 34.3001 84C33.8001 83.4 33.3001 82.8 32.8001 82.2C32.1001 81.4 32.0001 80.7 31.9001 79.8C31.9001 79.8 31.8001 79.8 31.8001 79.8Z" fill="#1D1D1B"></path><path d="M34.9 85.1C35 85 34.9 84.9 34.8 84.8C34.7 84.7 34.5 84.8 34.5 84.9C34.2 85.4 34.4 86.3 35.1 86.7C35.2 86.7 35.4 86.7 35.4 86.6C35.4 86.3 35.2 86.1 35.1 85.9C35 85.6 35 85.3 34.9 85C34.8 85 34.8 85.1 34.7 85.1L34.8 85.2C34.8 85.2 34.9 85.2 34.9 85.1Z" fill="#1D1D1B"></path><path d="M33.3999 75.3C33.3999 76.2 34.8999 76.6 36.0999 76.9C38.0999 77.4 39.7999 78.3 41.3999 79.2C42.1999 79.6 42.8999 80.1 43.4999 80.6C43.9999 81.1 44.3999 81.7 44.7999 82.2C45.1999 82.7 45.7999 83.2 46.2999 83.7C46.9999 84.3 47.3999 84.9 47.4999 85.7C47.4999 85.8 47.7999 85.8 47.7999 85.7C48.4999 84.6 46.8999 83.6 45.9999 82.7C44.9999 81.7 44.4999 80.5 43.0999 79.6C41.7999 78.7 40.1999 77.9 38.5999 77.3C37.7999 77 36.8999 76.7 35.9999 76.5C34.9999 76.3 33.9999 76 33.5999 75.3C33.5999 75.2 33.3999 75.2 33.3999 75.3Z" fill="#1D1D1B"></path><path d="M32.3 77.7C33.2 76.8 34.5 76.5 36.1 76.9C37.4 77.2 38.5 77.9 39.8 78.1C39.9 78.1 40.1 78 40 77.9C38.7 77.2 36.8 76.4 35.1 76.4C33.9 76.4 32.3 76.8 32.1 77.7C32 77.8 32.2 77.8 32.3 77.7Z" fill="#1D1D1B"></path><path d="M33.8 76.2C33.7 76.2 33.6 76.2 33.5 76.2C33.5 76.3 33.6 76.3 33.6 76.4C33.9 76.4 34.2 76.3 34.6 76.4C34.9 76.4 34.9 76.1 34.7 76.1C34 76 33.4 76.2 33.1 76.7C33 76.8 33.2 76.9 33.3 76.9C33.6 76.9 33.9 76.8 34.2 76.7C34.4 76.6 34.3 76.4 34 76.4C33.9 76.4 33.8 76.4 33.7 76.4C33.4 76.4 33.5 76.8 33.8 76.7C34.1 76.7 34.3 76.6 34.5 76.5C34.7 76.4 34.7 76.2 34.4 76.2C34.2 76.2 34.1 76.2 33.8 76.2C33.6 76.1 33.5 76.3 33.7 76.4C33.9 76.5 34.1 76.5 34.3 76.5C34.3 76.4 34.3 76.3 34.2 76.2C34 76.3 33.9 76.3 33.7 76.3C33.7 76.4 33.7 76.5 33.8 76.6C33.9 76.6 34 76.6 34.1 76.6C34 76.5 34 76.4 33.9 76.3C33.7 76.4 33.5 76.5 33.3 76.5C33.4 76.6 33.5 76.6 33.5 76.7C33.6 76.4 34.1 76.3 34.5 76.3C34.5 76.2 34.5 76.1 34.6 76C34.2 76 33.8 76 33.5 76.2C33.3 76.3 33.5 76.4 33.6 76.4C33.7 76.4 33.7 76.4 33.8 76.3C34 76.3 33.9 76.2 33.8 76.2Z" fill="#1D1D1B"></path><path d="M36 76.8C37 76.9 37.9 77.4 39 77.3C40.2 77.3 41.1001 76.7 42.1001 76.4C42.7001 76.2 43.4001 75.9 44.2001 75.9C44.7001 75.9 45.3001 76 45.7001 75.9C46.4001 75.7 47.1001 75 47.2001 74.5C47.2001 74.5 47.1 74.4 47 74.4C46.7 74.6 46.5001 74.8 46.2001 75C45.7001 75.4 45.2 75.5 44.4 75.5C43.4 75.5 42.5001 75.8 41.7001 76.1C40.7001 76.5 39.6 77.1 38.4 77C37.6 76.9 36.9 76.5 36 76.6C35.9 76.6 35.9 76.8 36 76.8Z" fill="#1D1D1B"></path><path d="M40.9001 76.6C41.7001 76.5 42.1001 76 42.5001 75.6C42.8001 75.3 43.0001 75 43.6001 74.8C44.1001 74.7 44.6001 74.7 45.0001 74.6C45.1001 74.6 45.1001 74.4 45.0001 74.4C44.3001 74.2 43.2001 74.4 42.6001 74.8C41.8001 75.3 41.7 76.1 40.8 76.6C40.8 76.6 40.8001 76.6 40.9001 76.6Z" fill="#1D1D1B"></path><path d="M38.8 77.3C39.4 77.7 40.6001 77.8 41.5001 78C42.4001 78.2 43.2001 78.4 44.2001 78.4C45.1001 78.4 46.1001 78.3 47.0001 78.2C48.0001 78.1 50.1001 77.7 50.5001 78.5C50.6001 78.6 50.8001 78.6 50.9001 78.5C51.2001 78.1 50.7001 77.7 50.1001 77.6C49.1001 77.4 47.9 77.5 46.8 77.7C45.3 77.9 44.1001 78 42.6001 77.8C42.0001 77.7 41.3001 77.6 40.7001 77.4C40.0001 77.4 39.5 77.2 38.8 77.3Z" fill="#1D1D1B"></path><path d="M44.5 78.4C45.3 78.7 45.6 79 45.9 79.5C46.1 79.8 46.3 80 46.6 80.3C47.2 80.7 48.1 81.2 49 81.2C49.2 81.2 49.4 81 49.2 80.9C48.8 80.7 48.3 80.6 47.8 80.4C47.2 80.1 46.8 79.8 46.5 79.3C46.2 78.8 45.6 78.3 44.6 78.3C44.4 78.2 44.4 78.3 44.5 78.4Z" fill="#1D1D1B"></path><path d="M46 79.6C46.6 79.6 47.3 79.5 47.9 79.5C48.4 79.6 48.8 79.8 49.2 80C49.3 80.1 49.5 80 49.5 79.9C49.3 78.9 46.9 79.1 45.9 79.4C45.7 79.5 45.8 79.6 46 79.6Z" fill="#1D1D1B"></path><path d="M38.8999 77.8C39.1999 78.5 40.4999 78.9 41.2999 79.3C42.5999 80 43.3999 80.8 42.9999 81.9C42.6999 82.6 42.1999 83.3 42.2999 84.1C42.3999 84.5 42.6999 85.1 43.3999 85.2C43.5999 85.2 43.6999 85.1 43.5999 85C43.3999 84.7 42.9999 84.5 42.8999 84.2C42.7999 83.8 42.8999 83.4 43.0999 83.1C43.3999 82.4 43.8999 81.7 43.6999 81C43.4999 80.4 42.8999 79.8 42.0999 79.4C41.1999 78.9 39.8999 78.5 39.1999 77.8C39.1999 77.6 38.8999 77.7 38.8999 77.8Z" fill="#1D1D1B"></path><path d="M42.8 83.2C43.2 83.4 43.7 83.5 44.1 83.7C44.5 83.9 44.6 84.1 44.9 84.3C45 84.3 45.1 84.3 45.1 84.3C45.8 83.7 43.6 83.1 43 82.9C42.7 82.8 42.5 83 42.8 83.2Z" fill="#1D1D1B"></path><path d="M44.2 81.1999C44.2 81.9999 45.2999 82.6999 46.3999 82.9999C47.0999 83.1999 47.9 83.2999 48.7 83.3999C49.2 83.3999 49.5999 83.3999 50.0999 83.4999C50.9999 83.5999 51.5 83.7999 51.7 84.3999C51.7 84.4999 51.8999 84.4999 51.9999 84.4999C52.2999 84.1999 52.2999 83.9 51.8999 83.6C51.3999 83.2 50.5 83.1 49.7 83.1C48.6 83 47.4999 82.9999 46.4999 82.6999C45.3999 82.3999 44.7999 81.8999 44.3999 81.1999C44.4999 80.9999 44.2 81.0999 44.2 81.1999Z" fill="#1D1D1B"></path><path d="M38.3999 77.6C38.4999 78 38.9999 78.3 39.3999 78.6C39.7999 79 40.0999 79.4 40.3999 79.9C40.5999 80.3 40.7999 80.8 40.7999 81.3C40.7999 81.8 40.5999 82.2 40.4999 82.6C40.4999 82.7 40.6999 82.7 40.7999 82.7C41.7999 82 41.5999 80.8 41.0999 79.9C40.7999 79.4 40.4999 79 39.9999 78.5C39.5999 78.1 39.1999 77.6 38.4999 77.4C38.4999 77.5 38.3999 77.6 38.3999 77.6Z" fill="#1D1D1B"></path><path d="M35.6999 76.7C33.8999 77.8 35.6999 79.7999 36.7999 80.8999C37.5999 81.6999 38.4999 82.5 38.5999 83.5C38.6999 84.3 38.3999 85.1999 39.0999 85.8999C39.1999 85.9999 39.4999 85.9 39.3999 85.8C39.1999 85 39.3999 84.1 39.1999 83.3C39.0999 82.6 38.5999 81.9999 38.0999 81.3999C37.3999 80.6999 36.5999 80.1 36.0999 79.3C35.4999 78.4 35.5999 77.7 35.9999 76.8C36.0999 76.7 35.8999 76.7 35.6999 76.7Z" fill="#1D1D1B"></path><path d="M34.9999 77.4C34.7999 78.1 35.2999 78.8 35.8999 79.3C36.2999 79.7 36.9999 79.9 37.3999 80.3C37.7999 80.7 37.8999 81.1 38.2999 81.5C38.3999 81.6 38.6999 81.6 38.6999 81.4C38.7999 80.7 38.1999 80.1 37.4999 79.7C36.9999 79.4 36.4999 79.1 36.0999 78.7C35.6999 78.3 35.4999 77.8 35.2999 77.4C35.1999 77.4 34.9999 77.4 34.9999 77.4Z" fill="#1D1D1B"></path><path d="M35.3999 78.3C35.4999 77.7 35.7999 76.1 34.1999 76.4C33.8999 76.5 33.9999 76.8 34.2999 76.8C34.3999 76.8 35.5999 77.0001 35.3999 77.1001C35.4999 77.1001 35.6999 77.1001 35.7999 77.1001C35.5999 76.8001 35.2999 76.6 34.8999 76.5C34.8999 76.6 34.7999 76.7 34.7999 76.8C35.2999 76.8 35.6999 76.9 36.1999 77C36.5999 77.1 36.8999 77.3 37.1999 77.3C37.2999 77.3 37.4999 77.2001 37.3999 77.1001C36.8999 76.6001 35.5999 76.4 34.7999 76.4C34.4999 76.4 34.3999 76.6 34.6999 76.7C34.9999 76.8 35.1999 77 35.2999 77.2C35.3999 77.3 35.5999 77.4 35.6999 77.3C35.9999 77.1 36.0999 76.9 35.7999 76.7C35.3999 76.4 34.7999 76.3 34.2999 76.3C34.2999 76.4 34.3999 76.6 34.3999 76.7C34.5999 76.8 34.6999 76.8 34.8999 76.9C34.9999 77 34.9999 77.0001 34.9999 77.1001C34.9999 77.2001 35.0999 77.3 35.0999 77.4C35.1999 77.7 35.2999 78 35.2999 78.3C35.1999 78.4 35.3999 78.4 35.3999 78.3Z" fill="#1D1D1B"></path><path d="M34.4 76.4C32.7 76.5 32.9 78.6 33.1 79.3C33.3 79.9 33.7 80.5 34.3 81C34.7 81.3 35.1 81.5 35.5 81.8C36.1 82.2 36.2 82.6 36.2 83.2C36.2 83.3 36.4 83.3 36.5 83.3C37.9 82.5 35.6 81.4 34.9 80.8C34.2 80.2 33.8 79.5 33.7 78.8C33.6 78.3 33.5 77 34.5 76.7C34.6 76.5 34.6 76.3 34.4 76.4Z" fill="#1D1D1B"></path><path d="M33.5 79.4C32.8 80.4 33.1 82.2 34.6 82.9C34.8 83 35 82.9 34.9 82.7C34.6 82.2 34.1 81.7 33.9 81.2C33.7 80.6 33.7 80 33.7 79.4C33.7 79.3 33.5 79.3 33.5 79.4Z" fill="#1D1D1B"></path><path d="M33.2 77.9C33.6 77.5 33.6 77.1 34.1 76.8C34.2 76.7 34.0999 76.6 33.8999 76.6C33.5999 76.6 33.4999 76.8 33.3999 77C33.2999 77.3 33.1 77.6 33.2 77.9C33.2 77.9 33.1 77.9 33.2 77.9Z" fill="#1D1D1B"></path><path d="M32.9999 78.6C33.4999 78 32.9 77.2999 32.2 76.7999C32.1 76.8999 31.9999 76.9999 31.8999 76.9999C32.4999 77.2999 32.6999 77.7 32.7999 78.1C32.7999 78.2 33.1 78.2 33.1 78.1C33 77.9 33.2 77.5999 33.2 77.3999C33.2 77.1999 33.2 76.8999 33.1 76.6999C33.1 76.5999 32.7999 76.4999 32.7999 76.6999C32.6999 76.8999 32.6 77.0999 32.7 77.3999C32.7 77.5999 33.1 77.5999 33.2 77.3999C33.2 77.1999 33.2999 76.9999 33.2999 76.7999C33.1999 76.7999 32.9999 76.7999 32.8999 76.7999C32.8999 77.1999 32.9 77.4999 33.2 77.7999C33.3 77.8999 33.4999 77.7999 33.4999 77.6999C33.4999 77.3999 33.3999 76.9999 33.3999 76.6999C33.3999 76.5999 32.9999 76.4999 32.9999 76.6999C32.9999 76.8999 32.8999 77.0999 32.7999 77.2999C32.8999 77.2999 33.1 77.2999 33.2 77.2999C33.2 77.0999 33.2 76.8999 33.2 76.6999C33.1 76.6999 32.9999 76.6999 32.8999 76.6999C33.0999 76.9999 33.3999 77.8 32.9999 78.1C33.0999 78.1 33.1 78.1999 33.2 78.1999C33.5 77.6999 32.9 77.0999 32.2 76.7999C32 76.6999 31.6999 76.8999 31.8999 76.9999C32.5999 77.3999 32.6999 77.9 32.7999 78.6C32.8999 78.7 32.9999 78.7 32.9999 78.6Z" fill="#1D1D1B"></path><path d="M33.3 77.8001C33.4 77.6001 33.5 77.4001 33.6 77.3001C33.6 77.3001 33.5 77.2001 33.5 77.3001C33.4 77.5001 33.2 77.6001 33.1 77.8001C33 77.8001 33.2 77.9001 33.3 77.8001Z" fill="#1D1D1B"></path><path d="M31.9001 74.6C32.0001 74 31.9001 73.5 31.8001 72.9C31.8001 72.8 31.5001 72.8 31.5001 72.9C31.6001 73.4 31.7001 73.9 31.8001 74.4C31.9001 74.4 32.0001 74.4 32.1001 74.4C31.8001 73.7 31.5001 73 32.0001 72.3C32.4001 71.8 32.9001 71.3 33.3001 70.8C33.7001 70.2 34.1001 69.6 34.7001 69.1C35.2001 68.7 35.9001 68.3 36.5001 67.9C38.7001 66.4 39.8001 64.5 39.8001 62.5C39.8001 62.4 39.5001 62.3 39.4001 62.5C39.0001 63.8 39.3001 65.1 39.2001 66.3C39.0001 67.6 38.2001 68.8 37.1001 69.9C36.5001 70.4 35.9001 70.9 35.2001 71.3C34.7001 71.6 34.2001 71.9 34.0001 72.4C33.5001 73.5 33.5001 75 33.9001 76.1C33.9001 76.2 34.2001 76.2 34.2001 76.1C34.2001 75.5 34.1001 74.8 34.2001 74.2C34.2001 73.5 34.2001 72.6 34.9001 71.9C35.4001 71.5 36.1001 71.1 36.6001 70.7C37.1001 70.3 37.6001 69.9 38.0001 69.4C38.8001 68.5 39.3001 67.6 39.5001 66.6C39.8001 65.2 39.3001 63.8 39.8001 62.5H39.4001C39.4001 63.7 38.9001 64.9 38.1001 65.9C37.3001 67 36.0001 67.8 34.7001 68.6C33.5001 69.4 33.0001 70.5 32.1001 71.4C31.3001 72.5 31.3001 73.4 31.9001 74.6C31.8001 74.6 32.1001 74.6 32.1001 74.5C32.0001 74 31.9001 73.5 31.8001 73C31.7001 73 31.6001 73 31.5001 73C31.6001 73.5 31.7001 74.1 31.7001 74.6C31.6001 74.7 31.8001 74.7 31.9001 74.6Z" fill="#1D1D1B"></path><path d="M35.4 71.7C36.6 70.9 38.7999 71.1 40.2999 71.5C41.5999 71.8 42.7 72.3 44 72.6C45.6 73 48.3 73.1 49.1 71.8C49.2 71.7 48.9999 71.6 48.7999 71.7C46.4999 73.3 43.7 72.1 41.2 71.3C39.5 70.8 36.4 70.2 35.4 71.7C35.3 71.7 35.3 71.7 35.4 71.7Z" fill="#1D1D1B"></path><path d="M37.1001 70.3C38.0001 70.3 38.8001 70.5 39.5001 70.9C39.9001 71.1 40.2001 71.3 40.8001 71.2V71.1C40.0001 71 39.6001 70.4 38.9001 70.2C38.4001 70.1 37.8001 70 37.3001 70C37.3001 70 37.2001 70 37.2001 70.1C37.1001 70.3 37.1001 70.3 37.1001 70.3Z" fill="#1D1D1B"></path><path d="M39 70.4C40.2 70.7 41.6 70.8 42.9 70.9C44 71 45.1001 71.2 46.2001 71.1C48.0001 70.9 49.4001 70.2 50.2001 69.1C50.1001 69.1 49.9 69 49.8 69C49.2 70 49.4 71.1 48.3 72C48.2 72 48.3 72.1 48.4 72.1C50 71.5 49.6001 70.1 50.2001 69.1C50.3001 68.9 49.9 68.8 49.8 69C48.9 70.1 47.2001 70.8 45.2001 70.8C43.1001 70.8 41.1 70.3 39 70.3C38.9 70.3 38.9 70.4 39 70.4Z" fill="#1D1D1B"></path><path d="M32.8999 71C33.2999 70.3 32.4999 69.4 31.8999 68.8C31.1999 68.1 30.2999 67.6 29.1999 67.1C27.9999 66.5 26.5999 66.1 25.3999 65.5C23.9999 64.9 22.8999 64.3 21.6999 63.5C21.5999 63.4 21.3999 63.5 21.4999 63.6C22.6999 65.1 25.5999 65.9 27.6999 66.7C28.8999 67.2 30.0999 67.7 31.0999 68.5C31.5999 68.9 32.0999 69.4 32.3999 69.9C32.4999 70.3 32.5999 70.7 32.8999 71C32.8999 71.1 32.7999 71.1 32.8999 71Z" fill="#1D1D1B"></path><path d="M31.3001 72.6C30.9001 70.9 29.7001 69.2 27.9001 68C27.0001 67.4 26.1001 66.9 25.2001 66.4C24.7001 66.1 24.3001 65.8 23.9001 65.5C23.5001 65.2 23.2001 64.7 22.8001 64.4H22.6001C22.7001 65.1 23.5001 65.7 24.2001 66.2C25.0001 66.8 26.0001 67.3 26.9001 67.9C27.9001 68.5 28.8001 69.1 29.5001 69.9C30.2001 70.8 30.6001 71.8 31.2001 72.7C31.2001 72.8 31.3001 72.7 31.3001 72.6Z" fill="#1D1D1B"></path><path d="M29.9999 70.7C30.0999 70.3 29.3999 70.2 28.8999 70.2C27.3999 70.1 26.0999 70.2 24.7999 70.6C23.4999 71 22.1999 71.5 20.6999 71.4C19.7999 71.4 18.8999 71.2 17.9999 70.9C17.3999 70.7 16.7999 70.5 16.0999 70.4C15.9999 70.4 15.8999 70.5 15.9999 70.5C16.6999 71 18.0999 71.4 19.0999 71.6C20.1999 71.8 21.2999 71.8 22.3999 71.6C23.4999 71.4 24.4999 71 25.5999 70.7C26.1999 70.6 29.8999 70.1 29.9999 70.7C29.9999 70.7 29.8999 70.7 29.9999 70.7Z" fill="#1D1D1B"></path><path d="M15.8999 70.6C16.8999 71.3 18.3999 72.1 19.6999 72.6C20.8999 73 22.0999 73.1 23.4999 72.8C24.9999 72.5 26.3999 72 27.9999 72C28.8999 72 29.6999 72.2 30.3999 72.6C30.8999 72.9 31.1999 73.2 31.5999 73.5C31.6999 73.5 31.7999 73.5 31.7999 73.4C31.7999 72.7 30.4999 72.1 29.5999 71.8C28.2999 71.4 26.8999 71.6 25.5999 71.9C23.9999 72.3 22.4999 72.8 20.7999 72.5C18.7999 72.2 17.5999 71.1 15.8999 70.6C15.7999 70.5 15.8999 70.5 15.8999 70.6Z" fill="#1D1D1B"></path><path d="M31.4 63.3V63.2C31.3 63.2 31.2 63.2 31.2 63.2C31.3 64.2 31.3 65.2 31.2 66.1C31.2 67 30.9 68 31.2 68.8C31.2 68.9 31.4 68.9 31.4 68.8C31.8 68 31.6 66.9 31.6 66.1C31.6 65.1 31.5 64.1 31.4 63.2C31.4 63.1 31.2 63.1 31.2 63.2L31.1 63.3V63.4C31.1 63.4 31.2 63.4 31.2 63.5C31.3 63.4 31.5 63.3 31.4 63.3Z" fill="#1D1D1B"></path><path d="M34.3 64.8C34.4 64.8 34.4 64.8 34.3 64.8C34.4 64.8 34.4 64.8 34.3 64.8C34.4 64.7 34.3 64.6 34.2 64.7C34 64.8 34 65 34 65.2C34 65.7 34 66.2 34 66.7C34 67.1 34 67.6 34 68C34 68.4 34 68.8 34.3 69.1H34.4C34.6 68.8 34.5 68.5 34.4 68.2C34.4 67.8 34.4 67.4 34.3 67C34.3 66.6 34.3 66.2 34.3 65.8C34.3 65.6 34.3 65.4 34.3 65.2C34.3 65.1 34.3 65 34.3 65C34.5 64.9 34.5 64.8 34.3 64.8Z" fill="#1D1D1B"></path><path d="M1.20001 49.6C3.90001 48.5 7.00001 48 10.1 47.9C13.3 47.8 17.1 47.8 19.8 49C21.1 49.6 22.3 50.3 23.3 51.1C24.5 51.9 24.9 52.8999 25.7 53.8999C26.4 54.7999 27.3 55.7 28.2 56.5C29.1 57.5 29.8 58.5 30.5 59.5C31 60.4 31.6 61.3 32.7 62C33.3 62.4 34.3 62.6 34.7 63C35.3 63.6 34.5 64.3999 34 64.8999C33.8 65.0999 34.3 65.3 34.5 65.1C35.2 64.4 35.9 63.6 35.2 62.8C34.8 62.4 34.1 62.2 33.6 62C32.9 61.7 32.3 61.2 31.9 60.7C31 59.7 30.6 58.5 29.7 57.5C28.9 56.5 27.8 55.5 26.9 54.5C26 53.5 25.5 52.2999 24.4 51.3999C23.4 50.5999 22.2 49.8 20.9 49.2C18.2 47.8 14.8 47.7 11.4 47.7C7.69999 47.7 4 48.2 1 49.6C1 49.5 1.10001 49.6 1.20001 49.6Z" fill="#1D1D1B"></path><path d="M15.4 48.1C15 47.9 15.6 48.2 15.6 48.3C15.8 48.4 16 48.5 16.2 48.7C16.6 48.9 17 49.2 17.4 49.5C18.2 50.1 18.8 50.8 19.4 51.5C20.5 52.9 21.4 54.5 22.6 55.9C23.8 57.3 25.7 58.4 27.1 59.8C27.7 60.4 28.2 61.1 28.9 61.7C29.2 62 29.5 62.2 29.8 62.5C30.3 62.9 31.1 63.2 31.1 63.7C31.1 63.7 31.2 63.8 31.2 63.7C31.8 63.2 31.1 62.8 30.6 62.4C29.6 61.7 29 60.9001 28.3 60.1001C26.9 58.6001 25 57.4 23.6 55.9C22.2 54.4 21.3 52.7 20 51.2C18.9 49.9 17.4 48.4 15.2 47.8C15.1 47.8 15 47.9 15.1 47.9C15.1 48 15.3 48 15.4 48.1Z" fill="#1D1D1B"></path><path d="M0.599915 49.8001C2.39991 47.9001 5.39992 46.3001 8.69992 45.9001C12.1999 45.5001 15.3999 46.5 17.8999 48.1C17.8999 48.1 17.9999 48.1 17.8999 48.1C16.0999 46.1 12.3999 45.2001 8.99991 45.5001C5.09991 45.8001 2.1999 47.6001 0.399902 49.8001C0.399902 49.8001 0.599915 49.9001 0.599915 49.8001Z" fill="#1D1D1B"></path><path d="M16.8001 47.4C16.7001 47.8 17.5001 48.2 18.0001 48.3C18.2001 48.3 18.3001 48.2 18.1001 48.1C17.8001 48 17.6001 47.9 17.4001 47.8C17.1001 47.6 17.0001 47.5 16.8001 47.4Z" fill="#1D1D1B"></path><path d="M16.3999 47.1C16.5999 47.5 17.1999 48 17.8999 48.1C17.9999 48.1 17.9999 48.1 18.0999 48.1V48C17.7999 47.9 17.4999 47.7 17.2999 47.6C17.0999 47.4 16.7999 47.3 16.5999 47.1C16.4999 47 16.3999 47.1 16.3999 47.1Z" fill="#1D1D1B"></path><path d="M0.500049 49.8C0.800049 49.7 1.10004 49.6 1.40004 49.5C1.60004 49.4 1.90005 49.3 2.10005 49.1C1.80005 49.1 1.60004 49.3 1.30004 49.4C0.900037 49.5 0.700049 49.6 0.500049 49.8C0.400049 49.9 0.400049 49.8 0.500049 49.8Z" fill="#1D1D1B"></path><path d="M34.0999 54.2C34.1999 54.1 34.1999 54 34.2999 53.9C34.1999 53.9 34.0999 53.9 33.9999 53.8C33.7999 55.3 33.5999 57.1 34.0999 58.6C34.3999 59.4 35.1 60.2 34.7 61C34.5 61.5 33.9999 62 34.4999 62.5C34.5999 62.6 34.7999 62.5 34.7999 62.4C34.6999 61.7 35.2999 61.2 35.2999 60.6C35.2999 59.9 34.7999 59.3 34.5999 58.7C34.0999 57.1 34.3999 55.5 34.2999 53.9C34.2999 53.7 33.8999 53.8 33.9999 53.9C33.9999 54 33.9999 54.1 33.9999 54.2C33.9999 54.2 34.0999 54.2 34.0999 54.2Z" fill="#1D1D1B"></path><path d="M31.3 54.1C31.4 54.1 31.4 53.9999 31.5 53.8999L31.2 53.7999C31 54.7999 31 55.8999 31 56.8999C31 57.3999 31 57.9999 31.1 58.4999C31.1 58.9999 31.3 59.3999 31.1 59.7999C31.1 59.8999 31.2 59.9999 31.3 59.8999C31.7 59.8999 31.8 59.7999 31.8 59.4999C31.9 58.8999 31.7 58.2999 31.6 57.6999C31.5 56.3999 31.6 54.9999 31.5 53.6999C31.5 53.4999 31.1 53.5999 31.1 53.6999C31.1 53.7999 31.1 53.7999 31.1 53.8999C31.2 54.0999 31.3 54.2 31.3 54.1Z" fill="#1D1D1B"></path><path d="M45.1999 38.6C46.9999 38.1 48.3999 41.1 48.8999 41.8C49.7999 42.9 50.8999 44 52.0999 45C53.3999 46 54.7999 46.8 56.4999 47.5C57.3999 47.9 58.3999 48.2 59.3999 48.6C60.2999 48.9 61.2999 49.3 62.2999 49.5C62.3999 49.5 62.4999 49.4 62.3999 49.4C61.5999 48.9 60.4999 48.6 59.5999 48.2C58.4999 47.8 57.4999 47.4 56.5999 46.9C54.6999 46 52.8999 44.9 51.4999 43.6C50.1999 42.5 49.3999 41.2 48.3999 40C47.9999 39.4 46.4999 37.7 45.1999 38.4C44.9999 38.5 45.0999 38.6 45.1999 38.6Z" fill="#1D1D1B"></path><path d="M46.5 35.6C48 35.7 49.2 35.8 50.4 36.4C51.2 36.9 51.8 37.5 52.2 38.1C53.3 39.6 54.1 41.1 55.3 42.5C56.6 44 57.9 45.5 59.4 46.9C60.7 48.2 62.1 49.4 64.2 50.2C64.3 50.2 64.4 50.2 64.3 50.1C63.3 49.4 62.2 48.8 61.4 48C60.6 47.3 60 46.5 59.3 45.8C57.9 44.2 56.3 42.7 55 41C53.9 39.7 53.2 38.1 51.7 36.9C50.5 35.9 48.3 35.1 46.5 35.6C46.5 35.6 46.4 35.6 46.5 35.6Z" fill="#1D1D1B"></path><path d="M31.1999 53.5999C30.9999 53.6999 30.9999 53.8999 31.1999 53.9999C31.2999 53.8999 31.2999 53.8999 31.3999 53.7999C30.2999 53.5999 29.5999 52.8999 30.3999 52.1999C30.8999 51.6999 31.6999 51.4999 32.4999 51.2999C33.5999 50.9999 34.7999 50.8999 35.5999 50.2999C37.2999 49.0999 36.9999 47.1999 37.0999 45.6999C37.1999 43.5999 37.4999 41.4999 39.4999 39.7999C40.3999 38.9999 41.3999 38.1999 42.5999 37.4999C43.7999 36.7999 45.5999 35.8999 47.1999 35.7999C47.4999 35.7999 47.4999 35.3999 47.1999 35.4999C45.9999 35.4999 44.8999 36.0999 43.9999 36.4999C42.8999 36.9999 41.7999 37.4999 40.8999 38.1999C39.0999 39.4999 37.5999 40.8999 36.9999 42.6999C36.4999 44.3999 36.6999 46.1999 36.4999 47.9999C36.3999 48.8999 35.9999 49.8999 34.8999 50.3999C33.8999 50.8999 32.4999 50.9999 31.2999 51.3999C30.3999 51.6999 29.4999 52.2999 29.5999 52.9999C29.6999 53.5999 30.4999 54.0999 31.4999 54.0999C31.6999 54.0999 31.6999 53.8999 31.4999 53.8999C31.4999 53.7999 31.3999 53.7999 31.3999 53.6999C31.2999 53.5999 31.1999 53.5999 31.1999 53.5999Z" fill="#1D1D1B"></path><path d="M45.5 38.2C43.5 38.8 42.3 40.5 41.5 41.7C40.5 43.2 39.7 44.7 39 46.2C38.6 47 38.5 47.9 38.1 48.7C37.7 49.6 37.1 50.4 36.4 51.3C35.8 52.1 35.1 52.7 34.3 53.4C33.8 53.9 33.4 54.5 33.8 55.1C33.9 55.2 34.1 55.2 34.1 55.1C34.1 54.2 35 53.7 35.8 53C36.5 52.4 37 51.7 37.4 51.1C37.9 50.4 38.3 49.8 38.7 49.1C39.1 48.3 39.2 47.5 39.5 46.7C40 45.3 40.8 43.8 41.6 42.4C42.5 41 43.6 39.2 45.7 38.4C46 38.3 45.8 38.1 45.5 38.2Z" fill="#1D1D1B"></path><path d="M30.5 37C30.6 38.2 30.9 39.5 31.1 40.7C31.3 41.9 31.3 43.1 31.4 44.3C31.4 45.5 31.4 46.7 31.3 47.9C31.2 49 31 50.3 31.5 51.3C31.6 51.5 32 51.4 32 51.3C32 50.7 31.9 50.1 31.8 49.5C31.8 48.9 31.8 48.3 31.9 47.7C32 46.5 32 45.3 32 44.1C32 42.9 31.8 41.7 31.6 40.5C31.4 39.3 31.3 38.1 30.8 37C30.8 36.8 30.5 36.9 30.5 37Z" fill="#1D1D1B"></path><path d="M34.6001 36C34.0001 37 34.3001 38.4 34.4001 39.4C34.5001 40.6 34.7001 41.8 34.5001 43.1C34.4001 44.3 34.2001 45.5 34.3001 46.7C34.4001 47.9 34.7001 49.1 34.5001 50.3C34.4001 50.6 35.1001 50.6 35.2001 50.3C35.4001 49.1 35.2001 47.9 35.1001 46.7C35.0001 45.5 35.2001 44.3 35.3001 43.1C35.4001 41.9 35.3001 40.7 35.1001 39.4C35.0001 38.8 35.0001 38.2 35.0001 37.6C35.0001 37.1 35.1001 36.5 34.9001 36C34.8001 36 34.6001 36 34.6001 36Z" fill="#1D1D1B"></path><path d="M18.3 21.5C18.5 21.6 18.7 21.6 18.9 21.6C19 21.6 19.2 21.6 19.3 21.6C19.6 21.6 19.9 21.7 20.2 21.8C20.8 22 21.3 22.4 21.6 22.8C22.2 23.5 22.4 24.4 22.7 25.2C23.3 26.8 23.8 28.4 24.5 30C25.2 31.5 26.1 32.8 27.4 34.1C28 34.8 28.7 35.4 29.3 36.1C29.9 36.8 30.2 37.5 30.7 38.2C30.8 38.3 31 38.2 31 38.1C31 37.3 30.4 36.5 29.8 35.9C29.1 35.1 28.3 34.4 27.6 33.6C26.1 31.9 25.2 30.1 24.4 28.2C24.1 27.3 23.7 26.4 23.4 25.4C23.1 24.5 22.8 23.6 22.2 22.8C21.7 22.2 21 21.6 19.9 21.4C19.5 21.3 18.2 21.1 18 21.6C18 21.7 18 21.7 18.1 21.7H18.2C18.3 21.7 18.3 21.7 18.4 21.6C18.6 21.5 18.4 21.4 18.3 21.5Z" fill="#1D1D1B"></path><path d="M19.2001 21.4C19.3001 21.4 19.5 21.4 19.6 21.5C19.8 21.5 19.9001 21.3 19.7001 21.3C17.8001 21.1 15.5001 20.8 13.6001 21.2C12.1001 21.5 11.0001 22.3 10.1001 23.2C9.00005 24.2 8.20004 25.2 7.00004 26.2C5.70004 27.2 4.20004 27.9 2.50004 28.6C2.30004 28.7 2.40006 28.9 2.70006 28.9C4.20006 28.7 5.60004 27.9 6.50004 27.1C7.60004 26.2 8.50004 25.3 9.50004 24.4C10.4 23.4 11.4 22.4 13 21.8C15 21.1 17.5001 21.6 19.6 21.6C19.6 21.5 19.5 21.4 19.5 21.4C19.4 21.2 19.3001 21.3 19.2001 21.4C19.1001 21.4 19.1001 21.3 19.2001 21.4Z" fill="#1D1D1B"></path><path d="M3.19994 28.5001C6.59995 28.7001 9.79992 27.8001 12.2999 26.4001C13.4999 25.7001 14.4999 24.9001 15.3999 24.0001C15.8999 23.5001 16.3999 22.9001 17.0999 22.5001C17.8999 22.0001 18.7999 21.9001 19.8999 21.9001C20.0999 21.9001 20.0999 21.8001 19.9999 21.7001C18.8999 21.2001 17.2999 21.8001 16.4999 22.4001C15.2999 23.2001 14.4999 24.3001 13.3999 25.2001C10.8999 27.1001 7.29992 28.5001 3.29992 28.4001C2.99992 28.3001 2.99994 28.5001 3.19994 28.5001Z" fill="#1D1D1B"></path><path d="M19.4999 21.7C19.7999 21.8 19.9999 21.8001 20.2999 21.9001C20.2999 21.8001 20.3999 21.8 20.3999 21.7C20.0999 21.7 19.7999 21.6001 19.3999 21.6001C19.1999 21.6001 19.0999 21.8001 19.2999 21.8001C19.7999 21.9001 20.2 22.0001 20.7 22.1001C20.7 22.1001 20.8 22.1001 20.7 22.1001C20.5 22.0001 20.2999 21.9001 19.9999 21.8001C19.7999 21.7001 19.4999 21.7001 19.2999 21.6001C19.2999 21.7001 19.2 21.7001 19.2 21.8001L20.1 21.9001C20.3 21.9001 20.4 21.7 20.2 21.7C20.1 21.5 19.7999 21.5 19.4999 21.7C19.3999 21.6 19.3999 21.6 19.4999 21.7Z" fill="#1D1D1B"></path><path d="M17.2 21.1C17.8 21.3 18.5999 21.2 19.2999 21.2C20.0999 21.2 20.7999 21.2 21.5999 21.3C23.1999 21.4 24.4999 21.8 25.3999 22.7C26.9999 24.3 27.2999 26.4 27.8999 28.2C28.4999 29.9 29.3999 31.7 30.8999 33.2C31.5999 33.9 32.5999 34.5 33.2999 35.2C33.7999 35.7 33.8999 36.1 33.8999 36.7C33.8999 37.1 34 37.4 34.2 37.7C34.3 37.8 34.4999 37.7 34.4999 37.7C34.3999 36.8 34.7999 36 34.0999 35.2C33.3999 34.4 32.2999 33.7 31.4999 32.9C29.6999 31.1 28.9999 29 28.2999 27C27.6999 25.3 27.1999 23.3 25.2999 22C24.3999 21.4 23.2999 21.1 21.9999 21C21.2999 20.9 20.4999 21 19.7999 21C18.8999 21 18 20.9 17.2 21.1Z" fill="#1D1D1B"></path><path d="M34.7999 37.5C34.6999 37.1 35.0999 35.4 33.9999 35.5H33.8999C33.8999 35.6 33.8999 35.7 33.9999 35.8C34.1999 36 34.2999 36.3 34.2999 36.5C34.2999 36.9 34.2999 37.2 34.5999 37.5C34.6999 37.5 34.7999 37.5 34.7999 37.5Z" fill="#1D1D1B"></path><path d="M34.8 2.6C34 2.4 33.3 2.7 33 3.2C32.7 3.6 32.7 4.1 32.6 4.5C32.5 5.1 32.3 5.6 32.2 6.2C31.7 8.4 31.3 10.6 31.1 12.8C30.7 17.3 30.9 21.9 31.2 26.4C31.3 27.7 31.4 28.9 31.5 30.2C31.6 31.4 31.5 32.8 31.9 34C31.9 34.2 32.3 34.1 32.3 34C32.4 33 32.3 31.9 32.2 30.9C32.1 29.9 32.1 28.9 32 27.8C31.9 25.8 31.7 23.8 31.6 21.7C31.4 17.6 31.6 13.6 32.2 9.5C32.4 8.3 32.6 7.1 32.8 6C32.9 5.4 33.1 2.4 34.7 2.8C34.8 2.9 35 2.6 34.8 2.6Z" fill="#1D1D1B"></path><path d="M34.1001 2.80001C34.5001 2.60001 34.6001 3.40001 34.6001 3.40001C34.7001 3.70001 34.7001 3.9 34.8001 4.2C34.9001 4.4 35.3001 4.3 35.3001 4.2C35.4001 3.6 35.2001 3 34.8001 2.5C34.7001 2.3 34.3001 2.5 34.3001 2.6C35.3001 7.1 35.1001 11.7 35.3001 16.3C35.3001 17.4 35.4001 18.4 35.3001 19.5C35.2001 20.6 34.8001 21.7 34.4001 22.8C33.6001 24.9 33.4001 26.9 33.5001 29C33.5001 30.2 33.6001 31.5 33.6001 32.7C33.7001 33.9 33.6001 35.3 34.1001 36.5C34.2001 36.7 34.5001 36.6 34.5001 36.5C34.6001 35.4 34.4001 34.2 34.3001 33.1C34.2001 32 34.2001 30.8 34.1001 29.7C34.1001 27.5 34.1001 25.3 35.0001 23.1C35.4001 22.1 35.8001 21.1 36.0001 20.1C36.2001 19 36.1001 18 36.1001 16.9C36.0001 14.7 36.0001 12.4 35.8001 10.2C35.6001 7.6 35.2001 5.1 34.7001 2.5C34.5001 2.5 34.4001 2.6 34.2001 2.6C34.5001 3.1 34.6001 3.6 34.6001 4.2C34.8001 4.2 34.9001 4.2 35.1001 4.2C35.0001 4 34.6001 1.90001 33.7001 2.80001C33.8001 2.80001 34.0001 2.90001 34.1001 2.80001Z" fill="#1D1D1B"></path><path d="M5.69995 0.300049C7.59995 1.60005 10.1 2.40005 12.7 2.90005C15.5 3.40005 18.8999 2.90005 20.9999 4.40005C23.1999 5.90005 22.2999 8.20004 22.7999 10.1C23.2999 12.1 24.3999 14 25.7999 15.8C27.3999 18 29.2999 20.1 31.0999 22.2C31.1999 22.3 31.5999 22.2 31.4999 22.1C28.9999 18.1 24.7999 14.7 23.4999 10.4C23.1999 9.30005 23.1999 8.20004 23.0999 7.10004C22.9999 6.20004 22.7999 5.40004 21.9999 4.70004C21.3999 4.10004 20.4999 3.60005 19.3999 3.30005C18.0999 2.90005 16.6999 3.00005 15.2999 2.90005C11.7999 2.70005 8.69995 1.70005 5.69995 0.300049C5.69995 0.300049 5.79995 0.300049 5.69995 0.300049Z" fill="#1D1D1B"></path><path d="M6.1001 0.500023C6.9001 2.30002 8.20009 3.70002 10.9001 4.50002C12.3001 4.90002 13.8001 5.10003 15.3001 5.30003C17.0001 5.60003 18.6001 6.00002 20.2001 6.40002C21.6001 6.80002 23.2001 7.20002 24.1001 8.10002C24.9001 8.90002 25.3001 9.80002 25.8001 10.6C26.9001 12.2 28.6001 14 30.8001 15C31.1001 15.1 31.3001 14.9 31.1001 14.7C30.1001 13.9 28.9001 13.3 28.0001 12.4C27.2001 11.6 26.5001 10.8 26.0001 9.90002C25.5001 9.10002 25.2001 8.30002 24.4001 7.70002C23.6001 7.00002 22.5001 6.60002 21.3001 6.20002C19.9001 5.80002 18.5001 5.40002 17.0001 5.10002C15.5001 4.80002 13.9001 4.60002 12.4001 4.40002C10.9001 4.10002 9.50009 3.70002 8.40009 3.00002C7.30009 2.30002 6.7001 1.30002 6.1001 0.400024C6.2001 0.400024 6.1001 0.500023 6.1001 0.500023Z" fill="#1D1D1B"></path><path d="M32.6999 34.3C33.0999 33 32.8999 31.4 32.5999 30.1C32.5999 30 32.3999 30.1 32.3999 30.1C32.3999 30.8 32.4999 31.5 32.4999 32.2C32.4999 32.9 32.3999 33.6 32.4999 34.3C32.5999 34.3 32.6999 34.3 32.6999 34.3Z" fill="#1D1D1B"></path><path d="M33.1001 33.9C33.1001 34 33.1001 34 33.1001 34.1C33.0001 34.2 33.4001 34.3 33.4001 34.1C33.4001 32.8 33.3001 31.5 33.0001 30.2C33.0001 30.1 32.8 30.2 32.8 30.2C33 31.5 33.1001 32.8 33.1001 34.1C33.2001 34.1 33.3 34 33.3 34C33.3 34 33.2001 34 33.1001 33.9Z" fill="#1D1D1B"></path><path d="M33.3 34.3C33.5 34.5 33.6 34.7 33.7 34.9C33.7 35 34 35 34 34.9C34.1 33.4 33.9 31.9 33.6 30.4C33.6 30.3 33.4 30.3 33.4 30.4C33.3 31.9 33.4 33.4 33.6 34.9C33.7 34.9 33.8 34.9 33.9 34.9C33.8 34.7 33.6 34.4999 33.4 34.1999C33.4 34.1999 33.2 34.2 33.3 34.3Z" fill="#1D1D1B"></path><path d="M33.7 34.9C33.8 33.3 33.6 31.6 33.5 30C33.4 28.4 33.5 26.7 33.2 25.1C33.2 25 33.1 25 33.1 25.1C32.9 26.7 33.1 28.4 33.2 30C33.3 31.6 33.3 33.3 33.7 34.9C33.7 35 33.6 35 33.7 34.9Z" fill="#1D1D1B"></path><path d="M33.3999 34.3C33.3999 33.2 33.3999 32 33.2999 30.9C33.1999 29.9 33.2 28.8 32.7 27.8H32.6C32.5 28.9 32.7999 30 32.8999 31.1C32.9999 32.2 33.1 33.3 33.1 34.4C33.1 34.4 33.3999 34.4 33.3999 34.3Z" fill="#1D1D1B"></path><path d="M32.8 33.1999C32.6 31.3999 32.4001 29.6 32.0001 27.9C32.0001 27.8 31.8 27.8 31.8 27.9C31.9 29.7 32.2001 31.4999 32.5001 33.1999C32.5001 33.3999 32.8 33.3999 32.8 33.1999Z" fill="#1D1D1B"></path><path d="M33.3999 23.9C33.8999 23.5 34.3999 23.1 34.6999 22.6C34.2999 23 33.8999 23.5 33.3999 23.9C33.3999 23.9 33.2999 23.9 33.3999 23.9Z" fill="#1D1D1B"></path><path d="M33.8999 23.4C34.3999 22.9 34.8 22.4 35.2 21.8C34.7 22.3 34.1999 22.8 33.7999 23.3C33.5999 23.4 33.7999 23.5 33.8999 23.4Z" fill="#1D1D1B"></path><path d="M34.8001 22.2C34.3001 22.6 33.8001 23 33.1001 23.2C33.2001 23.2 33.2001 23.3 33.3001 23.3C33.5001 22.4 33.6001 21.4 33.6001 20.5H33.5001C33.4001 21.4 33.3001 22.4 33.1001 23.3C33.1001 23.4 33.2001 23.4 33.3001 23.4C34.0001 23.1 34.6001 22.8 35.0001 22.3C35.0001 22.2 34.9001 22.2 34.8001 22.2Z" fill="#1D1D1B"></path><path d="M33.2999 22.4C33.6999 21.5 33.7999 20.6 33.5999 19.6C33.4999 20.3 33.5999 20.9 33.9999 21.6H34.0999C33.9999 20.9 33.7999 20.3 33.3999 19.7C33.6999 20.1 33.8999 20.6 33.9999 21C34.1999 21.8 33.9999 21.2 33.8999 21C33.7999 20.7 33.6999 20.4 33.6999 20.1C33.6999 20 33.6999 19.5 33.6999 20C33.6999 20.2 33.6999 20.5 33.5999 20.7C33.4999 21.3 33.3999 21.8 33.1999 22.4C33.0999 22.5 33.2999 22.5 33.2999 22.4Z" fill="#1D1D1B"></path><path d="M32.9 18.6C33.1 19.5 33.4001 20.5 33.6001 21.4H33.7001C33.5001 20.5 33.3001 19.5 33.1001 18.6C33.1001 18.4 32.8 18.4 32.9 18.6Z" fill="#1D1D1B"></path><path d="M34.1 22.2999C34.4 22.1999 34.8 22.0999 35.1 22.0999L35 21.9999C34.6 22.1999 34.2 22.3999 33.8 22.5999C33.7 22.5999 33.8 22.7999 33.9 22.6999C34.2 22.5999 34.5 22.4999 34.8 22.3999L34.7 22.2999C34.5 22.4999 34.2 22.5999 33.9 22.4999C33.9 22.4999 33.8 22.4999 33.9 22.5999C34.3 22.6999 34.7 22.5999 34.9 22.3999C34.9 22.2999 34.8 22.2999 34.8 22.2999C34.5 22.3999 34.3 22.4999 34 22.4999L34.1 22.5999C34.5 22.3999 34.9 22.1999 35.3 21.9999C35.4 21.9999 35.3 21.7999 35.2 21.8999C34.9 21.9999 34.5 22.0999 34.2 22.0999C33.9 22.1999 33.9 22.3999 34.1 22.2999Z" fill="#1D1D1B"></path><path d="M32.1 18.9C32.7 20.3 33 21.6999 33.2 23.0999C33.3 21.6999 32.8 20.2 32.2 18.9C32.2 18.8 32 18.8 32.1 18.9Z" fill="#1D1D1B"></path><path d="M31.1 23.1C31.3 22.7 31.3 22.3 31.4 21.9C31.5 21.4 31.6 21 31.5 20.5C31.3 20.9 31.3 21.3 31.2 21.7C31.2 22.1 31 22.6 31.1 23.1Z" fill="#1D1D1B"></path><path d="M31.6 20.8C31.9 20.8 31.9 20.4 31.6 20.4C31.2 20.5 31.2 20.8 31.6 20.8Z" fill="#1D1D1B"></path><path d="M31 21.8C31 21.8 31 21.9 31 21.8C31 21.9 31 21.9 31 21.9H31.1H31.2C31.4 21.8 31.4 21.7 31.5 21.5C31.8 21.1 32 20.6 32.2 20.2C32.5 19.5 32.8 18.7 32.6 18H32.5C32.2 18.6 32.2 19.3 32 19.9C31.8 20.5 31.4 21.1 31.1 21.8C31.2 21.8 31 21.7 31 21.8Z" fill="#1D1D1B"></path><path d="M33.3001 2.69997C33.7001 2.79997 33.9001 2.99997 33.8001 3.19997C33.8001 3.29997 33.7001 3.39997 33.7001 3.49997C33.6001 3.69997 33.6001 3.89997 33.6001 4.09997C33.5001 4.39997 33.5001 4.69997 33.4001 4.99997C33.3001 5.79997 33.2001 6.59997 33.2001 7.39997C33.1001 8.99997 33.2001 10.6 33.4001 12.3C33.7001 15.6 34.1001 18.8 34.6001 22.1C34.7001 22.1 34.8001 22.1 34.9001 22.1C33.3001 15.4 32.1001 8.59997 34.7001 1.89997C34.7001 1.79997 34.5001 1.69998 34.4001 1.79998C34.0001 2.59998 33.7001 3.29997 33.3001 4.09997H33.5001C33.8001 3.39997 34.2001 2.69997 34.6001 1.99997H34.3001C34.6001 2.59997 34.9001 3.19998 35.2001 3.79998C35.3001 3.79998 35.4001 3.69997 35.5001 3.69997C35.1001 3.09997 34.8001 2.49998 34.7001 1.79998H34.4001C34.5001 2.59998 34.7001 3.39997 34.8001 4.19997C34.8001 4.29997 35.0001 4.29997 35.0001 4.19997C34.9001 3.39997 34.8001 2.59998 34.6001 1.79998C34.6001 1.69998 34.3001 1.69998 34.3001 1.79998C34.4001 2.49998 34.6001 3.09998 35.1001 3.79998C35.2001 3.89998 35.5001 3.79997 35.4001 3.69997C35.1001 3.09997 34.8001 2.49997 34.5001 1.89997C34.5001 1.79997 34.3001 1.79997 34.2001 1.89997C33.9001 2.59997 33.6001 3.29997 33.2001 4.09997C33.2001 4.19997 33.4001 4.19997 33.4001 4.09997C33.8001 3.39997 34.2001 2.59997 34.6001 1.89997C34.5001 1.89997 34.4001 1.89998 34.3001 1.79998C31.6001 8.39998 32.6001 15.5 34.5001 22.1C34.5001 22.2 34.8001 22.2 34.8001 22.1C34.1001 18.3 33.7001 14.5 33.4001 10.7C33.3001 8.89997 33.3001 6.99997 33.5001 5.19997C33.6001 4.69997 33.6001 4.29998 33.7001 3.79998C33.7001 3.59998 34.0001 2.99998 33.9001 2.79998C33.8001 2.59998 33.5001 2.39997 33.3001 2.69997C33.2001 2.69997 33.2001 2.69997 33.3001 2.69997Z" fill="#1D1D1B"></path><path d="M30.4999 18.6C30.5999 18.5 30.5999 18.3 30.3999 18.2C30.2999 18.2 30.2 18.2 30.2 18.3C30.3 18.3 30.3999 18.4 30.4999 18.6C30.3999 18.6 30.4999 18.7 30.4999 18.8C30.4999 18.8 30.4999 18.7 30.4999 18.6C30.3999 18.5 30.3999 18.4 30.3999 18.3C30.3999 18.2 30.3999 18.2 30.3999 18.2H30.2C30.5 18.4 30.4999 18.5 30.4999 18.6C30.4999 18.6 30.3999 18.6 30.4999 18.6Z" fill="#1D1D1B"></path><path d="M30.6 19.8C30.6 19.9 30.7 20 30.7 20.1H30.8C31 18.4 29.6 16.8 28 15.5C27 14.7 26.1 13.9 25.5 13C25 12.1 24.8 11.1 24.6 10.1C24.6 9.99999 24.5 10.1 24.5 10.1C24.7 11.9 25.2 13.5 26.9 14.9C27.8 15.7 28.8 16.4 29.5 17.3C29.9 17.8 30.1 18.3 30.3 18.8C30.4 19 30.4 19.2 30.5 19.4C30.6 19.6 30.9 20.2 30.6 19.8C30.6 19.8 30.7 19.8 30.6 19.8Z" fill="#1D1D1B"></path><path d="M8.6001 2.30006C10.6001 3.20006 13.0001 3.60006 15.3001 3.90006C16.5001 4.10006 17.8001 4.20006 18.9001 4.50006C20.3001 4.80006 21.3001 5.20006 22.4001 5.80006C22.5001 5.80006 22.6001 5.80005 22.5001 5.70005C21.1001 4.50005 18.3001 4.10006 16.2001 3.80006C14.9001 3.60006 13.6001 3.50005 12.4001 3.20005C11.2001 3.00005 9.9001 2.70006 8.6001 2.30006C8.6001 2.30006 8.6001 2.20006 8.6001 2.30006Z" fill="#1D1D1B"></path><path d="M23.2 7.7C24 8.8 24.6999 9.9 25.2999 11.1H25.3999C24.8999 9.9 24.0999 8.8 23.2999 7.7C23.2999 7.6 23.2 7.6 23.2 7.7Z" fill="#1D1D1B"></path><path d="M23.7001 7.69994C24.6001 8.79994 25.2001 9.89994 26.0001 11.0999H26.1001C25.6001 9.89994 24.7001 8.79994 23.9001 7.69994C23.8001 7.49994 23.6001 7.59994 23.7001 7.69994Z" fill="#1D1D1B"></path><path d="M23.3 7.59999C23.8 8.59999 24.2001 9.69999 24.9001 10.6H25.0001C24.6001 9.59999 24.0001 8.59999 23.4001 7.59999C23.4001 7.49999 23.3 7.59999 23.3 7.59999Z" fill="#1D1D1B"></path><path d="M23.1001 8.30004C23.5001 9.30004 23.9001 10.3 24.4001 11.3C24.4001 11.4 24.6001 11.3 24.6001 11.3C24.3001 10.3 23.9001 9.30004 23.5001 8.30004C23.4001 8.10004 23.1001 8.20004 23.1001 8.30004Z" fill="#1D1D1B"></path><path d="M23 8.10002C23 9.30002 23.3 10.5 24.2 11.5C24.2 11.6 24.4 11.5 24.4 11.5C23.9 10.4 23.4 9.30002 23.3 8.10002C23.2 8.00002 23 8.00002 23 8.10002Z" fill="#1D1D1B"></path><path d="M24.3001 8.90002C24.8001 9.30002 25.2001 9.80002 25.5001 10.2H25.6001C25.2001 9.80002 24.8001 9.30002 24.3001 8.90002C24.2001 8.90002 24.3001 8.90002 24.3001 8.90002Z" fill="#1D1D1B"></path><path d="M23.4001 8.3C24.8001 9.1 25.7001 10.1 25.9001 11.3C25.9001 11.4 26.1001 11.3 26.1001 11.3C25.9001 10.1 25.0001 8.99999 23.6001 8.19999C23.5001 8.09999 23.3001 8.2 23.4001 8.3Z" fill="#1D1D1B"></path><path d="M23.2 9.79998C24 11.1 25 12.3 26.2 13.4H26.2999C25.1999 12.2 24.2 11 23.2 9.79998C23.2 9.69998 23.3 9.69998 23.2 9.79998Z" fill="#1D1D1B"></path><path d="M24.9 10.2C25.4 11.2 26 12.2 26.6 13.1C26.6 13.2 26.8 13.1 26.8 13.1C26.3 12.1 25.8 11.1 25.3 10.1C25.1 10 24.8 10.1 24.9 10.2Z" fill="#1D1D1B"></path><path d="M24.4999 12.4C25.1999 13.4 25.8999 14.4 26.4999 15.4H26.5999C26.0999 14.4 25.3999 13.3 24.6999 12.3C24.5999 12.3 24.3999 12.3 24.4999 12.4Z" fill="#1D1D1B"></path><path d="M20.3 21.5C20.1 21.5 19.9 21.4 19.8 21.3C19.8 21.4 20 21.6 20.3 21.5Z" fill="#1D1D1B"></path><path d="M20 21.2C20.1 21.1 20.3 21 20.5 21.1C20.6 21.1 20.7 21.1 20.9 21.2C21.1 21.3 21.3 21.3 21.6 21.4C22.1 21.6 22.5 21.8 22.9 22C23.6 22.4 24.2 23 24.6 23.6C25.6 25 25.7 26.5 25.9 28C26.3 30.7 27.6 33.2 30.4 35.2H30.5C28.8 33.8 27.6 32.1 26.9 30.4C26.2 28.5 26.3 26.6 25.6 24.7C25.1 23.4 24 22.2 22.3 21.4C21.8 21.2 20.7 20.7 20.1 20.9C19.7 21 19.7 21.3 20.1 21.4C20.1 21.4 20.1 21.2 20 21.2Z" fill="#1D1D1B"></path><path d="M19.7 21.2C21.6 21.1 22.4 22.4 23.2 23.3C23.3 23.4 23.4999 23.3 23.4999 23.2C22.8999 22.2 21.7 21.1 19.7 21.2Z" fill="#1D1D1B"></path><path d="M20 21.4C21.8 21.7 22.9 23.2 23.4 24.2C23.4 24.3 23.6001 24.3 23.6001 24.2C23.4001 23.5 22.9 22.9 22.3 22.3C21.7 21.8 21 21.3 20 21.3C19.9 21.3 19.9 21.3 20 21.4Z" fill="#1D1D1B"></path><path d="M22 21.2C23.6 21.9 24.6 22.8 25.5 23.9C25.5 23.9 25.7 23.9 25.6 23.9C25 22.7 23.7 21.7 22 21.2C21.9 21.2 22 21.1 22 21.2Z" fill="#1D1D1B"></path><path d="M22.5001 21.9C24.8001 21.8 25.9001 23.9 26.6001 25C26.6001 25.1 26.8001 25 26.8001 25C26.3001 23.8 25.0001 21.6 22.5001 21.8C22.3001 21.8 22.3001 21.9 22.5001 21.9Z" fill="#1D1D1B"></path><path d="M22.9 21.8C24.9 22.3 26.1 23.4 26.4 24.7C26.4 24.8 26.6 24.7 26.6 24.7C26.6 23.3 25 22.1 23 21.6C22.8 21.6 22.7 21.7 22.9 21.8Z" fill="#1D1D1B"></path><path d="M23.3 21.9C24.1 22.9 24.6 23.9 24.9 25C24.9 25.1 25.1 25.1 25.1 25C24.9 23.9 24.3 22.8 23.5 21.8C23.4 21.7 23.2 21.8 23.3 21.9Z" fill="#1D1D1B"></path><path d="M22.2999 22.0001C23.8999 23.5001 24.7999 25.1001 25.0999 26.9001C25.0999 27.0001 25.2999 27.0001 25.2999 26.9001C25.2999 25.1001 24.1999 23.3001 22.5999 21.9001C22.4999 21.8001 22.1999 21.9001 22.2999 22.0001Z" fill="#1D1D1B"></path><path d="M22.3999 22.1C23.0999 23.8 23.5999 25.6 24.3999 27.2H24.4999C24.0999 25.5 23.2999 23.8 22.3999 22.1C22.3999 22.1 22.4999 22 22.3999 22.1Z" fill="#1D1D1B"></path><path d="M9.19995 26.2C9.29995 26.2 9.39994 26.1 9.49994 26.1C9.39994 26.2 9.29995 26.2 9.19995 26.2Z" fill="#1D1D1B"></path><path d="M9.50005 26.1C11.2 25.5 12.3 24.5001 13.5 23.5001C14.2 23.0001 14.8 22.5001 15.5 22.0001C16.5 21.4001 17.5 21.2 18.8 21.2C18.9 21.2 18.9 21.1 18.8 21.1C17.1 20.6 15.3 21.7001 14.3 22.5001C13.5 23.1001 12.8 23.7001 12 24.3001C11.3 25.0001 10.5 25.7 9.50005 26.1C9.40005 26.1 9.40005 26.1 9.50005 26.1Z" fill="#1D1D1B"></path><path d="M31.8001 50.8001C31.7001 50.8001 31.7001 50.8001 31.6001 50.8001C31.6001 50.9001 31.6001 50.9 31.6001 50.9C31.6001 50.9 31.7001 50.9 31.8001 50.9C32.2001 50.8 32.2001 50.2 32.3001 50C32.4001 49.5 32.4001 49 32.4001 48.5C32.4001 48.4 32.3001 48.4 32.2001 48.5C32.1001 48.9 32.1001 49.3 32.0001 49.7C32.0001 49.8 31.7001 50.8001 31.7001 50.8001C31.9001 50.9001 31.9001 50.8001 31.8001 50.8001Z" fill="#1D1D1B"></path><path d="M31.8999 50.9C31.8999 51 31.9999 51.1001 32.1999 51.1001C32.2999 51.1001 32.2999 51.1001 32.2999 51.1001C32.8999 50.5001 32.9999 49.7 32.8999 49C32.8999 48.9 32.6999 48.9 32.6999 49C32.6999 49.4 32.4999 49.8 32.3999 50.2C32.2999 50.5 32.0999 50.8001 31.9999 51.1001C31.9999 51.1001 32.0999 51.1 32.0999 51C32.1999 51 32.0999 50.9 31.8999 50.9C31.8999 50.9 31.9999 50.9 31.8999 50.9Z" fill="#1D1D1B"></path><path d="M32.8999 51.1001C33.1999 50.4001 33.0999 49.5001 32.8999 48.8001C32.8999 48.7001 32.7 48.8001 32.7 48.8001C32.7 49.6001 32.6999 50.3001 32.7999 51.1001C32.6999 51.1001 32.7999 51.1001 32.8999 51.1001Z" fill="#1D1D1B"></path><path d="M33.3001 51.2C33.6001 50.1 33.7001 49.1 33.4001 48C33.4001 47.9 33.2001 48 33.3001 48C33.4001 49.1 33.4001 50.2 33.1001 51.2C33.2001 51.2 33.3001 51.2 33.3001 51.2Z" fill="#1D1D1B"></path><path d="M33.6001 50.6001C33.9001 50.6001 34.1001 50.5 34.1001 50.3C34.3001 49.8 34.1001 49.1 34.0001 48.5C33.9001 47.1 33.9001 45.7 33.6001 44.3C33.6001 45.4 33.6001 46.4 33.7001 47.5C33.7001 48 33.8001 48.5 33.8001 49C33.9001 49.3 34.2001 50.5001 33.6001 50.6001Z" fill="#1D1D1B"></path><path d="M33.3999 44.2C33.7999 46.2 33.9999 48.1 34.1999 50.1C34.1999 48.2 33.8999 46.2 33.3999 44.2C33.3999 44.2 33.4999 44.2 33.3999 44.2Z" fill="#1D1D1B"></path><path d="M34.1001 50.6001C34.8001 50.9001 34.6001 49.7001 34.6001 49.6001C34.6001 48.5001 34.6001 47.4 34.2001 46.3H34.1001C34.0001 47 34.1001 47.7 34.1001 48.5C34.1001 48.8 34.1001 49.2 34.1001 49.5C34.4001 49.5 34.5001 50.7001 34.1001 50.6001Z" fill="#1D1D1B"></path><path d="M33.7001 50.7C33.9001 49.4 34.0001 47.8 33.4001 46.5H33.3C33.3 47.9 33.6001 49.2 33.4001 50.6C33.3001 50.9 33.6001 50.9 33.7001 50.7Z" fill="#1D1D1B"></path><path d="M33.1001 50.5C33.3001 49.3 33.4001 48 33.0001 46.8C33.0001 46.7 32.8 46.7 32.8 46.8C32.8 48 33 49.2 32.8 50.4C32.8 50.6 33.1001 50.6 33.1001 50.5Z" fill="#1D1D1B"></path><path d="M32.8999 50.6C33.0999 50 33.3 49.3 33.2 48.6C33.2 48.6 33.0999 48.5 33.0999 48.6C32.8999 49.2 32.8 49.9 32.7 50.6C32.7 50.6 32.7999 50.7 32.8999 50.6Z" fill="#1D1D1B"></path><path d="M32.6 50.8999C32.9 50.8999 33.1999 50.8999 33.4999 50.7999C33.5999 50.7999 33.7999 50.6999 33.8999 50.6999C34.0999 50.5999 34.1 50.5999 34.2 50.4999C34.3 50.3999 34.1999 50.2999 33.9999 50.3999C33.8999 50.3999 33.8 50.3999 33.7 50.4999C33.6 50.4999 33.4999 50.6 33.3999 50.6C33.1999 50.7 32.9 50.6999 32.6 50.6999C32.4 50.5999 32.4 50.8999 32.6 50.8999Z" fill="#1D1D1B"></path><path d="M33.7999 50.6C34.1999 49.9 34.3999 49.1 33.9999 48.4C33.9999 48.3 33.7999 48.3 33.7999 48.4C33.8999 49.1 33.7999 49.9 33.3999 50.6C33.3999 50.7 33.6999 50.7 33.7999 50.6Z" fill="#1D1D1B"></path><path d="M33.4 50.1C33.4 49.4 33.4 48.7 33.3 48.1C33.3 48 33.1 48 33.1 48.1C33 48.8 33 49.4 33 50.1C33.1 50.2 33.4 50.2 33.4 50.1Z" fill="#1D1D1B"></path><path d="M34.0999 50.2C34.0999 48.2 33.9999 46.2 33.2999 44.2C33.2999 44.1 33.2 44.2 33.2 44.2C33.6 46.2 33.8999 48.2 33.8999 50.2C33.8999 50.3 34.0999 50.3 34.0999 50.2Z" fill="#1D1D1B"></path><path d="M33.8999 49.5C34.2999 46.6 34.3999 43.8 33.9999 40.9H33.8999C33.9999 43.8 33.9 46.7 33.7 49.5H33.8999Z" fill="#1D1D1B"></path><path d="M33.2999 48.9C33.2999 47.6 33.0999 46.2 32.9999 44.9C32.8999 43.5 32.9999 42.2 32.9999 40.8H32.8999C32.6999 42.2 32.7 43.6 32.7 45C32.8 46.3 32.8 47.7 33.2 48.9C33.2 49 33.2999 49 33.2999 48.9Z" fill="#1D1D1B"></path><path d="M33.1001 47.2C33.2001 47.5 33.3001 47.8 33.3001 48.1C33.3001 48.2 33.5001 48.2 33.5001 48.1C33.6001 45.9 33.6001 43.7 33.3001 41.5H33.2001C33.1001 42.8 33.1001 44 33.2001 45.3C33.2001 45.9 33.2001 46.6 33.2001 47.2C33.2001 47.3 33.1001 48 33.3001 47.9C33.4001 47.9 33.2001 47.2 33.1001 47.2C33.1001 47.2 33.2001 47.1 33.1001 47.2Z" fill="#1D1D1B"></path><path d="M33.7 43.7C33.8 42.7 33.8 41.7 33.8 40.7H33.7C33.7 41.7 33.7 42.7 33.5 43.7C33.5 43.8 33.7 43.8 33.7 43.7Z" fill="#1D1D1B"></path><path d="M30.5 53.6C30.7 53.5 31 53.7 31.2 53.8C31.4 53.9 31.6 53.9 31.8 53.9C32.2 53.9 32.7 53.8 33 53.6C33.1 53.5 33 53.4 32.8 53.4C32.2 53.6 31.7 53.6 31.1 53.4C30.8 53.4 30.6 53.4 30.5 53.6C30.5 53.7 30.4 53.6 30.5 53.6Z" fill="#1D1D1B"></path><path d="M30.2 52.9C30.5 53.4 31.5999 53.9 32.3999 53.5V53.4C31.5999 53.4 30.7999 53.4 30.4999 52.8C30.3999 52.8 30.2 52.8 30.2 52.9Z" fill="#1D1D1B"></path><path d="M29.9999 52.6999C30.6999 53.3999 32.1999 53.6999 33.2999 53.2999C33.3999 53.2999 33.2999 53.1999 33.1999 53.1999C32.0999 53.4999 30.7999 53.2999 30.0999 52.6999C30.0999 52.4999 29.8999 52.5999 29.9999 52.6999Z" fill="#1D1D1B"></path><path d="M31.5001 55C31.8001 55.1 32.5001 55.2 32.8001 55V54.9C32.6001 54.9 32.5001 54.9 32.3001 54.9C32.1001 54.9 31.9001 54.9 31.6001 54.8C31.4001 54.7 31.3001 54.9 31.5001 55Z" fill="#1D1D1B"></path><path d="M29.6001 52.8C30.3001 53 31.4001 53.3001 32.2001 53.1001C32.3001 53.1001 32.3001 53 32.2001 53C31.8001 52.9 31.3001 52.9 30.9001 52.9C30.5001 52.9 30.0001 52.9 29.6001 52.8Z" fill="#1D1D1B"></path><path d="M30.2001 52.8C30.6001 52.9 31.1001 53.1 31.5001 53.2C31.6001 53.2 31.7001 53.1 31.6001 53.1C31.2001 52.9 30.7001 52.8 30.3001 52.7C30.2001 52.6 30.0001 52.8 30.2001 52.8Z" fill="#1D1D1B"></path><path d="M31.3999 54.5C31.4999 55.3 31.3999 56.1 31.3999 56.9C31.3999 57 31.4999 57 31.5999 56.9C31.8999 56.1 31.7999 55.3 31.5999 54.5C31.4999 54.5 31.3999 54.5 31.3999 54.5Z" fill="#1D1D1B"></path><path d="M32.2 54.4C32.2 54.9 32.2 55.4 32.2 55.8C32.2 55.9 32.2999 55.9 32.2999 55.8C32.2999 55.3 32.2999 54.8 32.2999 54.4C32.4999 54.4 32.2 54.4 32.2 54.4Z" fill="#1D1D1B"></path><path d="M31.4001 54.7999C31.8001 54.5999 32.1001 54.6999 32.5001 54.6999C32.6001 54.6999 32.6001 54.7 32.6001 54.6C32.6001 54.6 32.6001 54.5999 32.6001 54.4999C32.6001 54.4999 32.6001 54.3999 32.5001 54.3999C32.1001 54.2999 31.5001 54.3999 31.1001 54.4999C31.1001 54.6999 31.2001 54.8999 31.4001 54.7999Z" fill="#1D1D1B"></path><path d="M38.3 45.9C39 44.2 39.5 42.5 40.8 40.9C41.9 39.5 43.6 38.2 45.7 37.5C48.8 36.5 50.2 39.3 51.5 40.6C52.8 42 54.3 43.3 56 44.5H56.1C54.1 42.9 52.3 41.3 50.7 39.5C49.7 38.3 48.4 36.6 45.9 37.3C41 38.7 39 42.8 38 45.9C38.1 46 38.3 46 38.3 45.9Z" fill="#1D1D1B"></path><path d="M33.8 61.7C33.7 61.8 33.6 61.8 33.5 61.9L33.7 62C33.9 61.9 34 61.7 34.2 61.6C34.4 61.4 34.6 61.2 34.8 61.1C34.9 61.1 34.8 61 34.7 61C34.4 61.1 34.2 61.3 33.9 61.4C33.7 61.5 33.5 61.7 33.5 61.9C33.5 62 33.7 62 33.7 61.9C33.8 61.8 33.9 61.7 33.9 61.7C34 61.7 33.9 61.6 33.8 61.7Z" fill="#1D1D1B"></path><path d="M34.8999 60.6C34.8999 61 34.2999 61.1 33.7999 61C33.4999 60.9 33.3 60.8 33 60.8C32.8 60.8 32.7999 60.9 32.8999 61C33.3999 61.4 34.2 61.4 34.7 61.1C34.8 61.1 34.8 61 34.7 60.9C34.5 60.8 34.2 60.8 34 60.9C33.7 60.9 33.1 61.1 33 60.8C32.9 60.8 32.8999 60.9 32.7999 60.9C32.9999 61 33.3 61 33.5 60.8H33C32.9 60.7 32.7999 60.8 32.7999 60.8C32.6999 61.4 34.2 61 34.6 61.1V61C34.1 61.2 33.5 61.2 33.2 60.9C33.2 61 33.1 61 33.1 61.1C33.6 61.1 34 61.5 34.5 61.3C34.9 61.2 35.2 60.9 35.2 60.7C35.2 60.5 34.8999 60.5 34.8999 60.6Z" fill="#1D1D1B"></path><path d="M33.6001 60.3C33.8001 60.8 33.8001 61.2 33.6001 61.7C33.6001 61.8 33.7001 61.8 33.8001 61.7C34.0001 61.2 34.0001 60.7 33.8001 60.2C33.9001 60.2 33.6001 60.2 33.6001 60.3Z" fill="#1D1D1B"></path><path d="M33.2001 58.9C33.6001 60 33.9001 61.2 34.1001 62.4H34.2001C34.2001 61.2 33.9001 60.1 33.4001 58.9C33.4001 58.8 33.1001 58.8 33.2001 58.9Z" fill="#1D1D1B"></path><path d="M32.8 58.3C33.2 59.6 33.3 60.8 33.3 62.1H33.4001C33.7001 60.8 33.4 59.5 32.8 58.3C32.8 58.2 32.9 58.2 32.8 58.3Z" fill="#1D1D1B"></path><path d="M32.5 59.1C32.6 60 32.5 61 32.7 61.9H32.8C33.1 61 32.9 60 32.8 59.1C32.7 59 32.5 59 32.5 59.1Z" fill="#1D1D1B"></path><path d="M32.3 59.4C32.4 59.8 32.4001 60.2 32.5001 60.7C32.5001 60.2 32.4 59.8 32.3 59.4C32.3 59.3 32.4 59.3 32.3 59.4Z" fill="#1D1D1B"></path><path d="M31.6999 60.3C31.8999 60.4 32.0999 60.6 32.1999 60.8C32.2999 61 32.3999 61.1 32.4999 61.3H32.5999C32.6999 60.9 32.1999 60.5 31.7999 60.2C31.7999 60.1 31.5999 60.3 31.6999 60.3Z" fill="#1D1D1B"></path><path d="M31.3999 60.4C31.4999 60.6 31.5999 60.7 31.6999 60.9C31.6999 60.9 31.7999 60.9 31.6999 60.9C31.5999 60.7 31.4999 60.5 31.3999 60.4C31.3999 60.3 31.3999 60.3 31.3999 60.4Z" fill="#1D1D1B"></path><path d="M32.6001 60C32.9001 60.8 33.0001 61.5001 33.2001 62.3001C33.2001 62.4001 33.3001 62.3001 33.3001 62.3001C33.3001 61.5001 33.1001 60.8 32.8001 60C32.8001 59.9 32.6001 59.9 32.6001 60Z" fill="#1D1D1B"></path><path d="M32.8 58C33.3 58.9 33.6 59.7001 34 60.6001H34.1C33.9 59.7001 33.5 58.8 33 58C32.9 57.9 32.7 57.9 32.8 58Z" fill="#1D1D1B"></path><path d="M32.8999 56.9C33.2999 58.1 33.4999 59.3 33.8999 60.4H33.9999C33.7999 59.2 33.3999 58.1 32.8999 56.9C32.8999 56.9 32.9999 56.9 32.8999 56.9Z" fill="#1D1D1B"></path><path d="M33.2 57.6C33.4 58.1 33.5999 58.7 33.8999 59.2C34.0999 59.6 34.7999 60.5 34.3999 60.9C34.7999 60.6 34.3999 60.1 34.2999 59.7C33.9999 59 33.6 58.3 33.2 57.6C33.2 57.5 33.3 57.5 33.2 57.6Z" fill="#1D1D1B"></path><path d="M33.8999 59.5C34.0999 60.1 34.1999 60.7 34.0999 61.3H34.1999C34.2999 60.7 34.2999 60 34.0999 59.4C34.0999 59.4 33.8999 59.5 33.8999 59.5Z" fill="#1D1D1B"></path><path d="M18.3 48.7C18.7 49.2 19.5001 49.6 20.0001 50.1C20.5001 50.6 21.0001 51.1 21.4001 51.6C22.2001 52.7 22.9001 53.7999 23.7001 54.8999C24.6001 55.9999 25.8001 56.9 27.0001 57.8C28.5001 59 29.6001 60.3 30.4001 61.8C30.4001 61.9 30.6001 61.8 30.6001 61.8C30.0001 60.5 29.0001 59.3 27.7001 58.2C26.4001 57.1 25.0001 56.0999 24.0001 54.8999C23.1001 53.7999 22.4001 52.7 21.5001 51.6C21.1001 51.1 20.6001 50.5 20.0001 50C19.6001 49.4 19.1 48.9 18.3 48.7C18.3 48.7 18.4 48.7 18.3 48.7Z" fill="#1D1D1B"></path><path d="M16 48C16.6 48.6 17.5 49 18.2 49.6C18.9 50.2 19.6 50.8 20.3 51.4C20.4 51.4 20.4 51.4 20.4 51.3C19.9 50.6 19.2 50 18.5 49.4C17.8 49 17 48.3 16 48C16 48 16 47.9 16 48Z" fill="#1D1D1B"></path><path d="M17.6 48.7C18.8 49.3 19.6 50 20.3 50.8C20.4 50.9 20.6 50.8 20.5 50.7C20 49.8 18.9 49 17.7 48.4C17.6 48.5 17.4 48.6 17.6 48.7Z" fill="#1D1D1B"></path><path d="M18.6 48.9C19.3 49.4 20.1 49.8 20.8 50.3C20.9 50.4 21 50.3 20.9 50.2C20.2 49.7 19.5 49.2 18.7 48.7C18.7 48.7 18.5 48.9 18.6 48.9Z" fill="#1D1D1B"></path><path d="M18.7001 48.6C20.8001 49.3 22.1001 50.4 23.3001 51.7C23.4001 51.8 23.5001 51.7 23.5001 51.6C22.8001 50.1 20.9001 49.1 18.8001 48.5C18.7001 48.4 18.6001 48.5 18.7001 48.6Z" fill="#1D1D1B"></path><path d="M19.4999 49.2C20.6999 49.9 21.5999 50.7 22.5999 51.5C22.6999 51.5 22.7999 51.5 22.6999 51.4C22.0999 50.5 20.7999 49.7 19.6999 49C19.5999 49 19.2999 49.1 19.4999 49.2Z" fill="#1D1D1B"></path><path d="M16.4001 48.1C18.8001 48.9 21.2001 49.8 22.5001 51.5C22.6001 51.6 22.8001 51.5 22.8001 51.4C21.8001 49.6 19.1001 48.6 16.6001 48C16.4001 47.9 16.3001 48 16.4001 48.1Z" fill="#1D1D1B"></path><path d="M17 47.9C16.6 47.9 16.8 48.2 16.9 48.3C17.5 49.1 18.2 49.8 19 50.6C20.6 52.1 22.1 53.4 22.9 55.2C22.9 55.3 23.1 55.2 23.1 55.2C22.6 53.9 21.7 52.7 20.5 51.6C19.9 51 19.2 50.5 18.6 49.9C18.4 49.6 16.9 47.9 17 47.9Z" fill="#1D1D1B"></path><path d="M18 49.0001C19.7 50.3001 21.1 51.6001 22.3 53.1001C22.3 53.1001 22.5 53.1001 22.4 53.1001C21.4 51.5001 20 50.1001 18.1 48.9001C18.1 48.8001 18 48.9001 18 49.0001Z" fill="#1D1D1B"></path><path d="M21.3 50.8C21.8 51.4 22.3 52 22.8 52.6C22.8 52.7 23.0001 52.6 22.9001 52.6C22.4001 52 22.0001 51.4 21.5001 50.7C21.5001 50.6 21.3 50.7 21.3 50.8Z" fill="#1D1D1B"></path><path d="M21 50.7C22.1 51.2 22.9 51.8 23.6 52.5H23.7C23.1 51.7 22.1 51.1 21 50.7C20.9 50.7 21 50.6 21 50.7Z" fill="#1D1D1B"></path><path d="M23.3999 51.5C23.6999 51.8 23.8999 52.1 24.1999 52.3C24.1999 52.3 24.3999 52.3 24.2999 52.3L23.4999 51.4L23.3999 51.5Z" fill="#1D1D1B"></path><path d="M5.1001 47.9C8.9001 47.2 14.6001 46.3999 17.8001 48.5999C17.9001 48.6999 18.0001 48.6 17.9001 48.5C16.7001 47.5 14.6001 47.1999 12.8001 47.0999C10.2001 46.9999 7.5001 47.2 5.1001 47.9Z" fill="#1D1D1B"></path><path d="M32.4001 64.8999C33.0001 65.0999 34.0001 65.1 34.6001 64.8C34.7001 64.8 34.6001 64.7 34.5001 64.7C34.1001 64.7 33.8001 64.8 33.5001 64.8C33.1001 64.8 32.8001 64.8 32.5001 64.7C32.4001 64.8 32.3001 64.7999 32.4001 64.8999Z" fill="#1D1D1B"></path><path d="M32.4001 64.3C33.1001 64.7 34.8001 64.6 35.0001 63.9L34.9001 63.8C34.6001 64 34.3001 64.1 33.9001 64.2C33.4001 64.3 33.0001 64.2001 32.5001 64.1001C32.4001 64.2001 32.3001 64.3 32.4001 64.3Z" fill="#1D1D1B"></path><path d="M32.7001 64.7C33.2001 64.8 34.2001 64.8 34.4001 64.4C34.4001 64.3 34.3001 64.3 34.3001 64.3C34.1001 64.3 33.9001 64.5 33.6001 64.5C33.3001 64.5 33.1001 64.5 32.8001 64.5C32.6001 64.5 32.5001 64.6 32.7001 64.7Z" fill="#1D1D1B"></path><path d="M33.4 64.8C33.8 64.7 34.1 64.6 34.3 64.4C34.4 64.4 34.3 64.3 34.2 64.3C33.9 64.4 33.6 64.5001 33.3 64.6001C33.2 64.6001 33.3 64.8 33.4 64.8Z" fill="#1D1D1B"></path><path d="M33 64.3C34.1 64.4 35.3001 63.8 35.1001 63C34.9001 63.6 34.1 64.2 33 64.2C32.9 64.2 32.9 64.3 33 64.3Z" fill="#1D1D1B"></path><path d="M32.2 64C32.5 64 32.8 64.1 33 64.2C33.2 64.3 33.4 64.4 33.6 64.4C33.7 64.4 33.7 64.4 33.7 64.3C33.4 64 32.7 63.9 32.2 63.9C32.1 63.9 32.1 64 32.2 64Z" fill="#1D1D1B"></path><path d="M33.2001 63.6C33.7001 64.1 33.8001 64.7 33.5001 65.2C33.5001 65.3 33.6001 65.3 33.7001 65.3C34.2001 64.7 34.0001 64 33.4001 63.5C33.3001 63.5 33.1001 63.6 33.2001 63.6Z" fill="#1D1D1B"></path><path d="M32.7 70.6C32.7 70.7 32.7 70.8 32.7 70.8C32.7 70.9 32.7999 70.9 32.7999 70.8C33.1999 70.1 32.8999 69.2 32.7999 68.4C32.7999 68.8 32.7 69.2 32.7 69.7C32.7 69.9 32.7 70.1 32.7 70.2C32.7 70.4 32.7 70.5 32.7 70.6C32.7 70.7 32.7 70.7 32.7 70.6C32.7 70.6 32.8 70.6 32.7 70.6Z" fill="#1D1D1B"></path><path d="M32.7 68.4C32.7 69.2 32.7999 69.9 32.7999 70.7C32.7999 70.8 32.9999 70.8 32.9999 70.7C33.2999 69.8 33.3 69 33.2 68.1C33.1 69 32.9999 69.8 32.7999 70.7C32.8999 70.7 32.9999 70.7 32.9999 70.7C32.9999 69.9 32.9 69.2 32.7 68.4C32.7 68.4 32.8 68.4 32.7 68.4Z" fill="#1D1D1B"></path><path d="M32.8999 68.1C33.1999 68.7 33.3999 69.3 33.3999 69.9C33.3999 70 33.5999 70 33.5999 69.9C33.8999 69.5 33.9999 69 33.6999 68.6H33.4999C33.5999 69 33.2999 69.4 33.2999 69.9C33.4999 69.3 33.5999 68.9 33.3999 68.3C33.4999 68.5 33.4999 68.7 33.4999 69C33.4999 69.2 33.3999 69.5 33.3999 69.7C33.3999 69.9 33.4999 69.5 33.4999 69.4C33.5999 69.2 33.5999 68.9 33.6999 68.7H33.4999C33.4999 68.9 33.4999 69.1 33.4999 69.3C33.4999 69.5 33.3999 69.7 33.2999 70H33.4999C33.3999 69.3 33.2999 68.7 32.8999 68.1C32.8999 68 32.9999 68 32.8999 68.1Z" fill="#1D1D1B"></path><path d="M32.8 69.2C32.8 69.3 32.8001 69.8 32.6001 69.9C32.5001 70 32.5 69.3 32.5 69.2C32.5 68.8 32.6 68.5 32.4 68.1H32.3C32.2 68.3 32.1 69 31.9 69C31.9 69 31.8 68.4 31.8 68.3C31.8 68 31.8 67.7 31.9 67.4C31.9 67.4 31.8 67.3 31.8 67.4C31.5 68 31.6 68.6 31.9 69.2H32C32 69 32.0001 68.7 32.1001 68.6C32.2001 68.5 32.2 68.4 32.3 68.5C32.4 68.7 32.2001 69.1 32.2001 69.2C32.2001 69.5 32.3001 69.8 32.6001 70.1H32.7001C32.8001 69.8 32.8 69.5 32.8 69.2C32.8 69.2 32.9 69.2 32.8 69.2Z" fill="#1D1D1B"></path><path d="M31.3999 69C31.4999 68.6 31.6999 68.2 31.7999 67.8C31.5999 68.2 31.4999 68.6 31.3999 69Z" fill="#1D1D1B"></path><path d="M31.8999 68.7C32.0999 68.3 32.1999 67.9 32.3999 67.5H32.2999C32.0999 67.9 31.9 68.3 31.7 68.7C31.7 68.8 31.8999 68.8 31.8999 68.7Z" fill="#1D1D1B"></path><path d="M32.6001 70.3C33.0001 69.5 33.1 68.8 32.8 68H32.7001C32.9001 68.8 32.8001 69.5 32.4001 70.3C32.3001 70.3 32.5001 70.4 32.6001 70.3Z" fill="#1D1D1B"></path><path d="M32.8 70.2C33 70.2 33.1 70.3 33.3 70.3C33.3 70.3 33.3001 70.3 33.4001 70.3C33.6001 69.3 33.6001 68.4 33.4001 67.4H33.3C33.3 67.9 33.3 68.4 33.3 68.9C33.3 69.3 33.5 70.3 32.8 70.2Z" fill="#1D1D1B"></path><path d="M33.8999 69.5C34.3999 69.3 34.1999 69 34.1999 68.7C34.0999 68 33.9999 67.3 33.8999 66.6C33.8999 67.1 33.8999 67.6 33.9999 68.2C33.8999 68.5 34.1999 69.1 33.8999 69.5C33.8999 69.5 33.8999 69.4 33.8999 69.5Z" fill="#1D1D1B"></path><path d="M33 69.4C33.1 68.4 33.2 67.4 33.1 66.4C33.1 67.4 33.1 68.4 33 69.4Z" fill="#1D1D1B"></path><path d="M33.2 68.7C33.2 68.8 33.2999 68.9 33.2999 69C33.2999 69 33.4999 69.1 33.4999 69C33.6999 68.3 33.7 67.5 33.7 66.8H33.5999C33.4999 67.5 33.3999 68.3 33.2999 69C33.3999 69 33.3999 69 33.4999 69C33.3999 68.8 33.4 68.7 33.2 68.7C33.2 68.6 33.3 68.6 33.2 68.7Z" fill="#1D1D1B"></path><path d="M33 69.7C33.4 69 33.6 68.4 33.6 67.7H33.5C33.4 68.3 33.3 69 33 69.7C33 69.7 32.9 69.7 33 69.7Z" fill="#1D1D1B"></path><path d="M33.9999 75.4C33.9999 74.7 34.1999 74 33.9999 73.3H33.8999C33.6999 74 33.7999 74.7 33.8999 75.4C33.7999 75.5 33.9999 75.5 33.9999 75.4Z" fill="#1D1D1B"></path><path d="M33.3999 75.4C33.4999 74.6 33.7999 73.8 33.7999 73H33.7C33.3 73.7 33.2 74.6 33.2 75.4C33.2 75.5 33.3999 75.5 33.3999 75.4Z" fill="#1D1D1B"></path><path d="M33.3 75.1C33.4 74.6 33.7 73.9 33.5 73.4C33.5 73.3 33.4 73.4 33.4 73.4C33.1 73.9 33.1 74.6 33 75.1C33 75.2 33.2 75.2 33.3 75.1Z" fill="#1D1D1B"></path><path d="M32.9001 74.6C33.1001 74.3 33.2001 73.9 33.1001 73.5H33.0001C32.9001 73.8 32.8001 74.2 32.7001 74.5C32.5001 74.7 32.8001 74.7 32.9001 74.6Z" fill="#1D1D1B"></path><path d="M32.4001 75C32.4001 74.2 32.5001 73.4 32.3001 72.6H32.2001C32.1001 73.4 32.1001 74.2 32.1001 75C32.2001 75.1 32.4001 75.1 32.4001 75Z" fill="#1D1D1B"></path><path d="M32.2001 74.8C32.1001 74.1 32.0001 73.5 32.1001 72.8H32.0001C31.8001 73.5 31.8001 74.2 32.0001 74.9C32.0001 74.9 32.2001 74.9 32.2001 74.8Z" fill="#1D1D1B"></path><path d="M32.6001 74C32.7001 73.5 32.8 73.1 32.8 72.6C32.8 72.5 32.7001 72.5 32.6001 72.6C32.5001 73.1 32.4 73.5 32.3 74C32.4 74.1 32.6001 74.1 32.6001 74Z" fill="#1D1D1B"></path><path d="M32.8 75C33 74.3 33.1 73.6 33.3 72.9C33.3 72.8 33.2 72.8 33.2 72.9C33 73.6 32.8 74.3 32.6 75C32.5 75.1 32.7 75.1 32.8 75Z" fill="#1D1D1B"></path><path d="M32.3 75.3C32.6 74.3 33 73.3 33.5 72.3C33.5 72.2 33.4 72.2 33.3 72.3C32.7 73.3 32.3 74.2 32 75.2C32 75.3 32.3 75.4 32.3 75.3Z" fill="#1D1D1B"></path><path d="M32.3001 74.3C32.6001 71.2 37.1001 69.3 39.3001 66.9C39.4001 66.8 39.2001 66.8 39.2001 66.8C36.7001 69.3 32.4001 71.2 32.3001 74.3C32.3001 74.4 32.2001 74.4 32.3001 74.3Z" fill="#1D1D1B"></path><path d="M43.3 71.2999C45 71.6999 47.3001 72.0999 48.6001 70.9999C48.7001 70.8999 48.5001 70.7999 48.5001 70.8999C47.1001 71.8999 45.1 71.5999 43.3 71.2999Z" fill="#1D1D1B"></path><path d="M31.7001 71.8C31.7001 71.9 31.8001 71.9 31.8001 72H31.9001C32.0001 71.4 31.7001 70.8 31.5001 70.2C31.3001 69.7 30.9001 69.2 30.4001 68.8C29.3001 67.9 27.7001 67.4 26.2001 66.9C26.1001 66.9 26.1001 66.9 26.1001 67C27.6001 67.5 29.2001 68.1 30.2001 69C30.7001 69.5 31.0001 70 31.2001 70.6C31.4001 70.7 31.5001 71.6 31.7001 71.8Z" fill="#1D1D1B"></path><path d="M30.6999 71.3001C29.2999 70.7001 27.7999 70.7001 26.1999 71.1001C25.3999 71.3001 24.4999 71.5001 23.5999 71.7001C22.4999 71.9001 21.2999 71.9001 20.0999 71.8001C19.9999 71.8001 19.9999 71.9001 20.0999 71.9001C21.6999 72.1001 23.3999 71.9001 24.8999 71.6001C25.6999 71.4001 26.3999 71.2001 27.1999 71.1001C28.3999 70.9001 29.4999 71.1001 30.4999 71.5001C30.6999 71.5001 30.7999 71.3001 30.6999 71.3001Z" fill="#1D1D1B"></path></svg> 