<?xml version="1.0" encoding="UTF-8"?> <svg xmlns="http://www.w3.org/2000/svg" width="27" height="25" viewBox="0 0 27 25" fill="none"><path d="M12.9 19.3C12.5 18.5 12.9 17.7 12.4 17C11.9 16.1 11.5 15.4 11.7 14.4C12 12.8 13.4 11.2 12.9 9.49999C12.7 9.49999 12.6 9.6 12.4 9.6C12.6 10.4 13.1 11 13.6 11.7C14.2 12.6 14.5 13.5 14.5 14.4C14.5 16.2 13.4 17.9 12.1 19.4C11.9 19.6 12.4 19.8 12.6 19.6C14 18.1 15.1 16.4 15.1 14.6C15.1 13.8 15 12.9 14.5 12.1C14 11.2 13.1 10.5 12.8 9.49999C12.8 9.29999 12.3 9.39999 12.3 9.49999C12.5 11.4 11 13 10.9 14.9C10.8 15.7 11.1 16.3 11.6 17C12.1 17.8 11.7 18.7 12.3 19.5C12.5 19.5 13 19.4 12.9 19.3Z" fill="#1D1D1B"></path><path d="M15.3001 16.2999C15.3001 16.3999 15.4001 16.3999 15.4001 16.3999C15.5001 16.3999 15.5001 16.3999 15.6001 16.2999V16.1999L15.5001 16.0999C15.4001 16.0999 15.4001 15.9999 15.3001 15.9999C15.2001 15.9999 14.8001 16.0999 14.7001 16.0999C14.8001 16.1999 14.8001 16.2999 14.9001 16.3999C18.0001 15.3999 21.3001 13.9999 22.1001 11.6999C22.5001 10.4999 22.2001 9.19993 22.8001 7.89993C23.4001 6.69993 24.5001 5.69994 26.0001 4.99994C26.3001 4.79994 25.9001 4.49994 25.6001 4.59994C24.3001 5.19994 23.3001 5.99993 22.7001 6.89993C21.9001 7.99993 21.9001 9.09993 21.8001 10.1999C21.7001 11.5999 21.2001 12.8999 19.7001 13.8999C18.3001 14.8999 16.6001 15.4999 14.8001 16.0999C14.6001 16.1999 14.7001 16.3999 15.0001 16.3999C15.1001 16.3999 15.7001 16.2999 15.6001 16.1999C15.4001 16.1999 15.3001 16.2999 15.3001 16.2999Z" fill="#1D1D1B"></path><path d="M15.3 13.9C15.4 13.6 15.5 13.4 15.7 13.2C15.9 13 16.2 12.8 16.4 12.6C16.7 12.3 17 11.9 17.2 11.6C17.7 10.6 17.5 9.50004 18.2 8.60004C19.7 6.60004 23 6.00003 25.7 5.00003C25.8 5.00003 25.7 4.90002 25.6 4.90002C22.5 5.30002 19 6.50002 17.6 8.40002C16.9 9.40002 17 10.5 16.7 11.6C16.5 12.2 16 12.6 15.5 13.1C15.2 13.4 14.9 13.8 15.3 14.1C15.2 13.9 15.3 13.9 15.3 13.9Z" fill="#1D1D1B"></path><path d="M11.9999 13C11.6999 11.7 10.3999 10.8 8.69988 10.2C7.69988 9.89998 6.59989 9.39999 5.59989 9.09999C5.09989 8.99999 4.79989 8.99998 4.69989 9.39998C4.19989 10.6 5.59989 11.9 6.59989 12.7C7.29989 13.3 8.09989 13.8 8.89989 14.3C9.59989 14.8 10.3999 15.3 11.2999 15.6C11.4999 15.7 11.7999 15.5 11.5999 15.4C10.4999 14.7 9.29989 14 8.29989 13.3C7.19989 12.5 5.89989 11.7 5.49989 10.6C5.39989 10.5 5.09989 9.79998 5.29989 9.69998C5.59989 9.49998 5.99989 9.79998 6.19989 9.89998C6.99989 10.2 7.79989 10.4 8.59989 10.7C10.1999 11.3 11.1999 12 11.6999 13.2C11.6999 13.2 12.0999 13.1 11.9999 13Z" fill="#1D1D1B"></path><path d="M5.30004 9.29998C5.40004 7.89998 5.20004 6.39998 4.10004 5.19998C3.50004 4.59998 2.80004 3.99998 2.30004 3.29998C1.70004 2.49998 1.50005 1.59998 1.50005 0.699978C1.50005 0.499978 1.00005 0.399987 0.900047 0.599987C0.100047 2.29999 4.5836e-05 4.09997 0.700046 5.89997C1.30005 7.19997 2.40004 9.09998 4.80004 9.29998C5.10004 9.29998 5.20005 9.09998 4.90005 8.99998C2.60005 8.39998 1.60004 6.79997 1.10004 5.39997C0.600044 3.89997 0.700045 2.19998 1.50005 0.699978C1.30005 0.699978 1.10005 0.699987 0.900047 0.599987C0.800047 1.99999 1.50004 3.39998 2.80004 4.49998C3.60004 5.19998 4.20005 5.79999 4.50005 6.59999C4.80005 7.39999 4.80005 8.29999 4.90005 9.09999C5.00005 9.49999 5.30004 9.49998 5.30004 9.29998Z" fill="#1D1D1B"></path><path d="M12.7 19.1C12.7 19.1 12.7 19 12.7 19.1C12.9 18.9 12.7 18.7999 12.6 18.8999C12.1 19.1999 12.1 19.6 12.3 20C12.4 20.3 12.7 20.4999 12.9 20.6999C13.2 21.0999 13.3 21.4 13.3 21.8C13.3 22.5 12.4 24.0999 13.8 24.3999C14.1 24.4999 14.4 24.2 14.1 24C13.6 23.7 13.8 23.0999 13.9 22.6999C14 22.2999 14.1 21.7999 14 21.3999C13.9 21.0999 13.8 20.8 13.5 20.5C13.4 20.3 13.2 20.2 13 20C12.8 19.6 12.8 19.3 12.8 19C12.7 19 12.6 19 12.6 19.1C12.6 19 12.6 19.1 12.7 19.1C12.6 19.1 12.6 19.1 12.7 19.1Z" fill="#1D1D1B"></path><path d="M12.6001 20.1C13.0001 20.6 13.5001 21.2 14.2001 21.6C14.5001 21.7 14.8001 21.8 15.1001 21.9C15.8001 22 15.9001 22.2 16.2001 22.6C16.3001 22.7 16.5001 22.8 16.6001 22.6C17.0001 22.2 16.4001 21.7 15.8001 21.5C15.5001 21.4 15.3001 21.5 15.0001 21.4C14.6001 21.3 14.4001 21.1 14.1001 20.9C13.7001 20.6 13.3001 20.3 12.9001 20C12.7001 19.9 12.6001 20 12.6001 20.1Z" fill="#1D1D1B"></path><path d="M12.1001 19.8C12.3001 20 11.5001 20.6 11.3001 20.7C11.0001 20.9 10.5001 21.1 10.1001 21.3C9.60009 21.6 9.10009 21.8 9.00009 22.3C8.90009 22.6 9.10009 23 8.80009 23.3C8.60009 23.5 8.20009 23.6 7.80009 23.7C7.30009 23.9 6.70009 24 6.50009 24.4C6.40009 24.6 6.70009 24.7001 6.90009 24.6001C7.50009 24.3001 8.20009 24.1 8.80009 23.8C9.40009 23.5 9.50009 23.2 9.50009 22.7C9.50009 22.2 9.70009 21.9001 10.3001 21.6001C10.6001 21.5001 10.9001 21.3 11.2001 21.2C11.7001 20.9 12.3001 20.4 12.3001 19.9C12.3001 19.9 12.3001 19.8 12.2001 19.8C12.3001 19.8 12.2001 19.8 12.1001 19.8Z" fill="#1D1D1B"></path><path d="M11.0999 20.9C10.6999 21 10.6999 21.3 10.8999 21.5C10.9999 21.7 11.0999 21.8 11.1999 22C11.1999 22.2 11.0999 22.4 11.1999 22.7C11.1999 22.8 11.3999 22.9 11.5999 22.8C11.8999 22.6 11.8999 22.3 11.8999 22C11.7999 21.6 11.2999 21.4 11.4999 21C11.2999 21 11.1999 20.9 11.0999 20.9Z" fill="#1D1D1B"></path><path d="M12.2001 18.5C11.9001 18.9 11.7001 19.3 10.9001 19.5C10.3001 19.6 9.70011 19.7 9.10011 19.8C7.90011 20 6.80011 20.3 5.80011 20.8C5.10011 21.1 4.40011 21.6 4.00011 22.1C3.80011 22.4 3.70011 22.9 4.40011 22.9C4.60011 22.9 4.70011 22.8 4.50011 22.7C4.30011 22.6 4.90011 22 5.00011 21.9C5.30011 21.6 5.80011 21.4 6.20011 21.2C7.20011 20.8 8.30011 20.5 9.40011 20.3C10.7001 20.1 12.9001 19.8 12.5001 18.6C12.4001 18.4 12.3001 18.4 12.2001 18.5Z" fill="#1D1D1B"></path><path d="M12.2 19.1C12.2 20.8 16.9 19.4 17.7 20.7C17.7 20.8 17.9 20.8 18 20.7C18.6 20.2 17.6 19.8 17 19.7C16.3 19.6 15.6 19.6 14.9 19.5C14.5 19.5 14.1 19.5 13.7 19.5C13.2 19.5 12.9 19.2 12.6 19C12.4 19 12.2 19 12.2 19.1Z" fill="#1D1D1B"></path><path d="M7.89994 19.9C7.49994 19.8 7.09994 19.8 6.69994 19.8C6.39994 19.8 5.59994 19.8 5.39994 19.7C5.19994 19.5 4.69994 19.7 4.79994 19.9C4.89994 20 4.89994 20.1 5.09994 20.1C5.19994 20.1 5.39994 20.1 5.39994 20V19.9H4.79994C4.99994 20.2 5.49994 20.1 5.89994 20.2C6.49994 20.2 7.19994 20.3 7.79994 20.2C8.09994 20.2 8.09994 20 7.89994 19.9Z" fill="#1D1D1B"></path><path d="M6.39991 20.7C6.19991 20.9 6.0999 21.1 6.0999 21.3C5.9999 21.5 5.9999 21.7 6.0999 21.9C6.1999 22 6.29991 22 6.39991 21.9C6.59991 21.7 6.5999 21.5 6.5999 21.4C6.6999 21.2 6.7999 21 6.7999 20.8C6.7999 20.6 6.49991 20.6 6.39991 20.7Z" fill="#1D1D1B"></path><path d="M12.4001 19.1999C12.5001 19.1999 12.5001 19.1 12.6001 19.1C12.7001 19.1 12.7001 18.9999 12.8001 18.8999C12.9001 18.7999 13.0001 18.7 13.0001 18.6C13.1001 18.4 12.8001 18.2999 12.6001 18.3999C12.5001 18.4999 12.4001 18.5999 12.3001 18.6999C12.2001 18.7999 12.1001 18.9 12.1001 19.1C12.1001 19.3 12.4001 19.2999 12.6001 19.1999C12.7001 19.0999 12.8001 18.9999 12.9001 18.8999C13.0001 18.7999 13.1001 18.7 13.1001 18.5C12.9001 18.5 12.8001 18.5 12.6001 18.5C12.6001 18.6 12.5001 18.7 12.4001 18.8C12.4001 18.9 12.3001 18.9 12.3001 19C12.3001 19.1 12.3001 19.1 12.2001 19.1C12.2001 19.1 12.3001 19.1999 12.4001 19.1999Z" fill="#1D1D1B"></path><path d="M14.6001 16.3C15.4001 16.2 16.2001 15.6 16.7001 15.2C17.4001 14.7 18.0001 14.2 18.5001 13.7C18.6001 13.6 18.4001 13.5 18.3001 13.6C17.7001 14.1 17.0001 14.6 16.3001 15.1C15.8001 15.5 14.9001 15.8 14.6001 16.3C14.6001 16.3 14.5001 16.3 14.6001 16.3Z" fill="#1D1D1B"></path><path d="M15.1999 15.5C16.6999 14.7 17.8999 13.7 18.5999 12.6C18.6999 12.5 18.3999 12.4 18.2999 12.5C17.2999 13.5 16.2999 14.5 14.9999 15.4C14.8999 15.4 15.0999 15.6 15.1999 15.5Z" fill="#1D1D1B"></path><path d="M15.5001 15C17.2001 14.3 18.2001 13.2 18.5001 11.8C18.7001 11 18.8001 10.1 19.3001 9.30003C19.9001 8.50003 20.8001 8.00003 21.9001 7.50003C22.0001 7.50003 21.9001 7.40002 21.8001 7.40002C20.0001 8.00002 18.8001 9.20003 18.5001 10.5C18.3001 11.3 18.2001 12.1 17.8001 12.9C17.3001 13.7 16.5001 14.4 15.4001 14.9C15.3001 14.9 15.4001 15.1 15.5001 15Z" fill="#1D1D1B"></path><path d="M14.0999 15.5C15.3999 14.9 16.5999 14.2 17.3999 13.4C17.4999 13.3 17.2999 13.3 17.1999 13.3C16.1999 14.1 15.1999 14.8 13.9999 15.4C13.8999 15.4 13.9999 15.5 14.0999 15.5Z" fill="#1D1D1B"></path><path d="M15.5 14.4C16.5 13.8 17.6 13 18.1 12.1C18.1 12 18 12 17.9 12C17 12.7 16.3 13.5 15.2 14.1C15 14.3 15.3 14.5 15.5 14.4Z" fill="#1D1D1B"></path><path d="M15.6001 13.9C16.3001 13.4 17.1001 12.8 17.3001 12.1L17.2001 12C16.6001 12.5 16.1001 13.2 15.4001 13.7C15.3001 13.9 15.5001 14 15.6001 13.9Z" fill="#1D1D1B"></path><path d="M15.3001 13.3C15.4001 13.1 15.6001 12.9 15.8001 12.8C16.0001 12.7 16.3001 12.6 16.4001 12.5C16.4001 12.5 16.4001 12.4 16.3001 12.4C16.0001 12.3 15.7001 12.6 15.6001 12.7C15.4001 12.9 15.2001 13 15.1001 13.2C15.1001 13.3 15.3001 13.4 15.3001 13.3Z" fill="#1D1D1B"></path><path d="M15.5 13.7C15.9 13.4 16.3 13.1 16.7 12.8C17 12.5 17.4 12.2 17.6 11.9C17.6 11.8 17.5 11.8 17.5 11.8C17.1 12 16.7 12.3001 16.4 12.6001C16 12.9001 15.7 13.2 15.3 13.5C15.2 13.7 15.4 13.8 15.5 13.7Z" fill="#1D1D1B"></path><path d="M15.1001 13.9999C15.1001 14.3999 15.1001 14.7 15.2001 15.1C15.2001 15.2 15.1001 15.5 15.4001 15.6C15.5001 15.6 16.0001 15.1999 16.0001 15.1999C16.9001 14.6999 17.8001 14.0999 18.7001 13.4999C18.8001 13.3999 18.6001 13.2999 18.5001 13.3999C17.6001 13.8999 16.8001 14.3999 15.9001 14.8999C15.6001 15.0999 14.5001 15.4999 14.8001 15.8999C15.0001 16.0999 15.4001 15.9999 15.6001 15.7999C15.7001 15.5999 15.7001 15.3 15.6001 15.1C15.6001 14.7 15.5001 14.3999 15.4001 13.9999C15.5001 13.7999 15.1001 13.7999 15.1001 13.9999Z" fill="#1D1D1B"></path><path d="M15.0001 16C17.5001 15.1 20.1001 13.9 20.4001 11.9C20.4001 11.8 20.3001 11.8 20.2001 11.9C19.6001 13.8 17.3001 15 14.9001 15.9C14.8001 16 14.9001 16.1 15.0001 16Z" fill="#1D1D1B"></path><path d="M15.6001 15.9C17.2001 15.6 18.2001 14.2 19.0001 13.4C19.9001 12.4 21.0001 11.1 20.4001 9.90002H20.3001C20.4001 11.1 19.7001 12.2 18.8001 13.2C18.4001 13.6 18.0001 14 17.6001 14.4C17.1001 14.9 16.6001 15.5 15.6001 15.8C15.4001 15.7 15.5001 15.9 15.6001 15.9Z" fill="#1D1D1B"></path><path d="M16.4999 14.7C18.0999 13.4 19.3999 11.7 19.4999 10C19.4999 9.90005 19.2999 9.90005 19.2999 10C18.5999 11.7 17.8999 13.2001 16.2999 14.6001C16.0999 14.7001 16.3999 14.8 16.4999 14.7Z" fill="#1D1D1B"></path><path d="M12.7 18.6C13.4 18.2 13.6 17.2 13.9 16.6C14.2 15.9 14.5 15.1 14.4 14.3C14.4 14.2 14.2 14.2 14.1 14.3C13.8 15 13.7 15.8 13.4 16.5C13.3 16.9 13.1 17.2 12.9 17.5C12.8 18 12.6 18.3 12.7 18.6C12.7 18.7 12.6 18.6 12.7 18.6Z" fill="#1D1D1B"></path><path d="M13.2001 18C13.8001 16.9 14.3001 15.6 13.9001 14.5C13.9001 14.4 13.7001 14.4 13.7001 14.5C13.5001 15.7 13.5001 16.8 12.8001 17.9C12.7001 18 13.1001 18.1 13.2001 18Z" fill="#1D1D1B"></path><path d="M12.8 17.5C13.3 16.7 13.5 15.8 13.1 14.9C13.1 14.8 12.8 14.8 12.8 14.9C12.9 15.8 12.9 16.6 12.4 17.4C12.2 17.6 12.7 17.6 12.8 17.5Z" fill="#1D1D1B"></path><path d="M12.5 17.7C12.5 17.8 12.6 17.9 12.6 17.9C12.6 18 12.8 18 12.9 17.9C13.2 17 13 15.5 12 14.8C11.9 14.7 11.8 14.8 11.8 14.9C11.9 15.4 12.3 15.8 12.4 16.3C12.6 16.8 12.6 17.4 12.6 17.9H12.9C12.9 17.8 12.8 17.8 12.8 17.7C12.7 17.6 12.5 17.6 12.5 17.7Z" fill="#1D1D1B"></path><path d="M12.5999 17.3C12.2999 16.5 12.2999 15.6 11.9999 14.8C11.9999 14.7 11.7999 14.7 11.7999 14.8C11.5999 15.6 11.9999 16.6 12.2999 17.4C12.2999 17.5 12.6999 17.5 12.5999 17.3Z" fill="#1D1D1B"></path><path d="M13.3001 17.1C13.4001 15.7 13.4001 14.3 13.4001 12.9C13.4001 11.7 13.4001 10.6 12.5001 9.59998C12.5001 9.59998 12.3001 9.59998 12.4001 9.59998C13.2001 10.8 13.2001 12 13.1001 13.2C13.1001 14.5 13.1001 15.8 13.2001 17C13.2001 17.1 13.3001 17.1 13.3001 17.1Z" fill="#1D1D1B"></path><path d="M11 14.3C11.5 12.6 7.90005 11.6 6.50005 10.5C6.40005 10.4 6.30005 10.5 6.30005 10.6C7.60005 12 10.4 12.5 11 14.3C11 14.3 10.9 14.3 11 14.3Z" fill="#1D1D1B"></path><path d="M5.09995 8.4C4.49995 8.8 3.29995 7.00001 3.09995 6.70001C2.49995 5.90001 1.99995 5.00002 1.49995 4.10002C1.39995 4.00002 1.19995 4.10001 1.19995 4.20001C1.39995 4.70001 1.49995 5.10001 1.89995 5.50001H1.99995C1.69995 5.10001 1.39995 4.70001 1.49995 4.20001C1.39995 4.20001 1.29995 4.20001 1.19995 4.20001C1.59995 5.10001 2.19995 6.1 2.79995 6.9C3.29995 7.6 3.79995 8.40001 4.99995 8.70001C5.19995 8.80001 5.29995 8.60001 5.19995 8.50001L5.09995 8.4Z" fill="#1D1D1B"></path><path d="M4.30011 8.19997C4.60011 8.39997 4.60011 8.59996 4.60011 8.89996C4.70011 8.89996 4.80011 8.89996 4.90011 8.89996C4.80011 8.09996 4.60011 7.29998 4.40011 6.59998C4.20011 6.19998 4.00011 5.69998 3.30011 5.59998C3.20011 5.59998 3.10011 5.69997 3.20011 5.69997C4.40011 6.49997 4.30011 7.89997 4.70011 8.99997C4.70011 9.09997 5.00011 9.09996 5.00011 8.89996C4.80011 8.49996 4.60011 8.29997 4.30011 8.19997C4.20011 8.09997 4.30011 8.09997 4.30011 8.19997Z" fill="#1D1D1B"></path><path d="M4.40006 8.40004C4.40006 8.40004 4.00006 8.00004 3.90006 8.00004C3.70006 7.90004 3.50006 7.70005 3.30006 7.60005C3.00006 7.40005 2.40006 7.10004 2.00006 7.20004C1.90006 7.20004 1.80006 7.30004 1.90006 7.30004C2.10006 7.50004 2.40006 7.60004 2.70006 7.70004C3.10006 7.90004 3.50006 8.10004 3.70006 8.40004C3.80006 8.50004 4.00006 8.70004 4.20006 8.80004C4.40006 8.80004 4.60006 8.70005 4.70006 8.60005C4.80006 8.30005 4.50006 8.30004 4.40006 8.40004Z" fill="#1D1D1B"></path><path d="M4.20002 8.39996C3.90002 8.39996 3.60002 8.29996 3.40002 8.19996C3.30002 8.09996 3.20001 8.09997 3.10001 7.99997C3.00001 7.89997 3.00002 7.79997 2.90002 7.79997C2.80002 7.69997 2.60001 7.79996 2.60001 7.89996C2.50001 8.09996 2.90001 8.39997 3.10001 8.49997C3.40001 8.69997 3.80002 8.79996 4.20002 8.69996C4.50002 8.69996 4.50002 8.49996 4.20002 8.39996Z" fill="#1D1D1B"></path><path d="M3.2999 8.29997C3.8999 8.49997 4.4999 8.79997 4.8999 9.19997C4.9999 9.29997 5.3999 9.19998 5.2999 9.09998C5.0999 8.49998 4.8999 7.99996 4.4999 7.39996C4.2999 6.99996 3.8999 6.79998 3.2999 6.59998C2.9999 6.59998 2.8999 6.79996 3.0999 6.89996C3.8999 7.49996 3.5999 9.09997 5.0999 9.19997C5.1999 9.19997 5.2999 9.09998 5.1999 9.09998C4.6999 8.69998 4.3999 8.29997 4.1999 7.79997C4.0999 7.39997 3.8999 6.99997 3.3999 6.69997L3.1999 6.99997C4.2999 7.29997 4.4999 8.59997 4.8999 9.19997C4.9999 9.19997 5.0999 9.09998 5.2999 9.09998C4.7999 8.79998 4.1999 8.49997 3.4999 8.29997C3.2999 8.09997 3.1999 8.19997 3.2999 8.29997Z" fill="#1D1D1B"></path><path d="M11.5 15.3C11.5 15 11 14.6 10.7 14.3C10.3 14 9.80001 13.7 9.20001 13.6C9.10001 13.6 9.00002 13.7 9.10002 13.7C9.50002 13.9 10 14.1 10.3 14.4C10.5 14.5 10.7 14.7 10.8 14.9C10.9 15 11 15.2 11.2 15.3C11.4 15.4 11.5 15.4 11.5 15.3Z" fill="#1D1D1B"></path><path d="M11.4 14.4C11.1 13.7 10.4 12.7 9.29996 12.4C9.19996 12.4 9.19995 12.4 9.19995 12.5C9.49995 12.8 9.89995 13.1 10.2 13.4C10.5 13.7 10.8 14.1 11 14.5C11.1 14.7 11.5 14.6 11.4 14.4Z" fill="#1D1D1B"></path><path d="M11.2 13.8C11.7 13.7 11.5 13.2 11.4 13C11.2 12.5 10.8 11.9 10.2 11.5C10.1 11.4 10 11.5 10 11.6C10.2 11.9 11.9 13.5 11.2 13.8C11.1 13.8 11.1 13.8 11.2 13.8Z" fill="#1D1D1B"></path><path d="M11.4999 13.2C11.1999 12.6 10.4999 11.9 9.4999 11.7C9.3999 11.7 9.3999 11.7 9.3999 11.8C9.6999 12 10.0999 12.1999 10.3999 12.3999C10.6999 12.6999 10.9999 13 11.1999 13.3C11.2999 13.4 11.5999 13.4 11.4999 13.2Z" fill="#1D1D1B"></path><path d="M10.6999 13.5C10.7999 13.5 10.8999 13.6 10.9999 13.6C11.0999 13.2 10.8999 12.9 10.5999 12.6C10.3999 12.2 10.0999 11.9 9.5999 11.6C9.4999 11.6 9.3999 11.6 9.3999 11.7C9.5999 12.1 9.9999 12.4 10.1999 12.7C10.2999 12.9 10.3999 13.2 10.5999 13.4C10.7999 13.5 10.9999 13.6 10.6999 13.5C10.5999 13.5 10.6999 13.5 10.6999 13.5Z" fill="#1D1D1B"></path><path d="M10.8 14.4C11.3 13.7 11.7 12.9 11.2 12.1C10.8 11.5 10 11 9.00003 10.9C8.80003 10.9 8.70003 11 8.90003 11.1C11 11.7 11.3 13 10.7 14.4C10.6 14.4 10.8 14.4 10.8 14.4Z" fill="#1D1D1B"></path><path d="M10.3001 14.4C10.5001 14.3 10.6001 14.3 10.8001 14.2C10.9001 14.2 10.9001 14.1 10.9001 14.1C9.70006 13.3 8.40006 12.5 7.00006 11.8C6.90006 11.7 6.80006 11.9 6.90006 11.9C7.50006 12.3 8.20006 12.7 8.90006 13.1C9.20006 13.3 9.50007 13.5 9.80007 13.6C10.0001 13.9 10.8001 14.1 10.3001 14.4C10.3001 14.4 10.2001 14.4 10.3001 14.4Z" fill="#1D1D1B"></path><path d="M9.7999 14.2C8.9999 13.6 8.1999 13 7.5999 12.3C7.4999 12.2 7.3999 12.3 7.3999 12.4C7.9999 13.1 8.6999 13.8 9.5999 14.4C9.7999 14.4 9.8999 14.3 9.7999 14.2Z" fill="#1D1D1B"></path></svg> 