<?xml version="1.0" encoding="UTF-8"?> <svg xmlns="http://www.w3.org/2000/svg" width="12" height="16" viewBox="0 0 12 16" fill="none"><path d="M9.89991 11.2C9.69991 9.80003 7.39991 8.70004 5.59991 8.30004C3.99991 7.90004 0.599912 7.80004 0.699912 9.50004C0.899912 11 3.89991 11.4 5.69991 11.6C6.39991 11.7 7.09991 11.7 7.69991 11.7C8.19991 11.7 8.99991 11.8 9.39991 11.6C9.99991 11.3 9.49991 10.7 9.09991 10.4C8.99991 10.3 8.79991 10.4 8.79991 10.5C8.89991 10.8 9.29991 11.2 8.69991 11.3C8.39991 11.3 7.99991 11.3 7.69991 11.3C6.79991 11.3 5.99991 11.2 5.09991 11.1C3.79991 11 0.799911 10.5 1.29991 9.20003C1.79991 7.90003 4.99991 8.50004 6.19991 9.00004C7.49991 9.50004 9.19991 10.3 9.39991 11.3C9.59991 11.4 9.89991 11.4 9.89991 11.2Z" fill="#1D1D1B"></path><path d="M10.4 0.799957C9.49998 1.49996 9.19998 2.59995 8.69998 3.39995C8.19998 4.29995 7.69998 5.19996 7.49998 6.09996C7.29998 6.89996 7.49998 7.59996 7.99998 8.29996C8.59998 9.29996 9.39998 10.1 9.29998 11.3C9.29998 11.4 9.49998 11.4 9.59998 11.3C10.1 10.6 9.79998 9.89995 9.39998 9.19995C8.79998 8.29995 8.09998 7.49995 8.19998 6.39995C8.29998 5.39995 8.89998 4.39995 9.29998 3.49995C9.69998 2.59995 10.5 1.59995 10.5 0.699951C10.5 0.799951 10.4 0.699957 10.4 0.799957Z" fill="#1D1D1B"></path><path d="M10.2999 0.90004C9.29994 2.40004 10.3999 4.30005 10.7999 5.80005C11.0999 6.80005 11.1999 7.90004 10.8999 8.90004C10.5999 9.90004 9.89994 10.5 9.19994 11.3C9.09994 11.4 9.29994 11.6 9.49994 11.5C11.5999 10.6 11.8999 8.30005 11.6999 6.80005C11.5999 5.90005 11.1999 4.90005 10.9999 4.00005C10.7999 3.50005 10.6999 2.90005 10.5999 2.30005C10.4999 1.80005 10.5999 1.30005 10.5999 0.800049C10.4999 0.900049 10.2999 0.90004 10.2999 0.90004Z" fill="#1D1D1B"></path><path d="M9.79992 11C9.79992 11 9.69992 11 9.79992 11C9.69992 10.9 9.49992 10.8 9.39992 10.9C9.19992 11 9.09991 11 9.09991 11.2C9.29991 11.2 9.39991 11.2 9.59991 11.2C9.59991 11.1 9.59991 11 9.59991 11C9.59991 10.9 9.29992 10.8 9.19992 10.9C8.99992 11 8.99992 11 8.89992 11.2C8.79992 11.4 9.19992 11.6 9.39992 11.4C9.49992 11.2 9.59992 11.1 9.69992 10.9C9.79992 10.7 9.29992 10.6 9.19992 10.8C9.09992 10.9 8.99992 11 8.89992 11.2C9.09992 11.2 9.19992 11.3 9.39992 11.3C9.39992 11.2 9.49992 11.1 9.49992 11.1L8.99992 11C8.89992 11.4 9.19992 11.6 9.29992 11.9C9.49992 12.4 9.09992 12.9 8.89992 13.4C8.69992 14.2 9.19991 14.7 9.59991 15.3C9.69991 15.4 9.89992 15.4 9.89992 15.3C10.0999 15.1 9.99992 14.9 9.79992 14.7C9.39992 14.2 9.19992 13.8 9.49992 13.2C9.59992 12.9 9.79992 12.5 9.79992 12.1C9.79992 11.7 9.29992 11.3 9.29992 10.9C9.39992 10.7 8.79992 10.6 8.79992 10.8C8.79992 10.9 8.69992 11 8.69992 11C8.59992 11.2 9.09992 11.3 9.19992 11.1C9.29992 11 9.39992 10.8 9.49992 10.7L8.99992 10.6C8.99992 10.8 8.89992 10.9 8.79992 11C8.99992 11 9.09992 11.1 9.29992 11.1L9.49992 10.9C9.29992 10.9 9.19992 10.8 8.99992 10.8C8.99992 10.9 8.99992 11 8.99992 11C8.99992 11.2 9.39992 11.2 9.49992 11C9.59992 11.2 9.69992 11.1 9.79992 11Z" fill="#1D1D1B"></path><path d="M9.50005 12.2C9.30005 12.5 9.40005 12.8 9.70005 13.1C9.90005 13.3 10.1 13.4 10.3 13.5C10.6 13.7 10.5 13.9 10.6 14.2C10.6 14.3 10.8 14.3 10.9 14.3C11.3 14.1 11.1 13.7 10.8 13.5C10.5 13 9.80005 12.7 9.50005 12.2C9.60005 12.2 9.60005 12.2 9.50005 12.2Z" fill="#1D1D1B"></path><path d="M9.09999 11.8C8.79999 11.9 8.49999 12.1 8.29999 12.3C8.19999 12.4 7.89999 12.7 8.09999 12.9C8.39999 13.1 8.59999 12.8 8.69999 12.6C8.89999 12.4 9.09999 12.2 9.39999 12C9.59999 11.9 9.29999 11.7 9.09999 11.8Z" fill="#1D1D1B"></path><path d="M1.00006 9.09999C2.20006 8.79999 3.50006 8.99999 4.70006 9.29999C5.40006 9.39999 6.00006 9.59998 6.50006 9.89998C6.90006 10.1 7.80006 10.3 8.00006 10.7C8.00006 10.8 8.20006 10.8 8.30006 10.7C8.50006 10.3 8.00006 10.1 7.50006 9.99998C6.70006 9.69998 6.20007 9.29999 5.40007 9.09999C4.30007 8.79999 1.90006 8.29998 0.900064 8.99998C0.800064 9.09998 0.900064 9.19999 1.00006 9.09999Z" fill="#1D1D1B"></path><path d="M9.5001 10.7C10.0001 9.99996 10.0001 8.99997 10.0001 8.29997C10.0001 7.59997 10.0001 6.79997 9.3001 6.29997C9.2001 6.19997 9.1001 6.29996 9.1001 6.39996C10.1001 7.79996 9.2001 9.39997 9.3001 10.8C9.4001 10.7 9.5001 10.7 9.5001 10.7Z" fill="#1D1D1B"></path><path d="M9.79999 10.6C11 9.40005 11.7 7.80004 11.1 6.40004C11.1 6.30004 10.9 6.40004 10.9 6.40004C10.9 7.90004 10.6 9.20004 9.49999 10.5C9.39999 10.6 9.59999 10.7 9.79999 10.6Z" fill="#1D1D1B"></path><path d="M9.59995 9.19997C9.49995 8.79997 9.39995 8.49998 9.29995 8.09998H9.19995C9.29995 8.49998 9.39995 8.89997 9.59995 9.19997C9.59995 9.29997 9.49995 9.29997 9.59995 9.19997Z" fill="#1D1D1B"></path><path d="M9.3 10.3C9.4 10.2 9.5 10.2 9.6 10.1C9.1 9.19998 8.7 8.19998 8.2 7.29998C8.2 7.19998 8 7.19998 8 7.29998C8.1 7.79998 8.3 8.29998 8.6 8.79998C8.9 9.19998 9.7 9.99998 9.3 10.3Z" fill="#1D1D1B"></path><path d="M9.6999 9.80002C9.5999 8.70002 9.4999 7.60002 9.1999 6.60002C9.1999 6.50002 8.8999 6.50002 8.8999 6.60002C8.9999 7.70002 9.2999 8.70002 9.3999 9.80002C9.3999 9.90002 9.6999 9.90002 9.6999 9.80002Z" fill="#1D1D1B"></path><path d="M9.49995 10.5C10.1 9.59997 9.99995 8.69997 9.89995 7.79997C9.69995 6.69997 9.49995 5.59998 9.19995 4.59998C9.29995 5.59998 9.39995 6.59998 9.49995 7.59998C9.59995 8.59998 9.89995 9.59997 9.39995 10.5C9.29995 10.5 9.49995 10.5 9.49995 10.5Z" fill="#1D1D1B"></path><path d="M10.2001 9.40004C10.9001 8.40004 10.8001 7.60005 10.5001 6.50005C10.5001 6.40005 10.3001 6.40005 10.2001 6.50005C10.0001 7.40005 10.0001 8.30005 10.1001 9.20005C10.1001 9.30005 10.2001 9.30005 10.2001 9.20005C10.2001 8.30005 10.3001 7.40005 10.4001 6.60005C10.3001 6.60005 10.2001 6.60005 10.1001 6.60005C10.7001 7.40005 10.5001 8.50004 10.2001 9.40004C10.2001 9.40004 10.1001 9.40004 10.2001 9.40004Z" fill="#1D1D1B"></path><path d="M9.39998 8.30001C9.49998 8.40001 9.69998 8.30001 9.69998 8.20001C9.69998 8.00001 9.29998 7.80001 9.19998 7.70001C8.89998 7.50001 8.69998 7.20001 8.39998 7.00001C8.29998 7.00001 8.19998 6.90001 8.19998 7.00001C7.99998 7.60001 8.39997 8.20001 8.99997 8.70001C9.09997 8.80001 9.19997 8.70002 9.09997 8.60002C8.59997 8.10002 8.49998 7.60001 8.39998 7.00001C8.29998 7.00001 8.29998 7.00001 8.19998 7.00001C8.39998 7.20001 8.59997 7.40002 8.79997 7.60002C8.89997 7.70002 8.99997 7.8 9.09997 7.9C9.29997 8.1 9.39998 8.30001 9.39998 8.30001C9.39998 8.30001 9.49998 8.30001 9.39998 8.30001Z" fill="#1D1D1B"></path><path d="M1.80002 9.10002C1.70002 9.60002 1.90002 9.90002 2.60002 10.2C3.40002 10.6 4.50002 10.9 5.40002 11C5.50002 11 5.60002 10.9 5.50002 10.8C5.00002 10.5 4.50002 10.3 3.80002 10.1C3.10002 9.90002 2.40002 9.60002 2.00002 9.20002C2.40002 10.3 4.50002 10.2 5.30002 11C5.40002 11 5.40002 10.9 5.50002 10.9C4.20002 10.5 1.90002 10.2 1.80002 9.10002C1.80002 9.00002 1.80002 9.00002 1.80002 9.10002Z" fill="#1D1D1B"></path><path d="M2.09998 9.40004C2.89998 9.70004 3.89998 9.80004 4.79998 9.70004C3.89998 9.70004 3.09998 9.60005 2.19998 9.30005C2.09998 9.30005 1.89998 9.40004 2.09998 9.40004Z" fill="#1D1D1B"></path><path d="M2.99999 9.60005C3.59999 9.70005 4.19999 9.90004 4.79999 10.2C4.89999 10.2 4.99999 10.1001 4.89999 10.1001C4.29999 9.80005 3.69999 9.60005 2.99999 9.50005C2.89999 9.40005 2.79999 9.60005 2.99999 9.60005Z" fill="#1D1D1B"></path></svg> 