<?xml version="1.0" encoding="UTF-8"?> <svg xmlns="http://www.w3.org/2000/svg" width="150" height="135" viewBox="0 0 150 135" fill="none"><path d="M122.5 118.7C120.5 118.5 119.3 119.6 119.9 121.1C120.2 121.8 120.6 122.5 121.3 122.9C122.1 123.3 123.3 123.5 124.2 123.4C125.9 123.2 127.1 121.7 126.5 120.4C126.2 119.7 125.4 119.1 124.5 118.7C123.6 118.3 122.8 118.6 121.9 118.7C121.8 118.7 121.8 118.9 121.9 118.9C122.6 118.9 123.2 118.6 123.9 118.7C124.7 118.8 125.5 119.3 125.9 119.9C126.9 121 126.3 122.6 124.7 123.1C123.9 123.3 123 123.3 122.2 123.1C121.3 122.9 120.7 122.4 120.3 121.8C119.9 121.2 119.5 120.4 119.9 119.7C120.4 119 121.3 118.8 122.3 118.9C122.6 118.9 122.7 118.7 122.5 118.7Z" fill="#1D1D1B"></path><path d="M126.8 108C126.7 110.2 126.6 112.4 126.7 114.6C126.7 115.7 126.7 116.7 126.7 117.8C126.7 118.4 126.7 118.9 126.7 119.5C126.7 119.9 127 121.3 126.3 121.5C126.1 121.5 126.1 121.8 126.4 121.8C127.5 121.8 127.2 120.6 127.2 120C127.2 118.7 127.1 117.3 127.1 116C127.1 113.3 127.1 110.7 127.1 108C127.2 107.9 126.8 107.9 126.8 108Z" fill="#1D1D1B"></path><path d="M126.4 121C126.5 121.3 126.5 121.5 126.4 121.8C126.5 121.8 126.6 121.8 126.7 121.9C126.8 121.4 126.9 121 126.7 120.5C126.7 120.4 126.4 120.4 126.4 120.6C126.6 121.3 126.2 121.8 126.1 122.4C126 122.9 126.1 123.4 126.3 123.9C126.7 125.2 127 126.4 126.5 127.7C126.2 128.8 125.6 129.7 125.6 130.8C125.6 131.9 125.9 133.1 126.3 134.1C126.3 134.2 126.4 134.1 126.4 134.1C126 132.9 125.8 131.6 125.9 130.4C126 129.2 126.8 128.1 127.1 126.9C127.3 125.8 127.1 124.8 126.7 123.8C126.4 123.1 126.4 122.5 126.6 121.8C126.7 121.4 126.8 121 126.7 120.5C126.6 120.5 126.5 120.5 126.4 120.6C126.5 121 126.5 121.4 126.4 121.8C126.4 122 126.6 122 126.7 121.9C126.8 121.6 126.8 121.3 126.7 121C126.6 120.8 126.3 120.9 126.4 121Z" fill="#1D1D1B"></path><path d="M126.9 125.5C126.8 125.1 126.7 124.7 126.4 124.3C126.3 124.1 126.1 124 125.9 123.8C125.7 123.6 125.5 123.5 125.8 123.3C125.7 123.3 125.7 123.3 125.6 123.2C125.6 123.4 125.6 123.4 125.7 123.5C125.7 123.6 125.9 123.6 125.9 123.5C126 123.3 126 123.3 125.9 123.2C125.9 123.1 125.7 123.1 125.7 123.2C125.7 123.3 125.2 123.1 125.2 123.1C125.1 123.1 125 123.2 125.1 123.3C125.5 123.7 125.9 124.2 126.2 124.7C126.5 125.2 126.6 125.6 126.8 126.1C126.8 126.2 126.9 126.1 126.9 126.1C127 125 125.8 124.1 125.2 123.2C125.1 123.3 125.1 123.3 125 123.4C125.3 123.5 125.8 123.7 125.8 123.3C125.7 123.3 125.6 123.3 125.6 123.3C125.6 123.4 125.6 123.5 125.6 123.5H125.8C125.8 123.4 125.7 123.3 125.7 123.2C125.7 123.1 125.6 123.1 125.5 123.1C125.4 123.2 125.3 123.2 125.1 123.3C125 123.3 125 123.4 125.1 123.4C125.7 124 126.4 124.6 126.5 125.4C126.6 125.6 127 125.6 126.9 125.5Z" fill="#1D1D1B"></path><path d="M141 90.7001C140.7 92.1001 141.9 93.1001 143 94.1001C143.8 94.7001 144.4 95.4001 144.9 96.3001C145.2 97.0001 145.4 97.7001 145.8 98.3001C145.8 98.4001 145.9 98.3001 145.9 98.3001C145.8 97.1001 145.2 95.7001 144.2 94.7001C143.1 93.5001 141 92.5001 141.4 90.8001C141.5 90.6001 141.1 90.5001 141 90.7001Z" fill="#1D1D1B"></path><path d="M148.8 90.1C149.1 91.9 148.2 93.3 147.2 94.8C146.8 95.4 146.5 96 146.2 96.6C146 97.2 145.7 97.9 145.9 98.6H146C146.3 97.9 146.3 97.1 146.6 96.4C146.9 95.6 147.5 94.8999 148 94.1999C148.9 92.8999 149.4 91.6 149.2 90.1C149.1 89.9 148.7 89.9 148.8 90.1Z" fill="#1D1D1B"></path><path d="M141.8 90.5999C143 90.2999 144.3 90.1999 145.5 90.1999C146.1 90.1999 146.6 90.1999 147.2 90.2999C147.7 90.2999 148.3 90.3999 148.8 90.2999C148.9 90.2999 148.9 90.1999 148.8 90.1999C148.3 89.9999 147.8 90.0999 147.3 89.9999C146.6 89.9999 146 89.8999 145.3 89.8999C144 89.8999 142.8 89.9999 141.6 90.2999C141.5 90.2999 141.6 90.5999 141.8 90.5999Z" fill="#1D1D1B"></path><path d="M141 90.6C140.5 90.8 140 91.1 139.6 91.5C139.5 91.6 139.7 91.8 139.8 91.7C140.5 91.3 141.2 90.8 141.8 90.4C141.9 90.3 141.8 90.2 141.6 90.2C141.3 90.4 141 90.5 140.7 90.7L140.9 90.9C141.1 90.7 141.3 90.6 141.5 90.4C141.6 90.3 141.5 90.2 141.4 90.2C141.2 90.2 141.2 90.2 141.1 90.3V90.4C141.2 90.5 141.2 90.5 141.3 90.6H141.4C141.5 90.5 141.4 90.4 141.3 90.5C140.4 90.9 139.7 91.6 138.7 92C137.7 92.5 136.6 92.8 135.6 93.3C133.8 94.2 132.1 95.3 131.3 96.9C130.5 98.7 130.1 100.6 129.8 102.5C129.6 103.6 129.8 104.8 129.1 105.8C128.6 106.7 127.7 107.4 126.8 108C126.6 108.1 126.9 108.3 127.1 108.2C127.9 107.7 128.6 107.1 129.2 106.4C129.8 105.6 130 104.9 130.1 104C130.3 102 130.7 99.9 131.4 98C131.7 97 132.2 96.2 133 95.4C133.8 94.7 134.8 94.1 135.8 93.6C136.8 93.1 137.9 92.8 138.9 92.3C139.8 91.8 140.4 91.1 141.4 90.7L141.3 90.6C141.4 90.6 141.4 90.6 141.5 90.6C141.5 90.5 141.4 90.5 141.4 90.4C141.2 90.6 141 90.7 140.7 90.9C140.6 91 140.7 91.1 140.9 91.1C141.2 90.9 141.5 90.8 141.9 90.6C141.8 90.5 141.8 90.5 141.7 90.4C141 90.8 140.3 91.2 139.6 91.7C139.7 91.8 139.7 91.8 139.8 91.9C140.2 91.5 140.6 91.3 141.1 91C141.3 90.8 141.2 90.6 141 90.6Z" fill="#1D1D1B"></path><path d="M129.5 106.2C131.1 105.5 132.9 105.5 134.7 105.1C136.2 104.8 137.6 104.2 138.8 103.4C140.1 102.6 141.4 101.6 142.3 100.6C142.9 100 143.4 99.3001 143.9 98.6001C144.4 98.0001 145.1 97.4001 145.3 96.7001C145.3 96.6001 145.2 96.6001 145.1 96.6001C144.5 97.0001 144.1 97.7001 143.6 98.3001C143.1 98.9001 142.7 99.5001 142.2 100.1C141.2 101.3 139.9 102.3 138.5 103.2C137.1 104.1 135.6 104.7 133.9 104.9C132.3 105.1 130.8 105.2 129.4 105.9C129.1 106 129.3 106.3 129.5 106.2Z" fill="#1D1D1B"></path><path d="M127.5 108.4C127.8 107.7 128.8 107.5 129.6 107.5C130.3 107.5 130.8 107.8 131.4 107.9C131.5 107.9 131.6 107.8 131.5 107.7C130.4 106.9 127.6 107.1 127.2 108.3C127.2 108.4 127.5 108.5 127.5 108.4Z" fill="#1D1D1B"></path><path d="M131.2 107.5C133.2 107.5 135.3 107.4 137.2 107.9C138.1 108.1 139 108.4 139.9 108.8C140.8 109.2 141.4 109.8 142 110.4C143.2 111.5 144 112.6 144.8 113.9C145.2 114.5 145.5 115.1 145.9 115.7C146.3 116.2 146.6 116.8 147.2 117.2H147.3C146.8 116.5 146.3 115.8 145.9 115.1C145.6 114.5 145.3 113.9 145 113.3C144.2 112 143.2 110.8 142 109.8C140.7 108.7 139.2 108.1 137.4 107.7C135.4 107.3 133.3 107.4 131.3 107.4C131 107.3 131 107.5 131.2 107.5Z" fill="#1D1D1B"></path><path d="M131.3 107.7C132.6 108.5 133.5 109.8 134.6 110.8C135.7 111.8 136.9 112.7 138.2 113.5C139.6 114.3 141 114.9 142.6 115.5C143.3 115.8 144 116.2 144.7 116.4C145.1 116.5 145.5 116.5 146 116.6C146.5 116.7 146.9 116.9 147.4 117.1C147.5 117.1 147.5 117.1 147.5 117C147.1 116.6 146.6 116.4 146 116.3C145.5 116.2 145 116.2 144.6 116C144.2 115.8 143.9 115.6 143.5 115.5C141.9 114.8 140.3 114.3 138.8 113.5C137.4 112.7 136.2 111.7 135 110.7C133.9 109.7 132.9 108.4 131.5 107.6C131.3 107.5 131.1 107.6 131.3 107.7Z" fill="#1D1D1B"></path><path d="M105.4 115.7C106.2 114.2 107.3 112.5 108.8 111.4C110.3 110.3 112.6 109.6 114.5 109.2C116.5 108.7 118.6 108.5 120.8 108.3C122.9 108.1 125.7 107.4 127.3 108.9C127.4 109 127.5 108.9 127.5 108.8C126.6 107.2 123.3 107.9 121.6 108C119.3 108.2 117 108.5 114.8 108.9C112.8 109.3 110.6 109.9 109 111C107.3 112.2 106.1 114 105.2 115.6C105.2 115.7 105.3 115.8 105.4 115.7Z" fill="#1D1D1B"></path><path d="M105.7 115.5C106.3 114.9 107.7 114.8 108.6 114.7C109.6 114.6 110.6 114.5 111.6 114.3C113.3 114.1 114.7 113.2 116 112.4C117.5 111.4 118.8 110.4 120.4 109.5C122.1 108.6 123.9 108 125.9 107.8C126 107.8 126 107.7 125.9 107.7C122 107.4 118.8 110.1 116.1 112C115.3 112.6 114.4 113.1 113.5 113.5C112.5 114 111.6 114.1 110.5 114.2C109.4 114.3 108.4 114.5 107.4 114.7C106.7 114.8 106 115 105.5 115.5C105.4 115.5 105.6 115.6 105.7 115.5Z" fill="#1D1D1B"></path><path d="M112.3 92.0999C110 94.1999 109.1 97.6999 110.6 100.3H110.7C110.3 98.8999 110 97.4999 110.3 96.0999C110.6 94.6999 111.3 93.3999 112.5 92.2999C112.7 92.0999 112.5 91.8999 112.3 92.0999Z" fill="#1D1D1B"></path><path d="M110.8 99.5C111.1 97.7 113.1 96.1 114.8 95C116.6 93.8 119 92.6 121.4 92.3C121.6 92.3 121.6 92.1 121.4 92C120.2 91.9 118.9 92.5 117.8 93C116.7 93.5 115.7 94 114.8 94.6C113 95.8 110.9 97.4 110.6 99.4C110.6 99.6 110.8 99.6 110.8 99.5Z" fill="#1D1D1B"></path><path d="M112.9 92.2001C114.4 92.0001 116 91.8001 117.5 91.8001C118.8 91.8001 120.2 91.8001 121.5 92.1001C124 92.7001 125.9 94.7001 127 96.5001C128.2 98.4001 128.5 100.5 127.9 102.5C127.6 103.5 127.1 104.4 126.4 105.3C126.2 105.6 125.9 105.8 125.8 106.2C125.7 106.6 126 107 126.1 107.4C126.1 107.5 126.3 107.5 126.3 107.4C126.3 107.2 126.2 107 126.2 106.9C126.1 106.4 126.2 106.1 126.6 105.7C127 105.3 127.3 104.9 127.6 104.5C128.1 103.6 128.5 102.7 128.6 101.7C128.9 99.7001 128.2 97.6001 127 95.8001C125.8 94.1001 123.9 92.3001 121.4 91.9001C118.7 91.4001 115.5 91.7001 112.8 92.1001C112.6 92.0001 112.7 92.2001 112.9 92.2001Z" fill="#1D1D1B"></path><path d="M126.3 107.3C126.4 107.5 126.6 107.6 126.7 107.8C126.8 107.9 126.9 108.1 127 108.2C127.1 108.2 127.1 108.2 127.1 108.1C127 107.8 126.7 107.4 126.4 107.2C126.4 107.1 126.2 107.2 126.3 107.3Z" fill="#1D1D1B"></path><path d="M114.1 95.4999C114.6 97.8999 116.5 100.1 118.5 101.9C119.5 102.8 120.6 103.6 121.9 104.2C123.4 104.9 125.2 105.2 126.1 106.5C126.2 106.6 126.3 106.5 126.3 106.4C125.9 105.3 124.6 104.9 123.4 104.5C121.9 103.9 120.6 103.2 119.4 102.2C117.1 100.4 115 97.9999 114.5 95.3999C114.5 95.2999 114.1 95.2999 114.1 95.4999Z" fill="#1D1D1B"></path><path d="M127 107.7C126.8 107.3 126.9 106.8 127.2 106.4C127.5 106 128 105.9 128.4 105.6C128.9 105.3 129.1 104.9 129.2 104.4C129.2 104.4 129.2 104.4 129.1 104.4C128.8 104.8 128.7 105.2 128.3 105.5C128 105.8 127.5 105.9 127.2 106.2C126.7 106.6 126.6 107.2 126.8 107.7C126.8 107.8 127.1 107.8 127 107.7Z" fill="#1D1D1B"></path><path d="M128.5 105.6C129 105.4 129.7 105 129.6 104.5H129.5C129.3 104.6 129.2 104.8 129 105C128.8 105.2 128.6 105.3 128.3 105.4C128.3 105.4 128.3 105.7 128.5 105.6Z" fill="#1D1D1B"></path><path d="M130.6 98.4C130.4 97.4 129.9 96.4 129.4 95.5C128.9 94.4 128.3 93.4 127.8 92.3C127.8 92.2 127.6 92.2 127.6 92.3C127.6 93.5 127.1 94.6 126.8 95.7C126.8 95.8 126.9 95.8 126.9 95.7C127.7 94.7 127.8 93.4 127.7 92.2C127.6 92.2 127.6 92.2 127.5 92.2C128 93.2 128.4 94.2 128.9 95.2C129.4 96.2 130 97.2 130.2 98.3C130.4 98.6 130.6 98.6 130.6 98.4Z" fill="#1D1D1B"></path><path d="M127 105.3C127.1 105.5 127.2 105.8 127.3 106C127.4 106 127.5 105.9 127.6 105.9C127.5 105.8 127.5 105.6 127.4 105.5H127.3C127.3 105.7 127.3 105.8 127.4 106C127.5 106.1 127.7 106.1 127.7 105.9C127.6 105.7 127.5 105.5 127.4 105.2C127.2 105.1 126.9 105.2 127 105.3Z" fill="#1D1D1B"></path><path d="M141.1 90.6001C140.5 92.1001 142 93.4001 143.1 94.5001C143.9 95.3001 144.5 96.1001 145 97.0001C145.3 97.5001 145.6 98.1001 146.3 98.3001C148.4 98.9001 148.2 96.1001 148.3 95.3001C148.5 94.3001 148.8 93.4001 149.1 92.4001C149.3 91.7001 149.6 90.7001 149 90.1001C148.9 90.0001 148.7 90.0001 148.7 90.2001C148.7 90.5001 148.8 90.8001 148.8 91.2001C148.8 91.6001 148.7 92.0001 148.6 92.3001C148.4 93.0001 148.1 93.6001 148 94.3001C147.8 94.9001 147.7 95.6001 147.7 96.2001C147.7 96.6001 147.7 97.0001 147.5 97.3001C147.2 97.9001 146.5 97.8001 146.1 97.3001C145.7 96.8001 145.5 96.3001 145.2 95.8001C144.8 95.3001 144.4 94.8001 143.9 94.3001C142.7 93.2001 141.2 92.1001 141.5 90.5001C141.3 90.5001 141.1 90.5001 141.1 90.6001Z" fill="#1D1D1B"></path><path d="M144 98.5C144.2 98.2 144.5 97.8 144.7 97.5C144.9 97.2 145.2 97 145.2 96.6C145.2 96.5 145.1 96.5 145 96.5C144.7 96.7 144.6 97 144.4 97.3C144.2 97.6 144 98 143.8 98.3C143.7 98.5 143.9 98.6 144 98.5Z" fill="#1D1D1B"></path><path d="M141.4 90.5001C142.1 90.3001 142.6 90.0001 143.4 89.9001C144 89.8001 144.6 90.0001 145.2 90.1001C145.7 90.2001 146 90.0001 146.4 89.9001C147.2 89.8001 149.4 90.0001 148.7 91.1001C148.6 91.2001 148.8 91.3001 148.9 91.2001C150.1 89.9001 147.4 89.3001 146.2 89.5001C146 89.5001 145.8 89.6001 145.6 89.7001C145.2 89.8001 144.9 89.7001 144.5 89.6001C144.1 89.5001 143.7 89.5001 143.2 89.6001C142.5 89.7001 141.6 89.9001 141.1 90.4001C141.2 90.4001 141.3 90.5001 141.4 90.5001Z" fill="#1D1D1B"></path><path d="M113.2 91.9C111.7 91.4 110.9 93.1 110.4 93.9C109.7 95.2 109 96.7 108.8 98.1C108.7 98.8 109 99.9 110.2 99.8C110.8 99.7 111.2 99.2 111.4 98.8C111.8 97.9 112.1 97.4 112.9 96.8C114.4 95.7 115.9 94.6 117.6 93.6C119.3 92.6 121.2 92.1 123.1 93.1C124.7 93.9 125.9 95.2 126.8 96.5C127.7 97.8 128.3 99.3 128.1 100.8C127.9 102.5 126.4 103.9 126 105.5C125.7 106.6 126 107.8 127.2 108.5C127.5 108.7 127.8 108.3 127.5 108.1C126.1 107.3 126.3 105.8 126.9 104.7C127.5 103.5 128.4 102.4 128.6 101.1C129 98.7 127.7 96.4 125.9 94.6C125 93.7 123.9 92.8 122.5 92.4C121.1 92 119.7 92.2 118.4 92.7C117 93.3 115.8 94.3 114.5 95.1C113.4 95.9 111.9 96.7 111.2 97.8C111 98.1 111 98.4 110.9 98.7C110.7 99.1 110.7 99.2 110.2 99.3C109.9 99.5 109.7 99.5 109.5 99.2C109.4 99.1 109.4 99 109.4 98.9C109.2 98.2 109.6 97.4 109.8 96.7C110.1 95.9 110.4 95 110.9 94.2C111.3 93.5 111.9 92.1 113.2 92.2C113.3 92.2 113.4 92 113.2 91.9Z" fill="#1D1D1B"></path><path d="M113.8 95.3C113.8 95.9 114.1 96.5 114.4 97.1C114.7 97.7 115 98.2 115.3 98.8C116.1 99.9 117 101 118.1 101.9C119.2 102.8 120.4 103.6 121.8 104.2C123.2 104.8 125 105.2 125.8 106.4C125.9 106.6 126.3 106.5 126.2 106.3C125.9 105.2 124.4 104.7 123.3 104.2C121.8 103.6 120.4 102.9 119.2 102C118 101.1 116.9 100.1 116 98.9C115.6 98.3 115.2 97.7 114.9 97.1C114.6 96.5 114.5 95.8 114.1 95.3C114.1 95.1 113.8 95.2 113.8 95.3Z" fill="#1D1D1B"></path><path d="M112.1 92.4C112.4 92.4 112.6 92.2 112.9 92.2C113.3 92.1 113.6 92.1 114 92.1C114.7 92.1 115.4 92.1 116.1 92.1C116.8 92.1 117.5 92.1 118.2 92.2C119 92.3 119.8 92.4 120.6 92.4C120.8 92.4 120.8 92.2 120.6 92.1C119.8 91.9 118.9 91.8 118.1 91.8C117.2 91.7 116.3 91.7 115.4 91.7C114.5 91.7 112.3 91.5 111.8 92.3C111.9 92.3 112 92.4 112.1 92.4Z" fill="#1D1D1B"></path><path d="M119.8 92.0999C119.9 92.0999 119.9 92.0999 120 92.1999C120.1 92.1999 120.3 92.1999 120.4 92.1999C120.6 92.1999 120.9 92.1999 121.1 92.1999C121.3 92.1999 121.3 91.8999 121.1 91.8999C120.9 91.7999 120.6 91.8999 120.3 91.8999C120.2 91.8999 120.1 91.8999 120 91.8999C119.9 91.8999 119.9 91.9999 119.8 91.9999C119.7 91.8999 119.7 92.0999 119.8 92.0999Z" fill="#1D1D1B"></path><path d="M120.4 91.8001C117.4 91.3001 114.2 92.2001 112.5 94.3001C112.4 94.4001 112.7 94.6001 112.8 94.5001C114.5 92.8001 117.5 91.8001 120.3 92.2001C120.6 92.2001 120.7 91.9001 120.4 91.8001Z" fill="#1D1D1B"></path><path d="M126 105.8C126.2 105.3 126 104.6 125.9 104.1C125.8 103.5 125.6 102.8 125.3 102.2C124.8 101 124 99.8 123.1 98.8C122.1 97.7 120.8 96.9 120.1 95.7C119.5 94.7 118.7 93.5 117.2 93.2C116.9 93.2 116.8 93.4 117 93.5C117.7 93.9 118.3 94.2 118.8 94.7C119.2 95.2 119.4 95.8 119.8 96.3C120.5 97.4 121.8 98.1 122.7 99.1C123.6 100.1 124.3 101.2 124.8 102.3C125.1 102.9 125.3 103.5 125.4 104.1C125.5 104.6 125.5 105.2 125.8 105.7C125.8 105.9 126 105.9 126 105.8Z" fill="#1D1D1B"></path><path d="M126.3 105.5C126.8 104.7 126.6 103.8 126.2 103C125.8 102.1 125.3 101.3 124.7 100.5C123.6 99 122.1 97.4 120.2 96.3C120 96.2 119.7 96.4 119.9 96.6C121.3 97.9 122.8 99 124 100.5C125.2 102 126.2 103.7 126.2 105.5C126.1 105.5 126.2 105.6 126.3 105.5Z" fill="#1D1D1B"></path><path d="M125.7 104.4C125.7 104.6 125.8 104.8 125.8 105C125.8 105.2 126.2 105.2 126.2 105C126.4 104.6 126.3 104.2 126.1 103.8C126 103.7 125.7 103.7 125.7 103.8C125.6 104.1 125.7 104.5 125.8 104.8C125.9 104.8 126.1 104.7 126.2 104.7C126.1 104.5 126 104.4 125.7 104.4C125.7 104.3 125.5 104.4 125.6 104.5C125.7 104.6 125.8 104.7 125.8 104.8C125.8 105.1 126.3 105 126.2 104.8C126.1 104.5 126.1 104.3 126.1 104L125.7 104.1C125.9 104.3 126 104.7 125.8 105C125.9 105 126.1 105.1 126.2 105.1C126.2 104.9 126.1 104.7 126.1 104.5C126.1 104 125.6 104.1 125.7 104.4Z" fill="#1D1D1B"></path><path d="M129.8 105.8C130.4 105.5 130.8 104.9 131.3 104.4C131.8 103.8 132.3 103.3 132.8 102.7C133.8 101.6 134.8 100.5 135.8 99.4C136.8 98.4 137.8 97.5 139 96.6C140.2 95.7 141.6 95 143 94.2C143.2 94.1 143.1 93.8 142.8 93.9C139.8 94.8 137.4 97 135.4 98.9C134.4 99.9 133.4 101 132.5 102C132 102.6 131.5 103.2 131 103.8C130.6 104.3 129.8 105 129.8 105.8C129.7 105.8 129.7 105.7 129.8 105.8Z" fill="#1D1D1B"></path><path d="M129.8 105.6C130.9 105.6 131.9 104.5 132.4 103.9C133.3 102.9 134.1 101.8 135 100.8C136 99.7001 137 98.7001 138.1 97.6001C139.1 96.7001 140.3 95.8001 141.2 94.8001C141.3 94.7001 141.1 94.6001 141 94.6001C139.8 95.3001 138.8 96.2001 137.8 97.1001C136.8 98.0001 135.8 99.0001 134.9 100C134 101 133.2 102 132.4 103C132 103.5 131.6 104 131.1 104.4C130.7 104.9 130.1 105.1 129.8 105.6C129.7 105.6 129.7 105.6 129.8 105.6Z" fill="#1D1D1B"></path><path d="M131 105.2C130.9 105.3 130.8 105.3 130.7 105.3C130.6 105.3 130.6 105.3 130.5 105.3C130.4 105.3 130.4 105.3 130.3 105.3C130.2 105.3 130.1 105.4 130.2 105.4C130.3 105.6 130.5 105.6 130.7 105.6C130.9 105.6 131.1 105.5 131.3 105.4C131.5 105.3 131.2 105 131 105.2Z" fill="#1D1D1B"></path><path d="M132.1 103.3C133.2 102.3 134.5 100.8 134.7 99.4C134.8 98.6 134.5 97.8 134.9 97C135.2 96.2 135.9 95.5 136.7 94.9C136.8 94.8 136.7 94.7 136.6 94.8C135.2 95.5 134.3 96.8 134.2 98.1C134.1 98.6 134.3 99.1 134.2 99.6C134.1 100.1 133.8 100.6 133.6 101C133.2 101.8 132.6 102.5 132.1 103.3C132 103.4 131.8 103.3 132.1 103.3Z" fill="#1D1D1B"></path><path d="M135.7 99.4999C136.4 98.4999 137.2 97.4999 137.7 96.4999C138 95.9999 138 95.4999 138.2 94.9999C138.4 94.3999 138.9 93.9999 139.7 93.6999C139.9 93.5999 139.7 93.3999 139.6 93.4999C138.2 93.6999 137.8 94.5999 137.5 95.5999C137.3 96.2999 136.9 96.8999 136.6 97.5999C136.2 98.2999 135.9 98.8999 135.6 99.5999C135.4 99.4999 135.6 99.4999 135.7 99.4999Z" fill="#1D1D1B"></path><path d="M131.8 104.1C132.4 103.6 133.1 103.1 134 102.8C134.8 102.6 135.6 102.5 136.4 102.2C137.5 101.9 139.2 101.4 139.4 100.3C139.4 100.1 139.1 100 139 100.2C138.7 100.8 137.8 101.1 137.1 101.4C136.3 101.7 135.5 101.9 134.6 102.1C133.4 102.4 132 102.9 131.6 104C131.6 104.1 131.7 104.1 131.8 104.1Z" fill="#1D1D1B"></path><path d="M135.6 99.9999C136.4 99.4999 137.5 99.4999 138.4 99.0999C139.2 98.7999 140 98.2999 140.5 97.6999C140.6 97.5999 140.4 97.3999 140.2 97.4999C139.4 98.0999 138.5 98.5999 137.5 98.8999C136.7 99.0999 136 99.1999 135.4 99.6999C135.4 99.8999 135.5 100.1 135.6 99.9999Z" fill="#1D1D1B"></path><path d="M132 103C132.3 102.4 132.5 101.7 132.4 101C132.3 100.6 132.1 100.2 132 99.8C131.9 99.2 132.2 98.6 132.6 98.1C132.6 98 132.5 98 132.5 98C132 98.6 131.6 99.2 131.8 99.9C131.9 100.3 132.2 100.8 132.2 101.2C132.3 101.9 132.2 102.4 132 103C132 103 131.9 103 132 103Z" fill="#1D1D1B"></path><path d="M134.2 97.8C134 97.1 133.6 95.5 134.6 95.1C134.7 95.1 134.6 95 134.5 95C133.4 95.4 133.9 97 134.2 97.8Z" fill="#1D1D1B"></path><path d="M138.9 94.9C139.2 94.9 139.5 94.8 139.6 94.5C139.3 94.7 139.2 94.8 138.9 94.9C138.8 94.9 138.8 94.8 138.9 94.9Z" fill="#1D1D1B"></path><path d="M138.5 98.9999C139 99.0999 139.3 99.2999 139.8 99.2999C140.1 99.2999 140.5 99.2999 140.8 99.1999C141.4 98.9999 141.8 98.5999 141.8 98.0999C141.8 97.9999 141.7 97.9999 141.6 98.0999C141.4 99.1999 139.5 99.0999 138.5 98.9999C138.4 98.9999 138.4 98.8999 138.5 98.9999Z" fill="#1D1D1B"></path><path d="M135.8 102C136 101.8 136.1 101.5 136.3 101.2C136.6 100.9 136.9 100.7 137.3 100.5C137.4 100.5 137.3 100.4 137.2 100.4C136.8 100.6 136.4 100.8 136.1 101.1C135.9 101.3 135.6 101.7 135.6 102C135.6 102 135.7 102.1 135.8 102Z" fill="#1D1D1B"></path><path d="M134.2 102.6C133.9 103 134.1 103.4 134.5 103.7C135.1 104.1 135.9 104 136.5 103.8C136.6 103.8 136.6 103.6 136.5 103.6C136 103.6 135.5 103.7 135.1 103.6C134.6 103.5 134.2 103.1 134.5 102.7C134.5 102.6 134.3 102.5 134.2 102.6Z" fill="#1D1D1B"></path><path d="M144.2 90C144.3 90.2 144.7 90.2 144.9 90.4C145.2 90.6 145.3 90.9 145.2 91.2C145.3 91.2 145.5 91.2 145.6 91.2C145.6 90.9 145.6 90.6 145.5 90.3C145.5 90.1 145.5 89.9 145.3 89.8C145.1 89.7 144.7 89.7 144.4 89.7C144.1 89.7 143.8 89.6 143.5 89.7C143.4 89.7 143.4 89.9 143.5 89.9C143.7 90 143.9 90 144.2 90C144.4 90 144.7 90 144.9 90.1C145 90.1 145 90.1 145 90.2C145 90.3 145 90.4 145 90.5C145 90.7 145 90.9 145 91.2C145 91.4 145.4 91.5 145.4 91.2C145.5 90.6 145 89.9 144.2 89.8C144.4 89.9 144.3 89.9 144.2 90C144.2 90 144.3 89.9 144.2 90Z" fill="#1D1D1B"></path><path d="M142.7 89.9C143.1 90.1 143.5 90.3 143.8 90.6C144.1 90.9 144.3 91.3 144.3 91.7C144.3 91.8 144.5 91.8 144.5 91.7C144.6 90.9 143.9 89.8 142.7 89.7C142.7 89.7 142.7 89.8 142.7 89.9Z" fill="#1D1D1B"></path><path d="M145.4 90.2C145.9 90.7 146.7 90.7 147.3 91C148.1 91.4 148.4 92.3 148 93C148 93 148.1 93.1 148.1 93C148.4 92.4 148.4 91.7 147.9 91.2C147.4 90.6 146.3 90.4 145.4 90.2C145.4 90.2 145.4 90.1 145.4 90.2Z" fill="#1D1D1B"></path><path d="M146.8 90.9999C147.2 90.9999 146.9 90.9999 146.8 90.9999C146.9 91.1999 146.6 91.4999 146.5 91.5999C146.3 91.8999 146.1 92.2999 146 92.5999C145.7 93.2999 145.7 94.0999 145.8 94.8999H145.9C145.8 94.1999 145.9 93.4999 146.1 92.7999C146.2 92.4999 146.4 92.0999 146.6 91.7999C146.8 91.4999 147.1 91.2999 147.2 90.9999C147.2 90.9999 147.2 90.8999 147.1 90.8999C147.1 90.8999 147 90.8999 146.8 90.9999C146.8 90.9999 146.8 90.8999 146.8 90.9999Z" fill="#1D1D1B"></path><path d="M125.3 101.5C124.7 100.6 124.9 99.8 125.2 98.8C125.4 98 125.6 97.3 125.4 96.5C125.3 96.3 124.8 96.3 124.9 96.6C125.1 98.1 124.4 99.6 124.6 101.1C124.6 101.2 124.8 101.2 124.8 101.1C124.9 99.6 125.5 98.1 125.4 96.6C125.2 96.6 125 96.6 124.9 96.7C125.1 97.9 124.5 98.9 124.4 100.1C124.4 100.5 124.5 101.7 125.3 101.5C125.4 101.6 125.3 101.6 125.3 101.5Z" fill="#1D1D1B"></path><path d="M121.9 97.4001C121.5 96.4001 122 95.6001 122 94.6001C122 94.3001 121.9 94.0001 121.6 93.7001C121.4 93.4001 121.1 93.1001 120.8 92.9001C120.7 92.8001 120.6 92.9001 120.5 93.0001C120.4 93.3001 120.6 93.5001 120.8 93.7001C121.3 94.2001 121.5 94.5001 121.4 95.2001C121.3 96.0001 120.9 96.9001 121.7 97.5001C121.8 97.6001 121.9 97.5001 121.9 97.4001Z" fill="#1D1D1B"></path><path d="M124.8 100.9C124.2 100.6 123.6 100.5 123 100.5C122.2 100.5 121.2 100.6 120.5 100.4C119.8 100.2 119.7 99.5999 119 99.2999C118.6 99.0999 118 98.9999 117.6 99.2999C117.5 99.3999 117.5 99.4999 117.6 99.5999C117.9 99.5999 118.2 99.5999 118.4 99.6999C118.9 99.7999 119 100.1 119.3 100.4C119.6 100.7 119.9 100.9 120.3 100.9C121.7 101.1 123.1 100.7 124.5 101.2C124.9 101.3 125.1 101 124.8 100.9Z" fill="#1D1D1B"></path><path d="M119.9 96.5C119.8 95.2 117.2 95.5 116.2 95.6C116 95.6 116 95.9 116.2 95.9C116.7 96.1 117.3 95.9 117.9 95.9C118.3 95.9 118.7 95.9 119.1 96C119.4 96.1 119.5 96.3 119.7 96.5C119.8 96.7 119.9 96.6 119.9 96.5Z" fill="#1D1D1B"></path><path d="M122 100.3C121.4 99.3999 120.8 98.3999 119.7 97.7999C118.8 97.2999 117.6 97.0999 116.6 97.4999C116.5 97.4999 116.6 97.5999 116.7 97.5999C119.3 96.7999 120.8 98.7999 121.8 100.3C121.9 100.5 122.1 100.4 122 100.3Z" fill="#1D1D1B"></path><path d="M121.9 100.5C121.3 101.3 120.1 101.6 119 101.3C118.9 101.3 118.9 101.4 118.9 101.4C120.1 101.9 121.4 101.5 122 100.6C122.2 100.5 122 100.4 121.9 100.5Z" fill="#1D1D1B"></path><path d="M121.3 96.2001C122.6 95.8001 123.5 94.4001 123 93.3001C123 93.2001 122.8 93.2001 122.8 93.3001C123 94.4001 122.5 95.4001 121.2 96.0001C121.1 96.1001 121.2 96.2001 121.3 96.2001Z" fill="#1D1D1B"></path><path d="M125 98.3001C124 98.7001 123.4 97.8001 123.3 97.2001C123.2 96.7001 123.4 96.2001 123.6 95.6001C123.6 95.6001 123.5 95.5001 123.5 95.6001C122.9 96.3001 122.8 97.3001 123.3 98.0001C123.7 98.5001 124.4 98.9001 125.1 98.5001C125.2 98.3001 125.1 98.2001 125 98.3001Z" fill="#1D1D1B"></path><path d="M115.5 92.9001C115.5 92.8001 115.5 92.8001 115.5 92.9001C115.2 92.5001 114.8 92.8001 114.6 93.1001C114.2 93.7001 114.4 94.6001 113.7 95.0001C113.6 95.0001 113.7 95.1001 113.8 95.1001C114.2 94.9001 114.4 94.6001 114.5 94.2001C114.6 94.0001 114.6 93.7001 114.7 93.5001C114.8 93.4001 114.8 93.2001 114.9 93.1001C115 93.1001 115.4 92.9001 115.5 92.9001C115.4 92.9001 115.4 92.9001 115.5 92.9001Z" fill="#1D1D1B"></path><path d="M130.2 104.9C129.4 105.2 128.7 105.9 128.1 106.4C127.6 106.9 126.8 107.5 126.6 108.2C126.6 108.3 126.8 108.5 127 108.4C127.7 108 128.2 107.3 128.7 106.7C129.3 106.2 130 105.6 130.4 105C130.6 104.9 130.4 104.8 130.2 104.9Z" fill="#1D1D1B"></path><path d="M125.2 105.8C125.4 106.2 125.8 106.6 126.1 107C126.4 107.4 126.6 107.9 127 108.2C127.1 108.3 127.3 108.2 127.4 108.1C127.4 107.6 127.1 107.1 126.8 106.7C126.5 106.3 126.2 105.8 125.7 105.5C125.3 105.5 125.1 105.6 125.2 105.8Z" fill="#1D1D1B"></path><path d="M127.2 107.9C127.1 108.2 126.9 108.4 126.8 108.7C127 108.7 127.1 108.8 127.3 108.8C127.7 107.2 130.4 107.4 131.7 108.2C133.3 109.1 134.4 110.6 135.8 111.7C138.3 113.7 141.7 116.6 145.6 115.9C145.8 115.9 145.9 115.7 145.9 115.5C145 112.8 143.3 110.5 140.4 108.9C137.2 107.1 132.9 106.6 129.1 107.1C128.8 107.1 128.9 107.4 129.2 107.4C131.3 107.5 133.3 107.4 135.4 107.7C137 108 138.6 108.5 140 109.2C142.6 110.6 144.8 113 145.2 115.5C145.3 115.4 145.4 115.3 145.5 115.1C142.9 115.4 140.8 114.3 139 113C137.3 111.8 135.6 110.5 134.1 109.1C133 108.1 131.8 106.9 130 106.9C128.7 106.8 127.2 107.4 127 108.5C126.9 108.7 127.4 108.8 127.5 108.6C127.6 108.3 127.7 108.1 127.8 107.8C127.6 107.8 127.3 107.7 127.2 107.9Z" fill="#1D1D1B"></path><path d="M105.6 113.6C108.8 115.3 112.9 114.4 115.8 112.7C118.9 110.9 121.9 107.1 126.4 107.9C126.4 107.7 126.5 107.5 126.5 107.4C126 107.4 125.6 107.4 125.1 107.4C124.7 107.4 124.7 107.8 125 107.9C125.3 108 125.6 108 125.9 108C126.1 108 126.2 107.8 126 107.7C125.7 107.6 125.5 107.5 125.2 107.4C125.2 107.6 125.1 107.7 125.1 107.9C125.6 107.9 126 107.9 126.5 108C126.9 108 127 107.5 126.6 107.5C122.6 106.8 119.8 109.6 117.1 111.5C114.1 113.7 109.7 115.4 105.8 113.5C105.6 113.2 105.4 113.4 105.6 113.6Z" fill="#1D1D1B"></path><path d="M106.3 113.6L106 112.9C106.1 112.8 106.2 112.8 106.3 112.7C106.4 112.6 106.6 112.6 106.7 112.5C107.1 112.3 107.4 112.1 107.8 111.9C108.5 111.6 109.2 111.2 109.9 110.9C111.4 110.2 112.9 109.7 114.6 109.3C118 108.6 121.5 108.4 124.8 107.5C124.9 107.5 124.9 107.4 124.8 107.4C122.5 107.5 120.2 107.8 117.9 108.2C115.7 108.5 113.5 108.9 111.4 109.7C109.5 110.4 107.7 111.4 106.1 112.4C105.7 112.7 105.2 113.1 105.4 113.5C105.6 113.8 106 114 106.4 113.8C106.6 113.8 106.4 113.6 106.3 113.6Z" fill="#1D1D1B"></path><path d="M108.7 112.9C109.3 112.9 109.8 112.8 110.3 112.7C110.9 112.6 111.5 112.5 112.2 112.3C113.4 112 114.6 111.7 115.8 111.2C118.1 110.4 120.1 109 122.6 108.5C122.8 108.5 122.8 108.2 122.6 108.1C121.5 107.9 120.5 108.4 119.6 108.8C118.5 109.3 117.4 109.9 116.2 110.4C115 110.9 113.7 111.4 112.4 111.8C111.8 112 111.2 112.1 110.6 112.3C110 112.5 109.3 112.6 108.7 112.9C108.7 112.9 108.7 112.8 108.7 112.9Z" fill="#1D1D1B"></path><path d="M130.9 107.5C131.3 107.7 131.8 107.7 132.3 107.9C132.9 108.1 133.5 108.3 134 108.5C135 108.9 135.9 109.5 136.8 110C137.8 110.5 138.7 111.1 139.4 111.8C139.9 112.3 140.4 112.8 141.2 112.8C141.3 112.8 141.3 112.7 141.2 112.7C140.1 112.4 139.6 111.4 138.9 110.8C138.2 110.2 137.3 109.7 136.4 109.2C135.5 108.7 134.5 108.2 133.5 107.9C132.8 107.6 131.6 107.3 130.8 107.5C130.9 107.4 130.8 107.5 130.9 107.5Z" fill="#1D1D1B"></path><path d="M127.1 109C127.1 109.5 127.1 110 127 110.5H127.5C127.5 109.7 127.5 108.9 127.5 108H127C127 110.2 127 112.4 127.1 114.7C127.1 115.8 127.1 116.8 127.1 117.9C127.1 119 127.2 120.2 126.9 121.3H127.3C126.6 119.9 125.4 118.7 123.3 118.7C121.7 118.6 119.3 118.9 119 120.4C118.8 121.7 119.9 123.2 121.5 123.7C122.3 123.9 123.1 123.8 123.8 123.3C124.9 122.6 125.8 121.8 126.8 121.1C126.7 121 126.6 121 126.4 120.9C126 121.4 125.7 121.9 125.3 122.4C125.4 122.4 125.6 122.5 125.7 122.5C125.8 122 124.8 122 124.8 122.5C124.8 122.7 125.3 122.7 125.3 122.5C125.3 122.3 125.3 122.1 125.2 121.9C125.2 121.8 124.9 121.7 124.8 121.8C124.5 122.1 124.3 122.3 124.3 122.7C124.3 122.9 124.5 122.9 124.7 122.9C125.3 122.7 125.6 122.3 125.6 121.8C125.6 121.6 125.2 121.6 125.1 121.8C124.5 123 122.6 123.7 121.1 123.2C119.7 122.7 119 121.3 119.6 120.1C119.4 120.1 119.3 120.1 119.1 120.1C119.3 121.9 120.6 124.1 123.4 123.7C123.6 123.7 123.6 123.4 123.4 123.3C122.2 122.9 120.9 122.5 120.2 121.6C119.8 121.1 119.7 120.6 119.9 120C120.2 119.5 120.9 119.1 121.6 119.2C121.9 119.2 122 118.9 121.7 118.8C120.2 118.6 119.1 119.7 119.3 120.8C119.6 122.3 121.6 123 123.2 123.6V123.2C120.8 123.6 119.7 121.5 119.5 120C119.5 119.8 119.1 119.7 119 119.9C118.4 121.3 119.2 123 121 123.5C122.8 124 124.8 123.2 125.5 121.8C125.3 121.8 125.2 121.8 125 121.8C125 122.2 124.7 122.4 124.3 122.6L124.7 122.8C124.7 122.5 124.8 122.3 125.1 122.2C125 122.2 124.8 122.1 124.7 122.1C124.8 122.3 124.8 122.4 124.8 122.6H125.3C125.3 122.6 125.3 122.6 125.2 122.6C125.2 122.8 125.5 122.8 125.6 122.7C126 122.2 126.3 121.7 126.7 121.2C126.8 121 126.5 120.8 126.3 121C125.7 121.5 125 121.9 124.4 122.4C123.8 122.9 123 123.6 122 123.6C120.4 123.6 119.2 122 119.2 120.9C119.2 119.4 121.4 119.2 122.9 119.2C124.8 119.2 125.9 120.3 126.5 121.6C126.6 121.7 126.9 121.8 126.9 121.6C127.2 120.6 127.1 119.6 127.1 118.6C127.1 117.4 127.1 116.3 127.1 115.1C127.1 112.8 127.1 110.5 127 108.2C127 108 126.5 108 126.5 108.2C126.5 109 126.5 109.8 126.5 110.7C126.5 110.9 127 110.9 127 110.7C127 110.2 127 109.7 127.1 109.2C127.5 108.8 127.1 108.8 127.1 109Z" fill="#1D1D1B"></path><path d="M125.6 123.5C125.7 123.9 125.8 124.2 125.8 124.6C125.9 124.6 126.1 124.5 126.2 124.5C125.9 124.2 125.6 124 125.3 123.7C125.2 123.8 125.1 123.9 125 124C125.1 124.1 125.3 124.2 125.4 124.3C125.6 124.5 125.9 124.2 125.7 124C125.6 123.9 125.4 123.8 125.3 123.7C125.1 123.5 124.8 123.8 125 124C125.3 124.3 125.6 124.5 125.9 124.8C126 124.9 126.3 124.8 126.3 124.7C126.3 124.3 126.2 123.9 126.1 123.5C126 123.2 125.5 123.3 125.6 123.5Z" fill="#1D1D1B"></path><path d="M120.8 122.5C120.8 122.5 120.7 122.5 120.7 122.4C120.7 122.4 120.7 122.5 120.8 122.5C120.7 122.4 120.7 122.4 120.8 122.5C120.7 122.4 120.6 122.3 120.5 122.3C120.4 122.3 120.2 122.3 120.2 122.4C120.1 122.5 120.2 122.6 120.3 122.7C120.4 122.7 120.4 122.7 120.5 122.7C120.6 122.7 120.6 122.7 120.6 122.6C120.5 122.6 120.5 122.6 120.4 122.6H120.5C120.6 122.6 120.6 122.6 120.7 122.5C120.8 122.6 120.8 122.5 120.8 122.5Z" fill="#1D1D1B"></path><path d="M125.4 123.1C125.4 123 125.4 122.9 125.3 122.9C125.2 122.8 125.1 122.8 125 122.9C124.9 122.9 124.9 123 124.9 123C124.9 123.4 125.4 123.7 125.7 124C125.8 124.1 126.1 124 126.1 123.9C126.1 123.4 125.9 123 125.6 122.6C125.5 122.4 125.1 122.6 125.2 122.8C125.3 123 125.4 123.2 125.5 123.4C125.6 123.6 125.9 123.5 125.9 123.3C125.9 123 125.9 122.7 125.9 122.4C125.7 122.4 125.6 122.4 125.4 122.4C125.6 122.8 125.7 123.1 125.9 123.5C126 123.7 126.4 123.7 126.3 123.5C126.3 123 126.2 122.5 126.1 122C126.1 121.8 125.7 121.9 125.7 122C125.7 122.6 125.8 123.1 126 123.6C126.1 123.6 126.3 123.5 126.4 123.5C126.1 123.1 125 122.2 124.4 122.7C124.2 122.9 124.4 123.2 124.5 123.3C124.8 123.7 125.7 123.8 125.9 124.4C126 124.4 126.2 124.3 126.3 124.3C126 123.9 125.7 123.5 125.4 123.1L125.1 123.2C125.5 123.8 125.9 124.4 126.4 125.1C126.5 125 126.6 125 126.8 124.9C126.4 124.4 125.9 123.8 125.4 123.1C125.4 123.2 125.3 123.3 125.2 123.3C125.6 123.7 126 124.1 126.2 124.6C126.3 124.6 126.4 124.5 126.6 124.5C126.3 124.1 125.9 123.8 125.6 123.4C125.5 123.3 125.2 123.4 125.3 123.5C126 124.4 126.7 125.4 126.6 126.5C126.5 127.5 125.9 128.4 125.6 129.4C125.2 131 125.2 132.7 126.5 134C126.6 134.1 126.9 134 126.8 133.9C125.5 132.2 126 130.1 126.7 128.3C127 127.4 127.4 126.6 127.1 125.6C126.9 124.7 126.2 124 125.5 123.3C125.4 123.4 125.3 123.4 125.2 123.5C125.5 123.9 125.9 124.2 126.2 124.6C126.3 124.7 126.7 124.7 126.6 124.5C126.3 124 125.9 123.5 125.4 123.1C125.3 123.1 125.1 123.2 125.2 123.3C125.6 124 126.1 124.6 126.5 125.3C126.6 125.5 127 125.3 126.9 125.1C126.5 124.5 126 123.9 125.6 123.3C125.5 123.1 125.2 123.3 125.3 123.4C125.6 123.8 125.8 124.2 126.1 124.6C126.2 124.8 126.5 124.7 126.5 124.5C126.4 124.2 126.2 124 125.9 123.8C125.7 123.7 125.2 123.5 125.1 123.4C125.6 123.1 125.9 123.1 126 123.4C126.1 123.5 126.1 123.6 126.2 123.7C126.3 123.9 126.7 123.7 126.6 123.6C126.4 123.1 126.3 122.6 126.3 122C126.2 122 126 122 125.9 122C126 122.5 126.1 122.9 126.1 123.4C126.2 123.4 126.4 123.4 126.5 123.4C126.3 123 126.2 122.7 126 122.3C125.9 122.1 125.6 122.1 125.5 122.3C125.5 122.6 125.5 122.9 125.5 123.2C125.6 123.2 125.8 123.1 125.9 123.1C125.8 122.9 125.7 122.7 125.6 122.5C125.5 122.6 125.3 122.6 125.2 122.7C125.4 123.1 125.6 123.4 125.6 123.8C125.7 123.8 125.9 123.7 126 123.7C125.9 123.6 125.1 122.9 125 123C125 123.2 125.3 123.3 125.4 123.1Z" fill="#1D1D1B"></path><path d="M125.8 123.7C125.9 124.5 126.3 125.1 126.8 125.8C127.5 126.7 128.2 127.7 127.9 128.8C127.9 128.9 128 128.9 128 128.8C128.8 126.8 126.2 125.5 125.8 123.7C125.8 123.7 125.9 123.7 125.8 123.7Z" fill="#1D1D1B"></path><path d="M120.4 122.1C121 122.4 121.6 122.8 122.3 123C123 123.2 123.7 123.3 124.3 123.2C125.2 123.1 126.6 122.6 126.9 121.9C126.9 121.8 126.8 121.6 126.6 121.7C126.2 121.9 125.9 122.2 125.5 122.4C125.1 122.6 124.6 122.7 124.1 122.8C122.9 122.9 121.6 122.5 120.5 122.1C120.3 121.9 120.2 122 120.4 122.1Z" fill="#1D1D1B"></path><path d="M144.7 90C145.7 91.5 144.9 93.4 146.1 94.8C146.3 95 146.6 94.8 146.5 94.6C145.6 93.1 146.4 91.2 145 89.8C144.8 89.7 144.6 89.9 144.7 90Z" fill="#1D1D1B"></path><path d="M141.8 90.5C143 90.1 144.2 89.9 145.5 89.9C146.4 89.9 148.6 89.6 148.9 90.5C148.9 90.7 149.3 90.7 149.3 90.5C149.7 89.3 147.5 89.3 146.6 89.3C144.9 89.4 143.2 89.5 141.6 90.1C141.3 90.3 141.6 90.6 141.8 90.5Z" fill="#1D1D1B"></path><path d="M121.1 123.4C122.6 122.9 125.1 123.3 125.7 121.8C125.7 121.7 125.6 121.7 125.5 121.8C124.8 123.2 122.3 122.8 121 123.3C120.9 123.3 121 123.4 121.1 123.4Z" fill="#1D1D1B"></path><path d="M122.5 122.2C123.5 122.3 125.4 122.1 125.5 121.1C125.5 120.9 125.4 120.7 125.4 120.5C125.6 120.1 125.5 120.5 125.5 120.7C125.4 121.2 125 121.5 124.5 121.7C123.9 122 123.3 122.2 122.9 122.7C122.8 122.8 123 122.8 123 122.8C124.2 122.2 125.2 121.7 125.8 120.7C125.2 121.6 124.2 122.5 123 122.7L123.1 122.8C123.7 122.3 124.6 122.1 125.3 121.6C125.8 121.2 126 120.6 125.8 120C125.8 120 125.7 119.9 125.7 120C125.5 120.1 125.4 120.3 125.3 120.5C125.2 120.7 125.3 120.9 125.3 121C125.2 121.9 123.7 122.1 122.7 122C122.4 122 122.3 122.2 122.5 122.2Z" fill="#1D1D1B"></path><path d="M125.2 119.9C125.2 119.8 125.2 119.8 125.2 119.9C124.7 119.6 124.8 120.4 124.7 120.6C124.3 121.7 122.7 121.8 121.6 122C121.5 122 121.5 122.2 121.6 122.2C122.4 122.2 123.1 122 123.5 121.5C123.5 121.5 123.5 121.4 123.4 121.5C123 122 122.4 122.2 121.7 122.1C121.7 122.2 121.7 122.2 121.7 122.3C122.6 122.3 123.5 122.1 124.2 121.7C124.5 121.5 124.8 121.3 124.9 121C125 120.9 125 120.8 125 120.7C125 120.6 125 120.5 125 120.4C124.9 120 125 120 125.2 119.9C125.2 119.9 125.1 119.9 125.2 119.9Z" fill="#1D1D1B"></path><path d="M122.6 120C123.6 120.1 124.3 120.5 125.2 120.9C125.3 121 125.4 120.8 125.3 120.8C124.6 120.3 123.6 120 122.7 119.8C122.5 119.8 122.4 120 122.6 120Z" fill="#1D1D1B"></path><path d="M123.2 119.4C124.6 120.2 125 121.5 124.7 122.8C124.7 122.9 124.8 122.9 124.9 122.9C125.6 121.6 124.8 120 123.3 119.3C123.2 119.2 123.1 119.3 123.2 119.4Z" fill="#1D1D1B"></path><path d="M123.9 120C124.4 120.8 124.4 121.7 124.1 122.5C124.1 122.6 124.3 122.6 124.3 122.5C124.7 121.6 124.6 120.7 124.1 119.8C124.1 119.7 123.9 119.8 123.9 120Z" fill="#1D1D1B"></path><path d="M123.6 120.4C123.9 121.1 123.8 121.9 123.5 122.6C123.5 122.7 123.7 122.8 123.7 122.7C124.1 122 124.2 121.2 123.9 120.4C123.8 120.2 123.6 120.3 123.6 120.4Z" fill="#1D1D1B"></path><path d="M75.1 118.7C73.1 118.5 71.9 119.6 72.5 121.1C72.8 121.8 73.2 122.5 73.9 122.9C74.7 123.3 75.9 123.5 76.8 123.4C78.5 123.2 79.7 121.7 79.1 120.4C78.8 119.7 78 119.1 77.1 118.7C76.2 118.3 75.4 118.6 74.5 118.7C74.4 118.7 74.4 118.9 74.5 118.9C75.2 118.9 75.8 118.6 76.5 118.7C77.3 118.8 78.1 119.3 78.5 119.9C79.5 121 78.9 122.6 77.3 123.1C76.5 123.3 75.6 123.3 74.8 123.1C73.9 122.9 73.3 122.4 72.9 121.8C72.5 121.2 72.1 120.4 72.5 119.7C73 119 73.9 118.8 74.9 118.9C75.2 118.9 75.3 118.7 75.1 118.7Z" fill="#1D1D1B"></path><path d="M79.3 122C79.6 122.9 79 123.8 79 124.8C79 125.4 79 125.9 78.9 126.5C78.8 126.9 78.7 127.2 78.6 127.6C78.5 128.5 78.9 129.5 79 130.4C79.1 131.4 79.1 132.5 79 133.5C79 133.6 79.1 133.6 79.1 133.5C79.4 132.5 79.4 131.6 79.3 130.6C79.2 129.5 78.7 128.4 79 127.3C79.1 126.9 79.2 126.5 79.3 126.1C79.4 125.6 79.3 125.1 79.4 124.5C79.5 123.6 80 122.8 79.7 121.9C79.6 121.7 79.2 121.8 79.3 122Z" fill="#1D1D1B"></path><path d="M79.4001 122.9C79.4001 122.7 79.4001 122.4 79.3001 122.2C79.3001 122.1 79.2001 122.1 79.1001 122.2C78.9001 122.4 79.0001 122.5 79.0001 122.8C79.0001 123.2 79.1001 123.6 79.0001 124H79.2001C79.1001 123.5 78.8001 123 79.1001 122.5C79.3001 122.3 79.4001 122 79.3001 121.7C79.1001 121.9 79.1001 122.1 79.0001 122.4C78.9001 122.5 78.7001 122.7 78.7001 122.8C78.6001 123.2 78.9001 123.7 79.0001 124.1C79.0001 124.2 79.2001 124.2 79.2001 124.1C79.2001 123.8 79.3001 123.5 79.2001 123.3C79.2001 123.1 79.0001 122.6 79.2001 122.4C79.1001 122.4 79.1001 122.4 79.0001 122.4C79.0001 122.6 79.1001 122.9 79.1001 123.1C79.3001 123 79.5001 123 79.4001 122.9Z" fill="#1D1D1B"></path><path d="M78.4 104.9C78.6 107.8 78.8 110.7 78.7 113.6C78.7 114.9 78.6 116.2 78.8 117.5C78.9 118.2 78.8 118.8 78.9 119.5C79 120.2 79.7 120.9 79.2 121.6C79.1 121.8 79.4 121.9 79.5 121.7C79.8 121.3 79.8 120.9 79.7 120.5C79.6 120.2 79.4 119.9 79.3 119.6C79.2 119.2 79.3 118.8 79.3 118.4C79.3 117.7 79.1 117 79.1 116.2C79.1 115.5 79.1 114.7 79.2 114C79.3 110.9 79.1 107.9 78.8 104.8C78.8 104.7 78.4 104.7 78.4 104.9Z" fill="#1D1D1B"></path><path d="M78.8 104.5C78.5 103.8 78 103 78.1 102.3C78.2 101.4 79 100.8 79.9 100.4C79.8 100.3 79.7 100.2 79.5 100.1C79 100.7 78.1 101.5 78.1 102.3C78.1 102.7 78.3 103 78.4 103.4C78.6 104 78.4 104.6 78.4 105.2C78.4 105.4 78.7 105.4 78.8 105.2C79.2 104.4 79.1 103.6 78.8 102.9C78.6 102.3 78.7 101.9 79 101.4C79.3 101 79.6 100.7 79.8 100.3C79.9 100.1 79.7 99.9 79.4 100C78.5 100.5 77.7 101.1 77.4 101.9C77.1 102.8 77.7 103.8 78 104.6C78.4 104.9 78.9 104.8 78.8 104.5Z" fill="#1D1D1B"></path><path d="M79.3 104.7C81 102.2 82.5 99.4999 85.1 97.3999C86.3 96.3999 87.8 95.5999 89.5 95.1999C90.5 94.9999 91.5 94.7999 92.6 94.9999C93.6 95.1999 94.1 95.5999 94.8 96.0999C94.9 96.0999 95 96.0999 94.9 95.9999C94.4 94.7999 92.3 94.5999 91 94.6999C89.2 94.8999 87.5 95.5999 86.1 96.4999C84.6 97.4999 83.4 98.6999 82.4 99.9999C81.3 101.5 80.2 103.1 79.2 104.7C79.2 104.7 79.3 104.7 79.3 104.7Z" fill="#1D1D1B"></path><path d="M79.3 105.1C81.1 104.1 82.9 103.3 84.9 102.7C86.7 102.1 88.4 101.5 90.2 100.7C91.8 100 93.4 99.1 94.6 98C95.2 97.4 95.9 95.9 94.4 95.7C94.3 95.7 94.2 95.8 94.3 95.8C96.8 97.7 89.9 100.6 88.2 101.3C86.8 102 85.2 102.4 83.7 103C82.1 103.6 80.6 104.3 79.2 105.1C79.1 105 79.2 105.1 79.3 105.1Z" fill="#1D1D1B"></path><path d="M77.8 104.6C75.1 101.8 72.5 98.9 69.3 96.4C68 95.4 66.7 94.7 64.8 94.7C64.2 94.7 63.5 94.7 63.1 95.2C62.6 95.7 62.7 96.4 63 96.9C63 97 63.2 97 63.2 96.9C63.2 96 63.1 95.3 64.6 95.2C65.5 95.1 66.4 95.2 67.3 95.6C68.8 96.2 70 97.3 71.1 98.3C73.5 100.4 75.6 102.6 77.8 104.8C77.8 104.9 77.9 104.7 77.8 104.6Z" fill="#1D1D1B"></path><path d="M78.3 105C76.8 104.4 75.1 104.1 73.5 103.7C71.6 103.3 69.7 102.7 68 102C66.5 101.4 65.1 100.6 64 99.6C63.4 99.1 62.7 98.4 62.5 97.7C62.3 96.9 62.8 96.2 63.5 95.6C63.6 95.5 63.5 95.5 63.4 95.5C62.1 96.1 61.8 97.4 62.4 98.4C63.2 99.7 64.7 100.7 66.2 101.5C67.9 102.4 69.9 103 71.8 103.5C73.9 104 76.2 104.3 78.2 105.1C78.3 105.2 78.4 105 78.3 105Z" fill="#1D1D1B"></path><path d="M78.6999 105.2C81.4999 103 82.7999 99.8 85.3999 97.5C86.6999 96.4 88.3999 95.4 90.3999 95.1C91.3999 94.9 92.5999 95 93.5999 95.4C94.4999 95.8 94.9999 96.7 94.2999 97.4C94.1999 97.5 94.3999 97.8 94.5999 97.7C96.1999 96.8 94.7999 95.3 93.3999 94.9C91.2999 94.3 88.9999 94.9 87.1999 95.8C85.1999 96.8 83.7999 98.4 82.5999 99.9C81.1999 101.7 79.9999 103.5 78.3999 105.1C78.1999 105.2 78.4999 105.3 78.6999 105.2Z" fill="#1D1D1B"></path><path d="M78.8 106.2C78.7 104.8 81.2 104.3 82.5 103.8C84.2 103.2 85.9 102.7 87.5 102C89 101.4 90.5 100.7 91.9 99.8999C93.1 99.0999 94.6 98.1999 95 96.8999C95.1 96.6999 94.8 96.5999 94.6 96.6999C94 97.2999 93.5 97.8999 92.9 98.3999C92.2 98.8999 91.5 99.3999 90.7 99.8999C89.1 100.8 87.4 101.4 85.7 102.1C84 102.7 82.3 103.2 80.6 103.9C79.5 104.3 78.3 105.1 78.5 106.2C78.5 106.4 78.8 106.4 78.8 106.2Z" fill="#1D1D1B"></path><path d="M78.6 105.1C83.3 103.7 85.7 99.8 90.1 97.9C90.2 97.8 90.1 97.7 90 97.7C85.4 99.2 82.9 103.1 78.5 104.9C78.4 104.9 78.5 105.1 78.6 105.1Z" fill="#1D1D1B"></path><path d="M78.6 105.2C77.2 103.6 75.7 102.1 74.2 100.6C72.6 99.1 70.9 97.5 69 96.2C67.7 95.2 65.8 94.2 63.9 94.8C62.4 95.3 61.5 96.6 61.8 97.8C61.9 98.1 62.5 98 62.4 97.7C62 96.1 63.9 94.8 65.8 95.2C67.7 95.6 69.1 97 70.4 98.1C73.2 100.4 75.6 103.1 78.2 105.5C78.4 105.5 78.8 105.4 78.6 105.2Z" fill="#1D1D1B"></path><path d="M62.9 95.3001C61.6 96.3001 61.8 98.0001 62.6 99.2001C63.6 100.6 65.5 101.6 67.2 102.3C69.1 103.1 71.1 103.6 73.2 104C74.2 104.2 75.3 104.4 76.3 104.7C76.8 104.8 77.2 105 77.6 105.2C78.1 105.4 78.3 105.8 78.7 106.1C78.8 106.2 79.1 106.1 79.1 106C78.9 104.8 77 104.3 75.8 104C73.8 103.5 71.8 103.2 69.9 102.6C66.6 101.7 60.3 99.0001 63.2 95.5001C63.4 95.3001 63 95.1001 62.9 95.3001Z" fill="#1D1D1B"></path><path d="M77.6001 104.8C77.9001 105 78.2001 105 78.6001 105C78.7001 105 78.8001 104.9 78.7001 104.8C77.7001 104.1 76.5001 103.5 75.4001 102.9C74.3001 102.2 73.2001 101.5 72.2001 100.7C70.5001 99.5 68.7001 98.1 66.4001 97.7C66.2001 97.7 66.1001 97.9 66.3001 98C68.7001 98.7 70.4001 100 72.2001 101.4C74.1001 102.8 76.2001 104.1 78.4001 105.1C78.4001 105 78.4001 105 78.4001 104.9C78.1001 104.9 77.9001 104.8 77.6001 104.8C77.6001 104.6 77.5001 104.7 77.6001 104.8Z" fill="#1D1D1B"></path><path d="M78.7 104.6C79.1 107.6 79 110.5 78.9 113.5C78.8 115 78.8 116.4 78.8 117.9C78.8 118.6 78.9 119.3 78.9 120C79 120.7 79.4 122.2 78.1 122.2C78.2 122.4 78.2 122.6 78.3 122.8C78.8 122.5 79.2 122.2 79.6 121.8C79.8 121.6 79.5 121.3 79.2 121.4C79 121.5 78.8 121.5 78.6 121.6C78.7 121.8 78.8 121.9 79 122.1C80.4 121.1 79 119.6 77.7 119C76.9 118.7 76 118.5 75 118.5C74.2 118.5 73.1 118.4 72.4 118.9C71 119.9 71.7 121.9 72.8 122.8C74.1 124 76.4 124.1 78 123.3C78.4 123.1 78 122.5 77.6 122.7C76.4 123.3 74.7 123.3 73.6 122.5C72.7 121.8 72.1 120.4 72.8 119.5C73.4 118.7 75.7 119.1 76.6 119.3C77.2 119.5 77.8 119.7 78.3 120.1C78.8 120.5 79.1 121.2 78.5 121.7C78.2 121.9 78.5 122.3 78.9 122.2C79.1 122.1 79.3 122.1 79.5 122C79.4 121.9 79.2 121.7 79.1 121.6C78.8 121.9 78.5 122.2 78.1 122.4C77.8 122.6 77.9 123 78.3 123C80.2 123 80 121.2 79.9 120.2C79.7 118.5 79.7 116.7 79.8 115C79.9 111.6 80.3 108.1 79.3 104.7C79.1 104.4 78.7 104.5 78.7 104.6Z" fill="#1D1D1B"></path><path d="M78.6 123.1C78.5 123 78.4 122.9 78.3 122.8C78.2 122.7 77.9 122.8 77.9 122.9C77.9 123.3 78.1 123.6 78.2 123.9C78.3 124.3 78.4 124.8 78.5 125.2C78.6 125.6 78.7 126 78.6 126.4C78.6 126.7 78.4 127.1 78.3 127.4C78.2 128.2 78.5 129.1 78.6 129.9C78.7 130.8 78.7 131.6 78.7 132.5C78.7 132.6 79 132.7 79 132.5C79.2 131.6 79.2 130.8 79.2 129.9C79.2 129 78.9 128 79.2 127.1C79.5 126.3 79.4 125.7 79.2 124.9C79.1 124.2 79 123.3 78.3 122.8C78.2 122.9 78.1 123 78 123.1C78.1 123.2 78.2 123.2 78.3 123.3C78.5 123.4 78.7 123.2 78.6 123.1Z" fill="#1D1D1B"></path><path d="M78.5 123.9C78.7 123.5 78.8 123.1 78.6 122.7C78.5 122.5 78.2 122.6 78.2 122.7C78.2 123.3 78.3 124 78.5 124.6C78.6 124.8 79 124.8 79 124.5C79 124 79 123.4 79 122.9H78.5C78.5 123.1 78.5 123.4 78.5 123.6C78.5 123.8 78.9 123.9 79 123.7C79.1 123.4 79.1 123.1 79.1 122.8C79.1 122.6 78.7 122.5 78.6 122.7C78.5 122.9 78.5 123.1 78.5 123.3C78.5 123.6 79 123.6 79 123.3C79 123 78.8 122.9 78.5 122.9C78.3 122.9 78.3 123 78.4 123.1C78.4 123.2 78.4 123.2 78.5 123.3C78.7 123.3 78.8 123.3 79 123.4C79 123.2 79 123.1 79.1 122.9C78.9 122.9 78.7 122.9 78.6 122.8C78.6 123.1 78.6 123.3 78.5 123.6C78.7 123.6 78.9 123.6 79 123.7C79 123.5 79 123.2 79 123C79 122.7 78.5 122.7 78.5 123C78.5 123.5 78.5 124.1 78.5 124.6C78.7 124.6 78.8 124.6 79 124.5C78.8 123.9 78.7 123.3 78.5 122.6C78.4 122.6 78.2 122.7 78.1 122.7C78.2 123.1 78.2 123.4 78.1 123.8C78.2 124 78.4 124 78.5 123.9Z" fill="#1D1D1B"></path><path d="M73.8 121.7C74.8 122.7 76.7 123 78.1 122.2C78.2 122.2 78.1 122 78 122.1C76.7 122.7 74.9 122.5 73.9 121.6C73.9 121.5 73.7 121.6 73.8 121.7Z" fill="#1D1D1B"></path><path d="M74 121.8C75.4 122.2 77.2 122.5 78.1 121.4C78.1 121.3 78 121.3 78 121.3C77 122.2 75.4 121.9 74.1 121.6C73.9 121.5 73.8 121.7 74 121.8Z" fill="#1D1D1B"></path><path d="M73.2 120.9C74.5 121.5 76.4 122.1 77.6 121.1C77.7 121.1 77.6 121 77.5 121C76.1 121.7 74.6 121.3 73.2 120.9C73.1 120.9 73.2 120.8 73.2 120.9Z" fill="#1D1D1B"></path><path d="M75.3 122.2C76.6 122 77.4 121 77.1 120H77C77.2 120.9 76.5 121.9 75.3 122C75.1 122.1 75.2 122.2 75.3 122.2Z" fill="#1D1D1B"></path><path d="M76.2 120C77.2 120.9 77.2 122.1 76.6 123.2C76.6 123.3 76.7 123.3 76.7 123.3C77.7 122.3 77.4 120.8 76.4 119.8C76.3 119.7 76.1 119.9 76.2 120Z" fill="#1D1D1B"></path><path d="M76.7 119.8C77.3 120.5 77.7 121.3 77.8 122.1C77.8 122.2 78 122.2 78 122.1C78 121.2 77.6 120.3 76.8 119.7C76.8 119.6 76.6 119.7 76.7 119.8Z" fill="#1D1D1B"></path><path d="M76.9 119.7C78 120.5 78.4 121.5 78.3 122.6C78.3 122.7 78.5 122.7 78.5 122.6C78.9 121.4 78.3 120.2 77.1 119.4C77 119.4 76.7 119.6 76.9 119.7Z" fill="#1D1D1B"></path><path d="M74.5 120.3C75.5 121.4 75.5 122.7 75 123.9C75 124 75.1 124 75.2 124C76 122.8 75.7 121.3 74.7 120.3C74.6 120.1 74.5 120.2 74.5 120.3Z" fill="#1D1D1B"></path><path d="M74.2 122C74.8 122.3 75.3 122.7 75.8 123.1C75.9 123.2 76 123.1 76 123C75.6 122.5 75 122.1 74.4 121.8C74.2 121.7 74 121.9 74.2 122Z" fill="#1D1D1B"></path><path d="M75.9 121.6C76.1 122 76.1 122.5 76 122.9C76 123 76.1 123 76.2 123C76.5 122.5 76.5 122 76.3 121.6C76.1 121.3 75.8 121.4 75.9 121.6Z" fill="#1D1D1B"></path><path d="M76.3 121.5C76.5 121.8 76.5 122.2 76.4 122.5C76.4 122.6 76.5 122.6 76.6 122.6C76.9 122.2 76.9 121.8 76.6 121.4C76.5 121.2 76.3 121.3 76.3 121.5Z" fill="#1D1D1B"></path><path d="M38.2001 119.2C36.2001 119 34.3001 119.9 35.2001 121.6C35.6001 122.3 36.1001 123.1 37.1001 123.5C38.1001 123.9 39.3001 124 40.4001 123.9C42.1001 123.7 43.8001 122.3 43.0001 120.9C42.6001 120.2 41.7001 119.6 40.8001 119.2C39.7001 118.8 38.7001 119 37.6001 119.2C37.5001 119.2 37.5001 119.4 37.6001 119.4C38.5001 119.4 39.2001 119.1 40.1001 119.3C41.0001 119.5 41.8001 119.9 42.3001 120.4C43.7001 121.7 42.4001 123.4 40.5001 123.7C38.8001 124 36.7001 123.6 35.8001 122.3C35.3001 121.6 34.7001 120.7 35.4001 120C36.0001 119.3 37.2001 119.3 38.1001 119.4C38.3001 119.4 38.3001 119.3 38.2001 119.2Z" fill="#1D1D1B"></path><path d="M42.7 123.1C43.1 122.8 43.3 122.5 43.4 122.1C43.4 122 43.2 121.9 43.2 122C43 122.3 42.6 122.8 42.7 123.1C42.7 123.4 42.9 123.5 43 123.7C43.2 124 43.3 124.3 43.4 124.6C43.7 125.9 43.3 127.1 42.9 128.4C42.2 130.6 42.8 133 44.2 135H44.3C43.8 133.9 43.2 132.9 43 131.8C42.7 130.5 43 129.2 43.4 127.9C43.7 126.9 44.1 125.9 43.9 124.9C43.9 124.5 43.7 124.1 43.5 123.8C43.3 123.5 43 123.3 43.1 123C43.1 122.7 43.3 122.4 43.4 122.2C43.3 122.2 43.2 122.2 43.1 122.1C43 122.5 42.8 122.7 42.5 123C42.4 123 42.6 123.1 42.7 123.1Z" fill="#1D1D1B"></path><path d="M43.3 122.2C43.3 122.7 43.5001 123.1 43.7001 123.6C43.7001 123.7 43.9001 123.6 43.9001 123.6C43.8001 123 43.7001 122.4 43.4001 121.8C43.5001 122.4 43.6001 123 43.7001 123.6C43.8001 123.6 43.8001 123.6 43.9001 123.6C43.7001 123.2 43.6 122.7 43.5 122.2C43.4 122.1 43.3 122.1 43.3 122.2Z" fill="#1D1D1B"></path><path d="M43.2 122C44.1 123.4 44.6 124.7 43.6 126.2C43.7 126.2 43.8 126.3 43.9 126.3C44.8 124.8 43.6 123.1 43.4 121.6C43.3 121.6 43.3 121.6 43.2 121.6C43.5 122.8 44 124 44.1 125.2C44.1 125.9 43.9 126.3 43.5 126.9C43.2 127.3 43.1 127.5 43 128H43.1C43.2 127.4 43.8 127.1 44.1 126.6C44.4 126.2 44.4 125.7 44.4 125.2C44.3 124 43.8 122.8 43.4 121.6C43.4 121.5 43.2 121.5 43.2 121.6C43.4 123.1 44.6 124.6 43.7 126.2C43.6 126.4 43.9 126.5 44 126.3C44.5 125.6 44.8 124.9 44.6 124.1C44.5 123.3 44 122.6 43.5 121.9C43.4 121.8 43.1 121.9 43.2 122Z" fill="#1D1D1B"></path><path d="M42.8 122.8C43.4 121.8 43.2 120.6 42.2 119.8C41.7 119.4 41 119.1 40.2 119C39.4 118.9 38.7 119 37.9 119.1C37.2 119.2 36.5 119 35.8 119.2C35.2 119.4 34.7 119.8 34.5 120.3C33.9 121.4 34.6 122.7 35.8 123.4C36.1 123.6 36.6 123.4 36.4 123.1C35.9 122.4 35.5 121.7 35.1 121C35 120.8 34.4 120.8 34.5 121.1C34.8 122.8 36.7 124.3 38.8 124.5C40.4 124.7 44 123.6 43.3 121.9C43.2 121.7 42.8 121.7 42.8 122C42.8 123.5 40 124.2 38.5 123.9C36.9 123.6 35.3 122.4 35.1 121.1C34.9 121.1 34.7 121.1 34.5 121.2C34.9 122 35.3 122.7 35.8 123.5L36.4 123.2C35.4 122.6 34.7 121.6 35.4 120.6C35.7 120.2 36.2 119.8 36.9 119.8C37.4 119.8 37.8 119.9 38.3 119.8C39.6 119.6 40.8 119.5 41.9 120.2C42.9 120.8 43.2 121.9 42.7 122.8C42.4 122.8 42.7 122.9 42.8 122.8Z" fill="#1D1D1B"></path><path d="M35.8001 122.9C37.9001 123.7 40.8001 124.6 42.8001 123C42.9001 122.9 42.8001 122.8 42.7001 122.9C40.6001 124.3 38.0001 123.5 35.8001 122.9C35.7001 122.9 35.8001 122.8 35.8001 122.9Z" fill="#1D1D1B"></path><path d="M37.2 123.1C39 123.7 41.1 123.6 42.5 122.6C42.6 122.5 42.5 122.4 42.4 122.5C40.8 123.2 39 123.5 37.3 122.9C37.1 122.8 37 123 37.2 123.1Z" fill="#1D1D1B"></path><path d="M36.1 122.5C37.9 122.8 39.8 122.8 41.5 122.3C41.6 122.3 41.6 122.1 41.5 122.2C39.7 122.5 38 122.6 36.2 122.3C36 122.3 36 122.4 36.1 122.5Z" fill="#1D1D1B"></path><path d="M38.5 122.4C39.7 122.6 40.9 122.4 41.7 121.7C41.8 121.7 41.7 121.6 41.6 121.6C40.7 122.2 39.6 122.5 38.5 122.3C38.4 122.3 38.4 122.4 38.5 122.4Z" fill="#1D1D1B"></path><path d="M41 119C41.4 119.7 41.7 120.5 42 121.3C42.2 121.9 42.8 123.2 42 123.7C41.9 123.8 42 123.9 42.1 123.8C42.9 123.5 42.7 122.7 42.5 122.1C42.1 121.1 41.7 120 41 119C40.9 119 41 119 41 119Z" fill="#1D1D1B"></path><path d="M40.6 121.4C40.7 122.3 40.6 123.2 40.6 124.1C40.6 124.2 40.8 124.2 40.8 124.1C41 123.2 41 122.3 41 121.3C41 121.2 40.6 121.2 40.6 121.4Z" fill="#1D1D1B"></path><path d="M40.2 120.6C40.9 121 41.6 121.5 41.9 122.1C42.2 122.9 41.6 123.9 40.4 123.6C40.3 123.6 40.2 123.7 40.3 123.7C41.2 124.1 42.2 123.5 42.4 122.8C42.6 121.7 41.4 120.9 40.4 120.4C40.2 120.2 40 120.5 40.2 120.6Z" fill="#1D1D1B"></path><path d="M40.5 120.6C41.1 121.5 41.1 122.4 40.7 123.3C40.7 123.4 40.8 123.5 40.9 123.4C41.6 122.5 41.4 121.4 40.7 120.5C40.7 120.4 40.4 120.5 40.5 120.6Z" fill="#1D1D1B"></path><path d="M40 121.4C40.4 122 40.8 122.8 40 123.3C39.9 123.4 40 123.5 40.2 123.5C41.4 123.1 40.8 122 40.4 121.3C40.2 121 39.9 121.2 40 121.4Z" fill="#1D1D1B"></path><path d="M39.6 121.3C39.5 121.7 39.4 122 39.2 122.4C39.1 122.5 39.3 122.6 39.4 122.5C39.7 122.1 39.8 121.8 39.9 121.4C39.9 121.1 39.6 121.1 39.6 121.3Z" fill="#1D1D1B"></path><path d="M39.2 121.8C39.1 122 39.1 122.1 39.2 122.3C39.2 122.4 39.3 122.5 39.4 122.5L39.5 122.6C39.5 122.6 39.5 122.8 39.4 122.7C39.3 122.6 39.1 122.7 39.2 122.8C39.4 123 39.8 123 39.9 122.8C40 122.7 40 122.5 39.9 122.4C39.8 122.3 39.5 122 39.6 121.9C39.7 121.8 39.3 121.6 39.2 121.8Z" fill="#1D1D1B"></path><path d="M38.5 121.8C38.8 122.3 38.7 122.8 38.5 123.3C38.4 123.4 38.7 123.5 38.8 123.4C39.3 122.9 39.3 122.2 38.9 121.6C38.9 121.3 38.4 121.5 38.5 121.8Z" fill="#1D1D1B"></path><path d="M37.3 121.6C37.7 121.8 37.8 122.2 37.8 122.5C37.8 122.6 38 122.7 38.1 122.6C38.5 122.1 38.1 121.5 37.5 121.2C37.2 121.1 37 121.4 37.3 121.6Z" fill="#1D1D1B"></path><path d="M38.2 121.8C38.6 122.1 38.9 122.5 39.4 122.6C39.6 122.7 39.7 122.5 39.6 122.4C39.4 122 38.9 121.7 38.5 121.5C38.3 121.3 37.9 121.6 38.2 121.8Z" fill="#1D1D1B"></path><path d="M4.70006 119.5C2.70006 119.3 0.80006 120.2 1.70006 121.9C2.10006 122.6 2.60006 123.4 3.60006 123.8C4.60006 124.2 5.80006 124.3 6.90006 124.2C8.60006 124 10.3001 122.6 9.50006 121.2C9.10006 120.5 8.20006 119.9 7.30006 119.5C6.20006 119.1 5.20006 119.3 4.10006 119.5C4.00006 119.5 4.00006 119.7 4.10006 119.7C5.00006 119.7 5.70006 119.4 6.60006 119.6C7.50006 119.8 8.30006 120.2 8.80006 120.7C10.2001 122 8.90006 123.7 7.00006 124C5.30006 124.3 3.20006 123.9 2.30006 122.6C1.80006 121.9 1.20006 121 1.90006 120.3C2.50006 119.6 3.70006 119.6 4.60006 119.7C4.80006 119.7 4.80006 119.5 4.70006 119.5Z" fill="#1D1D1B"></path><path d="M9.30002 122.8C10.4 121.6 8.80002 120 7.40002 119.5C6.50002 119.2 5.40002 119.1 4.40002 119.1C3.50002 119.1 2.60002 119.2 1.90002 119.7C0.800019 120.5 0.600019 122 1.50002 123C2.50002 124.2 4.40002 124.7 6.10002 124.6C7.10002 124.5 8.20002 124.3 8.70002 123.6C9.10002 123 9.40002 122 8.80002 121.4C8.70002 121.2 8.20002 121.3 8.30002 121.6C8.60002 122.2 8.30002 123.3 7.70002 123.7C7.00002 124.2 5.60002 124.2 4.70002 124.1C3.10002 123.9 1.50002 123 1.50002 121.6C1.50002 121 1.80002 120.3 2.40002 120C3.10002 119.6 4.10002 119.7 5.00002 119.7C6.00002 119.7 6.90002 119.8 7.70002 120.3C8.50002 120.8 9.20002 121.8 8.80002 122.6C8.90002 122.8 9.20002 123 9.30002 122.8Z" fill="#1D1D1B"></path><path d="M9.00002 122.2C9.00002 121.9 9.10002 121.6 9.00002 121.3C8.90002 121.1 8.90002 120.8 8.60002 120.7C8.50002 120.7 8.40002 120.7 8.40002 120.8C8.40002 121 8.50002 121.2 8.60002 121.4C8.70002 121.7 8.80002 122 8.90002 122.2C8.80002 122.3 8.90002 122.3 9.00002 122.2Z" fill="#1D1D1B"></path><path d="M7.50005 122.7C7.70005 122.2 8.70005 119.9 7.40005 119.8C7.40005 119.8 7.30005 119.9 7.40005 119.9C8.40005 120 7.50005 122.3 7.30005 122.7C7.30005 122.7 7.50005 122.7 7.50005 122.7Z" fill="#1D1D1B"></path><path d="M7.10004 119.9C9.10004 120.8 8.80004 122.8 7.00004 123.7C6.90004 123.8 7.00004 123.9 7.10004 123.9C9.60004 123.2 9.40004 120.6 7.30004 119.7C7.10004 119.6 6.90004 119.8 7.10004 119.9Z" fill="#1D1D1B"></path><path d="M6.19995 121.7C6.49995 122.3 6.49995 123 6.49995 123.6C6.49995 123.7 6.69995 123.7 6.69995 123.6C6.89995 122.9 6.79995 122.2 6.49995 121.5C6.49995 121.4 6.19995 121.5 6.19995 121.7Z" fill="#1D1D1B"></path><path d="M5.89999 120.4C6.69999 121.4 6.59999 122.3 6.59999 123.4C6.59999 123.5 6.79999 123.6 6.89999 123.5C7.49999 122.5 6.99999 121.1 6.29999 120.2C6.09999 120 5.79999 120.2 5.89999 120.4Z" fill="#1D1D1B"></path><path d="M6.30004 121.3C6.80004 121.5 7.30004 121.8 7.50004 122.2C7.70004 122.5 8.00004 123.2 7.50004 123.4C7.40004 123.4 7.40004 123.6 7.50004 123.6C8.30004 123.7 8.30004 122.9 8.20004 122.4C7.90004 121.7 7.20004 121.2 6.40004 120.9C6.10004 120.9 6.00004 121.2 6.30004 121.3Z" fill="#1D1D1B"></path><path d="M1.89996 121.2C2.59996 123 5.49996 123.3 7.39996 122.8C7.49996 122.8 7.49996 122.6 7.39996 122.6C5.49996 122.5 3.09996 122.8 2.19996 121.1C2.19996 120.9 1.79996 121 1.89996 121.2Z" fill="#1D1D1B"></path><path d="M4.40003 122.5C5.00003 122.7 5.70003 122.9 6.30003 123.1C6.40003 123.1 6.50003 123 6.40003 123C5.80003 122.8 5.20003 122.6 4.50003 122.4C4.30003 122.2 4.20003 122.4 4.40003 122.5Z" fill="#1D1D1B"></path><path d="M3.40004 121.6C4.30004 122.3 5.90004 122.9 7.20004 122.5C7.30004 122.5 7.30004 122.3 7.10004 122.3C5.70004 122.3 4.70004 122.2 3.60004 121.4C3.50004 121.2 3.20004 121.4 3.40004 121.6Z" fill="#1D1D1B"></path><path d="M3.30006 121.7C4.20006 121.9 5.20006 122.3 6.20006 122.2C6.30006 122.2 6.30006 122.1 6.20006 122C5.80006 121.9 5.30006 121.8 4.80006 121.8C4.30006 121.7 3.90006 121.6 3.40006 121.5C3.20006 121.5 3.10006 121.7 3.30006 121.7Z" fill="#1D1D1B"></path><path d="M3.40006 122.9C3.80006 123.4 4.30006 123.7 5.00006 123.9C5.50006 124 6.40006 124.1 6.80006 123.8C6.90006 123.8 6.80006 123.7 6.80006 123.7C6.30006 123.6 5.70006 123.8 5.20006 123.7C4.50006 123.6 4.00006 123.3 3.60006 122.9C3.50006 122.7 3.30006 122.8 3.40006 122.9Z" fill="#1D1D1B"></path></svg> 