<?xml version="1.0" encoding="UTF-8"?> <svg xmlns="http://www.w3.org/2000/svg" width="100" height="123" viewBox="0 0 100 123" fill="none"><path d="M7.09998 103.1C5.59998 103.9 4.09998 104.7 2.69998 105.6C1.69998 106.2 0.599981 106.8 0.199981 107.8C-0.600019 109.8 1.49998 111.6 3.39998 111.9C5.99998 112.2 8.99998 110.9 10.7 109.2C12 107.9 13.7 105.3 12.1 103.6C10.4 101.8 6.89998 102.6 5.49998 104.3C5.39998 104.5 5.69998 104.7 5.79998 104.5C6.79998 103.7 7.89998 103.1 9.19998 103.1C10.7 103.1 12.2 103.8 12.1 105.5C11.9 108.1 9.19998 110.1 6.89998 110.9C5.59998 111.4 4.09998 111.7 2.69998 111.3C1.49998 111 0.399981 109.9 0.499981 108.6C0.599981 107.2 2.29998 106.4 3.39998 105.7C4.69998 104.9 5.99998 104.2 7.19998 103.4C7.39998 103.3 7.29998 103 7.09998 103.1Z" fill="#1D1D1B"></path><path d="M2.10005 109C2.20005 109 2.20005 109 2.30005 108.9C2.40005 108.9 2.40005 108.8 2.50005 108.8C2.60005 108.8 2.60005 108.7 2.50005 108.7C2.40005 108.7 2.40005 108.7 2.30005 108.6C2.20005 108.6 2.20005 108.5 2.10005 108.5C2.00005 108.5 1.80005 108.6 1.80005 108.7C1.90005 108.9 2.00005 109 2.10005 109Z" fill="#1D1D1B"></path><path d="M4.49999 109.5C4.69999 109.6 4.99999 109.6 5.19999 109.6C5.39999 109.6 5.69999 109.4 5.69999 109.2C5.69999 109.1 5.69999 109.1 5.59999 109.1C5.39999 109.1 5.29999 109.1 5.09999 109.2C4.89999 109.2 4.69999 109.3 4.49999 109.2C4.39999 109.2 4.29999 109.4 4.49999 109.5Z" fill="#1D1D1B"></path><path d="M4.39995 106.4C4.49995 106.4 4.69995 106.4 4.79995 106.4C4.89995 106.4 4.89995 106.4 4.99995 106.3H5.09995C5.09995 106.2 5.09995 106.1 4.99995 106.1C4.89995 106.1 4.89995 106.1 4.79995 106.1C4.69995 106.1 4.69995 106.3 4.79995 106.3C4.89995 106.3 4.89995 106.3 4.99995 106.3C5.09995 106.3 5.19995 106.1 4.99995 106.1H4.89995C4.79995 106.1 4.79995 106.1 4.69995 106.1C4.59995 106.1 4.39995 106.1 4.29995 106.1C4.19995 106.1 4.09995 106.3 4.39995 106.4Z" fill="#1D1D1B"></path><path d="M10.2 105.8C10.4 105.6 10.5 105.7 10.7 105.7C10.8 105.7 10.8 105.6 10.8 105.6C10.8 105.1 9.99998 105.3 9.79998 105.5C9.69998 105.6 9.69998 105.7 9.79998 105.8C9.99998 105.9 10.1 105.9 10.2 105.8Z" fill="#1D1D1B"></path><path d="M7.20005 108.4C7.40005 108.4 7.60005 108.4 7.70005 108.4C7.90005 108.4 8.00005 108.4 8.10005 108.3C8.20005 108.2 8.10005 108.1 8.10005 108.1C8.00005 108 7.80005 108 7.70005 108.1C7.50005 108.1 7.40005 108.1 7.20005 108.2C7.00005 108 7.00005 108.4 7.20005 108.4Z" fill="#1D1D1B"></path><path d="M34.9 104.1C33.6 104.7 32.4 105.4 31.2 106.2C30.4 106.7 29.6 107.4 29.4 108.3C28.9 110.3 31 111.7 32.8 111.8C35 111.9 37.3 110.9 38.9 109.5C40.3 108.2 42.1 106 41.1 104C40.2 102.2 37.3 101.8 36.1 103.6C36 103.8 36.3 104 36.4 103.8C37.3 103 38.5 102.6 39.6 103.2C40.8 103.9 41 105.3 40.5 106.5C39.7 108.4 37.9 109.9 35.9 110.7C34 111.5 30.3 111.8 29.9 109.1C29.7 107.8 30.9 106.9 31.9 106.3C33 105.6 34 105 35.1 104.3C35.2 104.3 35.1 104 34.9 104.1Z" fill="#1D1D1B"></path><path d="M34.1 106.9C33.9 106.9 33.6 106.8 33.3 106.9C33.1 106.9 32.9 107 32.7 107.2C32.6 107.2 32.7 107.3 32.8 107.3C33.2 107.3 33.6 107.2 34 107.3C34.2 107.3 34.3 106.9 34.1 106.9Z" fill="#1D1D1B"></path><path d="M30.8 109.2C31 109.1 31.1 109.1 31.3 109C31.5 109 31.6 108.9 31.8 108.8C31.9 108.8 31.9 108.7 31.8 108.7C31.5 108.6 31.1 108.8 30.7 109C30.6 109.1 30.7 109.3 30.8 109.2Z" fill="#1D1D1B"></path><path d="M37 108.2C37.1 108.2 37.1 108.2 37.2 108.2C37.3 108.2 37.4 108.1 37.4 108V107.9V108C37.4 107.9 37.4 107.8 37.2 107.8C37.1 107.8 37.1 108 37.2 108C37.2 108 37.1 108 37.2 107.9C37.2 107.9 37.2 107.9 37.3 107.8H37.2C37.2 107.8 37.2 107.8 37.1 107.8C37 107.8 36.9 107.8 36.8 107.9C36.7 108.1 36.8 108.2 37 108.2Z" fill="#1D1D1B"></path><path d="M34.7 109.8C34.9 109.7 35.1 109.7 35.3 109.6C35.5 109.5 35.7 109.5 35.8 109.4C35.8 109.4 35.8 109.3 35.7 109.3C35.5 109.3 35.3 109.4 35.1 109.4C34.9 109.5 34.7 109.5 34.5 109.6C34.5 109.7 34.5 109.9 34.7 109.8Z" fill="#1D1D1B"></path><path d="M38.9 105.3C39.2 105.2 39.6 105.2 39.9 104.9V104.8C39.6 104.7 39.2 104.9 38.9 105.1C38.7 105.1 38.7 105.4 38.9 105.3Z" fill="#1D1D1B"></path><path d="M40 108.3C40 108.2 40 108.2 40 108.3C40 108.2 39.9 108.2 39.9 108.2C39.9 108.2 39.9 108.2 39.8 108.2C39.7 108.2 39.6 108.3 39.6 108.4C39.6 108.7 39.8 108.8 39.8 109.2C39.8 109.5 39.8 109.8 39.7 110.1C39.5 110.7 39.3 111.3 39.2 112C39 113.2 38.9 114.4 39.3 115.5C39.3 115.6 39.4 115.6 39.4 115.5C39.5 114 39.5 112.6 39.9 111.1C40.1 110.6 40.2 110 40.3 109.5C40.4 109.3 40.3 108.2 40 108.3Z" fill="#1D1D1B"></path><path d="M39.8 108.8V108.7C39.7 108.6 39.5001 108.6 39.4001 108.5C39.3001 108.6 39.2 108.7 39.3 108.9C39.7 109.8 39.1 110.6 38.8 111.5C38.8 111.7 38.9 111.7 39.1 111.6C40.1 110.9 40.5 109.7 40 108.6C39.9 108.4 39.7 108.4 39.6 108.4C39.4 108.4 39.4 108.7 39.5 108.8L39.6 108.9C39.6 109 39.8 109 39.8 108.8Z" fill="#1D1D1B"></path><path d="M39.6 108.7L39.7 108.8C39.7 108.9 39.8 108.9 39.9 108.9L39.8 108.8C39.8 108.9 39.9 109 40 108.9C40.1 108.9 40.2 108.8 40.2 108.8V108.7C40.2 108.6 40.1 108.6 40.1 108.6C40.1 108.6 40 108.5 39.9 108.5C39.9 108.5 39.8 108.4 39.7 108.4C39.6 108.4 39.6 108.4 39.5 108.5C39.5 108.4 39.5 108.6 39.6 108.7Z" fill="#1D1D1B"></path><path d="M37.5001 104.6C36.2001 103.9 35.1001 103.1 35.5001 101.6C35.8001 100.4 36.7001 99.4999 37.5001 98.4999C38.2001 97.6999 38.7001 96.7999 38.8001 95.7999C38.9001 94.7999 38.9001 93.4999 38.4001 92.5999C38.4001 92.4999 38.2001 92.4999 38.2001 92.5999C38.1001 93.2999 38.3001 93.8999 38.3001 94.5999C38.3001 95.3999 38.3001 96.1999 37.9001 96.8999C37.3001 98.0999 36.2001 98.9999 35.5001 100.1C35.0001 101 34.6001 102.1 35.0001 103C35.4001 104 36.4001 104.6 37.4001 104.9C37.5001 105 37.6001 104.7 37.5001 104.6Z" fill="#1D1D1B"></path><path d="M34.7 104.3C34.8 104.3 34.9 104.3 35 104.3C35.1 104.3 35.1 104.3 35.2 104.3C35.4 104.3 35.6 104.2 35.7 104.1C35.8 104.1 35.8 103.9 35.7 103.9C35.5 103.9 35.2 104 35 104.1C34.7 104.2 34.6 104.4 34.4 104.6V104.7C34.6 104.6 34.9 104.6 35.1 104.5C35.3 104.4 35.6 104.3 35.7 104.2C35.7 104.1 35.6 104.1 35.6 104C35.4 104 35.2 104.1 35.1 104.2C35 104.1 34.9 104.2 34.7 104.3Z" fill="#1D1D1B"></path><path d="M38.7 94.5C38.8 94.3 39 94.2 39.2 94.1V94C38.9 93.9 38.6 94.1 38.5 94.3C38.4 94.5 38.6 94.6 38.7 94.5Z" fill="#1D1D1B"></path><path d="M39 94.2C39 94.2 39 94.1 39 94.2C39 94.1 39 94.1 39 94H38.9001C38.9001 94 38.9 94 38.8 94.1V94.2C38.9 94.2 38.9 94.2 39 94.2Z" fill="#1D1D1B"></path><path d="M40.0999 108.6C40.0999 108.5 40.0999 108.5 40.0999 108.4C40.0999 108.3 40.0999 108.3 40.0999 108.2V108.3C39.9999 108.3 39.8 108.2 39.7 108.2C39.7 108.3 39.6999 108.4 39.7999 108.5C39.7999 108.6 39.9 108.7 40 108.8C40.1 108.8 40.2 108.8 40.2 108.7C40.3 108.6 40.2 108.5 40.2 108.4C40.2 108.3 40.0999 108.2 40.0999 108.1C39.9999 108 39.8999 108 39.7999 108.1C39.6999 108.2 39.6999 108.3 39.7999 108.4L39.7 108.3C39.7 108.4 39.7999 108.4 39.7999 108.5C39.7999 108.6 39.9 108.6 39.9 108.6C40 108.6 40.0999 108.6 40.0999 108.6Z" fill="#1D1D1B"></path><path d="M38.5 95.0001C38.6 94.3001 38.1 93.9001 37.5 93.6001C36.8 93.2001 36 92.8001 35.2 93.1001C36.2 93.3001 38.1 93.8001 38.5 95.0001C38.5 95.0001 38.4 95.0001 38.5 95.0001Z" fill="#1D1D1B"></path><path d="M36.9 93.5C38 92.3 36.8 90.9 35.6 90.4C34.7 90 33.7 90 32.8 90.3C31.7 90.6 30.4 90.9 29.5 91.6V91.7C31 91.7 32.3 90.7 33.8 90.6C35.3 90.5 37.7 91.7 36.7 93.4C36.6 93.5 36.8 93.6 36.9 93.5Z" fill="#1D1D1B"></path><path d="M29.7999 91.6C31.0999 92.1 31.3 93 31.9 94C32.3 94.7 32.7999 95.3 33.5999 95.5C34.6999 95.8 37.2 95.2 37 93.7C37 93.5 36.6999 93.5 36.5999 93.7C36.0999 94.5 35.4 94.9 34.4 95C33.3 95.1 32.6999 94.5 32.0999 93.6C31.5999 92.8 30.9 91.4 29.7 91.5C29.7 91.5 29.6999 91.6 29.7999 91.6Z" fill="#1D1D1B"></path><path d="M36.7 93.9C36.8 93.9 36.9 93.8 37 93.7C37 93.7 37.1 93.6 37.1 93.5C37.1 93.5 37.1 93.4 37 93.3C36.9 93.2 36.8 93.3 36.7 93.4C36.7 93.6 36.6 93.7 36.7 93.9C36.7 93.9 36.6 93.9 36.7 93.9Z" fill="#1D1D1B"></path><path d="M36.8 93.5C36.8 93.6 36.8 93.6 36.8 93.6C36.8 93.7 36.8001 93.7 36.9001 93.7C37.1001 93.7 37.1 93.5 37.1 93.4C37.1 93.3 37.0001 93.2 36.9001 93.3C36.8001 93.3 36.8 93.4 36.8 93.5Z" fill="#1D1D1B"></path><path d="M37.4 92.4C38.1 93.5 39.6 92.5999 40 91.6999C40.3 90.7999 40.2 89.9 40.2 89C40.2 87.9 40.4 86.8 40.6 85.6C40.6 85.4 40.3 85.4 40.3 85.6C39.9 86.8 39.8 88.2 39.8 89.5C39.8 90.1 39.9 90.8 39.7 91.4C39.4 92.3 38.6 92.8 37.7 92.3C37.5 92.2 37.4 92.3 37.4 92.4Z" fill="#1D1D1B"></path><path d="M37.9 92.6001C37.2 91.8001 37.1 91.1001 37.6 90.1001C37.9 89.6001 38.2 89.1001 38.6 88.6001C39.2 87.8001 40.4 86.9001 40.4 85.8001C40.4 85.8001 40.3 85.7001 40.3 85.8001C39.7 86.5001 39.2 87.2001 38.7 87.8001C38.2 88.5001 37.6 89.2001 37.3 89.9001C36.8 90.8001 36.5 92.6001 37.9 92.6001C37.9 92.7001 37.9 92.7001 37.9 92.6001Z" fill="#1D1D1B"></path><path d="M38.5 93.6C38.5 93 38.5 92.5 38.6 92C38.7 91.6 38.9 91.1 38.8 90.7C38.8 90.6 38.7 90.6 38.6 90.7C38.1 91.3 37.9 92.9 38.5 93.6Z" fill="#1D1D1B"></path><path d="M39.1 92.7C39 92.7 39.1 92.7 39.1 92.7C39 92.7 39 92.7 39.1 92.7C39 92.8 39 92.8 39.1 92.8C39.1 92.8 39.1 92.8 39.2 92.8C39.1 92.8 39.1 92.8 39.1 92.7C39.1 92.6 39.1 92.6 39.1 92.7Z" fill="#1D1D1B"></path><path d="M39.1 92.8999C39.4 92.8999 39.4 92.3999 39.1 92.3999C38.8 92.3999 38.8 92.8999 39.1 92.8999Z" fill="#1D1D1B"></path><path d="M38.9 92.6001C38.2 94.0001 39.6 95.7001 41.3 95.3001C42.3 95.1001 42.8 94.3001 43.4 93.6001C43.8 93.1001 44.3 92.6001 44.9 92.3001C45.4 92.1001 46 92.0001 46.5 91.8001C46.6 91.8001 46.6 91.6001 46.5 91.6001C45.3 91.2001 43.9 92.2001 43.2 93.0001C42.6 93.7001 42.1 94.7001 41.1 94.8001C39.7 94.9001 39.2 93.7001 39.3 92.6001C39.2 92.5001 39 92.5001 38.9 92.6001Z" fill="#1D1D1B"></path><path d="M39.8001 91.6C40.6001 90.7 42.1001 90.6 43.2001 90.8C44.3001 91 45.3001 91.6 46.4001 91.8C46.5001 91.8 46.5001 91.7 46.5001 91.7C46.0001 91.3 45.3001 91.1 44.6001 90.8C43.9001 90.5 43.1001 90.3 42.3001 90.3C41.5001 90.3 39.5001 90.6 39.8001 91.6C39.8001 91.6 39.7001 91.6 39.8001 91.6Z" fill="#1D1D1B"></path><path d="M39.4 94.2C39.4 94.1 39.4 94 39.4 94C39.4 93.9 39.4 93.9 39.4 93.8H39.3C39.2 93.9 39.2 94 39.2 94.1C39.1 94.3 39.3 94.4 39.4 94.2C39.4 94.3 39.3 94.3 39.3 94.3C39.4 94.3 39.5 94.3 39.4 94.2Z" fill="#1D1D1B"></path><path d="M38.8 94.3C39.3 94.3 39.6 93.9 39.9 93.6C40.3 93.2 40.8 92.8 41.2 92.4C41.3 92.3 41.2 92.2 41.1 92.2C40.6 92.3 40.2 92.7 39.8 93.1C39.5 93.5 39.1 93.9 38.8 94.3C38.7 94.3 38.7 94.3 38.8 94.3Z" fill="#1D1D1B"></path><path d="M38.8 94.4999C39 94.3999 39.2 94.1999 39.4 93.9999C39.6 93.8999 39.8 93.6999 39.8 93.4999C39.8 93.4999 39.8 93.3999 39.7 93.3999C39.5 93.2999 39.2 93.4999 39.1 93.6999C38.9 93.8999 38.7 94.0999 38.5 94.2999C38.4 94.3999 38.6 94.5999 38.8 94.4999Z" fill="#1D1D1B"></path><path d="M38.6 92.1001C38.3 91.9001 38.1 91.7001 37.9 91.4001C37.7 91.1001 37.6 90.8001 37.5 90.6001C37.5 90.5001 37.4 90.6001 37.4 90.6001C37.4 91.2001 37.9 92.0001 38.5 92.3001C38.6 92.3001 38.7 92.2001 38.6 92.1001Z" fill="black"></path><path d="M38.6 91.5C38.4 91 38.2 90.5 38 90H37.9C38 90.6 38.2 91.1 38.5 91.6C38.6 91.6 38.7 91.6 38.6 91.5Z" fill="black"></path><path d="M38.5999 91.0999C38.7999 91.0999 38.7999 90.8999 38.7999 90.6999C38.7999 90.3999 38.5999 90.1999 38.5999 89.8999C38.5999 89.5999 38.5999 89.1999 38.6999 88.8999C38.6999 88.8999 38.5999 88.7999 38.5999 88.8999C38.3999 89.1999 38.2999 89.5999 38.3999 89.8999C38.3999 90.0999 38.3999 90.1999 38.4999 90.3999C38.5999 90.4999 38.7999 90.9999 38.5999 91.0999C38.5999 91.0999 38.4999 91.0999 38.5999 91.0999Z" fill="black"></path><path d="M38.6 91.3C38.8 90.6 39.2 89.9 39.4 89.2C39.4 89.1 39.3 89.1 39.3 89.2C38.9 89.8 38.7 90.6 38.6 91.3C38.6 91.4 38.5 91.4 38.6 91.3Z" fill="black"></path><path d="M38.6 91.3999C38.9 91.0999 39.3 90.7999 39.6 90.4999C39.6 90.3999 39.6 90.3999 39.5 90.3999C39.1 90.5999 38.8 90.9999 38.6 91.3999C38.5 91.4999 38.5 91.3999 38.6 91.3999Z" fill="black"></path><path d="M38.6 92C38.9 91.8 39.2 91.6 39.5 91.4C39.6 91.3 39.5 91.2 39.4 91.3C39.1 91.4 38.8 91.6 38.5 91.8C38.4 91.9 38.5 92.1 38.6 92Z" fill="black"></path><path d="M39.9 93.5001C39.8 93.1001 39.7 92.7001 39.7 92.3001C39.7 92.2001 39.6 92.2001 39.6 92.3001C39.5 92.7001 39.5 93.1001 39.7 93.5001C39.7 93.7001 39.9 93.6001 39.9 93.5001Z" fill="black"></path><path d="M40.3 92.8999C40.2 92.3999 40.4 91.8999 40.6 91.4999C40.6 91.3999 40.5 91.3999 40.5 91.3999C40.2 91.7999 40.1 92.2999 40.2 92.8999C40.2 92.9999 40.4 92.9999 40.3 92.8999Z" fill="black"></path><path d="M40.9 92.5999C41 92.0999 41.4 91.7999 41.9 91.5999C42 91.5999 41.9 91.3999 41.8 91.4999C41.2 91.6999 40.8 92.0999 40.7 92.5999C40.6 92.5999 40.9 92.6999 40.9 92.5999Z" fill="black"></path><path d="M41.1 92.5C42 92 43 91.8 43.9 91.4V91.3C42.9 91.3 41.8 91.8 41 92.3C40.9 92.4 41 92.5 41.1 92.5Z" fill="black"></path><path d="M41.1 92.5C41.9 92.4 42.7 92.3 43.5 92.1V92C42.7 92.1 41.9 92.2 41.1 92.3C41 92.4 41 92.5 41.1 92.5Z" fill="black"></path><path d="M40.9 93C41.6 93.2 42.4 93.3 43.2 93.1C43.3 93.1 43.3 93 43.2 93C42.5 93 41.7 93 41 92.8C40.8 92.7 40.8 92.9 40.9 93Z" fill="black"></path><path d="M40.3 93.4001C40.9 93.6001 41.5 93.8001 42.2 93.7001C42.3 93.7001 42.3 93.6001 42.2 93.6001C41.6 93.5001 41 93.5001 40.5 93.2001C40.2 93.1001 40.1 93.3001 40.3 93.4001Z" fill="black"></path><path d="M39.5999 93.6C39.2999 93.8 39.6999 94 39.8999 94.1C40.3999 94.4 40.9999 94.5 41.4999 94.6C41.5999 94.6 41.5999 94.5 41.4999 94.4C41.1999 94.3 40.8999 94.2 40.5999 94.1C40.4999 94.1 40.2999 94 40.1999 94C40.1999 94 39.5999 93.8 39.5999 93.7C39.7999 93.7 39.7999 93.5 39.5999 93.6Z" fill="black"></path><path d="M36.7 93.5001C36.8 92.6001 35.8 91.5001 35 91.1001C34.9 91.1001 34.9 91.1001 34.9 91.2001C35.3 91.6001 35.7 92.0001 36 92.4001C36.3 92.7001 36.4 93.2001 36.7 93.5001Z" fill="black"></path><path d="M36.3 93.1001C35.9 92.0001 34.6001 91.0001 33.4001 90.6001C33.3001 90.6001 33.3 90.7001 33.3 90.7001C33.9 91.0001 34.4001 91.4001 34.9001 91.8001C35.4001 92.3001 35.8 92.8001 36.3 93.1001C36.3 93.2001 36.2 93.2001 36.3 93.1001Z" fill="black"></path><path d="M36.3 92.8C35.9 93.4 34.9 93 34.3 92.8C33.4 92.6 32.5 92.1 31.6 92C31.5 92 31.5 92.1 31.6 92.1C32.8 92.9 34.8 93.4 36.2 93.3C36.3 93.1 36.4 93 36.3 92.8C36.4 92.8 36.4 92.8 36.3 92.8Z" fill="black"></path><path d="M35.4 93.1C34.4 92.4 33.3 91.8 32.2 91.3C32.1 91.3 32.1 91.3 32.2 91.4C33.2 91.9 34.3 92.5 35.4 93.1C35.5 93.1 35.4 93.2 35.4 93.1Z" fill="black"></path><path d="M34.9 92.8C33.9 93.3 33.1 93.2 32.1 93.1C32 93.1 32 93.2 32.1 93.2C32.9 93.7 34.1 93.4 34.9 92.8C34.9 92.8 34.9 92.9 34.9 92.8Z" fill="black"></path><path d="M35.1 93.1C34.7 93.4 34.1 93.7 33.8 94C33.7 94.1 33.8 94.1 33.9 94.1C34.4 93.9 34.8 93.5 35.2 93.2C35.3 93.2 35.2 93 35.1 93.1Z" fill="black"></path><path d="M35.8 93.4001C35.4 93.7001 35.1 94.0001 34.8 94.3001C34.8 94.4001 34.8001 94.4001 34.9001 94.4001C35.3001 94.1001 35.6 93.8001 36 93.5001C36.1 93.4001 36 93.3001 35.8 93.4001Z" fill="black"></path><path d="M36.6 93.3C36.3 93.6 36 93.9 35.7 94.2C35.6 94.3 35.7 94.4 35.8 94.3C36.2 94.1 36.5 93.8 36.8 93.4C36.9 93.3 36.7 93.2 36.6 93.3Z" fill="black"></path><path d="M75 103.5C72.8 104.6 70.4 105.5 69.1 107.7C68.1 109.3 70.4 111.1 71.9 111.5C74.1 112.1 76.6 111.1 78.4 110C80.2 108.9 81.5 106.8 80.9 104.7C80.4 103 78 101.3 76.4 102.9C76.2 103.1 76.4 103.3 76.7 103.2C79.4 101.9 80.9 104.7 80.2 106.9C79.5 109.2 77.1 110.4 74.8 111C73.6 111.3 72.3 111.4 71.2 110.8C70.2 110.3 68.8 109 69.5 107.9C70.7 106 73.1 104.9 75.1 103.9C75.3 103.6 75.2 103.4 75 103.5Z" fill="#1D1D1B"></path><path d="M76.7 102.8C76.5 102.8 76.4 102.8 76.3 102.9C76.2 103 76 103.1 76 103.2C75.9 103.4 76.2 103.6 76.3 103.4C76.4 103.3 76.5 103.2 76.6 103.1C76.7 103 76.7 102.9 76.8 102.9C76.8 102.9 76.8 102.8 76.7 102.8Z" fill="#1D1D1B"></path><path d="M73.0999 94.3999C73.1999 95.6999 73.8999 97.0999 74.1999 98.3999C74.5999 99.8999 74.7999 101.4 74.9999 102.9C74.9999 103.4 75.1999 104.5 75.9999 104C76.3999 103.7 76.2999 103 76.1999 102.6C76.0999 101.9 76.0999 101.2 75.9999 100.5C75.8999 98.9999 75.8999 97.5999 76.3999 96.0999C76.7999 94.7999 77.6999 93.6999 78.5999 92.5999C79.4999 91.4999 80.3999 90.4999 81.3999 89.4999C82.3999 88.4999 83.4999 87.6999 84.4999 86.6999C84.5999 86.5999 84.4999 86.3999 84.2999 86.3999C83.1999 86.8999 82.1999 87.7999 81.3999 88.5999C80.4999 89.3999 79.6999 90.2999 78.8999 91.2999C77.3999 93.0999 75.8999 94.7999 75.5999 97.1999C75.3999 98.4999 75.3999 99.6999 75.4999 101C75.4999 101.3 75.5999 101.6 75.5999 101.9C75.5999 102.1 75.7999 103 75.6999 103.1C75.7999 103 75.6999 102.7 75.6999 102.5C75.6999 102.2 75.5999 101.9 75.5999 101.6C75.3999 100.3 75.1999 99.0999 74.7999 97.7999C74.4999 96.5999 74.1999 95.1999 73.4999 94.1999C73.2999 94.1999 72.9999 94.1999 73.0999 94.3999Z" fill="#1D1D1B"></path><path d="M76.8 110.6C76.7 111.5 77 112.3 77.2 113.1C77.5 114.2 77.8 115.4 77.8 116.6C77.9 118.5 76.7 120.7 77.5 122.5C77.6 122.6 77.8 122.6 77.8 122.5C77.9 122 77.9 121.6 77.9 121.1C77.9 120.5 78 119.9 78.1 119.3C78.3 118.4 78.5 117.5 78.4 116.6C78.4 115.7 78.2 114.7 78 113.8C77.8 112.8 77.2 111.7 77.2 110.7C77.3 110.4 76.9 110.3 76.8 110.6Z" fill="#1D1D1B"></path><path d="M78 115.7C77.4 116.4 77.5 117.4 76.5 117.8C75.6 118.2 74.7 118.4 73.8 118.7C72.6 119.1 71.5 120.1 71.9 121.5C71.9 121.6 72.1 121.6 72.2 121.5C72.7 120.8 72.6 120 73.6 119.5C74.4 119.1 75.4 118.9 76.3 118.6C76.9 118.4 77.4 118.2 77.8 117.7C78.2 117.2 78.4 116.3 78.4 115.7C78.3 115.7 78.1 115.6 78 115.7Z" fill="#1D1D1B"></path><path d="M77.8 114.1C78.1 115.2 79.6 115.8 80.6 116.2C81.8 116.7 83.3 117.2 84.2 118.2H84.3H84.4C84.5 118.2 84.6 118.1 84.6 118C84.6 117.6 84.3 117.4 84 117.2C83.3 116.8 82.6 116.5 81.9 116.1C81.2 115.8 80.4 115.5 79.7 115.2C79.1 114.9 78.6 114.3 78 114C77.9 114 77.7 114 77.8 114.1Z" fill="#1D1D1B"></path><path d="M76.9999 111C76.1999 111.4 75.4999 111.9 74.7999 112.3C74.0999 112.7 73.2999 113.1 72.6999 113.7C71.6999 114.6 70.6999 116.5 71.4999 117.8C71.5999 117.9 71.7999 117.9 71.7999 117.7C71.8999 116.9 71.7999 116.1 72.1999 115.3C72.5999 114.5 73.1999 114 73.9999 113.5C75.0999 112.8 76.5999 112.3 77.1999 111.2C77.2999 111.1 77.1999 110.9 76.9999 111Z" fill="#1D1D1B"></path><path d="M71.5001 107.8C71.7001 107.8 71.9001 107.7 72.1001 107.7C72.3001 107.7 72.5001 107.7 72.6001 107.6C72.7001 107.6 72.7001 107.5 72.6001 107.4C72.2001 107.2 71.7001 107.5 71.4001 107.6C71.3001 107.7 71.4001 107.8 71.5001 107.8Z" fill="#1D1D1B"></path><path d="M72.9001 110C73.3001 110 74.0001 110 74.2001 109.6C74.2001 109.5 74.2001 109.4 74.1001 109.4C73.9001 109.4 73.7001 109.5 73.5001 109.5C73.3001 109.6 73.1001 109.6 72.8001 109.6C72.6001 109.7 72.7001 110 72.9001 110Z" fill="#1D1D1B"></path><path d="M77.5001 108.2C77.8001 108.1 78.2001 108.1 78.4001 107.8C78.4001 107.8 78.4001 107.7 78.3001 107.7C78.0001 107.6 77.7001 107.9 77.4001 108C77.3001 108.1 77.4001 108.2 77.5001 108.2Z" fill="#1D1D1B"></path><path d="M79 104.6C79.1 104.5 79.3 104.4 79.5 104.3V104.2C79.3 104.2 79.1 104.3 79 104.4C78.7 104.5 78.8 104.6 79 104.6Z" fill="#1D1D1B"></path><path d="M75.2 106.8C75.4 106.7 75.7 106.6 75.8 106.4C75.8 106.3 75.8 106.3 75.7 106.3C75.4 106.3 75.2 106.5 75 106.6C74.8 106.7 75 106.9 75.2 106.8Z" fill="#1D1D1B"></path><path d="M83.6 74.8999C81.8 76.5999 80.4 78.6999 79.2 80.7999C77.9 82.9999 76.9 85.2999 76.1 87.6999C75.3 90.1999 75.1 92.5999 75 95.1999C75 97.8999 75.1 100.7 75.6 103.4L76.1 103.3C75.6 100.5 75 97.4999 73.7 94.9999C73.6 94.7999 73.3 94.8999 73.4 95.0999C73.8 96.4999 74.4 97.7999 74.8 99.1999C75.2 100.6 75.5 102 75.7 103.4C75.7 103.7 76.2 103.6 76.2 103.3C75.6 98.2999 75 92.7999 76.6 87.8999C77.4 85.5999 78.4 83.2999 79.6 81.1999C80.8 78.9999 82.2 76.7999 83.8 74.8999C83.8 74.9999 83.7 74.8999 83.6 74.8999Z" fill="#1D1D1B"></path><path d="M65.2 85.1001C66.1 85.8001 67.1 86.3001 67.9 87.0001C68.8 87.8001 69.5 88.6001 70.2 89.5001C70.9 90.4001 71.5 91.4001 72.1 92.4001C72.6 93.3001 73 94.3001 73.7 95.2001H73.8C73.6 94.1001 72.9 93.0001 72.3 92.0001C71.7 90.9001 71.1 89.9001 70.3 89.0001C69 87.4001 67.3 85.8001 65.3 85.1001C65.2 84.9001 65.1 85.0001 65.2 85.1001Z" fill="#1D1D1B"></path><path d="M72.7 93.4C72.7 93.7 72.9 94.1 73 94.4C73.1 94.7 73.2 94.9999 73.4 95.1999C73.4 94.8999 73.3 94.6 73.2 94.3C73.1 94 73 93.7 72.8 93.4C72.8 93.3 72.7 93.3 72.7 93.4Z" fill="#1D1D1B"></path><path d="M75.5 102.9C75.5 103.1 75.4 103.2 75.4 103.4H75.8C75.7 103 75.7 102.7 75.6 102.3C75.6 102.1 75.2 102.2 75.2 102.3C75.2 102.6 75.2 102.9 75.3 103.2C75.4 103.5 75.8 103.4 75.7 103.1C75.6 102.8 75.6 102.5 75.6 102.2C75.6 102 75.2 102 75.2 102.3C75.2 102.5 75.2 102.7 75.3 102.9C75.4 102.9 75.4 102.9 75.5 102.9C75.6 102.6 75.6 102.4 75.6 102.2C75.5 102.2 75.3 102.2 75.2 102.2C75.3 102.5 75.3 102.8 75.3 103.1C75.4 103.1 75.6 103.1 75.7 103C75.6 102.7 75.6 102.5 75.6 102.2C75.5 102.2 75.4 102.3 75.2 102.3C75.3 102.7 75.3 103 75.4 103.4C75.4 103.6 75.8 103.6 75.8 103.4C75.8 103.3 75.8 103.2 75.8 103.2C75.8 103.1 75.7 103.1 75.7 103C75.7 102.9 75.6 102.9 75.5 102.9Z" fill="#1D1D1B"></path><path d="M83.1 75.5C83.9 75 84.5 74.2 85 73.5C85.7 72.6 86.5 72 87.5 71.4C87.6 71.4 87.5 71.3 87.5 71.3C86.6 71.4 85.8 72.1 85.3 72.8C84.5 73.7 83.8 74.6 83.1 75.5Z" fill="#1D1D1B"></path><path d="M83.7 74.7C82.3 75.2 81.6 73.7 82.2 72.6C82.7 71.7 83.7 70.9 84.5 70.4C86.2 69.4 88.5 69.2 90.5 69.1C90.7 69.1 90.7 68.8 90.5 68.8C88.9 68.8 87.3 69 85.7 69.5C84.4 69.9 83.3 70.8 82.4 71.8C81.8 72.5 81.3 73.6 81.9 74.4C82.3 75.1 83.2 75.3 83.7 74.7C83.7 74.7 83.8 74.8 83.7 74.7Z" fill="#1D1D1B"></path><path d="M83.8 75C83.6 75.6 84.2 76.3 84.9 76.5C86 76.7 86.9 75.8 87.6 75.1C88.4 74.2 89 73.1 89.5 72C89.7 71.5 89.9 71 90.2 70.5C90.5 69.8 90.9 69.4 91.5 68.9C91.5 68.9 91.5 68.8 91.4 68.8C90.8 68.8 90.4 69.4 90.2 69.8C89.7 70.6 89.4 71.6 88.9 72.5C88.4 73.4 88 74.4 87.2 75.1C86.8 75.5 86.2 76 85.6 76.1C85.1 76.2 84.4 76 84.2 75.6C84.1 75.3 84 75.1 83.8 75C83.8 75 83.9 74.9 83.8 75Z" fill="#1D1D1B"></path><path d="M90.5 69.2001C90.6 69.2001 90.6 69.2001 90.7 69.2001C90.8 69.2001 90.8 69.2001 90.8 69.1001C90.8 69.1001 90.8 69.1001 90.7 69.1001H90.6C90.6 69.1001 90.6 69.1001 90.5 69.2001C90.5 69.2001 90.5 69.1001 90.5 69.2001Z" fill="#1D1D1B"></path><path d="M90.2 69.0999C90.3 69.2999 90.7 69.1999 90.9 69.1999C91.1 69.1999 91 68.8999 90.9 68.8999C90.8 68.8999 90.7 68.8999 90.6 68.8999C90.5 68.8999 90.4 68.8999 90.3 68.8999C90.2 68.9999 90.2 69.0999 90.2 69.0999Z" fill="#1D1D1B"></path><path d="M90.3 69.1C90.4 69.1 90.5 69.1 90.6 69.1C90.7 69.1 90.8 69.1 90.9 69.1C91 69.1 91.2 69 91.2 68.9C91.2 68.7 90.5 68.9 90.4 69C90.2 69 90.3 69.1 90.3 69.1Z" fill="#1D1D1B"></path><path d="M80.7 78.8C82.1 77.8 83.5 78.2 84.8 79C84.8 79 84.9 79 84.8 78.9C84.2 78.2 83.2 77.8 82.3 77.9C81.7 78 80.8 78.1 80.7 78.8C80.7 78.8 80.6 78.8 80.7 78.8Z" fill="#1D1D1B"></path><path d="M81 78.4C81.4 77.7 81.4 76.9 80.9 76.2C80.5 75.5 79.8 75.3 78.9 75.3C79.7 75.4 80.4 75.6 80.8 76.4C81.1 77.1 81.1 77.8 81 78.4C81 78.5 80.9 78.4 81 78.4Z" fill="#1D1D1B"></path><path d="M78.2 83.1C78.2 82.7 79.8 82.6 80 82.6C80.6 82.6 81.2 82.8 81.5 83.3C81.3 82.6 80.6 82.3 79.9 82.3C79.5 82.4 78.1 82.5 78.2 83.1C78.3 83.1 78.3 83.1 78.2 83.1C78.3 83.1 78.3 83.1 78.2 83.1C78.2 83.1 78.3 83.1 78.2 83.1Z" fill="#1D1D1B"></path><path d="M78.1 83.1001C78.4 82.5001 78 81.7 77.5 81.2C76.9 80.6 76 80.3001 75.1 80.4001C75.1 80.4001 75.1 80.4001 75.1 80.5001C75.8 80.7001 76.5 80.9001 77.1 81.3001C77.8 81.8001 77.9 82.4001 78.1 83.1001Z" fill="#1D1D1B"></path><path d="M82.4 78C82.6 77.2 83.4 77 84.2 77C85.1 77.1 85.7 77.5 86.1 78.3C86.4 78.8 86.5 79.4 86.6 79.9C86.8 80.5 86.7 81.2 86.8 81.8H86.9C87.3 81 87 79.9 86.8 79.1C86.6 78.4 86.3 77.6 85.6 77.1C84.7 76.5 82.4 76.4 82.3 77.9C82.2 78.1 82.4 78.1 82.4 78Z" fill="#1D1D1B"></path><path d="M82.2 78.1001C81.3 78.6001 81.4 80.0001 82.1 80.7001C82.6 81.2001 83.2001 81.4001 83.9001 81.4001C84.8001 81.5001 86.3001 81.2001 86.8001 82.1001C86.8001 82.1001 86.8001 82.1001 86.9001 82.1001C86.9001 81.2001 85.6001 81.2001 85.0001 81.2001C84.2001 81.2001 83.3 81.1001 82.6 80.7001C81.6 80.0001 81.8 79.1001 82.2 78.1001C82.3 78.1001 82.3 78.1001 82.2 78.1001Z" fill="#1D1D1B"></path><path d="M81.1 76.7C82.2 75.3 81.4 73.5 79.8 72.8C78.9 72.5 78 72.5 77.1 72.9C76.7 73.1 76.3 73.3 75.9 73.6C75.6 73.8 75.4 74.1 75.1 74.3C74.8 74.5 74.4 74.6 74 74.8C73.9 74.8 74 74.9 74 74.9C74.7 74.8 75.2 74.5 75.7 74.1C76.4 73.5 77.3 73 78.3 72.9C80.3 72.8 82.1 74.8 80.8 76.6C80.9 76.7 81.1 76.8 81.1 76.7Z" fill="#1D1D1B"></path><path d="M80.8 76.6001C80.6 77.6001 79.6 78.2001 78.6 77.9001C77.7 77.7001 77.1 77.0001 76.6 76.2001C76.1 75.4001 75.3 74.3001 74.2 74.6001V74.7001C75.5 75.0001 75.9 75.9001 76.6 76.8001C77 77.4001 77.6 77.9001 78.3 78.1001C79.4 78.5001 81.1 77.9001 81 76.5001C81 76.6001 80.9 76.6001 80.8 76.6001Z" fill="#1D1D1B"></path><path d="M74.3001 74.6001C74.2001 74.6001 74.2001 74.6001 74.3001 74.6001C74.2001 74.6001 74.2001 74.6001 74.3001 74.6001C74.2001 74.6001 74.2001 74.6001 74.3001 74.6001C74.2001 74.6001 74.2001 74.7001 74.3001 74.6001C74.2001 74.6001 74.1 74.7001 74 74.7001C73.9 74.7001 73.9 74.9001 74 74.9001C74.1 74.9001 74.3001 74.9001 74.4001 74.9001L74.3001 74.8001L74.2 74.9001C74.3 75.0001 74.4001 74.9001 74.4001 74.9001C74.4001 74.8001 74.4001 74.6001 74.3001 74.6001C74.3001 74.7001 74.2 74.7001 74.1 74.7001C74.1 74.8001 74.1 74.8001 74.1 74.9001C74.2 74.9001 74.3001 74.9001 74.3001 74.8001C74.3001 74.7001 74.3001 74.7001 74.3001 74.6001Z" fill="#1D1D1B"></path><path d="M79.9 82.5C80.3 81.6 81.2 81.4 82.2 81.4C83.4 81.4 84.1 82 84.4 83.1C84.6 84 84.5 84.8 84.3 85.7C84.2 86.3 84 86.8 84.2 87.4C84.2 87.5 84.3 87.5 84.3 87.4C84.5 86.8 84.6 86.1 84.7 85.5C84.8 84.9 84.9 84.4 84.8 83.8C84.7 83 84.4 82 83.7 81.5C82.6 80.8 79.9 80.9 79.7 82.5C79.7 82.5 79.9 82.6 79.9 82.5Z" fill="#1D1D1B"></path><path d="M79.8 82.4999C79.1 83.3999 79.2 84.5999 80.2 85.2999C81.5 86.2999 83.9 85.2999 84.4 87.2999C84.4 87.3999 84.5 87.3999 84.6 87.2999C84.9 86.2999 83.9 85.6999 83 85.5999C82.2 85.3999 81.4 85.4999 80.7 85.1999C79.7 84.6999 79.6 83.4999 80.1 82.5999C80.1 82.4999 79.9 82.3999 79.8 82.4999Z" fill="#1D1D1B"></path><path d="M84.1 86.9C84.1 87.1 84 87.3999 84.2 87.5999H84.3C84.4 87.3999 84.3 87.1 84.3 86.9C84.2 86.8 84.1 86.8 84.1 86.9Z" fill="#1D1D1B"></path><path d="M83.4 87.0999C84.3 86.6999 85.1999 86.2999 86.1999 86.0999C87.1999 85.8999 88.1999 85.8999 89.1999 85.8999C89.2999 85.8999 89.2999 85.7999 89.1999 85.7999C87.1999 85.1999 84.8 85.7999 83.4 87.0999C83.3 87.0999 83.3 86.9999 83.4 87.0999Z" fill="#1D1D1B"></path><path d="M86.2 85.6999C86 84.3999 87.5 83.4999 88.7 83.1999C89.8 82.8999 91.1 83.3999 92 83.8999C92.9 84.3999 93.5 85.0999 93.9 86.0999C94.2 86.6999 94.4 87.4999 94.9 87.8999C95 87.9999 95.1 87.8999 95.1 87.7999C94.9 87.1999 94.5 86.5999 94.3 85.9999C94.1 85.4999 93.8 84.9999 93.5 84.5999C92.8 83.7999 91.7 83.1999 90.6 82.9999C89.4 82.6999 88.3 82.8999 87.3 83.4999C86.5 84.0999 85.7 84.6999 86 85.7999C86.1 85.8999 86.3 85.8999 86.2 85.6999Z" fill="#1D1D1B"></path><path d="M86.2 85.8999C85.6 86.0999 85.8001 86.8999 86.0001 87.3999C86.4001 88.1999 87.0001 88.8999 87.9001 89.1999C89.0001 89.4999 90.1001 89.0999 91.0001 88.6999C91.7001 88.3999 92.3 88.0999 93.1 87.9999C93.8 87.8999 94.5 87.9999 95.1 87.9999C95.1 87.9999 95.1 87.9999 95.1 87.8999C94.4 87.5999 93.8001 87.4999 92.9001 87.5999C92.0001 87.7999 91.2001 88.1999 90.4001 88.4999C89.4001 88.8999 88.2001 89.0999 87.3001 88.4999C86.5001 87.8999 86.1 86.8999 86.2 85.8999C86.2 85.8999 86.3 85.8999 86.2 85.8999Z" fill="#1D1D1B"></path><path d="M80.2 90.4V90.3V90.2V90.3C80.2 90.3 80.2 90.3 80.2 90.4C80.2 90.4 80.1 90.4 80.2 90.4Z" fill="#1D1D1B"></path><path d="M80.6 89.8C81.2 89.4 82.8 89.4 83.4 89.8C83.9 90.1 84.2 90.7 84.9 90.9C85 90.9 85 90.8 85 90.8C84.6 90.5 84.3 90.2 83.9 89.8C83.6 89.5 83.3 89.4 82.9 89.4C82.3 89.2 80.9 89.1 80.6 89.8Z" fill="#1D1D1B"></path><path d="M80.5 89.7C80.9 89.3 80.8 88.7 80.6 88.2C80.3 87.7 79.7 87.4 79.1 87.3C79.7 87.4 80.1 87.8 80.3 88.3C80.5 88.8 80.4 89.2 80.5 89.7C80.5 89.8 80.4 89.7 80.5 89.7Z" fill="#1D1D1B"></path><path d="M77.1 93.8C78.1 93.1 79 93.3 80.2 93.5C80.2 93.5 80.3 93.5 80.2 93.4C79.3 92.9 77.8 92.8 77.1 93.8C77.1 93.9 77.1 93.8 77.1 93.8Z" fill="#1D1D1B"></path><path d="M82.3 89.3C82.2 89.2 82.7 88.7999 82.8 88.6999C83 88.5999 83.2 88.4999 83.4 88.4999C83.8 88.3999 84.3 88.4999 84.7 88.5999C85.6 88.8999 86.2 89.4999 86.7 90.1999C87.2 90.8999 87.8 92.1999 88.8 92.0999C88.9 92.0999 89 91.9999 88.9 91.8999C88.6 91.5999 88.2 91.3999 87.9 91.0999C87.6 90.6999 87.3 90.2999 87 89.8999C86.5 89.2999 85.9 88.7 85.1 88.3C84.4 88 83.6 88 83 88.3C82.7 88.4 82.1 88.7999 82.2 89.1999C82.2 89.2999 82.2 89.3 82.3 89.3Z" fill="#1D1D1B"></path><path d="M82.2 89.3C80.7 89.8 80.8 91.7 82 92.5C82.8 93 83.8 93.1 84.7 93C85.3 92.9 85.9 92.8 86.5 92.6C87.2 92.4 88 92.4 88.7 92.1C88.8 92.1 88.8 91.9 88.7 91.9C87.1 92 85.6 92.7 84 92.7C83.2 92.7 82.4 92.5 81.8 92C81 91.2 81.3 90.2 82.2 89.6C82.4 89.5 82.3 89.3 82.2 89.3Z" fill="#1D1D1B"></path><path d="M78.5 93.2C79 92.5 80 92.4 80.7 92.8C81.1 93.1 81.4 93.4 81.6 93.8C81.9 94.2 82.3 94.7 82.9 94.9C82.9 94.9 83 94.9 82.9 94.9C82.1 94.1 81.5 92.8 80.4 92.4C79.9 92.2 78.3 92.3 78.5 93.2Z" fill="#1D1D1B"></path><path d="M78.4 93.3001C77.5 93.6001 78.1 94.7001 78.7 95.1001C79.2 95.4001 79.9 95.4001 80.6 95.4001C81.4 95.3001 82.4 95.3001 83.1 95.0001V94.9001C82.4 94.7001 81.6 94.9001 80.9 95.0001C80.4 95.0001 80 95.0001 79.5 95.0001C78.7 94.8001 78 94.1001 78.4 93.3001C78.5 93.2001 78.5 93.3001 78.4 93.3001Z" fill="#1D1D1B"></path><path d="M80.6 88.5999C81.4 87.7999 80.9 86.4999 80 86.0999C78.8 85.4999 77.5 86.2999 76.6 86.9999C76.5 87.0999 76.6 87.1999 76.7 87.0999C77.5 86.9999 78.1 86.1999 79 86.0999C80.4 85.9999 81.1 87.1999 80.6 88.2999C80.4 88.5999 80.6 88.6999 80.6 88.5999Z" fill="#1D1D1B"></path><path d="M80.4 88.3999C80 89.0999 78.8 88.8999 78.3 88.5999C78 88.3999 77.8999 87.8999 77.5999 87.5999C77.2999 87.1999 76.9 86.9999 76.4 87.0999C76.3 87.0999 76.3 87.1999 76.4 87.1999C76.8 87.3999 77.1 87.5999 77.4 87.9999C77.6 88.1999 77.7 88.4999 77.8 88.6999C78 88.9999 78.2999 89.1999 78.6999 89.1999C79.2999 89.2999 80.3 89.1999 80.4 88.3999C80.5 88.2999 80.4 88.2999 80.4 88.3999Z" fill="#1D1D1B"></path><path d="M77.9 82C78.5 81 78.1999 79.5 76.9999 78.9C76.2999 78.6 75.3999 78.5 74.5999 78.5C74.1999 78.5 73.7 78.7 73.3 78.7C72.8 78.7 72.4 78.5 71.9 78.5C71.8 78.5 71.8 78.6 71.9 78.6C72.7 79.4 74 78.9 74.9 78.9C75.6 78.9 76.5999 79 77.1999 79.5C78.0999 80.1 78 81 77.9 82C77.9 82 77.8 82 77.9 82Z" fill="#1D1D1B"></path><path d="M77.6 81.7C77.4 82.5 76.7 83.1 75.7 82.9C74.8 82.7 74.3 81.9 74 81.1C73.6 80.1 73.2 79.1 72.3 78.3H72.2C72.8 79.2 73.2 80.2 73.6 81.2C73.9 81.9 74.3 82.6 75.1 82.9C76.2 83.4 77.9 82.8 77.7 81.5C77.8 81.6 77.7 81.6 77.6 81.7Z" fill="#1D1D1B"></path><path d="M65.7 85.2C64.5 84.1 62.9 83.3 61.3 82.7C62.7 83.6 64.1 84.6 65.7 85.2C65.7 85.3 65.7 85.3 65.7 85.2Z" fill="#1D1D1B"></path><path d="M67.8 86.4C67.9 85.8 67.8 85.2 67.8 84.7C67.7 84 67.9 83.5 68.2 82.9C68.2 82.9 68.2 82.8 68.1 82.8C66.9 83.5 67.6 85.4 67.5 86.4C67.5 86.5 67.7 86.5 67.8 86.4Z" fill="#1D1D1B"></path><path d="M67.5 86.6001C66.9 86.6001 66.6 87.0001 66.2 87.3001C65.5 87.8001 64.6 87.8001 63.8 88.0001C63.7 88.0001 63.7 88.1001 63.8 88.2001C64.5 88.3001 65.2 88.2001 65.8 87.9001C66.4 87.6001 66.9 87.0001 67.5 86.6001C67.5 86.6001 67.5 86.7001 67.5 86.6001Z" fill="#1D1D1B"></path><path d="M67.3 86.8C67.4 86.8 67.5 86.7 67.6 86.7H67.7C67.7 86.7 67.8 86.7 67.8 86.6C67.8 86.6 67.7 86.6 67.7 86.5H67.6C67.5 86.5 67.4 86.5 67.3 86.6C67.1 86.7 67.2 86.9 67.3 86.8Z" fill="#1D1D1B"></path><path d="M71 90.1001C71.3 89.6001 71.3 88.9001 71.4 88.3001C71.4 87.4001 71.4 86.7001 71.6 85.8001C71.6 85.7001 71.5 85.7001 71.5 85.8001C71.1 86.3001 71.1 86.9001 71.1 87.6001C71.1 88.5001 71.1 89.2001 70.9 90.1001C70.9 90.1001 71 90.2001 71 90.1001Z" fill="#1D1D1B"></path><path d="M70.8 89.8C69.7 90.2 67.6 89.4 67.4 91C67.4 91.1 67.5 91.1 67.5 91C68 90.2 68.7 90.2 69.6 90.2C70.1 90.2 70.4 90.1 70.8 89.9C70.9 89.9 70.9 89.8 70.8 89.8Z" fill="#1D1D1B"></path><path d="M72.6 93.2999C72.6 92.6999 72.5 92.1999 72.6 91.5999C72.7 91.1999 73 90.8999 73.1 90.4999C73.1 90.4999 73.1 90.3999 73 90.3999C72.1 90.7999 72.3 92.6999 72.6 93.2999C72.6 93.3999 72.6 93.3999 72.6 93.2999Z" fill="#1D1D1B"></path><path d="M72.6 92.7999V92.6999C72.6 92.6999 72.6 92.5999 72.5 92.5999C71.6 92.4999 70.7 93.1999 70.4 93.9999C70.6 93.6999 71 93.3999 71.3 93.1999C71.4 93.0999 72.2 92.6999 72.4 92.8999C72.5 92.8999 72.6 92.7999 72.6 92.7999Z" fill="#1D1D1B"></path><path d="M71.5 93C71.3 94 71.8 95.3 70.3 95.6C69.4 95.8 68.4 95.8 67.5 96C67.3 96.1 67.4 96.4001 67.6 96.4001C68.4 96.3001 69.2 96.2 70 96.1C70.4 96 70.9 96 71.2 95.7C71.9 95 72.1 93.7 71.5 93C71.5 92.9 71.5 92.9 71.5 93Z" fill="#1D1D1B"></path><path d="M71.5 93.1C71.4 92.1 70.2 92.3 69.6 92.7C69.2 93 68.9 93.5 68.6 94C68.4 94.3 68.3 94.7 68.2 95C68 95.4 67.6 95.7 67.3 96.1C67.3 96.1 67.3 96.2 67.4 96.2C68.1 96 68.4 95.2 68.7 94.7C69.1 93.9 70.3 91.6 71.4 93.2C71.4 93.2 71.5 93.2 71.5 93.1Z" fill="#1D1D1B"></path><path d="M72.4 91.1C71.7 90.9 71.7 90.2 72 89.7C72.3 89.3 72.7 89.1 73.1 88.9C73.6 88.6 74.1 88.2 74.5 87.7C74.6 87.6 74.4 87.5 74.3 87.6C73.7 88.1 73.2 88.5 72.5 89C72.1 89.3 71.7 89.6 71.6 90C71.4 90.5 71.6 91.3 72.2 91.3C72.2 91.3 72.3 91.3 72.3 91.2C72.5 91.2 72.5 91.1 72.4 91.1C72.5 91.1 72.5 91.1 72.4 91.1Z" fill="#1D1D1B"></path><path d="M72.5 91.2C72.6 92.1 73.6 92.3 74.1 91.6C74.4 91.1 74.5 90.3 74.5 89.7C74.5 89.3 74.5 88.9 74.6 88.6C74.6 88.1 74.8 87.7 75 87.3C75 87.2 75 87.2 74.9 87.2C74.4 87.4 74.3 88 74.3 88.5C74.2 89 74.2 89.5 74.1 90C74.1 90.3 74.1 90.6 73.9 90.9C73.9 91 73.9 91.1 73.8 91.1C73.2 91.6 72.8 91.6 72.5 91.2C72.6 91.1 72.5 91.1 72.5 91.2Z" fill="#1D1D1B"></path><path d="M72.6 91.2001C72.6 91.1001 72.6 91.1001 72.6 91.2001C72.6 91.1001 72.6 91.2001 72.6 91.2001C72.6 91.1001 72.5 91.1001 72.4 91.1001C72.3 91.1001 72.2 91.1001 72.1 91.1001C72 91.1001 72 91.2001 72.1 91.3001C72.2 91.4001 72.3 91.4001 72.4 91.4001C72.5 91.3001 72.6 91.3001 72.6 91.2001Z" fill="#1D1D1B"></path><path d="M71.3 88.4999C72.6 89.0999 73.4 87.6999 73.5 86.6999C73.6 85.7999 73.4 84.9999 73.1 84.1999C72.8 83.2999 72.4 82.3 72.1 81.4C72.1 81.3 72 81.3 72 81.4C72 82.5 72.7 83.5999 73.1 84.5999C73.5 85.6999 73.6 88.8 71.5 88.3C71.3 88.3 71.2 88.4999 71.3 88.4999Z" fill="#1D1D1B"></path><path d="M71.2 88.3001C69 87.9001 69.5 85.7001 70.4 84.3001C71 83.4001 72.1 82.4001 72.1 81.3001C72.1 81.2001 72 81.2001 71.9 81.3001C71.7 81.7001 71.5 82.2001 71.3 82.6001C71 83.0001 70.7 83.4001 70.4 83.8001C69.9 84.5001 69.3 85.3001 69.2 86.2001C69.1 87.3001 69.8 88.8001 71.1 88.5001C71.3 88.4001 71.3 88.3001 71.2 88.3001Z" fill="#1D1D1B"></path><path d="M69.9 90.2999C70.4 92.4999 67.9 93.1999 66.2 93.2999C65.6 93.2999 64.2 93.4999 64.6 94.3999H64.7C64.8 93.9999 65.3 93.7999 65.7 93.6999C65.9 93.6999 66.1 93.6999 66.3 93.6999C66.6 93.6999 66.9 93.6999 67.1 93.5999C67.8 93.4999 68.5 93.2999 69.1 92.8999C70 92.2999 70.6 91.2999 70.2 90.1999C70.1 89.9999 69.8 89.9999 69.9 90.2999Z" fill="#1D1D1B"></path><path d="M69.8 90.2C69.9 88.1 67.2 88.2 66 89.2C65.2 90 64.9 91 64.6 92.1C64.4 92.9 63.9 94.1 64.5 94.8C64.6 94.9 64.7 94.8 64.7 94.7C64.6 93.9 64.8 93.1 65 92.3C65.2 91.6 65.3 90.9 65.7 90.3C66.1 89.7 66.6 89.1 67.4 88.9C68.4 88.6 69.3 89.2 69.5 90.2C69.6 90.4 69.8 90.3 69.8 90.2Z" fill="#1D1D1B"></path><path d="M67.7 85.4001C67.7 85.3001 67.7 85.3001 67.7 85.4001C67.7 85.3001 67.7 85.3001 67.7 85.4001C67.6 85.3001 67.6 85.3001 67.6 85.4001C67.6 85.4001 67.6 85.5 67.7 85.5C68.6 86 69.8 85 70.1 84.2C70.3 83.6 70.3 82.8 70.1 82.2C70 81.7 69.7 81.2 69.6 80.7C69.5 80.1 69.7 79.6 69.7 79C69.7 78.9 69.6 78.9 69.6 79C68.9 80 69.3 81.1 69.6 82.2C69.8 82.9 69.9 83.8 69.5 84.5C69.3 84.8 69.1 85 68.8 85.2C68.5 85.3 67.7 85.4001 67.7 85.4001Z" fill="#1D1D1B"></path><path d="M67.5 85.2C66.5 85 65.6 84.7 65.6 83.5C65.6 82.5 66.3 81.7 67 81.1C67.5 80.6 68.1 80.2 68.7 79.8C69.1 79.6 69.6 79.3 69.7 78.8C69.7 78.7 69.6 78.7 69.6 78.7C68.8 79.3 67.9 79.7 67.2 80.3C66.5 80.9 65.8 81.6 65.4 82.4C65.1 83.1 65.1 83.8 65.5 84.5C65.9 85 66.7 85.5 67.4 85.2C67.6 85.4 67.6 85.3 67.5 85.2Z" fill="#1D1D1B"></path><path d="M66.7 87.2C67.1 88 66.2 89 65.5 89.3C64.7 89.7 63.6 89.9 62.8 89.6C61.7 89.2 61.1 87.9 59.8 87.7C59.7 87.7 59.6 87.8 59.7 87.8C60.4 88.4 61.1 89 61.8 89.5C62.6 90.1 63.5 90.1 64.4 89.9C65.9 89.6 67.5 88.6 66.8 87C66.9 87 66.7 87.1 66.7 87.2Z" fill="#1D1D1B"></path><path d="M66.7 87.1C66.4 86.1 65 85.6001 63.9 85.8001C63.2 85.9001 62.7 86.3 62.2 86.7C61.2 87.4 60.5 87.9 59.2 87.7C59.1 87.7 59.1 87.8001 59.1 87.8001C60 88.5001 61.3 87.8 62 87.2C62.7 86.7 63.4 86.1 64.2 86.1C65.2 86.1 65.8 86.6 66.4 87.2C66.6 87.2 66.7 87.1 66.7 87.1Z" fill="#1D1D1B"></path><path d="M64.5 84.4999C65.3 83.9999 65.4999 82.8999 65.0999 82.0999C64.5999 80.9999 63.5 80.2999 62.4 79.8999C61.1 79.3999 59.7 79.1999 58.4 79.3999C57.2 79.4999 55.6 79.8999 54.7 80.6999C54.7 80.6999 54.6999 80.7999 54.7999 80.7999C55.7999 80.4999 56.7 79.9999 57.7 79.7999C58.8 79.5999 59.8999 79.4999 61.0999 79.7999C63.0999 80.1999 66.5 82.1999 64.5 84.3999C64.3 84.4999 64.4 84.5999 64.5 84.4999Z" fill="#1D1D1B"></path><path d="M64.0999 84.4001C63.4999 85.7001 61.5999 86.0001 60.2999 85.6001C59.1999 85.3001 58.2 84.6001 57.5 83.7001C56.7 83.0001 56.3 82.0001 55.7 81.0001C55.4 80.6001 55.1 80.4001 54.7 80.7001V80.8001C55.4 80.6001 55.8999 82.1001 56.0999 82.5001C56.3999 83.0001 56.6999 83.5001 57.0999 83.9001C57.7999 84.7001 58.5999 85.4001 59.5999 85.8001C61.0999 86.4001 63.9 86.4001 64.3 84.5001C64.4 84.4001 64.0999 84.3001 64.0999 84.4001Z" fill="#1D1D1B"></path><path d="M87.2 85.8001C88 86.0001 88.7 86.0001 89.5 86.0001C90.3 86.1001 91.2 86.3001 92 86.3001C92.1 86.3001 92.1 86.2001 92 86.1001C91.3 85.8001 90.4 85.8001 89.6 85.7001C88.9 85.6001 88 85.5001 87.2 85.8001C87.2 85.8001 87.2 85.7001 87.2 85.8001Z" fill="black"></path><path d="M86.8 85.8001C87.4 85.6001 87.7 85.1001 88.2 84.9001C88.8 84.6001 89.5 84.6001 90.2 84.5001C90.3 84.5001 90.3 84.4001 90.2 84.4001C88.8 84.3001 87.8 84.7001 86.8 85.8001Z" fill="black"></path><path d="M88.3001 85.7999C89.4001 84.9999 90.5001 84.8999 91.9001 84.8999C92.0001 84.8999 92.0001 84.7999 91.9001 84.7999C90.6001 84.2999 89.2001 84.7999 88.3001 85.7999C88.3001 85.7999 88.2001 85.6999 88.3001 85.7999Z" fill="black"></path><path d="M90.2 85.8999C90.8 85.5999 91.4 85.4999 92 85.3999C92.1 85.3999 92.1 85.2999 92 85.2999C91.3 85.1999 90.7 85.3999 90.1 85.6999C89.9 85.6999 90 85.8999 90.2 85.8999Z" fill="black"></path><path d="M91 86.0999C91.8 85.9999 92.6 85.9999 93.3 86.1999C93.4 86.1999 93.4 86.0999 93.3 86.0999C92.5 85.7999 91.7 85.7999 90.9 85.8999C90.7 85.7999 90.8 86.0999 91 86.0999Z" fill="black"></path><path d="M90.8 86C91.2 86.5 91.8 87 92.5 87C92.6 87 92.6 86.9001 92.5 86.9001C91.9 86.6001 91.4 86.4 90.8 86C90.8 85.9 90.8 85.9 90.8 86Z" fill="black"></path><path d="M90 86.0999C90.4 86.6999 91 87.0999 91.7 87.3999C91.8 87.3999 91.8 87.2999 91.8 87.2999C91.2 86.9999 90.7 86.5999 90.3 85.9999C90.1 85.8999 89.9 85.9999 90 86.0999Z" fill="black"></path><path d="M89.1 86.2C89.5 86.7 89.9 87.1 90.5 87.4C90.6 87.4 90.7 87.3 90.6 87.3C90.1 86.9 89.7 86.5 89.3 86.1C89.2 85.9 89 86.1 89.1 86.2Z" fill="black"></path><path d="M88.2 86C88.7 86.5 89.1 86.9 89.7 87.3C89.8 87.3 89.9 87.3 89.8 87.2C89.3 86.7 88.8 86.3 88.4 85.8C88.2 85.7 88.1 85.9 88.2 86Z" fill="black"></path><path d="M87.4 85.9999C87.6 86.6999 88 87.1999 88.6 87.5999C88.7 87.5999 88.7 87.4999 88.7 87.4999C88.2 86.9999 87.9 86.4999 87.6 85.8999C87.6 85.7999 87.3 85.7999 87.4 85.9999Z" fill="black"></path><path d="M86.4 85.9C86.7 86.4 87 86.8 87.3 87.2C87.3 87.3 87.4 87.2 87.4 87.1C87.1 86.7 86.8 86.2 86.5 85.7C86.5 85.7 86.4 85.8 86.4 85.9Z" fill="black"></path><path d="M83.4 88.8999C83.8 88.7999 84.0999 88.6999 84.4999 88.4999V88.3999C84.0999 88.5999 83.7 88.6999 83.4 88.8999C83.3 88.8999 83.3 88.7999 83.4 88.8999Z" fill="black"></path><path d="M83.3 89.6C83.9 89.4 84.5 89.2 85.1 89.1C85.2 89.1 85.2 89 85.1 89C84.4 89 83.8 89.2 83.2 89.5C83.1 89.5 83.2 89.7 83.3 89.6Z" fill="black"></path><path d="M84.1999 90.0999C84.7999 89.9999 85.4999 89.8999 86.0999 89.7999C86.1999 89.7999 86.0999 89.6999 86.0999 89.6999C85.4999 89.5999 84.7999 89.6999 84.1999 89.8999C83.9999 89.9999 84.0999 90.1999 84.1999 90.0999Z" fill="black"></path><path d="M84.6 90.5999C85.2 90.7999 85.9 90.9999 86.6 90.7999C86.7 90.7999 86.7 90.6999 86.6 90.6999C85.9 90.5999 85.3 90.5999 84.6 90.4999C84.5 90.3999 84.5 90.5999 84.6 90.5999Z" fill="black"></path><path d="M85.2 91.1C85.7 91.3 86.3 91.6 86.9 91.5C87 91.5 87 91.4 86.9 91.4C86.4 91.2 85.8 91.2 85.3 90.9C85.2 90.8 85 91.1 85.2 91.1Z" fill="black"></path><path d="M83.8 90.4001C84.1 91.1001 84.4 91.7001 84.9 92.2001C85 92.3001 85.1 92.2001 85 92.1001C84.7 91.5001 84.3 90.9001 84 90.3001C84.1 90.2001 83.8 90.2001 83.8 90.4001Z" fill="black"></path><path d="M83.1 90.1C83 90.7 83.1 91.2 83.5 91.7C83.6 91.8 83.7 91.7 83.6 91.6C83.3 91.2 83.2 90.7 83.3 90.2C83.3 90.1 83.1 90 83.1 90.1Z" fill="black"></path><path d="M82.6 90.2C82.6 90.4 82.7 90.7 82.8 90.9H82.9C82.7 90.6 82.7 90.4 82.6 90.2C82.6 90.1 82.6 90.1 82.6 90.2Z" fill="black"></path><path d="M81.9 89.9999C82 90.4999 82.1 91.0999 82.4 91.4999C82.5 91.5999 82.7 91.4999 82.6 91.3999C82.4 90.8999 82.3 90.3999 82.2 89.8999C82.2 89.7999 81.9 89.7999 81.9 89.9999Z" fill="black"></path><path d="M78.9 93.1C79.3 93.1 79.8 93 80.3 92.9C80.4 92.9 80.3 92.8 80.3 92.8C79.9 92.8 79.4 92.9 79 93C78.8 93 78.8 93.1 78.9 93.1Z" fill="black"></path><path d="M79.8 93.3999C80.3 93.2999 80.8 93.2999 81.2 93.3999C81.3 93.3999 81.3 93.2999 81.2 93.2999C80.7 92.9999 80.2 92.9999 79.7 93.1999C79.6 93.2999 79.6 93.4999 79.8 93.3999Z" fill="black"></path><path d="M80.4 94C80.8 94.2 81.4 94.4 81.8 94.4C81.9 94.4 81.9 94.3 81.8 94.3C81.4 94.1 80.8 94 80.4 93.8C80.3 93.7 80.3 93.9 80.4 94Z" fill="black"></path><path d="M80 93.6C80.3 94.1 80.7 94.5 81.2 94.8C81.3 94.9 81.4 94.7 81.3 94.7C80.9 94.3 80.5 94 80.1 93.5C80.1 93.5 80 93.5 80 93.6Z" fill="black"></path><path d="M79.3 93.5C79.5 93.9 79.7 94.4 80.1 94.7C80.2 94.7 80.2 94.7 80.2 94.6C80 94.3 79.7 93.9 79.3 93.5C79.3 93.5 79.4 93.4 79.3 93.5Z" fill="black"></path><path d="M78.8 93.9001C79 94.1001 79.1 94.3001 79.3 94.4001C79.4 94.5001 79.5 94.4001 79.4 94.3001C79.3 94.1001 79.1 93.9001 79 93.7001C78.9 93.6001 78.7 93.8001 78.8 93.9001Z" fill="black"></path><path d="M78.5 93.8001C78.7 94.2001 78.9 94.5001 79.2 94.7001C79.3 94.8001 79.4 94.7001 79.3 94.6001C79 94.3001 78.8 94.0001 78.7 93.7001C78.7 93.6001 78.5 93.7001 78.5 93.8001Z" fill="black"></path><path d="M78.6 87.1C78.5 87 78.4 87.1 78.3 87.2C78.2 87.3 78.3 87.4 78.4 87.4C79.3 87.5 79.9 88.1 80.6 88.5C80.6 88.5 80.7 88.5 80.7 88.4C80.5 87.8 80.1 87.1 79.4 86.8C79.3 86.8 79.3 86.9 79.3 86.9C79.9 87.3 80.2 87.9 80.5 88.4C80.5 88.4 80.6 88.4 80.6 88.3C80 87.7 79.2 87.1 78.3 87C78.3 87.1 78.4 87.1 78.4 87.2C78.6 87.3 78.6 87.2 78.6 87.1C78.7 87.1 78.7 87.2 78.6 87.1Z" fill="black"></path><path d="M80.0001 88C79.7001 87.4 79.1001 86.6 78.3001 86.5C78.3001 86.5 78.2001 86.5 78.3001 86.6C78.6001 86.8 78.9001 87 79.2001 87.2C79.5001 87.4 79.7001 87.7 79.9001 88.1C79.9001 88.1 80.0001 88.1 80.0001 88Z" fill="black"></path><path d="M79.1 87.3999C78.7 86.9999 78 86.5999 77.4 86.8999C77.3 86.8999 77.4 86.9999 77.4 86.9999C77.7 87.0999 77.9 86.9999 78.2 87.0999C78.5 87.1999 78.8 87.2999 79.1 87.3999C79.1 87.3999 79.1 87.4999 79.1 87.3999Z" fill="black"></path><path d="M78.4 87.3999C78.1 87.1999 77.7 87.1999 77.5 87.4999C77.5 87.4999 77.5 87.5999 77.6 87.5999C77.8 87.4999 78.1 87.3999 78.3 87.5999C78.4 87.5999 78.5 87.4999 78.4 87.3999Z" fill="black"></path><path d="M79 87.4999C78.8 87.5999 78.6 87.6999 78.4 87.7999C78.2 87.7999 78 87.7999 77.9 87.8999V87.9999C78.3 88.1999 78.9 87.8999 79.2 87.6999C79.2 87.5999 79.1 87.3999 79 87.4999Z" fill="black"></path><path d="M79.9 87.6001C79.6 87.7001 79.3 87.8001 79 87.8001C78.8 87.9001 78.6 87.9001 78.5 88.1001V88.2001C78.7 88.3001 79 88.2001 79.2 88.1001C79.5 88.0001 79.7 87.9001 80 87.8001C80.1 87.8001 80 87.6001 79.9 87.6001Z" fill="black"></path><path d="M80.1 88.2001C79.7 88.4001 79.3 88.4001 79 88.5001C78.9 88.5001 78.9 88.7001 79 88.7001C79.4 88.8001 79.9001 88.7001 80.3001 88.4001C80.4001 88.3001 80.3 88.1001 80.1 88.2001Z" fill="black"></path><path d="M79.9 82.9001C80 82.9001 80.1 82.8001 80.1 82.7001C80.1 82.6001 80 82.6001 79.9 82.6001H79.8H79.7L79.8 82.7001C79.9 82.7001 79.9 82.8001 80 82.8001C79.8 82.7001 79.8 82.9001 79.9 82.9001Z" fill="black"></path><path d="M79.4 82.6999C80.3 82.4999 81.2 82.7999 81.9 83.3999C82.4 83.7999 82.7 84.3999 83.1 84.7999C83.1 84.7999 83.2 84.7999 83.2 84.6999C82.8 83.1999 81 81.8999 79.3 82.3999C79.2 82.4999 79.3 82.6999 79.4 82.6999Z" fill="black"></path><path d="M80 82.3999L80.1 82.4999C80.1 82.4999 80.1 82.4999 80.2 82.4999C81 81.9999 81.8 82.0999 82.7 82.0999C82.8 82.0999 82.8 81.9999 82.7 81.9999C82.2 81.8999 81.7 81.8999 81.2 81.8999C81 81.8999 80.8 81.9999 80.6 82.0999C80.5 82.0999 80.1 82.3999 80 82.3999C80 82.2999 80 82.2999 80 82.3999Z" fill="black"></path><path d="M81 82.7001C81.8 82.5001 82.7 82.5001 83.5 82.7001C83.6 82.7001 83.6 82.6001 83.5 82.6001C82.7 82.3001 81.8 82.3001 81 82.7001C81 82.7001 80.9 82.6001 81 82.7001Z" fill="black"></path><path d="M81.6 83.2999C82.6 83.2999 83.5 83.6999 84.1 84.3999C84.2 84.4999 84.3 84.3999 84.2 84.2999C83.7 83.3999 82.6 82.9999 81.6 83.1999V83.2999Z" fill="black"></path><path d="M82.4 83.8001C83.2 84.1001 83.7 84.6001 84.1 85.3001C84.1 85.4001 84.3 85.3001 84.2 85.2001C84 84.4001 83.2 83.8001 82.3 83.6001C82.3 83.7001 82.3 83.8001 82.4 83.8001Z" fill="black"></path><path d="M82.9 84.5C83.2 84.8 83.5 85.1 83.7 85.4C83.7 85.4 83.8 85.4 83.7 85.4C83.6 85 83.3 84.7 82.9 84.5C82.9 84.5 83 84.4 82.9 84.5Z" fill="black"></path><path d="M82.1 83.7C82.3 84.3 82.5 84.9 82.9 85.5C82.9 85.6 83 85.5 83 85.5C82.7 84.9 82.5 84.3 82.3 83.7C82.2 83.6 82 83.6 82.1 83.7Z" fill="black"></path><path d="M81.5 83.0999C81.4 83.8999 81.6 84.5999 82 85.2999C82.1 85.3999 82.2 85.2999 82.1 85.1999C81.7 84.4999 81.5 83.7999 81.6 83.0999C81.6 82.9999 81.5 82.9999 81.5 83.0999Z" fill="black"></path><path d="M80.6 82.7C80.5 83.4 80.6 84.1 80.8 84.8C80.8 84.9 80.9 84.8 80.9 84.8C80.8 84.1 80.7 83.4 80.7 82.7C80.7 82.6 80.6 82.6 80.6 82.7Z" fill="black"></path><path d="M79.9 82.6001C79.7 83.4001 79.7 84.2001 80.2 84.9001C80.3 85.0001 80.4 84.9001 80.3 84.8001C80 84.1001 79.9 83.3001 80 82.6001C80.1 82.6001 80 82.5001 79.9 82.6001Z" fill="black"></path><path d="M82.2 78.2C83.9 78.5 84.9 79.4 85.9 80.7C85.9 80.8 86 80.7 86 80.6C85.6 79.1 83.8 78.2 82.2 78.2Z" fill="black"></path><path d="M82.6 78C83 77.9 83.4 77.7 83.9 77.6C84.4 77.6 84.9 77.7 85.3 77.9C85.4 77.9 85.5 77.8 85.4 77.8C84.6 77.3 83.1 77.1 82.6 78C82.5 78.1 82.5 78 82.6 78Z" fill="black"></path><path d="M83.4 78.4999C84.3 78.3999 85.1 78.5999 85.9 78.9999C86 78.9999 86 78.8999 86 78.8999C85.2 78.3999 84.3 78.1999 83.4 78.3999C83.3 78.3999 83.4 78.4999 83.4 78.4999Z" fill="black"></path><path d="M84.1 79C85 79.1 85.5 79.6 86.2 80C86.3 80.1 86.4 80 86.3 79.9C85.9 79.1 84.9 78.8 84.1 78.8C84.1 78.9 84 79 84.1 79Z" fill="black"></path><path d="M84.9 79.6001C85 79.8001 85 80.0001 85.1 80.2001C85.1 80.0001 85 79.8001 84.9 79.6001Z" fill="black"></path><path d="M83.8 79.3001C84.1 79.9001 84.4 80.5001 84.9 81.0001C85 81.1001 85 81.0001 85 80.9001C84.6 80.4001 84.3 79.8001 84 79.2001C84 79.1001 83.8 79.2001 83.8 79.3001Z" fill="black"></path><path d="M83.2 78.3C83.3 79.2 83.7 80.1 84.4 80.8C84.4 80.8 84.5 80.8 84.5 80.7C84 80 83.5 79.2 83.2 78.3C83.2 78.3 83.3 78.3 83.2 78.3Z" fill="black"></path><path d="M82.3 78.3001C82.3 79.2001 82.5 80.0001 83 80.7001C83 80.7001 83.1 80.7001 83 80.7001C82.5 80.0001 82.3 79.2001 82.4 78.3001C82.5 78.2001 82.3 78.2001 82.3 78.3001Z" fill="black"></path><path d="M83.9 74.9C83.9 74.8 83.8 74.7 83.8 74.7C83.7 74.6 83.7 74.5 83.6 74.5C83.5 74.3 83.4 74.2 83.3 74C83.3 73.9 83.2 74 83.2 74C83.2 74.2 83.3 74.4 83.4 74.6C83.5 74.7 83.5 74.8 83.6 74.8C83.6 74.8 83.7 74.9 83.9 74.9C83.9 74.9 83.8 74.9 83.9 74.9Z" fill="black"></path><path d="M84.1 74.4C84.1 73.6 84 72.8 84.1 71.9C84.1 71.8 84 71.8 84 71.9C83.8 72.7 83.7 73.6 84 74.4C84 74.5 84.1 74.5 84.1 74.4Z" fill="black"></path><path d="M84.5999 73.8C84.2999 72.7 84.7 71.9 85.3 70.9C85.3 70.9 85.2999 70.8 85.1999 70.8C84.1999 71.4 84 72.8 84.3 73.8C84.4 74 84.5999 73.9 84.5999 73.8Z" fill="black"></path><path d="M85.4 72.9001C85.5 72.4001 85.7 71.9001 86 71.4001C86.3 71.0001 86.7 70.6001 86.9 70.2001C86.9 70.1001 86.9 70.1001 86.8 70.1001C85.9 70.6001 85.4 71.9001 85.1 72.8001C85.1 73.0001 85.3 73.1001 85.4 72.9001Z" fill="black"></path><path d="M85.9 72.3C86.2 71.8 86.5 71.3 86.9 70.8C87.3 70.3 87.7 70 88.2 69.6C88.3 69.6 88.2 69.5 88.1 69.5C86.9 69.9 86.3 71.3 85.9 72.3C85.9 72.3 85.8 72.3 85.9 72.3Z" fill="black"></path><path d="M86.4 71.7C87.2 71.6 87.8 71.4 88.4 70.9C88.5 70.8 88.4 70.8 88.3 70.8C87.7 71.1 87.1 71.4 86.4 71.5C86.3 71.5 86.3 71.7 86.4 71.7Z" fill="black"></path><path d="M85.9 73C86.7 72.8 87.6 72.6 88.3 72.2C88.4 72.2 88.3 72 88.2 72.1C87.4 72.4 86.6 72.7 85.8 72.9C85.7 72.9 85.8 73 85.9 73Z" fill="black"></path><path d="M84.7 73.5999C85.6 73.6999 86.5 73.4999 87.3 73.0999C87.4 73.0999 87.3 72.8999 87.2 72.8999C86.4 73.1999 85.5 73.3999 84.6 73.3999C84.6 73.3999 84.6 73.5999 84.7 73.5999Z" fill="black"></path><path d="M84.6 74.5999C85.5 74.6999 86.3999 74.5999 87.1999 74.0999C87.2999 73.9999 87.2 73.8999 87.1 73.8999C86.3 74.1999 85.5 74.3999 84.6 74.2999C84.4 74.2999 84.4 74.4999 84.6 74.5999Z" fill="black"></path><path d="M84.1 74.8001C84.8 75.6001 86.1 75.8001 86.9 75.0001C87 74.9001 86.9 74.8001 86.8 74.8001C86 75.3001 85 75.2001 84.3 74.6001C84.2 74.6001 84 74.7001 84.1 74.8001Z" fill="black"></path><path d="M83.4 74.4C82.7 74.2 82.8 72.8 83.1 72.4C83.1 72.3 83.1 72.3 83 72.3C82.7 72.7 82.7 73.1 82.8 73.6C82.8 74 82.9 74.4 83.4 74.4C83.4 74.4 83.4 74.5 83.4 74.4Z" fill="black"></path><path d="M80.9 76.3001C81.3 75.3001 81.1 74.4001 80.4 73.6001C80.4 73.6001 80.3 73.6001 80.3 73.7001C80.8 74.4001 81 75.4001 80.9 76.3001C80.9 76.3001 80.8 76.3001 80.9 76.3001Z" fill="black"></path><path d="M80.4 75.7C80.4 74.8 80.1 74.1 79.5 73.5C79.4 73.5 79.4 73.5 79.4 73.6C79.9 74.2 80.2 75 80.3 75.7C80.3 75.8 80.4 75.8 80.4 75.7Z" fill="black"></path><path d="M79.6 75.1C79.3 74.4 78.7 73.8 78 73.5C78 73.5 77.9 73.5 78 73.6C78.7 74 79.2 74.6 79.5 75.2C79.6 75.3 79.7 75.2 79.6 75.1Z" fill="black"></path><path d="M78.9 74.9001C78.2 74.4001 77.5 74.1001 76.7 74.1001V74.2001C77.4 74.3001 78.1 74.5001 78.9 74.9001C78.9 74.9001 78.9 75.0001 78.9 74.9001Z" fill="black"></path><path d="M80.9 76.2C79.6 75.1 77.9 74.8 76.2 74.8C76.1 74.8 76.1 74.9 76.2 74.9C77.8 75.2 79.5 75.3 80.7 76.4C80.9 76.5 81.1 76.3 80.9 76.2Z" fill="black"></path><path d="M80.7 76.5C80.3 76.7 79.9001 76.9 79.4001 77.1C78.9001 77.2 78.5 77.2 78 77.3C77.9 77.3 77.9 77.4 78 77.4C78.9 77.7 80.3 77.2 80.7 76.5C80.7 76.4 80.8 76.5 80.7 76.5Z" fill="black"></path><path d="M80.4 75.6C79.5 76.1 78.6 76.4 77.6 76.5C77.5 76.5 77.5 76.6 77.6 76.6C78.6 76.6 79.6 76.3 80.4 75.7C80.6 75.7 80.5 75.5 80.4 75.6Z" fill="black"></path><path d="M79.0001 75.8C78.3001 75.9 77.5001 75.8 76.8001 76C76.8001 76 76.7001 76.1 76.8001 76.1C77.5001 76.2 78.3001 76 79.0001 75.8C79.0001 75.8 79.1001 75.9 79.0001 75.8Z" fill="black"></path><path d="M78.7 75.2C77.9 75 77 75.3 76.2 75.5C76.1 75.5 76.1 75.6 76.2 75.6C77 75.9 77.8 75.3 78.6 75.4C78.8 75.4 78.9 75.2 78.7 75.2Z" fill="black"></path><path d="M77.8 81.3999C77.9 80.6999 77.7 79.9999 77.1 79.4999C77 79.3999 76.9 79.5999 77 79.5999C77.4 80.0999 77.7 80.6999 77.6 81.2999C77.5 81.4999 77.7 81.4999 77.8 81.3999Z" fill="black"></path><path d="M77.1 81.1001C77 80.1001 76.2 79.6001 75.4 79.1001C75.4 79.1001 75.3 79.1001 75.3 79.2001C76 79.7001 76.7 80.3001 76.9 81.1001C76.9 81.2001 77.1 81.2001 77.1 81.1001Z" fill="black"></path><path d="M76.2 80.4C75.9 79.7 75 79.2 74.2 79.2C74.1 79.2 74.1 79.3 74.2 79.3C74.6 79.4 74.9 79.5 75.2 79.7C75.6 80 75.9 80.2 76.2 80.4C76.2 80.5 76.2 80.5 76.2 80.4Z" fill="black"></path><path d="M75.5 80.1999C74.9 79.8999 74.2 79.4999 73.5 79.3999C73.4 79.3999 73.4 79.4999 73.4 79.4999C73.9 79.8999 74.7 80.0999 75.3 80.2999C75.5 80.3999 75.6 80.2999 75.5 80.1999Z" fill="black"></path><path d="M75.5 80.6001C75 80.9001 74.5 80.8001 74 80.8001C73.9 80.8001 73.9 80.9001 74 80.9001C74.5 81.2001 75.2 81.0001 75.6 80.7001C75.7 80.7001 75.6 80.6001 75.5 80.6001Z" fill="black"></path><path d="M76.2 80.7C75.9 80.9 75.6 81 75.3 81C75 81 74.8 80.9 74.5 80.8C74.4 80.8 74.4 80.9 74.4 80.9C74.8 81.4 75.8 81.1 76.3 80.8C76.3 80.8 76.3 80.7 76.2 80.7Z" fill="black"></path><path d="M76.6 81.3001C76.2 81.5001 75.9 81.6001 75.4 81.6001C75.1 81.6001 74.8 81.6001 74.6 81.6001C74.6 81.6001 74.5 81.7001 74.6 81.7001C75.2 81.9001 76.1 81.7001 76.6 81.3001C76.7 81.2001 76.7 81.3001 76.6 81.3001Z" fill="black"></path><path d="M77.1 81.6001C76.7 82.2001 75.9 82.4001 75.2 82.4001C75.1 82.4001 75.1 82.5001 75.2 82.5001C76 82.8001 76.8 82.3001 77.1 81.6001C77.2 81.5001 77.2 81.6001 77.1 81.6001Z" fill="black"></path><path d="M77.2 81.5C77.1 81.9 76.7 82.3 76.3 82.5C76.2 82.5 76.3 82.6 76.4 82.6C76.9 82.4 77.3 82 77.3 81.5C77.4 81.4 77.3 81.4 77.2 81.5Z" fill="black"></path><path d="M72.6999 91.3C72.9999 91 73.0999 90.5 73.2999 90.1C73.4999 89.7 73.7999 89.4 73.9999 88.9C73.9999 88.8 73.8999 88.8 73.8999 88.8C73.4999 89.1 73.2999 89.6 72.9999 90C72.7999 90.4 72.5999 90.9 72.6999 91.3Z" fill="black"></path><path d="M72.8 91.3C73.3 91.1 73.8 90.8 74.1 90.4C74.1 90.3 74 90.3 74 90.3C73.6 90.6 73.2 90.9 72.8 91.3C72.7 91.3 72.7 91.2 72.8 91.3Z" fill="black"></path><path d="M73.1 90.4C73.6 90.3 74 90 74.1 89.5C74.1 89.5 74 89.4 74 89.5C73.8 89.9 73.5 90.2 73.1 90.3C73 90.4 73 90.5 73.1 90.4Z" fill="black"></path><path d="M73.5 89.9001C73.5 89.7001 73.4 89.5001 73.4 89.2001C73.4 89.0001 73.4 88.7001 73.2 88.6001H73.1C73.1 88.8001 73.1 89.0001 73.2 89.2001C73.3 89.4001 73.3 89.7001 73.4 89.9001C73.4 90.0001 73.5 90.0001 73.5 89.9001Z" fill="black"></path><path d="M73.2 90.3C73.1 90.1 73 89.9 73 89.7C72.9 89.5 72.9 89.3 72.8 89.2H72.7C72.6 89.6 72.9 90.1 73.1 90.3C73.1 90.4 73.2 90.3 73.2 90.3Z" fill="black"></path><path d="M72.8 90.9C72.7 90.5 72.5 90.2 72.3 89.8H72.2C72.3 90.2 72.4 90.5 72.6 90.9C72.7 91 72.8 91 72.8 90.9Z" fill="black"></path><path d="M71.3001 88.4999C71.3001 87.5999 71.5001 86.7999 71.7001 85.8999C71.8001 85.1999 72.1001 84.5999 72.1001 83.8999C72.1001 83.8999 72.1001 83.8999 72.0001 83.8999C71.9001 84.7999 71.5001 85.4999 71.4001 86.3999C71.2001 87.0999 71.2001 87.7999 71.3001 88.4999C71.3001 88.4999 71.2001 88.4999 71.3001 88.4999Z" fill="black"></path><path d="M71.3 88.5C72.3 88.4 73.1 87.4 73 86.5C73 86.4 72.9 86.4 72.9 86.5C72.8 87.4 72.2 88 71.3 88.5C71.3 88.5 71.3 88.4 71.3 88.5Z" fill="black"></path><path d="M71.3 88.1C72.1 87.6 72.6 86.9 72.7 86C72.7 85.9 72.6 85.9 72.6 86C72.4 86.7 71.8 87.5 71.3 88.1C71.2 88.1 71.1 88 71.3 88.1Z" fill="black"></path><path d="M71.4 86.8001C72.1 86.2001 72.5 85.5001 72.4 84.6001H72.3C72.3 85.3001 71.9 86.1001 71.4 86.8001C71.3 86.8001 71.2 86.7001 71.4 86.8001Z" fill="black"></path><path d="M71.8 85.6C72.1 85.1 72.4 84.3 72.2 83.7C72.2 83.7 72.1 83.6 72.1 83.7C72.1 84 72.1 84.2 72.1 84.5C72.1 84.8 72 85.2 71.8 85.6Z" fill="black"></path><path d="M71.6 85.9C71.3 85.3 71.3 84.8 71.1 84.2C71.1 84.1 71 84.2 71 84.2C70.9 84.8 71.2 85.4 71.6 85.9C71.6 85.9 71.5 85.9 71.6 85.9Z" fill="black"></path><path d="M71.1 86.8C70.8 86.3 70.6 85.7 70.4 85.2H70.3C70.5 85.7 70.8 86.3 71.1 86.8Z" fill="black"></path><path d="M71.3 87.7C70.9 87 70.5 86.4 70.1 85.7C70.1 85.6 70 85.7 70 85.7C70.2 86.5 70.7 87.2 71.3 87.7C71.3 87.7 71.3 87.8 71.3 87.7Z" fill="black"></path><path d="M71 88.1001C70.8 87.9001 70.4 87.7001 70.2 87.5001C69.9 87.3001 69.7 87.0001 69.5 86.7001C69.5 86.6001 69.3 86.7001 69.3 86.8001C69.5 87.2001 69.7 87.5001 69.9 87.7001C70.3 87.8001 70.7 88.1001 71 88.1001C71.1 88.1001 71 88.1001 71 88.1001Z" fill="black"></path><path d="M67.8 85.2001C68 85.2001 68.1 85.2001 68.2 85.1001C68.4 85.0001 68.6 84.9001 68.8 84.8001C69.1 84.6001 69.4 84.3001 69.6 84.0001C69.6 83.9001 69.5 83.8001 69.5 83.9001C69.2 84.2001 69 84.4001 68.6 84.7001C68.5 84.8001 68.3 84.9001 68.2 84.9001C68.1 84.9001 67.9 85.1001 67.8 85.2001C67.8 85.2001 67.8 85.1001 67.8 85.2001Z" fill="black"></path><path d="M67.7 84.9001C68.6 84.3001 69.2 83.5 69.3 82.5C69.3 82.4 69.2 82.4 69.2 82.5C68.9 83.4 68.4 84.2001 67.7 84.9001Z" fill="black"></path><path d="M67.8 83.9999C68.3 83.3999 68.7 82.6999 68.9 81.9999C68.9 81.8999 68.8 81.8999 68.8 81.8999C68.4 82.5999 68.1 83.1999 67.6 83.7999C67.5 83.9999 67.7 84.0999 67.8 83.9999Z" fill="black"></path><path d="M67.9 83.1999C68 82.7999 68.1 82.3999 68.2 81.9999C68.3 81.6999 68.4 81.3 68.4 80.9C68.4 80.8 68.3 80.8 68.3 80.9C68.1 81.2 68.1 81.5999 68 81.9999C67.9 82.2999 67.8 82.6999 67.9 83.1999C67.9 83.1999 67.8 83.1999 67.9 83.1999Z" fill="black"></path><path d="M67.8 83.1C67.7 82.5 67.7 81.8 67.4 81.2H67.3C67.3 81.8 67.6 82.4 67.7 83.1C67.6 83.2 67.8 83.1 67.8 83.1Z" fill="black"></path><path d="M67.5 84.3C67 83.6 66.8 82.9 66.6 82.2C66.6 82.1 66.5 82.1 66.5 82.2C66.5 83 66.9 83.8 67.4 84.4C67.4 84.5 67.6 84.5 67.5 84.3Z" fill="black"></path><path d="M67.5 85.1999C67 84.6999 66.4 84.0999 65.8 83.6999C65.7 83.5999 65.6 83.7999 65.7 83.7999C66.2 84.2999 66.8 84.7999 67.4 85.2999C67.4 85.2999 67.5 85.2999 67.5 85.1999Z" fill="black"></path><path d="M64.3 84.4C64.2 84.4 64.2 84.3 64.1 84.3C64.1 84.3 64.2 84.4 64.3 84.4C64.3 84.4 64.2 84.4 64.3 84.4Z" fill="black"></path><path d="M64.3 84.4001C63.6 83.6001 62.8 83.0001 61.8 82.5001C60.7 82.0001 59.4 81.8001 58.2 81.6001C58.1 81.6001 58.1 81.7001 58.2 81.7001C59.2 82.1001 60.3 82.3001 61.4 82.6001C62.4 83.0001 63.3 83.7001 64.3 84.4001Z" fill="black"></path><path d="M64.2 83.9001C64.5 83.0001 64.4 82.0001 63.7 81.2001C63.6 81.1001 63.5 81.2001 63.6 81.3001C64.1 82.1001 64.3 83.0001 64 83.8001C64 84.0001 64.2 84.1001 64.2 83.9001Z" fill="black"></path><path d="M63.6 83.7C63.7 82.5 63.2 81.4 62.2 80.7C62.1 80.7 62.1 80.8 62.1 80.8C62.9 81.6 63.4 82.6 63.6 83.7C63.6 83.7 63.5 83.7 63.6 83.7Z" fill="black"></path><path d="M62.8 83.5001C62.5 82.0001 61.6 80.7001 60.1 80.1001C60 80.1001 60 80.2001 60 80.2001C61.3 81.1001 62.2 82.2001 62.8 83.5001C62.8 83.6001 62.7 83.6001 62.8 83.5001Z" fill="black"></path><path d="M61.3 82.3001C60.6 81.4001 59.8 80.6001 58.7 80.1001C58.6 80.1001 58.6 80.2001 58.6 80.2001C59.5 80.8001 60.4 81.5001 61.3 82.3001C61.3 82.3001 61.2 82.4001 61.3 82.3001Z" fill="black"></path><path d="M59.9 81.6C59.3 81.1 58.7 80.7 57.9 80.5C57.8 80.5 57.7 80.6 57.8 80.7C58.4 81.1 59.1 81.4 59.7 81.9C59.9 82 60.1 81.7 59.9 81.6Z" fill="black"></path><path d="M58.9999 81.5001C58.4999 81.4001 57.9 81.2001 57.4 81.1001C57.3 81.1001 57.3 81.2001 57.4 81.2001C57.8 81.5001 58.3999 81.5001 58.9999 81.5001C58.9999 81.5001 58.9999 81.6001 58.9999 81.5001Z" fill="black"></path><path d="M63.8 84.2C63 84.7 62.1 85 61.2 85.2C61.1 85.2 61.1 85.3 61.2 85.3C62.3 85.2 63.1 84.8 63.8 84.2C63.9 84.2 63.9 84.2 63.8 84.2Z" fill="black"></path><path d="M63.2 84.3C62.4 84.6 61.6 84.6 60.8 84.6C60.7 84.6 60.7 84.7 60.8 84.8C61.6 85.1 62.5 84.9 63.3 84.5C63.3 84.4 63.3 84.2 63.2 84.3Z" fill="black"></path><path d="M62.4001 83.7C61.6001 83.9 60.8 84 60 84C59.9 84 59.9 84.1 60 84.1C60.8 84.3 61.6001 84.2 62.4001 84C62.6001 84 62.6001 83.7 62.4001 83.7Z" fill="black"></path><path d="M62 83C61 83.1 60 83.2 59.1 83.5C59 83.5 59 83.7 59.1 83.7C60.1 83.7 61.1 83.5 62.1 83.3C62.3 83.3 62.2 83 62 83Z" fill="black"></path><path d="M61.2 82.6001C60.1 82.8001 58.9 82.8001 57.8 83.0001C57.7 83.0001 57.7 83.2001 57.8 83.2001C58.9 83.4001 60.2 83.1001 61.3 82.9001C61.6 82.9001 61.5 82.6001 61.2 82.6001Z" fill="black"></path><path d="M59.8 81.9999C59.5 82.0999 59.1 82.0999 58.8 82.0999C58.5 82.0999 58.1 81.8999 57.8 81.8999C57.7 81.8999 57.6 81.9999 57.7 82.0999C58.2 82.5999 59.2 82.5999 59.9 82.3999C60.1 82.2999 60 81.9999 59.8 81.9999Z" fill="black"></path><path d="M58.4001 81.8C58.2001 81.8 58 81.8 57.8 81.7C58 81.8 58.2001 81.9 58.4001 81.8C58.4001 81.8 58.4001 81.9 58.4001 81.8Z" fill="black"></path><path d="M66.1 87.6001C65.9 88.0001 65.9 88.4001 65.6 88.8001C65.3 89.2001 65 89.5001 64.6 89.8001C64.5 89.9001 64.6 90.0001 64.7 89.9001C65.6 89.6001 66.4 88.5001 66.1 87.6001Z" fill="black"></path><path d="M65.3 87.8999C64.8 88.6999 64.3 89.2999 63.3 89.5999C63.2 89.5999 63.2 89.7999 63.3 89.7999C64.3 89.6999 65.3 88.9999 65.4 87.9999C65.5 87.7999 65.4 87.7999 65.3 87.8999Z" fill="black"></path><path d="M64.4 87.9999C63.8 88.7999 62.8 88.8999 61.9 89.0999C61.8 89.0999 61.8 89.2999 61.9 89.2999C62.9 89.2999 64.0999 88.9999 64.5999 88.0999C64.7999 87.9999 64.5 87.8999 64.4 87.9999Z" fill="black"></path><path d="M63.9001 87.9999C63.1001 87.9999 62.3 87.8999 61.5 87.8999C61.4 87.8999 61.4 87.9999 61.5 87.9999C62.3 88.2999 63.1 88.1999 64 88.0999C64 88.0999 64.0001 87.9999 63.9001 87.9999Z" fill="black"></path><path d="M63.9 87.7C63.5 87.4 63.1 87.2 62.6 87.2C62.6 87.2 62.5 87.3 62.6 87.3C63 87.4 63.5 87.5 63.8 87.8C63.9 87.8 64 87.7 63.9 87.7Z" fill="black"></path><path d="M64.9 88.1001C64.7 87.4001 63.9 86.8001 63.1 86.9001C63.1 86.9001 63 87.0001 63.1 87.0001C63.9 87.1001 64.5 87.5001 64.9 88.1001C64.9 88.1001 64.9 88.2001 64.9 88.1001Z" fill="black"></path><path d="M65.3001 87.5C64.9001 87.1 64.4001 86.8 63.9001 86.7C63.8001 86.7 63.8 86.8 63.8 86.8C64.3 87 64.7 87.3 65.1 87.6C65.3 87.7 65.4001 87.5 65.3001 87.5Z" fill="black"></path><path d="M65.9 87.2999C65.7 86.7999 65.3 86.4999 64.7 86.3999C64.6 86.3999 64.6 86.4999 64.7 86.4999C65.1 86.5999 65.5 86.8999 65.7 87.2999C65.7 87.4999 65.9 87.4999 65.9 87.2999Z" fill="black"></path><path d="M69.2 90.3999C69.2 90.9999 69 91.4999 68.6 91.9999C68.6 92.0999 68.7 92.0999 68.7 92.0999C69.2 91.5999 69.4 90.9999 69.2 90.3999C69.2 90.3999 69.3 90.3999 69.2 90.3999Z" fill="black"></path><path d="M68.6 90.2C68.4 90.6 68.4 90.9 68.2 91.3C68 91.7 67.8 92.2 67.5 92.5C67.4 92.6 67.6 92.7 67.6 92.6C68.2 92 68.9 91.1 68.7 90.2C68.7 90.2 68.6 90.2 68.6 90.2Z" fill="black"></path><path d="M68 90.6001C67.8 91.3001 67.4 92.0001 66.7 92.4001C66.6 92.5001 66.7 92.6001 66.8 92.5001C67.6 92.1001 68.1 91.4001 68.3 90.6001C68.3 90.5001 68 90.4001 68 90.6001Z" fill="black"></path><path d="M67 90.9999C66.4 91.5999 65.8 92.1999 65.3 92.8999C65.2 92.9999 65.3 92.9999 65.4 92.9999C66.1 92.4999 66.7 91.8999 67.2 91.1999C67.3 91.0999 67.1 90.8999 67 90.9999Z" fill="black"></path><path d="M67.8 90.5C67.4 90.7 67 91.1 66.7 91.4C66.3 91.8 66 92.2 65.7 92.7C65.7 92.8 65.8 92.9 65.8 92.8C66.2 92.4 66.5 92 66.9 91.6C67.3 91.2 67.7 90.9 67.8 90.5Z" fill="black"></path><path d="M67.4 90.8999C66.7 90.9999 66 91.3999 65.5 91.8999C65.5 91.9999 65.5 91.9999 65.6 91.9999C66.2 91.5999 66.8 91.2999 67.4 91.0999C67.6 90.9999 67.5 90.8999 67.4 90.8999Z" fill="black"></path><path d="M67.8 90.2999C67 90.0999 66.1 90.1999 65.5 90.7999C65.4 90.8999 65.5 90.8999 65.6 90.8999C66.3 90.5999 67 90.3999 67.8 90.4999C67.9 90.4999 67.9 90.3999 67.8 90.2999Z" fill="black"></path><path d="M68.4 89.9999C67.8 89.5999 67.1 89.4999 66.4 89.7999C66.3 89.7999 66.4 89.8999 66.4 89.8999C67 89.7999 67.7 89.7999 68.2 90.1999C68.4 90.2999 68.6 90.0999 68.4 89.9999Z" fill="black"></path><path d="M68.8 90.3C68.5 89.8 67.9 89.5 67.3 89.5C67.2 89.5 67.2 89.6 67.3 89.6C67.8 89.8 68.2 90 68.6 90.4C68.7 90.5 68.9 90.4 68.8 90.3Z" fill="black"></path><path d="M69.2 90.2C69.3 90 69 89.8 68.9 89.7C68.7 89.5 68.5 89.4 68.2 89.3C68.1 89.3 68 89.4 68.1 89.4C68.3 89.5 68.5 89.7 68.7 89.9C68.8 90 68.9 90.2 69.2 90.2Z" fill="black"></path><path d="M71.3 93C70.8 93.2 70.6 93.7 70.3 94C69.9 94.6 69.5 94.9 68.7 95.1C68.6 95.1 68.6 95.2 68.7 95.3C69.3 95.4 69.7 95 70.1 94.6C70.6 94.2 71 93.6 71.3 93Z" fill="black"></path><path d="M70.8 93.0999C70.7 93.7999 70.6 94.4999 70.5 95.0999C70.5 95.1999 70.6 95.1999 70.7 95.1999C71.1 94.4999 71.2 93.8999 71.1 93.0999C71 92.9999 70.8 92.9999 70.8 93.0999Z" fill="black"></path><path d="M70.8 93.4C70.9 93.4 70.9 93.4 71 93.3C71 93.3 71 93.3 71 93.4C70.9 93.5 70.9 93.5 70.8 93.4C70.8 93.5 70.8 93.6 70.9 93.5L71 93.4C71 93.4 71 93.4 71 93.3V93.2C71 93.2 71 93.2 70.9 93.2C70.9 93.4 70.9 93.4 70.8 93.4C70.8 93.5 70.8 93.4 70.8 93.4Z" fill="black"></path><path d="M70.5 93.9C70.4 94.2 70.3 94.5 70.2 94.8C70.2 94.9 70.3 95 70.4 94.9C70.5 94.6 70.7 94.3999 70.8 94.0999C70.9 93.7999 70.6 93.7 70.5 93.9Z" fill="black"></path><path d="M70 94.6999C69.8 94.9999 69.5 95.1999 69.4 95.5999C69.4 95.6999 69.4 95.6999 69.5 95.6999C69.8 95.4999 70 95.1999 70.2 94.8999C70.2 94.6999 70.1 94.5999 70 94.6999Z" fill="black"></path><path d="M69.7 94.7999C69.6 94.9999 69.4 95.1999 69.1 95.3999C69 95.3999 69.1 95.5999 69.2 95.4999C69.5 95.3999 69.8 95.1999 70 94.8999C70 94.6999 69.7 94.5999 69.7 94.7999Z" fill="black"></path><path d="M71 92.9999C70.5 92.8999 69.9 92.9999 69.5 93.1999C69.4 93.1999 69.5 93.3999 69.6 93.2999C70.1 93.1999 70.6 93.1999 71.1 93.0999C71.1 93.0999 71.1 92.9999 71 92.9999Z" fill="black"></path><path d="M70.7001 93.7001C70.1001 93.6001 69.5001 93.7001 68.9001 94.0001C68.8001 94.0001 68.9001 94.2001 69.0001 94.1001C69.6001 94.0001 70.1001 93.8001 70.7001 93.8001C70.8001 93.8001 70.8001 93.7001 70.7001 93.7001Z" fill="black"></path><path d="M70.4 94.2C69.8 93.9 69.1 94.1 68.7 94.6C68.7 94.7 68.7 94.7 68.8 94.7C69.3 94.4 69.8 94.3 70.3 94.3C70.4 94.4 70.5 94.3 70.4 94.2Z" fill="black"></path><path d="M69.5999 94.8C69.3999 94.9 69.1999 94.9 68.9999 95C68.7999 95 68.6 95 68.4 95.1C68.3 95.1 68.3 95.3 68.4 95.3C68.8 95.4 69.2999 95.2 69.6999 95C69.7999 94.9 69.6999 94.8 69.5999 94.8Z" fill="black"></path></svg> 