<?xml version="1.0" encoding="UTF-8"?> <svg xmlns="http://www.w3.org/2000/svg" width="59" height="51" viewBox="0 0 59 51" fill="none"><path d="M40.8101 20C41.7101 20.9 43.0101 21.9 44.4101 21.3C45.7101 20.7 46.0101 19.2 46.2101 18C46.1101 18.1 45.9101 18.1 45.8101 18.2C46.4101 18.7 48.2101 20.8 49.2101 19.7C49.6101 19.2 49.7101 18.3 49.8101 17.6C50.1101 16.5 50.4101 15.5 50.7101 14.4C50.5101 14.4 50.2101 14.3 50.0101 14.3C49.8101 15.8 49.9101 17.4 50.0101 19C50.1101 20.5 50.5101 22 50.2101 23.5C50.1101 23.8 50.5101 24 50.7101 23.7C51.5101 22.4 50.9101 20.8 50.8101 19.5C50.6101 17.8 50.6101 16.1 50.7101 14.3C50.7101 13.9 50.1101 13.8 50.0101 14.2C49.7101 15.4 49.4101 16.6 49.2101 17.8C49.0101 18.5 49.0101 19.8 47.7101 19C47.2101 18.7 46.7101 18.2 46.2101 17.8C46.0101 17.7 45.8101 17.8 45.8101 18C45.7101 19 45.5101 20.2 44.5101 20.8C43.3101 21.5 42.1101 20.4 41.2101 19.7C40.8101 19.6 40.6101 19.8 40.8101 20Z" fill="#1D1D1B"></path><path d="M50.4101 21.7999C50.3101 22.7999 50.4101 23.7999 49.8101 24.5999C49.0101 25.7999 47.6101 25.8999 46.5101 25.0999C46.1101 24.7999 45.7101 23.9999 45.0101 23.9999C44.5101 23.9999 44.3101 24.2999 44.3101 24.5999C44.5101 24.4999 44.6101 24.4999 44.8101 24.3999C44.0101 23.5999 43.3101 22.6999 42.5101 21.7999C42.2101 21.3999 41.8101 20.9999 41.5101 20.5999C41.3101 20.3999 41.1101 20.1999 40.9101 19.9999C40.8101 19.8999 40.7101 19.7999 40.7101 19.7999C40.6101 19.5999 40.4101 19.4999 40.2101 19.5999C40.2101 19.6999 40.4101 19.6999 40.4101 19.5999C40.4101 19.5999 40.4101 19.5999 40.4101 19.4999C40.4101 19.3999 40.3101 19.3999 40.3101 19.3999H40.2101C40.1101 19.3999 40.1101 19.3999 40.1101 19.4999C39.9101 20.0999 41.2101 21.1999 41.6101 21.5999C42.5101 22.6999 43.5101 23.7999 44.5101 24.7999C44.7101 24.9999 45.0101 24.7999 45.0101 24.5999C45.0101 24.2999 45.7101 24.9999 45.7101 24.9999C45.9101 25.1999 46.0101 25.2999 46.2101 25.4999C46.5101 25.6999 46.8101 25.9999 47.2101 26.0999C47.9101 26.3999 48.7101 26.3999 49.4101 25.9999C50.9101 25.1999 51.4101 23.1999 50.8101 21.7999C50.6101 21.6999 50.5101 21.6999 50.4101 21.7999Z" fill="#1D1D1B"></path><path d="M44.4101 24.7998C45.8101 27.8998 47.1101 31.0998 48.0101 34.3998C49.0101 37.7998 49.7101 41.1998 50.1101 44.5998C50.1101 44.7998 50.3101 44.9998 50.5101 44.8998C52.5101 44.3998 54.9101 43.4998 56.5101 42.1998C58.1101 40.8998 56.5101 38.4998 55.8101 37.0998C54.8101 34.9998 53.5101 33.0998 52.5101 30.9998C51.4101 28.6998 50.8101 26.3998 50.7101 23.8998C50.7101 23.5998 50.2101 23.4998 50.2101 23.7998C49.4101 27.5998 51.9101 31.5998 53.8101 34.7998C54.3101 35.6998 54.9101 36.5998 55.3101 37.4998C55.8101 38.3998 56.4101 39.4998 56.5101 40.4998C56.7101 41.7998 54.8101 42.4998 53.8101 42.8998C52.7101 43.3998 51.5101 43.7998 50.3101 44.1998C50.4101 44.2998 50.6101 44.3998 50.7101 44.4998C49.9101 37.6998 48.0101 30.6998 44.6101 24.5998C44.6101 24.5998 44.4101 24.6998 44.4101 24.7998Z" fill="#1D1D1B"></path><path d="M41.7101 20.1C39.5101 18.2 39.7101 15.5 40.1101 12.9C40.0101 13 39.9101 13 39.7101 13.1C40.5101 13.5 41.3101 14 42.1101 14.4C42.9101 14.8 43.7101 15.2 44.2101 15.9C45.2101 17.2 45.7101 18.8 46.0101 20.3C46.0101 20.4 46.2101 20.4 46.2101 20.3C46.6101 18.7 45.6101 16.9 44.7101 15.6C44.3101 15 43.7101 14.6 43.0101 14.3C42.0101 13.8 41.0101 13.3 40.0101 12.8C39.8101 12.7 39.7101 12.8 39.6101 13C39.3101 15.4 39.0101 18.8 41.7101 20.1C41.7101 20.2 41.7101 20.2 41.7101 20.1Z" fill="#1D1D1B"></path><path d="M46.2101 18.1C45.9101 14.2 47.6101 10.5 50.1101 7.6C52.6101 4.6 55.8101 2.6 58.9101 0.200001C59.0101 0.100001 58.9101 0 58.8101 0C55.2101 1.9 51.8101 4.6 49.2101 7.8C48.0101 9.3 47.1101 10.9 46.4101 12.6C45.8101 14.3 45.2101 16.5 45.9101 18.2C45.9101 18.3 46.2101 18.3 46.2101 18.1Z" fill="#1D1D1B"></path><path d="M50.1101 14.9998C50.2101 14.1998 50.1101 13.4998 50.3101 12.6998C50.5101 11.8998 50.9101 11.1998 51.4101 10.4998C52.1101 9.29981 52.9101 8.09981 53.7101 6.89981C54.5101 5.69981 55.3101 4.49981 56.1101 3.39981C56.5101 2.79981 57.0101 2.19981 57.5101 1.59981C57.9101 1.19981 58.4101 0.799805 58.7101 0.399805C58.7101 0.399805 58.7101 0.299805 58.6101 0.299805C57.4101 0.799805 56.6101 1.99981 55.9101 2.99981C54.9101 4.39981 54.0101 5.69981 53.0101 7.09981C52.1101 8.49981 51.1101 9.89981 50.4101 11.3998C50.0101 12.4998 49.4101 13.9998 50.1101 14.9998C50.1101 15.0998 50.1101 15.0998 50.1101 14.9998Z" fill="#1D1D1B"></path><path d="M41.21 13.4002C41.31 11.9002 41.11 9.80018 42.91 9.00018C44.61 8.20018 45.41 10.1002 46.51 10.8002C46.51 10.8002 46.61 10.8002 46.61 10.7002C46.41 9.10018 44.51 7.60018 42.81 8.30018C40.81 9.10018 40.61 11.6002 40.81 13.4002C40.91 13.6002 41.21 13.6002 41.21 13.4002Z" fill="#1D1D1B"></path><path d="M46.3101 10.1V10C46.2101 10.1 46.2101 10.1 46.3101 10.1C46.3101 10.3 46.7101 11.3 47.0101 11.1C47.2101 11 46.9101 10.7 46.8101 10.6C46.7101 10.4 46.6101 10.2 46.4101 10C46.4101 10 46.3101 10 46.2101 10C46.2101 10 46.2101 10.1 46.3101 10.1C46.3101 10.2 46.2101 10.2 46.3101 10.1Z" fill="#1D1D1B"></path><path d="M46.0101 9.80011C46.3101 10.1001 46.4101 10.4001 46.5101 10.8001C46.6101 11.1001 46.6101 11.4001 46.7101 11.6001C46.8101 11.7001 46.9101 11.7001 46.9101 11.6001C47.2101 11.0001 46.5101 10.1001 46.1101 9.70011C46.1101 9.60011 45.9101 9.70011 46.0101 9.80011Z" fill="#1D1D1B"></path><path d="M26.11 7.50001C27.11 8.50001 28.61 9.30001 29.81 10.1C31.11 11 32.51 11.9 33.81 12.8C36.31 14.5 38.31 16.6 40.31 18.8C40.41 18.9 40.51 18.8 40.51 18.7C39.21 16.2 37.01 14.2 34.61 12.6C33.21 11.6 31.81 10.8 30.41 9.90001C29.01 9.10001 27.61 8.10001 26.11 7.50001C26.11 7.50001 26.11 7.40001 26.11 7.50001Z" fill="#1D1D1B"></path><path d="M26.7101 7.2002C26.5101 7.3002 26.5101 7.30019 26.5101 7.50019V7.60019C26.8101 7.80019 27.1101 7.90019 27.5101 8.00019C28.1101 8.10019 28.6101 8.30019 29.2101 8.50019C30.5101 8.90019 31.7101 9.40019 32.9101 9.90019C34.0101 10.4002 35.0101 10.9002 36.0101 11.4002C37.0101 11.9002 38.0101 12.7002 39.1101 13.1002C39.3101 13.2002 39.4101 12.9002 39.3101 12.8002C38.6101 12.0002 37.6101 11.5002 36.6101 11.0002C35.6101 10.4002 34.5101 9.90019 33.4101 9.50019C32.4101 9.10019 31.3101 8.70019 30.2101 8.40019C29.6101 8.20019 29.1101 8.10019 28.5101 7.90019C28.3101 7.90019 26.5101 7.5002 26.7101 7.2002Z" fill="#1D1D1B"></path><path d="M38.61 12.8001C38.61 13.0001 38.61 13.1001 38.71 13.3001C38.81 13.5001 38.91 13.6001 39.01 13.7001C39.21 13.9001 39.51 14.2001 39.81 14.3001C39.91 14.3001 40.01 14.1001 39.91 14.1001C39.81 14.0001 39.71 13.9001 39.61 13.9001C39.51 13.8001 39.41 13.7001 39.31 13.6001C39.21 13.5001 39.11 13.4001 39.11 13.2001C39.01 13.1001 38.91 13.0001 38.91 12.8001C38.71 12.7001 38.61 12.7001 38.61 12.8001Z" fill="#1D1D1B"></path><path d="M39.1101 12.9998C39.3101 13.1998 39.5101 13.4998 39.6101 13.6998C39.7101 13.8998 39.9101 13.6998 39.9101 13.5998C39.8101 13.1998 39.5101 12.9998 39.2101 12.8998C39.1101 12.7998 39.0101 12.8998 39.1101 12.9998Z" fill="#1D1D1B"></path><path d="M39.1101 13.2002C39.5101 13.2002 39.5101 12.7002 39.1101 12.7002C38.8101 12.7002 38.8101 13.2002 39.1101 13.2002Z" fill="#1D1D1B"></path><path d="M39.2101 13.3C39.3101 13.3 39.3101 13.4 39.4101 13.4C39.4101 13.4 39.5101 13.4 39.6101 13.4C39.6101 13.4 39.6101 13.3 39.6101 13.2C39.6101 13.1 39.5101 13.1 39.5101 13C39.5101 12.9 39.4101 13 39.3101 13C39.2101 13.2 39.1101 13.3 39.2101 13.3Z" fill="#1D1D1B"></path><path d="M53.5101 42.7999C54.7101 42.6999 56.2101 41.6999 56.3101 40.4999C56.3101 40.3999 56.2101 40.3999 56.2101 40.3999C55.8101 40.7999 55.6101 41.2999 55.2101 41.5999C54.7101 41.9999 54.2101 42.1999 53.6101 42.3999C53.3101 42.5999 53.3101 42.7999 53.5101 42.7999Z" fill="#1D1D1B"></path><path d="M53.7101 41.5001C54.2101 41.3001 54.7101 41.0001 55.1101 40.6001C55.4101 40.3001 55.8101 39.7001 55.7101 39.3001C55.7101 39.2001 55.6101 39.2001 55.5101 39.3001C55.2101 39.6001 55.0101 40.1001 54.7101 40.4001C54.4101 40.8001 54.0101 41.1001 53.5101 41.3001C53.5101 41.2001 53.6101 41.5001 53.7101 41.5001Z" fill="#1D1D1B"></path><path d="M53.9101 40.1001C54.3101 39.9001 54.6101 39.6001 54.9101 39.2001C55.2101 38.9001 55.4101 38.6001 55.5101 38.2001C55.5101 38.1001 55.4101 38.1001 55.4101 38.1001C55.1101 38.3001 54.9101 38.7001 54.7101 39.0001C54.4101 39.3001 54.1101 39.6001 53.8101 39.8001C53.6101 40.0001 53.7101 40.2001 53.9101 40.1001Z" fill="#1D1D1B"></path><path d="M54.9101 39.5C55.0101 39.2 55.1101 39 55.1101 38.7C55.1101 38.6 54.9101 38.5 54.8101 38.6C54.7101 38.8 54.5101 39.1 54.4101 39.3C54.4101 39.6 54.8101 39.7 54.9101 39.5Z" fill="#1D1D1B"></path><path d="M44.8101 15.7001C45.4101 14.6001 45.0101 13.3001 43.9101 12.6001C43.8101 12.6001 43.7101 12.7001 43.8101 12.7001C44.7101 13.5001 45.0101 14.6001 44.8101 15.7001C44.7101 15.7001 44.7101 15.7001 44.8101 15.7001Z" fill="#1D1D1B"></path><path d="M45.5101 15.6998C45.7101 13.5998 45.0101 11.2998 43.2101 9.89982C43.1101 9.79982 43.0101 9.89982 43.1101 9.99982C44.4101 11.6998 45.4101 13.4998 45.5101 15.6998C45.5101 15.6998 45.4101 15.6998 45.5101 15.6998Z" fill="#1D1D1B"></path><path d="M46.4101 13.4999C46.1101 12.0999 45.6101 10.5999 44.5101 9.49992C44.4101 9.39992 44.3101 9.49992 44.4101 9.59992C45.1101 10.8999 45.8101 12.0999 46.1101 13.5999C46.1101 13.7999 46.4101 13.6999 46.4101 13.4999Z" fill="#1D1D1B"></path><path d="M45.11 10.3001C44.61 10.3001 44.31 10.1001 44.11 9.7001L44.01 9.8001C45.31 10.0001 46.21 11.2001 46.01 12.4001C46.01 12.5001 46.2101 12.6001 46.2101 12.5001C46.7101 11.1001 45.61 9.6001 44.11 9.6001C44.01 9.6001 43.91 9.7001 44.01 9.8001C44.21 10.2001 44.61 10.4001 45.11 10.3001C45.21 10.3001 45.21 10.4001 45.11 10.3001Z" fill="#1D1D1B"></path><path d="M42.1101 11.9999C42.4101 12.5999 42.4101 13.1999 42.4101 13.7999C42.4101 13.8999 42.6101 13.9999 42.6101 13.7999C42.8101 13.0999 42.7101 12.4999 42.4101 11.7999C42.3101 11.5999 42.0101 11.6999 42.1101 11.9999Z" fill="#1D1D1B"></path><path d="M43.11 12.2998C43.21 13.0998 43.21 13.8998 43.41 14.6998C43.41 14.8998 43.71 14.7998 43.71 14.6998C43.81 13.8998 43.61 13.0998 43.51 12.3998C43.51 11.9998 43.11 11.9998 43.11 12.2998Z" fill="#1D1D1B"></path><path d="M42.7101 10.8999C43.1101 12.1999 43.3101 13.5999 43.9101 14.8999C44.0101 14.9999 44.1101 14.9999 44.1101 14.7999C43.9101 13.3999 43.4101 12.0999 43.0101 10.7999C43.0101 10.5999 42.7101 10.6999 42.7101 10.8999Z" fill="#1D1D1B"></path><path d="M43.9101 11.5C44.4101 12.6 44.7101 13.8 44.8101 15C44.8101 15.2 45.1101 15.2 45.1101 15C45.1101 13.7 44.8101 12.5 44.2101 11.3C44.1101 11.2 43.8101 11.3 43.9101 11.5Z" fill="#1D1D1B"></path><path d="M43.9101 21.4001C45.6101 19.7001 44.5101 17.1001 42.9101 15.7001C42.8101 15.6001 42.7101 15.7001 42.7101 15.8001C43.6101 17.5001 45.4101 19.4001 43.9101 21.4001Z" fill="#1D1D1B"></path><path d="M44.91 18.7999C44.41 17.3999 42.91 16.6999 41.41 17.0999C41.41 17.0999 41.31 17.1999 41.41 17.1999C41.81 17.3999 42.21 17.6999 42.51 17.9999H42.61C42.91 17.5999 42.41 17.0999 42.01 17.1999C42.01 17.1999 41.91 17.1999 41.91 17.2999C41.81 17.6999 41.91 18.0999 42.11 18.3999C42.21 18.4999 42.31 18.3999 42.31 18.2999C42.21 18.0999 42.11 17.8999 42.11 17.6999C42.21 17.6999 42.31 17.7999 42.41 17.7999C42.31 17.8999 41.71 17.0999 41.71 17.2999C41.81 16.9999 42.61 17.1999 42.81 17.2999C43.71 17.4999 44.41 18.0999 44.71 18.8999C44.81 18.9999 45.01 18.9999 44.91 18.7999Z" fill="#1D1D1B"></path><path d="M44.8101 21.8001C45.5101 23.0001 47.1101 23.7001 48.5101 23.2001C48.6101 23.2001 48.5101 23.0001 48.4101 23.0001C47.1101 23.3001 45.7101 22.9001 45.0101 21.7001C45.0101 21.6001 44.8101 21.7001 44.8101 21.8001Z" fill="#1D1D1B"></path><path d="M45.7101 23.8C46.6101 24.3 47.8101 25 48.9101 24.4C49.6101 24 50.0101 23.3 49.6101 22.6C49.5101 22.5 49.4101 22.6 49.4101 22.7C49.7101 23.5 49.0101 24.2 48.2101 24.3C47.4101 24.4 46.6101 24 45.9101 23.6C45.7101 23.5 45.5101 23.8 45.7101 23.8Z" fill="#1D1D1B"></path><path d="M45.8101 22.7001C46.6101 23.0001 47.6101 23.3001 48.4101 22.9001C49.0101 22.6001 49.3101 21.9001 49.0101 21.3001C49.0101 21.2001 48.8101 21.2001 48.8101 21.4001C49.0101 22.1001 48.3101 22.7001 47.6101 22.8001C47.0101 22.9001 46.3101 22.7001 45.7101 22.5001C45.7101 22.4001 45.6101 22.6001 45.8101 22.7001Z" fill="#1D1D1B"></path><path d="M46.0101 22.0999C47.0101 22.2999 48.2101 21.9999 48.9101 21.1999C49.2101 20.7999 49.4101 19.8999 48.7101 19.8999C48.6101 19.8999 48.6101 19.9999 48.7101 20.0999C49.1101 20.1999 48.9101 20.6999 48.8101 20.8999C48.6101 21.1999 48.3101 21.3999 48.0101 21.5999C47.4101 21.8999 46.8101 22.0999 46.1101 21.9999C45.9101 21.8999 45.9101 22.0999 46.0101 22.0999Z" fill="#1D1D1B"></path><path d="M46.7101 20.5998C46.9101 20.3998 47.0101 20.1998 47.2101 20.0998C47.4101 19.8998 47.5101 19.6998 47.7101 19.5998C47.8101 19.4998 47.8101 19.4998 48.0101 19.5998C48.1101 19.6998 48.1101 19.7998 48.1101 19.8998C48.2101 20.0998 48.2101 20.3998 48.1101 20.5998C48.1101 20.5998 48.2101 20.6998 48.2101 20.5998C48.4101 20.0998 48.2101 19.6998 47.9101 19.2998H47.8101C47.4101 19.6998 47.0101 20.0998 46.6101 20.4998C46.5101 20.5998 46.6101 20.6998 46.7101 20.5998Z" fill="#1D1D1B"></path><path d="M49.6101 26.5001C49.6101 25.9001 49.3101 25.5001 49.1101 25.0001C49.1101 24.8001 48.9101 24.8001 48.8101 25.0001C47.9101 26.1001 49.0101 27.7001 49.5101 28.7001C50.4101 30.5001 51.2101 32.3001 52.3101 33.9001C52.4101 34.0001 52.6101 33.9001 52.6101 33.8001C52.0101 32.3001 51.2101 30.9001 50.5101 29.5001C50.1101 28.8001 49.8101 28.1001 49.4101 27.4001C49.2101 27.0001 49.0101 26.5001 48.9101 26.0001C48.8101 25.5001 48.9101 25.4001 49.3101 25.8001C49.4101 26.0001 49.4101 26.3001 49.4101 26.6001C49.4101 26.6001 49.6101 26.6001 49.6101 26.5001Z" fill="#1D1D1B"></path><path d="M47.9101 26.6001C48.4101 28.0001 49.1101 29.4001 49.7101 30.8001C50.2101 32.1001 50.7101 33.5001 51.3101 34.8001C51.4101 34.9001 51.6101 34.8001 51.6101 34.7001C51.3101 33.2001 50.6101 31.8001 50.1101 30.4001C49.5101 29.1001 49.0101 27.7001 48.3101 26.5001C48.1101 26.3001 47.9101 26.4001 47.9101 26.6001Z" fill="#1D1D1B"></path><path d="M47.4101 26.8999C47.4101 26.5999 47.3101 26.3999 47.2101 26.0999C47.1101 26.0999 47.0101 26.1999 46.9101 26.1999C47.3101 27.1999 47.8101 28.1999 48.2101 29.1999C48.6101 30.0999 48.9101 31.0999 49.4101 31.9999C49.5101 32.0999 49.7101 31.9999 49.7101 31.8999C49.3101 29.8999 48.3101 27.7999 47.3101 26.0999C47.2101 25.8999 46.9101 26.0999 47.0101 26.2999C47.1101 26.3999 47.2101 26.6999 47.4101 26.8999Z" fill="#1D1D1B"></path><path d="M45.71 25.9001C45.51 25.6001 45.31 25.1001 45.11 24.8001C45.01 24.6001 44.71 24.7001 44.81 24.9001C45.21 26.0001 45.91 27.1001 46.41 28.1001C47.01 29.3001 47.51 30.5001 48.01 31.7001C48.51 32.8001 48.91 34.0001 49.31 35.2001C49.71 36.3001 49.91 37.6001 50.41 38.6001C50.51 38.8001 50.81 38.7001 50.81 38.5001C50.71 37.3001 50.21 36.1001 49.91 35.0001C49.51 33.7001 49.01 32.5001 48.51 31.2001C48.01 30.1001 47.51 29.0001 47.01 27.9001C46.41 26.8001 45.91 25.6001 45.11 24.6001C45.01 24.7001 44.91 24.7001 44.81 24.8001C45.11 25.2001 45.41 25.6001 45.71 25.9001Z" fill="#1D1D1B"></path><path d="M46.21 26.5002C46.01 25.9002 45.71 25.3002 45.31 24.8002C45.11 24.6002 44.81 24.8002 45.01 25.1002C47.01 27.5002 48.41 30.0002 49.31 33.0002C49.41 33.3002 49.81 33.2002 49.81 32.9002C49.31 29.9002 47.71 26.9002 45.41 24.9002C45.31 25.0002 45.21 25.1002 45.11 25.2002C45.61 25.4002 46.01 25.8002 46.21 26.5002C46.31 26.5002 46.21 26.5002 46.21 26.5002Z" fill="#1D1D1B"></path><path d="M47.71 26.6998C49.21 29.5998 50.41 32.6998 51.61 35.7998C51.71 35.9998 52.01 35.8998 52.01 35.6998C51.21 32.4998 49.81 29.3998 48.11 26.4998C47.91 26.2998 47.61 26.4998 47.71 26.6998Z" fill="#1D1D1B"></path><path d="M48.9101 26.5998C49.7101 26.4998 50.1101 25.8998 49.9101 25.1998C49.8101 25.1998 49.7101 25.2998 49.6101 25.2998C50.2101 27.6998 50.9101 29.9998 51.6101 32.3998C51.6101 32.5998 51.9101 32.4998 51.8101 32.2998C51.2101 29.8998 50.6101 27.4998 49.9101 25.1998C49.8101 24.9998 49.5101 25.0998 49.6101 25.2998C49.7101 25.8998 49.4101 26.2998 48.8101 26.3998C48.7101 26.4998 48.8101 26.6998 48.9101 26.5998Z" fill="#1D1D1B"></path><path d="M48.8101 31.9998L50.2101 36.3998C50.2101 36.4998 50.4101 36.4998 50.3101 36.3998C49.9101 34.8998 49.4101 33.3998 49.0101 31.8998C48.9101 31.7998 48.7101 31.8998 48.8101 31.9998Z" fill="#1D1D1B"></path><path d="M49.4101 33.8999C50.4101 35.9999 51.0101 38.1999 51.3101 40.3999C51.3101 40.4999 51.5101 40.4999 51.5101 40.3999C51.3101 38.0999 50.7101 35.8999 49.7101 33.7999C49.6101 33.5999 49.3101 33.7999 49.4101 33.8999Z" fill="#1D1D1B"></path><path d="M51.0101 38.5C51.4101 39.6 51.7101 40.8 52.1101 41.9H52.2101C51.9101 40.8 51.5101 39.6 51.0101 38.5C51.0101 38.5 51.1101 38.5 51.0101 38.5Z" fill="#1D1D1B"></path><path d="M50.11 39.9999C50.11 40.7999 50.31 41.4999 50.81 42.1999C50.81 42.2999 50.91 42.2999 51.01 42.1999C51.31 41.9999 51.61 41.7999 52.01 41.4999C52.11 41.3999 52.31 41.1999 52.51 41.0999C52.91 40.8999 52.71 40.9999 52.51 41.2999C52.11 42.0999 51.71 42.8999 51.31 43.6999V43.7999C52.41 43.7999 53.31 43.1999 53.71 42.2999C53.71 42.1999 53.61 42.1999 53.61 42.1999C53.41 42.5999 53.01 42.9999 52.61 43.2999C52.41 43.3999 52.11 43.5999 51.91 43.5999C51.51 43.5999 51.61 43.5999 51.71 43.1999C51.81 42.7999 52.11 42.3999 52.31 42.0999C52.51 41.5999 52.81 41.1999 53.11 40.6999C53.11 40.5999 53.11 40.5999 53.01 40.5999C52.51 40.8999 52.01 41.3999 51.41 41.6999C50.71 41.9999 50.61 40.2999 50.61 39.8999C50.31 39.8999 50.11 39.8999 50.11 39.9999Z" fill="#1D1D1B"></path><path d="M50.9101 43.2999C51.8101 42.7999 52.8101 42.2999 53.6101 41.5999C53.7101 41.4999 53.6101 41.3999 53.5101 41.3999C52.5101 41.7999 51.7101 42.4999 50.8101 42.9999C50.7101 43.1999 50.8101 43.3999 50.9101 43.2999Z" fill="#1D1D1B"></path><path d="M48.4101 20.5002C48.4101 19.0002 48.2101 17.5002 48.3101 16.0002C48.4101 14.4002 48.8101 12.9002 49.3101 11.4002C49.3101 11.3002 49.1101 11.2002 49.1101 11.3002C48.5101 12.8002 48.1101 14.3002 48.0101 15.8002C47.9101 17.3002 47.8101 19.0002 48.3101 20.4002C48.3101 20.6002 48.4101 20.6002 48.4101 20.5002Z" fill="#1D1D1B"></path><path d="M5.51009 29.3998C8.11009 29.9998 7.71009 26.1998 7.71009 24.7998C7.81009 22.0998 8.31009 19.1998 7.31009 16.5998C7.21009 16.3998 6.91009 16.3998 6.91009 16.6998C6.71009 18.8998 6.41009 20.9998 5.91009 23.0998H6.41009C6.21009 22.2998 5.91009 21.3998 5.21009 20.7998C5.11009 20.6998 4.71009 20.6998 4.81009 20.9998C4.81009 21.3998 4.91009 21.7998 4.81009 22.1998C4.81009 22.6998 4.91009 23.3998 4.31009 23.4998C3.41009 23.6998 2.21009 23.4998 1.31009 23.4998C1.11009 23.4998 1.01009 23.6998 1.11009 23.7998C1.61009 24.7998 2.11009 25.8998 2.61009 26.8998C3.01009 27.5998 3.31009 28.2998 4.01009 28.7998C5.01009 29.5998 6.51009 29.4998 7.21009 28.3998C8.01009 27.0998 7.91009 25.0998 8.01009 23.6998C8.11009 21.7998 8.21009 19.6998 7.31009 17.8998C7.31009 17.7998 7.11009 17.8998 7.11009 17.8998C7.21009 19.3998 7.51009 20.7998 7.41009 22.2998C7.41009 23.7998 7.31009 25.2998 7.01009 26.7998C6.91009 27.3998 6.71009 28.1998 6.01009 28.5998C5.11009 29.0998 4.01009 28.3998 3.51009 27.5998C2.61009 26.3998 2.01009 24.8998 1.41009 23.5998C1.31009 23.6998 1.31009 23.7998 1.21009 23.8998C2.41009 23.8998 3.61009 23.8998 4.71009 23.8998C4.81009 23.8998 4.91009 23.7998 4.91009 23.6998C5.11009 22.7998 5.11009 21.7998 5.11009 20.8998C5.11009 20.9998 5.01009 21.0998 4.91009 21.0998C5.51009 21.6998 5.71009 22.3998 6.01009 23.1998C6.11009 23.3998 6.51009 23.4998 6.51009 23.1998C6.91009 20.9998 7.21009 18.7998 7.41009 16.6998C7.31009 16.6998 7.11009 16.6998 7.01009 16.7998C7.81009 18.7998 7.71009 20.8998 7.61009 22.9998C7.51009 23.9998 7.51009 24.9998 7.51009 25.9998C7.51009 26.4998 7.61009 26.9998 7.51009 27.4998C7.41009 28.3998 6.81009 29.3998 5.71009 29.1998C5.41009 29.0998 5.31009 29.3998 5.51009 29.3998Z" fill="#1D1D1B"></path><path d="M7.8101 27.3999C7.8101 27.3999 7.9101 27.3999 7.8101 27.3999C7.9101 27.2999 8.0101 27.1999 8.0101 27.1999C7.9101 26.9999 7.9101 26.9999 7.7101 26.8999C7.6101 26.8999 7.6101 26.8999 7.5101 26.8999C7.1101 27.2999 7.5101 27.8999 7.6101 28.2999C7.9101 29.2999 8.2101 30.2999 8.6101 31.2999C9.3101 33.2999 10.0101 35.2999 10.9101 37.2999C11.7101 39.0999 12.6101 40.8999 13.7101 42.5999C14.2101 43.4999 14.8101 44.2999 15.4101 45.0999C16.0101 45.8999 16.5101 46.7999 17.2101 47.3999C17.4101 47.4999 17.6101 47.3999 17.5101 47.1999C17.1101 46.3999 16.5101 45.6999 15.9101 44.9999C15.4101 44.2999 14.9101 43.4999 14.4101 42.6999C13.4101 41.1999 12.6101 39.5999 11.8101 37.8999C11.0101 36.1999 10.3101 34.3999 9.6101 32.4999C9.3101 31.5999 9.0101 30.6999 8.7101 29.7999C8.6101 29.4999 7.6101 26.9999 7.7101 26.9999C7.5101 27.2999 7.7101 27.4999 7.8101 27.3999Z" fill="#1D1D1B"></path><path d="M5.71008 29.2998C5.71008 30.0998 6.21008 30.9998 6.51008 31.7998C6.91008 32.6998 7.21008 33.5998 7.61008 34.5998C8.31008 36.3998 9.11008 38.0998 9.91008 39.7998C11.6101 43.3998 13.5101 46.8998 15.4101 50.3998C15.5101 50.5998 15.9101 50.4998 15.9101 50.2998C15.8101 49.2998 16.9101 48.5998 16.9101 47.5998C16.9101 47.0998 16.6101 46.5998 16.1101 46.5998C15.9101 46.5998 15.9101 46.7998 16.0101 46.8998C16.8101 47.3998 16.2101 48.3998 15.8101 48.9998C15.5101 49.4998 15.3101 49.8998 15.4101 50.4998C15.6101 50.4998 15.7101 50.3998 15.9101 50.3998C14.0101 46.9998 12.1101 43.4998 10.4101 39.8998C9.61008 37.8998 8.81008 35.9998 8.01008 34.1998C7.61008 33.2998 7.31008 32.4998 6.91008 31.5998C6.61008 30.7998 6.41008 29.8998 5.81008 29.2998C5.71008 29.1998 5.71008 29.2998 5.71008 29.2998Z" fill="#1D1D1B"></path><path d="M12.0101 43.3998C11.8101 42.7998 11.5101 42.2998 11.0101 41.7998C10.6101 41.4998 10.3101 41.1998 10.1101 40.6998C9.91007 40.1998 10.1101 39.6998 10.1101 39.1998C9.91007 39.1998 9.81007 39.1998 9.61007 39.0998C9.61007 40.0998 9.91007 41.0998 10.6101 41.8998C10.8101 42.0998 11.2101 41.8998 11.0101 41.6998C10.5101 40.7998 10.2101 39.7998 10.2101 38.6998H9.71007C9.71007 38.8998 9.71007 38.9998 9.71007 39.1998C9.71007 39.4998 10.2101 39.4998 10.2101 39.1998C10.2101 38.8998 10.2101 38.5998 10.2101 38.3998L9.71007 38.4998C10.0101 39.6998 10.4101 40.8998 11.0101 41.9998C11.2101 42.2998 11.6101 41.9998 11.5101 41.6998C11.0101 40.5998 10.5101 39.4998 10.2101 38.2998C10.1101 37.9998 9.71007 38.0998 9.71007 38.3998C9.71007 38.6998 9.71007 38.9998 9.71007 39.1998H10.2101C10.2101 38.9998 10.2101 38.8998 10.2101 38.6998C10.2101 38.3998 9.71007 38.3998 9.71007 38.6998C9.71007 39.8998 10.0101 40.8998 10.6101 41.8998C10.7101 41.7998 10.9101 41.6998 11.0101 41.6998C10.4101 40.8998 10.1101 40.0998 10.1101 39.1998C10.1101 38.9998 9.71007 38.8998 9.61007 39.0998C9.51007 39.7998 9.41007 40.6998 9.81007 41.2998C10.0101 41.6998 10.4101 41.8998 10.7101 42.1998C11.1101 42.5998 11.4101 42.9998 11.8101 43.4998C11.9101 43.5998 12.0101 43.4998 12.0101 43.3998Z" fill="#1D1D1B"></path><path d="M15.6101 49.8C16.4101 49.1 16.9101 48.2 17.1101 47.2C17.0101 47.2 16.8101 47.2 16.7101 47.1C16.6101 47.3 16.5101 47.6 16.5101 47.8C16.3101 48 16.7101 48.3 16.9101 48L17.2101 47.6C17.3101 47.5 17.2101 47.4 17.2101 47.3C16.6101 46.8 16.3101 46.3 16.0101 45.6C15.9101 45.7 15.7101 45.7 15.6101 45.8C15.7101 46 15.8101 46.1 15.9101 46.3C16.0101 46.5 16.4101 46.4 16.3101 46.1C16.2101 45.7 16.1101 45.4 15.8101 45.1C15.7101 45 15.6101 45.1 15.6101 45.2C15.7101 45.3 15.7101 45.4 15.8101 45.5C15.8101 45.6 16.0101 45.6 15.9101 45.5C15.9101 45.4 15.8101 45.2 15.8101 45.1C15.7101 45.1 15.7101 45.2 15.6101 45.2C15.7101 45.5 15.8101 45.8 15.9101 46.1C16.0101 46.1 16.2101 46 16.3101 46C16.2101 45.8 16.1101 45.7 16.0101 45.5C15.9101 45.3 15.5101 45.4 15.6101 45.7C15.7101 46.1 15.9101 46.5 16.1101 46.9C16.3101 47.2 16.8101 47.4 16.5101 47.8C16.6101 47.9 16.8101 47.9 16.9101 48C17.1101 47.7 17.2101 47.5 17.2101 47.1C17.2101 46.9 16.8101 46.8 16.8101 47C16.7101 48 16.2101 48.8 15.5101 49.6C15.3101 49.8 15.5101 49.9 15.6101 49.8Z" fill="#1D1D1B"></path><path d="M7.31008 27.6999C7.11008 28.1999 7.31007 28.5999 7.51007 29.0999C7.61007 29.2999 8.01008 29.1999 7.91008 28.9999C7.51008 27.9999 7.21007 27.0999 7.11007 25.9999C7.11007 25.6999 6.61007 25.6999 6.61007 25.9999C6.51007 26.9999 6.61007 27.9999 6.61007 29.0999C6.71007 28.9999 6.81007 28.8999 7.01007 28.7999C6.21007 28.5999 6.81008 27.1999 6.81008 26.5999H6.21007C6.41007 27.8999 6.81007 28.9999 7.51007 30.0999C8.21007 31.1999 8.81007 32.4999 9.71007 33.4999C9.81007 33.5999 9.91008 33.4999 9.81008 33.3999C9.61008 32.2999 8.91008 31.2999 8.31008 30.2999C7.61008 29.0999 7.01008 27.8999 6.81008 26.5999C6.81008 26.2999 6.21008 26.2999 6.31008 26.5999C6.31008 27.4999 5.51008 28.8999 6.91008 29.2999C7.11008 29.3999 7.31008 29.1999 7.31008 28.9999C7.31008 27.9999 7.31008 26.9999 7.31008 25.8999C7.11008 25.8999 7.01008 25.8999 6.81008 25.9999C7.01008 26.9999 7.31007 27.9999 7.71007 28.9999C7.81007 28.9999 7.91007 28.8999 8.01007 28.8999C7.81007 28.4999 7.71007 28.0999 7.61007 27.6999C7.51007 27.5999 7.41008 27.5999 7.31008 27.6999Z" fill="#1D1D1B"></path><path d="M5.4101 20.9998C4.7101 19.5998 3.0101 16.8998 1.0101 17.9998C-1.0899 19.1998 0.610099 22.2998 1.4101 23.7998C1.5101 23.9998 1.9101 23.8998 1.8101 23.5998C1.3101 22.1998 -0.589901 19.4998 1.3101 18.3998C3.2101 17.3998 4.2101 20.1998 5.4101 20.9998C5.4101 21.0998 5.4101 21.0998 5.4101 20.9998Z" fill="#1D1D1B"></path><path d="M2.01005 18.0001C2.21005 17.3001 1.91005 16.5001 2.51005 15.9001C3.21005 15.2001 3.91004 15.9001 4.61004 16.3001C5.41004 16.7001 5.51005 16.7001 5.81005 17.6001C6.01005 18.1001 6.11005 18.6001 6.41005 19.1001C6.41005 19.2001 6.51005 19.1001 6.51005 19.1001C6.51005 18.3001 6.31005 17.3001 5.81005 16.6001C5.71005 16.2001 5.41005 16.1001 5.01005 16.0001C4.51005 15.8001 4.21005 15.5001 3.71005 15.3001C2.21005 14.7001 1.51005 16.9001 2.01005 18.0001C2.01005 18.0001 1.91005 18.0001 2.01005 18.0001Z" fill="#1D1D1B"></path><path d="M3.21007 23.7001C3.31007 23.7001 3.41007 23.7001 3.51007 23.7001L3.61007 23.6001C3.41007 23.6001 3.21007 23.4001 3.01007 23.3001C2.81007 23.2001 2.61007 23.1001 2.41007 22.9001C2.01007 22.6001 1.71007 22.2001 1.61007 21.8001C1.51007 21.7001 1.31007 21.7001 1.41007 21.9001C1.51007 22.4001 1.81007 22.9001 2.21007 23.2001C2.41007 23.4001 2.61007 23.5001 2.81007 23.6001C3.11007 23.7001 3.31007 23.7001 3.51007 23.8001C3.61007 23.8001 3.71007 23.8001 3.61007 23.7001C3.51007 23.4001 3.01007 23.4001 3.01007 23.7001C3.11007 23.8001 3.21007 23.8001 3.21007 23.7001Z" fill="#1D1D1B"></path><path d="M3.71009 23.6001C4.61009 22.7001 3.81009 21.0001 3.01009 20.2001C2.91009 20.1001 2.71009 20.2001 2.81009 20.3001C3.21009 20.8001 3.41009 21.4001 3.51009 22.0001C3.61009 22.5001 3.41009 23.0001 3.51009 23.5001C3.61009 23.6001 3.71009 23.6001 3.71009 23.6001Z" fill="#1D1D1B"></path><path d="M4.01009 23.3998C4.61009 21.9998 4.31009 20.3998 3.01009 19.3998C2.91009 19.2998 2.71009 19.4998 2.81009 19.5998C3.81009 20.5998 4.11009 21.9998 3.61009 23.2998C3.61009 23.4998 3.91009 23.5998 4.01009 23.3998Z" fill="#1D1D1B"></path><path d="M2.11005 21.3001C2.61005 22.1001 3.01005 23.0001 3.51005 23.8001C3.61005 23.9001 3.81005 23.9001 3.81005 23.7001C3.51005 22.8001 3.01005 21.9001 2.51005 21.1001C2.31005 20.8001 1.91005 21.0001 2.11005 21.3001Z" fill="#1D1D1B"></path><path d="M2.11009 21.7002C2.41009 22.1002 2.71009 22.5002 3.01009 23.0002C3.11009 23.1002 3.31009 23.0002 3.21009 22.9002C2.91009 22.5002 2.61009 22.0002 2.41009 21.6002C2.31009 21.4002 2.01009 21.5002 2.11009 21.7002Z" fill="#1D1D1B"></path><path d="M4.51007 18.2001C5.71007 19.6001 6.31007 21.3001 6.31007 23.1001C6.31007 23.3001 6.71007 23.3001 6.71007 23.1001C6.91007 21.1001 6.21007 19.3001 4.91007 17.8001C4.61007 17.5001 4.31007 17.9001 4.51007 18.2001Z" fill="#1D1D1B"></path><path d="M2.91008 25.7001C3.81008 26.2001 5.31008 25.9001 6.11008 25.4001C6.21008 25.3001 6.11008 25.1001 6.01008 25.2001C5.41008 25.3001 4.91008 25.5001 4.31008 25.5001C3.81008 25.5001 3.41008 25.4001 2.91008 25.5001C2.81008 25.5001 2.81008 25.6001 2.91008 25.7001Z" fill="#1D1D1B"></path><path d="M1.51007 25.3001C2.91007 26.1001 4.71007 26.7001 6.31007 26.3001C6.41007 26.3001 6.41007 26.1001 6.31007 26.0001C4.61007 25.9001 3.21007 25.8001 1.81007 25.0001C1.51007 24.9001 1.31007 25.2001 1.51007 25.3001Z" fill="#1D1D1B"></path><path d="M5.01007 27.6001C5.41007 27.2001 5.71007 26.8001 5.91007 26.3001C5.91007 26.2001 5.81007 26.1001 5.71007 26.2001C5.51007 26.7001 5.21007 27.1001 4.81007 27.4001C4.61007 27.5001 4.91007 27.8001 5.01007 27.6001Z" fill="#1D1D1B"></path><path d="M3.61009 25.8C4.21009 25.8 4.61009 26 5.11009 26.4C5.21009 26.5 5.41009 26.3 5.31009 26.2C4.91009 25.8 4.31009 25.5 3.71009 25.5C3.41009 25.5 3.41009 25.8 3.61009 25.8Z" fill="#1D1D1B"></path><path d="M3.8101 27.9C4.5101 28.1 5.3101 28.1 5.9101 27.7C6.0101 27.7 6.0101 27.5 5.8101 27.5C5.1101 27.5 4.5101 27.6 3.8101 27.6C3.6101 27.5 3.6101 27.8 3.8101 27.9Z" fill="#1D1D1B"></path><path d="M2.9101 26.8999C3.8101 27.4999 5.2101 27.1999 5.6101 26.0999C5.7101 25.9999 5.5101 25.8999 5.4101 25.9999C4.9101 26.6999 3.9101 26.9999 3.2101 26.5999C2.9101 26.4999 2.7101 26.7999 2.9101 26.8999Z" fill="#1D1D1B"></path><path d="M3.11008 24.9998C3.81008 24.9998 4.51008 24.8998 5.21008 24.4998C5.41008 24.3998 5.21008 24.0998 5.01008 24.1998C4.41008 24.4998 3.81008 24.5998 3.11008 24.5998C2.91008 24.5998 2.91008 24.9998 3.11008 24.9998Z" fill="#1D1D1B"></path><path d="M6.91006 29.7999C8.41006 32.8999 10.0101 35.8999 11.7101 38.9999C13.4101 41.9999 15.0101 45.0999 16.9101 47.8999C17.0101 47.9999 17.2101 47.8999 17.1101 47.7999C15.6101 44.6999 13.8101 41.7999 12.2101 38.6999C10.6101 35.6999 8.91006 32.6999 7.31006 29.5999C7.11006 29.3999 6.81006 29.5999 6.91006 29.7999Z" fill="#1D1D1B"></path><path d="M9.81004 38.1998C11.51 41.0998 13.11 44.1998 15.11 46.8998C15.21 46.9998 15.41 46.8998 15.41 46.7998C14.01 43.7998 11.91 40.9998 10.11 38.0998C10.01 37.7998 9.71004 37.9998 9.81004 38.1998Z" fill="#1D1D1B"></path><path d="M12.5101 43.6998C13.2101 44.7998 13.8101 45.7998 14.5101 46.8998C14.6101 46.9998 14.8101 46.8998 14.7101 46.7998C14.1101 45.6998 13.4101 44.6998 12.8101 43.5998C12.7101 43.2998 12.4101 43.4998 12.5101 43.6998Z" fill="#1D1D1B"></path></svg> 