<?xml version="1.0" encoding="UTF-8"?> <svg xmlns="http://www.w3.org/2000/svg" width="11" height="4" viewBox="0 0 11 4" fill="none"><path d="M10.2 3.39998C9.99996 1.99998 7.69996 0.89999 5.89996 0.49999C4.29996 0.0999904 0.899961 -1.26362e-05 0.999961 1.69999C1.19996 3.19999 4.19996 3.59999 5.99996 3.79999C6.69996 3.89999 7.39996 3.89998 7.99996 3.89998C8.49996 3.89998 9.29996 3.99999 9.69996 3.79999C10.3 3.49999 9.79996 2.9 9.39996 2.6C9.29996 2.5 9.09996 2.59999 9.09996 2.69999C9.19996 2.99999 9.59996 3.39999 8.99996 3.49999C8.69996 3.49999 8.29996 3.49999 7.99996 3.49999C7.09996 3.49999 6.29996 3.39999 5.39996 3.29999C4.09996 3.19999 1.09996 2.69998 1.59996 1.39998C2.09996 0.0999844 5.29996 0.699987 6.49996 1.19999C7.79996 1.69999 9.49996 2.49999 9.69996 3.49999C9.89996 3.49999 10.2 3.49998 10.2 3.39998Z" fill="#1D1D1B"></path><path d="M1.30011 1.30001C4.00011 1.10001 7.20011 1.60001 9.30011 2.80001C9.40011 2.90001 9.60011 2.80001 9.50011 2.70001C9.00011 1.80001 7.10011 1.50001 5.80011 1.30001C4.90011 1.10001 4.10011 1.10001 3.20011 1.00001C2.50011 1.00001 1.70011 0.900007 1.20011 1.20001C1.10011 1.10001 1.20011 1.30001 1.30011 1.30001Z" fill="#1D1D1B"></path><path d="M2.40001 1.70004L1.80001 1.40004C1.70001 1.30004 1.50001 1.40005 1.60001 1.50005C2.10001 2.20005 3.20001 2.70005 4.30001 2.80005C4.70001 2.90005 6.30001 3.00005 6.10001 2.50005H6.00001C5.80001 3.00005 3.70001 2.40005 3.40001 2.30005C2.70001 2.10005 2.30001 1.70005 1.80001 1.30005C1.80001 1.40005 1.70001 1.40005 1.70001 1.50005C2.30001 1.70005 2.00001 1.60004 2.40001 1.70004Z" fill="#1D1D1B"></path><path d="M4.4 2.2C3.9 2.1 3.4 2 3 1.8C2.9 1.8 2.4 1.60001 2.4 1.60001C2.4 1.60001 3.1 1.7 3.2 1.7C4.1 1.8 5.6 1.8 6.2 2.2H6.3C6 1.9 5.4 1.9 4.9 1.8C4 1.7 3.1 1.5 2.2 1.5C2.1 1.5 2.1 1.50001 2.2 1.60001C2.8 1.80001 3.5 2 4.4 2.2Z" fill="#1D1D1B"></path><path d="M2.99999 1.70002C3.49999 1.80002 3.99999 1.90003 4.49999 2.10003C4.89999 2.20003 5.29999 2.40002 5.69999 2.50002C5.79999 2.50002 5.79999 2.40002 5.79999 2.40002C5.19999 1.90002 3.89999 1.70002 2.99999 1.50002C2.89999 1.40002 2.79999 1.70002 2.99999 1.70002Z" fill="#1D1D1B"></path><path d="M3.49989 2.39995C3.89989 2.49995 4.39989 2.49996 4.79989 2.59996C5.19989 2.69996 5.59989 2.69995 5.99989 2.69995C6.09989 2.69995 6.09989 2.59996 5.99989 2.59996C5.69989 2.49996 5.19989 2.39995 4.89989 2.39995C4.49989 2.29995 3.99989 2.29995 3.59989 2.19995C3.39989 2.19995 3.29989 2.39995 3.49989 2.39995Z" fill="#1D1D1B"></path><path d="M3.40007 2.10004C4.10007 2.40004 5.20007 2.60004 6.00007 2.30004C6.10007 2.30004 6.00007 2.20004 6.00007 2.20004C5.10007 2.30004 4.40007 2.30004 3.60007 2.00004C3.40007 1.90004 3.30007 2.00004 3.40007 2.10004Z" fill="#1D1D1B"></path></svg> 