<?xml version="1.0" encoding="UTF-8"?> <svg xmlns="http://www.w3.org/2000/svg" width="46" height="31" viewBox="0 0 46 31" fill="none"><path d="M19.7999 22.5C19.6999 22.5 19.6999 22.5 19.7999 22.5V22.7H19.6999C19.5999 22.6 19.4999 22.5 19.3999 22.5C19.1999 23 19.5999 23.4 19.9999 23.8C20.4999 24.4 20.5999 25.2 20.5999 25.9C20.4999 26.9 19.9999 28.3 21.1999 29.2C21.2999 29.3 21.4999 29.2 21.4999 29.1C21.3999 28.6 21.1999 28 21.2999 27.5C21.2999 26.9 21.3999 26.4 21.3999 25.8C21.3999 25.3 21.3999 24.8 21.1999 24.4C21.0999 24.2 20.9999 23.9 20.7999 23.7C20.4999 23.4 19.9999 23 20.0999 22.6C20.0999 22.5 19.9999 22.4 19.7999 22.4H19.6999C19.5999 22.4 19.4999 22.5 19.3999 22.5C19.2999 22.6 19.4999 22.7 19.6999 22.7C19.6999 22.7 19.6999 22.7 19.7999 22.7C19.7999 22.7 19.8999 22.6 19.7999 22.5Z" fill="#1D1D1B"></path><path d="M20.9 24C20.8 23.9 20.8 23.9 20.9 24C20.8 23.9 20.7 23.9 20.6 23.9C19.9 23.9 19.2 24.6 18.8 25C18.2 25.6 17.6 26.2 17.4 26.8C17.1 27.5 17.5 28.3 16.9 29C16.4 29.5 15.7 29.9 15.7 30.5C15.7 30.7 16.1 30.7 16.2 30.6C16.6 30.2 17.2 29.7 17.6 29.3C18.1 28.8 18.1 28.3 18.1 27.8C18.1 27.1 18.4 26.5 19 25.8C19.3 25.5 19.5 25.3 19.8 25C19.9 24.9 20.6 24.3 20.8 24.2C20.9 24.1 20.9 24 20.9 24Z" fill="#1D1D1B"></path><path d="M17.9 28C16.6 27.9 15.5 28.2 14.4 28.6C13.6 28.9 12.3 29.3 12.3 30C12.3 30.1 12.5 30.1 12.6 30.1C13.1 29.9 13.4 29.6 13.9 29.4C14.4 29.2 14.9 29 15.4 28.9C16 28.7 16.6 28.6 17.3 28.5C17.6 28.3 17.8 28.3 17.9 28C18 28 18.1 28.1 17.9 28Z" fill="#1D1D1B"></path><path d="M18.9 25C18.2 24.9 17.2 25.1 16.6 25.4C16.1 25.6 15.4 26 15.6 26.4C15.6 26.5 15.8 26.5 15.9 26.5C16.1 26.4 16.2 26.3 16.3 26.2C16.5 26 16.8 25.8 17.1 25.7C17.7 25.5 18.4 25.5 18.9 25.2C19.1 25.1 19 25 18.9 25Z" fill="#1D1D1B"></path><path d="M19.1999 22.5C18.8999 22.9 18.8999 23.2001 18.3999 23.6001C17.8999 24.0001 17.0999 24.1001 16.3999 24.3001C15.1999 24.5001 13.9999 24.6 12.9999 25C10.9999 25.8 10.4999 27.5 10.9999 28.9C10.9999 29 11.2999 29 11.3999 28.9C11.5999 28 11.5999 27 12.2999 26.2C13.0999 25.3 14.5999 25.1 15.9999 24.9C17.0999 24.7 18.2999 24.5 18.9999 23.9C19.3999 23.5 19.8999 22.9 19.3999 22.5C19.3999 22.4 19.2999 22.4 19.1999 22.5Z" fill="#1D1D1B"></path><path d="M12.8001 25.2C12.6001 25.7 13.0001 26.1001 13.1001 26.6001C13.1001 26.8001 12.9001 27.2 13.4001 27.2C13.5001 27.2 13.6001 27.2001 13.7001 27.1001C14.1001 26.5001 13.5001 25.8 13.3001 25.2C13.2001 25 12.9001 25 12.8001 25.2Z" fill="#1D1D1B"></path><path d="M19.0999 22.7C18.0999 23.6 16.3999 23.6 14.8999 23.7C14.6999 23.7 14.5999 23.8 14.7999 23.9C15.4999 24.3 16.7999 24.1 17.5999 23.9C18.4999 23.7 19.0999 23.4 19.4999 22.8C19.4999 22.6 19.1999 22.6 19.0999 22.7Z" fill="#1D1D1B"></path><path d="M19.6 22.8C19.7 23.3 20.2 23.7999 20.7 24.1999C21 24.3999 21.4 24.6 21.7 24.8C22.1 25.1 22.3 25.4 22.5 25.8C22.9 26.4 23.7 26.8999 24.3 27.3999C24.9 27.8999 25.6 28.4999 26.5 28.6999C26.6 28.6999 26.7 28.7 26.6 28.6C26.3 28 25.4 27.5999 24.9 27.1999C24.1 26.5999 23.4 26 22.9 25.3C22.6 24.8 22.3 24.6 21.7 24.3C20.9 23.9 20.3 23.3999 19.7 22.8999C19.7 22.5999 19.5 22.7 19.6 22.8Z" fill="#1D1D1B"></path><path d="M22.2 25.3C22.9 25.5 23.1 26 23.9 26.2C24.2 26.3 24.5 26.2 24.8 26.2C25.6 26.1 26 26.1 26.4 26.6C26.7 27 28.1 28 28.6 27.2L28.5 27.1C27.7 27.3 27.1 26.5 26.8 26.1C26.6 25.8 26.2 25.7 25.8 25.7C25 25.6 24.4 26 23.6 25.7C23.1 25.4 22.9 25.3 22.2 25.3C22.2 25.2 22.2 25.2 22.2 25.3Z" fill="#1D1D1B"></path><path d="M23.1999 26.2999C22.9999 26.6999 23.0999 27.4999 23.7999 27.7999C23.8999 27.7999 23.9999 27.7999 23.9999 27.6999C23.9999 27.4999 23.8999 27.2999 23.7999 27.0999C23.6999 26.8999 23.6999 26.5999 23.6999 26.3999C23.6999 26.1999 23.1999 26.0999 23.1999 26.2999Z" fill="#1D1D1B"></path><path d="M21.8 24.6C21.6 25 21.8999 25.5 21.8999 25.9C21.8999 26.3 21.8999 26.7 22.0999 27.1C22.0999 27.2 22.3 27.2 22.3 27.1C22.7 26.7 22.4999 26.2 22.3999 25.8C22.2999 25.4 22.3 24.9 21.8 24.7C21.9 24.5 21.8 24.5 21.8 24.6Z" fill="#1D1D1B"></path><path d="M18 26.2C18.7 26.8 18.7 27.6 19.1 28.4C19.1 28.5 19.3 28.5 19.3 28.4C19.5 27.6 19.2 26.7 18.3 26.1C18.1 26 17.9 26.1 18 26.2Z" fill="#1D1D1B"></path><path d="M20.9999 27.5C21.3999 27.9 21.5999 28.4 21.7999 28.8C21.7999 28.9 21.8999 28.8 21.8999 28.8C21.9999 28.3 21.5999 27.8 21.0999 27.4C21.0999 27.4 20.8999 27.4 20.9999 27.5Z" fill="#1D1D1B"></path><path d="M19.8 23.2C20.3 23.7 21.5 23.9 22.3 23.8C22.4 23.8 22.4 23.7 22.3 23.7C21.9 23.6 21.5 23.6 21.1 23.5C20.7 23.4 20.3 23.3 19.9 23.1C19.8 23.1 19.7 23.1 19.8 23.2Z" fill="#1D1D1B"></path><path d="M19.4 22.5H19.5C19.5 22.5 19.5 22.5 19.5 22.4V22.3H19.4H19.3C19.3 22.3 19.3 22.3 19.3 22.4V22.5H19.4Z" fill="#1D1D1B"></path><path d="M19.3 22.5C20.6 22.8 21.1 21.8 21.4 21.2C21.8 20.2 22.1 19.1 21.7 18.1C21.3 17.1 20.3 16.4 19.2 15.7C17.9 14.8 16.9 13.8 16.1 12.7C16 12.6 15.8 12.6 15.7 12.7C14.9 13.2 15.7 14 16.1 14.6C16.9 15.8 17.7 16.8 17.8 18.1C17.9 19.1 17.1 22.8 19.9 22.8C20.3 22.8 20.2 22.5 19.9 22.4C18.4 22.3 18.4 20.6 18.4 19.9C18.4 19.1 18.5 18.2 18.3 17.4C18.2 16.7 17.8 16.1 17.4 15.4C17.1 15 16.9 14.7 16.6 14.3C16.3 14 15.5 13.2 16.1 12.9C16 12.9 15.8 12.9 15.7 12.9C16.2 13.6 16.8 14.3 17.6 15C18.3 15.6 19.3 16.2 20.1 16.8C21.1 17.6 21.5 18.4 21.5 19.4C21.5 20 21.1 22.7 19.5 22.3C19.1 22.2 19 22.4 19.3 22.5Z" fill="#1D1D1B"></path><path d="M16.2 13.1C16.3 13 16.1 12.7 16.1 12.7C16.1 12.5 16 12.3 16 12.2C16 12.1 15.7 12.1 15.7 12.2C15.6 12.8 15.6 13.4 15.8 14C15.8 14.1 16 14.1 16 14C16 13.4 15.9 12.8 16 12.2C15.9 12.2 15.8 12.2 15.7 12.2C15.8 12.4 15.8 12.7 15.9 12.9C15.9 13 15.9 13.1 16.1 13.2C16.2 13.2 16.2 13.2 16.3 13.2C16.4 13.2 16.4 13.1 16.4 13.1C16.3 13.1 16.2 13.1 16.2 13.1Z" fill="#1D1D1B"></path><path d="M15.8 12.1C15.9 12.6 16.1 13.1 16.6 13.5C16.7 13.5 16.8 13.5 16.8 13.5C16.6 13 16.3 12.5 16 12.1C15.9 12 15.8 12.1 15.8 12.1Z" fill="#1D1D1B"></path><path d="M15.7001 12.1C15.2001 12.5 15.3001 13.3 15.6001 13.7C15.7001 13.8 15.8001 13.7 15.8001 13.7C15.8001 13.4 15.7001 13.1 15.7001 12.9C15.7001 12.7 15.8001 12.4 15.7001 12.2C15.8001 12.1 15.7001 12.1 15.7001 12.1Z" fill="#1D1D1B"></path><path d="M21.4 17.5C21.5 16.4 21.8 15.2 21.6 14.2C21.3 13.2 20.5 12.3 19.6 11.5C19.5 11.4 19.4 11.4 19.2 11.4C17.5 12.1 16.9 13.7 17.5 14.9C17.5 15 17.7 15 17.7 14.9C17.9 14.4 17.8 13.8 18 13.2C18.2 12.6 18.7 12.1 19.5 11.7C19.4 11.7 19.2 11.7 19.1 11.6C20 12.5 20.9 13.3 21.1 14.4C21.3 15.4 20.8 16.5 21.2 17.5C21.2 17.5 21.4 17.5 21.4 17.5Z" fill="#1D1D1B"></path><path d="M19.5001 11.6C20.7001 8.90005 20.6001 6.20004 20.6001 3.50004C20.6001 3.30004 20.3001 3.30003 20.2001 3.40003C19.0001 4.90003 17.4001 6.40005 17.2001 8.10005C17.1001 9.40005 17.7001 11 19.3001 11.9C19.5001 12 19.7001 11.9 19.6001 11.8C18.4001 10.6 17.6001 9.50004 17.8001 8.00004C18.0001 6.40004 19.6001 4.90004 20.6001 3.50004C20.5001 3.50004 20.3001 3.40003 20.2001 3.40003C20.3001 6.10003 20.2001 8.90004 19.2001 11.5C19.1001 11.7 19.4001 11.7 19.5001 11.6Z" fill="#1D1D1B"></path><path d="M21.4 16.7999C22.1 14.6999 23 12.7999 24.6 10.9999C25.4 10.0999 26.4 9.19994 27.4 8.39994C28.4 7.59994 29.8 6.49995 31.3 6.09995C31.2 5.99995 31.1 5.99994 31 5.89994C31 7.19994 30.7 8.49994 29.8 9.69994C29 10.7999 27.7 11.7999 26.5 12.7999C24.4 14.5999 22.2 16.5999 21.3 18.7999C21.3 18.8999 21.5 18.9999 21.6 18.8999C23.2 16.4999 25.3 14.3999 27.8 12.2999C28.9 11.3999 29.9 10.4999 30.6 9.49995C31.3 8.39995 31.6 7.19995 31.5 5.99995C31.5 5.89995 31.3 5.79994 31.1 5.89994C29.6 6.39994 28.4 7.19995 27.3 7.99995C26.2 8.79995 25.2 9.69994 24.3 10.6999C22.6 12.4999 21.4 14.6999 21.2 16.7999C21.3 16.7999 21.4 16.7999 21.4 16.7999Z" fill="#1D1D1B"></path><path d="M31.1999 6.09995C33.4999 3.89995 36.0999 1.99995 39.5999 0.599953C39.4999 0.599953 39.3999 0.499947 39.1999 0.499947C39.0999 1.89995 38.0999 3.19995 36.4999 4.09995C35.6999 4.49995 34.6999 4.79995 33.7999 5.09995C32.9999 5.29995 31.9999 5.59995 31.4999 6.09995C31.3999 6.19995 31.4999 6.29995 31.6999 6.29995C32.1999 6.19995 32.5999 5.99995 32.9999 5.79995C33.4999 5.59995 34.0999 5.49995 34.5999 5.29995C35.5999 4.99995 36.5999 4.59995 37.3999 4.09995C38.8999 3.09995 39.5999 1.89995 39.6999 0.499947C39.6999 0.399947 39.4999 0.299941 39.2999 0.399941C35.7999 1.79994 32.6999 3.69995 30.8999 6.09995C30.8999 6.09995 31.0999 6.19995 31.1999 6.09995Z" fill="#1D1D1B"></path><path d="M31.5001 6.20004C31.6001 6.20004 31.8001 6.10005 31.8001 6.00005C31.9001 5.90005 31.8001 5.90005 31.7001 5.80005C31.6001 5.80005 31.5001 5.80004 31.5001 5.90004L31.6001 5.80005H31.5001C31.4001 5.80005 31.4001 6.00005 31.5001 6.00005H31.6001C31.6001 6.00005 31.5001 6.00004 31.5001 5.90004C31.6001 5.90004 31.6001 5.80005 31.7001 5.80005C31.5001 5.80005 31.4001 5.80004 31.3001 5.90004C31.2001 5.90004 31.1001 6.00005 31.1001 6.10005C31.2001 6.20005 31.4001 6.20004 31.5001 6.20004Z" fill="#1D1D1B"></path><path d="M20.3999 22.0999C23.0999 20.2999 26.7999 19.5999 30.4999 19.1999C32.7999 18.8999 35.1999 18.7999 37.4999 18.6999C38.6999 18.6999 39.8999 18.5999 41.0999 18.5999C42.2999 18.5999 43.5999 18.4999 44.6999 18.7999C44.8999 18.8999 45.0999 18.6999 44.9999 18.5999C44.0999 17.3999 42.2999 16.6999 40.2999 16.5999C37.8999 16.4999 35.8999 17.4999 34.2999 18.4999C34.0999 18.5999 34.3999 18.7999 34.5999 18.6999C36.1999 17.7999 37.8999 16.8999 40.0999 16.8999C41.9999 16.8999 43.7999 17.6999 44.5999 18.7999C44.6999 18.6999 44.7999 18.6999 44.8999 18.5999C43.9999 18.2999 43.0999 18.2999 42.0999 18.2999C40.7999 18.2999 39.4999 18.2999 38.1999 18.3999C35.5999 18.4999 33.0999 18.6999 30.4999 18.9999C26.8999 19.2999 22.6999 19.9999 20.3999 22.0999C20.3999 22.0999 20.2999 22.0999 20.3999 22.0999Z" fill="#1D1D1B"></path><path d="M35.2001 18.1C34.5001 18 33.9001 17.8 33.3001 17.6C32.8001 17.5 32.3001 17.4 31.7001 17.3C30.3001 17.2 28.8001 17.2 27.4001 17.3C25.1001 17.5 22.2001 18.2 21.2001 19.7C21.1001 19.8 21.3001 19.9 21.4001 19.8C22.2001 19.2 23.0001 18.7 24.1001 18.3C25.3001 17.9 26.7001 17.7 28.1001 17.6C29.4001 17.5 30.9001 17.5 32.3001 17.7C33.3001 17.8 34.1001 18.3 35.2001 18.3C35.3001 18.3 35.4001 18.1 35.2001 18.1Z" fill="#1D1D1B"></path><path d="M18.2 19.5C17.4 18.7 15.5 18.2 14.1 17.8C12.5 17.3 10.7 16.8 9.70004 15.7C9.40004 15.4 9.20004 15.1 9.10004 14.7C9.10004 14.6 9.00005 14.4 9.00005 14.3C9.00005 13.9 9.30004 13.9 9.70004 14C10.7 14.1 11.7 14.4 12.6 14.7C14.5 15.2 16 16 17.7 16.7C17.9 16.8 18.1 16.6 17.9 16.5C16.6 15.7 14.9 15 13.2 14.5C12.4 14.3 11.6 14 10.8 13.9C10 13.7 9.30005 13.5 8.50005 13.7C8.40005 13.7 8.30005 13.8 8.30005 13.8C8.50005 15.3 9.50005 16.4 11.5 17.2C12.5 17.6 13.6 17.9 14.7 18.2C15.9 18.5 16.8 19 18 19.4C18.1 19.7 18.2 19.6 18.2 19.5Z" fill="#1D1D1B"></path><path d="M8.80011 13.8C6.60011 13.4 4.40011 12.9 3.00011 11.6C2.30011 10.9 2.0001 10.1 1.7001 9.39996C1.4001 8.49996 1.10011 7.69997 0.80011 6.79997C0.70011 6.79997 0.600107 6.89996 0.500107 6.89996C3.30011 9.29996 8.9001 11.1 8.7001 14.6C8.7001 14.7 8.90011 14.7 8.90011 14.6C9.50011 11.1 3.60011 9.19997 0.80011 6.79997C0.70011 6.69997 0.400107 6.79996 0.500107 6.89996C0.800107 7.89996 1.10011 8.89996 1.50011 9.89996C1.80011 10.7 2.20011 11.4 2.90011 12C4.30011 13.1 6.5001 13.8 8.7001 14C9.0001 14 9.00011 13.8 8.80011 13.8Z" fill="#1D1D1B"></path><path d="M9.00007 14.3C9.10007 13.9 9.10007 13.2 8.50007 13H8.40007C8.30007 13.2 8.50007 13.3 8.50007 13.5C8.60007 13.7 8.60007 14 8.60007 14.2C8.70007 14.4 9.00007 14.4 9.00007 14.3Z" fill="#1D1D1B"></path><path d="M19.4 22.8C20.5 22.1 21.4 21 21.1 19.9C21.1 19.8 20.9 19.8 20.9 19.9C20.7 21 20.4 21.8 19.2 22.6C19 22.7 19.2 22.9 19.4 22.8Z" fill="#1D1D1B"></path><path d="M19.3001 22.5C19.2001 22.5 19.2001 22.5 19.1001 22.6C19.1001 22.7 19.1001 22.7 19.2001 22.7H19.3001C19.8001 22.5 19.8001 21.9 19.9001 21.6C20.0001 21 20.1001 20.5 19.9001 19.9C19.9001 19.9 19.8001 19.8 19.7001 19.9C19.6001 20.3 19.6001 20.7 19.5001 21.1C19.5001 21.2 19.2001 22.6 19.2001 22.6C19.4001 22.6 19.4001 22.5 19.3001 22.5Z" fill="#1D1D1B"></path><path d="M19.6 22.7C19.6 22.3 19.6 21.9 19.5 21.4C19.5 21.1 19.5 20.7 19.2 20.4C19.2 20.4 19.1 20.4 19 20.4C18.9 20.8 19 21.1 19 21.5C19.1 21.9 19.1 22.3 19.2 22.6C19.3 22.8 19.6 22.8 19.6 22.7Z" fill="#1D1D1B"></path><path d="M19.1 23C19.3 22.3 19.3 21.3 18.7 20.6C18.6 20.5 18.5 20.6 18.5 20.6C18.5 21 18.7 21.4 18.7 21.7C18.8 22.1 18.8 22.5 18.8 22.9C18.8 23.1 19 23.2 19.1 23Z" fill="#1D1D1B"></path><path d="M18.9999 21.8C18.7999 21.6 18.5999 21.3 18.4999 21C18.3999 20.8 18.3999 20.5 18.1999 20.3C18.1999 20.2 17.9999 20.2 17.8999 20.3C17.6999 20.8 18.1999 21.4 18.4999 21.9C18.7999 22.1 19.1999 21.9 18.9999 21.8Z" fill="#1D1D1B"></path><path d="M19.5 21.7C19.6 20.8 19.9 19.9 20.1 18.9C20.1 18.8 20 18.8 19.9 18.9C19.3 19.8 19.1 20.7 19 21.7C19.1 21.9 19.5 21.9 19.5 21.7Z" fill="#1D1D1B"></path><path d="M19.9 21.5C20.4 20.7 20.8 19.9 20.9 19C20.9 18.9 20.7 18.9 20.7 19C20.3 19.8 20 20.6 19.6 21.4C19.5 21.6 19.8 21.7 19.9 21.5Z" fill="#1D1D1B"></path><path d="M20.1001 21.7C20.7001 21 21.1001 20.3 21.1001 19.4C21.1001 19.4 21.0001 19.3 21.0001 19.4C20.8001 20.2 20.5001 20.9 19.9001 21.6C19.8001 21.7 20.0001 21.8 20.1001 21.7Z" fill="#1D1D1B"></path><path d="M19.2999 22.1C19.0999 21.3 18.8999 20.5 18.5999 19.7C18.5999 19.6 18.3999 19.6 18.3999 19.7C18.4999 20.5 18.7999 21.3 18.9999 22.1C18.9999 22.2 19.2999 22.2 19.2999 22.1Z" fill="#1D1D1B"></path><path d="M19.3 20.5C19.3 20.2 19.2 19.8 19.2 19.5C19.2 19.5 19.1 19.5 19.2 19.5C19.1 19.8 19.2 20.1 19.3 20.5C19.3 20.5 19.2 20.5 19.3 20.5Z" fill="#1D1D1B"></path><path d="M21.2 20.8C22.4 19.6 24.2 19 26.3 18.7C26.4 18.7 26.4 18.6 26.3 18.6C24.1 18.7 22.2 19.6 21.1 20.8C21 20.8 21.1 20.8 21.2 20.8Z" fill="#1D1D1B"></path><path d="M21.7 20.0001C22.5 19.4001 23.5 18.8001 24.5 18.3001C24.5 18.3001 24.5 18.2001 24.5 18.3001C23.4 18.7001 22.4 19.3001 21.7 20.0001Z" fill="#1D1D1B"></path><path d="M21.2999 20C22.2999 19.4 23.3999 19 24.4999 18.5C24.5999 18.5 24.4999 18.4 24.3999 18.4C23.1999 18.7 22.0999 19.3 21.0999 19.8C20.8999 19.9 21.0999 20 21.2999 20Z" fill="#1D1D1B"></path><path d="M20.1001 22C21.7001 20.8 23.4001 19.8 25.7001 19.3C25.8001 19.3 25.8001 19.2 25.7001 19.2C23.3001 19.4 21.5001 20.8 20.1001 22C20.1001 22 20.0001 22 20.1001 22Z" fill="#1D1D1B"></path><path d="M21 21.3999C22.5 20.6999 24.2 20.1 25.6 19.3C25.7 19.3 25.6 19.2 25.5 19.2C23.9 19.7 22.4 20.5999 21 21.3999C21 21.3999 20.9 21.3999 21 21.3999Z" fill="#1D1D1B"></path><path d="M21.9001 20.5C22.5001 20 23.3001 19.7 24.2001 19.4C24.3001 19.4 24.2001 19.2 24.1001 19.3C23.1001 19.4 22.3001 19.9 21.7001 20.4C21.6001 20.4 21.8001 20.5 21.9001 20.5Z" fill="#1D1D1B"></path><path d="M21.2 20.8C21.7 20.5 22.2 20.2 22.7 19.9C22.7 19.9 22.7 19.8 22.6 19.9C22.2 20.2 21.6 20.5 21.2 20.8C21.2 20.9 21.1 20.8 21.2 20.8Z" fill="#1D1D1B"></path><path d="M21.7 18.1C22.2 17.5 22.5 16.7 23 16.1C23.5 15.4 24.2 14.8 24.7 14.2C24.7 14.1 24.6 14.1 24.6 14.1C23.8 14.7 23.2 15.4 22.7 16.1C22.2 16.6 21.7 17.3 21.7 18.1C21.7 18.1 21.6 18.1 21.7 18.1Z" fill="#1D1D1B"></path><path d="M21.3999 17.9C21.8999 17 22.2999 16.1 22.7999 15.2C23.2999 14.3 23.9999 13.5 24.3999 12.6C24.3999 12.5 24.2999 12.5 24.1999 12.5C23.3999 13.2 22.9999 14.2 22.4999 15C21.8999 16 21.4999 16.9 21.3999 17.9C21.3999 17.9 21.2999 17.9 21.3999 17.9Z" fill="#1D1D1B"></path><path d="M21.3 17.2C21.7 16.3 22.2 15.5001 22.7 14.6001C23.2 13.8001 23.9 12.9 24.3 12C24.3 11.9 24.2 11.9 24.1 12C23.3 12.7 22.9 13.6 22.4 14.4C21.9 15.3 21.4 16.2001 21 17.1001C21 17.3001 21.3 17.3 21.3 17.2Z" fill="#1D1D1B"></path><path d="M21.3001 17.8C21.5001 17.9 21.4001 17.9 21.6001 18C21.7001 18 21.7001 18 21.8001 18C22.5001 17.3 23.0001 16.5999 23.5001 15.8999C23.9001 15.1999 24.4001 14.5 24.6001 13.8C24.6001 13.7 24.5001 13.7 24.4001 13.7C23.9001 14.3 23.6001 15 23.2001 15.6C22.9001 16 22.7001 16.4 22.4001 16.8C22.3001 16.9 21.6001 17.9 21.3001 17.8C21.2001 17.8 21.3001 17.7 21.3001 17.8Z" fill="#1D1D1B"></path><path d="M21.4 17.8999C22.2 16.5999 23.2 15.2 23.8 13.8C23.8 13.7 23.6 13.7 23.6 13.7C22.6 15 22 16.4 21.3 17.8C21.2 17.9 21.4 17.8999 21.4 17.8999Z" fill="#1D1D1B"></path><path d="M21.6999 17.6C21.7999 17.4 21.9999 17.2 22.1999 17.1C22.0999 17.1 21.9999 17.1 21.8999 17.1C21.8999 17.3 21.8999 17.5 21.8999 17.7C21.8999 17.8 22.1999 17.8 22.1999 17.7C22.1999 17.2 22.0999 16.7 21.8999 16.2C21.7999 16.1 21.5999 16.1 21.5999 16.2C21.4999 16.5 21.4999 16.9 21.5999 17.3C21.5999 17.4 21.7999 17.4 21.7999 17.3C21.9999 17 21.8999 16.6 21.8999 16.2C21.7999 16.2 21.6999 16.2 21.5999 16.2C21.7999 16.7 21.8999 17.2 21.8999 17.7H22.1999C22.1999 17.5 22.1999 17.3 22.1999 17.1C22.1999 17 21.9999 17 21.8999 17.1C21.7999 17.3 21.6999 17.5 21.5999 17.7C21.5999 17.6 21.6999 17.7 21.6999 17.6Z" fill="#1D1D1B"></path><path d="M23 16.1999C23.8 15.0999 24.7 14.0999 25.4 12.9999C25.5 12.8999 25.3 12.7999 25.2 12.8999C24.3 13.9999 23.5 15 22.7 16.1C22.7 16.2 22.9 16.2999 23 16.1999Z" fill="#1D1D1B"></path><path d="M22.5999 15.5C23.6999 14.1 24.6999 12.7 25.7999 11.3C26.9999 9.90001 28.4999 8.60001 30.2999 7.50001C30.2999 7.50001 30.2999 7.40001 30.1999 7.50001C26.4999 9.50001 24.1999 12.7 22.3999 15.5C22.3999 15.5 22.4999 15.6 22.5999 15.5Z" fill="#1D1D1B"></path><path d="M32.3999 5.50006C33.7999 4.40006 35.4999 3.60006 37.2999 2.80006C37.2999 2.80006 37.2999 2.70006 37.2999 2.80006C35.1999 3.30006 33.5999 4.30006 32.3999 5.50006C32.3999 5.50006 32.2999 5.50006 32.3999 5.50006Z" fill="#1D1D1B"></path><path d="M30.9999 6.19994C30.7999 6.79994 30.5999 7.39995 30.3999 7.99995C30.3999 8.09995 30.5999 8.19995 30.6999 7.99995C30.9999 7.39995 31.1999 6.79994 31.3999 6.19994C31.3999 6.09994 30.9999 5.99994 30.9999 6.19994Z" fill="#1D1D1B"></path><path d="M30.3999 6.50003C29.9999 6.80003 29.5999 7.20004 29.3999 7.60004C29.3999 7.70004 29.4999 7.70003 29.5999 7.70003C29.8999 7.40003 30.2999 7.00003 30.6999 6.70003C30.7999 6.60003 30.4999 6.40003 30.3999 6.50003Z" fill="#1D1D1B"></path><path d="M32.1 5.30005C32.3 5.00005 32.6 4.80005 33 4.50005C33.3 4.30005 33.7 4.10004 34 3.90004C34.1 3.80004 34 3.80005 33.9 3.80005C33.4 3.90005 33 4.10005 32.7 4.30005C32.3 4.50005 32 4.80005 31.7 5.10005C31.7 5.40005 32 5.50005 32.1 5.30005Z" fill="#1D1D1B"></path><path d="M31.5999 5.89996C32.7999 5.39996 33.8999 4.89996 34.9999 4.39996C35.0999 4.29996 34.9999 4.19997 34.8999 4.29997C33.6999 4.79997 32.5999 5.29997 31.4999 5.79997C31.2999 5.79997 31.4999 5.99996 31.5999 5.89996Z" fill="#1D1D1B"></path><path d="M32.8 4.89999C32.9 4.79999 33.1 4.70001 33.2 4.60001C33.3 4.50001 33.1 4.5 33 4.5C32.9 4.6 32.7 4.7 32.6 4.8C32.5 4.9 32.7 4.99999 32.8 4.89999Z" fill="#1D1D1B"></path><path d="M31.5999 18.3C32.3999 18.3 33.0999 18.3 33.8999 18.3C34.1999 18.3 34.4999 18.3 34.7999 18.3C34.3999 18.3 33.7999 18.3 33.2999 18.2L33.1999 18.3C33.5999 18.4 33.9999 18.5 34.4999 18.6C34.6999 18.6 34.7999 18.3999 34.5999 18.3999C34.1999 18.2999 32.2999 18 32.7999 18.7L32.8999 18.8C33.3999 18.8 33.7999 18.7 34.1999 18.6C34.3999 18.6 34.2999 18.3999 34.0999 18.3999C33.1999 18.4999 32.2999 18.6 31.3999 18.7L31.4999 18.8C31.9999 18.6 32.4999 18.4 33.0999 18.2C33.1999 18.2 33.1999 18.1 32.9999 18.1C32.4999 18.1 32.0999 18.0999 31.6999 17.8999C31.6999 17.8999 31.6999 18 31.5999 18C32.3999 18 33.1999 18.1 33.9999 18.3C33.9999 18.2 33.9999 18.2 33.9999 18.1C33.2999 18.1 32.5999 18.0999 31.8999 17.8999C31.8999 17.9999 31.8999 18 31.8999 18.1C32.6999 18.2 33.2999 18.3 33.8999 18.5L33.9999 18.3C33.1999 18.3 32.4999 18.2999 31.6999 18.3999C31.5999 18.3999 31.5999 18.5 31.6999 18.6C32.2999 18.7 32.8999 18.8 33.5999 18.8C33.6999 18.8 33.7999 18.7 33.5999 18.6C32.5999 18.6 31.5999 18.6 30.5999 18.8C30.4999 18.8 30.4999 18.8999 30.5999 18.8999C31.5999 18.6999 32.4999 18.7 33.4999 18.7V18.5C32.8999 18.5 32.2999 18.5 31.6999 18.3V18.5C32.3999 18.4 33.1999 18.3999 33.8999 18.3999C33.9999 18.3999 34.0999 18.3 33.9999 18.2C33.2999 18 32.5999 17.8 31.7999 17.8C31.6999 17.8 31.5999 17.8999 31.6999 17.8999C32.3999 17.9999 33.0999 18.1 33.8999 18.1C34.0999 18.1 34.0999 17.8999 33.8999 17.8999C33.0999 17.6999 32.2999 17.7 31.4999 17.7C31.3999 17.7 31.3999 17.8 31.3999 17.8C31.8999 18 32.2999 18 32.7999 18L32.6999 17.8999C32.2999 18.1999 31.6999 18.4 31.1999 18.5C31.0999 18.5 31.1999 18.6 31.2999 18.6C32.1999 18.5 33.0999 18.4999 33.9999 18.3999C33.9999 18.2999 33.9999 18.3 33.9999 18.2C33.7999 18.3 33.5999 18.3 33.3999 18.3C33.0999 18.4 32.9999 18.4 33.1999 18.3C33.3999 18.4 34.0999 18.3999 34.3999 18.3999C34.3999 18.2999 34.4999 18.3 34.4999 18.2C34.0999 18.2 33.5999 18.1 33.1999 18C33.0999 18 32.9999 18.1 33.0999 18.1C33.7999 18.3 34.3999 18.3 34.9999 18.1C35.0999 18.1 34.9999 18 34.9999 18C33.8999 18.3 32.6999 18.3 31.5999 18.3C31.4999 18.3 31.4999 18.3 31.5999 18.3Z" fill="#1D1D1B"></path><path d="M33.3001 18.4C32.0001 18.1 30.6001 18.1 29.2001 18.3C29.0001 18.3 29.1001 18.5 29.3001 18.4C30.6001 18.3 31.9001 18.3 33.3001 18.5C33.3001 18.6 33.4001 18.4 33.3001 18.4Z" fill="#1D1D1B"></path><path d="M18.9999 12.5C18.8999 12.3 18.8999 12.2 18.7999 12C18.7999 11.9 18.6999 11.9 18.5999 12C17.8999 12.5 17.4999 13.2 17.3999 13.9C17.3999 14 17.5999 14 17.6999 13.9C17.9999 13.3 18.3999 12.7001 18.7999 12.1001H18.5999C18.6999 12.2001 18.7999 12.3 18.9999 12.5C18.9999 12.5 18.8999 12.5 18.9999 12.5Z" fill="#1D1D1B"></path><path d="M18.4999 13.1C18.4999 13.4 18.3999 13.8 18.3999 14.1C18.3999 14.2 18.5999 14.2 18.5999 14.1C18.6999 13.8 18.6999 13.4 18.7999 13.1C18.8999 13 18.4999 13 18.4999 13.1Z" fill="#1D1D1B"></path><path d="M18.6001 12.4C18.7001 13 18.8001 13.6 19.0001 14.2C19.0001 14.3 19.2001 14.2 19.1001 14.2C19.0001 13.6 18.9001 13 18.7001 12.4C18.8001 12.3 18.6001 12.3 18.6001 12.4Z" fill="#1D1D1B"></path><path d="M18.8 11.9C19.2 12.4 19.7 12.8 20 13.3C20.3 13.7 20.5 14.2 20.6 14.7H20.7C20.8 13.8 20.2 12.4 18.8 11.9Z" fill="#1D1D1B"></path><path d="M18.9999 11.7C18.8999 12.6 19.0999 13.6 19.1999 14.5C19.1999 14.6 19.3999 14.6 19.3999 14.5C19.4999 13.6 19.4999 12.5 18.9999 11.7C18.9999 11.6 19.0999 11.6 18.9999 11.7Z" fill="#1D1D1B"></path><path d="M18.8999 11.9C19.3999 12.8 19.8999 13.7 20.0999 14.7C20.0999 14.8 20.2999 14.8 20.2999 14.7C20.3999 13.7 19.9999 12.6 18.8999 11.9C18.8999 11.9 18.9999 11.8 18.8999 11.9Z" fill="#1D1D1B"></path><path d="M19.0001 11.8C18.2001 12.6 17.8001 13.6 17.9001 14.6C17.9001 14.7 18.1001 14.7 18.2001 14.6C18.4001 13.7 18.7001 12.8 19.3001 12C19.4001 11.8 19.1001 11.7 19.0001 11.8Z" fill="#1D1D1B"></path><path d="M18.9001 11.8C19.3001 12 19.7001 12.2 20.1001 12.5C20.4001 12.8 20.6001 13.1 20.6001 13.5C20.6001 13.6 20.9001 13.6 20.9001 13.5C21.0001 12.7 20.2001 11.8 19.0001 11.7C18.9001 11.7 18.8001 11.8 18.9001 11.8Z" fill="#1D1D1B"></path><path d="M19.1001 11.4C19.3001 10.9 19.3001 10.3 19.4001 9.69997C19.5001 9.09997 19.6001 8.39998 19.7001 7.79998C19.7001 7.69998 19.6001 7.69998 19.6001 7.79998C19.4001 8.39998 19.2001 8.99998 19.1001 9.59998C19.0001 10.1 18.8001 10.8 19.1001 11.4C19.1001 11.4 19.0001 11.4 19.1001 11.4Z" fill="#1D1D1B"></path><path d="M19.1001 10.8C18.8001 9.80003 18.6001 8.80002 18.2001 7.90002H18.1001C18.3001 8.90002 18.7001 9.90002 18.9001 10.9C18.9001 10.9 19.1001 10.9 19.1001 10.8Z" fill="#1D1D1B"></path><path d="M19.2001 11.2C19.2001 10.2 19.0001 9.19999 18.9001 8.09999C18.8001 6.99999 19.2001 6.09999 19.7001 5.09999C19.7001 5.09999 19.6001 4.99999 19.6001 5.09999C18.8001 5.89999 18.7001 6.89998 18.6001 7.79998C18.6001 8.89998 18.8001 10.1 19.0001 11.2C19.0001 11.2 19.2001 11.2 19.2001 11.2Z" fill="#1D1D1B"></path><path d="M19 12.2C18.9 12.8 19.1 13.6 19.3 14.2C19.5 14.9 19.7 15.7 20.1 16.4C20.1 16.5 20.3 16.5 20.3 16.4C20.2 15.7 20 15.1 19.8 14.4C19.6 13.7 19.6 12.9 19.2 12.2C19.1 12.1 19 12.1 19 12.2Z" fill="#1D1D1B"></path><path d="M16.6001 14.1C18.5001 16 20.2001 17.9 20.1001 20.2C20.1001 20.3 20.2001 20.3 20.2001 20.2C20.8001 17.9 18.6001 15.9 16.6001 14.1C16.6001 14.1 16.7001 14.1 16.6001 14.1Z" fill="#1D1D1B"></path><path d="M1.1001 7.09998C1.9001 8.29998 2.5001 9.39997 3.8001 10.5C5.2001 11.7 7.0001 12.8 8.8001 13.7C8.9001 13.7 9.0001 13.7 8.9001 13.6C7.4001 12.6 5.7001 11.6 4.3001 10.5C2.9001 9.49997 2.1001 8.29998 1.1001 7.09998Z" fill="#1D1D1B"></path><path d="M10.1001 14.9C10.8001 15.7 12.4001 16.3 13.6001 16.8C14.3001 17.1 15.0001 17.3 15.8001 17.5C16.6001 17.7 17.5001 18 17.9001 18.5H18.0001C17.7001 17.6 15.8001 17.4 14.7001 17C13.9001 16.7 13.1001 16.4 12.4001 16.1C11.6001 15.7 11.0001 15.2 10.1001 14.9Z" fill="#1D1D1B"></path><path d="M16.9001 18.3C16.5001 18.1 16.2001 17.9 15.8001 17.8C15.7001 17.8 15.6001 17.8 15.7001 17.9C16.2001 18.3 16.9001 18.6 17.6001 18.8C17.7001 18.8 17.7001 18.8 17.7001 18.7C17.4001 18.4 16.9001 18.1 16.5001 17.9C16.1001 17.7 15.6001 17.4 15.1001 17.3C15.1001 17.3 15.0001 17.3 15.1001 17.3C15.5001 17.5 16.0001 17.8 16.4001 18C16.8001 18.2 17.2001 18.5 17.6001 18.8C17.6001 18.8 17.6001 18.8 17.7001 18.7C17.0001 18.5 16.4001 18.2 15.9001 17.8C15.9001 17.8 15.8001 17.8 15.8001 17.9C16.2001 18 16.6001 18.2 16.9001 18.4C16.9001 18.4 17.0001 18.3 16.9001 18.3Z" fill="#1D1D1B"></path><path d="M17.5 18.1C17.3 17.6 16.7 16.8 15.8 16.7C16 16.9 16.3 17.1 16.5 17.3C16.8 17.5 17 17.8 17.2 18.1C17.3 18.3 17.6 18.2 17.5 18.1Z" fill="#1D1D1B"></path><path d="M17.7 18C18.7 17.7 16.6 16.6 16.3 16.4L16.2 16.5C17.2 16.6 16.9 17.5 17.1 18C17.3 18.4 17.8 18.8 17.7 19.2C17.8 19.2 17.9 19.2 17.9 19.2C17.6 18.8 17.2 18.6 16.6 18.5C16.5 18.5 16.4 18.6001 16.4 18.6001C16.6 18.9001 16.9 19 17.3 19.2C17.4 19.3 17.6 19.1001 17.5 19.1001C16.7 18.6001 15.6 18 14.5 18C14.9 18.2 15.4 18.3 15.9 18.5C16.4 18.7 16.9 18.9 17.4 19.2C17.5 19.2 17.5 19.1001 17.6 19.1001C17.3 18.9001 17 18.8 16.8 18.5C16.7 18.5 16.7 18.6001 16.6 18.6001C17.1 18.7001 17.5 18.9 17.8 19.2C17.9 19.3 18 19.2 18 19.2C18 19 17.9 18.8 17.8 18.5C17.7 18.3 17.5 18.1 17.4 17.9C17.3 17.6 17.3 17.3 17.3 17C17.2 16.6 16.9 16.3 16.3 16.3C16.2 16.3 16.2 16.4 16.2 16.4C16.4 16.5 18.1 17.6 17.6 17.8C17.5 17.9 17.6 18 17.7 18Z" fill="#1D1D1B"></path><path d="M15.9 17.8C15.3 17.5 14.8 17.2 14.2 17L15.9 17.8C15.9 17.8 15.9 17.9 15.9 17.8Z" fill="#1D1D1B"></path><path d="M15.9 16.8C15.3 16.6 14.7 16.3 14.1 16.2C14 16.2 14 16.2 14 16.3C14.6 16.6 15.2 16.8 15.8 17C15.9 16.9 16 16.8 15.9 16.8Z" fill="#1D1D1B"></path><path d="M17.1001 17.5C16.7001 17 16.2001 16.6 15.5001 16.3C15.0001 16.1 14.3001 15.7 13.6001 15.7C14.1001 16 14.8001 16.1 15.3001 16.3C16.0001 16.6 16.5001 17 17.0001 17.5C17.0001 17.6 17.1001 17.5 17.1001 17.5Z" fill="#1D1D1B"></path><path d="M16.2001 16.7C16.4001 16.9 16.7001 17 17.1001 17C17.2001 17 17.3001 16.8999 17.2001 16.8999C16.1001 16.3999 14.8001 16 13.5001 15.7C13.4001 15.7 13.3001 15.8 13.4001 15.8C14.7001 16.1 15.8001 16.5 17.0001 17V16.8999C16.8001 16.7999 16.6001 16.7 16.2001 16.7C16.2001 16.7 16.3001 16.6 16.2001 16.7Z" fill="#1D1D1B"></path><path d="M7.90011 12.5C8.10011 13 8.40011 13.5 8.90011 14C9.00011 14.1 9.30011 14 9.20011 13.9C8.10011 12.7 6.70011 11.4 4.90011 10.6C4.80011 10.5 4.60011 10.7 4.70011 10.7C6.20011 11.7 7.70011 12.7 8.80011 13.9C8.90011 13.9 9.00011 13.8 9.10011 13.8C8.70011 13.5 8.30011 13 7.90011 12.5C7.90011 12.5 8.00011 12.5 7.90011 12.5Z" fill="#1D1D1B"></path><path d="M7.70011 13.3999C7.80011 13.4999 7.80011 13.5 7.90011 13.6C8.00011 13.6 8.00011 13.5 8.00011 13.5C7.20011 13.3 6.50011 13.1 5.80011 12.8C5.20011 12.6 4.70011 12.3 4.10011 12.2C4.10011 12.2 4.00011 12.2 4.10011 12.3C4.60011 12.7 5.30011 12.9 6.00011 13.1C6.70011 13.3 7.40011 13.5 8.10011 13.7C8.20011 13.7 8.30011 13.6 8.20011 13.6C8.10011 13.5 8.10011 13.4999 8.00011 13.3999C7.80011 13.1999 7.60011 13.2999 7.70011 13.3999Z" fill="#1D1D1B"></path><path d="M8.39997 13.5C7.69997 13.2 6.99997 12.9001 6.29997 12.6001C5.69997 12.3001 5.09997 12 4.39997 11.8C4.29997 11.8 4.19997 11.9 4.29997 11.9C5.19997 12.7 6.99997 13.1001 8.29997 13.6001C8.39997 13.7001 8.49997 13.6 8.39997 13.5Z" fill="#1D1D1B"></path><path d="M7.80001 13.2C7.00001 12.8 6.2 12.4999 5.7 11.8999C5.6 11.7999 5.50001 11.5 5.30001 11.6C5.20001 11.6 5.1 11.6 5.2 11.7C5.2 11.7 5.3 11.7 5.2 11.7C5.1 11.7 5.1 11.8 5.2 11.8L5.30001 11.8999C5.40001 11.9999 5.5 12.1 5.6 12.2C5.8 12.4 6 12.5 6.2 12.7C6.6 12.9 7.10001 13.2 7.80001 13.2C7.90001 13.2 7.80001 13.3 7.80001 13.2Z" fill="#1D1D1B"></path><path d="M8.1999 13.7C8.2999 13.8 8.3999 13.8 8.4999 13.9H8.5999C9.1999 13.6 8.4999 12.9 8.2999 12.6C7.8999 11.9 7.2999 11.1 6.4999 10.6C6.3999 10.6 6.3999 10.6 6.3999 10.6C6.7999 11.1 7.2999 11.6 7.6999 12.1C7.8999 12.4 8.0999 12.7 8.2999 13C8.3999 13.3 8.6999 13.8 8.1999 13.7C8.0999 13.7 8.1999 13.6 8.1999 13.7Z" fill="#1D1D1B"></path><path d="M35.3001 18.5C36.1001 18.3 36.8001 18.1 37.6001 17.9C38.6001 17.7 39.5001 17.7 40.5001 17.7C40.6001 17.7 40.6001 17.6 40.5001 17.6C39.6001 17.5 38.6001 17.6 37.7001 17.7C36.9001 17.8 35.8001 18 35.3001 18.5C35.2001 18.5 35.2001 18.4 35.3001 18.5Z" fill="#1D1D1B"></path><path d="M35.2001 18.7C36.2001 18.5 37.3001 18.4 38.4001 18.3C39.4001 18.3 40.4001 18.3 41.3001 18.3C41.4001 18.3 41.4001 18.2 41.3001 18.2C39.3001 17.8 37.0001 18.1 35.1001 18.5C35.0001 18.6 35.0001 18.7 35.2001 18.7Z" fill="#1D1D1B"></path><path d="M36.6001 18.6C37.3001 18.3 38.1001 18.1 38.9001 18C39.7001 17.9 40.6001 18 41.4001 17.9C41.6001 17.9 41.6001 17.8 41.4001 17.7C39.8001 17.3 37.7001 17.8 36.4001 18.4C36.3001 18.6 36.4001 18.7 36.6001 18.6Z" fill="#1D1D1B"></path><path d="M35.0999 18.6C36.7999 17.5 38.9999 17.1 41.3999 17.1C41.4999 17.1 41.4999 17 41.3999 17C38.9999 16.6 36.4999 17.3 34.9999 18.5C34.8999 18.6 35.0999 18.6 35.0999 18.6Z" fill="#1D1D1B"></path></svg> 