<?xml version="1.0" encoding="UTF-8"?> <svg xmlns="http://www.w3.org/2000/svg" width="50" height="58" viewBox="0 0 50 58" fill="none"><path d="M24.7 46.4C25 46.7 25.8 46.5 26 46.9C26.3 47.3 26 47.9 26 48.3C25.9 49.3 25.9 50.2 25.8 51.2C25.7 52.1 25.3 53 25.5 53.9C25.7 55 25.8 56 25.8 57.1C25.8 57.3 26.3 57.3 26.3 57.1C26.4 55.9 26.1 54.7 26 53.4C25.9 52.8 26.2 52.3 26.3 51.7C26.4 51.2 26.4 50.6 26.5 50.1C26.5 49.5 26.6 49 26.6 48.4C26.6 47.9 26.8 47.3 26.6 46.9C26.4 46.3 25.7 46 24.7 46.4C24.7 46.3 24.7 46.3 24.7 46.4Z" fill="#1D1D1B"></path><path d="M25.5 46.4C25.4 46.2 25 46 24.7 46.2C24.1 46.5 24.4 47.3 24.5 47.6C24.8 48.4 25.2 49.2 25.3 50C25.4 50.9 25.4 51.7 25.4 52.6C25.4 52.8 25.8 52.8 25.8 52.6C26.2 51.3 26.3 50 26.4 48.7C26.4 48 26.9 46.7 25.7 46.3C25.5 46.2 25.3 46.3 25.4 46.5C25.5 47.1 25.6 47.6 25.8 48.2C25.8 48.4 26.3 48.3 26.3 48.2C26.3 47.6 26.1 47.1 25.7 46.6C25.6 46.5 25.4 46.5 25.3 46.6C25.1 46.9 25.1 47.2 25.3 47.6C25.4 47.7 25.7 47.7 25.7 47.6C25.8 47.1 25.7 46.7 25.3 46.4C25.2 46.3 24.9 46.3 24.9 46.4C24.8 46.7 24.6 47.1 25.1 47.3C25.2 47.3 25.3 47.3 25.4 47.3C25.7 47.2 25.6 46.8 25.5 46.4C25.5 46.4 25.4 46.3 25.2 46.4C24.7 46.4 24.4 46.7 24.4 47C24.4 47.2 24.6 47.4 24.7 47.6C25.1 48.1 25.1 48.5 25.2 49C25.4 49 25.5 49 25.7 49C25.5 48.5 25.4 48 25.2 47.5C25.1 47.3 24.7 47.4 24.8 47.6C24.9 48.1 25.1 48.6 25.3 49.1C25.4 49.3 25.8 49.3 25.8 49.1C25.9 48.6 25.9 48.1 25.7 47.6C25.6 47.4 25.3 47.5 25.3 47.6C25.3 48.1 25.4 48.6 25.5 49.1C25.6 49.3 26 49.2 26 49.1C26 48.6 26 48.2 25.8 47.7C25.8 47.5 25.3 47.6 25.4 47.7C25.5 48.7 25.9 49.9 25.5 50.9C25.7 50.9 25.8 50.9 26 50.9C26 50.1 26.1 49.3 26.1 48.5C26.1 48.3 25.8 48.3 25.7 48.5C25.5 49.3 25.5 50.1 25.5 50.9C25.5 51.1 25.9 51.1 26 50.9C26.4 49.8 26 48.7 25.8 47.6C25.7 47.6 25.5 47.6 25.4 47.6C25.5 48 25.6 48.5 25.5 48.9C25.7 48.9 25.8 48.9 26 48.9C25.9 48.4 25.8 47.9 25.7 47.5C25.6 47.5 25.4 47.5 25.3 47.5C25.5 48 25.5 48.4 25.3 48.8H25.8C25.6 48.3 25.4 47.8 25.2 47.3C25.1 47.3 24.9 47.4 24.8 47.4C25 47.9 25.1 48.4 25.3 48.9C25.3 49.1 25.8 49 25.8 48.9C25.8 48.6 25.8 48.2 25.6 47.9C25.5 47.6 24.6 46.6 25.4 46.6C25.3 46.6 25.2 46.5 25.1 46.5C25.1 46.9 25.2 46.9 25.3 46.4C25.2 46.4 25 46.4 24.9 46.4C25.2 46.7 25.4 47 25.3 47.4C25.4 47.4 25.6 47.4 25.7 47.4C25.5 47.1 25.5 46.9 25.7 46.7C25.6 46.7 25.4 46.7 25.3 46.7C25.7 47.2 25.9 47.6 25.8 48.2H26.3C26.2 47.6 26.1 47 25.9 46.5C25.8 46.6 25.7 46.6 25.6 46.7C26.3 47 26.1 47.7 26.1 48.1C26.1 48.6 26.1 49.1 26 49.5C25.9 50.6 25.8 51.6 25.5 52.6C25.6 52.6 25.8 52.6 25.9 52.6C25.9 51.6 26 50.6 25.8 49.6C25.7 49.1 25.6 48.7 25.4 48.2C25.3 48 25.2 47.7 25.1 47.5C25 47.3 25 47.1 24.9 46.9C24.8 46.7 25 46.5 25.4 46.4C25.3 46.6 25.5 46.5 25.5 46.4Z" fill="#1D1D1B"></path><path d="M24.5999 46.6C24.4999 47.3 24.6999 48 23.7999 48.5C23.0999 48.8 22.2999 48.9 21.5999 49.1C20.8999 49.3 20.1999 49.5 19.5999 49.9C18.6999 50.3 18.1999 50.9 17.1999 51.2C15.6999 51.6 14.7999 52.6 13.8999 53.4C12.9999 54.3 11.6999 55.4 12.3999 56.5C12.4999 56.6 12.7999 56.6 12.7999 56.5C12.7999 55.1 14.0999 54 15.3999 52.9C15.9999 52.4 16.5999 51.9 17.5999 51.6C18.3999 51.4 18.7999 51.1 19.3999 50.7C20.0999 50.2 20.8999 49.9 21.7999 49.6C22.4999 49.4 23.1999 49.3 23.7999 49.1C24.2999 48.9 24.6999 48.7 24.9999 48.4C25.3999 47.9 25.0999 47.3 24.9999 46.8C24.8999 46.5 24.5999 46.5 24.5999 46.6Z" fill="#1D1D1B"></path><path d="M15.6 52.2C15.1 52.6 15.1999 53.1 15.3999 53.5C15.4999 53.8 15.7 54.2 15.8 54.5C15.9 54.9 15.8999 55.3 15.9999 55.7C16.0999 55.9 16.3999 55.8 16.3999 55.7V55.6C16.3999 55.6 16.4 55.5 16.3 55.5H16.1999C16.2999 55.6 16.2999 55.6 16.3999 55.7C16.8999 54.5 15.3999 53.4 15.8999 52.2C15.8999 52.2 15.7 52.1 15.6 52.2Z" fill="#1D1D1B"></path><path d="M24.7999 47.5C24.3999 48.4 23.8999 49.2 23.0999 49.9C22.2999 50.7 21.3999 51.4 20.5999 52.2C19.4999 53.3 17.8999 55.3 19.1999 56.6C19.2999 56.7 19.4999 56.7 19.4999 56.5C19.4999 55.6 19.2999 54.8 19.7999 54C20.2999 53.1 21.0999 52.4 21.9999 51.7C23.3999 50.5 25.0999 49.2 24.9999 47.6C24.9999 47.5 24.7999 47.5 24.7999 47.5Z" fill="#1D1D1B"></path><path d="M22.7 50.5C22.2 50.9 22 51.4 22 51.9C22 52.2 22.1 52.5 22.1 52.8C22.1 53.2 21.8 53.5 21.7 53.8C21.7 53.9 21.7999 54 21.8999 53.9C22.5999 53.8 22.7 53.2 22.7 52.8C22.7 52 22.2999 51.2 22.8999 50.5C22.9999 50.5 22.8 50.5 22.7 50.5Z" fill="#1D1D1B"></path><path d="M22.7999 50.3C22.1999 50.9 21.1999 51.4 20.0999 51.6C19.4999 51.7 18.7999 51.9 19.1999 52.4H19.3999C19.6999 52 20.2999 52 20.7999 51.9C21.0999 51.8 21.3999 51.7 21.6999 51.6C22.2999 51.3 22.6999 50.9 22.9999 50.5C23.0999 50.3 22.8999 50.2 22.7999 50.3Z" fill="#1D1D1B"></path><path d="M22.4001 48.8001C20.7001 48.9001 18.3001 48.8001 16.9001 48.0001C16.2001 47.6001 15.1001 46.6 14.0001 47.2C13.8001 47.3 14.0001 47.5001 14.2001 47.5001C15.4001 47.2001 15.9001 48 16.6001 48.4C17.1001 48.6 17.7001 48.8 18.3001 48.9C19.6001 49.1 21.2001 49.4 22.4001 48.9C22.5001 48.9 22.5001 48.8001 22.4001 48.8001Z" fill="#1D1D1B"></path><path d="M17.8999 48.7C17.1999 48.6 16.5 48.6 15.8 48.4C15.1 48.3 14.5 48.1 13.8 48C13.1 47.9 12.2 48 12.2 48.6C12.2 48.7 12.2999 48.7 12.3999 48.7C13.3999 48.2 14.3999 48.6 15.3999 48.8C16.1999 48.9 17 49 17.8 48.9C18 48.8 18.0999 48.7 17.8999 48.7Z" fill="#1D1D1B"></path><path d="M21.3001 49.2C20.0001 48.9 18.5001 49.7 17.3001 49.9C15.7001 50.2 14.1001 50.2 12.5001 50.1C11.2001 50 9.6001 49.8 8.3001 50.2C7.8001 50.4 7.30011 50.9 8.10011 51C8.20011 51 8.3001 50.9 8.3001 50.9C8.2001 50.3 11.5001 50.6 12.0001 50.6C13.1001 50.7 14.2001 50.7 15.4001 50.6C16.4001 50.5 17.5001 50.4 18.4001 50.1C19.4001 49.8 20.4001 49.6 21.3001 49.3C21.4001 49.3 21.3001 49.2 21.3001 49.2Z" fill="#1D1D1B"></path><path d="M15.3999 50.3C14.4999 50.4 13.7999 50.5 13.0999 51C12.3999 51.5 12.0999 52.1 11.1999 52.5C10.8999 52.6 11.0999 52.9 11.3999 52.9C12.1999 52.8 12.5999 52.3 12.9999 51.9C13.5999 51.2 14.2999 50.8 15.4999 50.6C15.6999 50.4 15.5999 50.2 15.3999 50.3Z" fill="#1D1D1B"></path><path d="M12.8 50.5C12.8 50.3 12.6 50.1 12.4 49.9C12.2 49.7 11.8 49.5 11.5 49.6C11.4 49.6 11.3 49.7 11.3 49.8C11.5 49.9 11.7 50 11.9 50.2C12.1 50.3 12.3 50.5 12.4 50.7C12.5 50.7 12.8 50.6 12.8 50.5Z" fill="#1D1D1B"></path><path d="M16.4999 48.5C15.2999 48.4 13.9999 49 13.8999 49.8C13.8999 49.9 14.0999 49.9 14.1999 49.8C14.5999 49.2 15.3999 48.7 16.4999 48.6C16.5999 48.7 16.5999 48.6 16.4999 48.5Z" fill="#1D1D1B"></path><path d="M13.6001 53.4C13.2001 54 12.1001 53.9 11.3001 54.1C11.2001 54.1 11.2001 54.2 11.3001 54.2C12.3001 54.4 13.5001 54.1 13.8001 53.4C13.8001 53.4 13.6001 53.4 13.6001 53.4Z" fill="#1D1D1B"></path><path d="M25.4999 49.4C25.4999 50.1 25.3999 50.9001 25.0999 51.6001C24.7999 52.4001 24.2999 53.0001 23.6999 53.6001C22.7999 54.5001 22.3999 55.8001 23.6999 56.6001C23.7999 56.7001 23.8999 56.6 23.8999 56.5C23.5999 55.8 23.2999 55.2 23.5999 54.5C23.8999 53.9 24.6999 53.3 25.0999 52.7C25.7999 51.6 25.7999 50.5 25.5999 49.3C25.5999 49.4 25.4999 49.4 25.4999 49.4Z" fill="#1D1D1B"></path><path d="M23.1001 55C22.8001 55.4 22.7001 55.7 22.4001 56.1C22.0001 56.5 21.5001 56.7 21.0001 57C20.8001 57.1 21.0001 57.2 21.2001 57.2C22.4001 57.1 23.6001 55.8 23.3001 55.1C23.2001 55 23.1001 54.9 23.1001 55Z" fill="#1D1D1B"></path><path d="M24 53.6C24.2 53.7 24.2 54.1 24.2 54.2C24.2 54.4 24.3 54.6 24.4 54.8C24.4 54.9 24.6 54.9 24.6 54.8C24.7 54.5 24.8 53.3 24 53.5C24 53.5 24 53.6 24 53.6Z" fill="#1D1D1B"></path><path d="M25.8 52.1C26.1 53.2 26.6 54.4 27.4 55.4C27.7 55.8 28.1 56.1 28.7 56.4C29.3 56.7 30 56.7 30.7 57C30.8 57.1 31 57 31 56.9C30.9 56.6 30.6 56.6 30.2 56.5C29.2 56.3 28.5 55.9 28 55.3C27.2 54.3 26.9 53.1 26 52.1C25.9 52 25.8 52.1 25.8 52.1Z" fill="#1D1D1B"></path><path d="M27.3 55.1C27.6 55.5 28.1 55.8 28.7 56C29.2 56.2 29.9 56.3 30.5 56.1C30.6 56.1 30.6 56 30.5 55.9C30 55.8 29.4 55.8 28.9 55.6C28.4 55.4 27.9 55.2 27.6 54.9C27.4 54.9 27.2 55 27.3 55.1Z" fill="#1D1D1B"></path><path d="M26.2 49.2C26.5 50.8 28.4 51.8 30.3 52.6C31.5 53.1 32.7 53.6 33.8 54.2C34.4 54.5 35.1 54.9 35.6 55.3C36.1 55.7 36.1999 56.2 36.3999 56.7C36.3999 56.8 36.6 56.8 36.7 56.7C37.6 55.2 34.1 53.8 32.6 53.2C30.2 52.1 27.1999 51.2 26.3999 49.2C26.3999 49.1 26.2 49.1 26.2 49.2Z" fill="#1D1D1B"></path><path d="M32.9999 53.5C33.7999 54 34.4999 54.4 35.5999 54.7C36.5999 55 37.6999 55.2 38.7999 55.3C38.9999 55.3 39.0999 55.2 38.9999 55.1C38.5999 54.6 37.1999 54.6 36.4999 54.5C35.2999 54.3 34.1999 53.9 33.0999 53.4C32.9999 53.4 32.8999 53.5 32.9999 53.5Z" fill="#1D1D1B"></path><path d="M28.8001 51.7C28.6001 52.4 29.5001 53.4 30.2001 54C30.6001 54.3 31.0001 54.6 31.3001 54.9C31.8001 55.3 32.2001 55.8 32.7001 56.2C32.8001 56.3 33.1001 56.3 33.1001 56.1C33.1001 55.3 32.0001 54.7 31.3001 54.1C30.8001 53.7 30.4001 53.3 30.0001 52.8C29.7001 52.4 29.5001 51.9 29.1001 51.5C28.9001 51.7 28.8001 51.7 28.8001 51.7Z" fill="#1D1D1B"></path><path d="M27.6999 50.8C27.2999 49.8 26.8999 48.8 26.5999 47.8C26.5999 47.7 26.1999 47.7 26.0999 47.8C25.8999 48.6 25.9999 49.4 26.4999 50.2C26.5999 50.4 26.9999 50.2 26.8999 50.1C26.7999 49.8 26.6999 49.4 26.5999 49.1C26.4999 49.1 26.2999 49.1 26.1999 49.2C26.2999 49.5 26.3999 49.8 26.4999 50.1C26.5999 50.3 26.9999 50.2 26.8999 50.1C26.7999 49.4 26.5999 48.8 26.3999 48.2C26.2999 48.2 26.0999 48.2 25.9999 48.3C26.1999 48.8 26.9999 49.1 27.6999 49.2C28.9999 49.5 30.2999 49.8 31.5999 50.1C34.1999 50.7 36.4999 51.5 38.0999 52.9C38.2999 53.1 38.6999 52.9 38.4999 52.7C37.5999 51.4 35.4999 50.6 33.5999 50.1C32.3999 49.8 31.1999 49.5 29.9999 49.3C28.7999 49.1 27.0999 48.9 26.2999 48.1C26.1999 48 25.8999 48 25.8999 48.2C26.0999 48.8 26.2999 49.4 26.3999 50.1C26.4999 50.1 26.6999 50.1 26.7999 50.1C26.6999 49.8 26.4999 49.5 26.3999 49.2C26.2999 49 25.9999 49.1 25.9999 49.3C26.0999 49.7 26.1999 50 26.2999 50.4L26.7999 50.3C26.3999 49.6 26.1999 48.9 26.3999 48.1H25.8999C26.1999 49.1 26.5999 50.1 27.0999 51.1C27.4999 51 27.7999 50.9 27.6999 50.8Z" fill="#1D1D1B"></path><path d="M26.8999 48.3C28.5999 49.2 30.7999 49.6 32.8999 50C33.9999 50.2 35.0999 50.3 36.1999 50.5C37.2999 50.7 38.8999 50.7 39.3999 51.5C39.4999 51.6 39.6999 51.6 39.6999 51.5C39.9999 51 39.2999 50.7 38.5999 50.5C37.3999 50.2 35.9999 50.1 34.7999 49.9C32.0999 49.5 29.4999 49 26.8999 48.3C26.7999 48.3 26.8999 48.3 26.8999 48.3Z" fill="#1D1D1B"></path><path d="M29 48.9C30.5 49.4 32.7 49.2 34.2 49C35.2 48.9 36.1001 48.7 37.1001 48.5C38.2001 48.3 39.2 48.2 40.4 48.3C40.6 48.3 40.7 48.1 40.5 48C38.8 47.5 36.9 48.1 35.2 48.4C34.2 48.6 33.1 48.7 32 48.8C31 48.8 30 48.7 29 48.8C28.9 48.8 28.9 48.9 29 48.9Z" fill="#1D1D1B"></path><path d="M36.9001 48.4999C37.2001 48.7999 37.5001 48.8999 38.0001 48.9999C38.4001 49.0999 38.8001 49.1999 39.2001 48.9999C39.3001 48.9999 39.3001 48.8999 39.2001 48.8999C38.9001 48.7999 38.5001 48.6999 38.2001 48.6999C37.8001 48.5999 37.4001 48.4999 37.0001 48.3999C36.9001 48.2999 36.8001 48.3999 36.9001 48.4999Z" fill="#1D1D1B"></path><path d="M32.3999 49C32.7999 49.5 34.2999 48.2 34.4999 47.9C34.4999 47.9 34.4999 47.8 34.3999 47.8C33.9999 47.9 33.7999 48.2 33.4999 48.3C33.2999 48.5 32.7999 49 32.3999 49C32.3999 48.9 32.3999 48.9 32.3999 49Z" fill="#1D1D1B"></path><path d="M27.5 48.7C28.4 48.9 29.6 49 30.4 48.6C30.5 48.6 30.5001 48.4 30.3001 48.4C29.8001 48.4 29.4 48.5 28.9 48.5C28.4 48.5 28 48.5 27.5 48.5C27.4 48.5 27.4 48.7 27.5 48.7Z" fill="#1D1D1B"></path><path d="M32 49.8C32.4 50.2 32.9 50.4 33.2 50.8C33.6 51.2 33.8 51.7 34.1 52.2C34.1 52.3 34.3 52.2 34.3 52.2C34.2 51.4 33.5 49.8 32 49.8Z" fill="#1D1D1B"></path><path d="M26.8999 49.3C27.7999 50.6 29.3999 51.4 31.6999 51.2C31.7999 51.2 31.7999 51.1 31.6999 51.1C30.7999 50.9 29.8999 51 28.9999 50.7C28.0999 50.4 27.5999 49.9 27.0999 49.3C26.9999 49.1 26.8999 49.2 26.8999 49.3Z" fill="#1D1D1B"></path><path d="M29.9 50.9C30.2 51 30.4 51.3 30.6 51.5C30.8 51.7 31 51.9001 31.2 52.1001C31.3 52.1001 31.4 52.1 31.3 52C31.2 51.7 30.9 51.4001 30.7 51.1001C30.5 50.9001 30.3 50.8 29.9 50.8C29.8 50.8 29.8 50.9 29.9 50.9Z" fill="#1D1D1B"></path><path d="M30.6001 52.4C31.5001 52.7 32.9001 53.1 33.9001 52.8V52.7C33.5001 52.6 33.0001 52.6001 32.6001 52.6001C32.0001 52.5001 31.3001 52.5 30.7001 52.3C30.5001 52.3 30.5001 52.4 30.6001 52.4Z" fill="#1D1D1B"></path><path d="M30.1 53.8C30.8 54 31.7 54.3 32.1 54.8C32.1 54.9 32.3 54.8 32.3 54.8C32.2 54.5 32 54.3 31.7 54.1C31.3 53.9 30.8 53.8 30.3 53.7C30.1 53.6 30 53.7 30.1 53.8Z" fill="#1D1D1B"></path><path d="M27.7 51.2C27.8 51.7 28 52.1 28 52.6C28 52.6 28.1 52.7 28.1 52.6C28.3 52.1 28.3 51.5 27.8 51.1C27.7 51.1 27.7 51.2 27.7 51.2Z" fill="#1D1D1B"></path><path d="M15.8 54C15.9 54.4 16.4 54.8 17 54.8C17.1 54.8 17.2001 54.7 17.1001 54.6C16.9001 54.5 16.7 54.4 16.5 54.3C16.3 54.2 16.1 54.1 16 53.9C15.9 53.9 15.8 54 15.8 54Z" fill="#1D1D1B"></path><path d="M26.6999 47.4C26.7999 46.6 26.6999 45.8 26.5999 45.1C26.5999 44.5 26.5999 43.9 26.3999 43.3C25.9999 42 24.4999 41.4 23.4999 40.3C22.3999 39.1 22.1999 37.7 22.0999 36.4C21.8999 34.9 21.4999 33.4 22.1999 32C22.2999 31.8 21.8999 31.7 21.7999 31.9C21.6999 32 21.6999 32.1 21.5999 32.1C21.4999 32.2 21.6999 32.3 21.8999 32.2C21.9999 32.1 22.0999 32.1 22.1999 32C22.0999 31.9 21.8999 31.9 21.7999 31.8C21.0999 33.1 21.4999 34.5 21.5999 35.9C21.7999 37.2 21.8999 38.5 22.5999 39.7C22.8999 40.2 23.2999 40.7 23.8999 41.1C24.5999 41.6 25.3999 42.1 25.7999 42.7C26.2999 43.4 26.2999 44.2 26.2999 45C26.2999 45.8 26.3999 46.6 26.4999 47.4C26.3999 47.5 26.6999 47.6 26.6999 47.4Z" fill="#1D1D1B"></path><path d="M21.9 32.1C22 32.1 22 32.1 22 32.1C22.1 32.1 22.1 32 22.1 32C22.1 32 22.1 31.9 22 31.9C21.4 31.9 20.9 32.6 20.7 32.9C20.2 33.5 19.9 34.1 19.6 34.7C19 36 18.8 37.3 19.1 38.6C19.4 40 20.2 41.3 21.4 42.5C22.2 43.3 22.9 44 23.4 44.9C23.9 45.7 24 46.6 24.5 47.3C24.5 47.4 24.7 47.4 24.8 47.3C25.1 46.1 24.1 44.6 23.2 43.6C22.1 42.3 20.8 41.2 20.1 39.8C19.5 38.5 19.4 37.2 19.6 35.9C19.7 35.2 20 34.6 20.3 34C20.5 33.7 20.7 33.4 21 33C21.1 32.9 21.7 32 21.9 32.1C21.8 32.1 21.8 32 21.9 32.1Z" fill="#1D1D1B"></path><path d="M45 22.4C44.4 23.5 43.7 24.4 42.6 25.3C41.5 26.2 40.1 26.7 38.6 27.3C36 28.3 34.3 29.6 32.9 31.3C31.5 33 30.1 34.7 28.4 36.3C27.5 37.1 26.5 37.9 25.8 38.8C25.2 39.5 24.3 40.5 24.4 41.3C24.4 41.4 24.7 41.5 24.8 41.4C25.1 41 25.3 40.6 25.5 40.1C25.8 39.6 26.2 39.1 26.6 38.7C27.4 37.8 28.4 37 29.3 36.2C31.1 34.6 32.3 32.9 33.8 31.2C34.6 30.3 35.4 29.5 36.5 28.8C37.7 28.1 39.2 27.6 40.5 26.9C42.7 25.8 44.6 24.1 45.1 22.4C45.2 22.4 45 22.3 45 22.4Z" fill="#1D1D1B"></path><path d="M44.9 22.5C44.1 24 43.7 25.6 42.5 27.1C41.9 27.8 41.2 28.5 40.3 29.1C39.4 29.7 38.3 30.1 37.4 30.7C36.6 31.2 36 31.9 35.5 32.6C34.8 33.4 34.1 34.2 33.3 35C31.8 36.5 30.2 38 28.6 39.5C27.8 40.2 27 41 26.6 41.8C26.2 42.7 26.3 43.6 26.6 44.5C26.6 44.6 26.9 44.6 26.9 44.5C26.7 43.3 26.9 42.1 27.8 41C28.7 40 29.8 39.1 30.8 38.2C32.8 36.3 34.7 34.5 36.3 32.4C37.1 31.4 38.2 30.8 39.5 30.1C40.7 29.5 41.6 28.8 42.4 28C43.9 26.4 44.6 24.4 44.9 22.6C45.1 22.5 44.9 22.5 44.9 22.5Z" fill="#1D1D1B"></path><path d="M26.7 46.5C27 44.5 27.3 41.5999 31.2 41.3999C32.7 41.2999 34.4 41.3999 35.8 41.6999C37.2 41.9999 38.3 42.8 39.8 43C39.8 42.9 39.8 42.7 39.7 42.6C38.3 43.2 35.9 43.9999 34.5 42.8999C33.9 42.3999 33.4 41.0999 32 41.6999C31.4 41.9999 31.4 42.4999 31 42.8999C30.5 43.3999 29.5 43.6 28.6 43.8C27.5 44.1 26.4 44.4 26.2 45.3C26.2 45.5 26.6 45.5 26.7 45.3C27.3 44.3 29 44.3 30.3 43.8C30.8 43.6 31.2 43.4 31.5 43.1C31.7 42.9 31.7 42.7 31.9 42.5C32.1 42.3 32.4 41.9 32.9 42C33.2 42.1 33.4 42.4 33.5 42.5C34 43.2 34.8 43.7 36.1 43.8C37.6 43.9 38.9 43.3999 40 42.8999C40.2 42.7999 40.2 42.6 39.9 42.5C38.9 42.4 38.3 41.9 37.4 41.6C36.7 41.3 35.8 41.2 35 41.1C33.4 40.9 31.4 40.7 29.8 41.1C26.5 41.9 26.1 44.4999 26.2 46.3999C26.3 46.5999 26.7 46.6 26.7 46.5Z" fill="#1D1D1B"></path><path d="M39.8001 42.6C39.6001 42.5 39.6001 42.5 39.4001 42.6C39.2001 42.7 39.3001 42.9 39.5001 42.9C40.8001 42.9 42.0001 42.4 43.1001 41.9C44.7001 41.3 46.3001 41.2 48.1001 41.1C48.0001 41 47.9001 40.9 47.9001 40.7C46.9001 41.3 46.4001 42.2 45.1001 42.6C44.2001 42.9 43.0001 42.7 42.1001 42.7C41.2001 42.7 40.3001 42.6 39.4001 42.4C39.2001 42.3 39.0001 42.5 39.1001 42.6C39.5001 43 40.3001 43.1 41.0001 43.1C42.1001 43.2 43.4001 43.3 44.5001 43.2C46.4001 43 47.0001 41.8 48.3001 41C48.5001 40.9 48.3001 40.6 48.1001 40.6C46.6001 40.6 45.0001 40.7 43.6001 41.1C42.2001 41.6 41.1001 42.2 39.5001 42.5C39.6001 42.6 39.7001 42.6 39.8001 42.7C39.8001 42.7 39.9001 42.7 39.9001 42.6C39.8001 42.7 39.8001 42.6 39.8001 42.6Z" fill="#1D1D1B"></path><path d="M47.8001 41.2C48.1001 41.1 48.4001 41 48.6001 40.9C48.9001 40.8 49.2001 40.7 49.4001 40.6C49.5001 40.6 49.4001 40.5 49.3001 40.5C48.8001 40.6 48.1001 40.9 47.8001 41.2C47.7001 41.3 47.7001 41.2 47.8001 41.2Z" fill="#1D1D1B"></path><path d="M47.5 41C48.1 40.9 48.8 40.9 49.4 40.7V40.6C48.7 40.6 48.1 40.8 47.5 41C47.5 41 47.4 41 47.5 41Z" fill="#1D1D1B"></path><path d="M9.89989 20.6C11.5999 20.5 13.5999 20.5 15.2999 20.7C16.8999 21 17.9999 21.7 18.7999 22.6C19.5999 23.5 19.9999 24.5 20.4999 25.5C20.9999 26.4 21.4999 27.3 22.1999 28.1C23.4999 29.8 25.1999 31.3 27.1999 32.8C27.5999 33.1 28.6999 33.7 27.9999 34.1C27.6999 34.3 27.3999 34.3 27.2999 34.5C27.0999 34.9 27.2999 35.4 27.2999 35.8C27.2999 36.3 27.1999 36.9 27.4999 37.5C27.5999 37.6 27.7999 37.6 27.8999 37.5C28.0999 37 27.9999 36.4 27.9999 35.8C27.9999 35.5 27.8999 35.2 27.9999 34.9C27.8999 34.7 27.9999 34.6 28.2999 34.5C28.3999 34.5 28.4999 34.4 28.5999 34.4C29.3999 33.9 28.8999 33.3 28.3999 32.8C26.1999 31.1 24.1999 29.4 22.6999 27.4C21.8999 26.4 21.3999 25.3 20.7999 24.2C20.2999 23.3 19.7999 22.4 18.7999 21.6C16.6999 19.9 13.0999 20.1 10.0999 20.2C9.7999 20.5 9.79989 20.6 9.89989 20.6Z" fill="#1D1D1B"></path><path d="M10.1 20.5C9.39998 20.6 8.79997 20.5 7.99997 20.7C7.49997 20.8 6.99997 21.1 6.69997 21.4C5.79997 22.2 5.99997 23.3 5.99997 24.3C5.99997 25.7 5.69997 27 4.99997 28.3C4.69997 28.9 4.19997 29.4 3.69997 30C3.19997 30.6 2.39997 31 1.79997 31.5C1.69997 31.6 1.79997 31.7 1.99997 31.7C4.69997 30.8 5.79997 28.3 6.19997 26.5C6.39997 25.4 6.29997 24.2 6.49997 23.1C6.59997 22.5 6.79997 21.9 7.49997 21.5C8.09997 21.2 9.39997 20.8 10.2 20.9C10.3 20.7 10.3 20.5 10.1 20.5Z" fill="#1D1D1B"></path><path d="M15.4001 20.6999C13.6001 20.4999 12.2001 21.3999 11.5001 22.3999C10.5001 23.6999 10.1001 25.2 9.00009 26.5C8.00009 27.7 6.7001 28.8 5.1001 29.7C3.6001 30.6 1.6001 31.1999 0.600098 32.3999C0.600098 32.4999 0.700089 32.5 0.700089 32.5C2.00009 31.6 3.70009 31 5.20009 30.2C6.60009 29.4 7.80009 28.5 8.80009 27.5C9.80009 26.5 10.5001 25.4 11.1001 24.1999C11.8001 22.8 12.6001 20.8999 15.3001 20.8999C15.5001 20.8999 15.5001 20.6999 15.4001 20.6999Z" fill="#1D1D1B"></path><path d="M7.69996 20.9C8.39996 20.8 9.09996 20.7001 9.89996 20.6001C10.6 20.6001 11.2 20.6001 11.9 20.6001C13.2 20.6001 14.3 21 15.7 20.8C15.8 20.8 15.8 20.7 15.7 20.7C15 20.5 14.3 20.7 13.6 20.5C12.9 20.4 12.2 20.3 11.5 20.3C10.2 20.3 8.59996 20.3 7.69996 20.9C7.69996 20.9 7.59996 20.8 7.69996 20.9Z" fill="#1D1D1B"></path><path d="M12.7 21.4999C14.5 21.4999 14.8001 22.8999 15.1001 23.7999C15.3001 24.5999 15.6001 25.3 16.0001 26.1C16.8001 27.6 18.0001 28.9999 19.5001 30.1999C21.1001 31.4999 23.4001 32.5999 24.3001 34.1999C24.8001 35.0999 24.9001 36.0999 25.0001 36.9999C25.1001 37.4999 25.1001 37.8999 25.1001 38.3999C25.0001 38.8999 24.9001 39.2999 25.0001 39.7999C25.0001 39.9999 25.6001 39.9999 25.5001 39.7999C25.4001 39.2999 25.6001 38.8999 25.6001 38.3999C25.7001 37.8999 25.6001 37.2999 25.6001 36.7999C25.5001 35.8999 25.4001 34.8999 24.8001 33.9999C23.8001 32.2999 21.4001 31.1999 19.8001 29.8999C18.0001 28.3999 16.7 26.6999 15.9 24.7999C15.4 23.5999 15.4 21.1999 12.7 21.2999C12.5 21.1999 12.5 21.4999 12.7 21.4999Z" fill="#1D1D1B"></path><path d="M6.20008 43.6C8.20008 42.7 10.5001 42.2 12.9001 42C14.3001 41.9 15.7001 41.8 17.1001 41.8C17.7001 41.8 18.3001 41.8 19.0001 41.8C19.7001 41.8 20.3001 41.9 21.0001 42C21.1001 42 21.2001 41.9 21.1001 41.9C20.3001 41.3 18.7001 41.5 17.6001 41.6C16.2001 41.6 14.7001 41.7 13.3001 41.8C10.7001 42 8.10008 42.5 6.00008 43.6C5.80008 43.5 6.00008 43.7 6.20008 43.6Z" fill="#1D1D1B"></path><path d="M24.1 45.3C23.9 44.4 22.4 43.6 21.3 43.1C19.9 42.5 18.2 42.2 16.5 42.3C15.6 42.3 14.8 42.4999 13.9 42.6999C12.8 42.8999 11.8 43 10.7 43C8.90001 43 7.10002 43 5.60002 43.8C5.50002 43.8 5.60001 43.8999 5.70001 43.8999C7.30001 43.3999 9.20001 43.4 11 43.3C11.8 43.3 12.6 43.2 13.4 43.1C14.3 43 15.1 42.7999 16 42.6999C17.6 42.5999 19.2 42.8 20.7 43.3C21.4 43.5 22 43.7999 22.5 44.1999C23.1 44.5999 23.4 44.9999 24 45.3999C24 45.3999 24.1 45.4 24.1 45.3Z" fill="#1D1D1B"></path><path d="M24.7 25.6C24.5 26.4 24.6001 27.4 24.6001 28.2C24.6001 29 24.4 30 24.8 30.8C24.8 30.9 25 30.9 25 30.8C25.4 30 25.1001 29 25.1001 28.2C25.1001 27.3 25.2 26.4 24.9 25.6C24.8 25.6 24.7 25.6 24.7 25.6Z" fill="#1D1D1B"></path><path d="M27.1001 25.7C26.9001 26.2 27.0001 26.8 27.0001 27.3C27.0001 28 27.0001 28.6 27.1001 29.3C27.2001 30.5 27.2001 31.7 27.4001 32.9C27.4001 33 27.8001 33 27.8001 32.9C27.8001 31.7 27.6001 30.4 27.6001 29.2C27.6001 28.6 27.6001 28 27.5001 27.3C27.5001 26.8 27.6001 26.2 27.3001 25.7C27.2001 25.6 27.1001 25.6 27.1001 25.7Z" fill="#1D1D1B"></path><path d="M25.1999 25.5C24.1999 25.4 23.2999 25.1 23.2999 24.4C23.2999 23.8 23.9999 23.4 24.6999 23.1C25.5999 22.7 26.0999 22.2 26.2999 21.4C26.5999 20.4 26.8999 19.5 27.6999 18.6C28.3999 17.9 29.4999 17.4 29.8999 16.5C30.2999 15.6 30.2999 14.7 30.3999 13.8C30.3999 12.7 30.8999 11.7 31.5999 10.6C32.1999 9.69997 32.8999 8.59997 33.8999 7.89997C35.3999 6.89997 37.1999 7.39997 38.1999 8.49997C38.9999 9.29997 39.3999 10.3 40.5999 11C41.5999 11.5 42.7999 11.8 44.0999 11.7C44.2999 11.7 44.1999 11.5 44.0999 11.5C42.1999 11.3 40.6999 10.7 39.7999 9.59997C39.0999 8.79997 38.5999 7.89997 37.3999 7.39997C34.4999 6.09997 32.4999 8.59997 31.4999 9.99997C30.7999 11 30.0999 12 29.9999 13.1C29.7999 14.3 30.0999 15.6 29.2999 16.6C28.9999 17.1 28.3999 17.4 27.8999 17.8C27.3999 18.2 26.9999 18.7 26.5999 19.2C26.2999 19.7 26.0999 20.2 25.9999 20.7C25.8999 21.3 25.7999 21.9 25.1999 22.3C24.2999 23 22.5999 23.2 22.7999 24.4C22.8999 25.2 24.0999 25.8 25.2999 25.6C25.4999 25.8 25.3999 25.5 25.1999 25.5Z" fill="#1D1D1B"></path><path d="M27.2999 26C27.1999 25.7 27.9999 25.3 28.1999 25.1C28.5999 24.7 28.9999 24.3 29.3999 23.9C30.0999 23.2 30.7999 22.4 31.3999 21.6C32.4999 20.1 33.3999 18.5 33.9999 16.8C34.2999 16 34.4999 15.2 34.5999 14.4C34.6999 13.5 34.2999 12.6 34.0999 11.7C33.9999 11.2 34.0999 10.4 34.8999 10.2C35.7999 9.89998 36.3999 10.5 36.7999 10.9C37.3999 11.5 38.0999 12 39.0999 12.3C41.5999 13 44.0999 12.1 45.9999 11.1C46.0999 11.1 45.9999 11 45.8999 11C44.6999 11.4 43.4999 12 42.0999 12.1C40.4999 12.3 38.8999 11.9 37.8999 11.1C37.2999 10.7 36.8999 9.99999 35.9999 9.79999C35.2999 9.59999 34.4999 9.89999 34.0999 10.3C33.4999 10.8 33.4999 11.6 33.6999 12.2C33.9999 13.3 34.1999 14.3 33.8999 15.4C33.4999 17.1 32.7999 18.8 31.6999 20.5C31.0999 21.5 30.2999 22.4 29.4999 23.4C28.6999 24.3 27.7999 25.1 26.8999 25.9V26L26.9999 26.1C27.1999 26.1 27.2999 26.1 27.2999 26Z" fill="#1D1D1B"></path><path d="M43 11.7C43.2 11.7 43.5 11.8 43.6 11.8C43.8 11.8 44 11.8 44.2 11.8C44.6 11.7 45.1 11.6 45.5 11.4V11.3C45 11.3 44.6 11.5 44.2 11.6C43.9 11.7 43.6 11.6 43.3 11.6C43.2 11.6 43.1 11.6 43 11.7Z" fill="#1D1D1B"></path><path d="M29.1999 17.1C29.4999 15.5 28.5999 14 27.7999 12.5C26.8999 10.8 26.1999 9.09996 26.9999 7.29996C28.3999 3.79996 33.3999 1.69995 38.5999 0.999954C38.8999 0.999954 38.7999 0.699951 38.4999 0.699951C33.3999 1.29995 28.5999 3.39995 26.7999 6.59995C25.8999 8.29995 26.0999 9.89995 26.8999 11.6C27.7999 13.4 29.1999 15.1 28.8999 17C28.7999 17.3 29.1999 17.3 29.1999 17.1Z" fill="#1D1D1B"></path><path d="M26.1 20.2C26 20.3 25.9 20.4 25.8 20.5C25.9 20.5 26 20.5 26.1 20.5C24.9 18 23.8 15.6 23.3 13.1C23.1 11.8 22.8 10.6 23 9.29997C23.1 7.99997 23.9 6.69997 24.8 5.49997C26.3 3.39997 28.6 1.29997 32.1 0.599968C34 0.199968 35.9 0.29997 37.9 0.49997C38.8 0.59997 39.7 0.599967 40.6 0.699967C41.7 0.799967 43.3 0.69997 43.6 1.49997C43.9 2.09997 43.6 2.89997 43.4 3.59997C43.2 4.19997 43.1 4.89997 42.9 5.49997C42.7 6.69997 42.7 7.99997 43.5 9.09997C43.6 9.19997 43.9 9.09997 43.9 8.99997C43.3 7.49997 43.3 6.19997 43.7 4.69997C43.9 3.69997 44.6 2.29997 44 1.29997C43.4 0.299973 41.4 0.499971 40.1 0.399971C37.9 0.299971 35.7 -3.32072e-05 33.5 0.199967C29.9 0.499967 27.1 2.29997 25.4 4.19997C24.4 5.29997 23.5 6.49997 22.9 7.69997C22.3 8.99997 22.3 10.4 22.5 11.7C22.9 14.7 23.9 17.9 25.7 20.7C25.8 20.8 26 20.8 26 20.7C26.1 20.6 26.1 20.5 26.2 20.4C26.3 20.2 26.2 20.1 26.1 20.2Z" fill="#1D1D1B"></path><path d="M39.9 0.300049C39.8 0.300049 39.8 0.300049 39.9 0.300049C39.8 0.400049 39.8 0.400047 39.8 0.400047C39.8 0.400047 39.8 0.500047 39.9 0.400047C39.9 0.400047 39.9 0.400049 39.9 0.300049C40 0.400049 40 0.400049 39.9 0.300049C40 0.400049 40 0.400049 39.9 0.300049C39.9 0.300049 40 0.300049 39.9 0.300049Z" fill="#1D1D1B"></path><path d="M36.3001 0.300012C37.7001 0.600012 39.6001 0.700006 40.1001 1.70001C40.5001 2.50001 40.4001 3.50001 40.7001 4.30001C41.3001 6.00001 42.4001 7.90001 44.2001 9.20001H44.3001C43.7001 8.20001 42.8001 7.30001 42.2001 6.30001C41.6001 5.30001 41.1001 4.20001 41.0001 3.10001C40.9001 2.40001 40.9001 1.60001 40.2001 1.00001C39.4001 0.300009 37.7001 0.300008 36.5001 0.100008C36.2001 7.71694e-06 36.1001 0.200012 36.3001 0.300012Z" fill="#1D1D1B"></path><path d="M38.1001 1C38.2001 1 38.3001 1.1 38.4001 1.1C38.5001 1.1 38.6001 1.1 38.8001 1.1C39.1001 1.1 39.3001 1.1 39.5001 1C39.7001 1 39.7001 0.800004 39.5001 0.800004C39.1001 0.700004 38.7001 0.699998 38.4001 0.699998C38.4001 0.799998 38.4001 0.900003 38.4001 0.900003C38.6001 0.900003 38.8001 0.900003 39.0001 0.900003C39.2001 0.900003 39.3001 1 39.5001 1C39.5001 1 39.6001 1 39.6001 0.900003C39.5001 0.600003 38.8001 0.5 38.4001 0.6C38.2001 0.6 38.2001 0.800004 38.5001 0.800004C38.9001 0.800004 39.2001 0.800004 39.5001 0.800004C39.5001 0.700004 39.5001 0.7 39.5001 0.6C39.3001 0.7 39.1001 0.699998 38.8001 0.699998C38.7001 0.699998 38.6001 0.699998 38.5001 0.699998C38.4001 0.899998 38.3001 0.900001 38.1001 1C38.0001 1 38.1001 0.900001 38.1001 1Z" fill="#1D1D1B"></path><path d="M26.1 15.3001C23.8 12.2001 23.5 8.60006 26 5.60006C28.2 2.80006 32.9 0.200061 37.9 0.400061C38 0.400061 38 0.300063 37.9 0.300063C35.3 6.26929e-05 32.6 0.900061 30.5 1.90006C28.5 2.80006 26.9 4.10006 25.8 5.40006C23.3 8.50006 23.3 12.4001 26.1 15.3001C26.1 15.4001 26.1 15.4001 26.1 15.3001Z" fill="#1D1D1B"></path><path d="M40.6001 0.5C41.4001 1 41.6001 1.7 41.8001 2.3C42.0001 3 42.1001 3.8 42.1001 4.5C42.1001 3.6 42.1001 2.7 41.8001 1.8C41.7001 1.4 41.5001 0.7 40.6001 0.5Z" fill="#1D1D1B"></path><path d="M35.5 0.80006C35.3 0.90006 35 1.00006 34.8 1.00006C35.1 1.10006 35.4001 1.00006 35.6001 0.80006C35.6001 0.80006 35.5 0.80006 35.5 0.80006C35.3 1.10006 35 1.10006 34.8 1.00006C35.1 0.900057 35.3 0.90006 35.5 0.80006C35.6 0.70006 35.6 0.80006 35.5 0.80006Z" fill="#1D1D1B"></path><path d="M37.6 0.600024C37.7 0.600024 37.7999 0.700023 37.8999 0.700023C37.8999 0.700023 37.9 0.600024 38 0.600024C37 0.600024 35.3 0.900027 34.7 1.40003C34.7 1.40003 34.7 1.50003 34.8 1.50003C35.3 1.40003 35.8 1.20003 36.3 1.00003C36.8 0.900026 37.3999 0.800023 37.8999 0.700023C37.9999 0.700023 37.9999 0.600024 37.8999 0.600024C37.8999 0.500024 37.8 0.500024 37.6 0.600024C37.5 0.500024 37.6 0.500024 37.6 0.600024Z" fill="#1D1D1B"></path><path d="M38.3 0.400024C37.3 0.400024 35.6 0.50002 35 1.20002C35 1.20002 35 1.30003 35.1 1.30003C35.6 1.20003 36 0.900026 36.5 0.800026C37.1 0.700026 37.7 0.600021 38.3 0.600021C38.5 0.600021 38.5 0.400024 38.3 0.400024Z" fill="#1D1D1B"></path><path d="M37 0.400024C35.6 0.400024 34 0.600024 33.1 1.40002C33 1.40002 33.1 1.50002 33.2 1.50002C34.4 1.00002 35.6 0.600021 37.1 0.600021C37.1 0.600021 37.1 0.400024 37 0.400024Z" fill="#1D1D1B"></path><path d="M34.5001 0.300049C33.6001 0.400049 32.5001 0.700043 31.9001 1.20004C31.8001 1.20004 31.9001 1.30005 32.0001 1.30005C32.9001 1.00005 33.6001 0.700046 34.6001 0.500046C34.7001 0.500046 34.7001 0.300049 34.5001 0.300049Z" fill="#1D1D1B"></path><path d="M34.4001 0.399998C33.1001 0.299998 31.6001 0.499994 30.7001 1.19999C30.6001 1.19999 30.7001 1.3 30.8001 1.3C32.0001 0.9 33.0001 0.599995 34.4001 0.599995C34.5001 0.499995 34.5001 0.399998 34.4001 0.399998Z" fill="#1D1D1B"></path><path d="M32.9 0.500046C31.8 0.700046 30.4 0.900043 30 1.70004C30 1.70004 30.1 1.80004 30.1 1.70004C30.7 1.00004 31.9 0.800045 33 0.600045C33.2 0.600045 33.1 0.400046 32.9 0.500046Z" fill="#1D1D1B"></path><path d="M34.0999 0.300049C32.8999 0.600049 31.5999 1.10005 30.8999 1.90005C30.8999 2.00005 30.9999 2.00005 30.9999 2.00005C31.9999 1.40005 32.8999 0.800046 34.0999 0.500046C34.2999 0.400046 34.1999 0.300049 34.0999 0.300049Z" fill="#1D1D1B"></path><path d="M33.5 1.10001C32.7 1.30001 31.8 1.60001 31.3 2.10001C31.3 2.10001 31.3 2.20001 31.4 2.20001C32.1 1.90001 32.8001 1.50001 33.6001 1.30001C33.9001 1.20001 33.7 1.00001 33.5 1.10001Z" fill="#1D1D1B"></path><path d="M35.3999 0.699951C34.1999 0.999951 32.8999 1.39995 31.9999 1.99995C31.8999 2.09995 31.9999 2.19995 32.0999 2.09995C33.1999 1.69995 34.0999 1.09996 35.3999 0.799957C35.5999 0.799957 35.5999 0.699951 35.3999 0.699951Z" fill="#1D1D1B"></path><path d="M34.6 1.09998C34.2 1.19998 33.8 1.29998 33.5 1.39998C33.2 1.49998 32.9 1.59998 32.7 1.79998C32.7 1.79998 32.7 1.89998 32.8 1.89998C33.1 1.79998 33.3 1.69998 33.6 1.59998C33.9 1.49998 34.3 1.39998 34.7 1.29998C34.9 1.29998 34.8 1.09998 34.6 1.09998Z" fill="#1D1D1B"></path><path d="M35.5001 1.09998C35.0001 1.29998 34.4001 1.39998 33.9001 1.59998C33.5001 1.79998 32.9001 1.89997 32.6001 2.19997C32.6001 2.19997 32.6001 2.29998 32.7001 2.29998C33.2001 2.19998 33.6001 1.99998 34.1001 1.79998C34.6001 1.59998 35.1001 1.39998 35.7001 1.29998C35.8001 1.19998 35.7001 1.09998 35.5001 1.09998Z" fill="#1D1D1B"></path><path d="M34 1.39995C33.6 1.49995 33 1.59995 32.6 1.79995C32.5 1.89995 32.6 1.89995 32.7 1.89995C32.9 1.89995 33.1 1.79994 33.3 1.69994C33.5 1.59994 33.8 1.59995 34 1.49995C34.2 1.49995 34.2 1.29995 34 1.39995Z" fill="#1D1D1B"></path><path d="M34.4001 1.10006C34.1001 1.10006 33.9001 1.20006 33.7001 1.30006C33.6001 1.40006 33.7001 1.50006 33.8001 1.40006C34.0001 1.30006 34.2001 1.30005 34.2001 1.20005C34.3001 1.10005 34.3001 1.00006 34.2001 0.900059C34.1001 0.700059 33.8001 0.700061 33.5001 0.800061C33.2001 0.900061 33.1001 1.10006 33.2001 1.30006C33.4001 1.50006 33.7001 1.50006 33.9001 1.40006C33.9001 1.40006 33.9001 1.30006 33.8001 1.30006C33.7001 1.30006 33.5001 1.30005 33.4001 1.20005C33.3001 1.10005 33.4001 0.900059 33.6001 0.900059C33.7001 0.900059 33.9001 1.00006 33.9001 1.10006C33.9001 1.20006 33.7001 1.30006 33.6001 1.40006L33.7001 1.50006C33.9001 1.40006 34.1001 1.30006 34.3001 1.30006C34.6001 1.20006 34.6001 1.10006 34.4001 1.10006Z" fill="#1D1D1B"></path><path d="M38.6 0.299973C38.5 0.599973 37.4 0.699973 37 0.799973C36.4 0.899973 35.6 0.999973 35 1.29997C34.9 1.29997 34.9 1.49997 35.1 1.49997C35.7 1.49997 36.4 1.29997 37 1.19997C37.6 1.09997 38.2 0.899973 38.8 0.799973L38.9 0.699967C38.9 0.599967 38.9 0.49997 38.9 0.49997C38.8 0.29997 38.6 0.199973 38.6 0.299973Z" fill="#1D1D1B"></path><path d="M36.1001 0.199962C35.4001 0.199962 34.6 0.099962 34 0.199962C33.9 0.199962 33.9 0.299967 34 0.399967C34.7 0.499967 35.4001 0.399967 36.1001 0.399967C36.3001 0.499967 36.3001 0.199962 36.1001 0.199962Z" fill="#1D1D1B"></path><path d="M26 20.3001C26 19.6001 25.7999 18.9001 25.3999 18.3001C25.3999 18.2001 25.2 18.3001 25.2 18.3001C25.5 19.0001 25.6 19.6001 25.7 20.3001C25.7 20.4001 26 20.4001 26 20.3001Z" fill="#1D1D1B"></path><path d="M26.2001 19.7C26.3001 19.8 26.4001 20 26.4001 20.1H26.5001C26.8001 19.4 26.2001 18.5 25.8001 17.9C25.8001 17.8 25.6001 17.9 25.6001 17.9C25.8001 18.3 26.0001 18.7 26.1001 19.1C26.2001 19.3 26.1001 19.6 26.3001 19.9C26.3001 19.9 26.3001 19.9 26.4001 19.9C26.4001 19.9 26.3001 19.8 26.2001 19.7Z" fill="#1D1D1B"></path><path d="M26.6 19.2C26.7 18.5 26.6 17.8 26.3 17.1C26.3 17 26.2 17.1 26.2 17.1C26.5 17.8 26.6 18.5 26.5 19.2C26.4 19.3 26.6 19.3 26.6 19.2Z" fill="#1D1D1B"></path><path d="M27 18.9C27.1 17.9 27.1 16.9 26.6 16C26.6 15.9 26.5 16 26.5 16C26.7 17 26.9 17.9 26.8 18.9C26.7 19 27 19 27 18.9Z" fill="#1D1D1B"></path><path d="M27.2999 18C27.4999 17.1 27.4999 16.1 26.9999 15.3H26.8999C27.0999 16.2 27.2999 17.1 27.0999 18C27.0999 18.1 27.2999 18.1 27.2999 18Z" fill="#1D1D1B"></path><path d="M27.6999 18.2C28.1999 17.1 28.0999 16.1 27.4999 15H27.3999C27.7999 16 27.7999 17.1 27.4999 18.1C27.3999 18.3 27.5999 18.3 27.6999 18.2Z" fill="#1D1D1B"></path><path d="M28.2001 17.7C29.5001 16.5 27.9001 14.5 27.2001 13.3H27.1001C27.7001 14.7 28.8001 16.2 28.0001 17.7C27.9001 17.7 28.1001 17.8 28.2001 17.7Z" fill="#1D1D1B"></path><path d="M28.3 17.2C28.5 17.4 28.4 17.3 28.7 17.4C28.8 17.4 28.8 17.4 28.8 17.3C28.8 16.3 28.5 15.2 28 14.2C27.5 13.2 27 12.2 26.2 11.3C26.2 11.3 26.1 11.3 26.2 11.3C26.6 12.3 27.3 13.2 27.7 14.1C27.9 14.6 28.1 15.1 28.3 15.6C28.4 15.9 28.4 16.1 28.5 16.4C28.5 16.5 28.7 17.3 28.3 17.2C28.2 17.1 28.3 17.1 28.3 17.2Z" fill="#1D1D1B"></path><path d="M28.3999 15.6C28.2999 14.2 27.7999 12.6 26.4999 11.4H26.3999C27.2999 12.8 27.9999 14 28.1999 15.6C28.1999 15.7 28.3999 15.7 28.3999 15.6Z" fill="#1D1D1B"></path><path d="M28.1999 17.4C28.0999 15.9 27.4999 14.3 25.9999 13.1C25.8999 13.1 25.8999 13.1 25.8999 13.2C26.8999 14.5 27.7999 15.9 27.9999 17.4C28.0999 17.5 28.1999 17.5 28.1999 17.4Z" fill="#1D1D1B"></path><path d="M27.7 17.6C27.3 16.3 26.9 14.9 25.8 13.8H25.7C26.2 15.1 26.9999 16.3 27.3999 17.7C27.3999 17.8 27.7 17.7 27.7 17.6Z" fill="#1D1D1B"></path><path d="M26.9999 18.1C26.1999 17 25.5999 15.8 25.0999 14.6C25.0999 14.5 24.8999 14.6 24.9999 14.6C25.2999 15.9 25.9999 17 26.8999 18.2C26.9999 18.2 27.0999 18.1 26.9999 18.1Z" fill="#1D1D1B"></path><path d="M26.4 17.6C25.9 16.5 25.3 15.4 24.5 14.4C24.5 14.3 24.3 14.4 24.3 14.4C24.9 15.5 25.6 16.5 26 17.6C26.1 17.8 26.4 17.8 26.4 17.6Z" fill="#1D1D1B"></path><path d="M25.9001 17.9C25.3001 17.2 25.0001 16.5 24.9001 15.7C24.8001 15.2 24.8001 14.9 24.3001 14.5C24.2001 14.5 24.1001 14.5 24.2001 14.6C24.7001 15.1 24.6001 15.9 24.8001 16.4C25.0001 17 25.3001 17.5 25.7001 18C25.7001 18.1 26.0001 18 25.9001 17.9Z" fill="#1D1D1B"></path><path d="M25.8001 18.8C25.7001 17.8 25.3001 16.8 24.5001 15.9C24.5001 15.8 24.3001 15.9 24.4001 15.9C25.0001 16.8 25.5001 17.7 25.7001 18.7C25.7001 18.8 25.8001 18.8 25.8001 18.8Z" fill="#1D1D1B"></path><path d="M25.8999 20.3C25.8999 20.4 25.8999 20.4 25.7999 20.5C25.7999 20.6 25.8999 20.6 25.8999 20.5C26.2999 19.3 27.0999 18.1 28.4999 17.2C28.5999 17.1 28.4999 17 28.2999 17.1C27.6999 17.3 27.0999 17.6 26.7999 18C26.6999 18.1 26.5999 18.5 26.5999 18.5C26.4999 18.5 25.5999 17.6 25.4999 17.5H25.3999C25.6999 18 25.8999 18.5 25.9999 19C25.9999 19.1 26.1999 19.1 26.1999 19C26.2999 18.5 26.0999 18.2 25.7999 17.7C25.6999 17.6 25.5999 17.7 25.5999 17.7C25.4999 18.3 25.6999 18.9 25.8999 19.4L26.1999 19.3C25.7999 18.7 25.4999 18.1 25.1999 17.5C25.1999 17.4 24.8999 17.4 24.8999 17.5C24.9999 18.2 25.3999 18.8 25.8999 19.4C25.9999 19.5 26.2999 19.4 26.1999 19.3C25.9999 18.7 25.8999 18.2 25.7999 17.6C25.6999 17.6 25.6999 17.6 25.5999 17.7C25.9999 18.1 26.0999 18.4 25.9999 18.9H26.1999C26.0999 18.5 25.8999 18.1 25.6999 17.8C25.5999 17.6 25.4999 17.6 25.7999 17.8C26.0999 18.1 26.2999 18.3 26.5999 18.6C26.5999 18.6 26.6999 18.6 26.7999 18.6C26.9999 17.9 27.5999 17.4 28.4999 17.2C28.3999 17.2 28.3999 17.1 28.2999 17.1C27.4999 17.6 26.8999 18.1 26.4999 18.7C26.2999 19 26.0999 19.2 25.9999 19.5C25.8999 19.7 25.7999 19.9 25.7999 20.1C25.8999 20.2 25.9999 20.4 25.8999 20.3C25.8999 20.3 25.9999 20.3 25.8999 20.3Z" fill="#1D1D1B"></path><path d="M26.5 20C26.8 19.4 26.9 18.6 26.8 18C26.8 17.4 26.8 16.7 26.4 16.2C26.3 16.1 26.1 16.1 26.1 16.2C26 16.8 26.2 17.4 26.3 18C26.3 18.7 26.2 19.4 26.3 20C26.3 20 26.4 20 26.5 20Z" fill="#1D1D1B"></path><path d="M26.9001 19.4C27.1001 18.7 27.7001 18.1 28.2001 17.5C28.5001 17.1 28.8001 16.8 28.4001 16.4C28.3001 16.3 28.2001 16.4 28.2001 16.4C28.1001 17.1 27.6001 17.5 27.2001 18C26.9001 18.4 26.7001 18.9 26.6001 19.3C26.6001 19.5 26.9001 19.5 26.9001 19.4Z" fill="#1D1D1B"></path><path d="M27.6001 18.1C27.8001 16.9 27.7001 15.7 27.0001 14.7C26.9001 14.6 26.6001 14.7 26.7001 14.8C27.1001 15.9 27.4001 17 27.2001 18.1C27.1001 18.3 27.6001 18.3 27.6001 18.1Z" fill="#1D1D1B"></path><path d="M31.8 14.5L31.7 14.6C31.7 14.6 31.8 14.6 31.8 14.5Z" fill="#1D1D1B"></path><path d="M31.4 16.5C31.5 14.5 31.9 12.7 33.2 10.9C33.7 10.2 34.9 8.09998 36.6 8.79998C37.2 8.99998 37.8 9.59998 38.2 9.99998C38.6 10.4 39 10.8 39.3 11.2C39.3 11.2 39.5 11.2 39.4 11.2C38.8 10.3 37.7 9.19998 36.4 8.69998C35.3 8.29998 34.3 9.39998 33.9 9.89998C32 11.8 30.9 14.3 31.3 16.6C31.3 16.5 31.4 16.5 31.4 16.5Z" fill="#1D1D1B"></path><path d="M23.2999 24.3C23.1999 24.7 23.8999 25.1 24.3999 25.3C24.9999 25.5 25.7999 25.6 26.3999 25.4C26.4999 25.4 26.3999 25.3 26.3999 25.3C25.6999 25.3 25.1999 25.3001 24.5999 25.1001C23.9999 24.9001 23.7999 24.6 23.2999 24.3Z" fill="#1D1D1B"></path><path d="M23.2999 24.1C23.8999 25 25.4999 25.6 26.8999 25.2C26.9999 25.2 26.9999 25.1 26.8999 25.1C25.4999 25.2 24.1999 24.8 23.4999 24C23.4999 23.9 23.1999 24 23.2999 24.1Z" fill="#1D1D1B"></path><path d="M23.7 24.7C24.5 24.8 25.4 24.9 26.2 24.9C26.3 24.9 26.3 24.8 26.2 24.8C25.4 24.7 24.6 24.6 23.7 24.5C23.6 24.6 23.6 24.7 23.7 24.7Z" fill="#1D1D1B"></path><path d="M24.9001 25.5C25.5001 25.5 26.1001 25.5 26.6001 25.4C26.7001 25.4 26.7001 25.3 26.5001 25.3C25.9001 25.4 25.4001 25.4 24.8001 25.3C24.7001 25.2 24.7001 25.4 24.9001 25.5Z" fill="#1D1D1B"></path><path d="M24.4 25.7C25.2 25.5 25.9 25.3 26.6 25C26.7 25 26.6 24.9 26.5 24.9C25.9 25.1 25.1 25.4 24.4 25.7C24.3 25.7 24.3 25.6 24.4 25.7Z" fill="#1D1D1B"></path><path d="M27.1001 32.1C27.2001 32.2 27.3001 32.2 27.3001 32.3C27.3001 32.3 27.4001 32.3 27.5001 32.3C27.6001 31.7 27.5001 31 27.5001 30.4C27.5001 29.8 27.4001 29.1 27.2001 28.5H27.1001C27.0001 29.2 27.1001 29.8 27.1001 30.5C27.1001 30.8 27.1001 31.1 27.1001 31.4C27.2001 31.4 27.3001 32.1 27.1001 32.1C27.1001 32.1 27.1001 32 27.1001 32.1Z" fill="#1D1D1B"></path><path d="M26.7999 31.7C26.7999 31.8 26.7999 32 26.7999 32.1C26.8999 32.1 26.9999 32.1 26.9999 32.1C27.0999 30.8 26.8999 29.4 26.4999 28H26.3999C26.5999 29.3 26.5999 30.7 26.7999 32C26.7999 32.1 26.9999 32.1 26.9999 32C27.0999 31.8 26.9999 31.7 26.8999 31.5C26.8999 31.6 26.6999 31.7 26.7999 31.7Z" fill="#1D1D1B"></path><path d="M26.5 31.8C26.6 31 26.6 30.2 26.5 29.4C26.5 28.7 26.6 27.9 26.3 27.3H26.2C25.9 28 26.1 28.7 26.1 29.4C26.1 30.2 26.2 31 26.3 31.8C26.4 31.8 26.5 31.8 26.5 31.8Z" fill="#1D1D1B"></path><path d="M25.8 31.2C25.9 29.8 26.1 28.4 25.8 27.1C25.8 27 25.7 27 25.7 27.1C25.4 28.5 25.6 29.9 25.6 31.2C25.6 31.3 25.8 31.3 25.8 31.2Z" fill="#1D1D1B"></path><path d="M25.6 30.6001C25.7 29.3001 25.7999 28.0001 25.3999 26.8001C25.3999 26.7001 25.2 26.8001 25.2 26.8001C25.2 28.1001 25.4 29.3001 25.3 30.6001C25.3 30.7001 25.5 30.7001 25.6 30.6001Z" fill="#1D1D1B"></path><path d="M25.9 31.8001C26.1 30.7001 26.1 29.6 26 28.5C26 28.4 25.9 28.4 25.8 28.5C25.6 29.6 25.6 30.7001 25.7 31.8001C25.8 31.8001 25.9 31.8001 25.9 31.8001Z" fill="#1D1D1B"></path><path d="M26.2 31.7C26.2 30.8 26.3 29.8 26.1 28.9H26C25.8 29.8 25.9 30.8 25.9 31.7C26 31.8 26.2 31.8 26.2 31.7Z" fill="#1D1D1B"></path><path d="M25.4001 30.9C25.8001 31.3 26.3001 31.7 26.8001 32C26.9001 32.1 27.0001 32 27.0001 31.9C26.9001 31.3 26.7001 30.7 26.5001 30.1C26.5001 30 26.2001 30 26.3001 30.1C26.4001 30.7 26.6001 31.3 26.8001 31.9C26.9001 31.9 26.9001 31.8 27.0001 31.8C26.4001 31.5 25.9001 31.1 25.6001 30.7C25.5001 30.8 25.3001 30.8 25.4001 30.9Z" fill="#1D1D1B"></path><path d="M27.2001 31.9C27.4001 30 27.4001 27.9 26.7001 26.1H26.6001C26.8001 28.1 27.1001 30 26.9001 31.9C26.9001 32 27.2001 32 27.2001 31.9Z" fill="#1D1D1B"></path><path d="M25.9001 39.1C26.3001 38.5 26.1001 37.8 26.2001 37.1C26.2001 36.4 26.2001 35.8 26.0001 35.1H25.9001C25.8001 35.8 25.9001 36.5 25.8001 37.2C25.9001 37.8 25.6001 38.5 25.9001 39.1Z" fill="#1D1D1B"></path><path d="M25.8001 38.5C26.3001 38.3 26.4001 37.9 26.5001 37.5C26.6001 36.8 26.7001 36 26.5001 35.3H26.4001C26.3001 35.7 26.3001 36.2001 26.3001 36.6001C26.3001 37.1001 26.4001 38 25.7001 38.4C25.5001 38.4 25.6001 38.5 25.8001 38.5Z" fill="#1D1D1B"></path><path d="M26.3 37.7C26.3 37.8 26.4 37.8 26.4 37.9C26.9 38 27 37.6 27 37.4C27.1 36.9 27.2 36.4 26.9 35.9C26.9 35.8 26.7 35.8 26.7 35.9C26.7 36.1 26.6 37.7 26.4 37.7L26.5 37.8C26.7 37.6 26.3 37.6 26.3 37.7Z" fill="#1D1D1B"></path><path d="M26.9001 36.6001C26.9001 35.7001 27.0001 34.8 26.8001 34C26.8001 33.9 26.6001 33.9 26.6001 34C26.4001 34.9 26.5001 35.8001 26.5001 36.6001C26.5001 36.7001 26.9001 36.7001 26.9001 36.6001Z" fill="#1D1D1B"></path><path d="M25.3001 34.2C25.6001 34.6 26.2001 34.8 26.8001 34.8C27.5001 34.7 27.9001 34.4 28.1001 34C28.2001 33.9 27.9001 33.8999 27.9001 33.8999C27.3001 34.4999 26.3001 34.1 25.7001 33.8L25.6001 33.8999C26.1001 34.0999 26.5001 34.3 27.1001 34.1H27.2001C27.4001 34 27.4001 34.1 27.1001 34.2C26.9001 34.2 26.6001 34.2 26.5001 34.1C26.1001 34 25.8001 33.8 25.4001 33.7H25.3001C25.6001 34.1 26.4001 34.3 27.1001 34.3C27.4001 34.3 27.8001 34.0999 27.5001 33.8999C27.0001 33.9999 26.2001 34 25.8001 33.7C25.7001 33.7 25.6001 33.7 25.7001 33.8C26.2001 34.4 27.7001 34.5999 28.3001 33.8999C28.2001 33.8999 28.1001 33.9 28.1001 33.8C27.7001 34.7 26.0001 34.8 25.3001 34.2C25.2001 34.1 25.3001 34.1 25.3001 34.2Z" fill="#1D1D1B"></path><path d="M25.1001 33.7C25.1001 34.3 26.3001 34.7 27.0001 34.2C27.1001 34.2 27.0001 34.1 26.9001 34.1C26.2001 34.4 25.3001 34.2 25.2001 33.6C25.3001 33.7 25.1001 33.7 25.1001 33.7Z" fill="#1D1D1B"></path><path d="M25.9 33.5C26.4 33.6 26.9 33.7 27.4 33.6C27.5 33.6 27.5 33.5 27.4 33.5C26.9 33.5 26.5 33.5 26 33.4C25.9 33.2 25.7 33.4 25.9 33.5Z" fill="#1D1D1B"></path><path d="M27.5 33.5C27.8 33.5 27.9 33.7 27.9 33.8C27.9 33.9 27.7 34 27.5 34.1C27.4 34.1 27.5 34.2 27.5 34.2C27.8 34.2 28.2001 34 28.1001 33.8C28.1001 33.6 27.8 33.4 27.5 33.4C27.4 33.4 27.4 33.5 27.5 33.5Z" fill="#1D1D1B"></path><path d="M25.8 38.5C25.9 38.7 25.9 39 25.7 39.3C25.9 39.2 26 39.1 26 38.9C26 38.8 26 38.7 25.8 38.5C25.8 38.5 25.9 38.5 25.8 38.5Z" fill="#1D1D1B"></path><path d="M25.9 39.1C25.9 38.9 26 38.6 26.1 38.4C26.1 38.3 25.9 38.2 25.8 38.3C25.7 38.4 25.6 38.4 25.5 38.5C25.6 38.6 25.7 38.6 25.8 38.7C26.4 38.2 27 37.8 27.6 37.3C27.9 37 28 36.8 27.7 36.5C27.6 36.4 27.4 36.5 27.4 36.6C27.5 36.9 27 37.3 26.7 37.5C26.3 37.8 25.9 38.1 25.5 38.5C25.3 38.6 25.6 38.8 25.8 38.7C25.9 38.6 26 38.6 26.1 38.5C26 38.5 25.9 38.4 25.8 38.4C25.8 38.7 25.8 38.9 25.7 39.2C25.6 39.3 25.9 39.3 25.9 39.1Z" fill="#1D1D1B"></path><path d="M25.6001 39C25.6001 39.1 25.6001 39.2 25.5001 39.3C25.4001 39.4 25.7001 39.5 25.8001 39.4C25.9001 39.3 25.9001 39.1 26.0001 39C26.0001 38.9 26.0001 38.7 26.0001 38.6C26.0001 38.4 25.5001 38.5 25.7001 38.7C25.8001 38.9 25.7001 39.2 25.6001 39.4C25.7001 39.4 25.7001 39.4 25.8001 39.3C25.6001 39.2 25.6001 39 25.6001 39Z" fill="#1D1D1B"></path><path d="M13.9 20.6C13.8 20.6 13.8 20.6 13.9 20.6C13.8 20.6 13.8 20.6 13.8 20.7C13.9 21 14.3001 20.9 14.6001 21.1C15.3001 21.4 15.7 22 16 22.5C16.6 23.5 17.2 24.5 17.7 25.5C18.8 27.4 20.0001 29.2 22.1001 30.7H22.2C20.2 29 19 27 17.8 25C17.3 24.1 16.8 23.2 16.2 22.3C16 22 15.7 21.6 15.3 21.3C15.1 21.1 14 20.5 13.9 20.6Z" fill="#1D1D1B"></path><path d="M25.3999 42.3C26.8999 41 27.9999 39.5 29.2999 38.1C30.5999 36.7 31.9999 35.3 33.2999 34C31.8999 35.4 30.5999 36.7 29.1999 38.1C27.7999 39.4 26.2999 40.8 25.3999 42.3C25.3999 42.3 25.2999 42.3 25.3999 42.3Z" fill="#1D1D1B"></path><path d="M43.4001 24.8C42.7001 25.8 41.8001 26.5 40.5001 27.3C39.3001 28 38.0001 28.6 36.9001 29.4C36.8001 29.5 36.9001 29.5 37.0001 29.5C39.0001 28 42.9001 26.9 43.4001 24.8C43.5001 24.8 43.5001 24.8 43.4001 24.8Z" fill="#1D1D1B"></path><path d="M26 43.2C26.7 42.1 27.1 40.9 27.5 39.8C27.5 39.7 27.4 39.7 27.3 39.8C26.7 40.9 26.1 42.1 25.8 43.2H26Z" fill="#1D1D1B"></path><path d="M25.3 42.3C25.8 41.4 26.4 40.5 26.9 39.6C26.9 39.5 26.8 39.5 26.7 39.5C26 40.3 25.5 41.3 25.1 42.2C25 42.3 25.2 42.4 25.3 42.3Z" fill="#1D1D1B"></path><path d="M25.5 40.6C26 40.1 26.4 39.7 26.9 39.2C26.9 39.2 26.8 39.1 26.8 39.2C26.3 39.6 25.8 40.1 25.3 40.5C25.3 40.6 25.5 40.7 25.5 40.6Z" fill="#1D1D1B"></path><path d="M24.6001 41.8C25.4001 41.2 25.8001 40.4 26.2001 39.7C26.2001 39.6 26.1001 39.6 26.0001 39.7C25.5001 40.3 24.9001 41 24.6001 41.8Z" fill="#1D1D1B"></path><path d="M24.9999 41.5C25.2999 41.7 25.8999 41.5 25.8999 41.2C25.8999 41.2 25.8999 41.1 25.7999 41.1C25.6999 41.1 25.6999 41.1 25.5999 41.1C25.4999 41.1 25.5999 41.2 25.4999 41.2C25.4999 41.2 25.4999 41.3 25.3999 41.3C25.2999 41.4 25.1999 41.4 25.0999 41.3C24.9999 41.3 24.8999 41.4 24.9999 41.5Z" fill="#1D1D1B"></path><path d="M25.2 42.1C25.5 42 25.7 41.9 25.9 41.7C26 41.6 26.2 41.4 26.2 41.2H26.1C26 41.3 25.9 41.5 25.7 41.6C25.5 41.7 25.3 41.9 25.1 42C24.9 42.1 25 42.2 25.2 42.1Z" fill="#1D1D1B"></path><path d="M25.5 42.3C25.8 42.2 26 42.1 26.2 41.9C26.3 41.8 26.6 41.6 26.5 41.5H26.4C26.2 41.5 26 41.7 25.9 41.8C25.7 41.9 25.5 42.1 25.3 42.2C25.3 42.2 25.4 42.3 25.5 42.3Z" fill="#1D1D1B"></path><path d="M26 41.8C26.1 41.8 26.2 41.7 26.3 41.7C26.4 41.7 26.3 41.6 26.2 41.6C26.1 41.7 26 41.7 26 41.8C25.9 41.8 25.8 41.7 26 41.8Z" fill="#1D1D1B"></path><path d="M25.8 42.1C25.9 42.2 25.9 42.2 26 42.3H26.1001C26.3001 42.2 26.4 42.1 26.4 41.9C26.5 41.7 26.5 41.6 26.5 41.4C26.5 41.3 26.3 41.3 26.3 41.4C26.2 41.6 26.1001 41.7 26.1001 41.8C26.0001 41.9 25.9 42.1 25.9 42.2H26C26 42.2 25.9 42.1 25.8 42.1Z" fill="#1D1D1B"></path><path d="M26.1999 42.6C27.0999 40.8 28.4999 39.1 30.1999 37.6C30.1999 37.6 30.1999 37.5 30.0999 37.6C28.1999 39.1 26.7999 40.8 25.9999 42.6C25.8999 42.7 26.0999 42.7 26.1999 42.6Z" fill="#1D1D1B"></path><path d="M26.1999 40.8C27.1999 39.6 28.2999 38.5 29.3999 37.4L29.2999 37.3C27.9999 38.4 26.9999 39.5 25.9999 40.7C25.8999 40.8 26.0999 40.9 26.1999 40.8Z" fill="#1D1D1B"></path><path d="M26 40.4C26.7 40 27.2 39.5 27.7 39C27.7 39 27.7001 39 27.6001 39C27.1001 39.5 26.6 40 26 40.4C25.9 40.4 25.9 40.4 26 40.4Z" fill="#1D1D1B"></path><path d="M25.9001 47.3C26.2001 46.6 26.3001 45.5 25.9001 44.8H25.8001C25.7001 45.2 25.8001 45.6 25.8001 46C25.8001 46.5 25.8001 46.9 25.9001 47.3C25.9001 47.4 25.9001 47.4 25.9001 47.3Z" fill="#1D1D1B"></path><path d="M25.8001 47.3C26.3001 47.2 26.3001 46.6999 26.3001 46.3999C26.4001 45.6999 26.3001 44.9 26.0001 44.2H25.9001C25.9001 44.7 26.0001 45.1 26.0001 45.6C26.0001 45.8 26.1001 47 25.7001 47.1C25.6001 47.2 25.7001 47.4 25.8001 47.3Z" fill="#1D1D1B"></path><path d="M25.8 47.2C25.7 46.3 25.4 45.4 24.9 44.5C24.9 44.4 24.7 44.5 24.8 44.5C25.1 45.4 25.4 46.3 25.7 47.2C25.6 47.2 25.8 47.2 25.8 47.2Z" fill="#1D1D1B"></path><path d="M25.4 46.9C25.2 46 24.9 45.1 24.4 44.2C24.4 44.1 24.2 44.2 24.3 44.2C24.7 45.1 25 46 25.3 46.9C25.2 47 25.4 47 25.4 46.9Z" fill="#1D1D1B"></path><path d="M24.8 46.1C24.6 45.3 24.4 44.6 24 43.9C24 43.8 23.8 43.9 23.8 43.9C24.1 44.6 24.4 45.3 24.5 46.1C24.6 46.3 24.8 46.2 24.8 46.1Z" fill="#1D1D1B"></path><path d="M25.5001 46.2C25.4001 45.4 25.3001 44.5 25.2001 43.7C25.2001 43.7 25.1001 43.6 25.1001 43.7C25.2001 44.5 25.2001 45.4 25.3001 46.2C25.4001 46.2 25.6001 46.2 25.5001 46.2Z" fill="#1D1D1B"></path><path d="M25.8 47.1C26.1 46.1 26 45.1 25.5 44.1C25.5 44 25.3 44 25.3 44.1C25.6 45.1 25.7001 46.1 25.6001 47C25.6001 47.2 25.8 47.2 25.8 47.1Z" fill="#1D1D1B"></path><path d="M25.5999 47.1C25.5999 45.9 25.4999 44.8 25.0999 43.6C25.0999 43.5 24.8999 43.5 24.8999 43.6C25.0999 44.8 25.2999 45.9 25.2999 47.1C25.1999 47.2 25.5999 47.2 25.5999 47.1Z" fill="#1D1D1B"></path><path d="M25.5001 47.3001C25.5001 46.0001 25.3001 44.8 24.8001 43.5C24.8001 43.4 24.6001 43.4 24.6001 43.5C24.9001 44.7 25.1001 46 25.2001 47.2C25.1001 47.4 25.5001 47.4001 25.5001 47.3001Z" fill="#1D1D1B"></path><path d="M25.1 47.2C25.1 45.7 24.7 44 23.4 42.7C23.4 42.7 23.2 42.7 23.3 42.7C24.1 44.2 24.8 45.6 24.9 47.2C24.8 47.3 25.1 47.3 25.1 47.2Z" fill="#1D1D1B"></path><path d="M25.7999 46.7C25.9999 45.8 25.9999 44.9 25.5999 44C25.5999 43.9 25.3999 44 25.3999 44C25.5999 44.9 25.6999 45.7 25.4999 46.6C25.4999 46.8 25.7999 46.8 25.7999 46.7Z" fill="#1D1D1B"></path><path d="M25.7 46.8001C26 45.7001 26.3 44.6 26.3 43.5C26.3 43.4 26.2 43.4 26.1 43.5C25.7 44.6 25.6 45.7001 25.5 46.8001H25.7Z" fill="#1D1D1B"></path><path d="M25.7 45.2C25.7 44.5 25.3 43.8 24.7 43.1C24.6 43 24.5 43.1 24.6 43.2C25.2 43.8 25.4 44.5 25.5 45.2C25.5 45.3 25.7 45.3 25.7 45.2Z" fill="#1D1D1B"></path><path d="M28.0999 43.6C29.7999 42.8 30.9999 41.5 33.2999 41.6C34.3999 41.6 34.9999 42 35.8999 42.3C36.3999 42.5 36.9999 42.5 37.4999 42.3C37.5999 42.3 37.4999 42.0999 37.3999 42.1999C36.3999 42.4999 35.4999 41.8 34.5999 41.6C33.8999 41.4 33.0999 41.2999 32.2999 41.3999C31.5999 41.4999 30.9999 41.7 30.3999 42C29.4999 42.4 28.5999 42.9 27.8999 43.5C27.8999 43.5 27.9999 43.6 28.0999 43.6Z" fill="#1D1D1B"></path><path d="M32.2999 41.5C32.3999 41.4 32.4999 41.4 32.5999 41.4V41.2C32.1999 41.2 31.7999 41.2 31.3999 41.2C31.1999 41.2 31.0999 41.4 31.2999 41.5C31.4999 41.5 31.6999 41.6 31.9999 41.6C32.1999 41.6 32.2999 41.4 32.0999 41.4C31.9999 41.4 31.8999 41.4 31.7999 41.3C31.6999 41.3 31.5999 41.4 31.6999 41.4C31.7999 41.4 31.8999 41.5 31.9999 41.5C32.0999 41.4 32.0999 41.4 32.1999 41.3C31.9999 41.2 31.7999 41.2 31.5999 41.1C31.5999 41.2 31.4999 41.3 31.4999 41.3C31.8999 41.3 32.2999 41.3 32.6999 41.3C32.8999 41.3 32.9999 41.1 32.6999 41.1C32.3999 41.1 32.0999 41.1 31.9999 41.3C31.8999 41.5 32.1999 41.6 32.2999 41.5Z" fill="#1D1D1B"></path><path d="M41.4 42.7C42.3 42.9 43.7 42.5 44.5 42.2C44.6 42.1 44.5 42 44.4 42.1C43.9 42.2 43.4 42.4 42.9 42.5C42.3 42.5 41.8 42.5 41.4 42.7C41.3 42.6 41.3 42.6 41.4 42.7Z" fill="#1D1D1B"></path><path d="M13.3001 42.3C15.0001 42.1 16.6001 42 18.3001 42.2C19.9001 42.4 21.2001 42.9 22.6001 43.5C22.7001 43.6 22.9001 43.4 22.8001 43.3C20.4001 41.9 16.2001 41.6 13.3001 42.3C13.2001 42.3 13.2001 42.2 13.3001 42.3Z" fill="#1D1D1B"></path><path d="M20.5 35C20.1 36.6 20.8 38.4 21.7 39.9C22.2 40.7 22.8 41.5 23.4 42.2C24.2 43.1 25.2 44 24.9 45.2C24.9 45.3 25.1 45.4 25.2 45.3C25.6 44.6 25.2 43.9 24.7 43.2C24 42.4 23.2 41.6 22.6 40.7C21.2 38.8 20.5 37 20.5 35Z" fill="#1D1D1B"></path><path d="M12.2 20.6999C12.3 20.6999 12.4 20.7 12.6 20.6C12.7 20.6 12.7 20.3999 12.6 20.3999C10.7 20.0999 8.99999 20.9999 8.39999 22.1999C7.99999 22.8999 8 23.6999 7.7 24.3999C7.4 25.2999 7 26.2999 6.5 27.1999C6.5 27.2999 6.6 27.2999 6.7 27.1999C7.6 25.8999 7.99999 24.7 8.39999 23.3C8.59999 22.7 8.8 22.0999 9.3 21.4999C10.1 20.6999 11.3 20.5 12.6 20.6C12.6 20.5 12.6 20.4999 12.5 20.3999C12.4 20.3999 12.3 20.4999 12.2 20.4999C12.1 20.5999 12.1 20.6999 12.2 20.6999Z" fill="#1D1D1B"></path><path d="M14.1001 21.1C14.5001 21.7 15.1001 22.1 15.4001 22.7C15.7001 23.2 15.8001 23.8 16.0001 24.3C16.0001 24.4 16.2001 24.4 16.2001 24.3C16.3001 23.2 15.5001 21.7 14.1001 21.1C14.1001 21 14.1001 21 14.1001 21.1Z" fill="#1D1D1B"></path><path d="M15.1 20.9C15.9 21.7 16.5 22.5 17 23.3C17.1 23.4 17.3 23.4 17.2 23.3C16.8 22.4 16.2 21.5 15.3 20.8C15.2 20.7 15 20.8 15.1 20.9Z" fill="#1D1D1B"></path><path d="M15.2 20.7C15.9 21 16.6 21.3 17.2 21.7C17.8 22.1 18.3 22.5 18.8 22.9C18.9 23 19.1 22.9 19 22.8C18.3 21.8 16.8 21 15.3 20.6C15.1 20.5 15.1 20.6 15.2 20.7Z" fill="#1D1D1B"></path><path d="M15.2999 21.1C16.8999 21.8 17.6999 22.9 18.1999 24.1C18.1999 24.2 18.3999 24.2 18.3999 24.1C18.2999 22.8 16.9999 21.7 15.3999 20.9C15.2999 20.9 15.0999 21 15.2999 21.1Z" fill="#1D1D1B"></path><path d="M15.5001 21C15.9001 21.1 16.3001 21.3 16.5001 21.6C16.7001 21.8 16.7001 22.1 16.9001 22.3H17.0001C17.3001 22.1 17.0001 21.7 16.8001 21.5C16.5001 21.2 16.1001 20.9999 15.6001 20.8999C15.5001 20.7999 15.3001 21 15.5001 21Z" fill="#1D1D1B"></path><path d="M14.2 20.8999C14.4 20.8999 14.5 20.8999 14.7 20.8999C14.7 20.7999 14.7001 20.8 14.6001 20.7C14.3001 20.9 14 21 13.7 21.1C13.5 21.2 13.6001 21.3 13.8001 21.3C14.1001 21.3 14.3001 21.2 14.6001 21.2C14.8001 21.2 14.7001 20.9 14.5001 21C14.2001 21 14 21.1 13.7 21.1C13.5 21.1 13.5 21.3 13.7 21.3C14.7 21.7 15.1001 22.4 15.3001 23.1C15.3001 23.2 15.6001 23.2 15.6001 23.1C15.7001 22.3 14.9 21.6 13.9 21.2C13.9 21.3 13.9 21.2999 13.9 21.3999C14.2 21.3999 14.4 21.3 14.7 21.3C14.7 21.2 14.6001 21.1 14.6001 21.1C14.3001 21.2 14.1001 21.2 13.8001 21.3C13.8001 21.4 13.9 21.4 13.9 21.5C14.3 21.4 14.6 21.2 14.9 21.1C15 21 14.9001 20.8999 14.8001 20.8999C14.6001 20.8999 14.5001 20.8999 14.3001 20.8999C14.2001 20.6999 14.1 20.8999 14.2 20.8999Z" fill="#1D1D1B"></path><path d="M14.5999 21.2C15.1999 22 15.3999 22.7 15.6999 23.5C15.6999 23.6 15.9999 23.6 15.9999 23.5C16.0999 22.7 15.5999 21.8 14.9999 21.1C14.7999 20.9 14.3999 21.1 14.5999 21.2Z" fill="#1D1D1B"></path><path d="M14.7 20.9C15.7 21.3 16.4 21.9 16.7 22.6C16.8 22.7 17 22.7 17 22.5C16.7 21.7 15.9 21.1 14.9 20.7C14.7 20.6 14.5 20.8 14.7 20.9Z" fill="#1D1D1B"></path><path d="M16.3999 21.4C17.9999 22.4 18.8999 23.6 19.1999 25C19.1999 25.1 19.3999 25 19.3999 25C19.1999 23.6 18.0999 22.3 16.3999 21.4C16.3999 21.4 16.4999 21.3 16.3999 21.4Z" fill="#1D1D1B"></path><path d="M15.6001 21.6999C16.1001 23.3999 16.8001 25.0999 18.0001 26.6999C18.0001 26.7999 18.2001 26.6999 18.2001 26.6999C17.3001 25.0999 16.4001 23.3999 15.8001 21.6999C15.8001 21.4999 15.6001 21.5999 15.6001 21.6999Z" fill="#1D1D1B"></path><path d="M15.5 23.7C15.8 24.4 16.2 25.2 16.6 25.9H16.7C16.3 25.1 15.9 24.4 15.5 23.7C15.5 23.7 15.6 23.6 15.5 23.7Z" fill="#1D1D1B"></path><path d="M15.6001 23.4C15.8001 24.4 16.2001 25.5 17.0001 26.4C17.0001 26.4 17.2001 26.4 17.1001 26.4C16.5001 25.4 16.0001 24.5 15.7001 23.5C15.7001 23.3 15.6001 23.4 15.6001 23.4Z" fill="#1D1D1B"></path><path d="M15.9 23.4C16.2 24.3 16.4 25.3 16.8 26.2C16.8 26.3 17 26.3 17 26.2C16.9 25.3 16.5 24.3 16.2 23.4C16.1 23.2 15.8 23.3 15.9 23.4Z" fill="#1D1D1B"></path><path d="M16.2999 22C17.0999 22.8 17.5999 23.7 18.0999 24.7C18.1999 24.8 18.3999 24.8 18.3999 24.7C18.0999 23.7 17.3999 22.8 16.5999 22C16.4999 21.7 16.1999 21.8 16.2999 22Z" fill="#1D1D1B"></path><path d="M17.9 22.8C18.3 23.4 18.8 24.1 19.2 24.7C19.3 24.8 19.4 24.7 19.4 24.6C19 23.9 18.6001 23.3 18.1001 22.6C18.1001 22.6 17.8 22.7 17.9 22.8Z" fill="#1D1D1B"></path><path d="M17.3 23.6C17.8 24.2 18.4 24.8 19.2 25.4C19.3 25.5 19.5 25.4 19.4 25.3C18.7 24.7 18.1 24.2 17.6 23.5C17.4 23.4 17.2 23.5 17.3 23.6Z" fill="#1D1D1B"></path></svg> 