<?xml version="1.0" encoding="UTF-8"?> <svg xmlns="http://www.w3.org/2000/svg" width="18" height="18" fill="none"><path fill-rule="evenodd" clip-rule="evenodd" d="M9 0a9 9 0 100 18A9 9 0 009 0zM7.021 4.229c.512-.023.676-.03 1.98-.03h-.002c1.304 0 1.467.007 1.979.03.511.023.86.104 1.166.223.316.122.583.286.85.553.267.267.431.535.554.85.118.306.199.655.223 1.166.023.512.029.675.029 1.979s-.006 1.467-.029 1.979c-.024.51-.105.86-.223 1.165a2.356 2.356 0 01-.554.85 2.348 2.348 0 01-.85.554c-.305.119-.654.2-1.165.223-.512.023-.675.029-1.98.029-1.303 0-1.466-.006-1.978-.029-.511-.023-.86-.104-1.165-.223a2.35 2.35 0 01-.85-.554 2.352 2.352 0 01-.554-.85c-.119-.306-.2-.654-.223-1.165C4.206 10.467 4.2 10.304 4.2 9s.006-1.467.029-1.98c.023-.51.104-.86.223-1.164.123-.316.287-.584.554-.85a2.35 2.35 0 01.85-.554c.305-.119.654-.2 1.165-.223z" fill="#000"></path><path fill-rule="evenodd" clip-rule="evenodd" d="M8.569 5.065h.43c1.282 0 1.434.005 1.94.028.468.021.722.1.891.165.224.087.384.19.552.359.168.168.272.328.36.552.065.169.143.423.164.89.023.507.028.659.028 1.94 0 1.28-.005 1.433-.028 1.939-.021.468-.1.722-.165.891a1.484 1.484 0 01-.36.551 1.484 1.484 0 01-.55.36c-.17.065-.424.143-.892.165-.506.023-.658.028-1.94.028-1.281 0-1.433-.005-1.94-.028-.467-.022-.721-.1-.89-.166a1.487 1.487 0 01-.552-.359 1.488 1.488 0 01-.36-.551c-.065-.17-.144-.424-.165-.892-.023-.505-.028-.657-.028-1.94 0-1.281.005-1.432.028-1.938.021-.468.1-.722.165-.892a1.49 1.49 0 01.36-.552 1.49 1.49 0 01.552-.359c.169-.066.423-.144.89-.165.444-.02.615-.026 1.51-.027v.001zm2.993.797a.576.576 0 100 1.152.576.576 0 000-1.152zM6.534 9a2.465 2.465 0 114.93 0 2.465 2.465 0 01-4.93 0z" fill="#000"></path><path d="M9 7.4a1.6 1.6 0 110 3.2 1.6 1.6 0 010-3.2z" fill="#000"></path></svg> 