<?xml version="1.0" encoding="UTF-8"?> <svg xmlns="http://www.w3.org/2000/svg" width="128" height="118" fill="none"><path d="M104.48 21.616c-.532-1.863-3.19-2.661-4.785-3.193-2.392-.798-4.784-1.597-7.442-1.597-3.722 0-7.975 2.395-8.24 6.653-.266 3.725 3.721 6.12 6.91 6.12 2.127 0 4.254-.798 6.38-1.863 2.658-1.33 5.051-3.193 7.443-4.79.532-.798 0-1.596-.266-1.33-3.455 2.129-6.911 5.056-10.898 6.12-3.19.799-7.974 0-8.24-3.725-.532-4.524 4.519-6.386 7.974-6.12 2.126.266 4.253.798 6.114 1.596.797.266 1.595.532 2.392 1.065l2.392 1.596c0-.266.266-.266.266-.532z" fill="#1D1D1B"></path></svg> 