<?xml version="1.0" encoding="UTF-8"?> <svg xmlns="http://www.w3.org/2000/svg" width="128" height="130" fill="none"><path d="M63.93 31.754c.797-2.661 3.455-3.992 4.784-6.387 1.33-2.129 1.595-4.79 1.33-7.45-.267-2.928-1.33-5.855-2.393-8.516-1.33-2.927-2.658-6.12-3.987-9.047 0-.266-.266-.266-.532 0-3.721 3.991-5.848 8.781-6.114 14.103-.265 6.12 2.393 11.442 5.317 16.498.265.533 1.063 0 .797-.532-2.924-4.79-5.582-9.845-5.316-15.7 0-5.056 2.126-10.378 5.582-14.37h-.532c1.063 2.928 2.392 5.589 3.456 8.516 1.329 2.927 2.392 5.854 2.658 9.047.266 2.928-.266 5.855-2.127 8.25-1.329 1.862-3.19 3.193-3.721 5.322 0 .532.532.532.797.266z" fill="#1D1D1B"></path><path d="M61.803 29.624c.532 0 .798 0 1.063.532.266.533 0 1.33-.265 1.863 0 .532.797.798 1.063.266.266-1.064 0-2.395-.532-3.193 0 .266-.266.532-.266.798.266.266.532.532 1.064.799 0 .266 0 .266-.266.532 0 .266-.266.798-.266 1.064l-.797 2.395c-.532 1.597-1.064 3.193-1.33 4.79-.531 2.395-.531 4.524.532 6.919 1.063 1.862 2.658 3.459 3.722 5.588 1.329 2.927-.532 6.12-.266 9.313 0 .266.531.532.531.266.798-1.596 1.064-3.193 1.33-4.79.265-1.596.531-3.193 0-4.523-.798-2.661-2.925-4.524-4.254-6.919-1.86-3.46.266-7.45 1.064-10.91.265-1.064.531-1.863.797-2.927.266-.532.532-1.33.266-1.863-.532-.798-1.595-.798-2.392-.798-.266 0-.532.532-.266.798.531.799.797 1.597.531 2.395.266 0 .798 0 1.064.266v-2.66c0-.267 0-.267-.266-.267-.798-.798-1.86-.798-1.86.266z" fill="#1D1D1B"></path><path d="M62.335 29.625c-.266.798-.266 1.33-.266 2.129v3.193c0 1.064-.266 2.129-.532 3.193-.265.798-.531 1.597-.265 2.395 0 .266.266.266.531 0 1.064-1.064 1.064-3.725 1.064-5.322.265-1.33.797-4.258-.532-5.588.266 0 0 0 0 0z" fill="#1D1D1B"></path><path d="M62.6 29.89c-.797 1.862-1.063 3.725-1.328 5.854-.266 1.862-.532 3.46-.798 5.322 0 1.064 0 2.129.798 3.193.797 1.064 2.126 1.064 3.19 1.33.265 0 .265-.266.265-.266-.797-1.064-2.392-1.064-2.924-2.395-.531-1.064 0-2.66 0-3.725.266-2.927 1.063-6.12 1.063-9.047.266-.532-.265-.532-.265-.266z" fill="#1D1D1B"></path></svg> 