<?xml version="1.0" encoding="UTF-8"?> <svg xmlns="http://www.w3.org/2000/svg" width="128" height="151" fill="none"><path d="M61.57 47.166c.532.532 1.33.798 1.861 1.33a.588.588 0 00.798-.798c-.797-1.065-2.127-1.33-3.19-.532-.266.266-.266.798 0 1.064 1.063.266 2.127.266 3.19-.266.532-.266.266-1.065-.532-1.065-.531 0-1.063.267-1.595.267 0 .266 0 .798.266 1.064.532 0 .798 1.33.798 1.863v1.064c0 .798-.266 1.597-.266 2.661-.266 1.863-.532 3.725-.532 5.322-.266 3.193-1.063 6.652-.266 9.846.532 2.927 2.924 5.322 3.722 8.249.797 3.459-.532 7.184-1.595 10.644 0 .266.266.532.532.266 1.594-3.193 2.924-6.653 2.392-10.378-.266-1.863-1.063-3.46-2.127-5.056-1.063-1.863-1.86-3.725-2.126-5.854-.266-3.992.797-8.25 1.063-12.24.266-1.863 1.595-7.718-1.86-7.185-.798 0-.532 1.064.265 1.064.532 0 1.33-.266 1.86-.266l-.53-1.064c-.798.266-1.596.266-2.127 0-.266.266-.266.532-.266.798.532-.532 1.33-.266 1.86.266l.798-.798c-.532-.533-1.329-.799-1.86-1.065-.532 0-1.064.532-.532.799z" fill="#1D1D1B"></path><path d="M61.837 47.697c0-.267-.266-.267-.266-.533-.266-.266-.797-.266-.797 0-.532 2.13.265 4.258.531 6.387.266 2.66.266 5.322-.266 8.249-.531 2.129-.797 3.991 0 5.854.798 2.129 1.861 4.524 3.19 6.386.266.267.532 0 .532-.266-.532-2.128-1.33-3.991-2.392-6.12-.532-1.064-.798-2.129-.798-3.46 0-1.33.532-2.66.797-3.99a25.674 25.674 0 000-6.387c-.265-2.129-.797-4.258-1.063-6.653l-.531.533h.797c.532.266.532 0 .266 0z" fill="#1D1D1B"></path><path d="M62.368 47.697c-.797 2.129-.531 4.523-.265 6.918 0 .533 1.063.533 1.063-.266-.266-1.862-.532-3.725-.798-5.322 0-.532-1.063-.532-1.063.266 0 1.065.266 2.395.532 3.46.266.532 1.063.532 1.063-.266 0-1.597 0-3.194-.266-4.79 0-.532-1.063-.532-1.063 0-.266 1.862.266 3.46.797 5.056.266.532.798.266 1.064 0 .265-1.597.531-3.194.531-4.79 0-.532-.797-.798-1.063-.266-.266 1.33-.532 2.395 0 3.725 0 .532.797.532 1.063 0l.798-3.991h-1.33c0 1.596 0 3.459.798 5.056.797 1.33 1.86 2.395 2.924 3.725 2.924 3.46 1.33 7.717 1.595 11.708 0 .533.531.533.797 0 .798-1.862.798-3.991 1.064-5.854 0-1.596 0-3.46-.798-5.056-.532-1.33-1.86-2.395-2.658-3.459-1.595-1.863-2.127-3.725-2.127-6.12 0-.798-1.063-.798-1.063 0 0 1.33-.266 2.395-.531 3.725h1.063a6.493 6.493 0 010-3.193c-.266 0-.798 0-1.063-.266 0 1.596-.266 2.927-.532 4.523h1.063c-.797-1.33-1.063-2.927-.797-4.523h-1.063a14.485 14.485 0 010 4.79c.265 0 .797 0 1.063-.267-.266-1.064-.532-2.128-.532-3.193-.266 0-.797 0-1.063.266.266 1.597.797 3.46.797 5.056h1.064a25.674 25.674 0 010-6.386c-.532-.798-1.064-.798-1.064-.266z" fill="#1D1D1B"></path><path d="M61.571 48.497c-.797 1.064-1.063 2.395-1.329 3.459-.532 1.33-.797 2.66-1.329 3.725-1.063 2.395-2.924 4.258-3.987 6.653-1.86 3.459-1.595 8.515 1.86 10.644.266.266.532-.266.532-.532-1.063-1.863-2.126-3.726-2.126-5.855 0-2.395 1.329-4.523 2.658-6.386 1.329-1.863 2.126-3.725 2.924-5.854.531-1.863 1.594-4.258 1.329-6.12-.266 0-.532 0-.532.266zm6.379 7.183c-1.063 1.33-1.329 3.193-.531 4.523 0 .266.266 0 .266-.266-.266-1.596 0-2.927.531-4.257h-.266z" fill="#1D1D1B"></path><path d="M63.432 20.29c-.798 10.112-1.33 20.49-1.33 30.601 0 .799 1.064.799 1.33.266a49.05 49.05 0 00.797-8.78c0-.8-1.329-.8-1.329 0 0 2.128 0 4.257.532 6.386.265.798 1.329.532 1.329-.267-.266-2.927-.532-5.588-.798-8.515 0-.798-1.063-.798-1.329 0-.266 2.395-.531 5.056-1.329 7.451.532 0 .798 0 1.33.266 0-4.79 0-9.58.53-14.37.267-4.79.532-9.579 1.064-14.369 0-.266-.532-.266-.532 0-.531 2.395-.797 4.524-1.063 6.653-.266 2.395-.531 4.79-.531 7.185-.266 4.79-.532 9.845-.266 14.635 0 .798 1.063.798 1.329.266.532-2.66 1.063-5.056 1.329-7.717-.532 0-.798 0-1.33.266.267 2.661.532 5.588.798 8.25.532 0 .798 0 1.33-.267-.532-2.128-.532-3.991-.532-6.12h-1.33c0 2.927 0 5.588-.531 8.25.532 0 .797 0 1.33.265.53-10.112.53-20.49.796-30.601-1.063-.266-1.594-.266-1.594.266z" fill="#1D1D1B"></path><path d="M63.697 21.353c.798-2.395 1.064-5.056.798-7.45 0-2.13-.266-4.258-1.33-6.12-1.594-2.928-5.315-5.057-8.24-2.928-3.19 2.395-1.86 6.652 0 9.58 1.064 1.596 2.393 2.927 4.254 3.725.797.266 1.594.266 2.392.532 1.329.532 1.063 2.661.797 3.992 0 .266.266.532.532.266.797-1.065 1.063-2.129.797-3.46-.265-1.33-.797-1.862-2.126-1.862-3.721-.266-7.177-4.524-7.177-8.515 0-2.13 1.595-3.992 3.987-3.726 1.86.266 3.456 1.863 4.253 3.46 1.86 3.991.798 8.249 1.063 12.506 0 .266 0 0 0 0z" fill="#1D1D1B"></path><path d="M61.306 5.387c.531-1.596.265-3.193 2.126-3.725 1.595-.532 3.19.532 3.987 1.863 1.595 2.129 2.127 5.056 1.595 7.45-.266 2.395-1.595 4.524-3.19 6.387-1.063 1.597-2.658 3.46-2.392 5.588 0 .266.266.266.532.266.797-1.33 1.329-2.66 2.392-3.991 1.063-1.33 2.126-2.661 2.658-3.992 1.33-2.66 1.595-6.12.797-9.047C69.014 3.525 67.153.332 64.23.598c-2.126.266-4.784 2.927-3.455 5.056.266 0 .532 0 .532-.267z" fill="#1D1D1B"></path></svg> 