<?xml version="1.0" encoding="UTF-8"?> <svg xmlns="http://www.w3.org/2000/svg" width="128" height="166" fill="none"><path d="M63.724 63.23h.531v-.533h-.531v.266c-.266 0-.266 0 0 .267-.266 0-.266 0 0 0z" fill="#1D1D1B"></path><path d="M64.787 21.452c-.798 7.983-.798 15.966-1.063 23.683-.266 3.992-.266 7.717-.266 11.709 0 1.862-.798 5.854 1.86 6.386.532 0 1.064-.266 1.064-.798-1.595-14.104.531-28.207 0-42.31 0-.532-.798-.532-.798 0-.797 6.918-.797 14.103-1.063 21.288-.266 6.918-.266 14.103.532 21.022.266-.266.531-.532 1.063-.799-1.33-.266-.797-3.193-.797-4.257V52.32c0-3.46.265-6.919.265-10.644 0-6.919.532-13.837.266-20.756-.531 0-1.063 0-1.063.532z" fill="#1D1D1B"></path><path d="M65.053 23.05c1.329-3.726 0-7.984-1.33-11.443-.797-1.862-1.328-4.257-.797-6.386.532-1.863 3.19-3.992 5.05-2.395 1.33 1.33 1.33 3.725 1.33 5.322 0 2.129-.266 4.524-1.063 6.386-.532 1.863-1.595 3.726-2.658 5.322-.798 1.33-1.33 2.927-1.064 4.524 0 0 .266.266.266 0 .532-1.064.798-2.395 1.595-3.46l1.595-3.193c1.063-2.128 1.86-4.257 2.126-6.652.532-2.927 1.064-9.047-2.658-10.112-3.987-1.33-6.38 3.193-6.113 6.387.265 2.395 1.329 4.523 1.86 6.652 1.063 2.927 1.063 5.588 1.063 8.781.266.533.532.533.798.266z" fill="#1D1D1B"></path><path d="M62.13 6.018c-1.33-1.597-3.988-1.33-5.583 0-1.86 1.596-1.86 4.524-1.329 6.919.532 2.394 2.126 4.523 3.987 6.12 1.063.798 2.658 1.33 3.721 2.129 1.064 1.064 1.064 2.927 1.33 4.257 0 .266.531.266.531 0 .532-1.596.266-3.46-.797-4.79-.798-.798-1.86-1.064-2.924-1.596-1.063-.532-1.86-1.33-2.658-2.129-1.595-1.863-2.658-4.258-2.658-6.919 0-1.33.531-2.927 1.86-3.725 1.33-.798 2.658-.532 3.987 0 .532.266.532-.266.532-.266zm2.657 29.006c2.924-5.056 6.645-9.048 11.696-11.709 2.658-1.33 5.316-2.66 8.24-2.395 2.924.266 5.848 2.13 5.582 5.322-.266 2.13-2.924 3.194-1.86 5.322.53 1.065 1.063 1.597 1.328 2.928 0 1.064-.266 2.394-1.329 3.193-2.126 2.395-5.848.532-7.974-.799-2.127-1.596-3.721-3.991-6.114-5.056-4.518-2.128-9.835.267-10.898 5.056 0 .267.266.533.532.267 1.329-2.928 4.253-5.322 7.442-4.79 3.456.266 5.05 3.459 7.709 5.322 2.126 1.596 4.784 3.193 7.708 2.66 2.127-.265 3.722-1.862 4.253-3.725.266-.798.266-1.862.266-2.66 0-.533-.266-.799-.531-1.331-.532-1.065-1.33-1.33-.532-2.927.532-1.065 1.329-1.597 1.595-2.661.266-1.065 0-2.395-.266-3.46-2.392-5.322-9.038-4.257-13.29-2.395-5.848 2.928-11.43 7.185-14.089 13.572-.265.266.266.532.532.266z" fill="#1D1D1B"></path><path d="M65.053 37.418c0-7.185-7.709-11.442-13.025-14.37-5.316-2.927-12.493-4.79-18.075-1.064-1.86 1.33-3.987 3.991-2.392 6.12.797 1.33 2.658 1.597 3.19 3.194.531 1.596-.266 3.459.265 5.055.798 2.13 3.19 3.726 5.582 3.194 2.924-.533 4.52-2.927 6.38-4.79 2.924-2.927 7.443-4.258 11.43-3.726 2.126.267 3.987 1.33 4.784 3.46.532 1.862.266 3.991.532 5.854 0 .266.532.266.532 0 0-2.661.797-5.854-1.064-7.983-1.595-1.863-3.987-2.395-6.38-2.661-2.657 0-5.581.532-7.973 1.863-2.393 1.33-3.722 3.459-5.848 5.322-1.064 1.064-2.658 1.862-4.253 1.33-1.861-.532-3.19-1.863-3.19-3.725 0-1.33.532-2.661 0-3.992-.266-1.064-1.33-1.596-2.127-2.395-3.987-2.927 1.595-6.386 4.253-7.184 3.19-.799 6.38-.266 9.304.798 3.455 1.33 6.91 3.46 10.1 5.588 3.456 2.395 6.38 5.322 6.912 9.58.531.798 1.063 1.064 1.063.532zm-1.329 23.683c-.266 4.258 0 8.25 0 12.507 0 4.258.266 8.25.266 12.507 0 3.991.266 8.249.266 12.24 0 2.129.266 4.258.266 6.121 0 1.862-.266 4.257.265 6.12 0 .266.532.266.532 0 .531-1.597.266-3.992.266-5.588 0-2.129 0-4.258-.266-6.12 0-4.258-.266-8.25-.266-12.507 0-3.992-.266-8.25-.266-12.24 0-4.258-.266-8.516-.797-12.774.532-.798-.266-.798-.266-.266z" fill="#1D1D1B"></path><path d="M63.192 60.035c-.532 1.065-.532 2.13-.266 3.46.266.532 1.064.532 1.064 0 0-1.065.265-2.13 1.063-3.194-.266 0-.532-.266-.798-.266.266 1.33.532 2.661.266 3.992h1.063c0-.798 0-1.597.266-2.395h-1.063v8.25l1.063-.267c-.797-2.395-1.063-4.524-1.329-6.919 0-.532-1.063-.798-1.063-.266-.266 1.863-.266 3.726.266 5.588.266.533 1.063.533 1.063-.266-.266-2.128-.532-3.991-.797-6.12 0-.532-1.064-.532-1.064.266.532 3.726.532 7.45 1.33 10.91 0 .532 1.063.532 1.063-.266a30.114 30.114 0 000-6.918c0-.533-1.064-.533-1.064 0 .266 3.725.266 7.184.266 10.91h1.063c-.531-3.992-1.063-7.717-1.594-11.709 0-.532-1.064-.532-1.064 0 .532 5.588 1.064 11.442 1.064 17.03 0 2.662.265 5.589.265 8.25 0 2.927-.265 5.854 0 8.781 0 .532.798.532.798 0 .531-2.661.531-5.588.531-8.515 0-2.927 0-5.588-.265-8.515-.266-5.855-.798-11.709-1.595-17.297h-.798c.532 3.992 1.064 7.717 1.33 11.709 0 .798 1.063.798 1.063 0 0-3.726-.266-7.185-.532-10.91h-1.063c.266 2.128.266 4.257-.266 6.386.266 0 .797 0 1.063.266-.266-3.726-.797-7.185-1.329-10.91H62.13c.266 2.129.532 3.991.797 6.12l1.064-.266c-.532-1.597-.532-3.193-.266-5.056-.266 0-.798 0-1.063-.266 0 2.395.531 4.79 1.329 7.185.265.532 1.063.532 1.063-.266V60.3c0-.798-1.063-.532-1.063 0 0 .799-.266 1.597-.266 2.395 0 .799 1.063.799 1.063 0 0-1.33 0-2.927-.532-4.257 0-.266-.531-.532-.797-.266-.797 1.064-1.33 2.395-1.33 3.725h1.064c-.266-1.064-.266-1.863 0-2.927.798 1.064.266.798 0 1.064z" fill="#1D1D1B"></path><path d="M63.99 61.102c-.798 1.064-1.063 2.395-1.595 3.725-.798 1.597-1.86 2.661-3.19 3.46-2.126 1.596-3.721 3.459-5.05 5.854-2.658 4.79-3.456 11.442-2.127 16.498 0 .532.532.266.798 0 .266-3.193.266-6.12.797-9.314.532-2.927 1.33-5.588 2.924-7.983 1.595-2.394 3.987-3.725 5.848-5.854 1.329-1.596 2.658-4.257 2.392-6.386-.266-.266-.531-.266-.797 0zm1.063.798c-1.063 4.524 4.519 8.515 7.442 10.91 2.127 1.863 3.722 3.992 4.52 6.919.797 2.66.53 5.588.797 8.249 0 .266.266.266.266 0 1.063-4.79.797-10.112-2.393-14.104-1.595-1.862-3.721-3.459-5.582-5.055-1.063-.799-2.126-1.863-2.658-3.194-.797-1.33-1.063-2.66-1.595-3.991-.266-.266-.531-.266-.797.266zM63.99 73.874c-.532 1.596 1.063 2.927 1.86 3.991 1.33 1.597 2.924 2.661 4.253 4.258 1.33 1.596 2.127 3.725 2.658 5.854.532 2.129.532 4.257.798 6.386 0 .266.531.266.531 0 1.595-3.725 0-8.515-2.126-11.708-1.063-1.863-2.392-3.193-3.987-4.524-.798-.798-1.595-1.33-2.127-2.129-.531-.798-.797-1.596-1.595-2.395 0 0 0 .267-.265.267zm-.266 4.789c-.532 1.863-2.924 3.725-4.253 5.056-1.329 1.597-2.658 3.193-3.19 5.322-1.329 3.725-1.329 8.781.266 12.507 0 .266.532 0 .532 0 0-4.79-.798-9.314 1.329-13.572 1.063-2.128 2.924-3.459 4.253-5.321.797-.799 2.392-2.661 1.86-3.726-.265-.532-.797-.532-.797-.266zm1.063 10.112c1.064 2.13 3.456 3.194 4.52 5.322 1.328 2.13 1.062 4.258.53 6.387 0 .266.266.798.532.266 1.33-1.863 1.33-4.258.532-6.387-.532-1.064-1.063-2.128-2.126-2.927-1.33-1.064-2.393-2.129-3.722-3.459 0-.266-.531.266-.266.798zm0 2.128c-3.721 3.193-7.177 7.983-4.785 12.773 0 .266.532 0 .532 0 0-2.395.266-5.056 1.33-7.185 1.062-1.862 2.923-3.193 3.455-5.322 0-.266-.266-.532-.532-.266z" fill="#1D1D1B"></path></svg> 