<?xml version="1.0" encoding="UTF-8"?> <svg xmlns="http://www.w3.org/2000/svg" width="128" height="178" fill="none"><path d="M66.771 42.235c-.496 6.45-.496 12.902-.248 19.353 0 3.226 0 6.452.248 9.43 0 .992-.248 4.962 1.735 4.217.248 0 .496-.248.496-.496-.248-5.459-.248-11.166-.496-16.624 0-2.73 0-5.46-.248-8.189 0-2.48.248-5.458-.248-7.94 0-.496-.991-.496-.991 0-.248 2.482 0 5.211 0 7.94 0 2.73.248 5.46.248 8.189.248 5.458.248 11.165.495 16.624.248-.248.248-.496.496-.496 0 0-.248-3.474-.248-3.722v-3.97c0-2.73 0-5.459-.248-8.188v-15.88c0-.993-.991-.993-.991-.248z" fill="#1D1D1B"></path><path d="M66.771 73.25c-.496 4.22-.248 8.685-.248 12.903 0 4.467.248 8.933.248 13.4.248 4.466.248 8.932.744 13.398.247 4.218.495 8.684 1.239 12.903 0 .248.496.248.496 0 0-4.467-.248-8.685-.496-13.151-.248-4.466-.496-8.684-.744-13.15-.248-4.219-.248-8.437-.248-12.903v-6.7c0-2.233 0-4.466-.247-6.7 0-.247-.496-.495-.744 0z" fill="#1D1D1B"></path><path d="M68.01 72.258c-.496 1.737-.248 3.722-.496 5.707 0 1.985 0 3.97-.247 5.707v11.91c0 3.97 0 7.692.248 11.662 0 1.985 0 3.97.247 6.203 0 1.737 0 3.722.496 5.707 0 .248.248.248.248 0 .496-1.737.248-3.722.248-5.707 0-1.985 0-3.97-.248-5.707 0-3.97-.248-7.94-.248-11.91V77.965c0-1.737.248-3.722 0-5.707.248-.248-.248-.248-.248 0z" fill="#1D1D1B"></path><path d="M68.258 75.236c-.743.992-.743 2.233-.743 3.226 0 .496.743.496.743 0 .496-.993.744-2.482 0-3.226-.248 0-.495 0-.495.248v1.24c0 .497 0 .993-.248 1.49h.743c0-.993.248-1.986.248-3.226 0 .248 0 0-.248.248z" fill="#1D1D1B"></path><path d="M68.01 74.492c0-.248-.247-.744 0-.993.248-.496-.743-.744-.991-.248-.744 3.226-3.47 4.218-5.949 6.203-1.983 1.49-3.965 3.226-5.453 5.211-2.974 3.722-5.452 8.436-4.957 13.399 0 .248.496.248.496 0 .496-2.481 1.24-5.21 2.479-7.444 1.239-2.481 2.726-4.466 4.461-6.451 1.735-1.985 3.966-3.474 6.197-4.963 2.23-1.488 3.717-2.977 3.965-5.707-.248 0-.495.249-.743.249.248.248.495.744.495.992-.247 0 0 0 0-.248zm-.496 7.195c-.743.744-.991 1.985-1.487 2.977-.743 1.24-1.487 2.481-2.726 3.226-2.231 1.489-4.462 2.73-6.197 4.714-3.222 3.722-5.205 9.181-2.974 13.647.248.248.743.248.496-.248-.248-2.729-.248-5.459.743-7.94.992-2.481 2.479-4.715 4.71-6.451 1.734-1.49 4.213-2.482 5.7-4.467.992-1.488 2.23-3.721 1.983-5.706.248 0 0 0-.248.248zm.249 15.383c-2.231 3.474-5.949 5.956-8.18 9.429-1.983 3.226-3.222 7.94-1.983 11.662 0 .248.496.248.496 0 .496-1.985.248-3.97.744-5.707.495-1.985 1.239-4.218 2.478-5.955 2.231-3.225 5.453-5.458 7.188-8.932 0-.496-.496-.744-.743-.496z" fill="#1D1D1B"></path><path d="M67.267 74.244c.248 1.985 3.47 2.978 4.709 3.97a29.916 29.916 0 015.948 5.21c1.735 1.986 3.223 4.467 4.214 6.948.991 2.482 1.24 4.963 1.487 7.444 0 .248.496.248.496 0 1.24-4.962-1.487-10.67-4.462-14.391-1.487-1.985-3.47-3.722-5.452-5.21-1.24-.745-2.231-1.49-3.47-2.234-.992-.496-1.983-1.489-3.222-1.985 0-.248-.248 0-.248.248zm1.239 7.94c-.247 0-.247 0 0 0-.495.248-.495.496-.495.744 0 3.226 4.957 4.714 6.94 6.7 1.735 1.488 2.478 3.721 3.222 5.706.496 1.24.743 2.233.991 3.474s.248 2.481.248 3.97c0 .248.496.496.496.248 1.24-1.985.743-4.466.248-6.451-.496-1.985-1.24-4.218-2.479-5.955-.991-1.489-2.23-2.73-3.718-3.474-1.239-.992-4.461-2.233-4.709-4.218-.248-.744-.496-.993-.744-.744zm-1.239 12.902c.495 1.24 1.735 1.737 2.726 2.48 1.487.745 2.727 1.986 3.718 3.227 1.983 2.729 2.478 5.706 3.47 8.684.248.496.743.248.743 0 .496-3.226-.991-6.699-2.726-9.181a19.832 19.832 0 00-3.222-3.225c-1.24-.993-2.974-1.985-4.462-2.482 0 0-.247.249-.247.497zm-.001 12.406c1.24 1.737 2.727 3.226 3.718 5.211.496.992.992 1.985 1.488 3.225.247.993.743 1.985.743 2.73 0 .248.248.496.496.248 1.735-.993-.248-4.467-.992-5.707-1.239-2.233-2.726-4.715-4.957-6.203-.248-.248-.743.248-.496.496z" fill="#1D1D1B"></path><path d="M67.763 109.478c.247 0 .495 0 .495-.249 0-.248 0-.248-.248-.496-.247-.248-.247-.248-.495 0-1.487.745-2.479 2.978-2.975 4.218-.743 1.737-1.239 3.722-.495 5.707 0 .248.495.248.495 0 .496-1.737.744-3.474 1.24-5.21.495-1.489 1.487-2.73 2.23-4.219l-.247.249c-.248-.249-.248-.249-.248-.497 0 .497.248.497.248.497zm-.248-67.49c4.213-1.985 7.188-5.707 8.427-9.925.743-2.73 1.487-5.459 4.461-6.7 2.727-.992 4.957.497 7.436 1.241 1.983.744 4.213.744 5.948-.496 1.983-1.489 3.223-3.722 4.958-5.21 3.965-3.723 9.17-5.46 13.88-7.693 4.957-2.233 9.914-4.962 13.136-9.677.496-.744-.496-1.24-.991-.744-5.949 8.684-17.598 9.925-25.53 16.128-1.983 1.489-3.222 3.226-4.957 5.21-.991.993-1.983 1.986-3.718 1.986-1.239 0-2.726-.497-3.718-.993-1.982-.744-4.213-1.488-6.444-.744-1.983.496-3.47 1.985-4.461 3.722-.496 1.24-.744 2.481-1.24 3.722-.247 1.488-.99 2.73-1.734 3.97-1.488 2.48-3.718 4.466-6.445 5.955.248-.248.496.248.992.248z" fill="#1D1D1B"></path><path d="M126.256 1.047c-4.709 8.188-3.718 18.857-9.17 26.797-2.727 3.97-7.436 6.7-12.393 7.196-2.479.248-4.957-.248-7.436-.993-1.983-.744-4.214-.992-5.949.248-.743.497-1.239 1.241-1.487 1.986-.248 1.488.248 3.225-.991 4.466-1.487 1.489-4.462 1.489-6.197 2.481.248 0 .744.248.992.248-1.487-3.225-5.205-3.97-8.427-3.722-2.727.248-6.94.497-8.18 3.226-.248.496.496.992.744.496 1.487-1.985 4.957-2.233 7.188-2.233 2.726-.248 5.948.248 7.188 2.977.247.249.743.497.991.249 1.735-.993 3.966-.993 5.7-2.233.744-.497 1.24-.993 1.488-1.737.496-1.241 0-2.482.496-3.97.991-3.474 5.453-1.49 7.435-.745 2.231.745 4.71.993 6.94.745 4.462-.497 8.923-2.73 11.65-6.204 2.974-3.721 4.461-8.188 5.7-12.902 1.24-5.459 2.231-10.67 4.462-15.88 0-.744-.496-.993-.744-.496z" fill="#1D1D1B"></path><path d="M67.267 52.409c.496-2.977 3.718-4.962 6.692-4.218 2.974.744 4.71 3.722 5.453 6.451.495 2.233.495 5.21 2.23 6.948 1.736 1.737 4.214 1.736 5.95.496.99-.744 1.734-1.985 2.478-2.978.991-1.24 2.478-1.736 3.965-2.48 2.231-1.242 3.222-3.475 2.975-5.708-.744-6.203-7.932-7.195-12.889-7.692-1.983-.248-3.966-.496-5.948-.992-1.736-.248-3.47-.496-4.958 0-2.478.992-3.965 3.722-4.709 6.203 0 .248.496.496.496.248 1.487-2.233 2.478-5.21 5.7-5.707 1.488-.248 2.975.248 4.462.497 1.487.248 3.222.496 4.71.744 2.974.248 6.196.496 8.674 2.233 2.479 1.489 4.214 4.714 2.479 7.444-.744 1.24-1.983 1.737-3.222 2.233-1.24.496-2.231 1.24-2.975 2.233-.743.992-1.239 1.985-2.23 2.481-1.487 1.24-3.718.745-4.71-.744-1.239-1.985-1.239-4.715-1.735-6.7-.495-1.985-1.983-3.97-3.718-5.21-1.982-1.489-4.46-1.737-6.692-.745-1.983.745-3.47 2.482-3.47 4.715.496.496.992.744.992.248z" fill="#1D1D1B"></path><path d="M67.514 49.68c.992-.993 1.983-2.234 2.975-3.226.495-.496-.248-.993-.496-.496-.991.992-2.23 2.233-2.974 3.473-.248 0 .248.497.495.248z" fill="#1D1D1B"></path><path d="M67.514 49.68c-.248-1.737-1.487-3.226-3.222-3.226-2.23-.248-4.461 1.489-5.7 3.225-1.488 1.737-2.231 3.97-2.48 6.203-.247 2.482.249 4.963.744 7.444.248 1.737 0 3.474-1.487 4.467-1.487 1.24-3.965 1.985-5.7.496-1.735-1.489-2.727-3.226-4.958-3.722-1.239-.248-2.478-.496-3.47-1.24-1.487-1.241-1.239-3.474-.495-4.963 1.239-2.481 3.718-4.715 5.7-6.7 2.479-2.233 5.453-4.218 8.675-4.962 1.735-.496 3.47-.744 5.453-.496 1.735.248 4.462.744 4.957 2.48.248.497.992.249.744-.247-.496-2.481-3.718-2.978-5.7-3.226-2.975-.248-6.197.496-8.924 1.737-2.726 1.24-4.957 3.226-7.188 5.21-1.982 1.986-4.213 4.219-4.957 6.948-.495 2.233.248 4.715 2.231 5.459 1.24.496 2.479.496 3.718 1.24 1.24.745 2.23 1.986 3.222 2.978 1.983 1.737 4.462 1.737 6.692.248 2.23-1.489 2.974-3.722 2.231-6.451-.744-3.474-1.24-6.948.496-10.421.743-1.49 1.735-2.978 3.222-3.722 1.735-1.24 5.205-1.489 5.453 1.24 0 .497.743.497.743 0z" fill="#1D1D1B"></path><path d="M66.275 48.191s-.248-.248 0-.496h-.743c.248.992.743 1.985.991 2.977.248.497.744.248.744-.248s0-1.24.248-1.737h-.496c0 .497.248.745.248 1.241 0 .248.248.248.495.248.992-.744 1.736-1.489 2.231-2.481-.248 0-.496-.248-.743-.248 0 .248-.496.496-.496.992v.248c.496.248.991-.496 1.24-.992 0-.496-.497-.745-.744-.248-.496.992-1.24 1.737-1.983 2.481.248 0 .248 0 .495.248 0-.496-.247-.744-.247-1.24 0-.249-.496-.249-.496 0-.248.744-.496 1.24-.248 1.984h.744c-.248-.992-.744-1.985-.992-2.977 0-.248-.496-.248-.743 0-.248.496.247.744.743.992-.248-.248 0-.496-.248-.744zM.097 6.258c1.488 5.459 7.684 7.444 12.393 8.932 3.222.993 6.444 1.985 9.914 2.978 2.975.992 6.693 1.489 9.171 3.474 1.983 1.736 2.975 4.714 5.453 6.203 2.479 1.489 4.462.744 6.692-.745 2.479-1.488 6.197-3.97 8.675-.992 1.24 1.737 1.487 3.97 2.727 5.707.743.992 1.735 1.489 2.726 1.985 1.487.744 1.487 2.233 2.479 3.226 1.735 1.984 4.709 2.729 6.692 4.466.495.496 1.24-.248.743-.745-1.735-1.736-3.965-2.233-5.7-3.721-.992-.745-1.24-1.986-1.983-2.978-.744-.992-1.735-1.24-2.727-1.737-1.982-1.24-2.23-3.722-3.222-5.707-.991-1.985-2.478-3.225-4.709-3.225-2.974 0-4.957 1.736-7.436 3.225-3.718 2.233-5.948-1.489-7.931-3.97-1.487-1.985-3.47-3.226-5.949-4.218-3.222-.992-6.444-1.737-9.666-2.73-3.47-.992-7.188-1.736-10.41-3.225C4.807 11.221 2.08 9.235.097 6.258c0-.248 0-.248 0 0z" fill="#1D1D1B"></path><path d="M.097 7.497c1.487.993.744 3.226.744 4.715 0 1.736.248 3.473.743 4.962.744 2.978 1.735 5.955 3.223 8.685 2.726 5.458 6.444 9.428 12.392 10.917 3.223.993 6.445 1.489 9.667 1.489 1.487 0 3.222-.248 4.71-.496 1.486-.497 3.221-1.241 4.956-.745 2.479.745 3.966 3.722 6.197 4.963 2.23 1.24 4.957 1.488 7.435.744 1.735-.744 2.975-1.985 4.462-2.481 1.735-.745 3.966-.248 5.948 0 1.735.248 4.71 0 5.205 2.233.496 1.985.496 3.97.744 5.955 0 .744 1.24.496.991-.248 0-1.737-.248-3.474-.495-5.21-.248-1.241-.496-2.234-1.24-2.978-.991-.745-2.23-.745-3.47-.993-1.982-.248-3.965-.496-5.7-.744-3.223 0-5.205 2.977-8.18 3.474-1.735.248-3.47 0-4.709-.745-1.24-.744-2.23-1.985-3.47-2.977-1.983-1.985-3.966-2.73-6.444-1.985-1.735.496-3.222.992-4.957.992-1.983.248-3.966 0-5.949-.496-3.47-.496-6.94-1.24-9.914-3.226-2.727-1.736-4.71-4.466-6.197-7.195a50.35 50.35 0 01-4.213-10.67c-.496-1.985-.496-3.97-.744-6.203 0-.992-.248-1.985-1.239-2.481-.496.248-.744.496-.496.744z" fill="#1D1D1B"></path></svg> 