<?xml version="1.0" encoding="UTF-8"?> <svg xmlns="http://www.w3.org/2000/svg" width="261" height="204" fill="none"><path d="M130.101 54.662c.265 11.176.531 22.352.265 33.528 0 2.661 0 5.588-.265 8.25 0 1.33-.798 3.991.531 5.055 1.063.798 2.127-.266 2.392-1.33.266-1.065 0-1.863-.265-2.928-.266-1.33-.266-2.927-.532-4.257 0-.798-1.329-.798-1.329 0v7.717h1.329c0-7.983 0-16.232-.266-24.215V64.507c0-3.991 0-8.249-.266-12.24 0-.799-1.329-.799-1.329 0-.265 3.991 0 7.983 0 11.974v12.24c0 7.984.266 16.233.266 24.216 0 .798 1.329.798 1.329 0a37.414 37.414 0 000-7.717h-1.329l.798 6.386c0 .266 0 1.065-.266.799-.266 0 0-1.33 0-1.33 0-1.065 0-2.396.266-3.46.265-4.524.265-9.048.265-13.305 0-9.047-.265-18.095-.797-27.142.266-.799-.797-.799-.797-.266z" fill="#1D1D1B"></path><path d="M130.632 54.929c3.19-4.258 6.114-9.047 7.974-14.37.798-2.128 1.063-4.79 2.393-6.918.265-.532.797-1.064 1.594-1.596 1.064-.533 1.861-.267 2.393.798.266.798.797 1.596 1.595 2.395 1.329 1.064 2.923 1.596 4.253.532 1.594-1.065 1.594-2.927 1.86-4.524.266-1.33.532-2.395 1.595-3.193s3.19-2.395 4.519-1.863c2.658.799.797 5.588 1.861 7.451.797 1.33 2.658 2.395 3.987 1.065 1.329-1.065 1.329-3.726 2.392-5.056 2.658-3.992 9.569-5.322 13.556-2.13 3.19 2.396 2.393 10.113 7.709 10.113 2.126 0 3.721-1.597 5.05-2.928 2.393-1.862 5.317-2.394 7.975-1.064 6.113 3.193 5.848 10.91 6.113 16.764 0 3.194.266 6.387.798 9.58.531 3.46.797 6.918 2.126 10.112.266.532 1.064.532.798 0-.266-3.194-1.064-6.12-1.595-9.314a58.196 58.196 0 01-.798-9.58c-.265-5.321 0-11.442-3.455-15.965-2.924-3.726-7.709-5.056-11.962-2.395-2.126 1.33-4.518 5.056-7.177 2.66-2.126-1.862-2.126-5.055-3.721-7.45-2.392-3.46-7.443-4.258-11.164-2.927-2.126.532-3.987 1.863-5.316 3.46-.532.798-1.063 1.596-1.329 2.66-.266.532-.266 1.065-.266 1.597-.532 1.33-1.861 1.596-2.658.532-.798-1.33-.266-3.193-.532-4.79 0-.798-.266-1.863-1.063-2.395-1.595-1.596-3.721-.798-5.316.266-1.861 1.065-2.924 2.661-3.456 5.056-.266 1.065-.266 1.863-.797 2.927-.798 1.863-2.658 1.597-3.987.267-.798-.799-1.064-2.395-2.127-3.194-.797-.532-1.595-.266-2.392 0-2.127 1.065-3.19 3.46-3.722 5.588-.797 3.194-1.86 6.12-3.455 9.048-1.595 2.927-3.456 5.854-5.051 8.781 0 0 .532.266.798 0z" fill="#1D1D1B"></path><path d="M131.164 54.927c-.266-.266 2.392-2.66 2.658-2.927l3.19-3.193c.797-.798 2.126-1.863 3.455-1.863 1.595 0 2.658 1.065 3.987 1.597 1.33.532 2.924.532 3.988-.798.265-.532.531-1.065.531-1.597v-1.863c0-.532.266-2.128 1.861-.266.797.799.266 2.395.532 3.46.265.798.531 1.596 1.329 2.128 1.329 1.065 3.189 1.065 4.253 0 1.594-1.33.797-3.725 2.126-5.322.798-.798 1.861-1.33 2.924-1.064 1.595.266.797 2.395.532 3.46-.798 2.128-1.329 4.257-.532 6.652.532 1.596 1.861 2.66 3.721 2.927 1.861.266 3.19-.798 4.253-2.129 1.329-1.596 3.722-4.79 5.317-1.596.797 1.33 1.329 2.927 3.189 3.193 1.064.266 2.127-.266 3.19-.266h.798c.265.266 1.063.798.797 1.33-.266.532-1.063.532-1.595.798-3.456 1.33-5.582 5.056-3.721 8.25 1.063 1.862 3.189 2.66 5.316 2.66 3.19.267 6.379.267 9.303.533 3.19.266 6.646.266 9.835.532 1.595 0 3.19.266 4.785.266 1.595 0 2.924 0 4.253 1.064.266.266.797-.266.532-.532-1.329-1.596-3.456-1.596-5.317-1.862-3.189-.267-6.113-.267-9.303-.533-2.924-.266-6.114-.266-9.038-.532-1.595 0-2.924 0-4.518-.266-1.595 0-3.19-.266-4.519-1.33-2.127-2.13-.798-5.589 1.595-6.653 1.329-.532 3.455-.798 3.455-2.661 0-1.596-1.86-2.395-3.19-2.395-1.329 0-2.923.799-3.987-.266-.797-.798-1.063-1.863-1.329-2.66-.797-1.331-2.392-1.864-3.721-1.331-2.127 1.064-2.924 3.725-5.051 4.79-1.329.798-2.923 0-3.721-1.331-1.063-1.33-.797-3.193-.532-4.79.532-1.863 1.861-4.258.532-5.854-.797-1.064-2.924-.798-3.987-.266-1.595.798-2.658 2.129-2.924 3.725 0 .798 0 1.597-.797 2.395-.532.532-1.595.798-2.393.532-1.595-.798-1.329-2.66-1.595-4.257-.265-1.33-1.594-3.194-3.189-2.395-1.861.798-.532 3.193-1.064 4.523-.797 2.13-3.189.533-4.518-.266-.798-.532-1.861-.798-2.924-.798-2.658.266-4.519 3.193-6.38 4.79-1.063 1.064-2.392 2.129-3.19 3.193-.531.532-.531 1.064 0 1.597.266.266 1.064-.267.798-.533z" fill="#1D1D1B"></path><path d="M207.983 68.5c1.063.532 2.127 1.064 2.924 1.862.266.266.798 1.33 1.329.532.266-.532-.797-1.596-1.329-1.862-.797-.532-1.595-1.065-2.658-1.33-.532.265-.532.797-.266.797z" fill="#1D1D1B"></path><path d="M209.046 66.104c.532 1.33 1.595 2.66 2.393 3.991.797 1.065 1.595 2.395 2.924 3.194 0 0 .265 0 .265-.267-.531-1.33-1.595-2.394-2.392-3.459-1.063-1.33-1.861-2.66-3.19-3.46 0-.265-.265-.265 0 0z" fill="#1D1D1B"></path><path d="M211.173 69.83l-2.392-3.991c0-.266-.532 0-.532.266.532 1.596 1.329 2.927 2.127 4.257.797 1.065 1.86 2.395 3.189 2.661-.266-1.596-1.329-2.128-2.392-3.193-.797-1.064-1.595-2.66-2.392-3.991-.266 0-.266 0-.532.266a20.083 20.083 0 012.924 3.725z" fill="#1D1D1B"></path><path d="M209.578 68.233c-.532-.266-1.063-.266-1.329-.266 0 0-.266.266 0 .266.532.266.797.266 1.329.532v-.532zM131.43 54.13c1.063 1.33 3.455 0 4.519-.8 1.86-1.33 3.455-3.725 6.113-3.725 2.924 0 2.127 3.194 3.456 4.79 1.329 1.597 3.721 1.33 5.316 2.129 3.987 1.863 6.911 5.322 8.772 9.314 2.126 4.79 2.392 10.111 2.658 15.167 0 .266.531.532.531 0 1.595-9.313-1.329-20.223-10.1-25.28-1.064-.532-1.861-1.064-2.924-1.33-1.064-.266-2.924-.532-3.456-1.596-.531-1.065-.531-2.395-1.063-3.194-.532-.532-1.063-1.064-1.861-1.33-1.86-.532-3.455.266-4.784 1.33-1.064.799-2.127 2.13-3.456 2.928-.532.532-1.329.798-2.126 1.064-1.064.266-1.064 0-1.595.532z" fill="#1D1D1B"></path><path d="M131.961 55.195c.532.532 1.329.266 2.127.532 1.063.266 1.861 1.064 2.392 1.597 1.063 1.064 2.392 1.862 3.721 2.128.532 0 1.064 0 1.595-.266.798-.266 1.595-.532 2.127.266.266.266.266.799.266 1.065.265 1.33.531 2.66 1.329 3.991 2.126 2.661 5.316 3.726 8.24 5.322 3.455 1.863 5.848 5.056 7.177 8.515-.266-3.459-1.595-6.386-4.519-8.515-3.19-2.395-7.709-3.193-10.101-6.652-1.595-2.395-.797-6.387-4.784-5.588-1.33.266-2.127.266-3.456-.533-.797-.532-1.329-1.064-2.126-1.596-1.33-1.065-2.659-1.597-4.253-1.33-.266 0-.266.265-.266.265.531.533.531.799.531.799z" fill="#1D1D1B"></path><path d="M157.479 71.96c.798 1.862 2.127 3.459 3.19 5.321 1.063 2.13 1.595 4.258 1.861 6.653 0 .266.265.266.265 0 .532-2.129 0-4.258-.797-5.854-.797-2.13-2.392-4.79-3.987-6.12-.532-.267-.798-.267-.532 0zm-25.784 3.191c.797-5.588 6.114-9.58 11.696-7.983 4.784 1.33 7.708 6.919 8.772 11.709.265 1.596 0 3.991-2.127 3.991-1.063 0-2.126-.532-3.19-.266-.797.266-1.329.532-1.86 1.065-.798.798-1.329 2.66-2.924 2.128-2.658-1.33-.266-5.854 0-7.983.265-2.394-.266-4.79-1.329-6.918-1.064-1.863-3.19-3.46-5.317-2.927-2.392.532-2.924 2.927-3.987 4.79 0 .266.266.532.266.266.797-.799 1.329-1.863 1.861-2.927 1.329-2.13 3.987-1.597 5.316 0 2.392 2.927 2.126 6.918 1.063 10.377-.531 2.13-1.063 4.79 1.329 6.12 2.127 1.065 3.19-.798 4.253-2.128 1.861-2.129 4.785.532 6.646-1.597 1.594-1.862.797-4.523 0-6.652-1.595-4.79-4.785-9.58-10.101-10.378-5.848-.798-11.164 3.193-11.43 9.047.531.532 1.063.799 1.063.266z" fill="#1D1D1B"></path><path d="M131.164 75.685c1.329-3.194-1.861-6.919-5.051-5.588-4.784 1.862-4.252 8.515-3.189 12.24.531 1.597.797 3.46-.532 4.79-1.329 1.33-3.455 1.33-5.05.532-1.064-.532-1.595-1.597-2.658-2.129-1.064-.532-1.861-.532-2.924-.266-1.064.266-1.861.266-2.658-.532-.798-.532-1.064-1.33-1.064-2.395 0-1.597.798-3.46 1.595-4.79 1.329-2.129 3.456-3.991 5.582-5.322 2.393-1.596 5.316-2.66 8.24-2.927 1.861 0 3.722 0 5.317 1.065 1.329.798 2.126 2.128 2.924 3.725 0 .266.265 0 .265 0 .266-2.129-1.86-3.991-3.721-4.79-2.392-1.064-5.316-.798-7.974-.266-5.051 1.33-9.304 4.524-11.962 8.781-1.329 2.13-2.392 4.79-.797 7.185.531.798 1.329 1.33 2.126 1.597 1.861.266 3.19-.799 4.785.532 1.86 1.597 3.721 2.927 6.379 2.129 2.127-.533 3.456-2.661 3.456-4.79 0-1.597-.798-3.193-1.063-4.79-.266-2.129 0-4.258.797-6.12.797-1.597 2.658-3.193 4.519-2.395 1.595.798 2.392 2.66 1.86 4.257.266.267.798.533.798.267z" fill="#1D1D1B"></path><path d="M130.898 57.322c2.126-2.927-4.785-4.523-6.38-4.523-.797 0-1.594 0-2.126.532-1.063.532-1.861 1.597-3.19 1.863-1.595.532-3.19.266-4.784 1.064-.532.266-1.064.798-1.595 1.33-.532.533-.532 1.331-.798 1.863-.531 1.33-1.86 1.065-2.924 1.33-.797.267-1.86.533-2.658.8-3.189 1.596-5.848 4.789-7.177 7.982-2.126 4.79-2.392 10.112-2.392 15.168 0 .266.532.266.532 0 .797-5.322.797-10.644 3.189-15.434 1.861-3.725 5.051-6.919 9.304-7.717 1.861-.266 2.658-.532 3.19-2.395.531-2.129 2.658-2.927 4.784-3.193.798 0 1.861 0 2.658-.532 1.064-.532 1.595-1.597 2.924-1.863 1.595-.266 7.177.532 6.911 3.193 0 .799.532.799.532.532z" fill="#1D1D1B"></path><path d="M97.671 85.529c.266-5.056 4.519-7.45 8.506-9.58 1.861-1.064 3.456-2.128 5.051-3.725 1.063-1.33 1.86-2.927 2.923-4.258 1.33-2.128 2.924-2.66 5.317-2.927 1.595 0 3.189-.266 4.253-1.596 1.063-1.597.797-3.992 2.126-5.322 2.127-2.129 5.582 0 5.582 2.927 0 .266.532.532.532 0 .266-1.597 0-2.661-1.063-3.992-1.064-1.064-2.659-1.596-4.253-1.064-1.595.532-2.659 1.597-2.924 2.927-.266.798-.266 1.597-.532 2.661-.532 1.597-1.595 2.129-2.924 2.395-1.595.266-3.19.266-4.784 1.064-1.33.799-2.127 2.395-2.924 3.726-1.064 1.862-2.127 3.459-3.988 4.79-1.594 1.33-3.455 2.128-5.316 3.193-3.19 1.862-6.91 5.056-6.113 9.313 0 0 .531-.266.531-.532z" fill="#1D1D1B"></path><path d="M131.164 57.856v-.533c0-.266-.266-.532-.266-.798-.266-.532-.532-1.064-1.064-1.33-.265-.532-1.063.266-.531.532.266.266.531.798.797 1.33 0 .266.266.266.266.532.266 0 .532 0 .798.267zm-65.39-19.958c.266.266.532.266 1.064 0 .265-.266.265-.532 0-.532-3.456-1.862-8.24 0-11.164 2.395-3.722 2.661-4.254 6.919-3.19 11.176.531 2.395 1.329 4.79 1.86 7.185.798 2.66 1.33 5.322 1.861 7.983.532 2.66.797 5.588 1.063 8.515 0 1.33.266 2.661.266 3.992 0 1.33 0 2.66.266 3.725 0 .266.532.266.797 0 .532-2.129 0-4.524 0-6.653-.265-2.128-.265-4.257-.797-6.386-.532-4.79-1.595-9.313-2.924-13.837-1.063-3.725-2.658-8.515-.532-12.24 1.064-1.863 3.19-3.194 5.05-3.992 1.064-.532 2.393-.798 3.722-1.065h1.595c.266 0 .797 0 1.063.267.266-.799.266-.533 0-.533-.266-.266-.266 0 0 0z" fill="#1D1D1B"></path><path d="M58.331 81.805c-.265 0-.265-1.863-.265-2.129 0-.798.265-1.33.531-2.128.532-1.33 1.595-2.13 2.658-2.927 1.861-1.331 4.253-2.395 6.38-3.194 2.392-.798 4.784-1.33 7.443-1.33 2.126 0 3.987 0 6.113-.266 3.456-.532 5.848-2.927 5.582-6.653 0-1.862-1.063-3.193-1.595-5.056-.531-1.33 0-2.129 1.33-2.395 1.329-.266 2.126.533 2.658 1.33 1.86 2.13 5.05 2.662 7.177.8 1.329-1.065 1.594-2.396 1.86-3.992 0-1.065-.266-2.13-.266-3.46 0-1.064.798-3.193 2.127-3.193 3.721 0-.797 9.314 4.519 7.983 1.595-.266 2.392-1.862 3.189-3.46.532-.797 1.329-2.394 2.659-2.128 1.063.266 1.063 2.129 1.329 2.927 1.594 2.927 6.645 2.129 8.771.532.798-.532 1.329-1.33 1.861-2.128.797-1.597 2.127-1.863 3.721-1.33 2.393 1.064 3.456 3.99 3.456 6.386 0 .532.797.532.797 0 .532-3.46-1.86-7.717-5.582-8.25-1.86-.266-2.924.799-3.721 2.395-1.329 2.13-3.721 3.194-6.114 2.661-1.329-.266-2.126-.798-2.392-2.395-.266-.798-.266-1.596-1.063-2.128-1.063-1.065-2.924-.533-3.722.532-.797.798-1.063 1.596-1.594 2.395-.266.532-.532 1.064-1.064 1.596-.531.533-.797.533-1.329 0-.797-.532-.797-.798-.797-1.596 0-1.863.531-3.992-1.063-5.588-1.064-1.065-2.659-.533-3.722.266-1.595 1.596-1.329 3.725-1.329 5.588.266 2.395-.531 4.79-3.455 5.056-1.064 0-2.127-.266-2.924-.799-.798-.798-1.33-1.596-2.127-2.128-1.329-.533-2.658-.533-3.987.266-1.33 1.064-1.33 2.395-.797 3.991 1.063 2.395 2.126 4.258 1.063 6.919-1.33 2.66-3.987 2.927-6.646 2.927-5.582 0-10.898.798-15.682 3.46-1.861 1.064-3.988 2.66-4.785 4.789-.532 1.33-1.063 4.258.532 4.79h.265c.266-.266.266-.266.266-.799 0-.266-.266-.266-.266-.266h-.265c0 1.597 0 2.13.265 2.13z" fill="#1D1D1B"></path><path d="M65.774 37.898c2.658 1.065 1.86 6.387 5.316 6.387 2.659 0 3.19-3.726 4.785-5.322 1.329-1.065 2.924-1.863 4.519-1.863 1.86 0 2.924 1.064 4.784 1.597 2.924.798 3.19-2.13 2.393-3.992-.532-1.064-1.064-2.128-.532-3.193.266-1.064 1.063-1.863 2.127-2.395 1.86-1.064 4.252-1.064 6.379-.532 1.595.266 3.19 1.064 4.253 2.395 1.063 1.596.797 3.46 1.595 5.056 1.595 2.927 4.519 1.862 6.114-.532 1.063-1.597 2.392-3.726 4.518-2.13 1.861 1.331 1.861 3.726 2.127 5.589.266 1.596 1.063 3.193 2.392 4.257.532.533 1.063.533 1.861.799 1.063.266 1.861.798 2.658 1.33.266.266.797.799 1.329.799.532.266 1.063 0 1.595.266 1.063.266 2.126.798 2.924 1.596 1.595 1.597 2.126 3.992 3.19 5.854.265.533.797 0 .797-.266-.532-3.193-2.392-6.918-5.582-8.249-.532-.266-1.329-.266-1.861-.532-1.063-.266-1.86-1.064-2.924-1.597-.797-.532-.797-.532-1.595-.532-1.594 0-2.392-1.33-2.923-2.66-1.064-2.928-.798-6.92-3.988-8.25-1.329-.532-2.392-.266-3.455.532-1.329 1.065-1.861 3.194-3.456 3.992-2.658 1.596-2.924-3.193-3.455-4.524-.532-1.33-1.329-2.395-2.658-3.193-2.393-1.597-6.114-2.129-9.038-1.064-2.658.798-5.05 3.725-3.987 6.652.266.798.797 1.33 1.063 2.129.266 1.33-1.063 1.596-2.126 1.064-.266-.266-.798-.532-1.064-.532-1.329-.532-2.658-.798-3.987-.532-1.329.266-2.658.798-3.987 1.596-1.33 1.065-1.86 2.395-2.924 3.726-.532 1.064-1.329 2.129-2.658 1.33-1.063-.532-1.33-1.862-1.595-2.927-.531-1.33-1.329-2.66-2.658-2.927-.532-.266-.797.532-.266.798z" fill="#1D1D1B"></path><path d="M84.647 32.31c-3.456 1.065-4.785-2.927-3.722-5.588 1.064-2.395 3.19-4.258 5.05-5.854 3.988-3.193 9.038-5.854 14.089-4.524 2.658.798 5.05 1.863 7.708 3.193 2.393 1.065 4.519 2.395 6.38 4.258 1.86 1.597 3.19 3.725 3.721 6.12.532 1.597.798 2.661 2.658 2.927 1.595 0 3.722 0 4.519 2.13.532 1.33-.797 2.394-.797 3.459 0 2.394 4.253 2.66 2.658 5.321-.266.267 0 .799.266.799 3.987 2.395 1.329 8.249 3.721 11.442.266.266.797 0 .532-.266-.798-2.395-.532-5.056-.798-7.45-.266-1.864-1.063-3.726-2.924-4.79 0 .265.266.532.266.798.532-.799.532-1.597.266-2.661-.266-1.065-1.063-1.33-2.127-2.13-1.595-1.33 0-2.394 0-3.99 0-1.065-.531-2.13-1.329-2.928-.797-.798-2.126-1.064-3.189-1.064-1.064 0-1.861.266-2.393-.798-.266-.533-.266-1.33-.531-2.13-1.064-2.66-2.658-4.789-4.785-6.386-2.392-2.128-5.316-3.459-8.24-4.79-2.658-1.064-5.582-2.394-8.506-2.394-5.848 0-11.164 3.991-15.151 7.983-1.861 2.128-3.722 4.79-2.659 7.717.798 2.128 3.19 3.725 5.317 2.66.797-.532.531-1.33 0-1.064z" fill="#1D1D1B"></path><path d="M131.961 53.863c.266-6.12.266-12.507.266-18.627v-9.047c0-2.395.266-5.322-1.063-7.451-1.064-1.863-2.924-2.927-5.051-3.193-1.329-.267-2.924-.267-3.455-1.863-.266-1.065-.266-2.129-.532-3.193-1.329-4.524-6.114-6.653-10.632-7.451C104.848 1.708 98.203.909 91.558.377c-.266 0-.266.532 0 .532 5.582 1.33 10.898 2.129 16.48 2.927 4.785.799 11.43 1.597 12.759 7.185.532 1.596.266 3.725 1.595 4.79 1.595 1.33 3.987.798 5.848 2.128 2.392 1.863 2.392 4.79 2.392 7.717v8.782c0 6.386 0 13.039.532 19.425 0 .532.797.532.797 0z" fill="#1D1D1B"></path><path d="M93.419 1.177c2.392.798 3.721 3.193 5.05 5.322 1.33 1.863 2.658 3.992 4.253 5.588 3.456 3.46 7.709 5.854 12.227 6.919 1.595.266 3.19.266 3.456 2.128.266 1.065.266 1.863.797 2.661.798 1.863 2.393 3.194 4.253 3.992 1.064.532 2.393.532 3.456 1.064 1.329.799 1.861 2.395 2.126 3.726.798 2.927 1.329 5.854 1.861 8.781 0 .532.798.266.798 0 .265-2.395 0-4.79-.532-7.185-.532-1.862-.798-3.991-2.127-5.322-1.329-1.33-3.189-1.596-4.784-2.128-2.127-.799-3.722-2.395-4.253-4.79-.266-1.597-.266-2.927-1.861-3.726-1.861-.798-3.721-.798-5.582-1.596-3.987-1.597-7.443-4.258-10.367-7.451-2.658-2.927-4.252-7.717-8.505-8.515-.532-.266-.798.266-.266.532z" fill="#1D1D1B"></path><path d="M131.961 39.229c0 .266-.266.798-.266 1.064s.532.532.532.266c1.595-5.056 2.126-10.644 4.519-15.434.531-1.064 1.063-1.862 2.126-2.395 1.063-.532 2.127-.532 3.19-1.064 2.126-.532 2.658-2.66 3.987-3.991 2.924-3.46 7.974-4.79 12.493-5.056s9.569.266 13.557 2.927c3.721 2.66 6.911 9.047 12.227 7.717.266 0 .266-.533 0-.533-5.582-.798-7.974-6.386-12.759-9.047-3.987-2.395-9.038-2.927-13.556-2.395-4.253.532-8.772 1.597-11.962 4.524-.797.798-1.329 1.33-1.861 2.395-.797 1.33-1.329 2.129-3.189 2.66-1.861.267-3.19 1.331-4.253 2.928-1.329 2.129-2.127 4.79-2.658 7.184-.798 3.194-1.861 6.653-1.861 9.846h.532c-.532-.798-.532-1.33-.798-1.596z" fill="#1D1D1B"></path><path d="M132.227 51.47c.266-1.864.266-3.46.266-5.323 0-1.862.266-3.991.532-5.854.265-1.597.797-3.193 1.86-4.524 1.329-1.33 2.924-1.596 4.519-2.66 2.658-1.863 3.721-4.79 6.645-6.121 1.329-.532 2.924-.798 4.519-.798.798 0 1.595.266 2.392.532.798.266 1.329.798 2.127.798.266 0 .797-.266.531-.532-1.594-2.395-6.113-2.129-8.24-1.597-1.595.533-2.924 1.065-3.987 2.13-1.329 1.33-2.126 2.926-3.721 4.257-1.329 1.33-3.456 1.596-4.785 2.927-1.063 1.064-1.861 2.66-2.126 3.991-.532 1.863-.532 3.726-.798 5.855-.531 1.862-.797 4.523.266 6.918-.266 0 0 0 0 0zm27.91-24.481c3.19 2.66 7.708 0 10.632-1.331 2.393-1.064 4.785-1.863 7.177-1.863 1.861 0 3.988 1.065 5.582-.532.266-.266 0-.532-.265-.532-2.127.266-3.988-.266-6.114-.266-1.861 0-3.721.532-5.582 1.33-1.595.799-3.456 1.863-5.051 2.395-2.126.799-3.987.799-6.113.266-.266 0-.532.266-.266.533zm-28.973 72.644h.265c.266-.266.266-.532 0-.798 0 0-.265-.266-.265 0-.798.266-.798.798-.798 1.331 0 1.596 0 3.193.266 4.789 0 .533 1.063.799 1.063.266.532-1.862.798-3.725 1.329-5.854l-1.063-.266c-.797 11.442-1.595 22.885-1.063 34.593.266 5.854.531 11.442 1.063 17.297.266 2.927.266 6.12.532 9.047.266 2.927.266 5.854.797 8.515 0 .532.798.266.798 0 .265-2.927 0-6.12-.266-9.047-.266-2.927-.266-5.588-.532-8.515-.266-5.855-.797-11.709-1.063-17.563-.532-11.442 0-22.885.797-34.327 0-.532-1.063-.798-1.063-.266-.532 1.863-1.063 3.725-1.329 5.854l1.063.266c0-1.064-.266-1.862-.266-2.927 0 0-.265-2.66-.265-2.395-.266 0-.266 0 0 0z" fill="#1D1D1B"></path><path d="M131.695 96.706c.798.799.532 1.863.532 2.927v2.928c0 1.862-.266 3.991-.266 5.854-.266 3.725-1.329 7.717-1.595 11.442 0 .266.266.266.532 0 1.861-3.991 2.126-9.047 2.392-13.305a30.09 30.09 0 000-6.919c0-1.064 0-2.927-1.329-3.193-.266-.266-.532 0-.266.266z" fill="#1D1D1B"></path><path d="M131.961 101.229l-.266-.266c-1.594 0-1.329 3.193-1.329 4.257-.265 2.661-.265 5.589-.265 8.25 0 5.322 0 11.176 1.594 16.498 0 .266.266.266.266 0 0-4.79-.531-9.314-.531-14.104 0-1.064 0-14.103.531-14.103 0 0 .266-.266 0-.532z" fill="#1D1D1B"></path><path d="M131.164 99.9c.266-.266.266-.532.266-1.065.265-.532-.798-.798-.798-.266-.531 1.597-1.063 3.46-1.861 5.056-1.063 1.863-2.392 2.927-4.252 3.726-3.19 1.596-5.848 3.459-8.241 6.12a28.28 28.28 0 00-4.784 8.781 21.155 21.155 0 00-1.595 5.854c-.532 1.863-1.063 3.992-.798 5.855 0 .266.532.532.532.266.798-1.597 1.063-3.46 1.595-5.322.532-1.863 1.063-3.992 1.861-5.854 1.329-3.46 3.189-6.919 5.847-9.846 1.33-1.331 2.659-2.395 4.253-3.193 1.595-.799 3.19-1.597 4.785-2.661 2.658-2.129 3.456-5.322 3.987-8.516-.266 0-.266.267-.531.267-.266.266-.266.532-.266.798zm-.798 10.377c-.531 3.459-1.595 6.652-3.721 9.313-2.127 2.661-5.05 4.524-7.443 6.919-1.86 2.129-3.19 5.056-3.987 7.717l-.797 4.79c-.266 1.596-.266 3.193 0 4.523 0 .266.531.266.797 0 .532-1.33.532-2.927.798-4.523.265-1.597.531-3.46.797-5.056.797-3.46 2.658-6.121 5.316-8.516 2.392-2.128 4.785-3.991 6.645-6.652 1.595-2.661 2.659-5.588 2.393-8.781 0-.266-.798-.266-.798.266zm.798 16.497c-.798 2.928-1.064 5.855-2.659 8.516-1.594 2.395-3.721 4.257-5.582 6.652C120 146.2 118.139 152.054 120 157.11c0 .266.531.266.531 0 0-2.661 0-5.588.798-8.249.797-2.927 2.126-5.588 4.253-7.717 1.86-2.129 3.721-3.726 4.784-6.387 1.063-2.394 1.595-5.055 1.329-7.716 0-.533-.531-.799-.531-.267zm1.329 21.023c-.532.266-.532.532-1.064 1.064-.531.799-1.063 1.597-1.86 2.129-1.064 1.331-2.393 2.395-3.19 3.992-1.063 1.862-3.456 6.12 0 6.918.266 0 .532-.266.266-.532-1.329-1.331-.266-3.459.531-4.79.798-1.33 1.595-2.661 2.393-3.725 1.329-1.065 3.987-3.193 2.924-5.056.265 0 0 0 0 0z" fill="#1D1D1B"></path><path d="M131.695 100.166c1.063 2.661 3.19 4.524 5.316 6.386 2.658 2.129 5.582 3.992 8.241 6.387 2.658 2.129 4.784 4.79 6.645 7.717 1.86 3.193 2.658 6.386 2.924 10.112 0 .266.531.532.531 0 1.329-6.387-2.658-12.773-7.177-17.031-2.392-2.395-5.05-4.524-7.974-6.652-2.924-2.129-5.848-4.258-7.708-7.185-.266-.798-1.064-.532-.798.266zm-.265 9.846c.266 2.661 2.658 5.056 4.519 7.184 2.126 2.395 4.518 4.79 6.379 7.451 1.861 2.927 3.19 5.854 3.987 9.047.798 3.194 1.063 6.387 1.595 9.846 0 .266.532.266.532 0 1.329-6.12-1.064-13.305-4.253-18.627-1.595-2.661-3.722-5.056-5.848-7.451-1.063-1.33-2.392-2.395-3.456-3.991-1.063-1.331-1.595-2.661-2.658-3.992-.266-.266-.797 0-.797.533zm-.532 17.296c.266 1.597 1.861 3.193 3.19 4.524 1.329 1.596 2.924 3.193 4.253 4.789 1.329 1.597 2.658 3.46 3.455 5.589.798 2.128.532 4.257.798 6.386 0 .532.531.532.797.266 2.127-3.459-.532-8.781-2.658-11.708-1.329-1.863-2.924-3.46-4.519-5.056-.797-.799-1.595-1.597-2.392-2.661-.798-.799-1.329-1.863-2.392-2.395-.266-.266-.532 0-.532.266zm1.329 19.691c0 1.331.797 2.661 1.595 3.726.797 1.33 2.392 2.129 3.455 3.193 2.658 2.661 1.595 6.12 2.392 9.313 0 .267.532.267.532 0 1.063-2.661.532-6.386-1.063-8.781-.798-1.33-2.392-2.129-3.456-3.459-1.329-1.331-1.86-2.927-2.924-4.258-.265-.266-.797 0-.531.266z" fill="#1D1D1B"></path></svg> 