<?xml version="1.0" encoding="UTF-8"?> <svg xmlns="http://www.w3.org/2000/svg" width="260" height="342" fill="none"><path d="M123.601 164.456c.531 10.643 1.329 21.554 1.86 32.198.532 10.644 1.064 21.021 1.329 31.665 0 2.928-.797 9.048 3.456 10.112 1.063.266 2.392 0 2.658-1.064 0-.532-.266-1.331-.266-1.863 0-.798-.266-1.596-.266-2.395-.265-1.33-.265-2.661-.531-3.991-1.063-10.378-1.064-21.022-2.127-31.4-1.063-11.975-3.987-23.683-4.253-35.657h-1.063l1.595 15.167 1.329-.266c-.266-1.596-.532-3.459-.797-5.056-.266-.798-1.33-.532-1.33.266-.265 3.726 0 7.451.532 11.177 0 .798 1.329.532 1.329-.267-.266-2.927-.531-6.12-.797-9.047 0-.798-1.064-.798-1.329 0-.532 6.653 0 13.039 1.86 19.425.266.799 1.329.533 1.329-.266-.265-3.193-.797-6.12-1.063-9.313 0-.799-1.329-.799-1.329 0 0 3.991.532 7.983 1.329 11.708.266.798 1.329.532 1.329-.266-.266-4.524-1.063-8.781-1.86-13.305-.532 0-.798.266-1.33.266 1.595 4.258 2.659 8.781 2.924 13.305l1.329-.266c-.797-3.193-1.329-6.652-1.594-9.846-.532 0-.798 0-1.329.266 1.329 5.056 2.126 10.378 2.126 15.7 0 .799 1.063.799 1.063 0 .266-5.322-.531-10.644-1.86-15.966-.266-.532-1.329-.532-1.329.266.265 3.46.797 6.919 1.594 10.378.266.799 1.329.533 1.329-.266-.265-4.523-1.329-9.047-2.923-13.571-.266-.798-1.33-.532-1.33.266.798 4.258 1.329 8.515 1.861 13.039.532 0 .798 0 1.329-.266-.797-3.725-1.063-7.717-1.329-11.442h-1.329c.266 3.193.532 6.12 1.063 9.313.532 0 .798 0 1.329-.266-1.86-6.12-2.392-12.507-1.86-19.159h-1.329c.265 2.927.531 6.12.797 9.047.532 0 .797 0 1.329-.266-.532-3.725-.797-7.184-.531-10.91-.532 0-.798 0-1.33.266.266 1.597.532 3.46.798 5.056 0 .798 1.329.532 1.329-.266-.532-5.056-1.329-10.112-1.861-15.168 0-.798-1.329-.798-1.063 0 .532 9.846 2.392 19.426 3.456 29.005 1.329 9.846 1.594 19.692 2.126 29.537.266 4.79.797 9.846 1.329 14.636 0 .798.532 2.129-.266 2.395-1.329.266-2.126-1.331-2.392-2.395-.532-2.395-.266-5.056-.532-7.451-.265-9.846-.797-19.691-1.329-29.537a674.43 674.43 0 00-2.392-33.262c-.266-.533-.797-.533-.797 0z" fill="#1D1D1B"></path><path d="M127.056 192.395c0 4.524.266 9.048.532 13.837.266 0 .797 0 1.063-.266-1.595-4.523 0-9.579-1.595-14.103-.266-.532-1.063-.532-1.063.266a32.234 32.234 0 000 10.112c0 .798 1.063.532 1.329-.266.266-2.927.266-5.588-.266-8.249 0-.799-1.329-.532-1.329.266.266 4.79.532 9.846 1.063 14.635 0 .799 1.064.799 1.33 0 .265-3.991.531-8.249 0-12.24h-1.33c.532 4.79.798 9.845 1.33 14.635 0 .799 1.329.799 1.329 0l-.798-9.579c0-.799-1.329-.799-1.329 0 .266 6.12.532 12.24 1.329 18.094h1.329l-1.595-15.167c0-.799-1.329-.799-1.329 0-.266 6.12 0 12.506 1.064 18.627 0 .798 1.329.532 1.329-.266-.532-5.322-.798-10.91-1.329-16.232 0-.799-1.33-.799-1.33 0-.265 5.055 0 10.111.798 15.167 0 .799 1.329.532 1.329-.266 0-4.524-.532-9.047-1.329-13.571 0-.798-1.329-.532-1.329.266.266 5.056.531 10.112 1.063 15.168 0 .798 1.329.798 1.329 0 0-2.395 0-4.79-.531-7.185 0-.798-1.064-.532-1.064.266-.266 3.726-.266 7.185.532 10.644 0 .799 1.329.532 1.329-.266v-5.588c0-.798-1.063-.798-1.329 0-.266 3.725-.266 7.451 0 10.91.266 1.597.266 6.653 2.924 5.854.266 0 .531-.266.531-.532 0-1.863-.265-3.725-.797-5.588-.266-.798-1.329-.532-1.329.266 0 2.129.532 3.992 1.861 5.588.531.532 1.329 0 1.063-.532-1.063-5.056-1.861-10.112-2.658-14.902-.266-.798-1.329-.532-1.329.267.265 4.523 1.063 9.313 2.126 13.571.266.798 1.329.532 1.329-.266-.531-4.79-1.329-9.846-1.86-14.636 0-.798-1.329-.798-1.329 0 0 3.992.265 7.983 1.329 11.975.265.798 1.329.532 1.329-.267-.266-4.789-.532-9.313-.798-14.103 0-.798-1.063-1.064-1.329-.266-.797 4.79-.797 9.58.266 14.369.266.799 1.329.533 1.329-.266.266-3.991 0-7.983-.797-11.974-.266-.798-1.329-.532-1.329.266-.532 4.258-.266 8.249.531 12.507.266.798 1.329.532 1.329-.266 0-2.129-.266-4.258-.797-6.387-.266-.798-1.329-.532-1.329.266-.266 2.927-.532 5.854 0 8.782l1.329-.267c-.532-.798-.798-1.862-.532-2.927 0-1.064-1.329-.798-1.329 0 0 .799 0 1.331.266 2.129s1.329.266 1.329-.266v-2.661c0-.798-1.329-.798-1.329 0s0 1.863-.266 2.661c.532 0 .797-.266 1.329-.266-.266-.532-.266-1.064-.266-1.331h-1.329c0 1.331.266 2.395.798 3.46.265.532 1.329.266 1.329-.266a48.423 48.423 0 010-8.782c-.532 0-.798 0-1.329.266.531 2.129.797 3.992.797 6.121l1.329-.266c-.797-3.992-1.063-7.983-.531-11.975-.532 0-.798 0-1.329.266a41.558 41.558 0 01.797 11.443c.532 0 .797 0 1.329-.267-.797-4.523-1.063-9.313-.266-13.837-.531 0-.797 0-1.329-.266.266 4.79.532 9.314.798 14.103.531 0 .797 0 1.329-.266-.798-3.725-1.329-7.717-1.329-11.708h-1.329c.531 4.79 1.063 9.846 1.86 14.635.532 0 .798 0 1.329-.266-1.329-4.257-2.126-8.781-2.126-13.305l-1.329.266c.797 5.056 1.86 10.112 2.658 14.902.266-.266.797-.532 1.063-.532-1.063-1.331-1.595-2.927-1.329-4.79-.532 0-.797 0-1.329.266.532 1.863.797 3.459.797 5.322.266-.266.266-.532.532-.532-.797.266-1.595-6.919-1.595-7.717a37.413 37.413 0 010-7.717h-1.329v5.588c.532 0 .797 0 1.329-.266-.532-3.459-.797-6.918-.531-10.378-.266 0-.798 0-1.064.266.266 2.395.532 4.524.266 6.919h1.329c-.266-5.056-.797-10.112-1.063-15.168-.532 0-.798 0-1.329.266.797 4.524 1.329 8.782 1.329 13.305.531 0 .797 0 1.329-.266-.798-5.056-1.063-9.845-.797-14.901h-1.33c.532 5.322.798 10.91 1.33 16.232.531 0 .797 0 1.329-.266-1.064-6.121-1.33-11.975-1.064-18.095h-.797l1.595 15.168c0 .798 1.329.798 1.329 0-.532-6.121-1.063-11.975-1.329-18.095h-1.329l.797 9.579h1.329c-.531-4.789-.797-9.845-1.329-14.635 0-.798-1.329-.798-1.329 0a93.97 93.97 0 010 12.24h1.329c-.532-4.789-1.063-9.845-1.063-14.635-.532 0-.798 0-1.329.266.531 2.661.531 5.322.266 7.983l1.329-.266c-.532-3.193-.532-6.386-.266-9.846-.266 0-.798 0-1.063.266 1.594 4.524-.266 9.58 1.329 14.104.265.532 1.063.532 1.063-.266a117.287 117.287 0 01-.797-13.838c0-.798-1.064-.798-1.064-.266z" fill="#1D1D1B"></path><path d="M127.853 232.045c-.531 2.927 0 6.121.266 9.048l.798 9.579c.531 6.653 1.86 13.305.531 19.958-.531 2.927-1.595 5.854-2.126 9.047a49.01 49.01 0 00-.798 8.781c.266 6.121 1.861 12.507 2.659 18.627 1.329 7.185 2.126 14.636 1.063 22.087 0 .266.531.532.531.266 3.456-12.507-1.063-25.014-2.392-37.52-.266-3.46-.532-6.653 0-10.112.532-2.927 1.595-5.854 2.127-9.047 1.594-6.387.797-12.507.265-18.894-.265-3.725-.797-7.45-1.063-11.176-.266-1.862-.266-3.725-.531-5.588-.266-1.596-.266-3.459-.798-5.056-.266-.266-.532-.266-.532 0z" fill="#1D1D1B"></path><path d="M130.512 233.641c2.392 9.845 3.455 19.691 2.126 29.803-.532 5.056-2.126 9.845-3.455 14.901-1.33 4.79-1.595 9.314-.798 14.104 1.063 5.854 2.658 11.442 4.519 17.03 0 .266.532.266.532-.266-.798-5.056-2.127-10.112-3.19-15.168-.532-2.661-.798-5.322-.798-7.717 0-2.661.532-5.322 1.329-7.717 1.329-4.789 2.658-9.313 3.19-14.369.532-4.79.798-9.846.532-14.635-.266-5.322-1.329-10.911-3.19-15.966-.266-.799-1.063-.533-.797 0z" fill="#1D1D1B"></path><path d="M129.449 299.369c-.266-1.331-.266-2.395-.532-3.725-.266-1.331-.798-3.46-.266-4.79.266-.798-1.063-.798-1.063-.266 0 7.184 3.721 13.571 3.987 20.755.266 7.185-2.658 14.37-.797 21.288 0 .267.531.267.531 0-.266-7.184 1.861-14.369 1.595-21.554-.266-6.918-3.455-13.571-4.253-20.489-.266 0-.531.266-1.063.266.797 1.064.797 2.927 1.063 4.257.266 1.597.532 2.927.798 4.258-.266 0 0 0 0 0z" fill="#1D1D1B"></path><path d="M131.575 311.342c.266-1.596-.266-3.193-.797-4.789-.266-.533-1.064-.266-.798.266.266 1.33.532 2.395.798 3.725 0 .532 1.063.532 1.063 0 0-1.064-.266-1.863-.266-2.927 0-.798 0-1.597-.797-2.129h-.266c-.266.532 0 1.065 0 1.863.266 1.064.266 2.129.266 3.193h1.063c-.266-1.33-.532-2.395-.798-3.725-.265 0-.531.266-.797.266.798 1.33 1.063 2.927 1.063 4.257 0 .267.266.267.266 0z" fill="#1D1D1B"></path><path d="M130.246 304.158c1.595 2.927 2.924 5.854 4.519 8.515 1.594 3.193 2.392 6.387 2.392 9.846 0 .266.531.532.531 0 2.127-6.653-3.721-13.571-6.911-18.893 0-.266-.797 0-.531.532zm-2.392-11.176c.266-2.395.531-5.056.797-7.451h-1.063c0 1.863 0 3.459.266 5.322h1.063c-.532-3.725-.532-7.451.266-11.176-.266 0-.798 0-1.063-.266 0 2.129-.266 3.991-.798 6.12.266 0 .797.266 1.063.266.798-3.725 1.595-7.451 2.127-11.176.266-.798-.798-1.064-1.063-.266l-1.064 3.459c-.266.799.798 1.065 1.064.266 1.063-3.193 1.594-6.386 1.86-9.845 0-.533-1.063-.799-1.063-.266-.266 2.128-.532 4.257-1.063 6.386 0 .798.797 1.064 1.063.266 1.329-3.991 1.861-7.983 2.126-11.974 0-.533-1.063-.799-1.063-.267a60.139 60.139 0 00-1.595 9.58c0 .532.798.798 1.064.266 1.595-5.056 2.126-10.378 1.86-15.7 0-.798-1.063-.798-1.063 0-.266 2.927-.532 5.854-.532 8.782 0 .532 1.064.798 1.064.266 1.329-6.121 1.063-12.241-.532-18.095-.266-.532-1.063-.532-1.063.266l.797 15.168c0 .798 1.063.798 1.063 0 0-4.79-.265-9.314-.265-14.104h-1.064c.266 3.46.532 6.919.266 10.378 0 .532 1.063.799 1.063.266.532-3.459.532-6.918 0-10.644 0-.532-1.329-.532-1.063.266.266 2.395.532 5.056.798 7.451.266 2.129.531 5.056-.798 6.919.266.266.798.266 1.063.532 3.19-7.717 0-15.966-1.329-23.949-.265 0-.797.266-1.063.266 1.063 4.524 1.595 9.048 2.127 13.837 0 .799 1.063.799 1.063 0 .266-6.12-.532-11.974-2.127-17.828-.265-.533-1.329-.533-1.063.266l1.595 11.974c0 .799 1.063.799 1.063 0 0-4.523-.797-9.047-2.126-13.305-.266-.532-1.063-.532-1.063.266 0 4.524.265 8.782.797 13.305 0 .799 1.329.533 1.329-.266.266-4.79-.532-9.579-1.861-14.369-.265-.798-1.329-.532-1.329.266-.266 3.991.532 7.717 1.064 11.442.531 3.992 1.063 7.983 1.86 11.975 0 .798 1.329.532 1.329-.266-.266-3.194-.797-6.653-1.063-9.846 0-.798-1.329-.798-1.329 0-.266 3.459.266 6.919 1.063 10.378.266.798 1.329.532 1.329-.266-.797-3.992-1.595-7.717-2.392-11.709-.266-1.862-.797-3.725-1.063-5.588-.532-2.129-.798-4.257-.532-6.386.266-.798-1.063-1.065-1.329-.266-.797 3.725.532 7.717 1.329 11.442.798 4.258 1.595 8.515 2.658 12.773.532 0 .798-.266 1.329-.266-.797-3.193-1.063-6.653-.797-10.112h-1.329c.266 3.193.797 6.652 1.063 9.846.532 0 .797 0 1.329-.266l-1.595-11.177c-.531-3.991-1.329-7.717-1.063-11.708l-1.329.266c1.329 4.524 1.861 9.314 1.861 14.103.531 0 .797 0 1.329-.266-.798-4.257-1.064-8.515-1.064-13.039l-1.063.267c1.329 4.257 2.127 8.515 2.127 13.038h1.063l-1.595-11.974c-.266 0-.797 0-1.063.266 1.595 5.588 2.126 11.442 1.86 17.563h1.064c-.266-4.79-1.064-9.314-2.127-14.104-.266-.798-1.329-.532-1.063.266 1.329 7.717 4.519 15.7 1.329 23.151-.266.532.532 1.064 1.063.532 1.329-1.862 1.329-3.725 1.329-5.854-.265-3.193-.531-6.12-.797-9.313-.266 0-.797 0-1.063.266a30.621 30.621 0 010 9.845c.266 0 .797 0 1.063.266 0-3.459 0-6.918-.532-10.377 0-.799-1.063-.799-1.063 0 0 4.789.266 9.313.266 14.103h1.063l-.797-15.168c-.266 0-.798 0-1.064.266 1.329 5.854 1.595 11.709.532 17.563.266 0 .797 0 1.063.266 0-2.927.266-5.854.532-8.781h-1.063c.531 5.322 0 10.378-1.595 15.433.266 0 .797 0 1.063.267.266-3.194 1.063-6.121 1.595-9.048-.266 0-.797 0-1.063-.266-.266 3.992-.798 7.983-2.127 11.708.266 0 .798.267 1.063.267.266-2.129.532-4.258 1.064-6.387-.266 0-.798 0-1.064-.266-.265 3.193-.797 6.386-1.86 9.58.266 0 .797.266 1.063.266.266-1.065.532-2.395 1.063-3.46l-1.063-.266c-.797 3.726-1.595 7.451-2.126 11.177-.266.798.797 1.064 1.063.266.531-2.129.797-4.258.797-6.387 0-.532-.797-.798-1.063-.266-.797 3.992-.798 7.983-.266 11.708 0 .533 1.063.533 1.063 0 0-1.862-.265-3.459-.265-5.321 0-.533-.798-.533-1.064 0-.266 2.394-.265 5.055-.531 7.45-.798-.532 0-.532 0-1.064z" fill="#1D1D1B"></path><path d="M128.385 239.495c0 1.331 0 2.129-.266 3.46-.265 1.064-1.063 1.862-1.594 2.927-1.595 2.129-3.456 3.725-5.051 5.588l-10.367 11.176c-3.189 3.193-5.847 6.387-6.645 10.644-1.063 3.992-1.063 8.249-.266 12.241 0 .266.532.266.532 0 .266-4.524 0-9.314 1.861-13.837 1.86-4.524 5.848-7.983 9.037-11.443l10.367-11.176c1.861-2.129 5.848-6.919 3.456-9.846-.532-.266-1.064 0-1.064.266z" fill="#1D1D1B"></path><path d="M131.841 250.406c-1.595 2.128-3.456 3.725-5.582 5.322-1.861 1.33-3.987 2.927-5.848 4.523-3.456 3.194-6.645 8.515-5.582 13.305 0 .266.532.266.532 0 .797-2.661 1.063-5.056 2.392-7.451a24.211 24.211 0 014.785-5.588c3.455-2.661 7.974-5.055 9.834-9.313.532-.798-.265-1.331-.531-.798zm0 9.579c-1.595 1.596-2.658 3.459-3.987 5.056-1.329 1.596-2.392 3.193-3.721 4.523-2.659 2.927-5.582 5.588-8.241 8.782-5.05 5.854-7.974 13.571-7.442 21.554 0 .266.531.532.531 0 .532-3.726 1.064-7.717 2.393-11.443 1.329-3.991 3.721-7.184 6.645-10.378 2.658-2.661 5.316-5.322 7.708-8.249 2.659-2.927 5.317-6.12 7.177-9.579 0 0-.797-.532-1.063-.266zm-2.924 19.159c-1.861 2.927-4.785 5.056-7.177 7.45-2.127 2.129-3.987 4.79-5.316 7.717-2.393 5.589-2.924 12.241-.266 17.563 0 .266.532 0 .532-.266-1.329-6.12-1.329-12.507 1.594-18.095 1.329-2.661 3.19-5.056 5.582-7.185 2.393-2.128 4.519-4.257 5.848-6.918 0-.266-.531-.798-.797-.266zm.531 21.289c-1.329 2.128-2.658 3.991-4.252 5.854-1.33 1.596-2.659 3.193-3.988 5.056-2.126 3.193-3.721 7.717-1.86 11.176 0 .266.531 0 .265-.266-.797-4.524.798-8.515 3.722-11.975 2.392-2.927 5.582-5.854 6.645-9.579.266-.532-.266-.799-.532-.266zm1.595 14.37c-1.063 1.064-1.86 2.661-3.189 3.991-1.063 1.065-1.861 1.863-2.393 3.194-1.063 2.395-1.063 4.789 0 7.184 0 .266.266 0 .266 0-.531-2.661-.266-5.854 1.595-7.983 1.595-1.862 3.456-3.193 4.253-5.588 0-.798-.266-1.064-.532-.798zm-2.658-30.603c.266 2.395 2.393 3.991 3.988 5.588 2.392 2.129 4.784 3.991 6.645 6.652 3.987 5.588 5.316 12.241 3.19 18.627 0 .266.265.266.265 0 2.924-5.588 1.861-12.24-1.329-17.562-1.594-2.661-3.455-5.056-5.847-6.919-2.393-2.129-4.785-3.991-6.646-6.652 0 0-.531 0-.266.266zm1.595-8.248c1.861 2.395 4.519 3.725 6.911 5.854 2.393 1.863 4.519 4.258 6.114 6.653 3.456 5.322 4.519 11.176 4.519 17.562 0 .266.266.266.266 0 1.329-5.854-.532-12.507-3.456-17.562-1.595-2.661-3.456-5.056-5.848-6.919-2.658-2.129-5.582-3.725-7.974-6.12-.266-.533-.798 0-.532.532z" fill="#1D1D1B"></path><path d="M131.841 262.645c3.721 2.928 6.911 6.653 8.506 11.177.797 2.395 1.329 5.056 1.595 7.717.265 2.661-.266 5.322-.266 7.983 0 .266.531.532.531 0 .798-2.661.798-5.855.532-8.516-.266-2.661-.797-5.588-1.861-8.249-1.594-4.523-4.784-8.515-9.037-10.644 0 0-.266.266 0 .532zm.797-7.715c.798 3.194 3.987 4.79 6.911 5.854 3.722 1.331 7.443 2.395 10.633 4.79 3.19 2.129 5.848 5.322 7.442 8.782 1.861 3.725 2.127 7.716 2.393 11.708 0 .266.266.266.266 0 2.126-6.919-2.127-15.168-7.177-19.691-2.658-2.395-5.848-4.258-9.038-5.322-3.987-1.331-8.24-2.129-10.632-6.121-.266-.532-.798-.266-.798 0z" fill="#1D1D1B"></path><path d="M132.372 245.084c6.38 4.79 13.557 9.048 20.468 13.571 1.329.799 2.924 1.863 3.987 3.194 1.329 1.596 1.861 3.459 2.127 5.322.797 3.991 1.329 8.249 1.594 12.24 0 .266.532.266.532 0 .532-4.257.266-8.249-.532-12.24-.265-1.863-.797-3.726-1.86-5.322-.798-1.331-2.127-2.129-3.456-3.194-3.455-2.395-7.177-4.523-10.632-6.918-3.722-2.395-7.709-5.056-11.696-7.185-.532-.532-.797.266-.532.532zm-1.594-13.038c-.532-4.79.265-9.58 1.86-14.104 1.595-4.523 3.988-9.313 7.443-12.773 1.861-1.862 5.582-2.927 6.114.533.265 1.064.266 2.128.531 2.927.266.798 1.064 1.596 1.595 2.395.798 1.064 1.329 2.128.532 3.459-.532 1.064-1.861 1.597-2.924 1.863-2.392.532-5.051-.799-7.443-.799-3.987-.266-8.24 2.661-8.772 6.919 0 .532.532.532.532.266 1.063-2.661 2.924-4.79 5.848-5.588s5.848.532 8.772.532c1.86 0 3.987-.798 5.05-2.129 1.329-1.862.532-3.725-.532-5.322-.797-1.064-1.329-2.128-1.594-3.725 0-1.064-.266-1.863-.798-2.661-1.063-1.331-3.19-1.597-4.784-1.064-2.127.798-3.722 2.927-5.051 4.789-1.595 2.395-2.924 4.79-3.987 7.185-2.392 5.588-3.456 11.442-2.127 17.563-.531 0-.265 0-.265-.266zm-2.658-10.645c-1.329-5.056-2.658-10.378-7.177-13.837-1.861-1.597-3.987-2.395-6.38-2.661-2.392-.266-5.05-.532-7.177 0-1.594.532-3.721 1.863-3.455 3.725 0 .799.531 1.331 1.063 1.597.532.266 1.063.532 1.329 1.064.266.533.266 1.331.266 1.863 0 1.863 0 3.725 1.595 4.79 1.595 1.064 3.455.798 5.05-.266 2.393-1.331 3.987-4.79 6.911-5.056 4.253-.798 5.582 3.991 7.177 6.918 0 .267.266 0 .266 0-.266-3.459-2.658-7.716-6.645-7.983-4.519 0-6.114 6.121-10.633 6.121-3.189 0-2.658-2.927-2.658-5.056 0-.798-.266-1.331-.531-1.863-.532-.798-1.861-1.064-2.127-1.863-.532-1.596 1.595-2.661 2.924-2.927 1.063-.266 2.392-.266 3.456-.266 2.392 0 5.05.266 7.176 1.597 5.317 2.927 7.443 9.047 9.57 14.103-.266.266 0 0 0 0z" fill="#1D1D1B"></path><path d="M74.957 217.409c2.392-1.331 4.253-3.992 5.848-6.121 1.86-2.395 3.455-4.79 5.582-6.918a32.052 32.052 0 016.38-5.588c1.063-.799 2.392-1.331 3.72-1.597l3.988-.798c.797-.266 1.595-.799 2.392-1.597.798-1.064 1.063-2.395 1.595-3.725 1.329-2.661 4.519-4.79 7.709-4.258 1.329.266 2.392 1.064 3.721 1.863 1.063.798 2.126 1.064 3.455 1.596 2.659 1.065 5.051 2.395 6.38 5.056 1.329 2.661 1.595 5.854 2.126 8.782.532 3.725.798 7.716.798 11.442 0 .266.266.266.266 0a78.655 78.655 0 000-11.176c-.266-2.661-.532-5.588-1.329-7.983-.798-2.129-2.127-4.258-3.988-5.588-1.063-.799-2.392-1.331-3.721-1.597-1.595-.532-2.924-1.331-4.519-2.395-4.784-2.927-10.366-.266-12.227 4.524-.266.798-.532 2.129-1.063 2.661-.532.532-1.063.798-1.861 1.064-1.329.266-2.924.532-4.519 1.065-2.658 1.064-5.05 2.661-7.177 4.523-2.392 2.129-4.519 4.79-6.38 7.451-1.062 1.597-2.126 2.927-3.189 4.524-1.595 1.862-3.19 3.193-3.987 4.79-.266 0 0 0 0 0z" fill="#1D1D1B"></path><path d="M74.692 217.675c2.923-1.33 5.847-.266 8.771 0 2.127.266 4.253.266 6.114-.266 3.987-1.064 7.443-3.992 9.835-7.185 1.329-1.862 2.126-3.725 2.924-5.854 1.063-2.661 2.126-4.524 5.05-4.79 1.861-.266 3.987 0 5.582-1.596 1.595-1.597 2.127-3.992 3.987-5.056 3.19-1.597 6.38.798 7.709 3.725 1.329 3.193.797 6.387 1.063 9.846 0 .266.532.532.532 0 1.329-4.79.797-11.176-3.456-14.103-1.86-1.065-3.987-1.597-6.113-.799-2.393 1.065-2.924 3.46-4.519 5.056-1.861 2.129-5.051.798-7.443 1.863-2.126.798-2.924 2.927-3.721 4.79-1.86 4.789-4.785 9.313-9.57 11.708-2.923 1.331-5.847 1.597-8.771 1.331-2.924-.267-5.848-.799-8.772.532.266.266.532.798.797.798z" fill="#1D1D1B"></path><path d="M128.651 201.178c-1.595-6.12 4.253-9.58 7.708-13.571 1.595-1.863 3.456-4.258 5.848-5.056 2.127-.798 5.051-.532 5.848 2.129.532 1.33.266 2.661.797 3.991.266.799.798 1.597 1.595 2.129 1.595 1.331 3.722 1.863 5.582 1.863 3.19.266 5.848.798 8.241 2.927 1.86 1.863 3.189 3.991 4.253 6.386 2.923 5.854 4.518 12.507 5.316 18.893 0 .266.531.533.531 0 .266-6.386-1.594-12.506-3.987-18.361-2.392-5.322-5.848-10.111-11.961-10.91-2.658-.266-6.646-.266-8.24-2.927-1.33-2.395-.266-5.322-2.659-6.918-4.518-3.194-9.037 1.33-11.695 4.257-2.127 2.395-5.051 4.524-6.911 7.185-1.595 2.395-2.658 5.588-1.064 7.983.532.532 1.064.266.798 0z" fill="#1D1D1B"></path><path d="M128.651 196.654c.266-1.065 1.329-1.863 2.127-2.661.797-.798 1.86-1.863 3.189-2.395 1.064-.266 2.393-.532 3.19 0 1.063.532 1.595 1.863 2.127 2.661.797 1.33 2.126 2.661 3.721 3.193.797.266 1.595.266 2.392.266 1.064 0 1.861-.532 2.924-.798 2.393-.532 2.658 2.927 3.19 4.524.532 1.596 1.595 3.193 2.658 4.523 2.658 3.193 6.114 4.79 9.835 6.121 4.519 1.596 10.898 3.991 10.367 10.111 1.063-3.991-2.127-7.717-5.316-9.579-2.393-1.331-5.051-1.863-7.709-2.927-2.126-1.065-4.253-2.395-5.848-4.258-1.595-1.863-2.658-4.257-3.455-6.652-.532-1.331-1.064-3.194-2.658-3.46-1.064 0-1.861.533-2.924.799-1.329.266-2.924 0-3.988-.799-1.86-1.33-2.126-3.991-4.253-5.056-1.86-1.064-4.253-.532-6.113.799-1.329 1.064-3.987 3.459-3.456 5.322-.531.266-.266.266 0 .266z" fill="#1D1D1B"></path><path d="M171.181 215.812c.265 1.065 1.063 2.129 1.329 3.194.531 1.064.797 2.395 1.063 3.459 0 .532.797.266.532-.266 0-1.863-1.064-5.056-2.924-6.387.265 0 0 0 0 0zm3.19 5.589c0-.266 0-.799.265-1.065 0-.266-.265-.266-.265 0v1.597c0 .532 0 .798.265 1.064h.266c.266-.266.266-.798.266-1.064v-1.597c0-.266-.532-.266-.266 0-.797.266-.531.533-.531 1.065zM129.714 14.375c.798.266 1.595.266 2.393.266 0-.266-.266-.532-.266-.798-.266.266-.798.532-1.329.266v1.064c.531 0 .797 0 1.329.266v-1.064c-1.064 0-2.127 0-2.924-.266v1.064c.797 0 1.595 0 2.126.266v-1.064c-.797.532-1.329 1.064-1.595 1.863-.265.532.532.798.798.266.266-.533.531-1.065 1.063-1.33.266-.267.266-.8 0-1.065-.797-.266-1.861-.266-2.924-.266-.532 0-.532.798 0 1.064 1.063.266 2.127.266 3.19.266.531 0 .797-.798 0-1.064-.532-.266-1.063-.266-1.861-.266-.532 0-.532.798 0 1.064.798 0 1.595 0 2.127-.798.265-.266 0-.799-.266-.799h-2.392c.265.533.265.799.531 1.065z" fill="#1D1D1B"></path><path d="M129.981 15.44c-1.861 10.112-1.064 20.223-.798 30.335.266 10.378-.532 20.756-1.861 30.868-1.329 10.378-2.658 20.755-3.455 31.133a309.674 309.674 0 00-.798 31.4c0 5.854.266 11.709.532 17.563.266 5.588.532 11.708 1.595 17.296 0 .532 1.063.532 1.063 0 0-5.056-.797-10.112-1.063-15.434-.266-5.322-.532-10.377-.798-15.699-.265-10.378 0-20.756.532-31.134s1.595-20.756 2.924-30.868c1.329-10.378 2.658-20.49 2.392-31.133-.265-11.443-1.329-22.885.266-34.327.266-.266-.531-.266-.531 0z" fill="#1D1D1B"></path><path d="M125.196 101.123c-1.329 11.177-2.127 22.353-2.127 33.795 0 11.176.266 22.619 1.329 33.795 0 .798 1.329.798 1.329 0-.265-6.121-.531-11.975-1.063-18.095 0-.798-1.063-.798-1.063 0a57.604 57.604 0 000 9.58c.266 2.927.532 6.386 1.329 9.047.266.532.797.266.797 0-.265-3.193-.797-6.12-1.063-9.314-.266-3.193-.266-6.386 0-9.313h-1.063c.266 6.12.532 11.974.797 18.095h1.329c-.797-11.176-1.329-22.619-1.329-33.795 0-11.176.532-22.618 1.329-33.795 0-.266-.531-.266-.531 0zm3.189 96.596c-.531-3.725-.797-7.717.266-11.442 1.063-3.726 3.19-6.653 5.848-9.314 5.05-5.056 10.632-9.846 17.809-11.442 3.456-.798 7.177-1.065 10.899-1.863 3.189-.798 6.113-2.395 9.037-4.257a63.078 63.078 0 0013.291-13.305c2.126-2.928 4.253-6.121 5.848-9.314 1.86-2.927 3.721-6.12 4.784-9.58 0-.266-.266-.532-.531-.266-2.127 2.661-3.456 5.855-5.317 8.782-1.594 2.927-3.455 5.854-5.316 8.515-3.987 5.588-8.506 10.91-14.354 14.635-3.189 2.129-6.645 3.46-10.366 4.258-3.722.798-7.443 1.064-10.898 2.129-6.38 2.129-11.962 6.918-16.481 11.708-2.392 2.661-4.519 5.854-5.316 9.58-.797 3.725-.797 7.717.266 11.442.266.266.797.266.531-.266z" fill="#1D1D1B"></path><path d="M34.022 166.052c3.456-6.386 10.101-10.91 16.48-14.369 3.722-2.129 7.975-2.395 12.228-2.661s8.506-.266 12.759 1.064c7.443 2.395 13.822 7.983 19.404 13.039 5.582 5.322 11.164 10.644 17.278 15.434 3.456 2.927 7.177 5.588 10.367 9.047 2.924 3.194 5.316 6.653 7.177 10.644 0 .266.531 0 .531-.266-1.595-7.983-8.772-13.837-14.885-18.627l-9.57-7.983c-2.923-2.927-6.113-5.854-9.037-8.515-5.582-5.322-11.962-10.644-19.139-13.571-3.987-1.597-8.505-1.863-12.758-1.597-3.988.267-8.24.533-12.228 2.129-3.721 1.597-7.442 4.258-10.632 6.919-3.19 2.661-6.38 5.588-7.975 9.313 0 .266-.531 0 0 0zm52.631-50.826c1.064 4.79 3.987 9.314 6.911 13.305 3.19 4.258 7.177 8.249 10.633 12.241 7.443 8.249 12.227 18.095 15.949 28.473 1.063 2.927 2.126 5.854 2.923 8.781 1.064 2.927 1.595 5.854 2.393 9.047 0 .266.531.266.531 0 .532-2.395-.265-5.056-1.063-7.184-.797-2.661-1.595-5.056-2.658-7.717-1.861-5.056-3.721-9.846-5.848-14.636-2.392-4.79-5.05-9.313-8.24-13.571-3.456-4.524-7.709-8.515-11.43-12.773-2.126-2.395-3.987-4.523-5.582-7.184-1.86-2.661-2.924-5.588-4.253-8.516.266-.798-.266-.798-.266-.266zm71.769-1.596c.266-.532.266-.266.531-.798.266-.533-.531-.533-.797-.267-3.455 9.846-8.772 18.893-14.62 27.143-5.847 8.249-13.29 15.966-15.682 25.811-1.329 5.854-1.595 11.709-1.064 17.563 0 .266.266.266.266 0 .532-5.322.532-10.644 1.595-15.966 1.063-5.322 3.721-9.846 6.645-14.103 5.848-8.25 11.962-16.233 17.012-25.014 2.658-5.056 5.051-10.112 6.911-15.434h-.797c-.266.267 0 .799 0 1.065zm-31.366 73.443c1.861-4.257 4.785-7.717 7.443-11.442 1.329-1.597 2.392-3.459 3.19-5.588.797-2.395 1.329-5.322 3.721-6.653 2.127-1.064 3.987 1.065 6.114.533 1.86-.533 2.126-2.661 2.658-3.992.797-2.395 2.392-5.854 5.582-5.588 2.126 0 3.455 2.129 5.582 2.395 1.329.266 2.924-.266 3.455-1.597.798-1.862-1.063-3.459-1.329-5.322-.265-2.395 1.329-4.789 3.456-6.12 2.126-1.33 5.05-1.863 7.443-2.129 1.594-.266 3.987-.266 4.784-1.862.532-1.331-.266-2.928-1.063-3.992-1.595-1.597-4.519-2.661-2.924-5.588 1.329-2.395 4.519-3.459 6.645-4.79 5.051-2.927 9.835-6.386 14.62-9.579 3.455-2.395 7.443-5.588 7.708-10.112 0-.266-.531-.266-.531 0-1.861 4.524-5.051 7.451-8.772 10.112-4.519 3.193-8.772 6.12-13.556 8.781-2.924 1.597-8.772 3.991-7.443 8.515.532 1.863 2.392 2.661 3.721 3.992 1.064 1.064 1.595 2.661-.265 3.193-1.33.266-2.659.532-3.722.798-4.253.798-8.772 1.863-10.367 6.12-.531 1.597-.797 3.194-.265 4.79.531 1.065 1.86 2.927.531 3.992-1.063.532-2.392 0-3.189-.533-1.595-1.064-3.19-2.128-5.317-1.596-1.86.532-3.189 1.863-4.253 3.459-.531.798-.797 1.863-1.329 2.927-.531 1.331-.797 3.726-2.658 3.193-1.86-.266-3.19-1.33-5.05-.532-2.127.799-3.19 2.927-3.722 5.056-.797 2.661-1.594 5.056-3.189 7.185-3.19 3.725-6.646 7.185-7.709 11.974 0 .266 0 .266 0 0z" fill="#1D1D1B"></path><path d="M132.107 178.826c1.595-1.863 3.987-2.661 6.38-2.129 1.86.266 3.189 1.863 5.316 2.129 3.189.266 6.113-2.395 6.113-5.322l-.531.532c1.063-.532 2.392 1.065 3.189 1.597.798.532 1.861.532 2.924.532 1.861 0 3.722-1.064 5.051-2.395 1.595-1.597 1.86-3.725 2.924-5.322 1.86-2.927 4.253 0 5.848 1.331 3.189 2.661 7.974 2.661 11.695 1.33 1.861-.532 3.722-1.863 4.253-3.725.532-1.863-.531-3.194-1.595-4.524-.797-1.064-1.595-2.129-.531-3.193.797-.799 2.392-.532 3.455-.532 1.595 0 3.19-.799 3.988-2.395.797-1.863-.001-3.992 1.063-5.588 1.595-3.194 4.518.532 5.848 1.596 2.923 2.395 7.442 1.597 10.1-.798 3.19-2.927 3.988-7.451 3.456-11.442-.798-5.855-3.987-11.177-6.38-16.499-1.329-2.927-2.658-6.12-2.126-9.579.532-2.927 1.329-5.588 1.063-8.249 0-.799-1.329-.799-1.329 0 .266 2.661-.531 5.056-1.063 7.717-.532 2.128-.266 4.523.532 6.652 1.594 5.056 4.253 9.58 6.113 14.636 1.861 4.523 2.924 10.111 0 14.635-1.329 1.863-3.455 3.193-5.848 3.193-2.658.266-3.987-1.33-5.848-2.661-1.063-.798-2.392-1.862-3.987-1.33-1.595.532-2.126 2.129-2.392 3.725-.266 2.129.266 5.056-2.658 5.322-1.595.266-3.456-.266-5.05 1.065-1.064 1.064-1.064 2.394-.266 3.725 1.063 1.863 3.455 3.725 1.329 6.12-1.595 1.863-4.785 2.129-7.177 2.129-2.658 0-4.785-.798-6.645-2.661-1.329-1.064-2.659-2.661-4.519-2.395-1.861.266-2.658 2.395-3.456 3.992-1.063 2.661-3.19 5.056-6.379 5.056-1.595 0-2.658-.799-3.722-1.597-.797-.532-1.594-.798-2.392-.532-.266 0-.532.266-.532.532 0 2.129-1.594 3.725-3.721 4.258-2.126.532-3.721-1.065-5.582-1.863-2.924-.798-6.114.266-7.708 2.661.265.266.797.532.797.266zm-106.325-2.929c7.443.532 13.822-3.459 20.734-4.79 3.72-.798 7.442-.532 10.898-2.395 2.658-1.33 3.987-3.459 4.518-6.386.266-2.129 1.33-3.992 3.722-3.459 1.86.532 3.19 2.128 3.987 3.725.532 1.064.797 2.661 1.86 3.459 1.064 1.065 2.393 1.331 3.722 1.331 1.595 0 2.924-.266 3.987-1.065 1.064-1.064 1.861-2.394 3.19-3.193 1.063-.798 3.456-.798 2.658 1.065-.532 1.064-1.595 1.862-2.126 2.927-1.595 2.927 1.594 5.588 3.721 6.918 1.33.799 2.924 1.331 4.785 1.065 1.86-.266 4.784-2.129 6.38-.266v-.799c-2.66 3.193-.798 7.717 3.189 8.249 1.329 0 2.658 0 3.987-.266h4.519c3.19.266 6.113 1.065 9.037 2.129.532.266 1.064-.798.532-1.064-3.987-1.863-8.24-2.927-12.759-2.927-2.126 0-5.05 1.064-6.911-.267-1.595-1.064-1.86-3.725-.532-5.055.266-.267.266-.533 0-.799-2.392-3.193-5.582-.266-8.506-.532-1.86 0-3.455-1.064-4.784-2.395-.798-.798-1.86-1.863-1.595-2.927 0-.798.797-1.33 1.063-1.863 1.063-1.596 2.658-3.725.532-5.322-2.127-1.596-4.785.533-6.114 2.129-1.329 1.597-2.392 2.661-4.519 2.661-1.063 0-2.392-.266-3.19-1.064-.531-.799-.797-1.863-1.328-2.661-1.064-2.661-2.924-5.056-6.114-5.056-3.19.266-3.722 3.193-4.253 5.854-1.063 4.524-5.848 5.588-9.835 5.854-4.253.532-7.974 1.597-11.962 2.927-4.253 1.597-8.506 2.927-12.759 2.927-.265.533-.265 1.331.266 1.331z" fill="#1D1D1B"></path><path d="M26.048 175.099c-2.924-1.331 0-5.854-.266-7.983 0-.798-.531-1.597-.531-2.129 0-.798.531-1.597 1.063-2.395.797-1.064 1.33-2.395 1.86-3.725 1.861-5.322 1.064-11.442 3.19-16.764 1.861-4.79 6.38-8.516 11.43-9.58a15.257 15.257 0 017.709.266c1.595.532 2.924 1.064 3.987 2.129 1.063.798 1.86 1.863 2.924 2.395 2.392 1.064 4.785 0 7.177 0 1.86 0 3.19.266 4.253 1.596 1.063.799 1.86 2.129 2.658 2.927 1.595 1.331 3.721 2.129 5.582.799 1.063-.799 1.329-2.129 2.392-2.661 1.33-1.065 3.19-1.331 4.52-.799 2.923.799 5.581 3.194 7.708 5.322 1.063 1.065 2.126 2.129 2.658 3.46.266.532.531 1.33.531 2.129 0 1.064-.531 1.596-1.329 2.128-1.86 1.597-.531 3.46 1.33 4.524 2.657 1.33 6.113.798 8.505 2.927 1.329 1.064 1.861 2.927 1.063 4.524-.531 1.064-1.063 1.862 0 2.661.798.798 2.127 1.064 3.19 1.33 2.127.532 2.127 2.129 2.658 3.726 1.329 6.12 5.848 11.442 10.367 15.433.266.267.797 0 .532-.532-3.988-5.322-8.241-9.579-9.835-16.232-.266-1.064-.532-2.129-1.329-2.927-.798-.798-2.127-1.064-3.19-1.33-.266 0-.798-.267-1.063-.267-.798-.532-.532-.532-.266-1.33.266-.532.531-.798.531-1.331.266-1.064 0-2.128-.531-3.193-1.329-2.661-3.987-3.459-6.645-3.991-1.064-.266-4.52-.532-4.785-1.863-.266-.798 1.063-1.596 1.329-2.129l.797-1.596c.532-2.661-1.594-5.056-3.19-6.653-2.126-2.395-4.518-4.523-7.176-5.854-2.393-1.064-5.05-1.064-7.177.266-1.063.798-1.33 2.129-2.392 2.927-1.595 1.331-3.722-.266-4.785-1.33-1.86-1.863-3.456-3.46-6.114-3.726-2.924-.266-6.38 1.331-8.772-1.064-2.392-2.129-4.518-3.459-7.442-3.992-2.392-.532-5.05-.266-7.443.267-4.785 1.33-9.038 4.523-11.164 9.047-2.924 6.12-1.33 13.571-4.253 19.691-.797 1.331-1.86 2.661-2.127 4.258 0 .798 0 1.33.266 1.863.532 1.33.532 2.394 0 3.459-.531 2.129-1.063 5.056 1.33 6.12.531.266.797-.532.265-.798z" fill="#1D1D1B"></path><path d="M116.158 182.55c2.127 1.863 4.519 3.725 6.38 6.12 1.063 1.065 1.86 2.395 2.924 3.726.797 1.33 1.329 2.661 2.126 3.991 0 .266.266 0 .532 0 .531-1.33-.266-2.661-.798-3.725-.797-1.331-1.86-2.661-2.924-3.992-2.126-2.395-4.518-5.056-7.442-6.652-.798-.266-1.064.266-.798.532zm-34.29-76.369c3.19-2.129 6.114 2.394 7.974 4.257 1.861 1.863 3.722 3.459 5.848 4.79 4.253 3.193 8.772 6.652 11.43 11.442 2.658 4.524 2.924 10.112 5.582 14.636.532 1.064 1.329 1.862 2.127 2.661l1.329 1.33c.797 1.065.797 1.863.531 3.193-.265 1.065-.531 2.129 0 3.46.532 1.33 1.329 2.661 2.127 3.991 1.861 3.193 3.721 6.653 3.455 10.378 0 2.395-.797 5.322 1.329 6.919.266.266.532-.266.532-.533-1.329-2.661-.266-5.854-.532-8.515-.531-3.193-2.126-5.854-3.455-8.781-.797-1.331-1.861-2.927-2.127-4.258-.265-1.33.532-2.661.532-4.257-.266-1.331-1.063-2.129-1.861-2.927-1.063-1.065-2.126-2.395-2.658-3.726-2.658-4.789-3.189-10.378-6.113-15.167-2.924-4.524-7.709-7.717-11.962-11.177a41.072 41.072 0 01-7.177-6.386c-1.86-1.863-4.519-3.991-7.177-1.863-.531.266-.266 1.065.266.533z" fill="#1D1D1B"></path><path d="M122.272 171.108c-.532 1.331.531 3.194 1.063 4.524.266.798 1.329.532 1.063-.266 0-.266-.265-1.863-.797-1.597 0 0 .532 1.597.532 1.863.265 1.064.531 2.395 1.063 3.459 0 .266.531.266.531 0 .266-1.33-.265-2.395-.531-3.725-.266-.798-.266-2.129-1.063-2.661-1.861-1.064-1.064 2.661-1.064 3.193.266-.266.798-.266 1.064-.532-.532-1.331-.798-3.193-1.595-3.992-.266-.532-.266-.532-.266-.266z" fill="#1D1D1B"></path><path d="M82.666 104.583c-1.861.798-2.393 2.927-2.393 4.79 0 3.459.532 6.918 1.064 10.111.266 2.928.797 5.855 1.86 8.782 1.33 2.927 3.456 5.588 5.316 8.249 3.456 4.79 7.177 9.313 11.696 13.305 2.127 1.862 4.519 3.459 6.911 4.79 1.329.798 3.19 1.33 3.988 2.661.797 1.33 1.063 2.661 2.126 3.991 2.127 3.193 4.253 6.386 6.114 9.846 2.126 3.459 3.721 7.184 6.113 10.378 0 .266.532 0 .266-.266-.797-2.928-2.392-5.589-3.987-8.25-1.595-2.927-3.456-5.854-5.05-8.515-.798-1.33-1.595-2.395-2.393-3.725-.797-1.331-1.329-2.661-1.86-3.992-1.064-2.395-3.988-3.193-6.114-4.523-4.785-2.927-8.772-7.185-12.493-11.443a68.014 68.014 0 01-5.317-6.918c-1.86-2.395-3.72-5.056-4.784-8.249-1.063-3.46-1.33-7.185-1.86-10.644-.267-1.863-.532-3.726-.532-5.322 0-1.597 0-3.46 1.595-4.258.531-.266.265-1.064-.266-.798zm77.617-.798c1.329 0 1.861 2.395 2.392 3.46.532 1.33 1.063 2.395 1.595 3.725 1.063 2.395 2.127 4.79 2.924 7.185 1.595 4.257 2.924 10.644-1.329 13.837-1.329 1.064-2.392.532-3.721 0-.532-.266-1.329-.532-2.127-.266-1.329.532-1.329 1.863-1.329 3.193 0 1.331 0 2.129-1.329 2.661-.797.266-1.595.266-2.392.798-1.064.533-2.127 1.863-1.329 3.194.531 1.064 1.86 1.064 2.392 1.862.797 1.331-.266 2.927-1.063 3.992-1.595 2.129-4.519 3.991-7.177 3.193l.531.532c-.531-1.064-.797-2.927-2.126-3.193-1.063 0-2.127.798-2.658 1.597-.798 1.596-.266 3.193-.266 4.789 0 2.129-2.127 3.992-4.253 2.661-.532-.266-.797-.798-1.595-.532-.532 0-1.063.532-1.329.798-1.329 1.065-1.329 2.129-1.861 3.46-.531 1.33-1.063.798-2.126 1.064-.532.266-1.063.798-1.595 1.065-1.595 1.596-2.924 3.193-4.253 5.055-.266.267.266.799.532.533 1.86-1.331 3.189-3.194 4.784-4.79 1.063-1.065 2.924-.266 3.456-2.129.266-.798.266-1.597.797-2.395.266-.266.532-.798 1.063-1.064 1.064-.532.798 0 1.329.266 1.33.532 2.127.798 3.456.266 1.063-.532 2.127-1.331 2.127-2.661.265-1.863-1.064-4.524.797-5.854 1.595-1.331 1.595 1.064 2.126 1.862.266.533.798.533 1.33.799 1.594.266 3.189-.266 4.518-1.065 2.393-1.596 5.848-4.789 4.785-7.983-.266-.532-.532-.798-.798-1.33-.531-.532-2.126-.798-1.86-1.863.266-.798 1.861-1.064 2.658-1.33.797-.266 1.329-.533 1.861-1.065.797-1.064.797-2.128.797-3.193 0-.532-.266-1.596 1.063-1.596.532 0 1.064.532 1.329.532.798.266 1.329.532 2.127.532 3.19-.532 5.05-4.524 5.316-7.451.532-4.79-1.595-9.047-3.455-13.305-1.064-2.395-2.127-5.056-3.19-7.451-.532-1.33-1.329-3.193-3.19-3.193-.266-.266-.266.532.266.798z" fill="#1D1D1B"></path><path d="M160.549 104.051c.531-.267.531-1.331-.266-1.331-.798-.266-1.595.798-1.861 1.064-.797.799-1.861 1.331-2.658 2.129-1.861 1.597-3.721 3.193-5.848 4.524-2.126 1.33-4.253 2.129-6.379 3.193-2.924 1.597-6.114 4.79-4.253 8.515.797 1.597 3.189 3.194 2.658 5.322-.798 2.129-3.456 3.194-5.317 4.524-1.594 1.064-2.658 2.661-2.392 4.79 0 1.33.532 2.395.532 3.725 0 .799-.266 1.331-.798 1.863-.797.798-1.594.532-2.392.532-.266 0-.797.266-.532.532 0 .799-1.063 1.331-1.594 1.863-.532.532-.798 1.064-.798 1.863 0 .798.532 1.33.532 2.129 0 .532-.532 1.33-.798 1.862-.531 1.331-1.063 2.927-1.329 4.524-.531 2.927-.797 5.854-.531 8.781 0 2.927 0 6.387.797 9.048 0 .266.532.266.798 0 .531-2.928 0-5.855 0-8.782 0-3.193 0-6.652.797-9.845.266-1.597 1.063-2.927 1.595-4.258.531-1.064.532-1.863.266-2.927-.266-.798-.266-1.331.531-1.863.266-.266.532-.532 1.063-.798.532-.532.798-1.064.798-1.597l-.532.533c1.861.266 3.722-.267 4.253-2.129.798-2.395-1.063-5.322.266-7.451 1.329-2.129 4.253-2.661 5.848-4.524 1.329-1.33 1.861-3.193 1.063-5.056-1.063-2.128-3.721-3.725-2.658-6.386 1.063-2.927 4.253-3.992 6.645-5.056a25.584 25.584 0 006.646-4.258c1.063-.798 2.126-1.596 3.189-2.661.532-.532 1.064-.798 1.595-1.33.266-.266.532-.532.798-.532.266-.266.797-.532 1.063-.799-1.329.267-1.063.533-.797.267z" fill="#1D1D1B"></path><path d="M126.791 173.237c.266-1.331.265-2.395.797-3.726-.266 0-.531-.266-.797-.266-.798 2.661-1.329 5.322-1.861 7.983h.797l-.797-1.596c-.266-.533-1.063-.267-.797.266.265.532.531 1.33 1.063 1.862.266 0 .266 0 .266-.266 0-.798-.266-1.33-.266-1.862-.266 0-.532.266-.798.266l.798 1.596c.266.266.797.266.797 0 .532-2.661 1.329-5.322 1.861-7.983 0-.532-.798-.798-.798-.266-.265 1.331-.531 2.661 0 3.992-.531 0-.265.266-.265 0zM86.387 62.806c.798-.532 1.595-1.33 2.658-1.863.532-.266.266-1.064-.531-1.064-1.33.266-2.658 1.596-2.924 2.927 0 .266 0 .532.531.798 1.861.266 2.924-1.064 3.456-2.395.266-.532-.532-1.33-.797-.798-.266.266-.532.798-.798 1.33 0 .267.266.533.532.533.531-.266.531-.532 1.063-.799l-.797-.798c-.532.798-1.064 2.129-2.393 1.863l.532.798c.266-1.064 1.329-1.863 2.126-2.129-.266-.266-.266-.532-.531-1.064-1.063.798-1.861 1.33-2.658 2.395-.266 0 .265.532.531.266z" fill="#1D1D1B"></path><path d="M87.45 62.806c3.456 6.386 6.645 13.039 9.304 19.957 2.392 6.92 4.253 13.838 5.316 21.022 1.329 7.185 2.126 14.104 3.721 21.288 1.595 7.185 3.987 13.838 7.443 20.224 3.987 7.983 7.974 15.7 11.961 23.683.266.532 1.064 0 .798-.532-3.456-6.919-7.177-14.104-10.633-21.022-3.455-6.919-6.379-13.571-8.24-21.022-1.595-6.919-2.658-14.103-3.721-21.288-1.063-7.185-2.924-14.103-5.05-21.022-2.659-7.45-5.848-14.902-10.101-21.554-.266-.266-.798 0-.798.266z" fill="#1D1D1B"></path><path d="M97.551 65.2c0-.266 0-.532.266-.798s-.266-.532-.532-.266l-.531.532c-.266.266-.266.798.265.798.532 0 1.064 0 1.595.266.532.266.798-.532.266-.798-.266-.266-.532-.266-.797-.532-.266-.266-.798 0-.798.532.266 1.064 0 2.129-.266 3.193-.266.798-.531 1.863-.531 2.661-.266 1.597-.266 3.193-.532 4.79 0 3.193.266 6.918 1.595 9.846 0 .266.532 0 .266 0-.266-3.726-1.063-7.185-.798-10.644 0-1.863.266-3.726.798-5.588.266-1.331 1.063-2.928.531-4.258-.265-.266-.531 0-.797.266.266 0 .532.266.797.266 0-.266.266-.532.266-.798-.531-.266-1.063-.266-1.86-.266 0 .266.265.532.265.798.532-.266.532-.266.532-.798h-.532c.266.266.266.532.532.798-.266 0 0 0 0 0zM84.526 79.038c0 .267-.265.533-.265.799h.531l.266-1.065c-.266 0-.532 0-.797-.266v1.33c0 .267.531.533.797.267s.266-.532.532-1.064c.266-.533-.532-.799-.798-.267 0 .266-.266.266-.266.533.266 0 .532.266.532.266.266-1.065.532-1.863 1.063-2.661-.265 0-.531-.266-.797-.266-.266 1.064-.266 1.862 0 2.927 0 .266.532.532.797 0 .532-1.065-.265-1.863-1.329-1.597-.531 0-.266.798 0 .798 3.987 1.597 7.709 4.524 10.367 7.983 1.329 1.597 2.658 3.46 3.456 5.589 1.063 2.128 1.594 4.257 2.392 6.386 0 .266.266.266.266 0 0-4.524-2.658-9.047-5.317-12.24-2.924-3.726-6.645-6.653-10.898-8.25v.799l.266.266h.797a3.696 3.696 0 010-2.395c0-.532-.531-.799-.797-.266-.532.798-.797 1.862-1.063 2.927 0 .266.266.798.531.266.266-.266.266-.266.532-.799-.266 0-.532-.266-.798-.266 0 .266-.265.533-.265.799h.797v-1.33c0-.267-.532-.533-.797-.267-.266.532-.532 1.064-.266 1.597 0 .266.797.266.531 0v-.799c.532 0 .266 0 0 .266z" fill="#1D1D1B"></path><path d="M103.399 77.44c.266 1.064.798 2.129 1.595 2.927.266.266.798 0 .532-.532-.266-.798-.798-1.064-1.329-1.597 0 .266 0 .533-.266.799h.266v-.533c-3.19 6.653-5.05 15.168-2.127 22.353 0 .266.532.266.266 0-.532-3.726-.797-7.185-.532-10.644.266-3.725 1.33-7.717 3.19-11.176v-.533c-.266-.266-.266-.266-.797-.266-.266 0-.532.533-.266.799.532.266.797.798 1.063 1.33.266 0 .532-.266.532-.266-.532-.798-1.063-1.863-1.595-2.66-.266-.533-.532-.267-.532 0zM88.78 95.004c-.532.266-.798.799-.532 1.33 0 .267.531.267.531 0 .532-1.064 1.33-2.128 2.127-2.926l-.532-.532c-.531.532-.797 1.064-1.329 1.596-.266.266.266.798.532.532.532-.798 1.329-1.33 1.595-2.129 0-.266-.266-.266-.266-.266-.797.533-1.33 1.33-1.86 1.863.265.266.53.266.53.532.533-.532.798-1.064 1.33-1.596.266-.266-.266-.799-.532-.532-1.063.798-1.86 1.862-2.392 3.193h.531c.266-.266.266-.532.266-1.065.266 0 0 0 0 0z" fill="#1D1D1B"></path><path d="M90.374 95.003c.266-.266.532-.798.798-1.064-.266 0-.532 0-.798-.266 0 .532-.265.798-.531 1.064.266.266.266.532.531.532.266-.266.532-.532.798-.532-.266 0-.532-.266-.532-.266l-.531 1.597c0 .266.265.532.531.532.532-.266.797-.798.532-1.33-.266-.267-.532 0-.532.265 0 0 0 .267-.266.533l.532.532c.266-.532.266-1.065.532-1.597 0-.266-.266-.532-.532-.532-.266.266-.532.532-.797.532-.266.266 0 1.065.265.799.532-.267 1.064-1.065.798-1.863 0-.266-.532-.532-.798-.266-.265.266-.531.798-.797 1.064s.532.798.797.266z" fill="#1D1D1B"></path><path d="M89.843 95.004c.797 1.863 2.658 3.193 3.987 4.79 1.595 1.863 2.924 3.459 4.519 5.322 1.329 1.863 2.392 3.459 3.455 5.588 1.064 1.863 1.861 3.992 2.924 5.854h.266c-.266-1.862-1.329-3.991-2.126-5.854-1.064-2.129-2.393-3.991-3.722-5.854-1.329-1.863-2.658-3.459-4.253-5.322-1.329-1.597-2.924-3.725-5.05-4.524.266-.266 0-.266 0 0zm17.278 1.063c-.532.267-.532.799-.266 1.065.266.532 1.063.798 1.329 1.33.266.533.797.266.797-.266 0-1.33-1.329-2.129-2.392-1.862-.266 0-.266.266-.266.532v.266c-.266.266-.266.532 0 .798.532.266 1.063.798 1.595 1.065.532.266.797-.267.797-.799-.531-.798-1.594-1.596-2.392-1.862-.531-.267-.797.532-.266.798.798.532 1.861 1.064 2.924 1.596.532.267 1.064-.798.266-.798-.532 0-.797-.266-1.329-.266-.266 0-.266.266 0 .266l.797.798c.266-.266.266-.532.532-.798-.797-.532-1.861-1.064-2.924-1.33 0 .266-.266.532-.266.798.798.266 1.329.798 1.861 1.33l.797-.798c-.531-.266-1.063-.798-1.594-1.064v.798c.265-.266.265-.532.265-1.064 0 .266-.265.266-.265.532.531-.266 1.329.266 1.329.798.265 0 .531-.266.797-.266l-.797-.798c-.798.266-1.595-.266-1.329-.799.265 0 0-.266 0 0z" fill="#1D1D1B"></path><path d="M107.12 97.664c-1.063 1.597-1.329 3.725-1.595 5.322-.266 1.863-.531 3.459-.797 5.322-.266 3.725-.798 7.717 0 11.442 0 .266.266.266.266 0 .531-3.459.265-7.45.531-10.91.266-2.129.266-3.991.798-5.854.266-1.597 1.063-3.46 1.063-5.322h-.266zm-10.1-33.263c.265.799 1.063 1.597 1.86 1.863 0-.266.266-.532.266-.798-.266 0-.532-.266-.797-.532-.266-.267-.266-.533-.532-.533h-.266c-.266.799.798 1.33 1.33 1.597.53.266.797-.532.265-.798-.532-.267-1.063-.533-1.33-1.33-.265 0-.797.265-.797.531zM85.59 60.41c.265 2.395.265 5.589-2.393 6.387-1.595.532-2.924-.532-2.924-2.129 0-1.33 1.064-2.661 1.861-3.46.266-.265.266-.532-.266-.798-1.063-.266-2.126 0-2.924-.532-1.594-.532-2.392-2.129-1.86-3.725.797-2.927 4.253-2.395 6.38-2.129.265 0 .53 0 .53-.266.266-2.395 2.659-5.854 5.317-3.193 1.86 1.862 1.063 4.79 0 6.652-.266.266 0 .799.531.799.798 0 1.596-.267 2.127 0 .266.266.532.266.797.532-.265.532-.265 1.064-.531 1.596-.266.266-.798 0-1.063 0-1.595 0-3.19-.532-4.52-.532-.265 0-.53 0-.797.532-.265.799 0 1.597.532 2.395.266.266.797.266.797 0 .266-.798.532-1.33.266-1.863-.266.267-.531.267-.797.533l.266.266c.266.266.531 0 .531-.266v-.533c0-.532-1.063-.532-1.063 0 0 .533 0 .799-.266 1.331h.798c0-.532-.266-.798-.266-1.33l-.532.532c1.595.266 3.456.532 5.05.532.798 0 1.861-.266 2.393-1.065.532-.798 0-1.862-.532-2.394-1.063-1.065-2.392-.799-3.721-.799l.531.799c1.33-2.661 2.127-6.919-1.063-8.516-3.19-1.596-5.316 1.863-5.582 4.524.266 0 .266-.266.532-.266-2.658-.532-6.38-.798-7.443 2.661-.266 1.33 0 2.661.798 3.46 1.329 1.596 2.923 1.33 4.784 1.596 0-.266 0-.532-.266-.798-1.063 1.33-2.392 2.927-2.126 4.523.266 1.33 1.063 2.395 2.392 2.661 4.253.266 4.785-4.523 4.253-7.45 0-.799-.531-.799-.531-.267z" fill="#1D1D1B"></path><path d="M84.792 58.017s.266 0 .266-.266l.266-.266c.266-.267.265-.533.531-.799v-.266c-.266-.266-.531.266-.531.532 0 .267-.266.267-.266.533 0 0 0 .266-.266.266v.266z" fill="#1D1D1B"></path><path d="M85.324 57.483c.266-.266.266-.532.532-.532.265-.267-.266-.533-.266-.267l-.266.533c-.532.532-.266.532 0 .266z" fill="#1D1D1B"></path><path d="M85.058 57.75c.266-.266.532-.532.266-1.064s-.797-.266-1.33-.266c-.265 0-.265.532 0 .532.267.266.532.266 1.064.532v-.532c-.266.266-.532.532-.797.532-.266 0-.266.267 0 .533s.797.532 1.063 0h-.532c0 .266.266.532.266.798s.797.266.532-.266v-.532s0-.533.266-.533c0-.266 0-.532.265-.532-.531 0-1.329.266-1.86.532-.266.267 0 .799.265.533.266 0 .798-.267 1.064-.267-.266.267-.532 0-.532 0 0 .533.266.799.797.799.532 0 .266-.798-.265-.532 0 0-.266 0-.266-.267 0-.266-.266-.266-.532-.266s-.797.267-1.063.267c0 .266.266.532.266.532.531-.266 1.063-.266 1.595-.532.266 0 .531-.533 0-.533-.266 0-.798 0-1.064.266-.265.533-.265.799 0 1.33.266 0 .266 0 .532-.265.266 0 .266-.266 0-.798h-.797v.532c.266-.266.797-.532.797-.799 0-.266 0-.266-.266-.532-.266 0-.531-.266-1.063-.266v.532h.532l.265.266c.266 0 .532.267.532.267z" fill="#1D1D1B"></path><path d="M85.324 58.017s0 .266 0 0c0 .266 0 .266 0 0 0 .266 0 0 0 0s0 .266 0 0c0 0-.266.266 0 0 0 .266 0 .266 0 0 .266 0 0 .266 0 0 0 .266 0 0 0 0 0 .266 0 .266 0 0 0 .266 0 .266 0 0 .266 0 .266 0 0 0 .266 0 .266 0 0 0 .266 0 .266 0 0 0 .266 0 .266 0 0 0 .266 0 0 0 0 0 .266.266.532 0 .532 0 0-.267 0-.267-.266-.533h-.266c-.266 0-.266.267-.266.267v-.267.533s0-.267 0 0c0 0 0 .266.266 0-.266.266-.266.266-.266 0 0 .266 0 .266.266 0 0 .266.266.266 0 0z" fill="#1D1D1B"></path><path d="M85.324 58.548c.532 0 .532-.798 0-.798s-.532.798 0 .798zm.797 19.425c.266-1.064 1.33-1.863 1.064-3.193-.266-1.065-1.064-1.863-2.127-1.863-2.392-.266-3.19 2.395-1.86 3.992 0-.267.265-.533.265-.799-1.594.266-5.316.266-4.518 3.193.531 2.395 3.455 2.13 5.05.799-.266-.266-.532-.266-.797-.532 0 .798.265 1.33.531 1.862.266.266.532.266.798 0 .797-1.064 1.063-2.129.265-3.193-.265-.266-1.063-.266-.797.266.266.798.266 1.33-.266 2.129h.798c-.266-.532-.532-.798-.266-1.597 0-.266-.532-.532-.798-.532-.531.266-.797.532-1.329.798-.797.267-1.329 0-1.86-.266-.532-.532-.532-1.064 0-1.596.797-1.065 2.126-1.065 3.455-1.065.266 0 .266-.532.266-.798-.797-1.064-.266-2.661 1.33-2.661 1.594 0 1.594 1.597 1.062 2.661-.266.532-.797.798-.266 1.597-.265.798 0 .798 0 .798zm4.254 16.498c.797-1.33 1.063-3.46.265-5.056-.797-1.33-2.126-1.862-3.721-1.33-2.924 1.064-3.987 5.854-.266 6.652v-1.064c-1.329 0-1.86 1.33-.797 2.129 1.063 1.064 3.455 0 4.519-.799v-.266c-.532 0-.798 0-1.33.266-.265 0-.531.266-.797.266-.532.267-1.063.267-1.329-.532.532 0 .532-.798 0-1.064-3.19-.798-.532-6.12 1.86-4.79 2.127 1.065 1.33 3.726 1.596 5.588-.266 0 0 0 0 0zm6.91-30.07c-.531-.266-.266-.266-.797-.532-.266 0-.266 0-.532-.266-.797 0-.532-.532.266-1.065.266 0 .266-.266.266-.266-.266-1.33.797-3.459 2.658-3.193 2.392.532 1.861 3.46 0 4.524-.266.266-.266.532 0 .798h.531c.798 0 .798-.532.798.266.266.532 0 .799-.532.799h-2.657c-.532 0-.532.798 0 .798 1.328 0 4.252.266 4.784-1.597 0-.532 0-1.064-.532-1.33-.797-.532-1.595.532-2.392.266v.798c2.126-1.33 2.924-4.79 0-5.854-2.392-1.064-3.987 1.597-3.987 3.725l.265-.266c-.797 0-2.126.266-1.86 1.33 1.063 1.331 2.924 1.331 3.721 1.065.266.266.266 0 0 0zm7.177 14.903c-.265-.798-.531-1.597-.531-2.395v-1.33c.266-.799.266-1.065 1.063-1.065.797 0 .797.266.532 1.065 0 .266-.266.798-.266 1.064v1.597c0 .532.531.266.797 0 .532-1.33 1.595-1.863 2.924-1.33.798.531 1.595 2.128.532 2.66-1.329.532-3.456.266-5.051.266l.532.532c0-.532 0-1.064.266-1.862 0-.532-.798-.532-.798 0l-.531 2.129h.797c0-1.065 0-2.13-.266-3.194-.265-.532-.797-.266-.797 0 0 1.065 0 1.863.266 2.927 0 .267.266.267.531.267.532-.267 1.064-.267 1.329-.267.532 0 .532-.798 0-.798-.797 0-1.063 0-1.86.532-.266.266 0 .533.266.533h.265c.266 0 .266 0 .532-.267l.266-.532c-.266 0-.266.266 0 .266h.266v-.266h-.798v.799c.532-.267.798-.267 1.329-.267v-.798c-.531 0-1.063 0-1.595.266.266 0 .266.266.532.266-.266-.798-.266-1.862-.266-2.66h-.797c.266 1.064.531 1.862.266 2.927 0 .532.797.532.797 0 .266-.799.266-1.597.532-2.13h-.798c0 .533 0 1.065-.266 1.863 0 .266.266.266.266.533 2.127.266 7.709.798 6.38-2.928-1.064-2.66-4.519-2.394-5.317.267h.798c-.266-1.33.797-2.661.266-3.992-.266-.798-1.064-1.064-1.861-.798-2.658.798-2.127 4.79-.532 6.12-.265.266 0 0 0 0z" fill="#1D1D1B"></path><path d="M90.374 94.205v.532c.266-.266.266-.266 0-.532.266 0 0 0 0 0zm-4.518-15.699c0-.532-.532-1.065-1.33-1.065-.265 0-.265.266-.265.533.266.798.797 1.064 1.595 1.33v-.798h-1.064v.798c.532 0 1.33 0 1.861.266.266 0 .532 0 .532-.266-.266-.532-.532-1.064-.532-1.597-.266-.266-.797-.266-.532.267.266.532.266 1.33.798 1.596 0 0 .266 0 .266-.266s-.266-.532-.266-.798c-.266-.266-.266-.532-.266-1.065-.266 0-.532 0-.532.266.266.533.266 1.065.532 1.597.266 0 .266-.266.532-.532-.798-.266-1.595-.532-2.393-.266-.531 0-.266.798 0 .798.532 0 .798 0 1.33-.266.265-.266.265-.798-.266-.532-.532 0-.798-.266-.798-.799l-.266.533c.266-.266.798-.266 1.064.266zm20.999 18.36c-.266 0-1.595-.799-1.329-1.33h.797v.798h.798c0-1.33.265-2.661 1.329-3.46 1.329-.798 2.658-.266 2.924 1.33 0 .533.265.8.265 1.331 0 1.065-.797 1.33-1.86 1.597-.798.266-1.064 0-1.861.266-.266.266-.266.798 0 .798.532 0 1.063.266 1.595.266 0-.266-.266-.266-.266-.532-.532 0-.797.266-1.329.266-.266-.266-.532 0-.532.266.532 1.597 2.393 1.065 2.658-.266 0-.266 0-.532-.265-.532-.532 0-1.064-.266-1.595-.266v.798c1.329-.532 3.455 0 3.987-1.862.266-1.33 0-3.194-1.063-3.992-.798-.798-2.393-.798-3.456-.266-1.329.798-1.861 2.395-1.861 3.992 0 .532.798.532.798 0 0-.799.266-1.863-.532-2.662a1.283 1.283 0 00-1.86 0c-1.329 1.065.531 3.726 2.126 3.46.798.266.798 0 .532 0zm10.632-74.241c4.253 3.459 7.177 7.717 9.038 12.773 1.063 2.927 1.595 5.854 2.126 8.78.266 2.928.266 5.589.798 8.516 0 .266.265.266.265 0 .798-5.854-.265-12.507-2.392-18.095-1.861-4.79-4.785-9.58-9.303-12.24-.532-.533-.798 0-.532.266z" fill="#1D1D1B"></path><path d="M138.486 27.148c-1.063.799-1.861 2.13-2.924 3.194-1.063 1.33-2.392 2.395-3.455 3.725-1.595 2.129-2.924 4.524-2.924 7.45 0 .267.265.267.265 0 .532-2.926 2.393-5.853 4.253-7.982.798-1.065 1.861-2.129 2.924-3.193.532-1.065 1.595-2.13 1.861-3.194zm1.063 17.031c-.797.266-1.063 1.064-1.329 1.596-.531.799-1.329 1.597-1.86 2.395-1.329 1.33-2.658 2.661-3.722 3.992-2.126 2.927-2.924 6.386-3.721 9.846 0 .266.266.266.266 0 1.329-3.46 2.126-7.451 4.784-10.378 1.064-1.33 2.393-2.395 3.456-3.992.797-.798 2.126-2.129 2.126-3.46.266 0 0-.265 0 0zm-21.796 5.055c0 1.065.797 2.13 1.329 3.194.532 1.33 1.063 2.395 1.595 3.725 1.329 2.661 2.392 5.588 3.455 8.25.798 2.66 1.329 5.321 1.861 7.982.532 2.661.532 5.588 1.329 8.25 0 .265.532.265.532 0 .266-2.662-.266-5.855-.798-8.516-.531-2.661-1.063-5.322-2.126-7.983-.798-2.661-1.861-5.056-2.924-7.45-.532-1.331-1.329-2.662-1.861-4.258-1.063-.799-1.329-2.395-2.392-3.194zm-7.177 13.838c10.898 18.627 3.455 41.511 13.025 60.671.265.532.797 0 .531-.267-8.506-19.159-1.86-42.31-13.025-60.67-.265-.532-.797-.266-.531.266z" fill="#1D1D1B"></path><path d="M110.576 85.956c3.987 2.129 5.582 6.386 7.177 10.378-.798-4.258-2.392-9.314-6.911-10.91-.266 0-.532.266-.266.532z" fill="#1D1D1B"></path><path d="M115.626 90.48c.266 1.862 1.064 3.459 1.595 5.055.532 1.597.798 3.46 1.064 5.322 0-1.862-.266-3.459-.798-5.322-.266-1.862-.797-3.725-1.861-5.055 0-.267 0 0 0 0zm-4.784-4.257c.531-.532.531-1.064.797-1.863 0-.266-.532-.532-.532-.266l-.797 1.597c-.266.798.532 1.064.532.532.266-.532.265-1.33.531-1.863 0-.266-.531-.798-.797-.266-.532.799-.798 1.597-.798 2.395 0 .266.532.532.798.266 1.329-1.596 1.063-5.322-1.329-6.12-.798-.266-1.861 0-2.127.798-.531 1.065.532 2.129 1.064 2.927 0-.266.265-.532.265-.798-1.595 0-3.455.532-4.253 2.129-.797 1.33-.797 2.927.266 4.257 2.392 2.661 6.646-1.064 6.38-3.725 0-.532-.266-.798-.532-.532-.266.798-.797 1.596-1.063 2.129-.532.798-1.861 1.862-2.658 1.596-.798-.266-1.595-1.064-1.595-1.862 0-.533 0-1.065.266-1.597.797-1.064 2.126-1.597 3.455-1.597.532 0 .798-.532.266-.798-.532-.532-.797-.532-.532-1.33 0-1.065.266-1.065.798-.533.531.266.797.532.797.799.532 1.064.532 2.66-.266 3.459.266.532.532.532 1.064.266-.266-.532 0-1.064.531-1.597-.266 0-.531-.266-.797-.266 0 .532-.266 1.065-.266 1.597 0 .266.266.266.532.266.266-.798.265-1.064.531-1.597-.266 0-.531 0-.531-.266 0 .799-.266 1.33 0 1.863-.266 0 0 .266 0 0zm-.532-22.62c.266.266.532 0 .532-.532 0-.799-1.063-.532-1.329-.266s0 .798.266.798c.797-.266 1.594-1.065 1.594-1.863 0-.266-.265-.532-.531-.532a5.223 5.223 0 00-2.393 2.395c-.265.532.532.798.798.532.532-.798 1.329-1.33 1.861-2.129-.266-.266-.532-.532-.798-.532-.266.798-.531 1.33-.797 2.129-.266.532.531.798.797.532.798-.798 1.329-1.597 1.861-2.395.266-.532-.532-1.064-.798-.798-.797 1.064-1.594 1.863-2.392 3.193a.588.588 0 00.798.798c1.063-.798 2.126-1.596 2.658-2.927.266-.266 0-.798-.532-.798-.797 0-2.658.798-2.126 1.863.265.532.265.532.531.532.532-.266.532-.532.532-.798l-.266-.267c-.266 0-.266.267-.266.267s0-.267.266-.267c0 0 .266 0 .266.267v.532c0-.266.531-.266.531-.532.266-.267.532-.267.798-.267-.266-.266-.266-.532-.532-.798a6.278 6.278 0 01-2.126 2.395l.797.798c.532-1.064 1.329-2.128 2.127-2.927l-.798-.798c-.531.798-1.063 1.597-1.86 2.129.265.266.531.266.797.532.266-.798.532-1.33.797-2.129.266-.532-.531-.798-.797-.532-.532.798-1.329 1.33-1.861 2.129.266.266.532.266.798.532.266-.798.797-1.597 1.595-1.863l-.798-.266c0 .532-.266 1.065-.797 1.065 0 .266.266.532.266.798.265 0 .531-.266.531 0-.266-.266-.266 0 0 0z" fill="#1D1D1B"></path><path d="M111.639 61.475c1.329-.798 1.595-3.991.798-5.322-1.063-1.33-4.253-.798-5.051.533-.265.532-.531 1.064-.265 1.596 0 .266.797 1.065.797 1.065 0 .532-1.063.266-1.329.532-.532.266-1.063.532-1.063 1.33 0 .799 1.063 1.33 1.595 1.597v-.798c-.798.266-1.861.532-2.393 1.596-.266.799 0 1.597.532 2.13.797.531 2.658 0 3.721-.267.532-.266 1.064-.532.798-1.064 0-.267-.532-.267-.532 0 0 .532-2.126.532-2.392.532-.798 0-.532.266-.798-.799 0-1.064.266-.798 1.064-1.064.531 0 .531-.798 0-.798-.532-.266-1.064-.532-.532-1.065h.797c.266 0 .532 0 .798-.266.532-.532.266-1.064 0-1.596s-.798-.532-.266-1.33c.266-.8 2.127-1.597 2.924-1.065 2.126.798.532 2.927.797 4.523-.265 0 0 0 0 0z" fill="#1D1D1B"></path><path d="M110.044 44.977c4.519 8.25 6.646 17.297 7.709 26.61.797 8.515.266 17.03 1.329 25.546.532 4.257 1.861 9.313 4.785 12.506.265.267 1.063 0 .797-.532-1.063-1.863-2.126-3.725-2.924-5.854-.531-1.863-1.063-3.725-1.329-5.854a102.918 102.918 0 01-.797-12.773c-.266-8.781-.798-17.563-3.19-26.078a60.766 60.766 0 00-5.582-13.57c-.532-.533-.798-.267-.798 0z" fill="#1D1D1B"></path><path d="M110.576 45.51c0-.8 0-1.597.532-2.13.266-.532-.266-.798-.798-.532-.531.532-1.329 1.33-1.86 2.129.265.266.531.532.797.532a8.093 8.093 0 012.127-2.129c-.266-.266-.266-.532-.532-.798-1.063.798-1.861 1.597-2.392 2.661a.587.587 0 00.797.798c.798-.532 1.595-1.064 2.127-1.862.531-.533-.266-1.33-.798-.799-.531.532-1.063 1.33-1.329 2.13-.266.531.532 1.33.797.797l.798-.798h-.798c.532.532.798 1.33 1.064 1.863.266.532.266 1.064.531 1.596.266.266.532.266.532 0 .266-1.33-.532-2.927-1.063-3.991-.266-.266-.532-.532-.798 0l-.797.798.797.799c.266-.799.798-1.331 1.329-1.863a599.37 599.37 0 00-.797-.798c-.532.532-1.329 1.064-2.127 1.596l.798.798c.532-1.064 1.329-1.596 1.861-2.395.531-.532 0-1.064-.532-.798a5.216 5.216 0 00-2.392 2.395c-.266.532.531 1.065.797.532.532-.798 1.329-1.596 1.861-2.128-.266-.267-.532-.267-.798-.533-.531.799-.797 1.863-.266 2.661 0-.266.532-.266.532-.532z" fill="#1D1D1B"></path><path d="M108.45 43.113c-.532 1.33 0 2.661-.266 3.992-.532 2.129-3.722 3.46-5.051 1.064-1.063-2.128 1.064-2.66 2.393-3.725.797-.532 1.063-1.33 1.329-2.129 0-.266-.266-.532-.266-.532-2.126-.266-4.253-.798-5.582-2.661-1.595-2.395-.532-5.056 2.392-5.322 1.063-.266 2.393 0 3.456.532.797.532 1.063 1.597 1.86 2.395.532.798 1.33 1.33 2.393.532.797-.798 1.063-2.66 1.595-3.725 1.063-1.863 3.455-3.193 5.316-1.33 1.595 1.862.797 4.523-1.329 5.587-1.329.533-2.658.533-3.19 1.863-.266.266 0 .798.532.798 1.595 0 3.721 1.33 3.189 3.46-.265.798-.797 1.596-1.594 1.862-1.064.267-1.861-.532-2.393-1.064-1.063-1.33-2.658-3.193-4.784-1.863-.532.266-.266 1.065.265 1.065h2.393l-.532-.532c0 .266-.266.266-.266.532-.531.266.266 1.33.798.798.531-.266.797-.798.797-1.33 0-.267-.266-.533-.531-.533-1.329.266-2.127.266-2.924.266 0 .267 0 .799.265 1.065 1.861-1.33 3.456 2.395 5.051 2.927 1.329.532 2.658-.266 3.721-1.33 2.127-2.662-.797-5.855-3.721-5.855.266.266.266.532.532.798.531-1.064 1.594-1.064 2.392-1.33.797-.266 1.329-.798 1.861-1.33.797-1.065 1.329-2.395 1.063-3.726-.532-2.927-3.987-4.524-6.38-2.66-1.063.797-1.86 2.128-2.392 3.458 0 .267-.266 1.33-.532 1.33-.265.267-1.329-.265-1.595-.531-.265-.266-.265-.532-.265-.532-.532-.533-.798-1.331-1.595-1.597-2.392-1.597-6.911-.798-7.709 2.395-1.063 4.257 3.722 6.386 6.911 6.918 0-.266-.265-.266-.265-.532 0 2.129-3.456 2.129-3.988 4.258-.265 1.33.532 2.927 2.127 3.46 1.595.531 3.19 0 3.987-1.331 1.329-1.597.797-3.726.797-5.855 0-.266-.265-.266-.265 0z" fill="#1D1D1B"></path><path d="M109.513 40.187c-.266-.532-.798-.798-1.329-.798-.266 0-.532.266-.266.532s1.063.532 1.595.798v-.532z" fill="#1D1D1B"></path><path d="M109.247 40.986c.531 0 .531-.799 0-.799-.532-.266-.532.799 0 .799z" fill="#1D1D1B"></path><path d="M108.981 40.454v.266c0 .266.266.532.532.266 0 0 .265 0 .265-.266.266-.266 0-.532 0-.798h-.265c-.266.266-.532.266-.532.532zm2.658-1.064c-.266.532-.531.798-.797 1.064s-.798.266-.798.798v.267c.532.266.798-.267 1.329-.533.266-.266.798-.798.798-1.33.532-.532-.266-.798-.532-.266z" fill="#1D1D1B"></path><path d="M110.044 39.39c-.265.532-.531.798-1.063 1.064-.266.266 0 .532.266.532s.532-.266.797-.532c.266-.266.532-.532.532-.798.266-.267-.266-.533-.532-.267z" fill="#1D1D1B"></path><path d="M110.045 39.655c-.266-.266-.532-.266-.798 0s-.266.532 0 .532c0 .266.266.532.266.798s.266.532.532.266c.265-.266 0-.532 0-.798s-.266-.266-.266-.532v-.266h.266c-.266.266 0 0 0 0z" fill="#1D1D1B"></path><path d="M107.918 41.783c.531 0 1.063.266 1.329 0 .531 0 .797-.266 1.063-.798 0-.266 0-.266-.266-.266s-.531.266-1.063.266c-.266 0-.797.266-1.063 0-.266.266-.532.798 0 .798z" fill="#1D1D1B"></path><path d="M108.981 42.848c.798-.266 1.329-.798 1.329-1.597 0-.266-.531-.532-.531-.266-.266.532-.532 1.065-1.063 1.33-.266 0 0 .533.265.533z" fill="#1D1D1B"></path><path d="M110.31 42.315l.532-.532c.266-.266.265-.532.265-.532-.265-.266-.531 0-.531.266l-.532.532c-.531 0 0 .532.266.266z" fill="#1D1D1B"></path><path d="M110.045 41.784c.265 0 .265.266.531.266s.266.266.532.266.531-.266.266-.532c-.266 0-.532-.266-.532-.266-.266 0-.532 0-.532-.266-.265 0-.531.266-.265.532z" fill="#1D1D1B"></path><path d="M110.31 40.718c.266.266.532.799.798 1.065.265.266.531 0 .265-.266 0-.266-.265-.799-.531-1.065 0-.532-.798 0-.532.266z" fill="#1D1D1B"></path><path d="M110.842 41.519c.266 0 .266 0 0 0l.266.266h.266v-.266s0-.267-.266-.267l-.266-.266h-.266c.266 0 .266.266.266.533 0-.267 0 0 0 0zm21.796 65.991c-.797 1.065-1.063 2.661-1.86 3.726-.798 1.33-1.861 2.395-2.924 3.459a12.61 12.61 0 00-2.659 2.661c-1.063 1.33-1.063 2.661-1.594 4.258 0 .266.265.266.265 0 .532-1.597 1.595-3.46 2.659-4.79 1.063-1.065 2.126-1.863 3.189-2.927 1.329-1.597 3.456-4.258 3.19-6.653 0 .266-.266.266-.266.266zm19.139-30.601c-7.975 7.45-11.962 18.626-14.886 29.004-1.595 6.121-2.658 12.241-4.253 18.627-1.329 6.121-3.455 11.709-5.316 17.829-1.861 6.12-3.721 12.773-2.658 19.425 0 .266.266 0 .266 0 .266-6.12 1.329-11.708 2.924-17.562 1.595-5.588 3.721-11.177 5.316-17.031 2.924-11.442 4.519-23.416 9.303-34.327 2.393-5.588 5.582-10.643 9.835-15.433.266-.266 0-.799-.531-.532z" fill="#1D1D1B"></path><path d="M155.764 93.673s.266 0 0 0c.266 0 .266 0 0 0 .266-.266.266-.266.266-.532l-.266-.266c-.798.266-1.063 1.33-1.595 1.863-.797 1.064-1.861 1.862-2.924 2.66-2.126 1.331-4.519 2.396-6.645 3.726-4.253 2.395-7.709 5.588-9.304 10.378 0 .266.266.266.266 0 1.861-4.524 6.38-7.717 10.633-10.112 1.86-1.064 3.987-2.129 5.848-3.46.797-.531 1.594-1.33 2.392-2.128.266-.266.531-.798.797-1.064 0 .266.798-1.33.532-1.065 0-.266 0 0 0 0z" fill="#1D1D1B"></path><path d="M155.764 93.672c.266-.532-.532-.798-1.063-.798-.266 0-.532.266-.266.266 0 .799.532 1.597 1.063 2.13.266.265.798 0 .798-.267 0-.798-.266-1.597-.798-2.129-.266-.266-.797-.266-.797 0-.266.532 0 1.33.531 1.597.532.532 1.064.266 1.329-.266.266-.532 0-1.33-.797-1.597-.797-.266-1.861-.266-2.658 0-.532 0-.798.798-.266 1.064.798.533 1.861.533 2.924 0 .266 0 .266-.266 0-.532s-.532-.532-.797-.532c-.532-.266-1.064.798-.532 1.064h1.329c.266 0 .266-.266.266-.532 0-.532 0-.798-.266-1.064-.532-.532-1.063 0-.797.532.265.798.797 1.33 1.063 2.129l.797-.798-.797-.799c0-.266-.266-.266-.532-.266s-.266 0-.266.266c-.265.266-.265.532 0 .532.266.533.798.799 1.064 1.331a.588.588 0 00.797-.798c-.266-.799-.797-1.33-1.063-2.13-.266.267-.532.533-.798.533v.266l.532-.266h-.266c-.266.266-.266.798-.531 1.064 0-.266.265-.532.265-.798-.531.266-1.329.266-1.86 0v1.065h1.86l.532.266v-.532c-.266 0-.532-.267-.266-.533h-.797c.266.532.531 1.065.531 1.597l.798-.266c-.532-.532-.798-.799-.798-1.597 0 .266-.265.266-.265.532.265 0 .265.266.797.266z" fill="#1D1D1B"></path><path d="M155.764 92.609c-.532-.532-1.063-.798-1.861-1.33-.531-.267-1.329-.533-1.594-1.065-.266-1.33 0-1.863.797-1.863.532 0 1.063 0 1.329.267 1.063.532 1.329 1.596 1.063 2.66 0 .533.532.799.798.267a3.198 3.198 0 011.329-1.33c1.329-.8 2.924.531 1.063 1.596-.797.532-1.861.532-2.658 1.064-.266.266-.266.532-.266.798l.797.799c.266.266.798.266.798.532h-.532c0-.266 0-.266-.266-.532.532-.532.266-1.33-.797-1.863-.532-.266-1.063.266-.532.532.532.532 1.064 1.065 1.329 1.597.266.532.266 1.064.798 1.596.266.533 1.063.799 1.595.533.531-.267.797-.799.531-1.33-.265-1.331-1.329-1.598-2.126-2.396 0 .266 0 .532-.266.798 1.063-.798 5.582-1.596 3.721-3.991-1.594-1.863-3.721 0-4.784 1.33l.797.267c.266-2.661-2.126-5.322-4.784-3.992-1.063.532-1.329 1.597-.798 2.661.532 1.597 2.924 2.395 4.253 3.193.532.266.798-.532.266-.798zm-22.86 16.232c0-.533 0-1.065-.266-1.597-.266.266-.531.266-.531.532.266 0 .531.266.797.532.532.267.798-.266.532-.798-.266-.266-.532-.532-.798-.532-.266-.266-.797 0-.797.532 0 .798.531 1.331 1.329 1.331.266 0 .531-.266.531-.799-.531-.798-1.329-1.064-2.126-1.33-.797-.266-1.329-.798-1.063-1.597.266-1.064 1.329-1.064 2.126-1.064l-.266-.266c.266.798.266 1.33 0 2.129h1.064c.266-.533.531-.533.797.532 0 .266-.266.532-.532.798-.265.266-.797.532-1.063.798-.531.266-.266.799.266.799 1.329-.266 3.19-1.863 2.127-3.46-.798-1.064-2.659-.532-2.659.799 0 .532.798.798 1.064.266.266-.799.266-1.597 0-2.661 0-.266-.266-.266-.266-.266-1.595-.266-3.456.532-3.456 2.395 0 .798.266 1.33.798 1.862.797.532 2.126.266 2.392 1.065.266-.266.266-.533.532-.799l-.266-.266c-.266.266-.532.266-.798.532.266 0 .532.267.532.533.266-.266.266-.533.532-.799-.266 0-.532-.266-.798-.266s-.531.266-.531.532c0-.266.265.267.797.533 0 .266 0 .266 0 0zm19.67-31.134c-.532-.266-.797-.266-1.329 0-.797 0-.532 1.065 0 .799.797-.267 1.595-.267 2.392-.533 0-.266-.265-.532-.265-1.064l-2.393.798c.266.266.266.532.532.799.797-.533 1.329-1.331 1.329-2.395 0-.533-.532-.799-1.063-.533-.532.533-.798 1.33-.798 2.13h1.595c-.266-.533-.532-1.331-.532-2.13 0-.532-.797-.532-1.063 0-.266 1.065 0 1.863 1.063 2.395 0-.266.266-.532.266-1.064-2.658-.798-1.329-4.258.798-4.79.266 0 1.063-.266 1.329 0 .797.798 0 1.064-.266 1.33-.266.267-.797.533-.797 1.065v.532c.265.266.531.532 1.063.798.266 0 .531.267 1.063.267.797.266.797 0 .266.798-.266 1.064-.266.798-.798.266-.265-.266-.531-.532-.797-.532-.532-.266-1.329-.532-1.861-.799-.531 0-.797.533-.266.799.532.266 1.329.532 1.861 1.064.532.266 1.063.799 1.595 1.065.797.266 1.595 0 2.126-.799.532-.798.266-1.596-.265-2.129-.798-.798-2.393-.532-3.19-1.33v.532c.532-1.064 2.392-1.596 1.861-2.927-.532-1.33-2.393-1.33-3.456-.798-3.19 1.064-3.721 5.322-.532 6.652.532.266.798-.532.266-1.064-.266-.266-.266-.798-.531-1.065h-1.064c0 .799.266 1.597.266 2.395 0 .533.798.533 1.063 0 .266-.798.532-1.33.798-1.862-.266-.266-.532-.266-1.063-.532-.266.798-.532 1.33-1.064 1.862-.531.266 0 1.065.532.799a33.41 33.41 0 012.658-.799c.532-.266.266-1.064-.266-1.064-.797 0-1.595.266-2.658.532 0 .266.266.532.266.798.266-.266.532-.266 1.063-.266.532.266.266 0 .266 0zm-27.644 32.198c2.392-4.524 4.253-9.048 5.848-13.838 1.595-5.056 2.658-10.111 4.519-14.901 3.189-9.58 7.176-18.893 11.961-27.675 1.329-2.395 2.658-4.79 3.987-6.918 1.329-2.129 2.924-5.588 5.316-6.653.532 0 .532-.532.266-1.064-.797-.798-1.329-1.065-2.392-1.33-.532 0-1.063.532-.532.798.798 1.064 1.595 2.129 2.924 2.66.532.267 1.329-.532.532-1.064-.532-.532-1.329-.798-1.861-1.33 0 .266 0 .798-.266 1.064.798-.266 1.329 0 1.861.532.266-.266.266-.798.532-1.064-1.064-.532-1.861-.798-2.924-.266-.266.266-.266.798 0 .798.797 0 1.595.266 2.392.532.798.267 1.329-.532.532-1.064-.798-.532-1.861-.798-2.924-.532-.532 0-.532.798-.266 1.064.532.532 1.329.798 1.861 1.33.265-.265.265-.798.531-1.064a5.22 5.22 0 01-2.392-2.395c-.266.267-.532.533-.532.799.798.266 1.329.532 1.861 1.064v-.798c-1.861.798-2.924 2.395-3.987 3.991l-3.987 6.387a167.114 167.114 0 00-7.177 13.57c-4.519 9.58-7.443 19.16-10.367 29.272-1.595 5.854-3.987 11.708-6.379 17.296.531.798.797 1.065 1.063.799z" fill="#1D1D1B"></path><path d="M156.296 38.591c-.798-2.395-3.721-.532-5.316-.532-1.064 0-2.658-1.064-2.393-2.395.266-.798 1.329-1.064 2.127-1.33 1.595-.267 3.455.266 5.05.798.532.266.798-.532.532-.798-.798-1.33-1.329-2.661-1.063-4.258.531-1.597 2.392-2.927 3.987-1.863 2.126 1.33-.532 3.992 0 5.855 0 .266.531.532.797.266 1.329-.799 2.658-1.597 3.987-1.863 1.595-.266 3.456.266 3.988 1.863.531 1.596-.532 3.193-2.127 3.991-1.595.798-3.455.532-5.05 0-.532 0-1.064.532-.798.798.798 1.065 1.329 2.13 1.595 3.46 0 1.33-.531 2.927-1.861 3.193-3.189.266-1.86-4.79-1.329-6.12.266-.533-.797-1.065-1.063-.533-1.063 2.395-1.861 8.25 2.392 7.983 1.595-.266 2.659-1.33 2.924-2.927.532-1.862-.531-3.725-1.594-5.322l-.798.799c2.127.532 4.785.798 6.911-.533 1.329-1.064 2.392-2.66 1.861-4.257-.266-1.863-1.861-2.927-3.721-3.193-2.393-.533-4.519.798-6.38 2.128.266 0 .532.267.797.267-.531-1.863 1.595-3.194.798-5.056-.532-1.33-2.127-2.13-3.456-2.13-1.329.267-2.658 1.331-3.189 2.662-.798 1.863 0 3.991 1.063 5.322.266-.266.531-.532.531-.798-2.126-.799-7.974-2.13-8.506 1.596-.265 1.33.798 2.395 1.861 2.927.798.266 1.861.266 2.658.266 1.064-.266 2.658-1.33 3.722-.266.797.266 1.063.266 1.063 0z" fill="#1D1D1B"></path><path d="M158.422 36.728c-.266-.266-.531-.799-.797-1.065-.266-.266-.532-.532-1.064-.266 0 0-.265 0 0 .266 0 .267.532.533.798.799s.797.532 1.063.798c-.266 0 .266-.266 0-.532z" fill="#1D1D1B"></path><path d="M158.157 37.26c.531 0 .531-.8 0-.8-.532 0-.532.8 0 .8z" fill="#1D1D1B"></path><path d="M157.891 36.462v.533c0 .266 0 .266.265.266 0 0 .266 0 0 0h.266c.266 0 .266-.267.266-.267 0-.266.266-.532 0-.798s-.797 0-.797.266z" fill="#1D1D1B"></path><path d="M158.954 35.13c-.798.267-1.595.8-1.595 1.597 0 .267.266.267.531.267.266-.533.798-1.065 1.33-1.065.265-.266.265-.798-.266-.798z" fill="#1D1D1B"></path><path d="M158.953 36.462c.266 0 .266.266.266.266h.266v-.532l-.266-.266h-.266c-.266.266-.266.266 0 .532-.266 0-.266 0 0 0zm-1.86.799l.532.532.531.532c.266 0 .798-.266.532-.532l-.532-.532c-.266-.266-.531-.266-.531-.532-.266-.266-.798.266-.532.532z" fill="#1D1D1B"></path><path d="M157.359 36.46c-.532.267-1.064.8-1.064 1.331 0 .267.532.267.532 0 .266-.266.266-.798.532-.798.531-.266.266-.532 0-.532zm-.798 3.462c-.531.266-1.329.266-1.86.532-.266 0 0 .266 0 .266.531 0 1.329-.266 1.86-.266.532-.266.266-.532 0-.532zm3.721 14.634c-.531-1.065-3.189-1.065-4.253-.799-1.86 0-3.987.532-5.847 1.065-2.924 1.064-7.177 3.459-8.241 6.652 0 0 0 .266.266 0 1.329-1.064 2.393-2.66 3.987-3.725 1.329-1.065 2.924-1.863 4.785-2.395 1.595-.532 3.456-.798 5.05-.798h2.659c.531.532 1.063.798 1.594 0 0 .266 0 .266 0 0zm-7.974 10.911c-3.721.532-7.974 2.927-11.164 5.056-2.924 2.129-5.582 4.79-6.645 7.983 0 0 .266.266.266 0 1.861-3.194 4.253-5.855 7.177-7.983 1.329-1.065 2.924-1.863 4.519-2.395 1.86-.799 3.987-1.33 5.847-2.129.532 0 .532-.532 0-.532zm-17.809 1.597c-1.861 3.193-2.126 7.45-2.392 10.91-.266 3.991-.798 8.249-1.329 12.24 0 .266.266.266.266 0 1.329-3.46 1.329-7.45 1.594-10.91.266-2.129.266-3.991.532-6.12s1.063-3.992 1.595-6.12c.266 0-.266-.266-.266 0zm7.177 16.232c-1.329.798-2.392 2.129-3.721 3.193-1.329 1.065-2.392 2.129-3.722 3.193-1.86 1.597-4.253 3.992-4.253 6.387 0 .266.266.266.266 0 .798-1.33 1.329-2.661 2.393-3.726.797-1.064 2.126-1.862 3.189-2.927 1.064-.798 2.127-1.862 3.19-2.66.797-1.065 2.127-2.13 2.658-3.46.266 0 0-.266 0 0z" fill="#1D1D1B"></path><path d="M131.841 86.489c-.532 1.33-.798 2.66-1.329 3.991-.266 1.064-.798 2.395-.798 3.725 0 .267.266.267.266 0 .532-1.064.798-2.66 1.063-3.725.798-1.33 1.064-2.66.798-3.991.266-.267.266-.267 0 0zm2.127-18.095c.797-.532 1.86-.798 2.924-1.33.265-.267.265-.533 0-.799-.798-.532-1.595-.532-2.393-.266-.266 0-.531.532-.266.798.266 0 .266.266.532.266 0-.266.266-.532.266-.798-.532 0-1.329.266-1.861.266-.531 0-.266.798 0 .798h1.595c.532 0 .797-.266 1.063-.798v-.266h-2.392v.798c.532 0 1.329-.266 1.861-.266.265 0 .531-.532.265-.798-.265 0-.265-.266-.531-.532 0 .266-.266.532-.266.798.532 0 1.063 0 1.595.266v-.798c-.798.532-1.595 1.064-2.658 1.596 0 1.065.266 1.331.266 1.065z" fill="#1D1D1B"></path><path d="M136.626 66.798c3.455-.798 4.784-7.717 1.329-9.314-1.329-.798-3.19 0-4.253 1.065-1.329 1.596-1.064 3.991 0 5.588.265.532 1.063.266 1.063-.266-.532-1.33-2.392-2.129-3.19-.798-.266.532-.531 1.33-.266 1.862.266.532 2.659 1.597 2.127 2.395-.266.266 0 .532.266.532.531-.266.797-.532.531-1.33 0-.266-.266-.532-.531-.798 0-.266-.266-.267-.266-.267l-.266-.266c-.532-.266-.266-.532.532-1.064.265 0 .531-.266 1.063-.266-.797-1.33-1.329-2.927-.266-4.258.798-1.33 3.19-1.862 4.253-.266 1.595 2.395-.266 5.588-2.126 7.185-.532 0-.266.266 0 .266zm3.987 17.029c.531-.266 1.063-.266 1.329.266.265-.266.265-.532.531-.798-.531-.266-1.063-.532-1.329-1.065-.266.266-.531.266-.797.533l.797.798c.266.266.532.266.798 0 .265-.266.265-.266 0-.532-.266-.799-.798-.532-1.595-.532-.266 0-.532.266-.532.266 0 .532-.266 1.064-.266 1.862 0 .532.532.799.798.266.266-.532.531-.798 1.063-.798-.266-.266-.266-.532-.532-.798-.265.532-.797.798-1.063 1.064-.266.266-.266 1.065.266.799.797-.267 1.329-.533 2.126-.799.266 0 .532-.798 0-.798-.531 0-1.063-.266-1.329-.266 0 .266.266.266.266.532.266-1.33.266-2.661.532-3.992.266-.798.531-1.596 1.329-1.862 1.063-.532 2.126 0 2.126 1.33.266 3.992-3.721 2.927-5.847 4.258-.266 0-.266.532 0 .532 1.594.266 4.252-.266 5.582-1.597 1.063-1.064 1.594-3.725.531-5.055-.797-1.065-2.658-1.065-3.721-.267-1.861 1.597-1.063 4.258-1.595 6.387 0 .266 0 .266.266.532.531.266.797.266 1.329.266v-.798c-.798.266-1.329.532-2.127.798 0 .266.266.532.266.799.532-.267.798-.799 1.329-1.331.266-.266 0-1.064-.531-.798-.798.266-1.329.532-1.861 1.33.266 0 .532.266.797.266 0-.532.266-1.064.266-1.862-.266 0-.266.266-.531.266h.797v-.532h.797a599.37 599.37 0 00-.797-.799c-.266-.266-1.063 0-.797.532.531.799 1.063 1.33 1.86 1.597.532.266.798-.532.532-.798-.532-.532-1.329-1.065-1.861-.532 0 .798 0 1.33.798 1.33-.266.532 0 .266 0 0zm11.164-17.296c0-.266.265-.532.531-.532h.798c-.532-2.129-2.393-.799-1.595.266.266.266.531.266.797 0 .266-.532.266-.799.532-1.33h-.798v.531c.266 0 .532-.265.798-.265-.532-2.928 5.582-3.726 5.582-.533 0 .799-.266 1.065-1.063 1.33-.798.267-1.064 0-1.595-.265-.532-.266-1.063-.266-1.595-.532-.532 0-.798.532-.266.798h-.532c0-.266-.265-.532-.265-.532l-.532-.533c-.266-.266-1.063 0-.797.532.531.799 1.329 2.928 2.658 2.395 1.329-.532.797-1.862 0-2.395l-.266.799c1.595.266 2.924 1.862 4.519.266 1.063-1.064 1.063-2.661 0-3.725-2.127-2.395-7.443-.799-6.911 2.66 0 .533 1.063.267.797-.265v-.533c0-.532-.797-.532-.797 0s-.266.799-.266 1.33h.797v.799c0 .532.798.532.798 0 .531-1.863-2.659-1.596-1.861.266.266-.266.532-.266.532-.532zm6.911-11.975c.531.799 1.595 1.065 2.392 1.597.266.266.797-.266.797-.532-.265-.798-.531-1.597-1.329-2.129-.265.266-.265.532-.531.798l1.595.799c.265-.266.265-.532.531-.799-.797-.266-1.595-.798-2.392-1.064 0 .266-.266.532-.266.798h2.924c.532 0 .532-.798 0-.798-.797-.266-1.861.266-1.861 1.064 0 .533.532.799.798.267.797-1.331 2.658-2.395 4.253-1.863.531.266.797.532 1.063.798.532.798.532.798.266 1.863-.266.798-.532 1.064-1.329 1.064-.532 0-1.329 0-1.595-.532-.532-.532-1.329 0-1.063.532-.798 1.065-1.329 1.065-1.064 0v-1.064c0-.532-.265-1.065-.265-1.597s-.798-.266-.798 0c0 1.597-.531 4.524 1.595 4.79 1.595.266 2.392-1.597 1.595-2.927l-1.063.532c1.86 2.661 6.645.798 5.316-2.66-.532-1.331-2.127-2.13-3.721-2.13-1.595 0-2.924 1.065-3.988 2.661.266 0 .532.266.798.266.266-.266.531-.266.797-.532v-.798h-2.924c-.531 0-.797.798-.265.798.797.266 1.594.798 2.392 1.065.532.266 1.063-.533.531-.799l-1.594-.798c-.532-.266-1.064.266-.532.798s.797 1.065 1.063 1.597c.266-.266.532-.266.798-.532-.798-.532-1.595-1.065-2.393-1.33-.531.265-.797.531-.531.797zm-21.531-7.184c1.861-.266 2.392-2.395 2.658-3.992h-1.063c.266.533.266.799.531 1.331.266 0 .532-.266.798-.266v-1.33h-.798c.266.265.266.532.532 1.064.266-.266.532-.266.798-.532-.532-.267-.798-.533-1.33-.533-.531 0-.797.799-.265 1.065.531.266.797.532 1.329.798.531.266.797-.266.797-.798-.531-.799-.797-1.33-.797-2.129v-1.33c.531-.799.797-1.065.797-.267 0 .266.532.533.798.266 1.063-.532 3.189-1.33 3.455.533 0 1.33-1.063 2.128-2.126 2.395-1.329.266-2.924-.533-3.988.532-.265.266.001.798.532.798 1.595-.266 3.19.266 4.785-.532 1.063-.532 1.86-1.33 2.126-2.661.266-1.065-.266-1.863-1.063-2.661-1.329-.798-2.924 0-3.987.532.266 0 .531.266.797.266v-.798c0-.266-.266-.266-.266-.266-1.063-.266-1.86.266-2.126 1.33-.532 1.597 0 3.194.797 4.524l.798-.798c-.532-.266-.798-.532-1.329-.799l-.266 1.065c.266 0 .532.266.797.266.532.266.798-.266.798-.532 0-.532-.266-1.065-.798-1.597-.265-.266-.531-.266-.797 0-.532.798-.532 1.597 0 2.129.266.532 1.063.266.797-.266-.265-.532-.265-.799-.531-1.33-.266-.533-1.064-.533-1.064 0 0 .798-.265 1.596-.531 2.394-.266.532-.798.798-1.063 1.33-.798.533-.798.799-.532.799z" fill="#1D1D1B"></path><path d="M139.549 44.178c-1.329.798-2.392 1.862-3.19 2.927-1.063 1.064-2.126 2.129-2.658 3.46-.265.265.266.531.532.265 1.063-1.064 2.127-2.395 2.924-3.46 1.063-1.063 1.861-1.862 2.924-3.192 0 .266-.532 0-.532 0zm-2.126-15.166c1.329-.799 1.595-2.661 1.595-4.258-.266.266-.532.266-.798.532.532.266 1.064.532 1.33.799.531.266 1.063 0 .797-.533-.266-.532-.532-.798-1.063-.798-.532-.266-.798.532-.532.798.266.533.798 1.33 1.063 1.863l.798-.798c-.532-.532-1.329-.799-1.861-1.065 0 .267-.266.799-.266 1.065.532 0 .798.266 1.329.266.532 0 1.064-.798.532-1.064-.532-.267-.798-.267-1.329-.533.266.266.266.532.532.799.265-1.597.531-3.194 1.063-4.524 0-.266.266-.266.266-.532l1.329.532c.265.266-.532 1.064-.798 1.33-.266.533-.531.533-.531 1.065 0 .532.265.798.531.798 1.063 0 1.861-.266 2.658-.266 1.595-.266 2.924 1.33 1.595 2.661-1.329 1.33-3.19.532-4.253-.532-.797-.532-1.329-1.597-2.126-2.129-.266-.266-.532 0-.532.532.798 2.927 6.114 5.854 8.24 2.395.532-1.064.532-2.66-.266-3.46-1.329-1.33-3.455 0-5.05-.265l.532.532c0-.532.797-1.065 1.063-1.597.266-.532.266-1.064.266-1.33-.266-.799-.798-1.597-1.861-1.597-2.658-.266-3.19 4.524-3.456 6.12 0 .267.266.799.532.799s.532.266.798.266l.531-1.064c-.531 0-.797-.267-1.329-.267-.797-.266-1.063.799-.266 1.065l1.595.798a.588.588 0 00.798-.798c-.266-.532-.798-1.33-1.064-1.863l-.531.798c.265 0 .531.267.531.533l.532-.799-1.595-.798c-.266 0-.797 0-.797.532.265 1.597-.266 2.661-.798 3.992h.266zm-17.81-5.323c0-1.064-1.063-1.33-.265-2.661.265-.266 0-.532-.266-.798-1.063-.266-1.861.532-1.861 1.596 0 .532.798.532 1.063 0 0-.266.266-.532.532-1.064s-.532-.798-.797-.532c-.798 1.064-1.329 1.862-1.595 3.193-.266.532.797.798 1.063.266.266-.798.532-1.597 1.063-2.129.266-.266.798-.532 1.063-1.064.266-.798 0-1.863 0-2.661-.531-1.863-2.126-3.726-3.987-3.726-1.595 0-3.189 1.065-3.189 2.928 0 1.862 1.86 3.193 3.455 3.725 0-.266 0-.532-.266-.532-.797 1.064-3.455 3.193-1.329 4.257 1.329.799 3.456.266 3.987-1.064.266-.266-.265-.798-.531-.532-.532.532-1.861 1.596-2.658 1.064-.266-.532-.266-1.064-.532-1.596 0-.267.266-.267.266-.533.266-.532.797-.798 1.063-1.33.266-.266 0-.532-.266-.532-1.595-.533-3.987-2.13-2.392-3.992 1.329-1.596 3.721-.798 4.785.798.531.533.797 1.597.797 2.395 0 .799-.532 1.065-1.063 1.597-.532.798-1.063 1.596-1.329 2.395l1.063.266c.266-1.064.797-1.863 1.329-2.661-.266-.266-.532-.532-.797-.532-.266.266-.266.532-.532 1.064.266 0 .532.266 1.063.266.266-.266.532-.266.798-.532 0-.266-.266-.532-.266-.798-.532 1.064-.532 2.395.531 3.193 0 0 .266.266.532 0-.797.266-.797.266-.532.266zm10.101-10.645h.532v-.798c-1.063.532-1.861 1.33-2.924 2.129-.797.532-2.126 1.064-2.924.266-.531-.532-.531-1.597 0-2.129.798-1.33 2.127-.798 3.456-1.33.531-.267.797-.799.797-1.331 0-.532-.531-1.064-.797-1.597-1.063-.798-2.127-1.33-2.392-2.927-.266-1.862 1.329-3.459 3.189-2.927 1.595.532 2.658 1.863 3.456 3.193.266.266.797.266.797 0a9.174 9.174 0 013.19-3.193c1.595-.798 3.987-.798 4.785 1.33.531 1.597-.266 3.194-1.329 3.992-.798.532-1.595 1.065-2.659 1.33-.531.267-1.063.267-1.329.533-.531.266-.797.798-.265 1.33.265.267.531.267.797.533 1.063.532 1.861 1.064 1.861 2.128 0 1.065-.532 2.13-1.595 2.395-1.063.266-1.861-.532-2.393-1.064-1.063-1.065-2.126-1.863-3.455-2.395-.532 0-.798.266-.798.532-.265.532-.265 1.065.266 1.597.532.532 1.329-.266.798-.799v-.532c-.266 0-.532.266-.798.266a11.763 11.763 0 012.924 2.13c.532.531 1.064 1.33 1.861 1.596 1.329.532 2.924 0 3.721-1.33.798-1.331.798-2.928-.266-3.992 0-.266-1.86-1.597-1.86-1.33 0 0 2.658-1.065 2.924-1.331 2.392-1.597 4.253-5.322 1.595-7.717-2.924-2.395-7.177.798-8.506 3.46h.797c-1.595-2.13-4.519-5.323-7.443-2.928a3.466 3.466 0 00-1.329 3.46c0 .798.532 1.33.798 2.128.531.532 1.329.798 1.595 1.33.797 1.331-.798 1.065-1.595 1.331-.532.266-1.329.532-1.595 1.065-.798.798-1.063 2.128-.266 3.193 1.861 3.46 5.848-.532 7.443-1.863.266-.266-.266-1.064-.532-.532-.266.266-.532.532-.532.798z" fill="#1D1D1B"></path><path d="M130.512 7.722s-.266 0-.266-.266-.532 0-.532.266c.266.798 1.064 1.597 1.595 2.129.266.266.798 0 .532-.532-.266-.266-.532-.799-.798-1.065-.265-.266-.531-.798-1.063-.798v.532s.266 0 .532-.266c0 .532 0 .266 0 0z" fill="#1D1D1B"></path><path d="M131.575 7.457c0 .532 0 .798-.265 1.064 0 .266-.266.532 0 .798h.265c.798-.266.798-1.596.798-2.129 0-.266-.798-.266-.798.267z" fill="#1D1D1B"></path><path d="M132.904 7.457c-.266.266-.797.532-1.063 1.065-.266.266-.532.798-.266 1.064h.266c.266-.266.266-.532.531-.798l.798-.799c.532-.266.266-.798-.266-.532z" fill="#1D1D1B"></path><path d="M131.841 9.32c.266.266.532.266.797.532l.266.266s.266 0 .266.266c.266 0 .266 0 .266-.266 0 0 0-.266-.266-.266l-.266-.266c-.266-.266-.531-.266-.797-.532-.266-.532-.532 0-.266.266z" fill="#1D1D1B"></path><path d="M131.31 9.32v1.862c0 .266.265.266.265 0 .266-.532.266-1.33.266-1.863.266-.532-.266-.532-.531 0z" fill="#1D1D1B"></path><path d="M131.309 9.585l-.266.266.266-.266c.266 0 0-.266 0 0z" fill="#1D1D1B"></path><path d="M131.309 10.119c.266.266.266.266 0 0 .266.266.532.266.532 0v-.266s0-.267-.266-.267l-.266-.266h-.266v.266l.266.533zm-1.063.796h1.063s.266-.266 0-.266c-.265 0-.265-.266-.531-.266s-.266 0-.532-.266c-.266 0-.266.532 0 .798z" fill="#1D1D1B"></path></svg> 