<?xml version="1.0" encoding="UTF-8"?> <svg xmlns="http://www.w3.org/2000/svg" width="18" height="18" fill="none"><path fill-rule="evenodd" clip-rule="evenodd" d="M9 0a9 9 0 100 18A9 9 0 009 0zM4.32 7.454h2.04v6.128H4.32V7.454zM6.496 5.56C6.48 4.958 6.052 4.5 5.354 4.5S4.2 4.958 4.2 5.559c0 .588.443 1.059 1.127 1.059h.013c.712 0 1.155-.471 1.155-1.06zm4.872 1.751c1.343 0 2.349.876 2.349 2.759v3.513h-2.04v-3.278c0-.824-.295-1.386-1.033-1.386-.564 0-.9.38-1.047.745-.054.131-.067.314-.067.497v3.422H7.49s.027-5.553 0-6.128h2.04v.868c.27-.417.755-1.012 1.838-1.012z" fill="#000"></path></svg> 