<svg width="30" height="30" fill="none" xmlns="http://www.w3.org/2000/svg"><path d="M27.13 25.822H2.87a2.643 2.643 0 01-2.64-2.64V6.818a2.643 2.643 0 012.64-2.64h24.26a2.643 2.643 0 012.64 2.64v16.363a2.643 2.643 0 01-2.64 2.641zM2.87 4.835c-1.093 0-1.983.89-1.983 1.983v16.363c0 1.094.89 1.984 1.984 1.984H27.13c1.094 0 1.984-.89 1.984-1.984V6.818c0-1.094-.89-1.983-1.984-1.983H2.87z" fill="#000"/><path d="M15 18.084a.328.328 0 01-.221-.087L1.062 5.413a.328.328 0 11.443-.484l13.496 12.38L28.496 4.93a.328.328 0 11.444.484L15.222 17.997a.328.328 0 01-.221.087z" fill="#000"/><path d="M5.465 21.32a.328.328 0 01-.222-.57l6.532-5.992a.328.328 0 11.444.484l-6.532 5.992a.328.328 0 01-.222.087zm19.071 0a.327.327 0 01-.222-.085l-6.532-5.993a.328.328 0 11.444-.484l6.532 5.992a.328.328 0 01-.222.57z" fill="#000"/></svg>