<svg width="66" height="61" fill="none" xmlns="http://www.w3.org/2000/svg"><path fill-rule="evenodd" clip-rule="evenodd" d="M43.241 51.963v4.524c0 2.5-2.035 4.513-4.545 4.513H4.546A4.536 4.536 0 010 56.465V4.535C0 2.03 2.047 0 4.571 0h22.74v13.56c0 2.51 2.043 4.514 4.564 4.514h11.366v4.519H22.774c-3.78 0-6.843 3.032-6.843 6.775v15.82c0 3.742 3.04 6.775 6.843 6.775h20.467zM29.586 0v13.549a2.271 2.271 0 002.255 2.266h11.4L29.586 0zm-6.84 24.852c-2.507 0-4.54 2.034-4.54 4.5v15.851c0 2.486 2.055 4.5 4.54 4.5h38.715c2.507 0 4.539-2.033 4.539-4.5v-15.85c0-2.486-2.054-4.501-4.54-4.501H22.747zm29.599 11.296V31.63h9.103v-2.26H50.07v15.815h2.276v-6.778h6.827v-2.259h-6.827zm-29.586-2.26v11.297h2.276v-6.778h4.54c2.52 0 4.563-2.005 4.563-4.518 0-2.496-2.035-4.519-4.563-4.519H22.76v4.519zm2.276-2.258v4.518h4.554a2.26 2.26 0 100-4.518h-4.554zm11.379-2.26v15.815h6.816c2.52 0 4.563-2.003 4.563-4.532v-6.75c0-2.504-2.034-4.533-4.563-4.533h-6.816zm2.276 2.26v11.296h4.554a2.26 2.26 0 002.273-2.259v-6.779a2.26 2.26 0 00-2.273-2.258H38.69z" fill="#000"/></svg>