<?xml version="1.0" encoding="utf-8"?>
<!-- Generator: Adobe Illustrator 26.1.0, SVG Export Plug-In . SVG Version: 6.00 Build 0)  -->
<svg version="1.1" id="Layer_1" xmlns="http://www.w3.org/2000/svg" xmlns:xlink="http://www.w3.org/1999/xlink" x="0px" y="0px"
	 viewBox="0 0 36 36" style="enable-background:new 0 0 36 36;" xml:space="preserve">
<style type="text/css">
	.st0{fill:#BCBEC0;}
</style>
<g>
	<g id="g4635_00000099650144482063458170000016346863358471167882_" transform="translate(80.5205,162.219)">
		<path id="path4637_00000063622311091003354160000012778463233504957108_" class="st0" d="M-76.5-152.1c0,0.2-0.1,0.3-0.1,0.5
			c-0.3,1.3,0.1,2.7,1,3.8c0.8,1,1.8,1.7,2.7,2.5c1,0.8,1.9,1.5,2.8,2.4c0.7,0.7,1.2,1.5,1.4,2.5c0.1,1,0,2.1-0.5,3
			c-0.2-0.1-0.2-0.1-0.1-0.3c0-0.1,0.1-0.3,0.1-0.5c-0.5,0.2-0.9,0.1-1.3-0.3c-1.2-1.1-2.5-2.2-3.7-3.4c-1.1-1-2.1-2.1-2.8-3.4
			c-0.7-1.1-1-2.5-0.8-3.8c0-0.1,0-0.1,0-0.2c-0.2,0.5-0.2,1.1-0.2,1.6c0.1,1.4,0.7,2.5,1.4,3.6c1,1.3,2,2.5,3.2,3.7
			c1.3,1.3,2.5,2.7,3.5,4.2c0.8,1.3,1.4,2.7,1.5,4.2c0,0.2,0,0.3,0,0.5c-0.2,0-0.2,0-0.4-0.9h0c-0.3,0.2-0.6,0.4-1,0.1
			s-0.4-0.6-0.4-1c0.1-1.7-1-3.2-2.6-3.7c-2.1-0.6-4-1.6-5.6-3.1c-1.1-1-1.9-2.2-2.1-3.7c-0.1-1.2,0.1-2.5,0.6-3.6
			c0.7-1.7,1.8-3.1,2.9-4.5C-76.8-151.8-76.7-152-76.5-152.1L-76.5-152.1z"/>
	</g>
	<g id="g4639_00000054240387323937885730000013937900370806508455_" transform="translate(159.9609,195.3689)">
		<path id="path4641_00000045583175830588572050000009617162216066126227_" class="st0" d="M-136.9-193.2h1.7v4.8h2v-4.8h1.8v11.2
			h-1.7v-4.8h-2v4.8h-1.7C-136.9-182-136.9-193.2-136.9-193.2z"/>
	</g>
	<g id="g4643_00000110470658508149734610000004794113438606061206_" transform="translate(195.4004,163.3386)">
		<path id="path4645_00000085243059040018237860000017575055632585798044_" class="st0" d="M-163.9-153.5h1.7l-0.8-5.6h-0.1
			C-163.3-157.2-163.6-155.4-163.9-153.5 M-164.4-150h-1.6c0.6-3.7,1.2-7.5,1.8-11.2h2.6c0.6,3.7,1.2,7.4,1.8,11.2h-1.8
			c-0.1-0.7-0.2-1.3-0.3-2h-2c-0.1,0-0.2,0.1-0.2,0.2C-164.2-151.2-164.3-150.6-164.4-150"/>
	</g>
	<g id="g4647_00000085971836795727826000000008747268407859713973_" transform="translate(146.5303,163.3386)">
		<path id="path4649_00000111182721525611104720000011001965857966098835_" class="st0" d="M-126.7-153.5c-0.3-1.9-0.5-3.7-0.8-5.6
			h-0.1c-0.3,1.8-0.5,3.7-0.8,5.6L-126.7-153.5z M-126.5-152h-2c-0.1,0-0.2,0.1-0.2,0.2c-0.1,0.6-0.2,1.2-0.3,1.8h-1.6
			c0.6-3.7,1.2-7.5,1.8-11.2h2.6c0.6,3.7,1.2,7.4,1.8,11.2h-1.8C-126.3-150.6-126.4-151.3-126.5-152"/>
	</g>
	<g id="g4651_00000164504238430320934850000005044946760955989434_" transform="translate(175.751,81.7683)">
		<path id="path4653_00000173850154940383252760000017294812602067000709_" class="st0" d="M-148.9-52.4c-0.9,0.3-1.8,0.4-2.8,0.5
			c-0.1,0-0.2-0.1-0.2-0.2c-1-2.4-2.4-4.7-4-6.7c-1.8-2.3-4-4.3-6.4-5.9c0,0-0.1-0.1-0.2-0.1c0.6-0.1,1.1-0.1,1.7-0.2
			c0.1,0,0.2,0,0.3,0.1c1.9,1.1,3.8,2.4,5.4,4c2.6,2.4,4.7,5.2,6.2,8.4C-149-52.6-149-52.5-148.9-52.4
			C-148.9-52.5-148.9-52.4-148.9-52.4"/>
	</g>
	<g id="g4655_00000165201727252294511470000009978298099331656377_" transform="translate(196.1504,92.6091)">
		<path id="path4657_00000013184047063450293200000015968313966951990423_" class="st0" d="M-164.5-65.9l-2.2,1.6
			c-3-5.3-7.4-9.1-12.8-11.8c0.6-0.1,1.2-0.1,1.8-0.2c0.1,0,0.2,0,0.2,0.1c3.5,1.5,6.7,3.7,9.5,6.3
			C-166.6-68.7-165.5-67.3-164.5-65.9"/>
	</g>
	<g id="g4659_00000105416688306098358660000014336607342765616258_" transform="translate(149.8604,80.9284)">
		<path id="path4661_00000126288653653721457940000010253318589625107086_" class="st0" d="M-129.2-51.4c-1.1-0.2-2.2-0.6-3.2-1.1
			c-0.3-0.1-0.6-0.4-0.7-0.7c-1.3-3.3-3.2-6.3-5.6-9c0-0.1-0.1-0.1-0.2-0.2c-0.4-0.3-0.4-0.7-0.4-1.1c0-0.1,0.1-0.1,0.2-0.2h0
			c0.6-0.2,1,0.1,1.4,0.4c2.6,2.2,4.8,4.8,6.4,7.8c0.7,1.3,1.3,2.6,1.9,3.9C-129.3-51.6-129.3-51.5-129.2-51.4"/>
	</g>
	<g id="g4663_00000070828317396613608220000015285913043268629377_" transform="translate(103.4907,174.5886)">
		<path id="path4665_00000124854024504299061970000003728496735530705059_" class="st0" d="M-94-167.4v1.6h-2.3v4.6H-98v-11.2h4.6
			v1.6h-2.9v3.4L-94-167.4L-94-167.4z"/>
	</g>
	<g id="g4667_00000033368435477671740600000003936814979498220720_" transform="translate(109.7607,195.4289)">
		<path id="path4669_00000032615795396177630440000014976892554125481404_" class="st0" d="M-98.7-193.3h1.6c0,0,0.1,0,0.2,0v9.6
			h2.9v1.6h-4.6V-193.3z"/>
	</g>
	<g id="g4671_00000180368985612386997520000017239765895087186570_" transform="translate(208.3604,108.1189)">
		<path id="path4673_00000081617996568629360500000008651867917495851944_" class="st0" d="M-173.8-85.1l-1.2,1.9
			c-3.6-4-7.9-6.8-12.8-8.8c0.5,0,1-0.1,1.6-0.1c0.3,0,0.6,0,0.9,0.1c4,1.5,7.8,3.6,11,6.4c0.1,0.1,0.3,0.2,0.4,0.3
			C-173.8-85.2-173.8-85.1-173.8-85.1"/>
	</g>
	<g id="g4675_00000124121502187593759990000016923569085224139705_" transform="translate(211.4707,115.7585)">
		<path id="path4677_00000124866196364374467120000004648095176535622324_" class="st0" d="M-176.1-94.5c-3.2-2.2-6.6-3.9-10.2-5.1
			h2.2c0.8,0,1.4,0.3,2.1,0.6c2.1,0.8,4.1,1.7,6.1,2.8c0.2,0.1,0.3,0.2,0.2,0.4c-0.1,0.4-0.2,0.7-0.3,1.1
			C-176-94.7-176.1-94.6-176.1-94.5"/>
	</g>
	<g id="g4679_00000111167755439824773310000016111170100195718074_" transform="translate(196.8105,135.6892)">
		<path id="path4681_00000176747368188667043550000002327944003710748801_" class="st0" d="M-165-119.2l4.2,0.9v0.8L-165-119.2
			L-165-119.2z"/>
	</g>
</g>
</svg>
