<?xml version="1.0" encoding="UTF-8"?> <svg xmlns="http://www.w3.org/2000/svg" width="18" height="18" fill="none"><path fill-rule="evenodd" clip-rule="evenodd" d="M9 0a9 9 0 100 18A9 9 0 009 0zm-.25 7.627l-.02-.312c-.056-.807.441-1.544 1.228-1.83.29-.102.78-.114 1.102-.026.126.039.365.166.535.28l.308.21.34-.108a3.51 3.51 0 00.554-.216c.107-.057.202-.09.202-.07 0 .108-.233.477-.428.68-.265.286-.19.311.346.12.32-.107.327-.107.264.013a4.145 4.145 0 01-.44.49c-.353.35-.372.387-.372.68 0 .451-.214 1.392-.428 1.906-.397.966-1.246 1.964-2.096 2.466-1.196.706-2.79.884-4.13.47-.447-.14-1.215-.495-1.215-.559 0-.019.233-.044.516-.05a3.544 3.544 0 001.687-.47l.34-.204-.39-.134c-.554-.19-1.051-.629-1.177-1.042-.038-.133-.025-.14.327-.14l.365-.006-.308-.146c-.365-.185-.699-.496-.863-.814-.12-.229-.27-.807-.226-.851.012-.02.144.019.296.07.434.158.49.12.239-.147-.472-.483-.617-1.2-.39-1.88l.107-.306.415.413c.85.833 1.85 1.328 2.997 1.475l.314.038z" fill="#000"></path></svg> 