<?xml version="1.0" encoding="UTF-8"?> <svg xmlns="http://www.w3.org/2000/svg" width="18" height="18" fill="none"><path fill-rule="evenodd" clip-rule="evenodd" d="M9 0a9 9 0 100 18A9 9 0 009 0zm3.75 5.906c.414.113.739.447.85.871.2.77.2 2.373.2 2.373s0 1.604-.2 2.373a1.219 1.219 0 01-.85.871C12.003 12.6 9 12.6 9 12.6s-3.002 0-3.75-.206a1.219 1.219 0 01-.85-.871c-.2-.77-.2-2.373-.2-2.373s0-1.604.2-2.373c.111-.424.436-.758.85-.871C5.997 5.7 9 5.7 9 5.7s3.002 0 3.75.206z" fill="#000"></path><path d="M8.1 10.8v-3l2.4 1.5-2.4 1.5z" fill="#000"></path></svg> 