<svg version="1.1" id="prefix__Layer_1" xmlns="http://www.w3.org/2000/svg" x="0" y="0" viewBox="0 0 118.89 119.28"
    xml:space="preserve">
    <style>
        .prefix__st0 {
            fill: #bcbec0
        }
    </style>
    <g id="prefix__g4635_00000099650144482063458170000016346863358471167882_" transform="translate(80.52 162.219)">
        <path id="prefix__path4637_00000063622311091003354160000012778463233504957108_" class="prefix__st0"
            d="M-57.01-110.1c-.09.45-.21.89-.29 1.35-.66 3.52.27 7.14 2.54 9.91 1.99 2.58 4.57 4.52 7.07 6.55 2.5 2.03 4.96 4.04 7.27 6.25 1.87 1.73 3.11 4.03 3.54 6.55.38 2.69-.06 5.43-1.25 7.86-.44-.28-.43-.28-.24-.86.11-.34.2-.69.34-1.18-1.4.62-2.32.15-3.27-.72-3.19-2.94-6.49-5.78-9.69-8.75a36.503 36.503 0 01-7.4-8.88 15.32 15.32 0 01-2.07-9.85c.03-.17.02-.35-.03-.51-.42 1.37-.57 2.8-.46 4.23.18 3.57 1.72 6.6 3.75 9.44 2.56 3.39 5.35 6.6 8.36 9.59 3.31 3.47 6.62 6.94 9.2 11.02 2.2 3.32 3.57 7.13 4 11.09.04.42.05.84.07 1.25-.46-.09-.46-.09-1.16-2.45h-.07c-.81.62-1.65.94-2.62.38-.97-.56-1.11-1.47-1.08-2.5a9.613 9.613 0 00-6.87-9.53 37.702 37.702 0 01-14.56-8.03c-2.88-2.62-4.94-5.75-5.47-9.71-.36-3.24.17-6.52 1.53-9.49 1.87-4.37 4.62-8.21 7.61-11.87.34-.42.7-.82 1.05-1.25l.2.11z" />
    </g>
    <g id="prefix__g4639_00000054240387323937885730000013937900370806508455_" transform="translate(159.96 195.369)">
        <path id="prefix__path4641_00000045583175830588572050000009617162216066126227_" class="prefix__st0"
            d="M-86.82-163.96h4.52v12.49h5.26v-12.49h4.59v29.28h-4.56v-12.49h-5.27v12.49h-4.54v-29.28z" />
    </g>
    <g id="prefix__g4643_00000110470658508149734610000004794113438606061206_" transform="translate(195.4 163.339)">
        <path id="prefix__path4645_00000085243059040018237860000017575055632585798044_" class="prefix__st0"
            d="M-100.13-111.92h4.41l-2.12-14.54h-.15c-.71 4.81-1.42 9.63-2.14 14.54m-1.38 9.29h-4.24c1.56-9.78 3.12-19.5 4.67-29.28h6.77c1.55 9.7 3.1 19.45 4.67 29.25h-4.65c-.27-1.72-.54-3.47-.81-5.27h-5.21c-.17 0-.44.34-.48.56-.23 1.58-.48 3.14-.72 4.74" />
    </g>
    <g id="prefix__g4647_00000085971836795727826000000008747268407859713973_" transform="translate(146.53 163.339)">
        <path id="prefix__path4649_00000111182721525611104720000011001965857966098835_" class="prefix__st0"
            d="M-81.78-111.92c-.72-4.89-1.42-9.71-2.12-14.52h-.16c-.71 4.82-1.41 9.65-2.12 14.53l4.4-.01zm.62 4h-5.21c-.17 0-.44.35-.48.57-.26 1.54-.48 3.12-.72 4.69h-4.24c1.56-9.76 3.12-19.5 4.67-29.27h6.77c1.55 9.7 3.1 19.45 4.67 29.25h-4.65c-.27-1.7-.54-3.45-.81-5.24" />
    </g>
    <g id="prefix__g4651_00000164504238430320934850000005044946760955989434_" transform="translate(175.751 81.768)">
        <path id="prefix__path4653_00000173850154940383252760000017294812602067000709_" class="prefix__st0"
            d="M-92.75 20.61c-2.37.7-4.81 1.1-7.28 1.21-.2 0-.52-.29-.62-.52a75.92 75.92 0 00-10.44-17.49 72.238 72.238 0 00-16.79-15.47c-.1-.06-.19-.14-.44-.32 1.55-.19 2.94-.37 4.33-.5.3.02.58.13.82.3 5.09 2.88 9.82 6.36 14.09 10.36A71.994 71.994 0 01-92.9 20.1c.06.11.11.23.16.34 0 .05 0 .11-.01.17" />
    </g>
    <g id="prefix__g4655_00000165201727252294511470000009978298099331656377_" transform="translate(196.15 92.61)">
        <path id="prefix__path4657_00000013184047063450293200000015968313966951990423_" class="prefix__st0"
            d="M-100.41 3l-5.78 4.05c-7.89-13.87-19.24-23.74-33.36-30.93 1.69-.16 3.2-.31 4.72-.42.22.02.44.09.62.21a84.962 84.962 0 0124.75 16.45c3.38 3.23 6.41 6.79 9.05 10.64" />
    </g>
    <g id="prefix__g4659_00000105416688306098358660000014336607342765616258_" transform="translate(149.86 80.928)">
        <path id="prefix__path4661_00000126288653653721457940000010253318589625107086_" class="prefix__st0"
            d="M-83.03 21.97c-2.89-.63-5.68-1.62-8.32-2.95a3.53 3.53 0 01-1.8-1.94 81.89 81.89 0 00-14.62-23.43c-.13-.18-.29-.34-.46-.49-1.02-.72-1.11-1.77-1-2.86 0-.21.32-.38.49-.57h.07c1.51-.59 2.55.19 3.64 1.11a73.298 73.298 0 0116.82 20.39c1.84 3.28 3.32 6.75 4.95 10.13.07.15.11.32.23.61" />
    </g>
    <g id="prefix__g4663_00000070828317396613608220000015285913043268629377_" transform="translate(103.49 174.589)">
        <path id="prefix__path4665_00000124854024504299061970000003728496735530705059_" class="prefix__st0"
            d="M-65.63-130.19v4.18h-5.92v12.13h-4.58v-29.3H-64v4.14h-7.5v8.86h5.87z" />
    </g>
    <g id="prefix__g4667_00000033368435477671740600000003936814979498220720_" transform="translate(109.76 195.429)">
        <path id="prefix__path4669_00000032615795396177630440000014976892554125481404_" class="prefix__st0"
            d="M-67.98-164.05h4.1c.12 0 .24 0 .41.03v25.15h7.6v4.15h-12.11v-29.33z" />
    </g>
    <g id="prefix__g4671_00000180368985612386997520000017239765895087186570_" transform="translate(208.36 108.119)">
        <path id="prefix__path4673_00000081617996568629360500000008651867917495851944_" class="prefix__st0"
            d="M-104.99-22.2l-3.17 4.91c-9.3-10.46-20.65-17.63-33.36-22.94 1.35-.06 2.7-.19 4.05-.17.81-.01 1.62.12 2.39.37 10.52 3.97 20.25 9.31 28.83 16.64.34.29.68.59 1.01.89.1.1.18.2.25.3" />
    </g>
    <g id="prefix__g4675_00000124121502187593759990000016923569085224139705_" transform="translate(211.47 115.758)">
        <path id="prefix__path4677_00000124866196364374467120000004648095176535622324_" class="prefix__st0"
            d="M-106.16-34.61a108.405 108.405 0 00-26.68-13.41h5.7c2.02 0 3.75.91 5.58 1.57 5.48 2.01 10.81 4.43 15.92 7.24.51.28.66.54.49 1.1-.3.96-.52 1.93-.78 2.89-.05.17-.13.38-.23.61" />
    </g>
    <g id="prefix__g4679_00000111167755439824773310000016111170100195718074_" transform="translate(196.81 135.69)">
        <path id="prefix__path4681_00000176747368188667043550000002327944003710748801_" class="prefix__st0"
            d="M-100.65-67l10.84 2.41v2.16l-10.9-4.37.06-.2z" />
    </g>
    <path d="M107.5 115.5h-96c-3.87 0-7-3.13-7-7v-96c0-3.87 3.13-7 7-7h96c3.87 0 7 3.13 7 7v96c0 3.87-3.13 7-7 7z"
        fill="none" stroke="#bcbec0" stroke-width="3" stroke-miterlimit="10" />
</svg>